<svg height="197.79pt" viewBox="0 0 114.67 69.778" width="325.05pt" xmlns="http://www.w3.org/2000/svg"><circle cx="89.733" cy="31.359" fill="#00fe00" r="2.966"/><g stroke-width="0"><g fill="#f00"><circle cx="53.723" cy="66.459" r="2.966"/><circle cx="17.723" cy="3.3188" r="2.966"/><circle cx="3.3188" cy="59.359" r="2.966"/><circle cx="17.723" cy="59.359" r="2.966"/><circle cx="75.333" cy="59.359" r="2.966"/><circle cx="32.123" cy="59.359" r="2.966"/><circle cx="39.323" cy="3.3188" r="2.966"/><circle cx="75.333" cy="66.459" r="2.966"/><circle cx="82.533" cy="3.3188" r="2.966"/><circle cx="75.333" cy="3.3188" r="2.966"/><circle cx="96.933" cy="59.359" r="2.966"/><circle cx="60.933" cy="3.3188" r="2.966"/><circle cx="111.35" cy="3.3188" r="2.966"/><circle cx="104.15" cy="3.3188" r="2.966"/><circle cx="32.123" cy="66.459" r="2.966"/><circle cx="89.733" cy="59.359" r="2.966"/><circle cx="24.923" cy="10.329" r="2.966"/><circle cx="39.323" cy="66.459" r="2.966"/><circle cx="10.523" cy="10.329" r="2.966"/><circle cx="96.933" cy="10.329" r="2.966"/><circle cx="53.723" cy="10.329" r="2.966"/><circle cx="96.933" cy="66.459" r="2.966"/><circle cx="10.523" cy="66.459" r="2.966"/><circle cx="32.123" cy="10.329" r="2.966"/><circle cx="75.333" cy="10.329" r="2.966"/><circle cx="68.133" cy="59.359" r="2.966"/><circle cx="104.15" cy="66.459" r="2.966"/><circle cx="60.933" cy="10.329" r="2.966"/><circle cx="46.523" cy="10.329" r="2.966"/><circle cx="104.15" cy="10.329" r="2.966"/><circle cx="82.533" cy="66.459" r="2.966"/><circle cx="89.733" cy="10.329" r="2.966"/><circle cx="111.35" cy="59.359" r="2.966"/><circle cx="17.723" cy="17.339" r="2.966"/><circle cx="10.523" cy="17.339" r="2.966"/><circle cx="3.3188" cy="17.339" r="2.966"/><circle cx="53.723" cy="17.339" r="2.966"/><circle cx="46.523" cy="17.339" r="2.966"/><circle cx="39.323" cy="17.339" r="2.966"/><circle cx="32.123" cy="17.339" r="2.966"/><circle cx="82.533" cy="17.339" r="2.966"/><circle cx="75.333" cy="17.339" r="2.966"/><circle cx="104.15" cy="59.359" r="2.966"/><circle cx="60.933" cy="17.339" r="2.966"/><circle cx="111.35" cy="17.339" r="2.966"/><circle cx="104.15" cy="17.339" r="2.966"/><circle cx="96.933" cy="17.339" r="2.966"/><circle cx="46.523" cy="66.459" r="2.966"/><circle cx="24.923" cy="24.349" r="2.966"/><circle cx="17.723" cy="24.349" r="2.966"/><circle cx="10.523" cy="24.349" r="2.966"/><circle cx="3.3188" cy="24.349" r="2.966"/><circle cx="53.723" cy="24.349" r="2.966"/><circle cx="46.523" cy="24.349" r="2.966"/><circle cx="39.323" cy="24.349" r="2.966"/><circle cx="32.123" cy="24.349" r="2.966"/><circle cx="60.933" cy="59.359" r="2.966"/><circle cx="75.333" cy="24.349" r="2.966"/><circle cx="68.133" cy="24.349" r="2.966"/><circle cx="46.523" cy="59.359" r="2.966"/><circle cx="111.35" cy="24.349" r="2.966"/><circle cx="82.533" cy="52.389" r="2.966"/><circle cx="96.933" cy="24.349" r="2.966"/><circle cx="89.733" cy="24.349" r="2.966"/><circle cx="89.733" cy="66.459" r="2.966"/><circle cx="17.723" cy="31.359" r="2.966"/><circle cx="39.323" cy="59.359" r="2.966"/><circle cx="3.3188" cy="31.359" r="2.966"/><circle cx="53.723" cy="31.359" r="2.966"/><circle cx="3.3188" cy="66.459" r="2.966"/><circle cx="39.323" cy="31.359" r="2.966"/><circle cx="32.123" cy="31.359" r="2.966"/><circle cx="82.533" cy="31.359" r="2.966"/><circle cx="75.333" cy="31.359" r="2.966"/><circle cx="68.133" cy="31.359" r="2.966"/><circle cx="60.933" cy="31.359" r="2.966"/><circle cx="111.35" cy="31.359" r="2.966"/><circle cx="104.15" cy="31.359" r="2.966"/><circle cx="96.933" cy="31.359" r="2.966"/><circle cx="17.723" cy="66.459" r="2.966"/><circle cx="24.923" cy="38.369" r="2.966"/><circle cx="17.723" cy="38.369" r="2.966"/><circle cx="10.523" cy="38.369" r="2.966"/><circle cx="3.3188" cy="38.369" r="2.966"/><circle cx="53.723" cy="38.369" r="2.966"/><circle cx="46.523" cy="38.369" r="2.966"/><circle cx="39.323" cy="38.369" r="2.966"/><circle cx="32.123" cy="38.369" r="2.966"/><circle cx="82.533" cy="38.369" r="2.966"/><circle cx="75.333" cy="38.369" r="2.966"/><circle cx="24.923" cy="59.359" r="2.966"/><circle cx="60.933" cy="38.369" r="2.966"/><circle cx="111.35" cy="38.369" r="2.966"/><circle cx="104.15" cy="38.369" r="2.966"/><circle cx="24.923" cy="66.459" r="2.966"/><circle cx="89.733" cy="38.369" r="2.966"/><circle cx="60.933" cy="66.459" r="2.966"/><circle cx="17.723" cy="45.379" r="2.966"/><circle cx="10.523" cy="45.379" r="2.966"/><circle cx="3.3188" cy="45.379" r="2.966"/><circle cx="53.723" cy="45.379" r="2.966"/><circle cx="46.523" cy="45.379" r="2.966"/><circle cx="39.323" cy="45.379" r="2.966"/><circle cx="32.123" cy="45.379" r="2.966"/><circle cx="68.133" cy="66.459" r="2.966"/><circle cx="75.333" cy="45.379" r="2.966"/><circle cx="68.133" cy="45.379" r="2.966"/><circle cx="60.933" cy="45.379" r="2.966"/><circle cx="111.35" cy="45.379" r="2.966"/><circle cx="104.15" cy="45.379" r="2.966"/><circle cx="96.933" cy="45.379" r="2.966"/><circle cx="89.733" cy="45.379" r="2.966"/><circle cx="24.923" cy="52.389" r="2.966"/><circle cx="17.723" cy="52.389" r="2.966"/><circle cx="10.523" cy="52.389" r="2.966"/><circle cx="3.3188" cy="52.389" r="2.966"/><circle cx="53.723" cy="52.389" r="2.966"/><circle cx="46.523" cy="52.389" r="2.966"/><circle cx="53.723" cy="59.359" r="2.966"/><circle cx="32.123" cy="52.389" r="2.966"/><circle cx="111.35" cy="66.459" r="2.966"/><circle cx="75.333" cy="52.389" r="2.966"/><circle cx="82.533" cy="59.359" r="2.966"/><circle cx="60.933" cy="52.389" r="2.966"/><circle cx="111.35" cy="52.389" r="2.966"/><circle cx="104.15" cy="52.389" r="2.966"/><circle cx="96.933" cy="52.389" r="2.966"/><circle cx="89.733" cy="52.389" r="2.966"/></g><g fill="#00fe00"><circle cx="68.133" cy="38.369" r="2.966"/><circle cx="3.3188" cy="3.3188" r="2.966"/><circle cx="10.523" cy="59.359" r="2.966"/><circle cx="10.523" cy="3.3188" r="2.966"/><circle cx="39.323" cy="52.389" r="2.966"/><circle cx="60.933" cy="24.349" r="2.966"/><circle cx="10.523" cy="31.359" r="2.966"/><circle cx="46.523" cy="3.3188" r="2.966"/><circle cx="68.133" cy="52.389" r="2.966"/><circle cx="53.723" cy="3.3188" r="2.966"/><circle cx="82.533" cy="10.329" r="2.966"/><circle cx="82.533" cy="24.349" r="2.966"/><circle cx="24.923" cy="17.339" r="2.966"/><circle cx="68.133" cy="17.339" r="2.966"/><circle cx="68.133" cy="3.3188" r="2.966"/><circle cx="89.733" cy="3.3188" r="2.966"/><circle cx="96.933" cy="38.369" r="2.966"/><circle cx="39.323" cy="10.329" r="2.966"/><circle cx="46.523" cy="31.359" r="2.966"/><circle cx="24.923" cy="3.3188" r="2.966"/><circle cx="89.733" cy="17.339" r="2.966"/><circle cx="17.723" cy="10.329" r="2.966"/><circle cx="96.933" cy="3.3188" r="2.966"/><circle cx="3.3188" cy="10.329" r="2.966"/><circle cx="32.123" cy="3.3188" r="2.966"/><circle cx="82.533" cy="45.379" r="2.966"/><circle cx="24.923" cy="45.379" r="2.966"/><circle cx="104.15" cy="24.349" r="2.966"/><circle cx="68.133" cy="10.329" r="2.966"/><circle cx="111.35" cy="10.329" r="2.966"/><circle cx="24.923" cy="31.359" r="2.966"/></g></g></svg>