<svg height="154.52pt" viewBox="0 0 418.4 154.52" width="418.4pt" xmlns="http://www.w3.org/2000/svg" xmlns:xlink="http://www.w3.org/1999/xlink"><symbol id="a" overflow="visible"><path d="m-2.703-4.016c-1.953 0-2.906.6094-2.906 1.844 0 1.203.9688 1.828 2.859 1.828s2.875-.625 2.875-1.828c0-1.188-.9844-1.844-2.828-1.844zm-.0625.7188c1.594 0 2.312.3594 2.312 1.141 0 .7344-.75 1.109-2.281 1.109-1.547 0-2.266-.375-2.266-1.125 0-.7656.7344-1.125 2.234-1.125z"/></symbol><symbol id="b" overflow="visible"><path d="m0-2.75h-5.609v.4531c.8594.25.9688.4062 1.109 1.484h.5v-1.234h4z"/></symbol><symbol id="c" overflow="visible"><path d="m-3.969-4.047c-.9531 0-1.641.7344-1.641 1.797 0 1.156.5781 1.812 1.938 1.859v-.7031c-.9375-.0625-1.328-.4375-1.328-1.125 0-.6406.4375-1.109 1.047-1.109.4375 0 .8281.25 1.109.75l.4062.7344c.6719 1.172 1.203 1.516 2.438 1.578v-3.75h-.6875v2.969c-.4688-.07812-.75-.3281-1.156-1.016l-.4375-.7969c-.4062-.7812-1-1.188-1.688-1.188z"/></symbol><symbol id="d" overflow="visible"><path d="m-1.75-4.062c-1.031 0-1.75.7188-1.75 1.719 0 .5469.2188.9844.625 1.297-1.359-.01562-2.125-.4531-2.125-1.266 0-.4844.3125-.8281.8438-.9375v-.6875c-.9062.125-1.453.7344-1.453 1.578 0 1.312 1.094 2.016 3.047 2.016 1.75 0 2.688-.5938 2.688-1.875 0-1.078-.7656-1.844-1.875-1.844zm.0625.7188c.7031 0 1.188.4688 1.188 1.109 0 .6562-.5 1.141-1.234 1.141-.6875 0-1.141-.4688-1.141-1.156s.4375-1.094 1.188-1.094z"/></symbol><symbol id="e" overflow="visible"><path d="m2.75 0v-5.609h-.4531c-.25.8594-.4062.9688-1.484 1.109v.5h1.234v4z"/></symbol><symbol id="f" overflow="visible"><path d="m4.016-2.703c0-1.953-.6094-2.906-1.844-2.906-1.203 0-1.828.9688-1.828 2.859s.625 2.875 1.828 2.875c1.188 0 1.844-.9844 1.844-2.828zm-.7188-.0625c0 1.594-.3594 2.312-1.141 2.312-.7344 0-1.109-.75-1.109-2.281 0-1.547.375-2.266 1.125-2.266.7656 0 1.125.7344 1.125 2.234z"/></symbol><g style="fill:none;stroke:#000;stroke-linecap:round;stroke-linejoin:round;stroke-miterlimit:10;stroke-width:2"><path d="m18.931 123.7h-4.754"/><path d="m18.931 66.39h-4.754"/><path d="m18.931 9.07h-4.754"/></g><g transform="translate(-.55894 -461.2)"><use height="100%" width="100%" x="7.168945" xlink:href="#b" y="593.91797"/><use height="100%" width="100%" x="7.168945" xlink:href="#c" y="589.51465"/><use height="100%" width="100%" x="7.168945" xlink:href="#a" y="585.11133"/><use height="100%" width="100%" x="7.168945" xlink:href="#a" y="580.70801"/></g><g transform="translate(-.55894 -480.3)"><use height="100%" width="100%" x="7.168945" xlink:href="#b" y="555.70703"/><use height="100%" width="100%" x="7.168945" xlink:href="#d" y="551.30371"/><use height="100%" width="100%" x="7.168945" xlink:href="#a" y="546.90039"/><use height="100%" width="100%" x="7.168945" xlink:href="#a" y="542.49707"/></g><g transform="translate(-.55894 -490.8)"><use height="100%" width="100%" x="7.168945" xlink:href="#c" y="517.49219"/><use height="100%" width="100%" x="7.168945" xlink:href="#a" y="513.08887"/><use height="100%" width="100%" x="7.168945" xlink:href="#a" y="508.68555"/><use height="100%" width="100%" x="7.168945" xlink:href="#a" y="504.28223"/></g><g style="fill:none;stroke:#000;stroke-linecap:round;stroke-linejoin:round;stroke-miterlimit:10;stroke-width:2"><path d="m18.921 137.2h391.3v-129.3h-391.3z"/><path d="m18.931 137.2v4.754"/><path d="m214.5 137.2v4.754"/><path d="m410 137.2v4.754"/></g><use height="100%" transform="translate(-.55894 -461.2)" width="100%" x="16.984375" xlink:href="#e" y="614.59863"/><use height="100%" transform="translate(116.6 -461.2)" width="100%" x="93.195312" xlink:href="#e" y="614.59863"/><use height="100%" transform="translate(116.6 -461.2)" width="100%" x="97.598633" xlink:href="#f" y="614.59863"/><g transform="translate(234.3 -461.2)"><use height="100%" width="100%" x="168.90625" xlink:href="#e" y="614.59863"/><use height="100%" width="100%" x="173.30957" xlink:href="#f" y="614.59863"/><use height="100%" width="100%" x="177.71289" xlink:href="#f" y="614.59863"/></g><g style="fill:none;stroke:#0000b9;stroke-linecap:round;stroke-linejoin:round;stroke-miterlimit:10;stroke-width:2"><path d="m18.921055 7.901.0093 72.83h39.2v6.244h22.94v7.193h16.27v.8158h12.620005v1.493h10.32v.6771h8.717v3.668h7.552v.6771h54.59v.6771h12.08v2.447h11.75v1.082h1.737v1.221h4.924v.6826h1.548v.5384h2.979v.4107h1.431v.4052h35.56v.5439h1.49v.1331h6.251v.4107h10.75v.1331h2.134v.6826h6.895v.6771h.4618v.1331h.4554v.5439h116.7"/><path d="m18.931055 41.79v46.69h39.2v3.935h22.94v2.448h16.27v3.935h12.620005v1.36h10.32v2.575h8.717v.1388h7.552v1.221h6.667v5.428h20.8v2.309h4.189v.272h3.903v.5439h3.656v.2664h9.718v.5439h2.901v.5439h2.758v.6771h14.21v.1388h2.062v.272h5.757v.5439h8.456v.2664h1.548v.272h1.509v.272h1.47v.8158h2.83v.1331h3.994v.6826h3.727v.1331h32.85v.272h26.42v.4107h1.249v.949h.4098v.272h2.407v.1331h.3968v.2719h14.39v.949h1.49v1.493h.2927v.6771h12.33v.5439h.9367v.9546h79.1"/><path d="m18.921055 7.901.0093 59.54h39.2v5.7h22.94v3.391h16.27v3.663h12.620005v3.53h10.32v6.11h8.717v.949h7.552v2.17h6.667v.5439h5.958v.949h10.31v1.36h4.527v.1331h4.189v1.088h3.903v1.088h3.656v2.442h3.428v2.037h6.29v3.391h2.901v.1387h2.758v.6771h2.634v.5439h15.62v.1331h1.919v.4107h3.649v.2664h1.737v.1388h1.691v.5439h1.639v.4052h1.594v1.36h1.548v.1331h4.41v.1387h34.8v.1331h1.509v.5439h.7416v.6771h.7285v.5439h.7221v.272h.709v.1331h2.082v1.493h.683v.1388h.67v.6771h.657v.1387h1.301v.4056h.6375v.5439h12.5v.272h.5074v.1331h2.953v.2719h.4749v.272h2.329v.1331h15.47v.8158h2.381v.8158h.657v.2719h.3318v.272h.6505v.6771h3.448v.272h3.818v.272h.5659v.1331h90.07"/><path d="m18.931055 9.07v60h39.2v8.28h22.94v7.06h16.27v1.082h22.940005v1.904h8.717v.4052h7.552v.1331h6.668v.5439h5.958v.4107h10.31v3.119h12.62v.949h3.656v.5439h3.428v.5439h3.233v.6772h3.057v1.493h5.659v.1388h7.552v.1331h2.309v.5439h2.218v.5439h2.134v1.765h4.046v.5439h1.919v.4052h1.854v.4051h5.223v.4107h4.781v.1331h5.809v.6771h1.36v.6826h6.362v.5439h5.724v.949h2.134v.272h2.056v.5383h9.295v.6826h4.131v1.493h1.568v.8158h2.277v.4052h7.65v.2719h137.4"/><path d="m18.931055 15.86v43.16h39.2v11.27h22.94v4.346h16.27v2.847h12.620005v2.176h33.25v2.442h5.958v.4051h5.386v1.088h4.924v4.207h8.717v.1331h3.903v.2719h3.656v1.904h3.428v.949h3.233v.949h3.057v.272h29.49v.5439h1.737v.8158h1.691v.1331h3.233v.5439h1.548v.272h1.509v.272h1.47v.949h14.05v.272h1.125v.1331h2.173v.6826h31.2v.2664h51.58v.272h.2472v.1387h.2472v.4052h.4879v.2719h35.57v.272h.1301v.5439h45.37"/></g><text font-family="sans-serif" font-size="30" letter-spacing="0" stroke-width=".75" word-spacing="0" x="1.89809" y="46.092888"><tspan font-family="DejaVu Sans" font-size="10" stroke-width=".75" x="1.89809" y="46.092888">f</tspan></text><text font-family="sans-serif" font-size="30" letter-spacing="0" stroke-width=".75" word-spacing="0" x="284.70538" y="153.3759"><tspan font-family="DejaVu Sans" font-size="10" stroke-width=".75" x="284.70538" y="153.3759">time in ms</tspan></text><path d="m314.1 1v140h.4575" fill="none" stroke="#00a000" stroke-width="2"/><g fill="#00a000"><circle cx="314.10001" cy="108.4" r="2.974"/><circle cx="314.10001" cy="111.8" r="2.974"/><circle cx="314.10001" cy="119.6" r="2.974"/><circle cx="314.10001" cy="121.4" r="2.974"/><text font-family="'DejaVu Sans'" font-size="10" letter-spacing="0" stroke-width=".75" word-spacing="0" x="179.29123" y="23.43615"><tspan fill="#00a000" x="179.29123" y="23.43615">vertical cut:</tspan><tspan fill="#00a000" x="179.29123" y="35.93615">solution quality achieved</tspan><tspan fill="#00a000" x="179.29123" y="48.43615">within given time</tspan></text></g><path d="m273.8 43.82 40.77 21.68" fill="none" stroke="#00a000" stroke-width=".75"/><circle cx="314.1" cy="97.06" fill="#00a000" r="2.974"/></svg>