<svg height="242.67" viewBox="0 0 524 242.67" width="524" xmlns="http://www.w3.org/2000/svg"><g transform="matrix(1.3333 0 0 -1.3333 0 242.67)"><g fill="none" stroke="#b4b4b4" stroke-linecap="round" stroke-linejoin="round"><path d="m355.73 94.551h-337.61" stroke-dasharray="1.999 1.999" stroke-width=".99945"/><path d="m355.73 177.53h-337.61" stroke-dasharray="1.999 1.999" stroke-width=".99945"/><g stroke-width=".99975"><path d="m52.512 11.57v167.96"/><path d="m86.301 11.57v167.96"/><path d="m120.09 11.57v167.96"/><path d="m153.89 11.57v167.96"/><path d="m187.68 11.57v167.96"/><path d="m221.47 11.57v167.96"/><path d="m255.26 11.57v167.96"/><path d="m289.05 11.57v167.96"/><path d="m322.84 11.57v167.96"/></g></g><path d="m18.418 11.571h.42188v169.36h-.42188z" fill="#bfbfbf" fill-rule="evenodd"/><path d="m18.617 11.477h338.12v.29297h-338.12z" fill="#bfbfbf" fill-rule="evenodd"/><path d="m356.54 11.57h-337.72" fill="none" stroke="#000" stroke-linecap="round" stroke-linejoin="round" stroke-width="1.9995"/><path d="m357.34 11.77v169.06" fill="none" stroke="#000" stroke-linecap="round" stroke-linejoin="round" stroke-width="1.9995"/><path d="m18.357 6.2114q-.68538 0-1.0325-.67659-.34269-.6722-.34269-2.0254 0-1.3488.34269-2.0254.34708-.6722 1.0325-.6722.68977 0 1.0325.6722.34708.67659.34708 2.0254 0 1.3532-.34708 2.0254-.34269.67659-1.0325.67659zm0 .70295q1.1028 0 1.6827-.87429.58433-.8699.58433-2.5306 0-1.6563-.58433-2.5306-.57993-.8699-1.6827-.8699-1.1028 0-1.6871.8699-.57993.87429-.57993 2.5306 0 1.6607.57993 2.5306.58433.87429 1.6871.87429z"/><path d="m47.692.98321h1.4498v5.0041l-1.5772-.31633v.80839l1.5685.31633h.88747v-5.8125h1.4498v-.74688h-3.7784z"/><path d="m55.158 6.2114q-.68538 0-1.0325-.67659-.34269-.6722-.34269-2.0254 0-1.3488.34269-2.0254.34708-.6722 1.0325-.6722.68977 0 1.0325.6722.34708.67659.34708 2.0254 0 1.3532-.34708 2.0254-.34269.67659-1.0325.67659zm0 .70295q1.1028 0 1.6827-.87429.58433-.8699.58433-2.5306 0-1.6563-.58433-2.5306-.57993-.8699-1.6827-.8699-1.1028 0-1.6871.8699-.57993.87429-.57993 2.5306 0 1.6607.57993 2.5306.58433.87429 1.6871.87429z"/><path d="m82.287.98321h3.0974v-.74688h-4.165v.74688q.50524.52282 1.3751 1.4015.87429.88308 1.0984 1.1379.42616.47888.59311.80839.17134.3339.17134.65462 0 .52282-.36905.85233-.36466.32951-.95338.32951-.41738 0-.88308-.14498-.46131-.14498-.98852-.43934v.89626q.536.21528 1.0017.32511t.85233.10984q1.0193 0 1.6256-.50964t.60629-1.362q0-.4042-.15377-.76885-.14938-.36026-.54918-.85233-.10984-.12741-.69856-.7381-.58872-.60629-1.6607-1.7003z"/><path d="m89.143 6.2114q-.68538 0-1.0325-.67659-.34269-.6722-.34269-2.0254 0-1.3488.34269-2.0254.34708-.6722 1.0325-.6722.68977 0 1.0325.6722.34708.67659.34708 2.0254 0 1.3532-.34708 2.0254-.34269.67659-1.0325.67659zm0 .70295q1.1028 0 1.6827-.87429.58433-.8699.58433-2.5306 0-1.6563-.58433-2.5306-.57993-.8699-1.6827-.8699-1.1028 0-1.6871.8699-.57993.87429-.57993 2.5306 0 1.6607.57993 2.5306.58433.87429 1.6871.87429z"/><path d="m117.95 3.773q.63704-.1362.99291-.56675.36026-.43056.36026-1.0632 0-.97095-.6678-1.5026-.6678-.53161-1.898-.53161-.41298 0-.85233.083475-.43495.079082-.90065.24164v.85672q.36905-.21528.80839-.32511.43934-.10984.91823-.10984.83475 0 1.2697.32951.43934.32951.43934.95777 0 .57993-.40859.90505-.40419.32951-1.1291.32951h-.76446v.72931h.79961q.65462 0 1.0017.25921.34708.26361.34708.75567 0 .50524-.36026.77324-.35587.27239-1.0237.27239-.36465 0-.78203-.079082t-.91823-.24603v.79082q.50525.14059.94459.21088.44374.070295.83475.070295 1.0105 0 1.5992-.46131.58872-.45692.58872-1.2389 0-.54479-.31193-.92262-.31193-.37344-.88747-.51842z"/><path d="m122.88 6.2114q-.68537 0-1.0324-.67659-.34269-.6722-.34269-2.0254 0-1.3488.34269-2.0254.34708-.6722 1.0324-.6722.68977 0 1.0325.6722.34708.67659.34708 2.0254 0 1.3532-.34708 2.0254-.34269.67659-1.0325.67659zm0 .70295q1.1028 0 1.6827-.87429.58432-.8699.58432-2.5306 0-1.6563-.58432-2.5306-.57994-.8699-1.6827-.8699t-1.6871.8699q-.57993.87429-.57993 2.5306 0 1.6607.57993 2.5306.58433.87429 1.6871.87429z"/><path d="m151.65 6.0225-2.2406-3.5016h2.2406zm-.23285.77324h1.1159v-4.2748h.9358v-.7381h-.9358v-1.5465h-.88308v1.5465h-2.9612v.85672z"/><path d="m156.83 6.2114q-.68537 0-1.0324-.67659-.34269-.6722-.34269-2.0254 0-1.3488.34269-2.0254.34708-.6722 1.0324-.6722.68977 0 1.0325.6722.34708.67659.34708 2.0254 0 1.3532-.34708 2.0254-.34269.67659-1.0325.67659zm0 .70295q1.1028 0 1.6827-.87429.58432-.8699.58432-2.5306 0-1.6563-.58432-2.5306-.57994-.8699-1.6827-.8699t-1.6871.8699q-.57993.87429-.57993 2.5306 0 1.6607.57993 2.5306.58433.87429 1.6871.87429z"/><path d="m182.85 6.7957h3.484v-.74688h-2.6712v-1.608q.19331.065901.38662.096656.19331.035147.38662.035147 1.0984 0 1.7398-.6019.64144-.6019.64144-1.63 0-1.0588-.65901-1.6475-.65902-.58433-1.8584-.58433-.41298 0-.84353.070295-.42617.070295-.88308.21088v.89187q.3954-.21528.81717-.32072t.89187-.10544q.76007 0 1.2038.3998.44374.3998.44374 1.0852t-.44374 1.0852q-.44373.3998-1.2038.3998-.35587 0-.71173-.079082-.35148-.079082-.72053-.24603z"/><path d="m190.46 6.2114q-.68537 0-1.0324-.67659-.34269-.6722-.34269-2.0254 0-1.3488.34269-2.0254.34708-.6722 1.0324-.6722.68977 0 1.0325.6722.34708.67659.34708 2.0254 0 1.3532-.34708 2.0254-.34269.67659-1.0325.67659zm0 .70295q1.1028 0 1.6827-.87429.58432-.8699.58432-2.5306 0-1.6563-.58432-2.5306-.57994-.8699-1.6827-.8699t-1.6871.8699q-.57993.87429-.57993 2.5306 0 1.6607.57993 2.5306.58433.87429 1.6871.87429z"/><path d="m218.7 3.8697q-.59751 0-.94898-.40859-.34709-.40859-.34709-1.1203 0-.70734.34709-1.1203.35147-.40859.94898-.40859.5975 0 .94458.40859.35148.41298.35148 1.1203 0 .71174-.35148 1.1203-.34708.40859-.94458.40859zm1.7618 2.781v-.80839q-.3339.15816-.67659.24164-.33829.083475-.67219.083475-.87869 0-1.3444-.59311-.46131-.59311-.52721-1.7925.25921.38223.65023.58433.39101.20649.86111.20649.98852 0 1.5597-.6019.57554-.59751.57554-1.63 0-1.0105-.59751-1.6212-.59751-.61069-1.5904-.61069-1.1379 0-1.7398.8699-.6019.87429-.6019 2.5306 0 1.5553.73809 2.4779.7381.92701 1.9814.92701.3339 0 .6722-.065902.34268-.065901.71173-.1977z"/><path d="m224.32 6.2114q-.68538 0-1.0325-.67659-.34269-.6722-.34269-2.0254 0-1.3488.34269-2.0254.34708-.6722 1.0325-.6722.68976 0 1.0324.6722.34708.67659.34708 2.0254 0 1.3532-.34708 2.0254-.34269.67659-1.0324.67659zm0 .70295q1.1028 0 1.6827-.87429.58433-.8699.58433-2.5306 0-1.6563-.58433-2.5306-.57993-.8699-1.6827-.8699-1.1028 0-1.6871.8699-.57994.87429-.57994 2.5306 0 1.6607.57994 2.5306.58432.87429 1.6871.87429z"/><path d="m250.17 6.7957h4.2177v-.37784l-2.3812-6.1816h-.92702l2.2406 5.8125h-3.1501z"/><path d="m258.01 6.2114q-.68538 0-1.0325-.67659-.34269-.6722-.34269-2.0254 0-1.3488.34269-2.0254.34708-.6722 1.0325-.6722.68977 0 1.0324.6722.34708.67659.34708 2.0254 0 1.3532-.34708 2.0254-.34268.67659-1.0324.67659zm0 .70295q1.1028 0 1.6827-.87429.58433-.8699.58433-2.5306 0-1.6563-.58433-2.5306-.57993-.8699-1.6827-.8699-1.1028 0-1.6871.8699-.57994.87429-.57994 2.5306 0 1.6607.57994 2.5306.58432.87429 1.6871.87429z"/><path d="m286.18 3.3513q-.63266 0-.99731-.33829-.36026-.33829-.36026-.93141 0-.59311.36026-.93141.36465-.33829.99731-.33829.63265 0 .99731.33829.36465.34269.36465.93141 0 .59311-.36465.93141-.36026.33829-.99731.33829zm-.88748.37784q-.57114.14059-.89186.53161-.31633.39102-.31633.95337 0 .78642.55797 1.2433.56236.45692 1.5377.45692.97973 0 1.5377-.45692t.55797-1.2433q0-.56236-.32072-.95337-.31633-.39102-.88308-.53161.64144-.14938.9973-.58433.36027-.43495.36027-1.0632 0-.95337-.58433-1.463-.57993-.50964-1.6651-.50964t-1.6695.50964q-.57993.50964-.57993 1.463 0 .62826.36026 1.0632.36026.43495 1.0017.58433zm-.32511 1.4015q0-.50964.31633-.79521.32072-.28557.89626-.28557.57114 0 .89187.28557.32511.28557.32511.79521t-.32511.79521q-.32073.28557-.89187.28557-.57554 0-.89626-.28557-.31633-.28557-.31633-.79521z"/><path d="m291.9 6.2114q-.68537 0-1.0324-.67659-.34269-.6722-.34269-2.0254 0-1.3488.34269-2.0254.34708-.6722 1.0324-.6722.68977 0 1.0325.6722.34708.67659.34708 2.0254 0 1.3532-.34708 2.0254-.34269.67659-1.0325.67659zm0 .70295q1.1028 0 1.6827-.87429.58432-.8699.58432-2.5306 0-1.6563-.58432-2.5306-.57994-.8699-1.6827-.8699t-1.6871.8699q-.57993.87429-.57993 2.5306 0 1.6607.57993 2.5306.58433.87429 1.6871.87429z"/><path d="m318.08.37252v.80839q.33391-.15816.67659-.24164.34269-.083475.6722-.083475.87869 0 1.34.58872.4657.59311.5316 1.7969-.25482-.37784-.64583-.57993-.39102-.2021-.86551-.2021-.98413 0-1.5597.59311-.57114.59751-.57114 1.63 0 1.0105.5975 1.6212.59751.61069 1.5904.61069 1.1379 0 1.7354-.87429.6019-.8699.6019-2.5306 0-1.5509-.7381-2.4779-.7337-.92262-1.977-.92262-.3339 0-.67659.065902t-.71174.1977zm1.7662 2.781q.59751 0 .94459.40859.35148.40859.35148 1.1203 0 .70734-.35148 1.1159-.34708.41298-.94459.41298-.5975 0-.94898-.41298-.34708-.40859-.34708-1.1159 0-.71174.34708-1.1203.35148-.40859.94898-.40859z"/><path d="m325.68 6.2114q-.68537 0-1.0324-.67659-.34269-.6722-.34269-2.0254 0-1.3488.34269-2.0254.34708-.6722 1.0324-.6722.68977 0 1.0325.6722.34708.67659.34708 2.0254 0 1.3532-.34708 2.0254-.34269.67659-1.0325.67659zm0 .70295q1.1028 0 1.6827-.87429.58432-.8699.58432-2.5306 0-1.6563-.58432-2.5306-.57994-.8699-1.6827-.8699t-1.6871.8699q-.57993.87429-.57993 2.5306 0 1.6607.57993 2.5306.58433.87429 1.6871.87429z"/><path d="m348.18.98321h1.4498v5.0041l-1.5772-.31633v.80839l1.5685.31633h.88747v-5.8125h1.4498v-.74688h-3.7784z"/><path d="m355.65 6.2114q-.68537 0-1.0325-.67659-.34268-.6722-.34268-2.0254 0-1.3488.34268-2.0254.34709-.6722 1.0325-.6722.68977 0 1.0325.6722.34708.67659.34708 2.0254 0 1.3532-.34708 2.0254-.34269.67659-1.0325.67659zm0 .70295q1.1028 0 1.6827-.87429.58432-.8699.58432-2.5306 0-1.6563-.58432-2.5306-.57994-.8699-1.6827-.8699t-1.6871.8699q-.57993.87429-.57993 2.5306 0 1.6607.57993 2.5306.58433.87429 1.6871.87429z"/><path d="m361.37 6.2114q-.68538 0-1.0325-.67659-.34269-.6722-.34269-2.0254 0-1.3488.34269-2.0254.34708-.6722 1.0325-.6722.68976 0 1.0324.6722.34708.67659.34708 2.0254 0 1.3532-.34708 2.0254-.34269.67659-1.0324.67659zm0 .70295q1.1028 0 1.6827-.87429.58433-.8699.58433-2.5306 0-1.6563-.58433-2.5306-.57993-.8699-1.6827-.8699-1.1028 0-1.6871.8699-.57994.87429-.57994 2.5306 0 1.6607.57994 2.5306.58432.87429 1.6871.87429z"/><path d="m364.53041 180.23967q-.68537 0-1.03245-.67659-.34269-.67219-.34269-2.02537 0-1.34878.34269-2.02537.34708-.6722 1.03245-.6722.68977 0 1.03246.6722.34708.67659.34708 2.02537 0 1.35318-.34708 2.02537-.34269.67659-1.03246.67659zm0 .70295q1.10275 0 1.68269-.87429.58432-.8699.58432-2.53062 0-1.65632-.58432-2.53062-.57994-.8699-1.68269-.8699-1.10275 0-1.68708.8699-.57993.8743-.57993 2.53062 0 1.66072.57993 2.53062.58433.87429 1.68708.87429z"/><path d="m368.36 175.38h.92702v-1.1159h-.92702z"/><path d="m373.11428 180.23967q-.68538 0-1.03246-.67659-.34269-.67219-.34269-2.02537 0-1.34878.34269-2.02537.34708-.6722 1.03246-.6722.68976 0 1.03245.6722.34708.67659.34708 2.02537 0 1.35318-.34708 2.02537-.34269.67659-1.03245.67659zm0 .70295q1.10275 0 1.68268-.87429.58433-.8699.58433-2.53062 0-1.65632-.58433-2.53062-.57993-.8699-1.68268-.8699-1.10276 0-1.68708.8699-.57994.8743-.57994 2.53062 0 1.66072.57994 2.53062.58432.87429 1.68708.87429z"/><path d="m377.09 175.01h1.4498v5.0041l-1.5772-.31633v.80839l1.5684.31633h.88748v-5.8125h1.4498v-.74689h-3.7784z"/><path d="m364.53 97.299q-.68537 0-1.0324-.67659-.34269-.6722-.34269-2.0254 0-1.3488.34269-2.0254.34708-.6722 1.0324-.6722.68977 0 1.0325.6722.34708.67659.34708 2.0254 0 1.3532-.34708 2.0254-.34269.67659-1.0325.67659zm0 .70295q1.1028 0 1.6827-.87429.58432-.8699.58432-2.5306 0-1.6563-.58432-2.5306-.57994-.8699-1.6827-.8699t-1.6871.8699q-.57993.87429-.57993 2.5306 0 1.6607.57993 2.5306.58433.87429 1.6871.87429z"/><path d="m368.36 92.44h.92702v-1.1159h-.92702z"/><path d="m373.11 97.299q-.68538 0-1.0325-.67659-.34269-.6722-.34269-2.0254 0-1.3488.34269-2.0254.34708-.6722 1.0325-.6722.68976 0 1.0324.6722.34708.67659.34708 2.0254 0 1.3532-.34708 2.0254-.34269.67659-1.0324.67659zm0 .70295q1.1028 0 1.6827-.87429.58433-.8699.58433-2.5306 0-1.6563-.58433-2.5306-.57993-.8699-1.6827-.8699-1.1028 0-1.6871.8699-.57994.87429-.57994 2.5306 0 1.6607.57994 2.5306.58432.87429 1.6871.87429z"/><path d="m378.84 97.299q-.68538 0-1.0325-.67659-.34268-.6722-.34268-2.0254 0-1.3488.34268-2.0254.34708-.6722 1.0325-.6722.68977 0 1.0325.6722.34708.67659.34708 2.0254 0 1.3532-.34708 2.0254-.34269.67659-1.0325.67659zm0 .70295q1.1028 0 1.6827-.87429.58433-.8699.58433-2.5306 0-1.6563-.58433-2.5306-.57993-.8699-1.6827-.8699t-1.6871.8699q-.57993.87429-.57993 2.5306 0 1.6607.57993 2.5306.58433.87429 1.6871.87429z"/><path d="m382.82 92.071h1.4498v5.0041l-1.5772-.31633v.80839l1.5685.31633h.88747v-5.8125h1.4498v-.74688h-3.7784z"/><path d="m364.53 14.31q-.68537 0-1.0324-.67659-.34269-.6722-.34269-2.0254 0-1.3488.34269-2.0254.34708-.6722 1.0324-.6722.68977 0 1.0325.6722.34708.67659.34708 2.0254 0 1.3532-.34708 2.0254-.34269.67659-1.0325.67659zm0 .70295q1.1028 0 1.6827-.87429.58432-.8699.58432-2.5306 0-1.6563-.58432-2.5306-.57994-.8699-1.6827-.8699t-1.6871.8699q-.57993.87429-.57993 2.5306 0 1.6607.57993 2.5306.58433.87429 1.6871.87429z"/><path d="m368.36 9.4512h.92702v-1.1159h-.92702z"/><path d="m373.11 14.31q-.68538 0-1.0325-.67659-.34269-.6722-.34269-2.0254 0-1.3488.34269-2.0254.34708-.6722 1.0325-.6722.68976 0 1.0324.6722.34708.67659.34708 2.0254 0 1.3532-.34708 2.0254-.34269.67659-1.0324.67659zm0 .70295q1.1028 0 1.6827-.87429.58433-.8699.58433-2.5306 0-1.6563-.58433-2.5306-.57993-.8699-1.6827-.8699-1.1028 0-1.6871.8699-.57994.87429-.57994 2.5306 0 1.6607.57994 2.5306.58432.87429 1.6871.87429z"/><path d="m378.84 14.31q-.68538 0-1.0325-.67659-.34268-.6722-.34268-2.0254 0-1.3488.34268-2.0254.34708-.6722 1.0325-.6722.68977 0 1.0325.6722.34708.67659.34708 2.0254 0 1.3532-.34708 2.0254-.34269.67659-1.0325.67659zm0 .70295q1.1028 0 1.6827-.87429.58433-.8699.58433-2.5306 0-1.6563-.58433-2.5306-.57993-.8699-1.6827-.8699t-1.6871.8699q-.57993.87429-.57993 2.5306 0 1.6607.57993 2.5306.58433.87429 1.6871.87429z"/><path d="m384.56 14.31q-.68537 0-1.0324-.67659-.34269-.6722-.34269-2.0254 0-1.3488.34269-2.0254.34708-.6722 1.0324-.6722.68977 0 1.0325.6722.34708.67659.34708 2.0254 0 1.3532-.34708 2.0254-.34269.67659-1.0325.67659zm0 .70295q1.1028 0 1.6827-.87429.58433-.8699.58433-2.5306 0-1.6563-.58433-2.5306-.57993-.8699-1.6827-.8699-1.1028 0-1.6871.8699-.57994.87429-.57994 2.5306 0 1.6607.57994 2.5306.58432.87429 1.6871.87429z"/><path d="m388.54 9.0822h1.4498v5.0041l-1.5772-.31633v.80839l1.5684.31633h.88748v-5.8125h1.4498v-.74688h-3.7784z"/><path d="m22.418 177.629.6332-4.836.6328-4.981.2109-1.71.2102-1.614.2109-1.66.2149-1.609.2113-1.563.2109-1.515.211-1.465.2109-1.418.141-.684.0699-.636.1411-.684.0699-.633.4222-2.344.211-1.074.4219-2.055.421-1.855.211-.879.4219-1.66.2113-.781.2109-.832.4219-1.563.4262-1.512.2109-.785.4219-1.465.2109-.683.2102-.731.2109-.636.4219-1.321.8441-2.441.4219-1.121.4223-1.176.4218-1.121.843-2.152 1.2699-2.93.4219-.926.4223-.879.4219-.929.421-.879.8442-1.661 1.6918-3.128.843-1.465.8441-1.414 1.6879-2.641.843-1.27.848-1.218.8441-1.172 1.6868-2.246.8441-1.074 1.6879-2.0551 1.691-1.9528.8441-.9261.843-.8789.8442-.9301.8437-.832.8481-.879.8429-.8281 3.3789-3.1289.8442-.7301.773-.7339 3.3789-2.7348 1.6879-1.3203 1.6871-1.2699 1.6922-1.218 1.6867-1.1719 3.3793-2.2461 1.6879-1.075 3.3789-2.0539 3.375-1.9531 1.691-.9258 5.0661-2.641 5.0671-2.4883 5.0659-2.3437 3.379-1.4692 3.379-1.3672 3.305-1.3668 3.379-1.3199 3.378-1.2699 3.379-1.2192 3.375-1.171 6.758-2.2469 3.379-1.0742 6.754-2.0539 6.754-1.954 6.758-1.855 6.754-1.7578 6.754-1.6602 3.378-.832 6.758-1.5629 13.504-2.9289 13.508-2.7352 10.137-1.9058 3.379-.5864 3.378-.6367 10.137-1.757 3.379-.5352 3.449-.5859 13.504-2.1531 3.379-.4879 3.379-.5352 20.266-2.9297 3.375-.441 3.379-.4891 3.379-.4371 10.136-1.3199 6.758-.8789 3.375-.391 3.379-.441 3.379-.391 3.379-.4371 6.754-.7821 6.757-.7808 6.754-.7813 3.379-.3437 3.379-.3911 3.375-.3902 3.449-.3437.422-.0469.492-.0512.985-.0969.426-.0472.422-.0508.351-.0473h.281c.211-.0508.352-.1949.352-.3437-.07-.1442-.281-.293-.492-.2422h-.282l-.351.0473-.422.0507-.426.0469-.984.0973-.492.0508-.422.0472-3.379.391-3.379.3438-3.375.3902-3.449.391-3.379.343-3.379.391-6.754.7809-3.379.4379-6.754.7812-3.379.4418-3.379.3903-3.378.4378-3.376.3899-10.14 1.3211-3.375.441-3.379.4879-3.379.4383-3.449.4879-3.379.441-13.504 1.9539-3.379.5351-3.379.4879-3.379.5391-3.379.4879-6.753 1.075-3.379.5859-3.375.5391-10.141 1.757-3.445.586-3.379.5859-6.758 1.2699-6.754 1.2692-3.379.6839-3.379.6371-3.375.6829-3.379.7312-3.379.6828-6.754 1.4692-3.449.7808-6.754 1.5629-10.14 2.4922-3.375.8789-3.379.8789-6.758 1.8551-6.754 1.9531-3.449 1.0281-3.375 1.0231-3.379 1.0738-6.758 2.2461-6.754 2.4461-3.379 1.2688-3.449 1.2699-3.375 1.3672-3.379 1.4179-3.379 1.5121-1.6872.734-3.3789 1.5629-5.066 2.4922-3.3789 1.7578-1.7582.925-1.6918.9301-3.375 1.9527-1.691 1.0282-5.066 3.2218-3.3789 2.3442-1.6879 1.223-1.7582 1.2692-1.691 1.3168-1.6879 1.371-1.6871 1.4141-1.6879 1.4649-2.5352 2.3468-2.5347 2.4891-1.6872 1.7609-1.6878 1.8563-1.6872 1.9527-1.6921 2.0512-.9137 1.074-.8442 1.125-1.6871 2.344-.8437 1.222-.8473 1.27-.8437 1.316-.8442 1.367-.8441 1.418-.843 1.465-1.6918 3.125-.4222.832-1.2649 2.637-1.266 2.785-.4219 1.027-.4222.977-.8469 2.148-.4219 1.125-1.266 3.516-.8441 2.539-.4219 1.367-.2102.735-.2109.683-.4219 1.563-.4223 1.515-.4257 1.563-.211.828-.2109.785-.4223 1.66-.2109.926-.211.879-.421 1.953-.211 1.027-.4219 2.247-.2113 1.222-.2808 1.27-.0711.683-.1399.684-.2109 1.414-.211 1.469-.2113 1.511-.2109 1.563-.2149 1.613-.2109 1.66-.2109 1.614-.2114 1.66-.4218 3.371-.211 1.66-.632 4.836c0 .145.2109.293.4211.293.2109 0 .4219-.098.4219-.246" fill="#f00"/><path d="m22.418 177.629.6332-4.836.6328-4.981.2109-1.71.2102-1.614.2109-1.66.2149-1.609.2113-1.563.2109-1.515.211-1.465.2109-1.418.141-.684.0699-.636.1411-.684.0699-.633.4222-2.344.211-1.074.4219-2.055.421-1.855.211-.879.4219-1.66.2113-.781.2109-.832.4219-1.563.4262-1.512.2109-.785.4219-1.465.2109-.683.2102-.731.2109-.636.4219-1.321.8441-2.441.4219-1.121.4223-1.176.4218-1.121.843-2.152 1.2699-2.93.4219-.926.4223-.879.4219-.929.421-.879.8442-1.661 1.6918-3.128.843-1.465.8441-1.414 1.6879-2.641.843-1.27.848-1.218.8441-1.172 1.6868-2.246.8441-1.074 1.6879-2.0551 1.691-1.9528.8441-.9261.843-.8789.8442-.9301.8437-.832.8481-.879.8429-.8281 3.3789-3.1289.8442-.7301.773-.7339 3.3789-2.7348 1.6879-1.3203 1.6871-1.2699 1.6922-1.218 1.6867-1.1719 3.3793-2.2461 1.6879-1.075 3.3789-2.0539 3.375-1.9531 1.691-.9258 5.0661-2.641 5.0671-2.4883 5.0659-2.3437 3.379-1.4692 3.379-1.3672 3.305-1.3668 3.379-1.3199 3.378-1.2699 3.379-1.2192 3.375-1.171 6.758-2.2469 3.379-1.0742 6.754-2.0539 6.754-1.954 6.758-1.855 6.754-1.7578 6.754-1.6602 3.378-.832 6.758-1.5629 13.504-2.9289 13.508-2.7352 10.137-1.9058 3.379-.5864 3.378-.6367 10.137-1.757 3.379-.5352 3.449-.5859 13.504-2.1531 3.379-.4879 3.379-.5352 20.266-2.9297 3.375-.441 3.379-.4891 3.379-.4371 10.136-1.3199 6.758-.8789 3.375-.391 3.379-.441 3.379-.391 3.379-.4371 6.754-.7821 6.757-.7808 6.754-.7813 3.379-.3437 3.379-.3911 3.375-.3902 3.449-.3437.422-.0469.492-.0512.985-.0969.426-.0472.422-.0508.351-.0473h.281c.211-.0508.352-.1949.352-.3437-.07-.1442-.281-.293-.492-.2422h-.282l-.351.0473-.422.0507-.426.0469-.984.0973-.492.0508-.422.0472-3.379.391-3.379.3438-3.375.3902-3.449.391-3.379.343-3.379.391-6.754.7809-3.379.4379-6.754.7812-3.379.4418-3.379.3903-3.378.4378-3.376.3899-10.14 1.3211-3.375.441-3.379.4879-3.379.4383-3.449.4879-3.379.441-13.504 1.9539-3.379.5351-3.379.4879-3.379.5391-3.379.4879-6.753 1.075-3.379.5859-3.375.5391-10.141 1.757-3.445.586-3.379.5859-6.758 1.2699-6.754 1.2692-3.379.6839-3.379.6371-3.375.6829-3.379.7312-3.379.6828-6.754 1.4692-3.449.7808-6.754 1.5629-10.14 2.4922-3.375.8789-3.379.8789-6.758 1.8551-6.754 1.9531-3.449 1.0281-3.375 1.0231-3.379 1.0738-6.758 2.2461-6.754 2.4461-3.379 1.2688-3.449 1.2699-3.375 1.3672-3.379 1.4179-3.379 1.5121-1.6872.734-3.3789 1.5629-5.066 2.4922-3.3789 1.7578-1.7582.925-1.6918.9301-3.375 1.9527-1.691 1.0282-5.066 3.2218-3.3789 2.3442-1.6879 1.223-1.7582 1.2692-1.691 1.3168-1.6879 1.371-1.6871 1.4141-1.6879 1.4649-2.5352 2.3468-2.5347 2.4891-1.6872 1.7609-1.6878 1.8563-1.6872 1.9527-1.6921 2.0512-.9137 1.074-.8442 1.125-1.6871 2.344-.8437 1.222-.8473 1.27-.8437 1.316-.8442 1.367-.8441 1.418-.843 1.465-1.6918 3.125-.4222.832-1.2649 2.637-1.266 2.785-.4219 1.027-.4222.977-.8469 2.148-.4219 1.125-1.266 3.516-.8441 2.539-.4219 1.367-.2102.735-.2109.683-.4219 1.563-.4223 1.515-.4257 1.563-.211.828-.2109.785-.4223 1.66-.2109.926-.211.879-.421 1.953-.211 1.027-.4219 2.247-.2113 1.222-.2808 1.27-.0711.683-.1399.684-.2109 1.414-.211 1.469-.2113 1.511-.2109 1.563-.2149 1.613-.2109 1.66-.2109 1.614-.2114 1.66-.4218 3.371-.211 1.66-.632 4.836c0 .145.2109.293.4211.293.2109 0 .4219-.098.4219-.246" fill="none" stroke="#f00" stroke-width="2.9992"/><path d="m22.1172 177.828 3.3789-.098h3.3789l3.3789-.046h87.8871l3.379-.051h233.242c.211 0 .422-.098.422-.293 0-.145-.211-.242-.422-.242h-324.621l-3.3789.047h-3.375l-3.3793.097c-.2109 0-.4219.149-.4219.293.07.195.211.293.4922.293" fill="#0f0"/><path d="m22.1172 177.828 3.3789-.098h3.3789l3.3789-.046h87.8871l3.379-.051h233.242c.211 0 .422-.098.422-.293 0-.145-.211-.242-.422-.242h-324.621l-3.3789.047h-3.375l-3.3793.097c-.2109 0-.4219.149-.4219.293.07.195.211.293.4922.293" fill="none" stroke="#0f0" stroke-width="2.9992"/><path d="m128.66 20.98h1.188l2.906-5.484v5.484h.859v-6.5621h-1.187l-2.906 5.484v-5.484h-.86z" fill="none" stroke="#fff" stroke-linecap="round" stroke-linejoin="round" stroke-width="1.9995"/><text fill="#fff" font-family="DejaVu Sans" font-size="8.9978" transform="scale(1 -1)" x="127.771" y="-14.4188"><tspan x="127.771" y="-14.4188">N</tspan></text><path d="m135.562 15.527h.92187v-1.10898h-.92187zm0 3.5468h.92187v-1.125h-.92187z" fill="none" stroke="#fff" stroke-linecap="round" stroke-linejoin="round" stroke-width="1.9995"/><text fill="#fff" font-family="DejaVu Sans" font-size="8.9978" transform="scale(1 -1)" x="134.50101" y="-14.4188"><tspan x="134.50101 137.53325" y="-14.4188">:</tspan></text><path d="m145.344 17.3871v-2.9691h-.813v2.9371c0 .4687-.09.8168-.265 1.0469-.18.239-.45.3601-.813.3601-.437 0-.789-.141-1.047-.4223-.25-.2808-.375-.6636-.375-1.141v-2.7808h-.812v4.9218h.812v-.766c.196.2891.426.5082.688.6563.258.157.562.2347.906.2347.563 0 .988-.1796 1.281-.5308.289-.3559.438-.8719.438-1.5469z" fill="none" stroke="#fff" stroke-linecap="round" stroke-linejoin="round" stroke-width="1.9995"/><text fill="#fff" font-family="DejaVu Sans" font-size="8.9978" transform="scale(1 -1)" x="140.40601" y="-14.4188"><tspan x="140.40601" y="-14.4188">n</tspan></text><path d="m146.883 16.3551v2.9847h.812v-2.9527c0-.4609.086-.809.266-1.0473.187-.2308.457-.3437.812-.3437.438 0 .782.1328 1.032.4059.257.282.39.6601.39 1.141v2.7968h.813v-4.9218h-.813v.75c-.199-.293-.429-.5121-.687-.6559-.262-.1449-.563-.2191-.906-.2191-.563 0-.993.1718-1.282.516-.293.3512-.437.8672-.437 1.5461z" fill="none" stroke="#fff" stroke-linecap="round" stroke-linejoin="round" stroke-width="1.9995"/><text fill="#fff" font-family="DejaVu Sans" font-size="8.9978" transform="scale(1 -1)" x="146.118" y="-14.4188"><tspan x="146.118" y="-14.4188">u</tspan></text><path d="m156.516 18.402c.195.3519.437.6179.718.7968.282.1762.614.266 1 .266.508 0 .899-.1839 1.172-.5468.282-.3559.422-.8668.422-1.5309v-2.9691h-.812v2.9371c0 .4769-.086.8328-.25 1.0629-.168.2269-.422.3441-.766.3441-.418 0-.75-.141-1-.4223-.242-.2808-.359-.6636-.359-1.141v-2.7808h-.813v2.9371c0 .4769-.086.8328-.25 1.0629-.168.2269-.422.3441-.766.3441-.417 0-.75-.141-1-.4223-.242-.2808-.359-.6636-.359-1.141v-2.7808h-.812v4.9218h.812v-.766c.188.3012.41.5242.672.6723.258.1449.566.2187.922.2187.351 0 .656-.0937.906-.2808.25-.1801.438-.4379.563-.782z" fill="none" stroke="#fff" stroke-linecap="round" stroke-linejoin="round" stroke-width="1.9995"/><text fill="#fff" font-family="DejaVu Sans" font-size="8.9978" transform="scale(1 -1)" x="151.82899" y="-14.4188"><tspan x="151.82899" y="-14.4188">m</tspan></text><path d="m164.973 16.8711c0 .5937-.125 1.0551-.375 1.391-.243.343-.575.5149-1 .5149-.43 0-.766-.1719-1.016-.5149-.242-.3359-.359-.7973-.359-1.391 0-.5941.117-1.0621.359-1.4063.25-.3359.586-.5 1.016-.5.425 0 .757.1641 1 .5.25.3442.375.8122.375 1.4063zm-2.75 1.7187c.175.2891.39.5082.64.6563.258.1449.571.2187.938.2187.594 0 1.078-.2418 1.453-.7187.375-.4801.562-1.1051.562-1.875 0-.7731-.187-1.3981-.562-1.875-.375-.4691-.859-.7031-1.453-.7031-.367 0-.68.0699-.938.2031-.25.1449-.465.3629-.64.6559v-.734h-.813v6.8441h.813z" fill="none" stroke="#fff" stroke-linecap="round" stroke-linejoin="round" stroke-width="1.9995"/><text fill="#fff" font-family="DejaVu Sans" font-size="8.9978" transform="scale(1 -1)" x="160.59801" y="-14.4188"><tspan x="160.59801" y="-14.4188">b</tspan></text><path d="m171.371 17.0738v-.3898h-3.719c.032-.5551.196-.977.5-1.266.301-.293.719-.4379 1.25-.4379.313 0 .614.0359.907.1097.289.0704.582.1872.875.3442v-.766c-.293-.125-.594-.2192-.907-.2809-.304-.0633-.609-.0941-.922-.0941-.781 0-1.402.2269-1.859.6871-.461.4578-.687 1.0711-.687 1.8437 0 .8133.211 1.4532.64 1.9223.438.4769 1.024.7187 1.766.7187.664 0 1.191-.2148 1.578-.641.383-.4289.578-1.0117.578-1.75zm-.812.25c-.012.4383-.137.7852-.375 1.0473-.243.2699-.559.4059-.954.4059-.46 0-.824-.1321-1.093-.3899-.274-.25-.43-.6101-.469-1.0781z" fill="none" stroke="#fff" stroke-linecap="round" stroke-linejoin="round" stroke-width="1.9995"/><text fill="#fff" font-family="DejaVu Sans" font-size="8.9978" transform="scale(1 -1)" x="166.31" y="-14.4188"><tspan x="166.31" y="-14.4188">e</tspan></text><path d="m175.547 18.5898c-.094.0512-.195.0864-.297.109-.105.0203-.227.0313-.359.0313-.461 0-.813-.152-1.063-.4531-.242-.293-.359-.7149-.359-1.2649v-2.5941h-.813v4.9218h.813v-.766c.176.3012.398.5242.672.6723.269.1449.597.2187.984.2187.063 0 .125-.0078.187-.016.071-.0109.149-.0226.235-.0308z" fill="none" stroke="#fff" stroke-linecap="round" stroke-linejoin="round" stroke-width="1.9995"/><text fill="#fff" font-family="DejaVu Sans" font-size="8.9978" transform="scale(1 -1)" x="171.84599" y="-14.4188"><tspan x="171.84599 175.54408" y="-14.4188">r</tspan></text><path d="m181.168 18.777c-.43 0-.773-.1719-1.031-.5149-.25-.3359-.375-.7973-.375-1.391 0-.5859.125-1.0473.375-1.391.25-.3352.593-.5 1.031-.5.437 0 .781.1648 1.031.5.25.3437.375.8051.375 1.391 0 .582-.125 1.0469-.375 1.391-.25.343-.594.5149-1.031.5149zm0 .6878c.707 0 1.258-.2308 1.656-.6878.406-.461.61-1.093.61-1.9059 0-.8051-.204-1.4332-.61-1.891-.398-.4602-.949-.6871-1.656-.6871-.699 0-1.25.2269-1.656.6871-.399.4578-.594 1.0859-.594 1.891 0 .8129.195 1.4449.594 1.9059.406.457.957.6878 1.656.6878z" fill="none" stroke="#fff" stroke-linecap="round" stroke-linejoin="round" stroke-width="1.9995"/><text fill="#fff" font-family="DejaVu Sans" font-size="8.9978" transform="scale(1 -1)" x="178.418" y="-14.4188"><tspan x="178.418" y="-14.4188">o</tspan></text><path d="m187.262 21.2621v-.6723h-.782c-.292 0-.496-.0628-.609-.1878-.105-.1168-.156-.3239-.156-.625v-.4372h1.328v-.625h-1.328v-4.2968h-.813v4.2968h-.781v.625h.781v.3442c0 .55.125.9531.375 1.2031.258.25.664.375 1.219.375z" fill="none" stroke="#fff" stroke-linecap="round" stroke-linejoin="round" stroke-width="1.9995"/><text fill="#fff" font-family="DejaVu Sans" font-size="8.9978" transform="scale(1 -1)" x="183.91901" y="-14.4188"><tspan x="183.91901 187.08621" y="-14.4188">f</tspan></text><path d="m194.336 19.152v-.75c-.231.125-.461.2191-.688.282-.23.0621-.464.093-.703.093-.523 0-.929-.168-1.218-.5-.293-.336-.438-.804-.438-1.4059 0-.5941.145-1.059.438-1.391.289-.3352.695-.5 1.218-.5.239 0 .473.032.703.0937.227.0633.457.1563.688.2813v-.75c-.231-.1051-.465-.1832-.703-.234-.242-.0512-.496-.0781-.766-.0781-.742 0-1.328.2269-1.765.6871-.438.4687-.657 1.098-.657 1.891 0 .8008.219 1.4301.657 1.891.437.468 1.039.7027 1.812.7027.25 0 .492-.0269.734-.0777.239-.0551.469-.1332.688-.2351z" fill="none" stroke="#fff" stroke-linecap="round" stroke-linejoin="round" stroke-width="1.9995"/><text fill="#fff" font-family="DejaVu Sans" font-size="8.9978" transform="scale(1 -1)" x="189.946" y="-14.4188"><tspan x="189.946" y="-14.4188">c</tspan></text><path d="m197.652 18.777c-.429 0-.773-.1719-1.031-.5149-.25-.3359-.375-.7973-.375-1.391 0-.5859.125-1.0473.375-1.391.25-.3352.594-.5 1.031-.5.438 0 .782.1648 1.032.5.25.3437.375.8051.375 1.391 0 .582-.125 1.0469-.375 1.391-.25.343-.594.5149-1.032.5149zm0 .6878c.707 0 1.258-.2308 1.657-.6878.406-.461.609-1.093.609-1.9059 0-.8051-.203-1.4332-.609-1.891-.399-.4602-.95-.6871-1.657-.6871-.699 0-1.25.2269-1.656.6871-.398.4578-.594 1.0859-.594 1.891 0 .8129.196 1.4449.594 1.9059.406.457.957.6878 1.656.6878z" fill="none" stroke="#fff" stroke-linecap="round" stroke-linejoin="round" stroke-width="1.9995"/><text fill="#fff" font-family="DejaVu Sans" font-size="8.9978" transform="scale(1 -1)" x="194.90199" y="-14.4188"><tspan x="194.90199" y="-14.4188">o</tspan></text><path d="m205.09 18.402c.195.3519.437.6179.719.7968.281.1762.613.266 1 .266.507 0 .898-.1839 1.171-.5468.282-.3559.422-.8668.422-1.5309v-2.9691h-.812v2.9371c0 .4769-.086.8328-.25 1.0629-.168.2269-.422.3441-.766.3441-.418 0-.75-.141-1-.4223-.242-.2808-.359-.6636-.359-1.141v-2.7808h-.813v2.9371c0 .4769-.086.8328-.25 1.0629-.168.2269-.422.3441-.765.3441-.418 0-.75-.141-1-.4223-.242-.2808-.36-.6636-.36-1.141v-2.7808h-.812v4.9218h.812v-.766c.188.3012.411.5242.672.6723.258.1449.567.2187.922.2187.352 0 .656-.0937.906-.2808.25-.1801.438-.4379.563-.782z" fill="none" stroke="#fff" stroke-linecap="round" stroke-linejoin="round" stroke-width="1.9995"/><text fill="#fff" font-family="DejaVu Sans" font-size="8.9978" transform="scale(1 -1)" x="200.403" y="-14.4188"><tspan x="200.403" y="-14.4188">m</tspan></text><path d="m210.797 15.152v-2.609h-.813v6.7968h.813v-.75c.176.2891.391.5082.641.6563.257.1449.57.2187.937.2187.594 0 1.078-.2418 1.453-.7187.375-.4801.563-1.1051.563-1.875 0-.7731-.188-1.3981-.563-1.875-.375-.4691-.859-.7031-1.453-.7031-.367 0-.68.0699-.937.2031-.25.1449-.465.3629-.641.6559zm2.75 1.7191c0 .5937-.125 1.0551-.375 1.391-.242.343-.574.5149-1 .5149-.43 0-.766-.1719-1.016-.5149-.242-.3359-.359-.7973-.359-1.391 0-.5941.117-1.0621.359-1.4063.25-.3359.586-.5 1.016-.5.426 0 .758.1641 1 .5.25.3442.375.8122.375 1.4063z" fill="none" stroke="#fff" stroke-linecap="round" stroke-linejoin="round" stroke-width="1.9995"/><text fill="#fff" font-family="DejaVu Sans" font-size="8.9978" transform="scale(1 -1)" x="209.172" y="-14.4188"><tspan x="209.172" y="-14.4188">p</tspan></text><path d="m217.961 16.8871c-.649 0-1.102-.075-1.359-.2191-.25-.1481-.375-.402-.375-.766 0-.2809.093-.511.281-.6872.195-.1679.457-.25.781-.25.445 0 .805.1563 1.078.4692.27.3199.406.75.406 1.2808v.1723zm1.625.343v-2.8121h-.813v.75c-.187-.3051-.421-.527-.703-.6719-.273-.1332-.605-.2031-1-.2031-.5 0-.902.141-1.203.4218-.293.2813-.437.6602-.437 1.1403 0 .5508.179.9687.547 1.25.375.282.925.4219 1.656.4219h1.14v.0781c0 .375-.125.6609-.375.8597-.242.2071-.586.3122-1.031.3122-.281 0-.558-.0391-.828-.109-.262-.0629-.512-.1641-.75-.2969v.75c.289.1129.578.1949.859.25.282.0629.551.0937.813.0937.707 0 1.238-.1878 1.594-.5628.351-.3668.531-.9219.531-1.6719z" fill="none" stroke="#fff" stroke-linecap="round" stroke-linejoin="round" stroke-width="1.9995"/><text fill="#fff" font-family="DejaVu Sans" font-size="8.9978" transform="scale(1 -1)" x="214.884" y="-14.4188"><tspan x="214.884" y="-14.4188">a</tspan></text><path d="m224.105 18.5898c-.093.0512-.195.0864-.296.109-.106.0203-.227.0313-.36.0313-.461 0-.812-.152-1.062-.4531-.242-.293-.36-.7149-.36-1.2649v-2.5941h-.812v4.9218h.812v-.766c.176.3012.399.5242.672.6723.27.1449.598.2187.985.2187.062 0 .125-.0078.187-.016.07-.0109.149-.0226.234-.0308z" fill="none" stroke="#fff" stroke-linecap="round" stroke-linejoin="round" stroke-width="1.9995"/><text fill="#fff" font-family="DejaVu Sans" font-size="8.9978" transform="scale(1 -1)" x="220.40199" y="-14.4188"><tspan x="220.40199" y="-14.4188">r</tspan></text><path d="m224.95 19.34h.81289v-4.9219h-.81289zm0 1.9223h.81289v-1.032h-.81289z" fill="none" stroke="#fff" stroke-linecap="round" stroke-linejoin="round" stroke-width="1.9995"/><text fill="#fff" font-family="DejaVu Sans" font-size="8.9978" transform="scale(1 -1)" x="224.11" y="-14.4188"><tspan x="224.11" y="-14.4188">i</tspan></text><path d="m230.59 19.1988v-.7648c-.231.1129-.469.1949-.719.25-.242.0621-.492.093-.75.093-.406 0-.711-.0622-.906-.1872-.199-.1168-.297-.2968-.297-.5468 0-.1879.066-.336.203-.4379.145-.1051.438-.2102.875-.3121l.266-.0629c.582-.125.992-.3039 1.234-.5313.238-.2187.359-.5269.359-.9218 0-.461-.183-.8239-.546-1.093-.356-.2621-.852-.391-1.485-.391-.273 0-.547.0269-.828.0781-.281.0508-.586.1289-.906.234v.8289c.301-.157.598-.2781.89-.3602.29-.0738.579-.109.86-.109.375 0 .664.0622.875.1872.207.1332.312.321.312.5628 0 .2192-.078.3832-.234.5-.148.125-.469.2383-.969.3442l-.281.0621c-.5.1019-.867.266-1.094.484-.219.2187-.328.5199-.328.907 0 .457.16.8117.484 1.0617.333.2582.801.391 1.407.391.3 0 .582-.0269.843-.0777.27-.043.516-.1062.735-.1883z" fill="none" stroke="#fff" stroke-linecap="round" stroke-linejoin="round" stroke-width="1.9995"/><text fill="#fff" font-family="DejaVu Sans" font-size="8.9978" transform="scale(1 -1)" x="226.605" y="-14.4188"><tspan x="226.605" y="-14.4188">s</tspan></text><path d="m234.047 18.777c-.43 0-.774-.1719-1.031-.5149-.25-.3359-.375-.7973-.375-1.391 0-.5859.125-1.0473.375-1.391.25-.3352.593-.5 1.031-.5.437 0 .781.1648 1.031.5.25.3437.375.8051.375 1.391 0 .582-.125 1.0469-.375 1.391-.25.343-.594.5149-1.031.5149zm0 .6878c.707 0 1.258-.2308 1.656-.6878.406-.461.609-1.093.609-1.9059 0-.8051-.203-1.4332-.609-1.891-.398-.4602-.949-.6871-1.656-.6871-.699 0-1.25.2269-1.656.6871-.399.4578-.594 1.0859-.594 1.891 0 .8129.195 1.4449.594 1.9059.406.457.957.6878 1.656.6878z" fill="none" stroke="#fff" stroke-linecap="round" stroke-linejoin="round" stroke-width="1.9995"/><text fill="#fff" font-family="DejaVu Sans" font-size="8.9978" transform="scale(1 -1)" x="231.298" y="-14.4188"><tspan x="231.298" y="-14.4188">o</tspan></text><path d="m241.734 17.3871v-2.9691h-.812v2.9371c0 .4687-.09.8168-.266 1.0469-.179.239-.449.3601-.812.3601-.438 0-.789-.141-1.047-.4223-.25-.2808-.375-.6636-.375-1.141v-2.7808h-.813v4.9218h.813v-.766c.195.2891.426.5082.687.6563.258.157.563.2347.907.2347.562 0 .988-.1796 1.281-.5308.289-.3559.437-.8719.437-1.5469z" fill="none" stroke="#fff" stroke-linecap="round" stroke-linejoin="round" stroke-width="1.9995"/><text fill="#fff" font-family="DejaVu Sans" font-size="8.9978" transform="scale(1 -1)" x="236.798" y="-14.4188"><tspan x="236.798" y="-14.4188">n</tspan></text><path d="m246.492 19.1988v-.7648c-.23.1129-.469.1949-.719.25-.242.0621-.492.093-.75.093-.406 0-.711-.0622-.906-.1872-.199-.1168-.297-.2968-.297-.5468 0-.1879.067-.336.203-.4379.145-.1051.438-.2102.875-.3121l.266-.0629c.582-.125.992-.3039 1.234-.5313.239-.2187.36-.5269.36-.9218 0-.461-.184-.8239-.547-1.093-.356-.2621-.852-.391-1.484-.391-.274 0-.547.0269-.829.0781-.281.0508-.586.1289-.906.234v.8289c.301-.157.598-.2781.891-.3602.289-.0738.578-.109.859-.109.375 0 .664.0622.875.1872.207.1332.313.321.313.5628 0 .2192-.078.3832-.235.5-.148.125-.468.2383-.968.3442l-.282.0621c-.5.1019-.867.266-1.093.484-.219.2187-.329.5199-.329.907 0 .457.161.8117.485 1.0617.332.2582.801.391 1.406.391.301 0 .582-.0269.844-.0777.269-.043.515-.1062.734-.1883z" fill="none" stroke="#fff" stroke-linecap="round" stroke-linejoin="round" stroke-width="1.9995"/><text fill="#fff" font-family="DejaVu Sans" font-size="8.9978" transform="scale(1 -1)" x="242.509" y="-14.4188"><tspan x="242.509" y="-14.4188">s</tspan></text><path d="m43.2148 163.234h1.1832l-.9289-3.254c-.0589-.203-.157-.527-.2929-.964.1828-.735.3199-1.172.4097-1.313.1719-.262.3871-.394.6481-.394.1922 0 .368.078.532.234.1602.16.2692.402.3199.738h.2852c-.066-.687-.2109-1.16-.4332-1.422-.2231-.265-.477-.394-.766-.394-.2739 0-.5199.113-.7457.344-.2192.226-.4141.718-.5903 1.472-.2109-.414-.4179-.73-.6168-.945-.2812-.293-.5863-.512-.914-.656-.3281-.149-.7031-.223-1.1211-.223-1.0551 0-1.8289.352-2.325 1.051-.4961.703-.7418 1.5-.7418 2.394 0 1.051.2887 1.899.8707 2.547.582.653 1.266.977 2.0473.977.5429 0 1.0199-.164 1.4339-.5.418-.328.793-.942 1.1329-1.844zm-.8668-2.953c-.2582.985-.5902 1.668-.9929 2.051-.4063.391-.816.586-1.2379.586-.4652 0-.8551-.254-1.1641-.77-.3082-.511-.4652-1.324-.4652-2.445 0-.664.0672-1.183.2-1.566.132-.375.3351-.668.6012-.879.273-.203.5589-.305.8589-.305.368 0 .704.168 1.0079.504.414.461.8132 1.398 1.1921 2.824z" fill="none" stroke="#fff" stroke-linecap="round" stroke-linejoin="round" stroke-width="1.9995"/><path d="m43.2148 163.234h1.1832l-.9289-3.254c-.0589-.203-.157-.527-.2929-.964.1828-.735.3199-1.172.4097-1.313.1719-.262.3871-.394.6481-.394.1922 0 .368.078.532.234.1602.16.2692.402.3199.738h.2852c-.066-.687-.2109-1.16-.4332-1.422-.2231-.265-.477-.394-.766-.394-.2739 0-.5199.113-.7457.344-.2192.226-.4141.718-.5903 1.472-.2109-.414-.4179-.73-.6168-.945-.2812-.293-.5863-.512-.914-.656-.3281-.149-.7031-.223-1.1211-.223-1.0551 0-1.8289.352-2.325 1.051-.4961.703-.7418 1.5-.7418 2.394 0 1.051.2887 1.899.8707 2.547.582.653 1.266.977 2.0473.977.5429 0 1.0199-.164 1.4339-.5.418-.328.793-.942 1.1329-1.844zm-.8668-2.953c-.2582.985-.5902 1.668-.9929 2.051-.4063.391-.816.586-1.2379.586-.4652 0-.8551-.254-1.1641-.77-.3082-.511-.4652-1.324-.4652-2.445 0-.664.0672-1.183.2-1.566.132-.375.3351-.668.6012-.879.273-.203.5589-.305.8589-.305.368 0 .704.168 1.0079.504.414.461.8132 1.398 1.1921 2.824z" fill="#fff"/><path d="m47.508 163.02h9.1723v-1.1879h-9.1723zm0-2.907h9.1723v-1.218h-9.1723z" fill="none" stroke="#fff" stroke-linecap="round" stroke-linejoin="round" stroke-width="1.9995"/><text fill="#fff" font-family="DejaVu Sans" font-size="14.636" transform="scale(1 -1)" x="45.959" y="-156.375"><tspan x="45.959" y="-156.375">=</tspan></text><path d="m62.8789 166.094c-.75 0-1.3129-.367-1.6879-1.094-.3672-.73-.5461-1.828-.5461-3.297s.1789-2.57.5461-3.297c.375-.73.9379-1.094 1.6879-1.094s1.3121.364 1.6871 1.094c.375.727.5629 1.828.5629 3.297s-.1879 2.567-.5629 3.297c-.375.727-.9371 1.094-1.6871 1.094zm0 1.14c1.1949 0 2.109-.476 2.734-1.422.6332-.937.9531-2.308.9531-4.109 0-1.805-.3199-3.18-.9531-4.125-.625-.937-1.5391-1.406-2.734-1.406-1.1988 0-2.1168.469-2.75 1.406-.625.945-.9379 2.32-.9379 4.125 0 1.801.3129 3.172.9379 4.109.6332.946 1.5512 1.422 2.75 1.422z" fill="none" stroke="#fff" stroke-linecap="round" stroke-linejoin="round" stroke-width="1.9995"/><text fill="#fff" font-family="DejaVu Sans" font-size="14.636" transform="scale(1 -1)" x="58.222698" y="-156.375"><tspan x="58.222698" y="-156.375">0</tspan></text><path d="m69.105 156.38h1.516v1.8117h-1.516z" fill="none" stroke="#fff" stroke-linecap="round" stroke-linejoin="round" stroke-width="1.9995"/><text fill="#fff" font-family="DejaVu Sans" font-size="14.636" transform="scale(1 -1)" x="67.541801" y="-156.375"><tspan x="67.541801" y="-156.375">.</tspan></text><path d="m76.859 166.094c-.75 0-1.3121-.367-1.6871-1.094-.3668-.73-.5469-1.828-.5469-3.297s.1801-2.57.5469-3.297c.375-.73.9371-1.094 1.6871-1.094s1.3129.364 1.6879 1.094c.375.727.5621 1.828.5621 3.297s-.1871 2.567-.5621 3.297c-.375.727-.9379 1.094-1.6879 1.094zm0 1.14c1.1961 0 2.1101-.476 2.7351-1.422.6329-.937.9528-2.308.9528-4.109 0-1.805-.3199-3.18-.9528-4.125-.625-.937-1.539-1.406-2.7351-1.406-1.1988 0-2.1168.469-2.75 1.406-.625.945-.9371 2.32-.9371 4.125 0 1.801.3121 3.172.9371 4.109.6332.946 1.5512 1.422 2.75 1.422z" fill="none" stroke="#fff" stroke-linecap="round" stroke-linejoin="round" stroke-width="1.9995"/><text fill="#fff" font-family="DejaVu Sans" font-size="14.636" transform="scale(1 -1)" x="72.201599" y="-156.375"><tspan x="72.201599" y="-156.375">0</tspan></text><path d="m83.332 157.594h2.359v8.14l-2.5621-.515v1.312l2.5473.516h1.4527v-9.453h2.359v-1.219h-6.1559z" fill="none" stroke="#fff" stroke-linecap="round" stroke-linejoin="round" stroke-width="1.9995"/><text fill="#fff" font-family="DejaVu Sans" font-size="14.636" transform="scale(1 -1)" x="81.520699" y="-156.375"><tspan x="81.520699" y="-156.375">1</tspan></text><path d="m159.582 141.34h1.219l-.953-3.332c-.063-.211-.164-.539-.301-.988.187-.754.324-1.204.418-1.348.176-.27.398-.406.668-.406.195 0 .375.082.539.242.168.164.277.414.332.754h.293c-.07-.703-.219-1.188-.449-1.457-.223-.266-.485-.403-.782-.403-.281 0-.535.118-.761.352-.227.234-.43.738-.61 1.508-.215-.422-.425-.746-.629-.965-.289-.305-.601-.527-.937-.676-.336-.148-.719-.226-1.149-.226-1.082 0-1.875.359-2.382 1.078-.508.718-.762 1.535-.762 2.453 0 1.074.297 1.941.894 2.605.594.672 1.293 1.004 2.094 1.004.559 0 1.047-.168 1.473-.512.426-.335.808-.964 1.156-1.89zm-.883-3.024c-.265 1.004-.605 1.704-1.019 2.098-.414.402-.836.602-1.266.602-.48 0-.879-.262-1.195-.789-.317-.524-.477-1.36-.477-2.504 0-.68.07-1.215.207-1.606.137-.387.34-.687.613-.902.282-.207.575-.313.879-.313.379 0 .723.172 1.036.52.421.469.832 1.433 1.222 2.894z" fill="none" stroke="#fff" stroke-linecap="round" stroke-linejoin="round" stroke-width="1.9995"/><path d="m159.582 141.34h1.219l-.953-3.332c-.063-.211-.164-.539-.301-.988.187-.754.324-1.204.418-1.348.176-.27.398-.406.668-.406.195 0 .375.082.539.242.168.164.277.414.332.754h.293c-.07-.703-.219-1.188-.449-1.457-.223-.266-.485-.403-.782-.403-.281 0-.535.118-.761.352-.227.234-.43.738-.61 1.508-.215-.422-.425-.746-.629-.965-.289-.305-.601-.527-.937-.676-.336-.148-.719-.226-1.149-.226-1.082 0-1.875.359-2.382 1.078-.508.718-.762 1.535-.762 2.453 0 1.074.297 1.941.894 2.605.594.672 1.293 1.004 2.094 1.004.559 0 1.047-.168 1.473-.512.426-.335.808-.964 1.156-1.89zm-.883-3.024c-.265 1.004-.605 1.704-1.019 2.098-.414.402-.836.602-1.266.602-.48 0-.879-.262-1.195-.789-.317-.524-.477-1.36-.477-2.504 0-.68.07-1.215.207-1.606.137-.387.34-.687.613-.902.282-.207.575-.313.879-.313.379 0 .723.172 1.036.52.421.469.832 1.433 1.222 2.894z" fill="#fff"/><path d="m163.54 141.47h1.2418v4.066h-1.2418z" fill="none" stroke="#fff" stroke-linecap="round" stroke-linejoin="round" stroke-width="1.9995"/><path d="m163.54 141.47h1.2418v4.066h-1.2418z" fill="#fff"/><path d="m104.926 143.602v-3.641h1.64c.614 0 1.086.156 1.422.469.332.312.5.765.5 1.359 0 .57-.168 1.016-.5 1.328-.336.321-.808.485-1.422.485zm-1.313 1.078h2.953c1.094 0 1.914-.246 2.469-.735.563-.492.844-1.211.844-2.156 0-.961-.281-1.684-.844-2.172-.555-.492-1.375-.734-2.469-.734h-1.64v-3.906h-1.313z" fill="none" stroke="#fff" stroke-linecap="round" stroke-linejoin="round" stroke-width="1.9995"/><text fill="#fff" font-family="DejaVu Sans" font-size="13.307" transform="scale(1 -1)" x="102.3" y="-134.976"><tspan x="102.3" y="-134.976">P</tspan></text><path d="m111.47 145.09h2.765v-.922h-1.562v-10.016h1.562v-.921h-2.765z" fill="none" stroke="#fff" stroke-linecap="round" stroke-linejoin="round" stroke-width="1.9995"/><text fill="#fff" font-family="DejaVu Sans" font-size="13.307" transform="scale(1 -1)" x="110.331" y="-134.976"><tspan x="110.331" y="-134.976">[</tspan></text><path d="m123.012 138.914v-.578h-5.5c.05-.824.297-1.453.734-1.891.445-.429 1.066-.64 1.859-.64.457 0 .899.05 1.329.156.437.113.867.285 1.296.516v-1.125c-.429-.188-.871-.329-1.328-.422-.449-.094-.902-.141-1.359-.141-1.168 0-2.09.336-2.766 1.016-.679.675-1.015 1.586-1.015 2.734 0 1.195.32 2.145.968 2.844.645.695 1.508 1.047 2.594 1.047.977 0 1.754-.321 2.328-.953.571-.625.86-1.481.86-2.563zm-1.203.359c-.012.645-.196 1.161-.547 1.547-.356.395-.828.594-1.422.594-.668 0-1.203-.187-1.61-.562-.398-.375-.625-.907-.687-1.594z" fill="none" stroke="#fff" stroke-linecap="round" stroke-linejoin="round" stroke-width="1.9995"/><text fill="#fff" font-family="DejaVu Sans" font-size="13.307" transform="scale(1 -1)" x="115.529" y="-134.976"><tspan x="115.529" y="-134.976">e</tspan></text><path d="m129.184 141.133c-.137.082-.282.14-.438.172-.156.039-.328.062-.516.062-.679 0-1.199-.226-1.562-.672-.367-.437-.547-1.07-.547-1.89v-3.828h-1.203v7.281h1.203v-1.125c.25.437.578.758.984.969.407.218.895.328 1.469.328.082 0 .172-.008.266-.016.101-.012.219-.027.344-.047z" fill="none" stroke="#fff" stroke-linecap="round" stroke-linejoin="round" stroke-width="1.9995"/><text fill="#fff" font-family="DejaVu Sans" font-size="13.307" transform="scale(1 -1)" x="123.716" y="-134.976"><tspan x="123.716" y="-134.976">r</tspan></text><path d="m134.434 141.133c-.137.082-.282.14-.438.172-.156.039-.328.062-.516.062-.679 0-1.199-.226-1.562-.672-.367-.437-.547-1.07-.547-1.89v-3.828h-1.203v7.281h1.203v-1.125c.25.437.578.758.984.969.407.218.895.328 1.469.328.082 0 .172-.008.266-.016.101-.012.219-.027.344-.047z" fill="none" stroke="#fff" stroke-linecap="round" stroke-linejoin="round" stroke-width="1.9995"/><text fill="#fff" font-family="DejaVu Sans" font-size="13.307" transform="scale(1 -1)" x="128.966" y="-134.976"><tspan x="128.966" y="-134.976">r</tspan></text><path d="m138.242 141.414c-.648 0-1.156-.25-1.531-.75-.367-.5-.547-1.184-.547-2.047 0-.875.18-1.562.547-2.062.375-.5.883-.75 1.531-.75.633 0 1.141.25 1.516.75s.562 1.187.562 2.062c0 .852-.187 1.531-.562 2.031-.375.508-.883.766-1.516.766zm0 1.016c1.039 0 1.86-.34 2.453-1.016.594-.68.891-1.609.891-2.797 0-1.199-.297-2.137-.891-2.812-.593-.68-1.414-1.016-2.453-1.016-1.043 0-1.859.336-2.453 1.016-.594.675-.891 1.613-.891 2.812 0 1.188.297 2.117.891 2.797.594.676 1.41 1.016 2.453 1.016z" fill="none" stroke="#fff" stroke-linecap="round" stroke-linejoin="round" stroke-width="1.9995"/><text fill="#fff" font-family="DejaVu Sans" font-size="13.307" transform="scale(1 -1)" x="134.16299" y="-134.976"><tspan x="134.16299" y="-134.976">o</tspan></text><path d="m147.766 141.133c-.137.082-.282.14-.438.172-.156.039-.328.062-.516.062-.679 0-1.199-.226-1.562-.672-.367-.437-.547-1.07-.547-1.89v-3.828h-1.203v7.281h1.203v-1.125c.25.437.578.758.985.969.406.218.894.328 1.468.328.082 0 .172-.008.266-.016.101-.012.219-.027.344-.047z" fill="none" stroke="#fff" stroke-linecap="round" stroke-linejoin="round" stroke-width="1.9995"/><text fill="#fff" font-family="DejaVu Sans" font-size="13.307" transform="scale(1 -1)" x="142.298" y="-134.976"><tspan x="142.298" y="-134.976">r</tspan></text><path d="m149.47 131.84h1.109v13.312h-1.109z" fill="none" stroke="#fff" stroke-linecap="round" stroke-linejoin="round" stroke-width="1.9995"/><text fill="#fff" font-family="DejaVu Sans" font-size="13.307" transform="scale(1 -1)" x="147.782" y="-134.976"><tspan x="147.782 152.26636" y="-134.976">|</tspan></text><path d="m169.04 145.09v-11.859h-2.75v.921h1.547v10.016h-1.547v.922z" fill="none" stroke="#fff" stroke-linecap="round" stroke-linejoin="round" stroke-width="1.9995"/><text fill="#fff" font-family="DejaVu Sans" font-size="13.307" transform="scale(1 -1)" x="164.987" y="-134.976"><tspan x="164.987" y="-134.976">]</tspan></text><path d="m205.871 55.2621h1.219l-.953-3.332c-.063-.211-.164-.543-.301-.9922.184-.75.324-1.2.418-1.3481.176-.266.398-.4019.664-.4019.195 0 .379.082.543.2422.168.1597.277.414.332.7539h.293c-.07-.7039-.219-1.1879-.449-1.457-.223-.27-.485-.4032-.782-.4032-.281 0-.535.1172-.761.3524-.227.234-.43.7379-.61 1.5078-.214-.4219-.425-.7461-.629-.9649-.289-.305-.601-.5281-.937-.6761-.34-.1481-.723-.227-1.152-.227-1.078 0-1.871.3602-2.379 1.0789-.508.718-.762 1.5352-.762 2.4531 0 1.0739.297 1.9411.895 2.6051.593.6719 1.292 1.0039 2.093 1.0039.555 0 1.047-.1679 1.473-.5121.422-.3359.809-.9648 1.156-1.8898zm-.887-3.0281c-.261 1.0082-.601 1.707-1.015 2.1019-.414.402-.836.602-1.266.602-.48 0-.879-.2617-1.195-.7899-.317-.523-.477-1.3589-.477-2.5031 0-.6801.071-1.2148.207-1.6058.137-.3871.34-.6871.614-.902.277-.207.57-.3133.878-.3133.375 0 .723.1723 1.036.5203.422.468.832 1.4329 1.222 2.8938z" fill="none" stroke="#fff" stroke-linecap="round" stroke-linejoin="round" stroke-width="1.9995"/><path d="m205.871 55.2621h1.219l-.953-3.332c-.063-.211-.164-.543-.301-.9922.184-.75.324-1.2.418-1.3481.176-.266.398-.4019.664-.4019.195 0 .379.082.543.2422.168.1597.277.414.332.7539h.293c-.07-.7039-.219-1.1879-.449-1.457-.223-.27-.485-.4032-.782-.4032-.281 0-.535.1172-.761.3524-.227.234-.43.7379-.61 1.5078-.214-.4219-.425-.7461-.629-.9649-.289-.305-.601-.5281-.937-.6761-.34-.1481-.723-.227-1.152-.227-1.078 0-1.871.3602-2.379 1.0789-.508.718-.762 1.5352-.762 2.4531 0 1.0739.297 1.9411.895 2.6051.593.6719 1.292 1.0039 2.093 1.0039.555 0 1.047-.1679 1.473-.5121.422-.3359.809-.9648 1.156-1.8898zm-.887-3.0281c-.261 1.0082-.601 1.707-1.015 2.1019-.414.402-.836.602-1.266.602-.48 0-.879-.2617-1.195-.7899-.317-.523-.477-1.3589-.477-2.5031 0-.6801.071-1.2148.207-1.6058.137-.3871.34-.6871.614-.902.277-.207.57-.3133.878-.3133.375 0 .723.1723 1.036.5203.422.468.832 1.4329 1.222 2.8938z" fill="#fff"/><path d="m209.93 55.395h1.2457v4.066h-1.2457z" fill="none" stroke="#fff" stroke-linecap="round" stroke-linejoin="round" stroke-width="1.9995"/><path d="m209.93 55.395h1.2457v4.066h-1.2457z" fill="#fff"/><path d="m188.48 36.266 11.027 11.347" fill="none" stroke="#f00" stroke-width=".74981"/><path d="m133.99 149.64c2.836 27.093 2.836 27.414 2.836 27.414" fill="none" stroke="#0f0" stroke-width=".74981"/><text font-family="DejaVu Sans" font-size="8.9978" transform="scale(1 -1)" x="127.771" y="-13.9188"><tspan x="127.771 134.50131 137.53355 140.39484 146.09941 151.83098 160.59479 166.30836 171.84198 175.54005 178.40134 183.90796 187.07516 189.93646 194.91209 200.41872 209.18253 214.8961 220.41173 224.1098 226.61118 231.299 236.80562 242.51019" y="-13.9188">k: number of comparisons</tspan></text><path d="m43.2109 162.734h1.1871l-.9289-3.254c-.0589-.203-.157-.527-.2929-.964.1828-.735.3199-1.172.4097-1.313.1719-.262.3871-.394.6481-.394.1922 0 .368.078.532.234.1602.16.2649.402.3199.738h.2852c-.066-.687-.2109-1.16-.4371-1.422-.2192-.261-.4731-.394-.7621-.394-.2739 0-.5199.113-.7457.344-.2192.226-.4141.718-.5903 1.472-.2109-.414-.4179-.73-.6168-.945-.2812-.293-.5863-.512-.914-.656-.3281-.149-.7031-.223-1.1211-.223-1.0551 0-1.8289.352-2.325 1.051-.4961.703-.7418 1.5-.7418 2.394 0 1.051.2887 1.899.8707 2.547.582.653 1.266.977 2.0473.977.5429 0 1.0199-.164 1.4339-.5.418-.328.793-.942 1.1329-1.844zm-.8629-2.953c-.2582.985-.5902 1.668-.9929 2.051-.4063.391-.816.586-1.2379.586-.4652 0-.8551-.254-1.1641-.77-.3082-.511-.4652-1.324-.4652-2.445 0-.664.0672-1.183.2-1.566.132-.375.3351-.668.6012-.879.273-.203.5589-.305.8589-.305.3641 0 .7.168 1.0079.504.414.461.8132 1.398 1.1921 2.824z"/><text font-family="DejaVu Sans" font-size="14.636" transform="scale(1 -1)" x="45.959" y="-155.875"><tspan x="45.959 58.22422 67.532906 72.187248 81.495941" y="-155.875">=0.01</tspan></text><g fill="#0f0"><path d="m159.582 140.84h1.219l-.953-3.332c-.063-.211-.164-.539-.301-.988.187-.754.324-1.204.418-1.348.176-.27.398-.406.668-.406.195 0 .375.082.539.242.168.164.277.414.332.754h.293c-.07-.703-.219-1.188-.449-1.457-.223-.266-.485-.403-.782-.403-.281 0-.535.118-.761.352-.227.234-.43.738-.61 1.508-.215-.422-.425-.746-.629-.965-.289-.305-.601-.527-.937-.676-.336-.148-.723-.226-1.149-.226-1.082 0-1.875.359-2.382 1.078-.508.718-.762 1.535-.762 2.453 0 1.074.297 1.941.894 2.605.594.672 1.293 1.004 2.094 1.004.559 0 1.047-.168 1.473-.512.426-.335.808-.964 1.156-1.89zm-.883-3.024c-.265 1.004-.605 1.704-1.019 2.098-.414.402-.836.602-1.266.602-.48 0-.879-.262-1.195-.789-.317-.524-.477-1.36-.477-2.504 0-.68.07-1.215.207-1.606.137-.387.34-.687.613-.898.282-.211.575-.317.879-.317.379 0 .723.172 1.036.52.421.469.832 1.433 1.222 2.894z"/><path d="m163.54 140.97h1.2418v4.066h-1.2418z"/><text font-family="DejaVu Sans" font-size="13.307" transform="scale(1 -1)" x="102.3" y="-134.476"><tspan x="102.3 110.32394 115.51355 123.69717 128.95314 134.15607 142.29976 147.76881 152.25317 164.98769" y="-134.476">P[error| ]</tspan></text></g><g fill="#f00"><path d="m205.871 54.7621h1.215l-.949-3.332c-.063-.211-.164-.543-.301-.9922.184-.75.324-1.2.418-1.3481.176-.266.398-.4019.664-.4019.195 0 .379.082.543.2422.168.1597.277.414.332.7539h.293c-.07-.7039-.219-1.1879-.449-1.457-.223-.27-.485-.4032-.782-.4032-.281 0-.535.1172-.761.3524-.227.234-.43.7379-.61 1.5078-.214-.4219-.425-.7461-.629-.9649-.289-.305-.601-.5281-.937-.6761-.34-.1481-.723-.227-1.152-.227-1.078 0-1.871.3602-2.379 1.0789-.508.718-.762 1.5352-.762 2.4531 0 1.0739.297 1.9411.895 2.6051.593.6719 1.292 1.0039 2.093 1.0039.555 0 1.047-.1679 1.473-.5121.422-.3359.809-.9648 1.156-1.8898zm-.887-3.0281c-.261 1.0082-.601 1.707-1.015 2.1019-.414.402-.836.602-1.266.602-.48 0-.879-.2617-1.195-.7899-.317-.523-.477-1.3589-.477-2.5031 0-.6801.071-1.2148.207-1.6058.137-.3871.34-.6871.614-.902.277-.207.57-.3133.878-.3133.375 0 .719.1723 1.036.5203.422.468.832 1.4329 1.222 2.8938z"/><path d="m209.93 54.895h1.2457v4.066h-1.2457z"/></g></g></svg>