<svg height="357pt" viewBox="0 0 421 357" width="421pt" xmlns="http://www.w3.org/2000/svg"><path d="m-26.434981 206.04642c15.308-9.6906 29.690981-18.49742 44.998981-28.18842 1.8336-1.5181 3.6673-3.0363 5.5009-4.5544.38385.13845.7677.27691 1.1516.41536 2.0353-1.2875 4.0705-2.575 6.1058-3.8625.1243-.95924.2486-1.9185.37289-2.8777 1.3388-1.1007 2.6775-2.2014 4.0163-3.3021.95112.4302 1.9022.86041 2.8534 1.2906 13.996-9.073 27.992-18.146 41.989-27.219.25438-.34216.50875-.68432.76312-1.0265l-1.2942-.99825c-4.8738-3.1602-9.7476-6.3204-14.621-9.4807-.9475.10945-1.895.21889-2.8425.32834-.34423-.0934-.68846-.18679-1.0327-.28018-.66956-.43581-1.3391-.87163-2.0087-1.3074v-.76805c.15839-.44479.31678-.88958.47517-1.3344-.04238-.22753-.08476-.45506-.12715-.68259-5.1055-3.462-10.211-6.924-15.316-10.386-.50892.16417-1.0178.32835-1.5268.49252l-.79731.38946-1.4175.0777c-.98021-.58463-1.9604-1.1692-2.9406-1.7539-.26309-.39352-.52618-.78703-.78928-1.1806.31436-.36503.62873-.73007.9431-1.0951-.28372-.50003-.56745-1.0001-.85118-1.5001-38.008-24.734-76.015-49.468-114.02-74.202.01234-16.525.02469-33.051.03703-49.576 4.633-3.2451 9.2659-6.4902 13.899-9.7353 62.683.05369 125.37.10739 188.05.16108-.0717.80288-.14343 1.6058-.21515 2.4086l-.79643.64589 219.39765 144.57484-.003 46.75202c-9.697 2.5975-19.6647 5.18914-29.3617 7.78674l-31.886 153.52c-48.397-.0354-96.795-.0707-145.19-.10611 0 0-188.66-123.71-188.47-123.91.18439-.20023 9.390701-7.08956 9.390701-7.08956 3.48 2.1662 6.9601 4.3323 10.44 6.4985.82126.1611 1.627302.81971 2.448602.98081 1.0629.022 1.617316.0778 2.680216.0999z" fill="#fff" fill-opacity=".7" transform="translate(77.265 26.801)"/></svg>