<svg height="357pt" viewBox="0 0 421 357" width="421pt" xmlns="http://www.w3.org/2000/svg"><g transform="translate(77.265 26.801)"><g stroke-linecap="round" stroke-linejoin="round"><g fill="none"><path d="m237.14 112.5-19.555-7.1927" stroke="#f0f" stroke-width="3"/><g stroke-width="2.1167"><g stroke="#000"><path d="m131.18 21.671c-28.593 21.09-16.788 11.776 7.434 31.38"/><path d="m131.18 21.671c-68.986-43.321-50.819-54.547-95.103-23.416"/><path d="m52.303 69.067c-60.369-43.082-45.365-34.724-16.228-70.812"/><path d="m36.075-1.7448c68.986 43.321 58.652 42.132 95.103 23.416"/><path d="m138.61 53.051-35.674 23.405"/><path d="m131.18 21.671c-26.434 14.103-52.917 27.627-78.875 47.396"/><path d="m138.61 53.051c22.992-15.374 20.601-15.664-7.434-31.38"/></g><path d="m102.94 76.455-21.199 12.799" stroke="#646464"/><g stroke="#000"><path d="m52.303 69.067c32.827 18.139 15.482 22.345 5.5749 24.501"/><path d="m65.642 101.6-7.7645-8.0344"/><path d="m65.642 101.6c1.8845 7.776 7.1857 13.631 22.337 13.95"/><path d="m87.979 115.55c-1.8845-7.776-7.1857-13.631-22.337-13.95"/></g></g><g stroke-width="2.9991"><path d="m95.733 97.882-13.995-8.6284" stroke="#f0f"/><path d="m96.481 97.9c9.9799-6.6552 16.086-13.554 6.4568-21.445" stroke="#f00"/><path d="m128.44 124.18-32.703-26.299" stroke="#f0f"/></g><path d="m108.63 135.54-20.647-19.986" stroke="#000" stroke-width="2.1167"/><g stroke-width="2.9991"><path d="m147.12 134.54-18.684-10.355" stroke="#ff00fe"/><path d="m108.63 135.54 19.81-11.357" stroke="#646464"/><path d="m138.3 163.34c6.7836-3.5113 12.09-13.831 8.4638-29.157" stroke="#646464"/><path d="m147.12 134.54c2.3087-7.8356 15.153 1.9584 33.137-5.0032" stroke="#f0f"/></g><path d="m213.27 151.7-33.017-21.461" stroke="#646464" stroke-width="2.1167"/><path d="m217.59 105.31-37.331 24.926" stroke="#f0f" stroke-width="2.9991"/><path d="m237.14 112.5c24.214 15.187 5.732 22.755-23.869 39.194" stroke="#646464" stroke-width="2.9991"/><path d="m237.14 112.5c43.57 26.221 51.695 35.54 71.092 52.822 1.6132 16.968-5.9722 27.183-10.268 56.328" stroke="#f00" stroke-width="3"/><g stroke-width="2.1167"><g stroke="#000"><path d="m297.97 221.65-29.039-12.378"/><path d="m268.93 209.28c-13.396-19.138.4533-10.267-5.2025-20.953-7.336-13.861-36.599-28.231-50.099-37.203"/><path d="m297.97 221.65-6.3384 26.484"/><path d="m291.63 248.14-5.4406 19.208"/><path d="m286.19 267.35-25.888-11.726"/><path d="m260.3 255.62-29.47 20.354"/><path d="m286.19 267.35-11.678 38.682"/><path d="m151.32 228.58-29.317-21.954"/><path d="m122.01 206.62-27.698-15.48"/><path d="m94.309 191.14-32.543-22.202"/><path d="m61.766 168.94 46.86-33.403"/><path d="m94.309 191.14c24.432-15.673 45.597-31.821 14.317-55.605"/><path d="m213.27 151.7c-.93663 13.201-20.971 26.54-13.71 31.624 19.499 13.653-27.522 27.117-48.24 45.254"/></g><path d="m213.27 151.7c-16.191 31.812-65.801 21.557-66.154-17.163" stroke="#646464"/><g stroke="#000"><path d="m108.63 135.54 29.677 27.802"/><path d="m138.3 163.34-43.994 27.802"/><path d="m122.01 206.62c14.658-8.8286 3.4766-11.173 7.3803-15.686 7.8263-9.0482 22.289-6.9468 8.9153-27.596"/><path d="m274.51 306.03-43.679-30.054"/><path d="m230.83 275.97-79.506-47.398"/><path d="m260.3 255.62c1.6116-13.723-21.184-24.545-14.735-33.613 21.99-30.919-4.775-56.374-32.291-70.308"/></g></g></g><g stroke="#fff" stroke-width=".70591"><circle cx="237.14" cy="112.5" fill="#ff00c8" r="3.9614"/><circle cx="131.18" cy="21.671" r="3.9614"/><circle cx="52.303" cy="69.067" r="3.9614"/><circle cx="36.075" cy="-1.7448" r="3.9614"/><circle cx="87.979" cy="115.55" r="3.9614"/><circle cx="65.642" cy="102.2" r="3.9614"/><circle cx="268.93" cy="209.28" r="3.9614"/><circle cx="291.63" cy="248.14" r="3.9614"/><circle cx="286.19" cy="267.35" r="3.9614"/><circle cx="274.51" cy="306.03" r="3.9614"/><circle cx="260.3" cy="255.62" r="3.9614"/><circle cx="230.83" cy="275.97" r="3.9614"/><circle cx="151.32" cy="228.58" r="3.9614"/><circle cx="122.01" cy="206.62" r="3.9614"/><circle cx="94.309" cy="191.14" r="3.9614"/><circle cx="61.766" cy="168.94" r="3.9614"/></g><g font-family="Nimbus Sans" font-size="40" stroke="#000" stroke-width=".5"><text fill="#ff00c8" x="248.24715" y="58.328716"><tspan style="fill:#ff00c8;font-size:40;stroke:#000;stroke-linecap:round;stroke-linejoin:round;stroke-width:.5" x="248.24715" y="58.328716">start</tspan></text><text fill="#00c8c8" x="-57.796158" y="159.65907"><tspan style="fill:#00c8c8;font-size:40;stroke:#000;stroke-linecap:round;stroke-linejoin:round;stroke-width:.5" x="-57.796158" y="159.65907">goal</tspan></text></g></g><path d="m237.14 112.5 50.171-45.379" fill="none" stroke="#f0f" stroke-width="1.4111"/><path d="m-.42807 129.86 58.306-36.291" fill="none" stroke="#00c8c8" stroke-width="1.4111"/><g stroke-linecap="round" stroke-linejoin="round"><path d="m217.59 105.31-78.976-52.261" fill="none" stroke="#646464" stroke-width="2.9991"/><g stroke="#fff" stroke-width=".70591"><circle cx="138.61" cy="53.051" fill="#646464" r="3.9614"/><circle cx="297.97" cy="221.65" fill="#f00" r="3.9614"/><circle cx="213.27" cy="151.7" fill="#646464" r="3.9614"/><circle cx="217.59" cy="105.31" fill="#f0f" r="3.9614"/></g></g><g font-family="sans-serif" font-weight="bold"><g font-family="sans-serif" font-size="9" font-weight="bold" text-anchor="middle"><text fill="#f0f" x="225.53665" y="89.163345"><tspan x="225.53665" y="89.163345">240</tspan><tspan x="225.53665" y="98.017967">(27)</tspan></text><text fill="#646464" x="218.64598" y="166.9648"><tspan x="218.64598" y="166.9648">304</tspan><tspan x="218.64598" y="175.81943">(83)</tspan></text><g fill="#f0f"><text x="172.41718" y="112.12428"><tspan x="172.41718" y="112.12428">256</tspan><tspan x="172.41718" y="120.9789">(86)</tspan></text><text x="147.43446" y="116.96584"><tspan x="147.43446" y="116.96584">262</tspan><tspan x="147.43446" y="125.82047">(132)</tspan></text><text x="127.33571" y="136.54112"><tspan x="127.33571" y="136.54112">262</tspan><tspan x="127.33571" y="145.39575">(160)</tspan></text><text x="118.17464" y="95.577629"><tspan x="118.17464" y="95.577629">265</tspan><tspan x="118.17464" y="104.43225">(215)</tspan></text></g><text fill="#f00" x="103.47023" y="58.608414"><tspan x="103.47023" y="58.608414">316</tspan><tspan x="103.47023" y="67.463036">(252)</tspan></text><text fill="#f0f" x="80.680321" y="75.396774"><tspan x="80.680321" y="75.396774">268</tspan><tspan x="80.680321" y="84.251396">(236)</tspan></text></g><text fill="#f00" x="56.810581" y="88.152428"><tspan fill="#f00" font-family="sans-serif" font-size="9" font-weight="bold" text-anchor="middle" x="56.810581" y="88.152428">268</tspan></text><g font-family="sans-serif" font-size="9" font-weight="bold" text-anchor="middle"><g fill="#646464"><text x="100.04775" y="149.04518"><tspan x="100.04775" y="149.04518">277</tspan><tspan x="100.04775" y="157.89981">(190)</tspan></text><text x="152.07503" y="169.92088"><tspan x="152.07503" y="169.92088">316</tspan><tspan x="152.07503" y="178.77551">(175)</tspan></text><text x="135.49211" y="35.48035"><tspan x="135.49211" y="35.48035">273</tspan><tspan x="135.49211" y="44.334972">(153)</tspan></text></g><text fill="#f00" x="315.86563" y="221.22876"><tspan x="315.86563" y="221.22876">557</tspan><tspan dy="0" x="315.86563" y="230.08339">(195)</tspan></text></g></g><g stroke-linecap="round" stroke-linejoin="round"><g stroke="#fff" stroke-width=".70591"><g fill="#f0f"><circle cx="180.26" cy="129.6" r="3.9614"/><circle cx="146.89" cy="134.34" r="3.9614"/><circle cx="128.44" cy="124.18" r="3.9614"/></g><circle cx="138.3" cy="163.34" fill="#646464" r="3.9614"/><circle cx="95.733" cy="97.882" fill="#f0f" r="3.9614"/><circle cx="108.63" cy="135.54" fill="#646464" r="3.9614"/><circle cx="102.94" cy="76.455" fill="#f00" r="3.9614"/></g><path d="m81.739 89.254c-9.9848 2.1587-13.953 2.1587-23.861 4.3142" fill="none" stroke="#f00" stroke-width="2.9991"/><g stroke="#fff" stroke-width=".70591"><circle cx="57.878" cy="93.568" fill="#f00" r="3.9614"/><circle cx="81.739" cy="89.254" fill="#f0f" r="3.9614"/></g></g></g></svg>