<svg height="6580pt" stroke-linejoin="round" stroke-width="28.222" viewBox="0 0 11600 6580" width="11600pt" xmlns="http://www.w3.org/2000/svg"><g transform="translate(20 -1237.6)"><path d="m7681.2 1396.7h3766v4855.9h-3766z" fill="#008000" fill-opacity=".2" opacity=".9"/><path d="m11447 1382.6h-11270" fill="none" stroke="#b3b3b3" stroke-linejoin="round" stroke-width="28.222"/><path d="m163.28 6270.2h7517.9v945.28h-7517.9z" fill="#a00000" fill-opacity=".2" opacity=".9"/><path d="m11447 6252.6h-11270" fill="none" stroke="#f0f" stroke-linejoin="round" stroke-width="35.278"/><path d="m7681.2 7227.6v-5830.9" fill="none" stroke="#b3b3b3" stroke-linejoin="round" stroke-width="28.222"/><path d="m7681.2 7377.6v-150" fill="none" stroke="#fd0000" stroke-linejoin="round"/><path d="m11447 7227.6h-11270" fill="none" stroke="#fd0000" stroke-linejoin="round" stroke-width="28.222"/><text style="fill:#f0f;stroke:#fff;stroke-linecap:round;stroke-linejoin:round;stroke-opacity:.9;stroke-width:56.693" x="-2277.8323" y="-937.45776"><tspan style="fill:#f0f;stroke:#fff;stroke-linecap:round;stroke-linejoin:round;stroke-opacity:.9;stroke-width:56.693"><tspan style="fill:#f0f;stroke:#fff;stroke-linecap:round;stroke-linejoin:round;stroke-opacity:.9;stroke-width:56.693" x="7246.168" y="6365.5425"><tspan style="fill:#f0f;font-family:'Liberation Sans', sans-serif;font-size:353;font-weight:400;stroke:#fff;stroke-linecap:round;stroke-linejoin:round;stroke-opacity:.9;stroke-width:56.693">1</tspan></tspan></tspan></text><text style="fill:#f0f;stroke:#fff;stroke-linecap:round;stroke-linejoin:round;stroke-opacity:.9;stroke-width:56.693" x="-2277.8323" y="-937.45776"><tspan style="fill:#f0f;stroke:#fff;stroke-linecap:round;stroke-linejoin:round;stroke-opacity:.9;stroke-width:56.693"><tspan style="fill:#f0f;stroke:#fff;stroke-linecap:round;stroke-linejoin:round;stroke-opacity:.9;stroke-width:56.693" x="7246.168" y="7340.5425"><tspan style="fill:#f0f;font-family:'Liberation Sans', sans-serif;font-size:353;font-weight:400;stroke:#fff;stroke-linecap:round;stroke-linejoin:round;stroke-opacity:.9;stroke-width:56.693">0</tspan></tspan></tspan></text><g fill="none"><path d="m8333.5 5278.6h-4875.1" stroke="#b3b3b3" stroke-linejoin="round" stroke-width="28.222"/><path d="m402.45 5278.6h-225.06" stroke="#b3b3b3" stroke-linejoin="round" stroke-width="28.222"/><path d="m1126.1 4305.1h-948.74"/><path d="m10256 4305.1h-8573" stroke="#b3b3b3" stroke-linejoin="round" stroke-width="28.222"/><path d="m11447 4305.1h-601.73"/><g stroke-linejoin="round"><path d="m11447 3331.6h-11270" stroke="#b3b3b3" stroke-width="28.222"/><path d="m11447 2356.6h-11270" stroke="#b3b3b3" stroke-width="28.222"/><path d="m150.17 7377.6v-150" stroke="#fd0000"/><path d="m150.17 7377.6v-150" stroke="#fd0000"/><path d="m2033.2 7377.6v-150" stroke="#fd0000"/><path d="m2033.2 7377.6v-150" stroke="#fd0000"/><path d="m3916.2 7377.6v-150" stroke="#fd0000"/><path d="m3916.2 7377.6v-150" stroke="#fd0000"/><path d="m5798.2 7377.6v-150" stroke="#fd0000"/><path d="m5798.2 7377.6v-150" stroke="#fd0000"/><path d="m9564.2 7377.6v-150" stroke="#fd0000"/><path d="m9564.2 7377.6v-150" stroke="#fd0000"/><path d="m11447 7377.6v-150" stroke="#fd0000"/><path d="m11447 7377.6v-150" stroke="#fd0000"/></g></g><text fill="#fd0000" x="-2277.8323" y="-930.39075"><tspan fill="#fd0000"><tspan fill="#fd0000" x="4.167705" y="7795.6094"><tspan fill="#fd0000" font-family="'Liberation Sans', sans-serif" font-size="353" font-weight="400">-8</tspan></tspan></tspan></text><text fill="#fd0000" x="-2277.8323" y="-930.39075"><tspan fill="#fd0000"><tspan fill="#fd0000" x="1887.1677" y="7795.6094"><tspan fill="#fd0000" font-family="'Liberation Sans', sans-serif" font-size="353" font-weight="400">-6</tspan></tspan></tspan></text><text fill="#fd0000" x="-2277.8323" y="-930.39075"><tspan fill="#fd0000"><tspan fill="#fd0000" x="3770.1677" y="7795.6094"><tspan fill="#fd0000" font-family="'Liberation Sans', sans-serif" font-size="353" font-weight="400">-4</tspan></tspan></tspan></text><text fill="#fd0000" x="-2277.8323" y="-930.39075"><tspan fill="#fd0000"><tspan fill="#fd0000" x="5653.168" y="7795.6094"><tspan fill="#fd0000" font-family="'Liberation Sans', sans-serif" font-size="353" font-weight="400">-2</tspan></tspan></tspan></text><text fill="#fd0000" x="-2277.8323" y="-930.39075"><tspan fill="#fd0000"><tspan fill="#fd0000" x="9471.167" y="7795.6094"><tspan fill="#fd0000" font-family="'Liberation Sans', sans-serif" font-size="353" font-weight="400">2</tspan></tspan></tspan></text><text fill="#fd0000" x="-2277.8323" y="-930.39075"><tspan fill="#fd0000"><tspan fill="#fd0000" x="11354.167" y="7795.6094"><tspan fill="#fd0000" font-family="'Liberation Sans', sans-serif" font-size="353" font-weight="400">4</tspan></tspan></tspan></text><text fill="#f0f" stroke-linecap="round" stroke-linejoin="round" stroke-opacity=".9" stroke-width="56.693" x="-2277.8323" y="-930.39075"><tspan fill="#f0f" stroke-linecap="round" stroke-linejoin="round" stroke-opacity=".9" stroke-width="56.693"><tspan fill="#f0f" stroke-linecap="round" stroke-linejoin="round" stroke-opacity=".9" stroke-width="56.693" x="7246.168" y="6372.6094"><tspan style="fill:#f0f;font-family:'Liberation Sans', sans-serif;font-size:353;font-weight:400;stroke-linecap:round;stroke-linejoin:round;stroke-opacity:.9;stroke-width:56.693">1</tspan></tspan></tspan></text><text stroke-linecap="round" stroke-linejoin="round" stroke-opacity=".9" stroke-width="56.693" x="-2277.8323" y="-930.39075"><tspan stroke-linecap="round" stroke-linejoin="round" stroke-opacity=".9" stroke-width="56.693"><tspan stroke-linecap="round" stroke-linejoin="round" stroke-opacity=".9" stroke-width="56.693" x="7246.168" y="5398.6094"><tspan style="font-family:'Liberation Sans', sans-serif;font-size:353;font-weight:400;stroke-linecap:round;stroke-linejoin:round;stroke-opacity:.9;stroke-width:56.693">2</tspan></tspan></tspan></text><text stroke-linecap="round" stroke-linejoin="round" stroke-opacity=".9" stroke-width="56.693" x="-2277.8323" y="-930.39075"><tspan stroke-linecap="round" stroke-linejoin="round" stroke-opacity=".9" stroke-width="56.693"><tspan stroke-linecap="round" stroke-linejoin="round" stroke-opacity=".9" stroke-width="56.693" x="7246.168" y="4424.6094"><tspan style="font-family:'Liberation Sans', sans-serif;font-size:353;font-weight:400;stroke-linecap:round;stroke-linejoin:round;stroke-opacity:.9;stroke-width:56.693">3</tspan></tspan></tspan></text><text stroke-linecap="round" stroke-linejoin="round" stroke-opacity=".9" stroke-width="56.693" x="-2277.8323" y="-930.39075"><tspan stroke-linecap="round" stroke-linejoin="round" stroke-opacity=".9" stroke-width="56.693"><tspan stroke-linecap="round" stroke-linejoin="round" stroke-opacity=".9" stroke-width="56.693" x="7246.168" y="3451.6094"><tspan style="font-family:'Liberation Sans', sans-serif;font-size:353;font-weight:400;stroke-linecap:round;stroke-linejoin:round;stroke-opacity:.9;stroke-width:56.693">4</tspan></tspan></tspan></text><text stroke-linecap="round" stroke-linejoin="round" stroke-opacity=".9" stroke-width="56.693" x="-2277.8323" y="-930.39075"><tspan stroke-linecap="round" stroke-linejoin="round" stroke-opacity=".9" stroke-width="56.693"><tspan stroke-linecap="round" stroke-linejoin="round" stroke-opacity=".9" stroke-width="56.693" x="7246.168" y="2476.6094"><tspan style="font-family:'Liberation Sans', sans-serif;font-size:353;font-weight:400;stroke-linecap:round;stroke-linejoin:round;stroke-opacity:.9;stroke-width:56.693">5</tspan></tspan></tspan></text><text stroke-linecap="round" stroke-linejoin="round" stroke-opacity=".9" stroke-width="56.693" x="-2277.8323" y="-930.39075"><tspan stroke-linecap="round" stroke-linejoin="round" stroke-opacity=".9" stroke-width="56.693"><tspan stroke-linecap="round" stroke-linejoin="round" stroke-opacity=".9" stroke-width="56.693" x="7246.168" y="1502.6093"><tspan style="font-family:'Liberation Sans', sans-serif;font-size:353;font-weight:400;stroke-linecap:round;stroke-linejoin:round;stroke-opacity:.9;stroke-width:56.693">6</tspan></tspan></tspan></text><path d="m10202 6736.3c2.771-8.7162 2.771-10.169 2.771-14.527 0-11.621-8.316-17.432-18.015-17.432-5.545 0-15.247 4.3577-20.793 13.074-1.385 2.9053-6.928 23.243-8.314 34.864-4.16 15.98-8.315 33.412-12.474 50.844l-27.718 113.31c-1.388 10.169-27.721 53.749-67.911 53.749-30.493 0-37.422-27.601-37.422-50.843 0-29.053 9.701-68.276 30.492-124.93 9.701-24.696 12.474-31.959 12.474-45.033 0-29.053-19.403-52.296-49.896-52.296-56.825 0-78.998 92.971-78.998 97.329 0 7.2638 5.541 7.2638 6.929 7.2638 5.545 0 6.93-1.4533 9.701-11.621 16.632-59.559 40.195-78.444 60.983-78.444 4.157 0 15.244 0 15.244 20.337 0 15.98-6.929 31.959-11.087 43.58-23.56 68.275-34.649 103.14-34.649 133.65 0 56.654 38.807 75.539 73.456 75.539 23.561 0 44.351-11.622 60.98-29.054-6.928 33.412-15.244 63.918-38.807 97.329-15.241 21.79-38.804 40.675-66.522 40.675-8.3167 0-36.036-2.9053-45.739-27.601 9.703 0 18.017 0 26.336-7.2636 5.541-5.8108 11.086-13.074 11.086-26.148 0-18.885-15.245-21.79-22.175-21.79-13.859 0-33.262 10.169-33.262 40.675 0 31.959 26.333 55.202 63.754 55.202 62.367 0 124.73-56.654 141.37-129.29z" fill="#fd0000"/><path d="m10390 6902.5c-15.245 2.9051-22.174 15.98-22.174 24.696 0 13.074 8.314 17.432 16.633 17.432 9.699 0 23.558-7.2638 23.558-29.054 0-30.506-31.877-39.222-55.436-39.222-63.754 0-121.96 62.465-121.96 123.48 0 37.769 24.946 76.992 77.613 76.992 72.069 0 105.33-43.58 105.33-49.391 0-2.9052-4.157-8.7161-6.93-8.7161s-4.158 1.4532-6.929 4.3578c-33.265 42.127-83.158 42.127-90.088 42.127-30.492 0-44.351-21.79-44.351-49.391 0-13.074 5.545-61.012 27.719-91.518 16.632-21.79 38.807-34.864 59.596-34.864 5.544 0 26.333 1.4531 37.421 13.074z" fill="#fd0000"/><path d="m10717 6907.7c4.16 0 12.474 0 12.474-10.169 0-8.716-8.314-8.716-12.474-8.716h-205.12c-4.157 0-12.471 0-12.471 8.716 0 10.169 8.314 10.169 12.471 10.169z" fill="#fd0000"/><path d="m11072 6736.3c2.773-8.7162 2.773-10.169 2.773-14.527 0-11.621-8.314-17.432-18.018-17.432-5.543 0-15.244 4.3577-20.789 13.074-1.387 2.9053-6.929 23.243-8.314 34.864-4.159 15.98-8.319 33.412-12.474 50.844l-27.722 113.31c-1.385 10.169-27.718 53.749-67.91 53.749-30.492 0-37.422-27.601-37.422-50.843 0-29.053 9.7-68.276 30.493-124.93 9.699-24.696 12.472-31.959 12.472-45.033 0-29.053-19.402-52.296-49.894-52.296-56.825 0-79 92.971-79 97.329 0 7.2638 5.543 7.2638 6.931 7.2638 5.543 0 6.929-1.4533 9.7-11.621 16.633-59.559 40.194-78.444 60.984-78.444 4.155 0 15.244 0 15.244 20.337 0 15.98-6.93 31.959-11.089 43.58-23.56 68.275-34.647 103.14-34.647 133.65 0 56.654 38.806 75.539 73.457 75.539 23.56 0 44.348-11.622 60.981-29.054-6.929 33.412-15.245 63.918-38.807 97.329-15.245 21.79-38.806 40.675-66.524 40.675-8.319 0-36.037-2.9053-45.738-27.601 9.701 0 18.016 0 26.333-7.2636 5.542-5.8108 11.086-13.074 11.086-26.148 0-18.885-15.244-21.79-22.175-21.79-13.859 0-33.262 10.169-33.262 40.675 0 31.959 26.334 55.202 63.756 55.202 62.365 0 124.74-56.654 141.37-129.29z" fill="#fd0000"/><path d="m11126 7044.8c-1.389 5.8109-4.159 15.98-4.159 17.432 0 10.169 8.318 14.527 15.247 14.527 6.931 0 13.86-5.8106 15.245-10.169 2.773-2.9054 5.545-17.432 8.315-27.601 1.388-7.2636 6.932-27.601 9.702-39.222 1.387-10.169 4.157-18.885 6.931-29.054 4.158-18.885 5.543-21.79 18.017-40.675 11.089-17.432 30.492-40.675 62.37-40.675 24.947 0 24.947 23.243 24.947 30.506 0 27.601-18.018 76.992-24.947 94.424-4.16 13.074-5.545 17.432-5.545 24.695 0 23.243 18.018 37.77 40.193 37.77 41.577 0 60.981-61.012 60.981-68.276 0-5.8106-5.542-5.8106-6.93-5.8106-5.544 0-6.929 2.9054-8.314 8.7159-9.704 34.864-27.72 53.749-44.352 53.749-9.7 0-11.088-7.2636-11.088-15.98 0-10.169 2.774-15.979 9.703-36.317 5.545-13.074 22.174-61.012 22.174-85.708 0-42.128-31.877-50.844-54.051-50.844-36.037 0-59.596 23.243-72.07 40.675-2.773-30.506-27.721-40.675-45.737-40.675-18.018 0-27.72 14.527-33.265 24.696-8.314 15.98-15.244 42.127-15.244 43.58 0 5.8106 6.93 5.8106 8.315 5.8106 5.544 0 5.544-1.4531 8.317-13.074 6.931-26.148 15.245-47.938 30.49-47.938 11.088 0 15.246 10.169 15.246 21.79 0 8.716-4.158 24.696-6.932 36.317-2.77 13.074-8.314 30.506-9.7 40.675z" fill="#fd0000"/><g fill="#008000"><path d="m9767.2 4449.2c2.679-8.0354 2.679-9.3746 2.679-13.392 0-10.714-8.036-16.071-17.411-16.071-5.357 0-14.731 4.0179-20.088 12.053-1.339 2.6784-6.696 21.428-8.036 32.142-4.017 14.732-8.035 30.802-12.053 46.873l-26.784 104.46c-1.34 9.3746-26.785 49.552-65.623 49.552-29.463 0-36.16-25.446-36.16-46.873 0-26.785 9.375-62.944 29.464-115.17 9.375-22.767 12.053-29.463 12.053-41.516 0-26.785-18.749-48.212-48.213-48.212-54.908 0-76.336 85.711-76.336 89.729 0 6.6962 5.357 6.6962 6.697 6.6962 5.356 0 6.696-1.3395 9.374-10.714 16.071-54.909 38.838-72.319 58.926-72.319 4.018 0 14.732 0 14.732 18.749 0 14.732-6.697 29.463-10.714 40.177-22.767 62.944-33.481 95.086-33.481 123.21 0 52.23 37.498 69.64 70.98 69.64 22.766 0 42.855-10.714 58.926-26.785-6.696 30.802-14.732 58.926-37.499 89.729-14.731 20.088-37.498 37.499-64.283 37.499-8.035 0-34.82-2.6784-44.195-25.446 9.375 0 17.41 0 25.446-6.6959 5.357-5.3571 10.714-12.053 10.714-24.106 0-17.41-14.732-20.088-21.428-20.088-13.393 0-32.142 9.3746-32.142 37.498 0 29.463 25.445 50.891 61.605 50.891 60.265 0 120.53-52.23 136.6-119.19z"/><path d="m9819.3 4733.7c-1.339 5.3571-4.018 14.732-4.018 16.071 0 9.3747 8.036 13.392 14.732 13.392 6.697 0 13.393-5.3567 14.732-9.3746 2.679-2.6784 5.357-16.071 8.035-25.446 1.339-6.696 6.696-25.445 9.375-36.159 1.339-9.3746 4.017-17.41 6.696-26.785 4.018-17.41 5.357-20.088 17.41-37.498 10.714-16.071 29.463-37.499 60.266-37.499 24.106 0 24.106 21.428 24.106 28.124 0 25.446-17.41 70.979-24.106 87.05-4.018 12.053-5.357 16.071-5.357 22.767 0 21.428 17.41 34.82 38.837 34.82 40.178 0 58.927-56.248 58.927-62.944 0-5.3568-5.357-5.3568-6.696-5.3568-5.358 0-6.697 2.6784-8.036 8.0354-9.374 32.142-26.784 49.552-42.855 49.552-9.375 0-10.714-6.6963-10.714-14.731 0-9.3749 2.678-14.732 9.374-33.481 5.358-12.053 21.428-56.248 21.428-79.015 0-38.838-30.802-46.874-52.23-46.874-34.82 0-57.587 21.428-69.64 37.499-2.679-28.124-26.785-37.499-44.195-37.499s-26.785 13.392-32.142 22.767c-8.035 14.732-14.731 38.838-14.731 40.177 0 5.3568 6.696 5.3568 8.035 5.3568 5.357 0 5.357-1.3392 8.035-12.053 6.697-24.106 14.732-44.195 29.464-44.195 10.714 0 14.732 9.3747 14.732 20.088 0 8.0354-4.018 22.767-6.696 33.481-2.679 12.053-8.036 28.124-9.375 37.498z"/><path d="m10628 4324.6c6.696-2.6784 12.053-5.3568 12.053-13.392 0-5.3571-5.357-10.714-12.053-10.714-2.678 0-8.036 1.3392-10.714 2.6784l-322.76 152.67c-10.713 5.357-12.053 9.3746-12.053 13.392 0 5.3571 4.018 9.3746 12.053 13.392l322.76 151.33c8.036 4.0175 9.375 4.0175 10.714 4.0175 6.696 0 12.053-5.3567 12.053-12.053 0-4.0179-2.678-8.0354-13.392-13.392l-305.34-143.3zm-9.375 427.22c10.714 0 21.428 0 21.428-12.053s-13.392-12.053-21.428-12.053h-314.72c-9.375 0-21.428 0-21.428 12.053s10.714 12.053 20.089 12.053z"/><path d="m11151 4449.2c2.678-8.0354 2.678-9.3746 2.678-13.392 0-10.714-8.035-16.071-17.409-16.071-5.357 0-14.732 4.0179-20.089 12.053-1.339 2.6784-6.696 21.428-8.036 32.142-4.017 14.732-8.035 30.802-12.053 46.873l-26.784 104.46c-1.339 9.3746-26.785 49.552-65.623 49.552-29.463 0-36.159-25.446-36.159-46.873 0-26.785 9.375-62.944 29.463-115.17 9.375-22.767 12.053-29.463 12.053-41.516 0-26.785-18.749-48.212-48.212-48.212-54.909 0-76.337 85.711-76.337 89.729 0 6.6962 5.357 6.6962 6.696 6.6962 5.357 0 6.697-1.3395 9.375-10.714 16.071-54.909 38.838-72.319 58.927-72.319 4.017 0 14.731 0 14.731 18.749 0 14.732-6.696 29.463-10.714 40.177-22.767 62.944-33.481 95.086-33.481 123.21 0 52.23 37.499 69.64 70.98 69.64 22.767 0 42.855-10.714 58.926-26.785-6.696 30.802-14.732 58.926-37.498 89.729-14.732 20.088-37.499 37.499-64.284 37.499-8.035 0-34.82-2.6784-44.194-25.446 9.374 0 17.409 0 25.445-6.6959 5.357-5.3571 10.714-12.053 10.714-24.106 0-17.41-14.732-20.088-21.428-20.088-13.392 0-32.142 9.3746-32.142 37.498 0 29.463 25.446 50.891 61.605 50.891 60.266 0 120.53-52.23 136.6-119.19z"/><path d="m11333 4602.4c-14.732 2.6784-21.428 14.732-21.428 22.767 0 12.053 8.036 16.071 16.071 16.071 9.375 0 22.767-6.6962 22.767-26.785 0-28.124-30.802-36.16-53.569-36.16-61.605 0-117.85 57.587-117.85 113.84 0 34.82 24.106 70.979 74.998 70.979 69.639 0 101.78-40.177 101.78-45.534 0-2.6784-4.018-8.0355-6.697-8.0355-2.678 0-4.017 1.3395-6.696 4.0179-32.142 38.838-80.355 38.838-87.05 38.838-29.464 0-42.856-20.088-42.856-45.534 0-12.053 5.357-56.248 26.785-84.372 16.071-20.088 37.498-32.142 57.587-32.142 5.357 0 25.445 1.3392 36.159 12.053z"/><text font-family="Ubuntu" font-size="493.89" stroke-opacity=".9" stroke-width="39.685" text-anchor="end" x="11360.877" y="5399.5942"><tspan x="11360.877" y="5399.5942">new solution</tspan><tspan x="11360.877" y="6016.9556">is better</tspan></text></g><path d="m7681.2 7377.6v-150" fill="none" stroke="#fd0000" stroke-linejoin="round"/><text fill="#f0f" stroke-linecap="round" stroke-linejoin="round" stroke-opacity=".9" stroke-width="56.693" x="-2277.8323" y="-930.39075"><tspan fill="#f0f" stroke-linecap="round" stroke-linejoin="round" stroke-opacity=".9" stroke-width="56.693"><tspan fill="#f0f" stroke-linecap="round" stroke-linejoin="round" stroke-opacity=".9" stroke-width="56.693" x="7246.168" y="7347.6094"><tspan style="fill:#f0f;font-family:'Liberation Sans', sans-serif;font-size:353;font-weight:400;stroke-linecap:round;stroke-linejoin:round;stroke-opacity:.9;stroke-width:56.693">0</tspan></tspan></tspan></text><path d="m150.17 7226.6c406.96-.2339 813.92.7429 1220.9-1.0772 195.25.1822 390.5.4199 585.74-.9059 136.31.3219 272.62-.4605 408.93-.9692 227.98-.7753 455.96-1.9156 683.93-3.6724 567.84-4.6572 1135.8-10.857 1703.2-36.222 293.04-13.98 586.05-32.954 877.51-66.952 354.24-42.128 708.39-104.78 1045.4-224.76 259.48-91.805 507.06-220.01 725.23-388.47 260.11-199.34 476.05-451.44 653.83-725.66 143.05-220.54 263.48-455.16 369.07-695.68 199.12-455.49 348.33-931.04 475.97-1410.9 156.3-590.12 277.6-1188.9 384.08-1789.8 28.249-161.82 55.518-323.81 81.769-485.96" fill="none" stroke="#004586" stroke-linejoin="round" stroke-width="127"/><text fill="#fd0000" x="-2277.8323" y="-930.39075"><tspan fill="#fd0000"><tspan fill="#fd0000" x="7588.168" y="7795.6094"><tspan fill="#fd0000" font-family="'Liberation Sans', sans-serif" font-size="353" font-weight="400">0</tspan></tspan></tspan></text><path d="m783.67 4449.2c2.679-8.0354 2.679-9.3746 2.679-13.392 0-10.714-8.036-16.071-17.411-16.071-5.357 0-14.731 4.0179-20.088 12.053-1.339 2.6784-6.696 21.428-8.036 32.142-4.017 14.732-8.035 30.802-12.053 46.873l-26.784 104.46c-1.34 9.3746-26.785 49.552-65.623 49.552-29.463 0-36.16-25.446-36.16-46.873 0-26.785 9.375-62.944 29.464-115.17 9.375-22.767 12.053-29.463 12.053-41.516 0-26.785-18.749-48.212-48.213-48.212-54.908 0-76.336 85.711-76.336 89.729 0 6.6962 5.357 6.6962 6.697 6.6962 5.356 0 6.696-1.3395 9.374-10.714 16.071-54.909 38.838-72.319 58.926-72.319 4.018 0 14.732 0 14.732 18.749 0 14.732-6.697 29.463-10.714 40.177-22.767 62.944-33.481 95.086-33.481 123.21 0 52.23 37.498 69.64 70.98 69.64 22.766 0 42.855-10.714 58.926-26.785-6.696 30.802-14.732 58.926-37.499 89.729-14.731 20.088-37.498 37.499-64.283 37.499-8.035 0-34.82-2.6784-44.195-25.446 9.375 0 17.41 0 25.446-6.6959 5.357-5.3571 10.714-12.053 10.714-24.106 0-17.41-14.732-20.088-21.428-20.088-13.393 0-32.142 9.3746-32.142 37.498 0 29.463 25.445 50.891 61.605 50.891 60.265 0 120.53-52.23 136.6-119.19z" fill="#a00000"/><path d="m835.77 4733.7c-1.339 5.3571-4.018 14.732-4.018 16.071 0 9.3747 8.036 13.392 14.732 13.392 6.697 0 13.393-5.3567 14.732-9.3746 2.679-2.6784 5.357-16.071 8.035-25.446 1.339-6.696 6.696-25.445 9.375-36.159 1.339-9.3746 4.017-17.41 6.696-26.785 4.018-17.41 5.357-20.088 17.41-37.498 10.714-16.071 29.463-37.499 60.266-37.499 24.106 0 24.106 21.428 24.106 28.124 0 25.446-17.41 70.979-24.106 87.05-4.018 12.053-5.357 16.071-5.357 22.767 0 21.428 17.41 34.82 38.837 34.82 40.178 0 58.927-56.248 58.927-62.944 0-5.3568-5.357-5.3568-6.696-5.3568-5.358 0-6.697 2.6784-8.036 8.0354-9.374 32.142-26.784 49.552-42.855 49.552-9.375 0-10.714-6.6963-10.714-14.731 0-9.3749 2.678-14.732 9.374-33.481 5.358-12.053 21.428-56.248 21.428-79.015 0-38.838-30.802-46.874-52.23-46.874-34.82 0-57.587 21.428-69.64 37.499-2.679-28.124-26.785-37.499-44.195-37.499s-26.785 13.392-32.142 22.767c-8.035 14.732-14.731 38.838-14.731 40.177 0 5.3568 6.696 5.3568 8.035 5.3568 5.357 0 5.357-1.3392 8.035-12.053 6.697-24.106 14.732-44.195 29.464-44.195 10.714 0 14.732 9.3747 14.732 20.088 0 8.0354-4.018 22.767-6.696 33.481-2.679 12.053-8.036 28.124-9.375 37.498z" fill="#a00000"/><path d="m1311.3 4324.6c-6.696-2.6784-12.053-5.3568-12.053-13.392 0-5.3571 5.357-10.714 12.053-10.714 2.678 0 8.036 1.3392 10.714 2.6784l322.76 152.67c10.713 5.357 12.053 9.3746 12.053 13.392 0 5.3571-4.018 9.3746-12.053 13.392l-322.76 151.33c-8.036 4.0175-9.375 4.0175-10.714 4.0175-6.696 0-12.053-5.3567-12.053-12.053 0-4.0179 2.678-8.0354 13.392-13.392l305.34-143.3zm9.375 427.22c-10.714 0-21.428 0-21.428-12.053s13.392-12.053 21.428-12.053h314.72c9.375 0 21.428 0 21.428 12.053s-10.714 12.053-20.089 12.053z" fill="#a00000"/><path d="m2167.1 4449.2c2.678-8.0354 2.678-9.3746 2.678-13.392 0-10.714-8.035-16.071-17.409-16.071-5.357 0-14.732 4.0179-20.089 12.053-1.339 2.6784-6.696 21.428-8.036 32.142-4.017 14.732-8.035 30.802-12.053 46.873l-26.784 104.46c-1.339 9.3746-26.785 49.552-65.623 49.552-29.463 0-36.159-25.446-36.159-46.873 0-26.785 9.375-62.944 29.463-115.17 9.375-22.767 12.053-29.463 12.053-41.516 0-26.785-18.749-48.212-48.212-48.212-54.909 0-76.337 85.711-76.337 89.729 0 6.6962 5.357 6.6962 6.696 6.6962 5.357 0 6.697-1.3395 9.375-10.714 16.071-54.909 38.838-72.319 58.927-72.319 4.017 0 14.731 0 14.731 18.749 0 14.732-6.696 29.463-10.714 40.177-22.767 62.944-33.481 95.086-33.481 123.21 0 52.23 37.499 69.64 70.98 69.64 22.767 0 42.855-10.714 58.926-26.785-6.696 30.802-14.732 58.926-37.498 89.729-14.732 20.088-37.499 37.499-64.284 37.499-8.035 0-34.82-2.6784-44.194-25.446 9.374 0 17.409 0 25.445-6.6959 5.357-5.3571 10.714-12.053 10.714-24.106 0-17.41-14.732-20.088-21.428-20.088-13.392 0-32.142 9.3746-32.142 37.498 0 29.463 25.446 50.891 61.605 50.891 60.266 0 120.53-52.23 136.6-119.19z" fill="#a00000"/><path d="m2349.1 4602.4c-14.732 2.6784-21.428 14.732-21.428 22.767 0 12.053 8.036 16.071 16.071 16.071 9.375 0 22.767-6.6962 22.767-26.785 0-28.124-30.802-36.16-53.569-36.16-61.605 0-117.85 57.587-117.85 113.84 0 34.82 24.106 70.979 74.998 70.979 69.639 0 101.78-40.177 101.78-45.534 0-2.6784-4.018-8.0355-6.697-8.0355-2.678 0-4.017 1.3395-6.696 4.0179-32.142 38.838-80.355 38.838-87.05 38.838-29.464 0-42.856-20.088-42.856-45.534 0-12.053 5.357-56.248 26.785-84.372 16.071-20.088 37.498-32.142 57.587-32.142 5.357 0 25.445 1.3392 36.159 12.053z" fill="#a00000"/><text style="fill:#a00000;font-family:Ubuntu;font-size:493.89;stroke-linecap:round;stroke-linejoin:round;stroke-opacity:.9;stroke-width:52.917" x="483.08575" y="5399.5942"><tspan x="483.08575" y="5399.5942">new solution</tspan><tspan x="483.08575" y="6016.9556">is worse</tspan></text></g></svg>