<svg height="101.51pt" viewBox="0 0 164.39 101.51" width="164.39pt" xmlns="http://www.w3.org/2000/svg" xmlns:xlink="http://www.w3.org/1999/xlink"><symbol id="a" overflow="visible"><path d="m1.5-2.234375c0-.140625 0-.140625.09375-.234375.28125-.28125.640625-.328125.78125-.328125.453125 0 .84375.421875.84375 1.28125 0 .953125-.484375 1.3125-.921875 1.3125-.09375 0-.421875 0-.71875-.375-.078125-.078125-.078125-.09375-.078125-.21875zm0 1.96875c.296875.234375.59375.3125.875.3125 1.015625 0 1.71875-.625 1.71875-1.5625 0-.90625-.625-1.546875-1.609375-1.546875-.515625 0-.875.203125-1.03125.328125v-.328125l-1.203125.046875v.328125c.421875 0 .46875 0 .46875.25v3.4375h-.46875v.328125c.1875-.015625.609375-.03125.859375-.03125.265625 0 .671875.015625.859375.03125v-.328125h-.46875zm0 0"/></symbol><symbol id="b" overflow="visible"><path d="m1.390625-2.296875v-.765625l-1.140625.046875v.328125c.421875 0 .46875 0 .46875.265625v2.109375h-.46875v.3125c.234375 0 .546875-.015625.859375-.015625.265625 0 .703125 0 .9375.015625v-.3125h-.59375v-1.203125c0-.46875.171875-1.3125.859375-1.3125-.015625.015625-.125.125-.125.328125 0 .265625.203125.40625.40625.40625s.421875-.140625.421875-.40625c0-.375-.375-.5625-.734375-.5625-.46875 0-.734375.34375-.890625.765625zm0 0"/></symbol><symbol id="c" overflow="visible"><path d="m3.6875-1.4844c0-.90625-.625-1.6094-1.7344-1.6094s-1.7344.70312-1.7344 1.6094c0 .84375.59375 1.5312 1.7344 1.5312s1.7344-.6875 1.7344-1.5312zm-1.7344 1.25c-.85938 0-.85938-.73438-.85938-1.3281 0-.29688 0-.65625.10938-.89062.125-.25.42188-.39062.75-.39062.28125 0 .57812.10938.71875.34375.15625.23438.15625.60938.15625.9375 0 .59375 0 1.3281-.875 1.3281z"/></symbol><symbol id="d" overflow="visible"><path d="m2.453125-2.765625c-.125.109375-.140625.25-.140625.3125 0 .296875.25.421875.421875.421875.21875 0 .4375-.140625.4375-.421875 0-.59375-.796875-.640625-1.1875-.640625-1.21875 0-1.71875.796875-1.71875 1.578125 0 .90625.640625 1.5625 1.6875 1.5625 1.09375 0 1.296875-.796875 1.296875-.84375 0-.09375-.09375-.09375-.15625-.09375-.125 0-.125.015625-.171875.09375-.171875.4375-.5.5625-.84375.5625-.953125 0-.953125-1-.953125-1.3125 0-.375 0-1.265625.890625-1.265625.234375 0 .34375.015625.4375.046875zm0 0"/></symbol><symbol id="e" overflow="visible"><path d="m3.140625-1.484375c.15625 0 .21875 0 .21875-.1875 0-.203125-.03125-.703125-.375-1.046875-.25-.25-.609375-.375-1.078125-.375-1.09375 0-1.6875.703125-1.6875 1.5625 0 .90625.6875 1.578125 1.78125 1.578125 1.078125 0 1.359375-.734375 1.359375-.84375 0-.125-.125-.125-.15625-.125-.109375 0-.125.03125-.171875.140625-.140625.328125-.53125.546875-.96875.546875-.96875 0-.96875-.90625-.96875-1.25zm-2.046875-.21875c.015625-.265625.015625-.5625.15625-.78125.1875-.28125.453125-.359375.65625-.359375.796875 0 .8125.890625.8125 1.140625zm0 0"/></symbol><symbol id="f" overflow="visible"><path d="m2.84375-.296875v.34375l1.25-.046875v-.3125c-.421875 0-.46875 0-.46875-.265625v-4.15625l-1.203125.0625v.3125c.421875 0 .46875 0 .46875.265625v1.328125c-.34375-.265625-.703125-.296875-.921875-.296875-1 0-1.703125.59375-1.703125 1.5625 0 .890625.625 1.546875 1.625 1.546875.421875 0 .75-.171875.953125-.34375zm0-2.109375v1.703125c-.078125.125-.359375.5-.875.5-.84375 0-.84375-.828125-.84375-1.296875 0-.328125 0-.703125.1875-.96875.1875-.28125.515625-.359375.71875-.359375.390625 0 .671875.21875.8125.421875zm0 0"/></symbol><symbol id="g" overflow="visible"><path d="m2.984375-.484375v.53125l1.203125-.046875v-.3125c-.421875 0-.46875 0-.46875-.265625v-2.484375l-1.25.046875v.328125c.421875 0 .46875 0 .46875.265625v1.296875c0 .5625-.34375.921875-.84375.921875-.515625 0-.546875-.171875-.546875-.546875v-2.3125l-1.234375.046875v.328125c.421875 0 .46875 0 .46875.265625v1.578125c0 .734375.546875.890625 1.21875.890625.1875 0 .671875 0 .984375-.53125zm0 0"/></symbol><symbol id="h" overflow="visible"><path d="m5.015625-2.5625c.046875-.09375.0625-.140625.46875-.140625v-.328125c-.15625.015625-.359375.03125-.53125.03125s-.5-.015625-.640625-.03125v.328125c.046875 0 .390625 0 .390625.078125 0 .015625-.015625.0625-.03125.078125l-.71875 1.75-.765625-1.90625h.375v-.328125c-.21875.015625-.578125.03125-.78125.03125-.28125 0-.5625-.015625-.671875-.03125v.328125h.390625c.15625.34375.15625.359375.15625.359375 0 .03125-.03125.0625-.03125.09375l-.546875 1.296875-.703125-1.75h.375v-.328125c-.28125.015625-.5625.03125-.84375.03125-.203125 0-.5-.015625-.734375-.03125v.328125h.40625l1.03125 2.546875c.046875.109375.078125.1875.25.1875s.203125-.078125.25-.1875l.71875-1.765625.71875 1.765625c.046875.109375.078125.1875.25.1875s.1875-.078125.25-.1875zm0 0"/></symbol><symbol id="i" overflow="visible"><path d="m.78125-.3125h-.46875v.3125c.1875 0 .59375-.015625.859375-.015625s.65625.015625.84375.015625v-.3125h-.46875v-1.4375c0-.734375.59375-1.078125 1.015625-1.078125.234375 0 .375.15625.375.671875v1.84375h-.46875v.3125c.1875 0 .609375-.015625.859375-.015625.265625 0 .671875.015625.859375.015625v-.3125h-.46875v-1.765625c0-.71875-.359375-.984375-1.046875-.984375-.65625 0-1 .390625-1.15625.671875v-2.34375l-1.203125.0625v.3125c.421875 0 .46875 0 .46875.265625zm0 0"/></symbol><symbol id="j" overflow="visible"><path d="m1.53125-3.0625-1.1875.046875v.328125c.40625 0 .453125 0 .453125.265625v2.109375h-.484375v.3125c.21875 0 .546875-.015625.84375-.015625.203125 0 .546875.015625.796875.015625v-.3125h-.421875zm.0625-1.140625c0-.296875-.25-.53125-.53125-.53125-.296875 0-.53125.234375-.53125.53125s.234375.53125.53125.53125c.28125 0 .53125-.234375.53125-.53125zm0 0"/></symbol><symbol id="k" overflow="visible"><path d="m1.53125-4.734375-1.21875.0625v.3125c.4375 0 .484375 0 .484375.265625v3.78125h-.484375v.3125c.21875 0 .546875-.015625.84375-.015625s.609375.015625.84375.015625v-.3125h-.46875zm0 0"/></symbol><symbol id="l" overflow="visible"><path d="m.796875-3.03125h-.515625v.328125h.515625v2.390625h-.46875v.3125c.234375 0 .546875-.015625.859375-.015625.25 0 .6875 0 .9375.015625v-.3125h-.59375v-2.390625h.78125v-.328125h-.828125v-.6875c0-.75.53125-.8125.703125-.8125.03125 0 .0625 0 .109375.015625-.109375.078125-.15625.203125-.15625.34375 0 .28125.234375.421875.421875.421875.203125 0 .421875-.140625.421875-.421875 0-.296875-.25-.59375-.78125-.59375-.671875 0-1.40625.28125-1.40625 1.046875zm0 0"/></symbol><symbol id="m" overflow="visible"><path d="m.703125-2.703125v1.859375c0 .734375.59375.890625 1.078125.890625.515625 0 .828125-.390625.828125-.890625v-.359375h-.328125v.34375c0 .46875-.21875.625-.40625.625-.390625 0-.390625-.4375-.390625-.59375v-1.875h.984375v-.328125h-.984375v-1.296875h-.328125c0 .6875-.34375 1.359375-1.015625 1.375v.25zm0 0"/></symbol><symbol id="n" overflow="visible"><path d="m.78125-2.421875v2.109375h-.46875v.3125c.1875 0 .59375-.015625.859375-.015625s.65625.015625.84375.015625v-.3125h-.46875v-1.4375c0-.734375.59375-1.078125 1.015625-1.078125.234375 0 .375.15625.375.671875v1.84375h-.46875v.3125c.1875 0 .609375-.015625.859375-.015625.265625 0 .671875.015625.859375.015625v-.3125h-.46875v-1.765625c0-.71875-.359375-.984375-1.046875-.984375-.65625 0-1.015625.390625-1.1875.734375v-.734375l-1.171875.046875v.328125c.421875 0 .46875 0 .46875.265625zm0 0"/></symbol><symbol id="o" overflow="visible"><path d="m2.25 1.640625c0-.03125 0-.046875-.109375-.15625-.859375-.859375-1.078125-2.140625-1.078125-3.1875 0-1.1875.265625-2.375 1.109375-3.21875.078125-.078125.078125-.09375.078125-.125 0-.046875-.015625-.0625-.0625-.0625-.0625 0-.6875.46875-1.078125 1.328125-.359375.75-.4375 1.5-.4375 2.078125 0 .53125.078125 1.359375.453125 2.125.40625.84375 1 1.28125 1.0625 1.28125.046875 0 .0625-.015625.0625-.0625zm0 0"/></symbol><symbol id="p" overflow="visible"><path d="m1.96875-1.703125c0-.53125-.078125-1.359375-.453125-2.125-.40625-.84375-.984375-1.28125-1.0625-1.28125-.03125 0-.0625.03125-.0625.0625s0 .046875.125.15625c.671875.6875 1.0625 1.765625 1.0625 3.1875 0 1.171875-.25 2.359375-1.09375 3.21875-.09375.078125-.09375.09375-.09375.125s.03125.0625.0625.0625c.078125 0 .6875-.46875 1.09375-1.328125.34375-.75.421875-1.5.421875-2.078125zm0 0"/></symbol><symbol id="q" overflow="visible"><path d="m1.3125-2.578125c0-.1875-.171875-.359375-.359375-.359375-.203125 0-.375.171875-.375.359375 0 .203125.171875.359375.375.359375.1875 0 .359375-.15625.359375-.359375zm0 2.21875c0-.203125-.171875-.359375-.359375-.359375-.203125 0-.375.15625-.375.359375s.171875.359375.375.359375c.1875 0 .359375-.15625.359375-.359375zm0 0"/></symbol><symbol id="r" overflow="visible"><path d="m1.140625-2.265625v-.75l-.953125.078125v.21875c.484375 0 .53125.046875.53125.375v1.828125c0 .296875-.078125.296875-.53125.296875v.21875c.265625 0 .59375-.015625.78125-.015625.265625 0 .59375 0 .859375.015625v-.21875h-.140625c-.5 0-.515625-.0625-.515625-.3125v-1.046875c0-.671875.28125-1.28125.796875-1.28125h.078125c-.015625.015625-.15625.09375-.15625.265625 0 .203125.140625.296875.296875.296875.125 0 .296875-.078125.296875-.296875s-.21875-.421875-.515625-.421875c-.484375 0-.734375.453125-.828125.75zm0 0"/></symbol><symbol id="s" overflow="visible"><path d="m2.265625-.515625c.03125.265625.21875.5625.53125.5625.140625 0 .5625-.09375.5625-.65625v-.375h-.171875v.375c0 .390625-.171875.4375-.25.4375-.21875 0-.25-.3125-.25-.34375v-1.359375c0-.28125 0-.546875-.234375-.796875-.265625-.265625-.609375-.375-.9375-.375-.5625 0-1.03125.3125-1.03125.765625 0 .203125.140625.3125.3125.3125.1875 0 .3125-.125.3125-.3125 0-.078125-.03125-.296875-.34375-.3125.1875-.234375.515625-.3125.734375-.3125.328125 0 .71875.265625.71875.875v.25c-.34375.03125-.828125.046875-1.25.25-.515625.234375-.6875.578125-.6875.890625 0 .546875.671875.71875 1.09375.71875.453125 0 .765625-.28125.890625-.59375zm-.046875-1.125v.6875c0 .640625-.484375.875-.796875.875-.328125 0-.609375-.234375-.609375-.578125 0-.375.28125-.9375 1.40625-.984375zm0 0"/></symbol><symbol id="t" overflow="visible"><path d="m.75-2.34375v1.828125c0 .296875-.078125.296875-.53125.296875v.21875c.234375 0 .578125-.015625.765625-.015625s.53125.015625.765625.015625v-.21875c-.453125 0-.53125 0-.53125-.296875v-1.25c0-.71875.484375-1.09375.921875-1.09375.421875 0 .5.359375.5.75v1.59375c0 .296875-.078125.296875-.53125.296875v.21875c.234375 0 .59375-.015625.765625-.015625.1875 0 .53125.015625.765625.015625v-.21875c-.34375 0-.515625 0-.53125-.203125v-1.296875c0-.578125 0-.796875-.203125-1.046875-.09375-.109375-.328125-.25-.71875-.25-.5 0-.8125.296875-1.015625.71875v-.71875l-.953125.078125v.21875c.46875 0 .53125.046875.53125.375zm0 0"/></symbol><symbol id="u" overflow="visible"><path d="m2.59375-.375v.453125l1-.078125v-.21875c-.484375 0-.53125-.046875-.53125-.375v-4.140625l-.984375.078125v.21875c.484375 0 .53125.046875.53125.375v1.46875c-.203125-.234375-.484375-.421875-.859375-.421875-.796875 0-1.515625.671875-1.515625 1.546875s.671875 1.546875 1.4375 1.546875c.4375 0 .75-.234375.921875-.453125zm0-1.828125v1.40625c0 .109375 0 .125-.078125.25-.203125.328125-.515625.46875-.8125.46875s-.546875-.171875-.703125-.4375c-.1875-.28125-.203125-.65625-.203125-.9375 0-.25.015625-.671875.21875-.96875.140625-.21875.390625-.4375.765625-.4375.234375 0 .515625.09375.734375.40625.078125.109375.078125.125.078125.25zm0 0"/></symbol><symbol id="v" overflow="visible"><path d="m3.203125-1.453125c0-.875-.671875-1.59375-1.5-1.59375-.84375 0-1.515625.734375-1.515625 1.59375 0 .875.71875 1.53125 1.515625 1.53125.8125 0 1.5-.671875 1.5-1.53125zm-1.5 1.359375c-.296875 0-.59375-.140625-.78125-.453125-.171875-.3125-.171875-.71875-.171875-.96875 0-.265625 0-.625.171875-.9375.1875-.3125.5-.453125.78125-.453125.296875 0 .578125.15625.765625.453125.171875.28125.171875.6875.171875.9375s0 .609375-.140625.921875c-.15625.296875-.453125.5-.796875.5zm0 0"/></symbol><symbol id="w" overflow="visible"><path d="m.75-2.34375v1.828125c0 .296875-.078125.296875-.53125.296875v.21875c.234375 0 .578125-.015625.765625-.015625s.53125.015625.765625.015625v-.21875c-.453125 0-.53125 0-.53125-.296875v-1.25c0-.71875.484375-1.09375.921875-1.09375.421875 0 .5.359375.5.75v1.59375c0 .296875-.078125.296875-.53125.296875v.21875c.234375 0 .59375-.015625.765625-.015625.1875 0 .53125.015625.765625.015625v-.21875c-.453125 0-.53125 0-.53125-.296875v-1.25c0-.71875.484375-1.09375.921875-1.09375s.5.359375.5.75v1.59375c0 .296875-.0625.296875-.53125.296875v.21875c.25 0 .59375-.015625.78125-.015625.171875 0 .53125.015625.75.015625v-.21875c-.34375 0-.515625 0-.53125-.203125v-1.296875c0-.578125 0-.796875-.203125-1.046875-.09375-.109375-.328125-.25-.71875-.25-.5625 0-.875.40625-.984375.671875-.09375-.59375-.59375-.671875-.90625-.671875-.5 0-.8125.296875-1.015625.71875v-.71875l-.953125.078125v.21875c.46875 0 .53125.046875.53125.375zm0 0"/></symbol><symbol id="x" overflow="visible"><path d="m1.203125-4.734375-.984375.078125v.21875c.484375 0 .53125.046875.53125.375v3.546875c0 .296875-.0625.296875-.53125.296875v.21875c.234375 0 .59375-.015625.765625-.015625s.5.015625.75.015625v-.21875c-.453125 0-.53125 0-.53125-.296875zm0 0"/></symbol><symbol id="y" overflow="visible"><path d="m2.828125-2.28125c.171875-.4375.53125-.4375.625-.4375v-.21875c-.15625.015625-.34375.015625-.5.015625-.125 0-.453125 0-.59375-.015625v.21875c.203125 0 .3125.109375.3125.28125 0 .078125 0 .09375-.03125.171875l-.6875 1.671875-.765625-1.828125c-.015625-.078125-.03125-.09375-.03125-.125 0-.171875.25-.171875.375-.171875v-.21875c-.171875.015625-.625.015625-.734375.015625-.1875 0-.46875 0-.671875-.015625v.21875c.328125 0 .453125 0 .5625.234375l1.015625 2.484375c-.03125.09375-.125.3125-.171875.40625-.140625.375-.34375.84375-.78125.84375-.03125 0-.1875 0-.3125-.125.203125-.03125.265625-.171875.265625-.28125 0-.1875-.125-.296875-.28125-.296875-.140625 0-.296875.09375-.296875.296875 0 .3125.296875.546875.625.546875.4375 0 .71875-.375.875-.765625zm0 0"/></symbol><symbol id="z" overflow="visible"><path d="m1.421875-1.328125c.140625.03125.703125.140625.703125.640625 0 .34375-.234375.609375-.765625.609375-.578125 0-.828125-.390625-.953125-.96875-.015625-.078125-.03125-.109375-.09375-.109375-.09375 0-.09375.046875-.09375.171875v.890625c0 .125 0 .171875.078125.171875.03125 0 .046875-.015625.171875-.140625.015625-.015625.015625-.03125.140625-.15625.296875.28125.609375.296875.75.296875.78125 0 1.09375-.453125 1.09375-.953125 0-.359375-.203125-.5625-.28125-.640625-.234375-.21875-.5-.28125-.78125-.328125-.375-.078125-.84375-.171875-.84375-.5625 0-.234375.1875-.515625.765625-.515625.75 0 .78125.609375.796875.828125.015625.0625.078125.0625.078125.0625.09375 0 .09375-.046875.09375-.171875v-.6875c0-.109375 0-.15625-.078125-.15625-.03125 0-.046875 0-.125.078125-.03125.03125-.09375.09375-.125.109375-.25-.1875-.53125-.1875-.640625-.1875-.828125 0-1.09375.453125-1.09375.828125 0 .25.109375.4375.296875.578125.21875.1875.40625.21875.90625.3125zm0 0"/></symbol><symbol id="A" overflow="visible"><path d="m1.171875-2.5625v-.453125l-.984375.078125v.21875c.484375 0 .53125.03125.53125.328125v3.1875c0 .3125-.078125.3125-.53125.3125v.21875c.234375-.015625.59375-.03125.765625-.03125.1875 0 .53125.015625.765625.03125v-.21875c-.453125 0-.53125 0-.53125-.3125v-1.203125c.03125.109375.328125.484375.84375.484375.8125 0 1.515625-.671875 1.515625-1.546875s-.65625-1.546875-1.421875-1.546875c-.53125 0-.8125.296875-.953125.453125zm.015625 1.78125v-1.515625c.203125-.34375.53125-.546875.890625-.546875.484375 0 .90625.609375.90625 1.375 0 .828125-.484375 1.390625-.984375 1.390625-.265625 0-.53125-.140625-.71875-.40625-.09375-.15625-.09375-.15625-.09375-.296875zm0 0"/></symbol><symbol id="B" overflow="visible"><path d="m.765625-1.71875c.03125-1.015625.609375-1.1875.84375-1.1875.703125 0 .765625.921875.765625 1.1875zm-.015625.140625h1.90625c.15625 0 .171875 0 .171875-.140625 0-.671875-.375-1.328125-1.21875-1.328125-.796875 0-1.421875.703125-1.421875 1.546875 0 .921875.71875 1.578125 1.5 1.578125.828125 0 1.140625-.765625 1.140625-.890625 0-.0625-.0625-.078125-.09375-.078125-.0625 0-.078125.03125-.078125.09375-.25.703125-.859375.703125-.921875.703125-.34375 0-.609375-.203125-.78125-.453125-.203125-.328125-.203125-.78125-.203125-1.03125zm0 0"/></symbol><symbol id="C" overflow="visible"><path d="m1.1875-2.9375v-.78125c0-.609375.328125-.9375.625-.9375.03125 0 .125 0 .234375.046875-.078125.03125-.203125.125-.203125.296875 0 .15625.109375.28125.28125.28125.203125 0 .3125-.125.3125-.296875 0-.25-.25-.46875-.625-.46875-.46875 0-1.046875.359375-1.046875 1.078125v.78125h-.546875v.21875h.546875v2.203125c0 .296875-.078125.296875-.53125.296875v.21875c.265625 0 .578125-.015625.78125-.015625.265625 0 .578125 0 .859375.015625v-.21875h-.140625c-.515625 0-.515625-.0625-.515625-.3125v-2.1875h.765625v-.21875zm0 0"/></symbol><symbol id="D" overflow="visible"><path d="m1.3125-2.578125c0-.1875-.171875-.359375-.359375-.359375-.203125 0-.375.171875-.375.359375 0 .203125.171875.359375.375.359375.1875 0 .359375-.15625.359375-.359375zm-.140625 2.5c0 .1875 0 .71875-.421875 1.234375-.0625.046875-.0625.0625-.0625.078125 0 .046875.046875.078125.078125.078125.078125 0 .5625-.546875.5625-1.328125 0-.203125-.015625-.703125-.375-.703125-.25 0-.375.1875-.375.359375s.125.359375.375.359375h.046875c.046875-.015625.125-.03125.171875-.078125zm0 0"/></symbol><symbol id="E" overflow="visible"><path d="m1.171875-2.71875h.984375v-.21875h-.984375v-1.25h-.15625c-.015625.5625-.21875 1.28125-.890625 1.3125v.15625h.578125v1.875c0 .84375.640625.921875.890625.921875.484375 0 .671875-.484375.671875-.921875v-.390625h-.171875v.375c0 .5-.203125.765625-.453125.765625-.46875 0-.46875-.625-.46875-.734375zm0 0"/></symbol><symbol id="F" overflow="visible"><path d="m1.203125-3.015625-.953125.078125v.21875c.4375 0 .5.03125.5.375v1.828125c0 .296875-.0625.296875-.53125.296875v.21875c.21875 0 .59375-.015625.75-.015625.25 0 .484375.015625.71875.015625v-.21875c-.453125 0-.484375-.03125-.484375-.296875zm.03125-1.1875c0-.21875-.171875-.359375-.359375-.359375-.21875 0-.359375.1875-.359375.359375 0 .1875.140625.375.359375.375.1875 0 .359375-.15625.359375-.375zm0 0"/></symbol><symbol id="G" overflow="visible"><path d="m1.390625 0c0-.4375-.171875-.71875-.4375-.71875-.25 0-.375.1875-.375.359375s.125.359375.375.359375c.109375 0 .1875-.046875.25-.09375l.015625-.015625s.015625 0 .015625.109375c0 .421875-.1875.84375-.484375 1.171875-.046875.03125-.0625.046875-.0625.0625 0 .046875.046875.078125.078125.078125.078125 0 .625-.53125.625-1.3125zm0 0"/></symbol><symbol id="H" overflow="visible"><path d="m2.65625-.53125v.609375l.984375-.078125v-.21875c-.46875 0-.53125-.046875-.53125-.375v-2.421875l-1 .078125v.21875c.484375 0 .53125.046875.53125.375v1.21875c0 .59375-.328125 1.046875-.828125 1.046875-.5625 0-.59375-.3125-.59375-.671875v-2.265625l-1 .078125v.21875c.53125 0 .53125.015625.53125.625v1.015625c0 .53125 0 1.15625 1.03125 1.15625.390625 0 .6875-.1875.875-.609375zm0 0"/></symbol><symbol id="I" overflow="visible"><path d="m4.21875-2.28125c.125-.34375.328125-.4375.578125-.4375v-.21875c-.15625.015625-.359375.015625-.5.015625-.203125 0-.515625 0-.640625-.015625v.21875c.25 0 .390625.125.390625.328125 0 .03125 0 .046875-.03125.140625l-.609375 1.734375-.6875-1.890625c-.015625-.09375-.03125-.09375-.03125-.140625 0-.171875.265625-.171875.40625-.171875v-.21875c-.203125.015625-.546875.015625-.703125.015625-.203125 0-.40625 0-.609375-.015625v.21875c.25 0 .359375 0 .421875.09375.03125.046875.109375.25.15625.375l-.578125 1.65625-.65625-1.828125c-.03125-.078125-.03125-.09375-.03125-.125 0-.171875.265625-.171875.40625-.171875v-.21875c-.203125.015625-.59375.015625-.75.015625-.015625 0-.375 0-.625-.015625v.21875c.34375 0 .421875.015625.5.234375l.859375 2.40625c.03125.09375.0625.15625.140625.15625.09375 0 .109375-.046875.140625-.140625l.6875-1.921875.6875 1.9375c.03125.0625.046875.125.140625.125s.109375-.0625.140625-.125zm0 0"/></symbol><symbol id="J" overflow="visible"><path d="m2.5625-4.7344h-.59375l-1.7812 4.7344h.5l.53125-1.3906h1.9844l.51562 1.3906h.625zm.48438 2.9688h-1.6875l.45312-1.2344c.14062-.40625.34375-.98438.39062-1.2344h.015625c.015625.09375.0625.26562.21875.71875z"/></symbol><symbol id="K" overflow="visible"><path d="m3.171875-4.53125c-.375-.234375-.75-.34375-1.25-.34375-.953125 0-1.546875.671875-1.546875 1.34375 0 .28125.109375.578125.375.859375.28125.3125.578125.390625.984375.484375.578125.140625.65625.171875.84375.328125.140625.125.28125.34375.28125.640625 0 .453125-.375.90625-1 .90625-.265625 0-.890625-.078125-1.453125-.5625l-.109375.5625c.609375.359375 1.140625.46875 1.578125.46875.890625 0 1.53125-.6875 1.53125-1.4375 0-.453125-.21875-.78125-.375-.9375-.3125-.34375-.53125-.40625-1.171875-.5625-.390625-.09375-.5-.125-.703125-.296875-.046875-.046875-.234375-.234375-.234375-.546875 0-.390625.359375-.796875 1-.796875.5625 0 .890625.21875 1.140625.4375zm0 0"/></symbol><symbol id="L" overflow="visible"><path d="m2.5-2.71875h.59375c.125 0 .203125 0 .203125-.140625 0-.078125-.078125-.078125-.1875-.078125h-.5625l.140625-.78125c.03125-.140625.125-.625.15625-.703125.0625-.125.1875-.234375.328125-.234375.015625 0 .203125 0 .328125.125-.296875.03125-.359375.265625-.359375.375 0 .15625.109375.234375.25.234375.171875 0 .375-.15625.375-.40625 0-.3125-.3125-.46875-.59375-.46875-.234375 0-.671875.109375-.875.796875-.03125.140625-.0625.203125-.21875 1.0625h-.46875c-.125 0-.203125 0-.203125.125 0 .09375.0625.09375.1875.09375h.453125l-.515625 2.6875c-.125.65625-.234375 1.28125-.59375 1.28125-.03125 0-.1875 0-.328125-.125.3125-.015625.375-.265625.375-.375 0-.15625-.125-.234375-.25-.234375-.171875 0-.375.15625-.375.40625 0 .3125.296875.46875.578125.46875.375 0 .65625-.390625.765625-.65625.21875-.421875.375-1.25.390625-1.296875zm0 0"/></symbol><symbol id="M" overflow="visible"><path d="m2.28125-2.0625c.03125-.171875.1875-.796875.671875-.796875.03125 0 .1875 0 .34375.09375-.203125.03125-.328125.203125-.328125.359375 0 .109375.0625.234375.25.234375.15625 0 .375-.109375.375-.390625 0-.359375-.40625-.453125-.640625-.453125-.390625 0-.625.359375-.71875.515625-.15625-.4375-.53125-.515625-.734375-.515625-.703125 0-1.09375.890625-1.09375 1.046875 0 .078125.078125.078125.078125.078125.0625 0 .078125-.015625.09375-.078125.234375-.71875.6875-.890625.90625-.890625.140625 0 .375.0625.375.453125 0 .21875-.109375.671875-.375 1.625-.09375.421875-.34375.703125-.640625.703125-.046875 0-.203125 0-.34375-.078125.171875-.046875.328125-.1875.328125-.375s-.15625-.234375-.25-.234375c-.203125 0-.375.171875-.375.390625 0 .3125.328125.453125.640625.453125.4375 0 .6875-.484375.703125-.515625.09375.25.328125.515625.734375.515625.703125 0 1.09375-.875 1.09375-1.046875 0-.078125-.0625-.078125-.078125-.078125-.0625 0-.078125.03125-.09375.078125-.21875.734375-.6875.890625-.90625.890625-.265625 0-.375-.21875-.375-.453125 0-.140625.046875-.296875.125-.59375zm0 0"/></symbol><symbol id="N" overflow="visible"><path d="m3.3125-2.59375c.03125-.09375.03125-.109375.03125-.15625 0-.125-.09375-.1875-.203125-.1875-.0625 0-.171875.046875-.234375.140625-.015625.03125-.078125.25-.09375.375-.046875.171875-.09375.359375-.140625.546875l-.3125 1.21875c-.015625.109375-.3125.578125-.765625.578125-.34375 0-.421875-.296875-.421875-.546875 0-.3125.109375-.734375.34375-1.34375.109375-.265625.140625-.34375.140625-.484375 0-.3125-.21875-.5625-.5625-.5625-.640625 0-.890625 1-.890625 1.046875 0 .078125.0625.078125.078125.078125.0625 0 .078125-.015625.109375-.125.1875-.640625.453125-.84375.6875-.84375.046875 0 .171875 0 .171875.21875 0 .171875-.078125.34375-.125.46875-.265625.734375-.390625 1.109375-.390625 1.4375 0 .609375.4375.8125.828125.8125.265625 0 .5-.125.6875-.3125-.078125.359375-.171875.6875-.4375 1.046875-.171875.234375-.4375.4375-.75.4375-.09375 0-.40625-.03125-.515625-.296875.109375 0 .203125 0 .296875-.078125.0625-.0625.125-.140625.125-.28125 0-.203125-.171875-.234375-.25-.234375-.15625 0-.375.109375-.375.4375 0 .34375.296875.59375.71875.59375.703125 0 1.40625-.609375 1.59375-1.390625zm0 0"/></symbol><symbol id="O" overflow="visible"><path d="m4.59375-3.390625c.09375-.046875.140625-.078125.140625-.15625s-.0625-.125-.140625-.125c-.015625 0-.03125 0-.125.046875l-3.78125 1.765625c-.0625.046875-.125.078125-.125.15625s.0625.109375.125.15625l3.78125 1.765625c.09375.046875.109375.046875.125.046875.078125 0 .140625-.046875.140625-.125s-.046875-.109375-.140625-.15625l-3.578125-1.6875zm0 0"/></symbol><symbol id="P" overflow="visible"><path d="m2.90625-4.140625c.046875-.1875.078125-.21875.15625-.25.0625-.015625.296875-.015625.4375-.015625.6875 0 .984375.03125.984375.5625 0 .109375-.015625.375-.046875.546875-.015625.03125-.015625.109375-.015625.125 0 .046875.015625.09375.078125.09375.078125 0 .078125-.0625.09375-.15625l.1875-1.1875c.015625-.03125.015625-.09375.015625-.109375 0-.078125-.0625-.078125-.1875-.078125h-3.78125c-.15625 0-.171875 0-.21875.140625l-.40625 1.1875c0 .015625-.046875.109375-.046875.125 0 .046875.046875.078125.09375.078125.0625 0 .0625-.03125.109375-.140625.375-1.0625.546875-1.1875 1.5625-1.1875h.265625c.1875 0 .1875.03125.1875.09375 0 .03125-.03125.109375-.03125.140625l-.90625 3.640625c-.0625.25-.09375.3125-.8125.3125-.25 0-.296875 0-.296875.140625 0 .078125.078125.078125.125.078125.1875 0 .375-.015625.5625-.015625h.578125.5625c.1875 0 .40625.015625.59375.015625.0625 0 .140625 0 .140625-.140625 0-.078125-.046875-.078125-.234375-.078125-.15625 0-.25 0-.421875 0-.203125-.03125-.265625-.046875-.265625-.15625 0 0 0-.046875.03125-.140625zm0 0"/></symbol><symbol id="Q" overflow="visible"><path d="m.953125-1.546875c.234375.09375.4375.09375.59375.09375.171875 0 .546875 0 .546875-.203125 0-.171875-.234375-.1875-.5-.1875-.140625 0-.375.015625-.625.125-.15625-.078125-.28125-.203125-.28125-.390625 0-.421875.671875-.65625 1.28125-.65625.109375 0 .359375 0 .640625.1875.0625.046875.078125.0625.125.0625.09375 0 .1875-.09375.1875-.1875 0-.125-.421875-.390625-.875-.390625-.78125 0-1.515625.46875-1.515625.984375 0 .296875.234375.453125.265625.484375-.40625.21875-.625.609375-.625.921875 0 .4375.390625.859375 1.109375.859375.90625 0 1.28125-.609375 1.28125-.703125 0-.046875-.03125-.078125-.0625-.078125-.046875 0-.0625.03125-.078125.046875-.09375.15625-.25.421875-1.078125.421875-.40625 0-.984375-.109375-.984375-.59375 0-.234375.1875-.59375.59375-.796875zm.234375-.09375c.15625-.046875.296875-.0625.40625-.0625.171875 0 .203125.015625.328125.046875-.109375.046875-.109375.0625-.375.0625-.15625 0-.234375 0-.359375-.046875zm0 0"/></symbol><symbol id="R" overflow="visible"><path d="m3.109375-1.546875c.109375-.0625.109375-.109375.109375-.15625s0-.09375-.109375-.15625l-2.65625-1.53125c-.09375-.046875-.125-.046875-.140625-.046875-.140625 0-.140625.140625-.140625.25v2.96875c0 .109375 0 .25.140625.25.015625 0 .046875 0 .125-.046875zm-.296875-.15625-2.359375 1.359375v-2.71875zm0 0"/></symbol><symbol id="S" overflow="visible"><path d="m1.28125-1.578125c.1875 0 .6875-.015625 1.03125-.15625.484375-.203125.515625-.609375.515625-.703125 0-.296875-.265625-.578125-.734375-.578125-.75 0-1.78125.671875-1.78125 1.859375 0 .6875.40625 1.234375 1.078125 1.234375.96875 0 1.53125-.71875 1.53125-.8125 0-.03125-.03125-.078125-.078125-.078125-.03125 0-.046875.015625-.078125.0625-.546875.671875-1.28125.671875-1.375.671875-.53125 0-.59375-.5625-.59375-.78125 0-.09375.015625-.296875.109375-.71875zm-.328125-.140625c.265625-1.046875.96875-1.140625 1.140625-1.140625.328125 0 .515625.203125.515625.421875 0 .71875-1.09375.71875-1.375.71875zm0 0"/></symbol><symbol id="T" overflow="visible"><path d="m3.140625-4.6875c-.125 0-.21875 0-.21875.125 0 .078125.0625.109375.125.109375.234375.03125.234375.3125.234375.328125 0 .203125-.078125.296875-.265625.546875-.125.171875-.28125.375-.390625.5-.671875-1.03125-.703125-1.15625-.75-1.296875.109375-.0625.25-.078125.328125-.078125.046875 0 .171875 0 .171875-.109375 0-.125-.109375-.125-.234375-.125h-1.75c-.125 0-.234375 0-.234375.125 0 0 0 .09375.109375.109375.203125.03125.234375.0625.34375.21875.390625.484375 1.359375 1.953125 1.5 2.171875l-.734375.84375c-.515625.5625-.828125.921875-1.09375.984375-.078125.015625-.15625.015625-.15625.109375 0 .125.109375.125.234375.125h1.171875c.125 0 .234375 0 .234375-.125 0-.09375-.109375-.109375-.15625-.109375-.25-.046875-.25-.34375-.25-.34375 0-.1875.109375-.3125.140625-.359375.25-.296875.515625-.59375.78125-.890625.75 1.15625.8125 1.328125.859375 1.5-.109375.078125-.28125.09375-.421875.09375-.0625 0-.171875 0-.171875.109375 0 .125.109375.125.21875.125h1.828125c.125 0 .234375 0 .234375-.125 0-.0625-.0625-.09375-.109375-.109375-.125-.03125-.15625-.046875-.171875-.0625-.09375-.09375-.53125-.71875-.8125-1.140625l-.9375-1.375c.015625-.015625.09375-.109375.1875-.234375l.328125-.453125c.34375-.453125.703125-.90625 1.265625-.953125.0625 0 .15625-.015625.15625-.109375 0-.125-.09375-.125-.21875-.125zm.75.234375c-.125.09375-.234375.203125-.359375.328125 0-.109375-.03125-.234375-.09375-.328125zm-2.78125 3.875c0 .015625.015625.078125.015625.09375.03125.140625.0625.21875.09375.25h-.453125zm.515625-3.875c0 .140625 0 .234375.421875.921875.25.390625 1.75 2.671875 2.234375 3.296875h-.90625c.015625-.03125.015625-.046875.015625-.078125 0-.109375-.078125-.296875-.34375-.75-.28125-.453125-1.75-2.6875-2.296875-3.390625zm0 0"/></symbol><symbol id="U" overflow="visible"><path d="m1.828125-2.15625h.25l1.03125 1.59375c.0625.109375.234375.375.3125.484375.046875.078125.0625.078125.21875.078125h.9375c.125 0 .234375 0 .234375-.125 0-.046875-.046875-.09375-.109375-.109375-.25-.0625-.578125-.515625-.75-.734375-.046875-.0625-.390625-.515625-.84375-1.25.609375-.109375 1.203125-.375 1.203125-1.1875 0-.953125-1.015625-1.28125-1.828125-1.28125h-2.140625c-.125 0-.234375 0-.234375.125 0 .109375.125.109375.1875.109375.390625 0 .421875.046875.421875.390625v3.4375c0 .34375-.03125.390625-.421875.390625-.0625 0-.1875 0-.1875.109375 0 .125.109375.125.234375.125h1.875c.125 0 .21875 0 .21875-.125 0-.109375-.109375-.109375-.1875-.109375-.390625 0-.421875-.0625-.421875-.390625zm1.328125-.328125c.1875-.25.203125-.609375.203125-.921875 0-.328125-.03125-.6875-.25-.96875.28125.0625.953125.28125.953125.96875 0 .4375-.203125.796875-.90625.921875zm-1.328125-1.59375c0-.140625 0-.375.4375-.375.578125 0 .859375.25.859375 1.046875 0 .890625-.203125 1.015625-1.296875 1.015625zm-.921875 3.84375c.046875-.125.046875-.3125.046875-.375v-3.46875c0-.0625 0-.25-.046875-.375h.78125c-.09375.109375-.09375.25-.09375.359375v3.484375c0 .0625 0 .25.0625.375zm1.453125-1.921875h.125c.109375 0 .265625-.015625.359375-.03125.109375.15625.84375 1.375 1.40625 1.953125h-.65625zm0 0"/></symbol><symbol id="V" overflow="visible"><path d="m.640625-1.5625c.046875 0 .203125 0 .203125-.140625s-.15625-.140625-.203125-.140625v-.890625c0-.109375 0-.234375-.125-.234375-.140625 0-.140625.125-.140625.234375v2.0625c0 .109375 0 .234375.140625.234375.125 0 .125-.125.125-.234375zm0 0"/></symbol><symbol id="W" overflow="visible"><path d="m5.6875-1.5625c-.375.28125-.5625.5625-.625.65625-.296875.46875-.359375.890625-.359375.90625 0 .078125.09375.078125.140625.078125.109375 0 .125-.015625.15625-.140625.15625-.671875.546875-1.234375 1.328125-1.546875.078125-.03125.09375-.046875.09375-.09375s-.03125-.0625-.046875-.078125c-.3125-.109375-1.125-.453125-1.390625-1.59375-.015625-.078125-.03125-.109375-.140625-.109375-.046875 0-.140625 0-.140625.078125 0 .015625.0625.453125.359375.90625.125.203125.328125.4375.625.65625h-5.0625c-.125 0-.25 0-.25.140625s.125.140625.25.140625zm0 0"/></symbol><symbol id="X" overflow="visible"><path d="m6.1875-1.5625c.125 0 .25 0 .25-.140625s-.125-.140625-.25-.140625h-5.0625c.375-.28125.5625-.5625.609375-.65625.3125-.46875.359375-.890625.359375-.90625 0-.078125-.078125-.078125-.125-.078125-.125 0-.125.015625-.15625.140625-.15625.671875-.5625 1.234375-1.328125 1.546875-.078125.03125-.109375.046875-.109375.09375s.046875.0625.109375.09375c.703125.28125 1.171875.8125 1.328125 1.578125.03125.078125.03125.109375.15625.109375.046875 0 .125 0 .125-.078125 0-.015625-.0625-.453125-.34375-.90625-.140625-.203125-.328125-.4375-.625-.65625zm0 0"/></symbol><symbol id="Y" overflow="visible"><path d="m4.15625-2.1875c0-.21875-.015625-.234375-.234375-.234375h-3.3125c-.109375 0-.234375 0-.234375.140625 0 .125.125.125.234375.125h3.28125v1.296875c0 .125 0 .25.140625.25.125 0 .125-.125.125-.25zm0 0"/></symbol><symbol id="Z" overflow="visible"><path d="m4.59375-4.046875c.078125-.03125.140625-.0625.140625-.15625 0-.0625-.0625-.125-.140625-.125-.03125 0-.09375.015625-.125.03125l-3.765625 1.78125c-.125.0625-.140625.109375-.140625.15625 0 .0625.046875.109375.140625.15625l3.765625 1.765625c.09375.046875.109375.046875.125.046875.078125 0 .140625-.0625.140625-.140625 0-.046875-.03125-.09375-.15625-.15625l-3.5625-1.671875zm-.109375 4.984375c.125 0 .25 0 .25-.140625s-.15625-.140625-.25-.140625h-3.671875c-.109375 0-.25 0-.25.140625s.125.140625.234375.140625zm0 0"/></symbol><symbol id="aa" overflow="visible"><path d="m2.09375-1.828125c-.171875.03125-.25.171875-.25.265625 0 .140625.09375.1875.1875.1875.109375 0 .265625-.078125.265625-.3125 0-.328125-.359375-.421875-.625-.421875-.71875 0-1.375.671875-1.375 1.328125 0 .40625.28125.828125.875.828125.8125 0 1.1875-.46875 1.1875-.53125 0-.03125-.046875-.09375-.078125-.09375s-.046875.015625-.078125.046875c-.375.453125-.9375.453125-1.015625.453125-.34375 0-.5-.234375-.5-.53125 0-.140625.0625-.65625.3125-.984375.1875-.234375.4375-.375.671875-.375.0625 0 .296875.015625.421875.140625zm0 0"/></symbol><symbol id="ab" overflow="visible"><path d="m.578125-.296875c-.015625.0625-.046875.171875-.046875.1875 0 .109375.09375.15625.171875.15625s.15625-.0625.171875-.109375c.03125-.03125.0625-.1875.09375-.296875.015625-.078125.078125-.296875.109375-.421875.015625-.109375.046875-.203125.078125-.3125.046875-.203125.0625-.234375.203125-.4375.125-.1875.34375-.4375.703125-.4375.28125 0 .28125.25.28125.328125 0 .296875-.203125.828125-.28125 1.015625-.046875.140625-.0625.1875-.0625.265625 0 .25.203125.40625.453125.40625.46875 0 .6875-.65625.6875-.734375 0-.0625-.0625-.0625-.078125-.0625-.0625 0-.078125.03125-.09375.09375-.109375.375-.3125.578125-.5.578125-.109375 0-.125-.078125-.125-.171875 0-.109375.03125-.171875.109375-.390625.0625-.140625.25-.65625.25-.921875 0-.453125-.359375-.546875-.609375-.546875-.40625 0-.671875.25-.8125.4375-.03125-.328125-.3125-.4375-.515625-.4375s-.3125.15625-.375.265625c-.09375.171875-.171875.453125-.171875.46875 0 .0625.078125.0625.09375.0625.0625 0 .0625-.015625.09375-.140625.078125-.28125.171875-.515625.34375-.515625.125 0 .171875.109375.171875.234375 0 .09375-.046875.265625-.078125.390625-.03125.140625-.09375.328125-.109375.4375zm0 0"/></symbol><symbol id="ac" overflow="visible"><path d="m.75-2.734375c-.015625-.203125-.15625-.203125-.28125-.203125h-.21875c-.09375 0-.28125 0-.28125.203125 0 .21875.140625.21875.390625.21875v2.09375c-.25 0-.390625 0-.390625.21875 0 .203125.1875.203125.28125.203125h.609375c.09375 0 .265625 0 .265625-.203125 0-.21875-.140625-.21875-.375-.21875v-1.21875c0-.59375.265625-.921875.546875-.921875.15625 0 .25.109375.25.5625v1.578125c-.125 0-.296875 0-.296875.21875 0 .203125.1875.203125.28125.203125h.515625c.09375 0 .28125 0 .28125-.203125 0-.21875-.140625-.21875-.390625-.21875v-1.21875c0-.59375.28125-.921875.5625-.921875.15625 0 .25.109375.25.5625v1.578125c-.140625 0-.296875 0-.296875.21875 0 .203125.171875.203125.265625.203125h.515625c.109375 0 .28125 0 .28125-.203125 0-.21875-.140625-.21875-.390625-.21875v-1.640625c0-.140625 0-.921875-.609375-.921875-.203125 0-.484375.09375-.671875.359375-.09375-.234375-.296875-.359375-.515625-.359375s-.421875.109375-.578125.25zm0 0"/></symbol><symbol id="ad" overflow="visible"><path d="m3.1875-1.4688c0-.85938-.64062-1.5312-1.4062-1.5312s-1.3906.67188-1.3906 1.5312.64062 1.5156 1.3906 1.5156 1.4062-.65625 1.4062-1.5156zm-1.4062 1.0938c-.5 0-.92188-.51562-.92188-1.1406s.4375-1.0625.92188-1.0625c.5 0 .9375.4375.9375 1.0625s-.4375 1.1406-.9375 1.1406z"/></symbol><symbol id="ae" overflow="visible"><path d="m2.921875-2.515625h.21875c.09375 0 .265625 0 .265625-.203125 0-.21875-.15625-.21875-.265625-.21875h-.796875c-.109375 0-.28125 0-.28125.203125 0 .21875.171875.21875.28125.21875h.1875l-.75 2.1875-.734375-2.1875h.1875c.09375 0 .265625 0 .265625-.203125 0-.21875-.15625-.21875-.265625-.21875h-.796875c-.109375 0-.28125 0-.28125.21875 0 .203125.171875.203125.28125.203125h.203125l.78125 2.3125c.078125.234375.21875.234375.359375.234375s.296875 0 .359375-.234375zm0 0"/></symbol><symbol id="af" overflow="visible"><path d="m2.890625-1.296875c.140625 0 .265625 0 .265625-.25 0-.78125-.4375-1.453125-1.3125-1.453125-.8125 0-1.46875.6875-1.46875 1.515625 0 .84375.6875 1.53125 1.5625 1.53125.90625 0 1.21875-.625 1.21875-.796875 0-.1875-.1875-.1875-.234375-.1875-.125 0-.171875.03125-.21875.15625-.15625.34375-.515625.40625-.71875.40625-.5 0-1.015625-.34375-1.125-.921875zm-2.03125-.40625c.09375-.5.5-.875.984375-.875.34375 0 .765625.171875.828125.875zm0 0"/></symbol><symbol id="ag" overflow="visible"><path d="m2.453125-1.515625c0-.53125-.0625-.90625-.28125-1.234375-.140625-.21875-.4375-.421875-.8125-.421875-1.109375 0-1.109375 1.3125-1.109375 1.65625s0 1.609375 1.109375 1.609375c1.09375 0 1.09375-1.265625 1.09375-1.609375zm-1.09375 1.484375c-.21875 0-.515625-.140625-.609375-.53125-.0625-.28125-.0625-.671875-.0625-1.015625 0-.359375 0-.71875.0625-.96875.109375-.390625.40625-.484375.609375-.484375.25 0 .5.15625.578125.4375.078125.25.09375.59375.09375 1.015625 0 .34375 0 .703125-.0625 1-.09375.4375-.421875.546875-.609375.546875zm0 0"/></symbol><symbol id="ah" overflow="visible"><path d="m1.984375-2.03125c.015625-.109375.015625-.109375.171875-.109375h.359375c.375 0 .421875.09375.421875.3125 0 .015625 0 .09375-.015625.25v.03125c0 .03125.015625.0625.0625.0625.0625 0 .078125-.03125.078125-.09375l.09375-.609375c0-.03125 0-.046875 0-.046875 0-.0625-.046875-.0625-.109375-.0625h-2.390625c-.09375 0-.09375 0-.125.0625l-.21875.640625s-.015625.046875-.015625.046875c0 .03125.015625.0625.0625.0625.0625 0 .0625-.015625.09375-.09375.15625-.40625.25-.5625.71875-.5625h.359375.109375v.015625l-.453125 1.828125c-.03125.109375-.03125.140625-.390625.140625h-.078125c-.078125 0-.078125 0-.09375.015625s-.03125.0625-.03125.078125c0 .03125.015625.0625.078125.0625.09375 0 .203125-.015625.3125-.015625h.3125.328125c.109375 0 .21875.015625.3125.015625.03125 0 .09375 0 .09375-.09375 0-.0625-.0625-.0625-.109375-.0625h-.078125c-.09375 0-.1875 0-.265625-.015625-.03125 0-.046875 0-.046875-.046875 0-.015625 0-.015625.015625-.0625zm0 0"/></symbol><path d="m2.9375-2.375c.03125-.234375.03125-.46875.03125-.703125 0-.078125-.03125-.375-.046875-.40625.25-.421875.515625-.796875.921875-.796875.5 0 .359375.875.515625 1.015625.0625.078125.15625.109375.25.109375l-.890625.515625c-.296875.046875-.625.1875-.78125.265625zm-.09375-1.359375c-.15625-.4375-.5625-.9375-1.046875-.9375-.640625 0-1.09375.421875-1.25.578125-.1875.203125-.34375.40625-.34375.671875 0 .359375.28125.609375.484375.90625.046875.0625.09375.125.09375.1875 0 .21875-.234375.4375-.4375.546875l.09375.078125c.40625-.203125.84375-.484375.84375-.90625 0-.390625-.609375-.765625-.609375-1.046875 0-.40625.28125-.59375.65625-.59375.328125 0 .640625.234375.8125.5.265625.390625.265625.921875.265625 1.25 0 .890625-.0625 1.671875-.78125 2.171875-.171875-.171875-.40625-.390625-.640625-.390625-.34375 0-.640625.453125-.796875.71875l.078125.109375c.109375-.15625.28125-.28125.484375-.28125.15625 0 .40625.203125.5625.359375.375-.3125.765625-.6875 1.140625-1 .265625-.40625.390625-.875.46875-1.390625.171875-.0625.46875-.140625.625-.140625.1875 0 .421875.109375.5625.25.078125.078125.203125.203125.203125.875 0 .203125-.015625.390625-.03125.609375l.4375.796875.90625-.6875v-.109375c-.140625.046875-.359375.140625-.40625.140625-.15625 0-.28125-.375-.359375-.578125-.0625-.1875-.078125-.890625-.109375-1.34375-.171875-.15625-.34375-.25-.6875-.25.46875-.375 1-.625 1.421875-.796875l-.046875-.078125c-.078125 0-.171875.015625-.25.015625-.453125 0-.34375-.34375-.359375-.53125-.03125-.34375-.171875-.640625-.546875-.640625-.609375 0-1.046875.453125-1.40625.90625zm0 0" transform="translate(29.012 74.962)"/><path d="m2.03125-1.078125c0-.25 0-1.1875-.875-1.1875-.890625 0-.890625.9375-.890625 1.1875 0 .234375 0 1.15625.890625 1.15625.875 0 .875-.921875.875-1.15625zm-.875 1.046875c-.125 0-.40625-.046875-.5-.390625-.046875-.1875-.046875-.421875-.046875-.703125 0-.25 0-.484375.046875-.671875.09375-.296875.34375-.34375.5-.34375.25 0 .421875.125.5.359375.046875.171875.046875.453125.046875.65625 0 .234375 0 .5-.0625.703125-.078125.328125-.359375.390625-.484375.390625zm0 0" transform="translate(34.681 76.6)"/><path d="m1.34375-2.15625c0-.109375 0-.109375-.109375-.109375-.25.21875-.625.21875-.6875.21875h-.0625v.15625h.0625c.078125 0 .296875-.015625.484375-.09375v1.6875c0 .109375 0 .140625-.359375.140625h-.15625v.15625c.171875-.015625.484375-.015625.671875-.015625.203125 0 .5 0 .6875.015625v-.15625h-.171875c-.359375 0-.359375-.03125-.359375-.140625zm0 0" transform="translate(34.619 72.539)"/><use height="100%" transform="translate(-76.343 -80.622)" width="100%" x="149.99454" xlink:href="#U" y="86.793999"/><g transform="translate(-225.09 -56.039)"><use height="100%" width="100%" x="225.841" xlink:href="#a" y="62.147999"/><use height="100%" width="100%" x="230.196" xlink:href="#b" y="62.147999"/><use height="100%" width="100%" x="233.42424" xlink:href="#c" y="62.147999"/><use height="100%" width="100%" x="237.56169" xlink:href="#d" y="62.147999"/><use height="100%" width="100%" x="241.04556" xlink:href="#e" y="62.147999"/><use height="100%" width="100%" x="244.63849" xlink:href="#f" y="62.147999"/><use height="100%" width="100%" x="248.99348" xlink:href="#g" y="62.147999"/><use height="100%" width="100%" x="253.34848" xlink:href="#b" y="62.147999"/><use height="100%" width="100%" x="256.57672" xlink:href="#e" y="62.147999"/><use height="100%" width="100%" x="262.4418" xlink:href="#K" y="62.147999"/><use height="100%" width="100%" x="266.229" xlink:href="#J" y="62.147999"/><use height="100%" width="100%" x="270.77267" xlink:href="#o" y="62.147999"/><use height="100%" width="100%" x="273.42383" xlink:href="#L" y="62.147999"/><use height="100%" width="100%" x="279.38788" xlink:href="#q" y="62.147999"/><use height="100%" width="100%" x="283.17499" xlink:href="#T" y="62.147999"/><use height="100%" width="100%" x="290.00977" xlink:href="#V" y="62.147999"/><use height="100%" width="100%" x="290.00977" xlink:href="#W" y="62.147999"/><use height="100%" width="100%" x="303.66095" xlink:href="#G" y="62.147999"/><use height="100%" width="100%" x="307.82697" xlink:href="#P" y="62.147999"/><use height="100%" width="100%" x="311.81018" xlink:href="#ag" y="63.170658"/><use height="100%" width="100%" x="314.86798" xlink:href="#G" y="62.147999"/><use height="100%" width="100%" x="319.0332" xlink:href="#Q" y="62.147999"/><use height="100%" width="100%" x="322.21213" xlink:href="#p" y="62.147999"/><use height="100%" width="100%" x="236.06602" xlink:href="#r" y="70.358162"/><use height="100%" width="100%" x="238.73602" xlink:href="#s" y="70.358162"/><use height="100%" width="100%" x="242.14423" xlink:href="#t" y="70.358162"/><use height="100%" width="100%" x="245.93141" xlink:href="#u" y="70.358162"/><use height="100%" width="100%" x="249.71861" xlink:href="#v" y="70.358162"/><use height="100%" width="100%" x="253.12683" xlink:href="#w" y="70.358162"/><use height="100%" width="100%" x="258.80695" xlink:href="#x" y="70.358162"/><use height="100%" width="100%" x="260.70053" xlink:href="#y" y="70.358162"/><use height="100%" width="100%" x="266.56799" xlink:href="#z" y="70.358162"/><use height="100%" width="100%" x="269.25638" xlink:href="#s" y="70.358162"/><use height="100%" width="100%" x="272.66458" xlink:href="#w" y="70.358162"/><use height="100%" width="100%" x="278.34467" xlink:href="#A" y="70.358162"/><use height="100%" width="100%" x="282.1319" xlink:href="#x" y="70.358162"/><use height="100%" width="100%" x="284.02551" xlink:href="#B" y="70.358162"/><use height="100%" width="100%" x="289.32892" xlink:href="#M" y="70.358162"/><use height="100%" width="100%" x="293.22461" xlink:href="#aa" y="71.38121"/><use height="100%" width="100%" x="298.27344" xlink:href="#C" y="70.358162"/><use height="100%" width="100%" x="300.35657" xlink:href="#r" y="70.358162"/><use height="100%" width="100%" x="303.02652" xlink:href="#v" y="70.358162"/><use height="100%" width="100%" x="306.43475" xlink:href="#w" y="70.358162"/><use height="100%" width="100%" x="314.38715" xlink:href="#T" y="70.358162"/><use height="100%" width="100%" x="319.32816" xlink:href="#D" y="70.358162"/><use height="100%" width="100%" x="325.76605" xlink:href="#N" y="70.358162"/><use height="100%" width="100%" x="329.10825" xlink:href="#aa" y="71.38121"/><use height="100%" width="100%" x="333.77856" xlink:href="#X" y="70.358162"/><use height="100%" width="100%" x="342.48834" xlink:href="#L" y="70.358162"/><use height="100%" width="100%" x="346.55942" xlink:href="#o" y="70.358162"/><use height="100%" width="100%" x="349.21021" xlink:href="#M" y="70.358162"/><use height="100%" width="100%" x="353.1059" xlink:href="#aa" y="71.38121"/><use height="100%" width="100%" x="355.88324" xlink:href="#p" y="70.358162"/><use height="100%" width="100%" x="358.53415" xlink:href="#D" y="70.358162"/><use height="100%" width="100%" x="236.06548" xlink:href="#h" y="94.989708"/><use height="100%" width="100%" x="241.72719" xlink:href="#i" y="94.989708"/><use height="100%" width="100%" x="246.08218" xlink:href="#j" y="94.989708"/><use height="100%" width="100%" x="248.25934" xlink:href="#k" y="94.989708"/><use height="100%" width="100%" x="250.43651" xlink:href="#e" y="94.989708"/><use height="100%" width="100%" x="256.30136" xlink:href="#Y" y="94.989708"/><use height="100%" width="100%" x="263.11777" xlink:href="#E" y="94.989708"/><use height="100%" width="100%" x="265.76868" xlink:href="#B" y="94.989708"/><use height="100%" width="100%" x="268.79788" xlink:href="#r" y="94.989708"/><use height="100%" width="100%" x="271.46786" xlink:href="#w" y="94.989708"/><use height="100%" width="100%" x="277.14798" xlink:href="#F" y="94.989708"/><use height="100%" width="100%" x="279.0416" xlink:href="#t" y="94.989708"/><use height="100%" width="100%" x="282.8288" xlink:href="#s" y="94.989708"/><use height="100%" width="100%" x="286.237" xlink:href="#E" y="94.989708"/><use height="100%" width="100%" x="288.88788" xlink:href="#B" y="94.989708"/><use height="100%" width="100%" x="294.18967" xlink:href="#f" y="94.989708"/><use height="100%" width="100%" x="298.54468" xlink:href="#c" y="94.989708"/><use height="100%" width="100%" x="246.29008" xlink:href="#M" y="103.20026"/><use height="100%" width="100%" x="250.18578" xlink:href="#ab" y="104.22292"/><use height="100%" width="100%" x="255.78969" xlink:href="#X" y="103.20026"/><use height="100%" width="100%" x="264.49945" xlink:href="#ac" y="103.20026"/><use height="100%" width="100%" x="268.07806" xlink:href="#ad" y="103.20026"/><use height="100%" width="100%" x="271.65668" xlink:href="#ae" y="103.20026"/><use height="100%" width="100%" x="275.23532" xlink:href="#af" y="103.20026"/><use height="100%" width="100%" x="278.81427" xlink:href="#o" y="103.20026"/><use height="100%" width="100%" x="281.46466" xlink:href="#M" y="103.20026"/><use height="100%" width="100%" x="285.36075" xlink:href="#aa" y="104.22292"/><use height="100%" width="100%" x="288.1369" xlink:href="#p" y="103.20026"/><use height="100%" width="100%" x="290.78781" xlink:href="#D" y="103.20026"/><use height="100%" width="100%" x="297.22598" xlink:href="#N" y="103.20026"/><use height="100%" width="100%" x="300.56778" xlink:href="#ab" y="104.22292"/><use height="100%" width="100%" x="306.17206" xlink:href="#X" y="103.20026"/><use height="100%" width="100%" x="314.88184" xlink:href="#L" y="103.20026"/><use height="100%" width="100%" x="318.95294" xlink:href="#o" y="103.20026"/><use height="100%" width="100%" x="321.60333" xlink:href="#M" y="103.20026"/><use height="100%" width="100%" x="325.49942" xlink:href="#ab" y="104.22292"/><use height="100%" width="100%" x="329.20956" xlink:href="#p" y="103.20026"/><use height="100%" width="100%" x="331.86047" xlink:href="#D" y="103.20026"/><use height="100%" width="100%" x="246.29008" xlink:href="#P" y="119.62097"/><use height="100%" width="100%" x="253.11353" xlink:href="#X" y="119.62097"/><use height="100%" width="100%" x="261.82367" xlink:href="#P" y="119.62097"/><use height="100%" width="100%" x="265.80688" xlink:href="#ag" y="120.64402"/><use height="100%" width="100%" x="299.4682" xlink:href="#D" y="119.62097"/><use height="100%" width="100%" x="246.2901" xlink:href="#j" y="131.04167"/><use height="100%" width="100%" x="248.46727" xlink:href="#l" y="131.04167"/><use height="100%" width="100%" x="264.49518" xlink:href="#O" y="131.04167"/><use height="100%" width="100%" x="271.69205" xlink:href="#S" y="131.04167"/></g><g fill="#fd0000" stroke="#f00" stroke-linecap="round" stroke-linejoin="round" stroke-width=".5"><path d="m53.9035 67.06825c.03125-.09375.03125-.109375.03125-.15625 0-.125-.09375-.1875-.203125-.1875-.0625 0-.171875.04687-.234375.140625-.01563.03125-.07813.25-.09375.375-.046875.171875-.09375.359375-.140625.546875l-.3125 1.21875c-.01563.109375-.3125.578125-.765625.578125-.34375 0-.421875-.296875-.421875-.546875 0-.3125.109375-.734375.34375-1.34375.109375-.265625.140625-.34375.140625-.484375 0-.3125-.21875-.5625-.5625-.5625-.640625 0-.890625 1-.890625 1.046875 0 .07813.0625.07813.07813.07813.0625 0 .07813-.01563.109375-.125.1875-.640625.453125-.84375.6875-.84375.04687 0 .171875 0 .171875.21875 0 .171875-.07813.34375-.125.46875-.265625.734375-.390625 1.109375-.390625 1.4375 0 .609375.4375.8125.828125.8125.265625 0 .5-.125.6875-.3125-.07813.359375-.171875.6875-.4375 1.046875-.171875.234375-.4375.4375-.75.4375-.09375 0-.40625-.03125-.515625-.296875.109375 0 .203125 0 .296875-.07813.0625-.0625.125-.140625.125-.28125 0-.203125-.171875-.234375-.25-.234375-.15625 0-.375.109375-.375.4375 0 .34375.296875.59375.71875.59375.703125 0 1.40625-.609375 1.59375-1.390625zm0 0"/><path d="m56.02675 68.855875c-.171875.03125-.25.171875-.25.265625 0 .140625.09375.1875.1875.1875.109375 0 .265625-.07813.265625-.3125 0-.328125-.359375-.421875-.625-.421875-.71875 0-1.375.671875-1.375 1.328125 0 .40625.28125.828125.875.828125.8125 0 1.1875-.46875 1.1875-.53125 0-.03125-.04687-.09375-.07813-.09375-.03125 0-.04687.01563-.07813.04687-.375.453125-.9375.453125-1.015625.453125-.34375 0-.5-.234375-.5-.53125 0-.140625.0625-.65625.3125-.984375.1875-.234375.4375-.375.671875-.375.0625 0 .296875.01563.421875.140625zm0 0"/><path d="m59.71 68.912c.04687 0 .140625 0 .140625-.109375 0-.09375-.09375-.09375-.140625-.09375h-2.3125c-.04687 0-.140625 0-.140625.09375 0 .109375.09375.109375.140625.109375zm0 0"/><path d="m63.7155 67.06825c.03125-.09375.03125-.109375.03125-.15625 0-.125-.09375-.1875-.203125-.1875-.0625 0-.171875.04687-.234375.140625-.01563.03125-.07813.25-.09375.375-.046875.171875-.09375.359375-.140625.546875l-.3125 1.21875c-.01563.109375-.3125.578125-.765625.578125-.34375 0-.421875-.296875-.421875-.546875 0-.3125.109375-.734375.34375-1.34375.109375-.265625.140625-.34375.140625-.484375 0-.3125-.21875-.5625-.5625-.5625-.640625 0-.890625 1-.890625 1.046875 0 .07813.0625.07813.07813.07813.0625 0 .07813-.01563.109375-.125.1875-.640625.453125-.84375.6875-.84375.04687 0 .171875 0 .171875.21875 0 .171875-.07813.34375-.125.46875-.265625.734375-.390625 1.109375-.390625 1.4375 0 .609375.4375.8125.828125.8125.265625 0 .5-.125.6875-.3125-.07813.359375-.171875.6875-.4375 1.046875-.171875.234375-.4375.4375-.75.4375-.09375 0-.40625-.03125-.515625-.296875.109375 0 .203125 0 .296875-.07813.0625-.0625.125-.140625.125-.28125 0-.203125-.171875-.234375-.25-.234375-.15625 0-.375.109375-.375.4375 0 .34375.296875.59375.71875.59375.703125 0 1.40625-.609375 1.59375-1.390625zm0 0"/><path d="m64.322125 70.387125c-.01563.0625-.04687.171875-.04687.1875 0 .109375.09375.15625.171875.15625.07813 0 .15625-.0625.171875-.109375.03125-.03125.0625-.1875.09375-.296875.01563-.07813.07813-.296875.109375-.421875.01563-.109375.04687-.203125.07813-.3125.04687-.203125.0625-.234375.203125-.4375.125-.1875.34375-.4375.703125-.4375.28125 0 .28125.25.28125.328125 0 .296875-.203125.828125-.28125 1.015625-.04687.140625-.0625.1875-.0625.265625 0 .25.203125.40625.453125.40625.46875 0 .6875-.65625.6875-.734375 0-.0625-.0625-.0625-.07813-.0625-.0625 0-.07813.03125-.09375.09375-.109375.375-.3125.578125-.5.578125-.109375 0-.125-.07813-.125-.171875 0-.109375.03125-.171875.109375-.390625.0625-.140625.25-.65625.25-.921875 0-.453125-.359375-.546875-.609375-.546875-.40625 0-.671875.25-.8125.4375-.03125-.328125-.3125-.4375-.515625-.4375s-.3125.15625-.375.265625c-.09375.171875-.171875.453125-.171875.46875 0 .0625.07813.0625.09375.0625.0625 0 .0625-.01563.09375-.140625.07813-.28125.171875-.515625.34375-.515625.125 0 .171875.109375.171875.234375 0 .09375-.04687.265625-.07813.390625-.03125.140625-.09375.328125-.109375.4375zm0 0"/></g><path d="m50.593 71.336h16.863" fill="none" stroke="#000" stroke-miterlimit="10" stroke-width=".23263"/><g transform="translate(-225.09 -56.039)"><use height="100%" width="100%" x="282.39999" xlink:href="#ah" y="130.21001"/><use height="100%" width="100%" x="295.97729" xlink:href="#m" y="131.04124"/><use height="100%" width="100%" x="299.0256" xlink:href="#i" y="131.04124"/><use height="100%" width="100%" x="303.38062" xlink:href="#e" y="131.04124"/><use height="100%" width="100%" x="306.97354" xlink:href="#n" y="131.04124"/><g fill="#505050"><use height="100%" width="100%" x="318.2511" xlink:href="#R" y="131.04124"/><use height="100%" width="100%" x="323.93158" xlink:href="#s" y="131.04124"/><use height="100%" width="100%" x="327.33978" xlink:href="#x" y="131.04124"/><use height="100%" width="100%" x="329.2334" xlink:href="#I" y="131.04124"/><use height="100%" width="100%" x="333.96518" xlink:href="#s" y="131.04124"/><use height="100%" width="100%" x="337.18939" xlink:href="#y" y="131.04124"/><use height="100%" width="100%" x="340.7804" xlink:href="#z" y="131.04124"/><use height="100%" width="100%" x="345.74561" xlink:href="#E" y="131.04124"/><use height="100%" width="100%" x="348.39651" xlink:href="#r" y="131.04124"/><use height="100%" width="100%" x="351.06653" xlink:href="#H" y="131.04124"/><use height="100%" width="100%" x="354.8537" xlink:href="#B" y="131.04124"/><use height="100%" width="100%" x="360.15265" xlink:href="#F" y="131.04124"/><use height="100%" width="100%" x="362.04626" xlink:href="#C" y="131.04124"/><use height="100%" width="100%" x="366.40186" xlink:href="#N" y="131.04124"/><use height="100%" width="100%" x="369.74405" xlink:href="#ab" y="132.06352"/><use height="100%" width="100%" x="375.3476" xlink:href="#Z" y="131.04124"/><use height="100%" width="100%" x="382.54288" xlink:href="#N" y="131.04124"/><use height="100%" width="100%" x="385.88507" xlink:href="#aa" y="132.06352"/></g><use height="100%" width="100%" x="256.51508" xlink:href="#M" y="139.2518"/><use height="100%" width="100%" x="260.41077" xlink:href="#aa" y="140.27368"/><use height="100%" width="100%" x="265.08109" xlink:href="#X" y="139.2518"/><use height="100%" width="100%" x="273.79126" xlink:href="#M" y="139.2518"/><use height="100%" width="100%" x="277.68695" xlink:href="#ab" y="140.27368"/><use height="100%" width="100%" x="281.39749" xlink:href="#D" y="139.2518"/><use height="100%" width="100%" x="287.83499" xlink:href="#N" y="139.2518"/><use height="100%" width="100%" x="291.17679" xlink:href="#aa" y="140.27368"/><use height="100%" width="100%" x="295.84711" xlink:href="#X" y="139.2518"/><use height="100%" width="100%" x="304.55688" xlink:href="#N" y="139.2518"/><use height="100%" width="100%" x="307.89908" xlink:href="#ab" y="140.27368"/><use height="100%" width="100%" x="311.60962" xlink:href="#D" y="139.2518"/></g></svg>