<svg height="646pt" viewBox="0 0 970 646" width="970pt" xmlns="http://www.w3.org/2000/svg"><g transform="matrix(0 1.3333 1.3333 0 -72.502 -84.876)"><path d="m70.581 767.84v2.52h.96v-2.52"/><path d="m70.581 760.76v4.08h.96v-4.08z"/><path d="m70.581 753.8v3.96h.96v-3.96z"/><path d="m70.581 746.84v3.96h.96v-3.96z"/><path d="m70.581 739.76v4.08h.96v-4.08z"/><path d="m70.581 732.8v3.96h.96v-3.96z"/><path d="m70.581 725.84v3.96h.96v-3.96z"/><path d="m70.581 718.76v4.08h.96v-4.08z"/><path d="m70.581 711.8v3.96h.96v-3.96z"/><path d="m70.581 704.84v3.96h.96v-3.96z"/><path d="m70.581 697.76v4.08h.96v-4.08z"/><path d="m70.581 690.8v3.96h.96v-3.96z"/><path d="m70.581 683.84v3.96h.96v-3.96z"/><path d="m70.581 676.76v4.08h.96v-4.08z"/><path d="m70.581 669.8v3.96h.96v-3.96z"/><path d="m70.581 662.84v3.96h.96v-3.96z"/><path d="m70.581 655.76v4.08h.96v-4.08z"/><path d="m70.581 648.8v3.96h.96v-3.96z"/><path d="m70.581 641.84v3.96h.96v-3.96z"/><path d="m70.581 634.76v4.08h.96v-4.08z"/><path d="m70.581 627.8v3.96h.96v-3.96z"/><path d="m70.581 620.84v3.96h.96v-3.96z"/><path d="m70.581 613.76v4.08h.96v-4.08z"/><path d="m70.581 606.8v3.96h.96v-3.96z"/><path d="m70.581 599.84v3.96h.96v-3.96z"/><path d="m70.581 592.76v4.08h.96v-4.08z"/><path d="m70.581 585.8v3.96h.96v-3.96z"/><path d="m70.581 578.84v3.96h.96v-3.96z"/><path d="m70.581 571.76v4.08h.96v-4.08z"/><path d="m70.581 564.8v3.96h.96v-3.96z"/><path d="m70.581 557.84v3.96h.96v-3.96z"/><path d="m70.581 550.76v4.08h.96v-4.08z"/><path d="m70.581 543.8v3.96h.96v-3.96z"/><path d="m70.581 536.84v3.96h.96v-3.96z"/><path d="m70.581 529.76v4.08h.96v-4.08z"/><path d="m70.581 522.8v3.96h.96v-3.96z"/><path d="m70.581 515.84v3.96h.96v-3.96z"/><path d="m70.581 508.76v4.08h.96v-4.08z"/><path d="m70.581 501.8v3.96h.96v-3.96z"/><path d="m70.581 494.84v3.96h.96v-3.96z"/><path d="m70.581 487.76v4.08h.96v-4.08z"/><path d="m70.581 480.8v3.96h.96v-3.96z"/><path d="m70.581 473.84v3.96h.96v-3.96z"/><path d="m70.581 466.76v4.08h.96v-4.08z"/><path d="m70.581 459.8v3.96h.96v-3.96z"/><path d="m70.581 452.84v3.96h.96v-3.96z"/><path d="m70.581 445.76v4.08h.96v-4.08z"/><path d="m70.581 438.8v3.96h.96v-3.96z"/><path d="m70.581 431.84v3.96h.96v-3.96z"/><path d="m70.581 424.76v4.08h.96v-4.08z"/><path d="m70.581 417.8v3.96h.96v-3.96z"/><path d="m70.581 410.84v3.96h.96v-3.96z"/><path d="m70.581 403.76v4.08h.96v-4.08z"/><path d="m70.581 396.8v3.96h.96v-3.96z"/><path d="m70.581 389.84v3.96h.96v-3.96z"/><path d="m70.581 382.76v4.08h.96v-4.08z"/><path d="m70.581 375.8v3.96h.96v-3.96z"/><path d="m70.581 368.84v3.96h.96v-3.96z"/><path d="m70.581 361.76v4.08h.96v-4.08z"/><path d="m70.581 354.8v3.96h.96v-3.96z"/><path d="m70.581 347.84v3.96h.96v-3.96z"/><path d="m70.581 340.76v4.08h.96v-4.08z"/><path d="m70.581 333.8v3.96h.96v-3.96z"/><path d="m70.581 326.84v3.96h.96v-3.96z"/><path d="m70.581 319.76v4.08h.96v-4.08z"/><path d="m70.581 312.8v3.96h.96v-3.96z"/><path d="m70.581 305.84v3.96h.96v-3.96z"/><path d="m70.581 298.76v4.08h.96v-4.08z"/><path d="m70.581 291.8v3.96h.96v-3.96z"/><path d="m70.581 284.84v3.96h.96v-3.96z"/><path d="m70.581 277.76v4.08h.96v-4.08z"/><path d="m70.581 270.8v3.96h.96v-3.96z"/><path d="m70.581 263.84v3.96h.96v-3.96z"/><path d="m70.581 256.76v4.08h.96v-4.08z"/><path d="m70.581 249.8v3.96h.96v-3.96z"/><path d="m70.581 242.84v3.96h.96v-3.96z"/><path d="m70.581 235.76v4.08h.96v-4.08z"/><path d="m70.581 228.8v3.96h.96v-3.96z"/><path d="m70.581 221.84v3.96h.96v-3.96z"/><path d="m70.581 214.76v4.08h.96v-4.08z"/><path d="m70.581 207.8v3.96h.96v-3.96z"/><path d="m70.581 200.84v3.96h.96v-3.96z"/><path d="m70.581 193.76v4.08h.96v-4.08z"/><path d="m70.581 186.8v3.96h.96v-3.96z"/><path d="m70.581 179.84v3.96h.96v-3.96z"/><path d="m70.581 172.76v4.08h.96v-4.08z"/><path d="m70.581 165.8v3.96h.96v-3.96z"/><path d="m70.581 158.84v3.96h.96v-3.96z"/><path d="m70.581 151.76v4.08h.96v-4.08z"/><path d="m70.581 144.8v3.96h.96v-3.96z"/><path d="m70.581 137.84v3.96h.96v-3.96z"/><path d="m70.581 130.76v4.08h.96v-4.08z"/><path d="m70.581 123.8v3.96h.96v-3.96z"/><path d="m70.581 116.84v3.96h.96v-3.96z"/><path d="m70.581 109.76v4.08h.96v-4.08z"/><path d="m70.581 102.8v3.96h.96v-3.96z"/><path d="m70.581 95.844v3.96h.96v-3.96z"/><path d="m141.62 767.84v2.52h1.08v-2.52z"/><path d="m141.62 760.76v4.08h1.08v-4.08z"/><path d="m141.62 753.8v3.96h1.08v-3.96z"/><path d="m141.62 746.84v3.96h1.08v-3.96z"/><path d="m141.62 739.76v4.08h1.08v-4.08z"/><path d="m141.62 732.8v3.96h1.08v-3.96z"/><path d="m141.62 725.84v3.96h1.08v-3.96z"/><path d="m141.62 718.76v4.08h1.08v-4.08z"/><path d="m141.62 711.8v3.96h1.08v-3.96z"/><path d="m141.62 704.84v3.96h1.08v-3.96z"/><path d="m141.62 697.76v4.08h1.08v-4.08z"/><path d="m141.62 690.8v3.96h1.08v-3.96z"/><path d="m141.62 683.84v3.96h1.08v-3.96z"/><path d="m141.62 676.76v4.08h1.08v-4.08z"/><path d="m141.62 669.8v3.96h1.08v-3.96z"/><path d="m141.62 662.84v3.96h1.08v-3.96z"/><path d="m141.62 655.76v4.08h1.08v-4.08z"/><path d="m141.62 648.8v3.96h1.08v-3.96z"/><path d="m141.62 641.84v3.96h1.08v-3.96z"/><path d="m141.62 634.76v4.08h1.08v-4.08z"/><path d="m141.62 627.8v3.96h1.08v-3.96z"/><path d="m141.62 620.84v3.96h1.08v-3.96z"/><path d="m141.62 613.76v4.08h1.08v-4.08z"/><path d="m141.62 606.8v3.96h1.08v-3.96z"/><path d="m141.62 599.84v3.96h1.08v-3.96z"/><path d="m141.62 592.76v4.08h1.08v-4.08z"/><path d="m141.62 585.8v3.96h1.08v-3.96z"/><path d="m141.62 578.84v3.96h1.08v-3.96z"/><path d="m141.62 571.76v4.08h1.08v-4.08z"/><path d="m141.62 564.8v3.96h1.08v-3.96z"/><path d="m141.62 557.84v3.96h1.08v-3.96z"/><path d="m141.62 550.76v4.08h1.08v-4.08z"/><path d="m141.62 543.8v3.96h1.08v-3.96z"/><path d="m141.62 536.84v3.96h1.08v-3.96z"/><path d="m141.62 529.76v4.08h1.08v-4.08z"/><path d="m141.62 522.8v3.96h1.08v-3.96z"/><path d="m141.62 515.84v3.96h1.08v-3.96z"/><path d="m141.62 508.76v4.08h1.08v-4.08z"/><path d="m141.62 501.8v3.96h1.08v-3.96z"/><path d="m141.62 494.84v3.96h1.08v-3.96z"/><path d="m141.62 487.76v4.08h1.08v-4.08z"/><path d="m141.62 480.8v3.96h1.08v-3.96z"/><path d="m141.62 473.84v3.96h1.08v-3.96z"/><path d="m141.62 466.76v4.08h1.08v-4.08z"/><path d="m141.62 459.8v3.96h1.08v-3.96z"/><path d="m141.62 452.84v3.96h1.08v-3.96z"/><path d="m141.62 445.76v4.08h1.08v-4.08z"/><path d="m141.62 438.8v3.96h1.08v-3.96z"/><path d="m141.62 431.84v3.96h1.08v-3.96z"/><path d="m141.62 424.76v4.08h1.08v-4.08z"/><path d="m141.62 417.8v3.96h1.08v-3.96z"/><path d="m141.62 410.84v3.96h1.08v-3.96z"/><path d="m141.62 403.76v4.08h1.08v-4.08z"/><path d="m141.62 396.8v3.96h1.08v-3.96z"/><path d="m141.62 389.84v3.96h1.08v-3.96z"/><path d="m141.62 382.76v4.08h1.08v-4.08z"/><path d="m141.62 375.8v3.96h1.08v-3.96z"/><path d="m141.62 368.84v3.96h1.08v-3.96z"/><path d="m141.62 361.76v4.08h1.08v-4.08z"/><path d="m141.62 354.8v3.96h1.08v-3.96z"/><path d="m141.62 347.84v3.96h1.08v-3.96z"/><path d="m141.62 340.76v4.08h1.08v-4.08z"/><path d="m141.62 333.8v3.96h1.08v-3.96z"/><path d="m141.62 326.84v3.96h1.08v-3.96z"/><path d="m141.62 319.76v4.08h1.08v-4.08z"/><path d="m141.62 312.8v3.96h1.08v-3.96z"/><path d="m141.62 305.84v3.96h1.08v-3.96z"/><path d="m141.62 298.76v4.08h1.08v-4.08z"/><path d="m141.62 291.8v3.96h1.08v-3.96z"/><path d="m141.62 284.84v3.96h1.08v-3.96z"/><path d="m141.62 277.76v4.08h1.08v-4.08z"/><path d="m141.62 270.8v3.96h1.08v-3.96z"/><path d="m141.62 263.84v3.96h1.08v-3.96z"/><path d="m141.62 256.76v4.08h1.08v-4.08z"/><path d="m141.62 249.8v3.96h1.08v-3.96z"/><path d="m141.62 242.84v3.96h1.08v-3.96z"/><path d="m141.62 235.76v4.08h1.08v-4.08z"/><path d="m141.62 228.8v3.96h1.08v-3.96z"/><path d="m141.62 221.84v3.96h1.08v-3.96z"/><path d="m141.62 214.76v4.08h1.08v-4.08z"/><path d="m141.62 207.8v3.96h1.08v-3.96z"/><path d="m141.62 200.84v3.96h1.08v-3.96z"/><path d="m141.62 193.76v4.08h1.08v-4.08z"/><path d="m141.62 186.8v3.96h1.08v-3.96z"/><path d="m141.62 179.84v3.96h1.08v-3.96z"/><path d="m141.62 172.76v4.08h1.08v-4.08z"/><path d="m141.62 165.8v3.96h1.08v-3.96z"/><path d="m141.62 158.84v3.96h1.08v-3.96z"/><path d="m141.62 151.76v4.08h1.08v-4.08z"/><path d="m141.62 144.8v3.96h1.08v-3.96z"/><path d="m141.62 137.84v3.96h1.08v-3.96z"/><path d="m141.62 130.76v4.08h1.08v-4.08z"/><path d="m141.62 123.8v3.96h1.08v-3.96z"/><path d="m141.62 116.84v3.96h1.08v-3.96z"/><path d="m141.62 109.76v4.08h1.08v-4.08z"/><path d="m141.62 102.8v3.96h1.08v-3.96z"/><path d="m141.62 95.844v3.96h1.08v-3.96z"/><path d="m212.66 767.84v2.52h1.08v-2.52z"/><path d="m212.66 760.76v4.08h1.08v-4.08z"/><path d="m212.66 753.8v3.96h1.08v-3.96z"/><path d="m212.66 746.84v3.96h1.08v-3.96z"/><path d="m212.66 739.76v4.08h1.08v-4.08z"/><path d="m212.66 732.8v3.96h1.08v-3.96z"/><path d="m212.66 725.84v3.96h1.08v-3.96z"/><path d="m212.66 718.76v4.08h1.08v-4.08z"/><path d="m212.66 711.8v3.96h1.08v-3.96z"/><path d="m212.66 704.84v3.96h1.08v-3.96z"/><path d="m212.66 697.76v4.08h1.08v-4.08z"/><path d="m212.66 690.8v3.96h1.08v-3.96z"/><path d="m212.66 683.84v3.96h1.08v-3.96z"/><path d="m212.66 676.76v4.08h1.08v-4.08z"/><path d="m212.66 669.8v3.96h1.08v-3.96z"/><path d="m212.66 662.84v3.96h1.08v-3.96z"/><path d="m212.66 655.76v4.08h1.08v-4.08z"/><path d="m212.66 648.8v3.96h1.08v-3.96z"/><path d="m212.66 641.84v3.96h1.08v-3.96z"/><path d="m212.66 634.76v4.08h1.08v-4.08z"/><path d="m212.66 627.8v3.96h1.08v-3.96z"/><path d="m212.66 620.84v3.96h1.08v-3.96z"/><path d="m212.66 613.76v4.08h1.08v-4.08z"/><path d="m212.66 606.8v3.96h1.08v-3.96z"/><path d="m212.66 599.84v3.96h1.08v-3.96z"/><path d="m212.66 592.76v4.08h1.08v-4.08z"/><path d="m212.66 585.8v3.96h1.08v-3.96z"/><path d="m212.66 578.84v3.96h1.08v-3.96z"/><path d="m212.66 571.76v4.08h1.08v-4.08z"/><path d="m212.66 564.8v3.96h1.08v-3.96z"/><path d="m212.66 557.84v3.96h1.08v-3.96z"/><path d="m212.66 550.76v4.08h1.08v-4.08z"/><path d="m212.66 543.8v3.96h1.08v-3.96z"/><path d="m212.66 536.84v3.96h1.08v-3.96z"/><path d="m212.66 529.76v4.08h1.08v-4.08z"/><path d="m212.66 522.8v3.96h1.08v-3.96z"/><path d="m212.66 515.84v3.96h1.08v-3.96z"/><path d="m212.66 508.76v4.08h1.08v-4.08z"/><path d="m212.66 501.8v3.96h1.08v-3.96z"/><path d="m212.66 494.84v3.96h1.08v-3.96z"/><path d="m212.66 487.76v4.08h1.08v-4.08z"/><path d="m212.66 480.8v3.96h1.08v-3.96z"/><path d="m212.66 473.84v3.96h1.08v-3.96z"/><path d="m212.66 466.76v4.08h1.08v-4.08z"/><path d="m212.66 459.8v3.96h1.08v-3.96z"/><path d="m212.66 452.84v3.96h1.08v-3.96z"/><path d="m212.66 445.76v4.08h1.08v-4.08z"/><path d="m212.66 438.8v3.96h1.08v-3.96z"/><path d="m212.66 431.84v3.96h1.08v-3.96z"/><path d="m212.66 424.76v4.08h1.08v-4.08z"/><path d="m212.66 417.8v3.96h1.08v-3.96z"/><path d="m212.66 410.84v3.96h1.08v-3.96z"/><path d="m212.66 403.76v4.08h1.08v-4.08z"/><path d="m212.66 396.8v3.96h1.08v-3.96z"/><path d="m212.66 389.84v3.96h1.08v-3.96z"/><path d="m212.66 382.76v4.08h1.08v-4.08z"/><path d="m212.66 375.8v3.96h1.08v-3.96z"/><path d="m212.66 368.84v3.96h1.08v-3.96z"/><path d="m212.66 361.76v4.08h1.08v-4.08z"/><path d="m212.66 354.8v3.96h1.08v-3.96z"/><path d="m212.66 347.84v3.96h1.08v-3.96z"/><path d="m212.66 340.76v4.08h1.08v-4.08z"/><path d="m212.66 333.8v3.96h1.08v-3.96z"/><path d="m212.66 326.84v3.96h1.08v-3.96z"/><path d="m212.66 319.76v4.08h1.08v-4.08z"/><path d="m212.66 312.8v3.96h1.08v-3.96z"/><path d="m212.66 305.84v3.96h1.08v-3.96z"/><path d="m212.66 298.76v4.08h1.08v-4.08z"/><path d="m212.66 291.8v3.96h1.08v-3.96z"/><path d="m212.66 284.84v3.96h1.08v-3.96z"/><path d="m212.66 277.76v4.08h1.08v-4.08z"/><path d="m212.66 270.8v3.96h1.08v-3.96z"/><path d="m212.66 263.84v3.96h1.08v-3.96z"/><path d="m212.66 256.76v4.08h1.08v-4.08z"/><path d="m212.66 249.8v3.96h1.08v-3.96z"/><path d="m212.66 242.84v3.96h1.08v-3.96z"/><path d="m212.66 235.76v4.08h1.08v-4.08z"/><path d="m212.66 228.8v3.96h1.08v-3.96z"/><path d="m212.66 221.84v3.96h1.08v-3.96z"/><path d="m212.66 214.76v4.08h1.08v-4.08z"/><path d="m212.66 207.8v3.96h1.08v-3.96z"/><path d="m212.66 200.84v3.96h1.08v-3.96z"/><path d="m212.66 193.76v4.08h1.08v-4.08z"/><path d="m212.66 186.8v3.96h1.08v-3.96z"/><path d="m212.66 179.84v3.96h1.08v-3.96z"/><path d="m212.66 172.76v4.08h1.08v-4.08z"/><path d="m212.66 165.8v3.96h1.08v-3.96z"/><path d="m212.66 158.84v3.96h1.08v-3.96z"/><path d="m212.66 151.76v4.08h1.08v-4.08z"/><path d="m212.66 144.8v3.96h1.08v-3.96z"/><path d="m212.66 137.84v3.96h1.08v-3.96z"/><path d="m212.66 130.76v4.08h1.08v-4.08z"/><path d="m212.66 123.8v3.96h1.08v-3.96z"/><path d="m212.66 116.84v3.96h1.08v-3.96z"/><path d="m212.66 109.76v4.08h1.08v-4.08z"/><path d="m212.66 102.8v3.96h1.08v-3.96z"/><path d="m212.66 95.844v3.96h1.08v-3.96z"/><path d="m283.7 767.84v2.52h1.08v-2.52z"/><path d="m283.7 760.76v4.08h1.08v-4.08z"/><path d="m283.7 753.8v3.96h1.08v-3.96z"/><path d="m283.7 746.84v3.96h1.08v-3.96z"/><path d="m283.7 739.76v4.08h1.08v-4.08z"/><path d="m283.7 732.8v3.96h1.08v-3.96z"/><path d="m283.7 725.84v3.96h1.08v-3.96z"/><path d="m283.7 718.76v4.08h1.08v-4.08z"/><path d="m283.7 711.8v3.96h1.08v-3.96z"/><path d="m283.7 704.84v3.96h1.08v-3.96z"/><path d="m283.7 697.76v4.08h1.08v-4.08z"/><path d="m283.7 690.8v3.96h1.08v-3.96z"/><path d="m283.7 683.84v3.96h1.08v-3.96z"/><path d="m283.7 676.76v4.08h1.08v-4.08z"/><path d="m283.7 669.8v3.96h1.08v-3.96z"/><path d="m283.7 662.84v3.96h1.08v-3.96z"/><path d="m283.7 655.76v4.08h1.08v-4.08z"/><path d="m283.7 648.8v3.96h1.08v-3.96z"/><path d="m283.7 641.84v3.96h1.08v-3.96z"/><path d="m283.7 634.76v4.08h1.08v-4.08z"/><path d="m283.7 627.8v3.96h1.08v-3.96z"/><path d="m283.7 620.84v3.96h1.08v-3.96z"/><path d="m283.7 613.76v4.08h1.08v-4.08z"/><path d="m283.7 606.8v3.96h1.08v-3.96z"/><path d="m283.7 599.84v3.96h1.08v-3.96z"/><path d="m283.7 592.76v4.08h1.08v-4.08z"/><path d="m283.7 585.8v3.96h1.08v-3.96z"/><path d="m283.7 578.84v3.96h1.08v-3.96z"/><path d="m283.7 571.76v4.08h1.08v-4.08z"/><path d="m283.7 564.8v3.96h1.08v-3.96z"/><path d="m283.7 557.84v3.96h1.08v-3.96z"/><path d="m283.7 550.76v4.08h1.08v-4.08z"/><path d="m283.7 543.8v3.96h1.08v-3.96z"/><path d="m283.7 536.84v3.96h1.08v-3.96z"/><path d="m283.7 529.76v4.08h1.08v-4.08z"/><path d="m283.7 522.8v3.96h1.08v-3.96z"/><path d="m283.7 515.84v3.96h1.08v-3.96z"/><path d="m283.7 508.76v4.08h1.08v-4.08z"/><path d="m283.7 501.8v3.96h1.08v-3.96z"/><path d="m283.7 494.84v3.96h1.08v-3.96z"/><path d="m283.7 487.76v4.08h1.08v-4.08z"/><path d="m283.7 480.8v3.96h1.08v-3.96z"/><path d="m283.7 473.84v3.96h1.08v-3.96z"/><path d="m283.7 466.76v4.08h1.08v-4.08z"/><path d="m283.7 459.8v3.96h1.08v-3.96z"/><path d="m283.7 452.84v3.96h1.08v-3.96z"/><path d="m283.7 445.76v4.08h1.08v-4.08z"/><path d="m283.7 438.8v3.96h1.08v-3.96z"/><path d="m283.7 431.84v3.96h1.08v-3.96z"/><path d="m283.7 424.76v4.08h1.08v-4.08z"/><path d="m283.7 417.8v3.96h1.08v-3.96z"/><path d="m283.7 410.84v3.96h1.08v-3.96z"/><path d="m283.7 403.76v4.08h1.08v-4.08z"/><path d="m283.7 396.8v3.96h1.08v-3.96z"/><path d="m283.7 389.84v3.96h1.08v-3.96z"/><path d="m283.7 382.76v4.08h1.08v-4.08z"/><path d="m283.7 375.8v3.96h1.08v-3.96z"/><path d="m283.7 368.84v3.96h1.08v-3.96z"/><path d="m283.7 361.76v4.08h1.08v-4.08z"/><path d="m283.7 354.8v3.96h1.08v-3.96z"/><path d="m283.7 347.84v3.96h1.08v-3.96z"/><path d="m283.7 340.76v4.08h1.08v-4.08z"/><path d="m283.7 333.8v3.96h1.08v-3.96z"/><path d="m283.7 326.84v3.96h1.08v-3.96z"/><path d="m283.7 319.76v4.08h1.08v-4.08z"/><path d="m283.7 312.8v3.96h1.08v-3.96z"/><path d="m283.7 305.84v3.96h1.08v-3.96z"/><path d="m283.7 298.76v4.08h1.08v-4.08z"/><path d="m283.7 291.8v3.96h1.08v-3.96z"/><path d="m283.7 284.84v3.96h1.08v-3.96z"/><path d="m283.7 277.76v4.08h1.08v-4.08z"/><path d="m283.7 270.8v3.96h1.08v-3.96z"/><path d="m283.7 263.84v3.96h1.08v-3.96z"/><path d="m283.7 256.76v4.08h1.08v-4.08z"/><path d="m283.7 249.8v3.96h1.08v-3.96z"/><path d="m283.7 242.84v3.96h1.08v-3.96z"/><path d="m283.7 235.76v4.08h1.08v-4.08z"/><path d="m283.7 228.8v3.96h1.08v-3.96z"/><path d="m283.7 221.84v3.96h1.08v-3.96z"/><path d="m283.7 214.76v4.08h1.08v-4.08z"/><path d="m283.7 207.8v3.96h1.08v-3.96z"/><path d="m283.7 200.84v3.96h1.08v-3.96z"/><path d="m283.7 193.76v4.08h1.08v-4.08z"/><path d="m283.7 186.8v3.96h1.08v-3.96z"/><path d="m283.7 179.84v3.96h1.08v-3.96z"/><path d="m283.7 172.76v4.08h1.08v-4.08z"/><path d="m283.7 165.8v3.96h1.08v-3.96z"/><path d="m283.7 158.84v3.96h1.08v-3.96z"/><path d="m283.7 151.76v4.08h1.08v-4.08z"/><path d="m283.7 144.8v3.96h1.08v-3.96z"/><path d="m283.7 137.84v3.96h1.08v-3.96z"/><path d="m283.7 130.76v4.08h1.08v-4.08z"/><path d="m283.7 123.8v3.96h1.08v-3.96z"/><path d="m283.7 116.84v3.96h1.08v-3.96z"/><path d="m283.7 109.76v4.08h1.08v-4.08z"/><path d="m283.7 102.8v3.96h1.08v-3.96z"/><path d="m283.7 95.844v3.96h1.08v-3.96z"/><path d="m354.86 767.84v2.52h1.08v-2.52z"/><path d="m354.86 760.76v4.08h1.08v-4.08z"/><path d="m354.86 753.8v3.96h1.08v-3.96z"/><path d="m354.86 746.84v3.96h1.08v-3.96z"/><path d="m354.86 739.76v4.08h1.08v-4.08z"/><path d="m354.86 732.8v3.96h1.08v-3.96z"/><path d="m354.86 725.84v3.96h1.08v-3.96z"/><path d="m354.86 718.76v4.08h1.08v-4.08z"/><path d="m354.86 711.8v3.96h1.08v-3.96z"/><path d="m354.86 704.84v3.96h1.08v-3.96z"/><path d="m354.86 697.76v4.08h1.08v-4.08z"/><path d="m354.86 690.8v3.96h1.08v-3.96z"/><path d="m354.86 683.84v3.96h1.08v-3.96z"/><path d="m354.86 676.76v4.08h1.08v-4.08z"/><path d="m354.86 669.8v3.96h1.08v-3.96z"/><path d="m354.86 662.84v3.96h1.08v-3.96z"/><path d="m354.86 655.76v4.08h1.08v-4.08z"/><path d="m354.86 648.8v3.96h1.08v-3.96z"/><path d="m354.86 641.84v3.96h1.08v-3.96z"/><path d="m354.86 634.76v4.08h1.08v-4.08z"/><path d="m354.86 627.8v3.96h1.08v-3.96z"/><path d="m354.86 620.84v3.96h1.08v-3.96z"/><path d="m354.86 613.76v4.08h1.08v-4.08z"/><path d="m354.86 606.8v3.96h1.08v-3.96z"/><path d="m354.86 599.84v3.96h1.08v-3.96z"/><path d="m354.86 592.76v4.08h1.08v-4.08z"/><path d="m354.86 585.8v3.96h1.08v-3.96z"/><path d="m354.86 578.84v3.96h1.08v-3.96z"/><path d="m354.86 571.76v4.08h1.08v-4.08z"/><path d="m354.86 564.8v3.96h1.08v-3.96z"/><path d="m354.86 557.84v3.96h1.08v-3.96z"/><path d="m354.86 550.76v4.08h1.08v-4.08z"/><path d="m354.86 543.8v3.96h1.08v-3.96z"/><path d="m354.86 536.84v3.96h1.08v-3.96z"/><path d="m354.86 529.76v4.08h1.08v-4.08z"/><path d="m354.86 522.8v3.96h1.08v-3.96z"/><path d="m354.86 515.84v3.96h1.08v-3.96z"/><path d="m354.86 508.76v4.08h1.08v-4.08z"/><path d="m354.86 501.8v3.96h1.08v-3.96z"/><path d="m354.86 494.84v3.96h1.08v-3.96z"/><path d="m354.86 487.76v4.08h1.08v-4.08z"/><path d="m354.86 480.8v3.96h1.08v-3.96z"/><path d="m354.86 473.84v3.96h1.08v-3.96z"/><path d="m354.86 466.76v4.08h1.08v-4.08z"/><path d="m354.86 459.8v3.96h1.08v-3.96z"/><path d="m354.86 452.84v3.96h1.08v-3.96z"/><path d="m354.86 445.76v4.08h1.08v-4.08z"/><path d="m354.86 438.8v3.96h1.08v-3.96z"/><path d="m354.86 431.84v3.96h1.08v-3.96z"/><path d="m354.86 424.76v4.08h1.08v-4.08z"/><path d="m354.86 417.8v3.96h1.08v-3.96z"/><path d="m354.86 410.84v3.96h1.08v-3.96z"/><path d="m354.86 403.76v4.08h1.08v-4.08z"/><path d="m354.86 396.8v3.96h1.08v-3.96z"/><path d="m354.86 389.84v3.96h1.08v-3.96z"/><path d="m354.86 382.76v4.08h1.08v-4.08z"/><path d="m354.86 375.8v3.96h1.08v-3.96z"/><path d="m354.86 368.84v3.96h1.08v-3.96z"/><path d="m354.86 361.76v4.08h1.08v-4.08z"/><path d="m354.86 354.8v3.96h1.08v-3.96z"/><path d="m354.86 347.84v3.96h1.08v-3.96z"/><path d="m354.86 340.76v4.08h1.08v-4.08z"/><path d="m354.86 333.8v3.96h1.08v-3.96z"/><path d="m354.86 326.84v3.96h1.08v-3.96z"/><path d="m354.86 319.76v4.08h1.08v-4.08z"/><path d="m354.86 312.8v3.96h1.08v-3.96z"/><path d="m354.86 305.84v3.96h1.08v-3.96z"/><path d="m354.86 298.76v4.08h1.08v-4.08z"/><path d="m354.86 291.8v3.96h1.08v-3.96z"/><path d="m354.86 284.84v3.96h1.08v-3.96z"/><path d="m354.86 277.76v4.08h1.08v-4.08z"/><path d="m354.86 270.8v3.96h1.08v-3.96z"/><path d="m354.86 263.84v3.96h1.08v-3.96z"/><path d="m354.86 256.76v4.08h1.08v-4.08z"/><path d="m354.86 249.8v3.96h1.08v-3.96z"/><path d="m354.86 242.84v3.96h1.08v-3.96z"/><path d="m354.86 235.76v4.08h1.08v-4.08z"/><path d="m354.86 228.8v3.96h1.08v-3.96z"/><path d="m354.86 221.84v3.96h1.08v-3.96z"/><path d="m354.86 214.76v4.08h1.08v-4.08z"/><path d="m354.86 207.8v3.96h1.08v-3.96z"/><path d="m354.86 200.84v3.96h1.08v-3.96z"/><path d="m354.86 193.76v4.08h1.08v-4.08z"/><path d="m354.86 186.8v3.96h1.08v-3.96z"/><path d="m354.86 179.84v3.96h1.08v-3.96z"/><path d="m354.86 172.76v4.08h1.08v-4.08z"/><path d="m354.86 165.8v3.96h1.08v-3.96z"/><path d="m354.86 158.84v3.96h1.08v-3.96z"/><path d="m354.86 151.76v4.08h1.08v-4.08z"/><path d="m354.86 144.8v3.96h1.08v-3.96z"/><path d="m354.86 137.84v3.96h1.08v-3.96z"/><path d="m354.86 130.76v4.08h1.08v-4.08z"/><path d="m354.86 123.8v3.96h1.08v-3.96z"/><path d="m354.86 116.84v3.96h1.08v-3.96z"/><path d="m354.86 109.76v4.08h1.08v-4.08z"/><path d="m354.86 102.8v3.96h1.08v-3.96z"/><path d="m354.86 95.844v3.96h1.08v-3.96z"/><path d="m425.9 767.84v2.52h1.08v-2.52z"/><path d="m425.9 760.76v4.08h1.08v-4.08z"/><path d="m425.9 753.8v3.96h1.08v-3.96z"/><path d="m425.9 746.84v3.96h1.08v-3.96z"/><path d="m425.9 739.76v4.08h1.08v-4.08z"/><path d="m425.9 732.8v3.96h1.08v-3.96z"/><path d="m425.9 725.84v3.96h1.08v-3.96z"/><path d="m425.9 718.76v4.08h1.08v-4.08z"/><path d="m425.9 711.8v3.96h1.08v-3.96z"/><path d="m425.9 704.84v3.96h1.08v-3.96z"/><path d="m425.9 697.76v4.08h1.08v-4.08z"/><path d="m425.9 690.8v3.96h1.08v-3.96z"/><path d="m425.9 683.84v3.96h1.08v-3.96z"/><path d="m425.9 676.76v4.08h1.08v-4.08z"/><path d="m425.9 669.8v3.96h1.08v-3.96z"/><path d="m425.9 662.84v3.96h1.08v-3.96z"/><path d="m425.9 655.76v4.08h1.08v-4.08z"/><path d="m425.9 648.8v3.96h1.08v-3.96z"/><path d="m425.9 641.84v3.96h1.08v-3.96z"/><path d="m425.9 634.76v4.08h1.08v-4.08z"/><path d="m425.9 627.8v3.96h1.08v-3.96z"/><path d="m425.9 620.84v3.96h1.08v-3.96z"/><path d="m425.9 613.76v4.08h1.08v-4.08z"/><path d="m425.9 606.8v3.96h1.08v-3.96z"/><path d="m425.9 599.84v3.96h1.08v-3.96z"/><path d="m425.9 592.76v4.08h1.08v-4.08z"/><path d="m425.9 585.8v3.96h1.08v-3.96z"/><path d="m425.9 578.84v3.96h1.08v-3.96z"/><path d="m425.9 571.76v4.08h1.08v-4.08z"/><path d="m425.9 564.8v3.96h1.08v-3.96z"/><path d="m425.9 557.84v3.96h1.08v-3.96z"/><path d="m425.9 550.76v4.08h1.08v-4.08z"/><path d="m425.9 543.8v3.96h1.08v-3.96z"/><path d="m425.9 536.84v3.96h1.08v-3.96z"/><path d="m425.9 529.76v4.08h1.08v-4.08z"/><path d="m425.9 522.8v3.96h1.08v-3.96z"/><path d="m425.9 515.84v3.96h1.08v-3.96z"/><path d="m425.9 508.76v4.08h1.08v-4.08z"/><path d="m425.9 501.8v3.96h1.08v-3.96z"/><path d="m425.9 494.84v3.96h1.08v-3.96z"/><path d="m425.9 487.76v4.08h1.08v-4.08z"/><path d="m425.9 480.8v3.96h1.08v-3.96z"/><path d="m425.9 473.84v3.96h1.08v-3.96z"/><path d="m425.9 466.76v4.08h1.08v-4.08z"/><path d="m425.9 459.8v3.96h1.08v-3.96z"/><path d="m425.9 452.84v3.96h1.08v-3.96z"/><path d="m425.9 445.76v4.08h1.08v-4.08z"/><path d="m425.9 438.8v3.96h1.08v-3.96z"/><path d="m425.9 431.84v3.96h1.08v-3.96z"/><path d="m425.9 424.76v4.08h1.08v-4.08z"/><path d="m425.9 417.8v3.96h1.08v-3.96z"/><path d="m425.9 410.84v3.96h1.08v-3.96z"/><path d="m425.9 403.76v4.08h1.08v-4.08z"/><path d="m425.9 396.8v3.96h1.08v-3.96z"/><path d="m425.9 389.84v3.96h1.08v-3.96z"/><path d="m425.9 382.76v4.08h1.08v-4.08z"/><path d="m425.9 375.8v3.96h1.08v-3.96z"/><path d="m425.9 368.84v3.96h1.08v-3.96z"/><path d="m425.9 361.76v4.08h1.08v-4.08z"/><path d="m425.9 354.8v3.96h1.08v-3.96z"/><path d="m425.9 347.84v3.96h1.08v-3.96z"/><path d="m425.9 340.76v4.08h1.08v-4.08z"/><path d="m425.9 333.8v3.96h1.08v-3.96z"/><path d="m425.9 326.84v3.96h1.08v-3.96z"/><path d="m425.9 319.76v4.08h1.08v-4.08z"/><path d="m425.9 312.8v3.96h1.08v-3.96z"/><path d="m425.9 305.84v3.96h1.08v-3.96z"/><path d="m425.9 298.76v4.08h1.08v-4.08z"/><path d="m425.9 291.8v3.96h1.08v-3.96z"/><path d="m425.9 284.84v3.96h1.08v-3.96z"/><path d="m425.9 277.76v4.08h1.08v-4.08z"/><path d="m425.9 270.8v3.96h1.08v-3.96z"/><path d="m425.9 263.84v3.96h1.08v-3.96z"/><path d="m425.9 256.76v4.08h1.08v-4.08z"/><path d="m425.9 249.8v3.96h1.08v-3.96z"/><path d="m425.9 242.84v3.96h1.08v-3.96z"/><path d="m425.9 235.76v4.08h1.08v-4.08z"/><path d="m425.9 228.8v3.96h1.08v-3.96z"/><path d="m425.9 221.84v3.96h1.08v-3.96z"/><path d="m425.9 214.76v4.08h1.08v-4.08z"/><path d="m425.9 207.8v3.96h1.08v-3.96z"/><path d="m425.9 200.84v3.96h1.08v-3.96z"/><path d="m425.9 193.76v4.08h1.08v-4.08z"/><path d="m425.9 186.8v3.96h1.08v-3.96z"/><path d="m425.9 179.84v3.96h1.08v-3.96z"/><path d="m425.9 172.76v4.08h1.08v-4.08z"/><path d="m425.9 165.8v3.96h1.08v-3.96z"/><path d="m425.9 158.84v3.96h1.08v-3.96z"/><path d="m425.9 151.76v4.08h1.08v-4.08z"/><path d="m425.9 144.8v3.96h1.08v-3.96z"/><path d="m425.9 137.84v3.96h1.08v-3.96z"/><path d="m425.9 130.76v4.08h1.08v-4.08z"/><path d="m425.9 123.8v3.96h1.08v-3.96z"/><path d="m425.9 116.84v3.96h1.08v-3.96z"/><path d="m425.9 109.76v4.08h1.08v-4.08z"/><path d="m425.9 102.8v3.96h1.08v-3.96z"/><path d="m425.9 95.844v3.96h1.08v-3.96z"/><path d="m491.06 770.84h4.08v-.96h-4.08"/><path d="m484.1 770.84h3.96v-.96h-3.96z"/><path d="m477.14 770.84h3.96v-.96h-3.96z"/><path d="m470.06 770.84h4.08v-.96h-4.08z"/><path d="m463.1 770.84h3.96v-.96h-3.96z"/><path d="m456.14 770.84h3.96v-.96h-3.96z"/><path d="m449.06 770.84h4.08v-.96h-4.08z"/><path d="m442.1 770.84h3.96v-.96h-3.96z"/><path d="m435.14 770.84h3.96v-.96h-3.96z"/><path d="m428.06 770.84h4.08v-.96h-4.08z"/><path d="m421.1 770.84h3.96v-.96h-3.96z"/><path d="m414.14 770.84h3.96v-.96h-3.96z"/><path d="m407.06 770.84h4.08v-.96h-4.08z"/><path d="m400.1 770.84h3.96v-.96h-3.96z"/><path d="m393.14 770.84h3.96v-.96h-3.96z"/><path d="m386.06 770.84h4.08v-.96h-4.08z"/><path d="m379.1 770.84h3.96v-.96h-3.96z"/><path d="m372.14 770.84h3.96v-.96h-3.96z"/><path d="m365.06 770.84h4.08v-.96h-4.08z"/><path d="m358.1 770.84h3.96v-.96h-3.96z"/><path d="m351.14 770.84h3.96v-.96h-3.96z"/><path d="m344.06 770.84h4.08v-.96h-4.08z"/><path d="m337.1 770.84h3.96v-.96h-3.96z"/><path d="m330.14 770.84h3.96v-.96h-3.96z"/><path d="m323.06 770.84h4.08v-.96h-4.08z"/><path d="m316.1 770.84h3.96v-.96h-3.96z"/><path d="m309.14 770.84h3.96v-.96h-3.96z"/><path d="m302.06 770.84h4.08v-.96h-4.08z"/><path d="m295.1 770.84h3.96v-.96h-3.96z"/><path d="m288.14 770.84h3.96v-.96h-3.96z"/><path d="m281.06 770.84h4.08v-.96h-4.08z"/><path d="m274.1 770.84h3.96v-.96h-3.96z"/><path d="m267.14 770.84h3.96v-.96h-3.96z"/><path d="m260.06 770.84h4.08v-.96h-4.08z"/><path d="m253.1 770.84h3.96v-.96h-3.96z"/><path d="m246.14 770.84h3.96v-.96h-3.96z"/><path d="m239.06 770.84h4.08v-.96h-4.08z"/><path d="m232.1 770.84h3.96v-.96h-3.96z"/><path d="m225.14 770.84h3.96v-.96h-3.96z"/><path d="m218.06 770.84h4.08v-.96h-4.08z"/><path d="m211.1 770.84h3.96v-.96h-3.96z"/><path d="m204.14 770.84h3.96v-.96h-3.96z"/><path d="m197.06 770.84h4.08v-.96h-4.08z"/><path d="m190.1 770.84h3.96v-.96h-3.96z"/><path d="m183.14 770.84h3.96v-.96h-3.96z"/><path d="m176.06 770.84h4.08v-.96h-4.08z"/><path d="m169.1 770.84h3.96v-.96h-3.96z"/><path d="m162.14 770.84h3.96v-.96h-3.96z"/><path d="m155.06 770.84h4.08v-.96h-4.08z"/><path d="m148.1 770.84h3.96v-.96h-3.96z"/><path d="m141.14 770.84h3.96v-.96h-3.96z"/><path d="m134.06 770.84h4.08v-.96h-4.08z"/><path d="m127.1 770.84h3.96v-.96h-3.96z"/><path d="m120.14 770.84h3.96v-.96h-3.96z"/><path d="m113.06 770.84h4.08v-.96h-4.08z"/><path d="m106.1 770.84h3.96v-.96h-3.96z"/><path d="m99.141 770.84h3.96v-.96h-3.96z"/><path d="m92.061 770.84h4.08v-.96h-4.08z"/><path d="m85.101 770.84h3.96v-.96h-3.96z"/><path d="m78.141 770.84h3.96v-.96h-3.96z"/><path d="m71.061 770.84h4.08v-.96h-4.08z"/><path d="m491.06 635.96h4.08v-1.08h-4.08z"/><path d="m484.1 635.96h3.96v-1.08h-3.96z"/><path d="m477.14 635.96h3.96v-1.08h-3.96z"/><path d="m470.06 635.96h4.08v-1.08h-4.08z"/><path d="m463.1 635.96h3.96v-1.08h-3.96z"/><path d="m456.14 635.96h3.96v-1.08h-3.96z"/><path d="m449.06 635.96h4.08v-1.08h-4.08z"/><path d="m442.1 635.96h3.96v-1.08h-3.96z"/><path d="m435.14 635.96h3.96v-1.08h-3.96z"/><path d="m428.06 635.96h4.08v-1.08h-4.08z"/><path d="m421.1 635.96h3.96v-1.08h-3.96z"/><path d="m414.14 635.96h3.96v-1.08h-3.96z"/><path d="m407.06 635.96h4.08v-1.08h-4.08z"/><path d="m400.1 635.96h3.96v-1.08h-3.96z"/><path d="m393.14 635.96h3.96v-1.08h-3.96z"/><path d="m386.06 635.96h4.08v-1.08h-4.08z"/><path d="m379.1 635.96h3.96v-1.08h-3.96z"/><path d="m372.14 635.96h3.96v-1.08h-3.96z"/><path d="m365.06 635.96h4.08v-1.08h-4.08z"/><path d="m358.1 635.96h3.96v-1.08h-3.96z"/><path d="m351.14 635.96h3.96v-1.08h-3.96z"/><path d="m344.06 635.96h4.08v-1.08h-4.08z"/><path d="m337.1 635.96h3.96v-1.08h-3.96z"/><path d="m330.14 635.96h3.96v-1.08h-3.96z"/><path d="m323.06 635.96h4.08v-1.08h-4.08z"/><path d="m316.1 635.96h3.96v-1.08h-3.96z"/><path d="m309.14 635.96h3.96v-1.08h-3.96z"/><path d="m302.06 635.96h4.08v-1.08h-4.08z"/><path d="m295.1 635.96h3.96v-1.08h-3.96z"/><path d="m288.14 635.96h3.96v-1.08h-3.96z"/><path d="m281.06 635.96h4.08v-1.08h-4.08z"/><path d="m274.1 635.96h3.96v-1.08h-3.96z"/><path d="m267.14 635.96h3.96v-1.08h-3.96z"/><path d="m260.06 635.96h4.08v-1.08h-4.08z"/><path d="m253.1 635.96h3.96v-1.08h-3.96z"/><path d="m218.06 635.96h4.08v-1.08h-4.08z"/><path d="m211.1 635.96h3.96v-1.08h-3.96z"/><path d="m204.14 635.96h3.96v-1.08h-3.96z"/><path d="m162.14 635.96h3.96v-1.08h-3.96z"/><path d="m155.06 635.96h4.08v-1.08h-4.08z"/><path d="m148.1 635.96h3.96v-1.08h-3.96z"/><path d="m141.14 635.96h3.96v-1.08h-3.96z"/><path d="m134.06 635.96h4.08v-1.08h-4.08z"/><path d="m127.1 635.96h3.96v-1.08h-3.96z"/><path d="m120.14 635.96h3.96v-1.08h-3.96z"/><path d="m113.06 635.96h4.08v-1.08h-4.08z"/><path d="m106.1 635.96h3.96v-1.08h-3.96z"/><path d="m99.141 635.96h3.96v-1.08h-3.96z"/><path d="m92.061 635.96h4.08v-1.08h-4.08z"/><path d="m85.101 635.96h3.96v-1.08h-3.96z"/><path d="m78.141 635.96h3.96v-1.08h-3.96z"/><path d="m71.061 635.96h4.08v-1.08h-4.08z"/><path d="m491.06 501.08h4.08v-1.08h-4.08z"/><path d="m484.1 501.08h3.96v-1.08h-3.96z"/><path d="m477.14 501.08h3.96v-1.08h-3.96z"/><path d="m470.06 501.08h4.08v-1.08h-4.08z"/><path d="m463.1 501.08h3.96v-1.08h-3.96z"/><path d="m456.14 501.08h3.96v-1.08h-3.96z"/><path d="m449.06 501.08h4.08v-1.08h-4.08z"/><path d="m442.1 501.08h3.96v-1.08h-3.96z"/><path d="m435.14 501.08h3.96v-1.08h-3.96z"/><path d="m428.06 501.08h4.08v-1.08h-4.08z"/><path d="m421.1 501.08h3.96v-1.08h-3.96z"/><path d="m414.14 501.08h3.96v-1.08h-3.96z"/><path d="m407.06 501.08h4.08v-1.08h-4.08z"/><path d="m400.1 501.08h3.96v-1.08h-3.96z"/><path d="m393.14 501.08h3.96v-1.08h-3.96z"/><path d="m386.06 501.08h4.08v-1.08h-4.08z"/><path d="m379.1 501.08h3.96v-1.08h-3.96z"/><path d="m372.14 501.08h3.96v-1.08h-3.96z"/><path d="m365.06 501.08h4.08v-1.08h-4.08z"/><path d="m358.1 501.08h3.96v-1.08h-3.96z"/><path d="m351.14 501.08h3.96v-1.08h-3.96z"/><path d="m344.06 501.08h4.08v-1.08h-4.08z"/><path d="m337.1 501.08h3.96v-1.08h-3.96z"/><path d="m330.14 501.08h3.96v-1.08h-3.96z"/><path d="m323.06 501.08h4.08v-1.08h-4.08z"/><path d="m316.1 501.08h3.96v-1.08h-3.96z"/><path d="m309.14 501.08h3.96v-1.08h-3.96z"/><path d="m302.06 501.08h4.08v-1.08h-4.08z"/><path d="m295.1 501.08h3.96v-1.08h-3.96z"/><path d="m288.14 501.08h3.96v-1.08h-3.96z"/><path d="m281.06 501.08h4.08v-1.08h-4.08z"/><path d="m274.1 501.08h3.96v-1.08h-3.96z"/><path d="m267.14 501.08h3.96v-1.08h-3.96z"/><path d="m260.06 501.08h4.08v-1.08h-4.08z"/><path d="m253.1 501.08h3.96v-1.08h-3.96z"/><path d="m246.14 501.08h3.96v-1.08h-3.96z"/><path d="m239.06 501.08h4.08v-1.08h-4.08z"/><path d="m232.1 501.08h3.96v-1.08h-3.96z"/><path d="m225.14 501.08h3.96v-1.08h-3.96z"/><path d="m218.06 501.08h4.08v-1.08h-4.08z"/><path d="m211.1 501.08h3.96v-1.08h-3.96z"/><path d="m204.14 501.08h3.96v-1.08h-3.96z"/><path d="m197.06 501.08h4.08v-1.08h-4.08z"/><path d="m190.1 501.08h3.96v-1.08h-3.96z"/><path d="m183.14 501.08h3.96v-1.08h-3.96z"/><path d="m176.06 501.08h4.08v-1.08h-4.08z"/><path d="m169.1 501.08h3.96v-1.08h-3.96z"/><path d="m162.14 501.08h3.96v-1.08h-3.96z"/><path d="m155.06 501.08h4.08v-1.08h-4.08z"/><path d="m148.1 501.08h3.96v-1.08h-3.96z"/><path d="m141.14 501.08h3.96v-1.08h-3.96z"/><path d="m134.06 501.08h4.08v-1.08h-4.08z"/><path d="m127.1 501.08h3.96v-1.08h-3.96z"/><path d="m85.101 501.08h3.96v-1.08h-3.96z"/><path d="m78.141 501.08h3.96v-1.08h-3.96z"/><path d="m71.061 501.08h4.08v-1.08h-4.08z"/><path d="m491.06 366.2h4.08v-1.08h-4.08z"/><path d="m484.1 366.2h3.96v-1.08h-3.96z"/><path d="m477.14 366.2h3.96v-1.08h-3.96z"/><path d="m470.06 366.2h4.08v-1.08h-4.08z"/><path d="m463.1 366.2h3.96v-1.08h-3.96z"/><path d="m456.14 366.2h3.96v-1.08h-3.96z"/><path d="m449.06 366.2h4.08v-1.08h-4.08z"/><path d="m442.1 366.2h3.96v-1.08h-3.96z"/><path d="m435.14 366.2h3.96v-1.08h-3.96z"/><path d="m428.06 366.2h4.08v-1.08h-4.08z"/><path d="m421.1 366.2h3.96v-1.08h-3.96z"/><path d="m414.14 366.2h3.96v-1.08h-3.96z"/><path d="m407.06 366.2h4.08v-1.08h-4.08z"/><path d="m400.1 366.2h3.96v-1.08h-3.96z"/><path d="m393.14 366.2h3.96v-1.08h-3.96z"/><path d="m386.06 366.2h4.08v-1.08h-4.08z"/><path d="m379.1 366.2h3.96v-1.08h-3.96z"/><path d="m372.14 366.2h3.96v-1.08h-3.96z"/><path d="m365.06 366.2h4.08v-1.08h-4.08z"/><path d="m358.1 366.2h3.96v-1.08h-3.96z"/><path d="m351.14 366.2h3.96v-1.08h-3.96z"/><path d="m344.06 366.2h4.08v-1.08h-4.08z"/><path d="m337.1 366.2h3.96v-1.08h-3.96z"/><path d="m330.14 366.2h3.96v-1.08h-3.96z"/><path d="m323.06 366.2h4.08v-1.08h-4.08z"/><path d="m316.1 366.2h3.96v-1.08h-3.96z"/><path d="m309.14 366.2h3.96v-1.08h-3.96z"/><path d="m302.06 366.2h4.08v-1.08h-4.08z"/><path d="m295.1 366.2h3.96v-1.08h-3.96z"/><path d="m288.14 366.2h3.96v-1.08h-3.96z"/><path d="m281.06 366.2h4.08v-1.08h-4.08z"/><path d="m274.1 366.2h3.96v-1.08h-3.96z"/><path d="m267.14 366.2h3.96v-1.08h-3.96z"/><path d="m260.06 366.2h4.08v-1.08h-4.08z"/><path d="m253.1 366.2h3.96v-1.08h-3.96z"/><path d="m246.14 366.2h3.96v-1.08h-3.96z"/><path d="m239.06 366.2h4.08v-1.08h-4.08z"/><path d="m232.1 366.2h3.96v-1.08h-3.96z"/><path d="m225.14 366.2h3.96v-1.08h-3.96z"/><path d="m218.06 366.2h4.08v-1.08h-4.08z"/><path d="m211.1 366.2h3.96v-1.08h-3.96z"/><path d="m204.14 366.2h3.96v-1.08h-3.96z"/><path d="m197.06 366.2h4.08v-1.08h-4.08z"/><path d="m190.1 366.2h3.96v-1.08h-3.96z"/><path d="m183.14 366.2h3.96v-1.08h-3.96z"/><path d="m176.06 366.2h4.08v-1.08h-4.08z"/><path d="m169.1 366.2h3.96v-1.08h-3.96z"/><path d="m162.14 366.2h3.96v-1.08h-3.96z"/><path d="m155.06 366.2h4.08v-1.08h-4.08z"/><path d="m148.1 366.2h3.96v-1.08h-3.96z"/><path d="m141.14 366.2h3.96v-1.08h-3.96z"/><path d="m134.06 366.2h4.08v-1.08h-4.08z"/><path d="m127.1 366.2h3.96v-1.08h-3.96z"/><path d="m85.101 366.2h3.96v-1.08h-3.96z"/><path d="m78.141 366.2h3.96v-1.08h-3.96z"/><path d="m71.061 366.2h4.08v-1.08h-4.08z"/><path d="m491.06 231.2h4.08v-1.08h-4.08z"/><path d="m484.1 231.2h3.96v-1.08h-3.96z"/><path d="m477.14 231.2h3.96v-1.08h-3.96z"/><path d="m470.06 231.2h4.08v-1.08h-4.08z"/><path d="m463.1 231.2h3.96v-1.08h-3.96z"/><path d="m456.14 231.2h3.96v-1.08h-3.96z"/><path d="m449.06 231.2h4.08v-1.08h-4.08z"/><path d="m442.1 231.2h3.96v-1.08h-3.96z"/><path d="m435.14 231.2h3.96v-1.08h-3.96z"/><path d="m428.06 231.2h4.08v-1.08h-4.08z"/><path d="m421.1 231.2h3.96v-1.08h-3.96z"/><path d="m414.14 231.2h3.96v-1.08h-3.96z"/><path d="m407.06 231.2h4.08v-1.08h-4.08z"/><path d="m400.1 231.2h3.96v-1.08h-3.96z"/><path d="m393.14 231.2h3.96v-1.08h-3.96z"/><path d="m386.06 231.2h4.08v-1.08h-4.08z"/><path d="m379.1 231.2h3.96v-1.08h-3.96z"/><path d="m372.14 231.2h3.96v-1.08h-3.96z"/><path d="m365.06 231.2h4.08v-1.08h-4.08z"/><path d="m358.1 231.2h3.96v-1.08h-3.96z"/><path d="m351.14 231.2h3.96v-1.08h-3.96z"/><path d="m344.06 231.2h4.08v-1.08h-4.08z"/><path d="m337.1 231.2h3.96v-1.08h-3.96z"/><path d="m330.14 231.2h3.96v-1.08h-3.96z"/><path d="m323.06 231.2h4.08v-1.08h-4.08z"/><path d="m316.1 231.2h3.96v-1.08h-3.96z"/><path d="m309.14 231.2h3.96v-1.08h-3.96z"/><path d="m302.06 231.2h4.08v-1.08h-4.08z"/><path d="m295.1 231.2h3.96v-1.08h-3.96z"/><path d="m288.14 231.2h3.96v-1.08h-3.96z"/><path d="m281.06 231.2h4.08v-1.08h-4.08z"/><path d="m274.1 231.2h3.96v-1.08h-3.96z"/><path d="m267.14 231.2h3.96v-1.08h-3.96z"/><path d="m260.06 231.2h4.08v-1.08h-4.08z"/><path d="m253.1 231.2h3.96v-1.08h-3.96z"/><path d="m246.14 231.2h3.96v-1.08h-3.96z"/><path d="m239.06 231.2h4.08v-1.08h-4.08z"/><path d="m232.1 231.2h3.96v-1.08h-3.96z"/><path d="m225.14 231.2h3.96v-1.08h-3.96z"/><path d="m218.06 231.2h4.08v-1.08h-4.08z"/><path d="m211.1 231.2h3.96v-1.08h-3.96z"/><path d="m204.14 231.2h3.96v-1.08h-3.96z"/><path d="m197.06 231.2h4.08v-1.08h-4.08z"/><path d="m190.1 231.2h3.96v-1.08h-3.96z"/><path d="m183.14 231.2h3.96v-1.08h-3.96z"/><path d="m176.06 231.2h4.08v-1.08h-4.08z"/><path d="m169.1 231.2h3.96v-1.08h-3.96z"/><path d="m162.14 231.2h3.96v-1.08h-3.96z"/><path d="m155.06 231.2h4.08v-1.08h-4.08z"/><path d="m148.1 231.2h3.96v-1.08h-3.96z"/><path d="m141.14 231.2h3.96v-1.08h-3.96z"/><path d="m134.06 231.2h4.08v-1.08h-4.08z"/><path d="m127.1 231.2h3.96v-1.08h-3.96z"/><path d="m120.14 231.2h3.96v-1.08h-3.96z"/><path d="m113.06 231.2h4.08v-1.08h-4.08z"/><path d="m106.1 231.2h3.96v-1.08h-3.96z"/><path d="m99.141 231.2h3.96v-1.08h-3.96z"/><path d="m92.061 231.2h4.08v-1.08h-4.08z"/><path d="m85.101 231.2h3.96v-1.08h-3.96z"/><path d="m78.141 231.2h3.96v-1.08h-3.96z"/><path d="m71.061 231.2h4.08v-1.08h-4.08z"/><path d="m497.42 94.284h-426.48c-.72 0-1.44.72-1.44 1.44 0 .84.72 1.56 1.44 1.56h426.48c.84 0 1.56-.72 1.56-1.56 0-.72-.72-1.44-1.56-1.44"/><path d="m495.98 95.724v674.52c0 .84.72 1.56 1.44 1.56.84 0 1.56-.72 1.56-1.56v-674.52c0-.72-.72-1.44-1.56-1.44-.72 0-1.44.72-1.44 1.44"/><path d="m492.62081 97.283708h4.8c.84 0 1.56-.72 1.56-1.56 0-.72-.72-1.44-1.56-1.44h-4.8c-.72 0-1.44.72-1.44 1.44 0 .84.72 1.56 1.44 1.56zm0 26.879762h4.8c.84 0 1.56-.72 1.56-1.56 0-.72-.72-1.44-1.56-1.44h-4.8c-.72 0-1.44.72-1.44 1.44 0 .84.72 1.56 1.44 1.56zm0 27h4.8c.84 0 1.56-.72 1.56-1.56 0-.72-.72-1.44-1.56-1.44h-4.8c-.72 0-1.44.72-1.44 1.44 0 .84.72 1.56 1.44 1.56zm0 27h4.8c.84 0 1.56-.72 1.56-1.56 0-.72-.72-1.44-1.56-1.44h-4.8c-.72 0-1.44.72-1.44 1.44 0 .84.72 1.56 1.44 1.56zm0 27h4.8c.84 0 1.56-.72 1.56-1.56 0-.72-.72-1.44-1.56-1.44h-4.8c-.72 0-1.44.72-1.44 1.44 0 .84.72 1.56 1.44 1.56zm0 27h4.8c.84 0 1.56-.72 1.56-1.56 0-.72-.72-1.44-1.56-1.44h-4.8c-.72 0-1.44.72-1.44 1.44 0 .84.72 1.56 1.44 1.56zm0 27h4.8c.84 0 1.56-.72 1.56-1.56 0-.72-.72-1.44-1.56-1.44h-4.8c-.72 0-1.44.72-1.44 1.44 0 .84.72 1.56 1.44 1.56zm0 27h4.8c.84 0 1.56-.72 1.56-1.56 0-.72-.72-1.44-1.56-1.44h-4.8c-.72 0-1.44.72-1.44 1.44 0 .84.72 1.56 1.44 1.56zm0 27h4.8c.84 0 1.56-.72 1.56-1.56 0-.72-.72-1.44-1.56-1.44h-4.8c-.72 0-1.44.72-1.44 1.44 0 .84.72 1.56 1.44 1.56zm0 26.88h4.8c.84 0 1.56-.72 1.56-1.56 0-.72-.72-1.44-1.56-1.44h-4.8c-.72 0-1.44.72-1.44 1.44 0 .84.72 1.56 1.44 1.56zm0 27h4.8c.84 0 1.56-.72 1.56-1.56 0-.72-.72-1.44-1.56-1.44h-4.8c-.72 0-1.44.72-1.44 1.44 0 .84.72 1.56 1.44 1.56zm0 27h4.8c.84 0 1.56-.72 1.56-1.56 0-.72-.72-1.44-1.56-1.44h-4.8c-.72 0-1.44.72-1.44 1.44 0 .84.72 1.56 1.44 1.56zm0 27h4.8c.84 0 1.56-.72 1.56-1.56 0-.72-.72-1.44-1.56-1.44h-4.8c-.72 0-1.44.72-1.44 1.44 0 .84.72 1.56 1.44 1.56zm0 27h4.8c.84 0 1.56-.72 1.56-1.56 0-.72-.72-1.44-1.56-1.44h-4.8c-.72 0-1.44.72-1.44 1.44 0 .84.72 1.56 1.44 1.56zm0 27h4.8c.84 0 1.56-.72 1.56-1.56 0-.72-.72-1.44-1.56-1.44h-4.8c-.72 0-1.44.72-1.44 1.44 0 .84.72 1.56 1.44 1.56zm0 27h4.8c.84 0 1.56-.72 1.56-1.56 0-.72-.72-1.44-1.56-1.44h-4.8c-.72 0-1.44.72-1.44 1.44 0 .84.72 1.56 1.44 1.56zm0 27h4.8c.84 0 1.56-.72 1.56-1.56 0-.72-.72-1.44-1.56-1.44h-4.8c-.72 0-1.44.72-1.44 1.44 0 .84.72 1.56 1.44 1.56zm0 26.88h4.8c.84 0 1.56-.72 1.56-1.56 0-.72-.72-1.44-1.56-1.44h-4.8c-.72 0-1.44.72-1.44 1.44 0 .84.72 1.56 1.44 1.56zm0 27h4.8c.84 0 1.56-.72 1.56-1.56 0-.72-.72-1.44-1.56-1.44h-4.8c-.72 0-1.44.72-1.44 1.44 0 .84.72 1.56 1.44 1.56zm0 27h4.8c.84 0 1.56-.72 1.56-1.56 0-.72-.72-1.44-1.56-1.44h-4.8c-.72 0-1.44.72-1.44 1.44 0 .84.72 1.56 1.44 1.56zm0 27h4.8c.84 0 1.56-.72 1.56-1.56 0-.72-.72-1.44-1.56-1.44h-4.8c-.72 0-1.44.72-1.44 1.44 0 .84.72 1.56 1.44 1.56zm0 27h4.8c.84 0 1.56-.72 1.56-1.56 0-.72-.72-1.44-1.56-1.44h-4.8c-.72 0-1.44.72-1.44 1.44 0 .84.72 1.56 1.44 1.56zm0 27h4.8c.84 0 1.56-.72 1.56-1.56 0-.72-.72-1.44-1.56-1.44h-4.8c-.72 0-1.44.72-1.44 1.44 0 .84.72 1.56 1.44 1.56zm0 27h4.8c.84 0 1.56-.72 1.56-1.56 0-.72-.72-1.44-1.56-1.44h-4.8c-.72 0-1.44.72-1.44 1.44 0 .84.72 1.56 1.44 1.56zm0 26.88h4.8c.84 0 1.56-.72 1.56-1.56 0-.72-.72-1.44-1.56-1.44h-4.8c-.72 0-1.44.72-1.44 1.44 0 .84.72 1.56 1.44 1.56zm0 27h4.8c.84 0 1.56-.72 1.56-1.56 0-.72-.72-1.44-1.56-1.44h-4.8c-.72 0-1.44.72-1.44 1.44 0 .84.72 1.56 1.44 1.56"/><path d="m141.98 98.244c1.44 0 2.52-1.08 2.52-2.52 0-1.32-1.08-2.4-2.52-2.4-1.32 0-2.4 1.08-2.4 2.4 0 1.44 1.08 2.52 2.4 2.52" fill="#ed7d31"/><path d="m141.86081 100.16371c2.47901.24521 4.72126-1.966544 4.56-4.432323.0955-2.473078-2.2239-4.578214-4.67682-4.354746-2.83612.09814-4.92313 3.300902-3.83059 5.933637.46608 1.693036 2.24618 2.824162 3.94741 2.853432zm-.12-3.960002c.48654.26395-.34669-.172011-.0576-.18351-.22973.305313-.0749-.705231-.12758-.471249.30481-.335704.32508-.263174.55148-.239332.21522.138435.068-.173341.47376.414089-.15848-.493425.017.351786-.0612.244181-.0759-.06092-.33965.497854-.41938.291443l-.16321.06154.28381.0028" fill="#c00000"/><path d="m149.18 111.68c1.44 0 2.52-1.08 2.52-2.52 0-1.32-1.08-2.4-2.52-2.4-1.32 0-2.4 1.08-2.4 2.4 0 1.44 1.08 2.52 2.4 2.52" fill="#ed7d31"/><path d="m149.06081 113.60371c2.47901.24522 4.72126-1.96654 4.56-4.43232.0955-2.47309-2.22391-4.57819-4.67682-4.35477-2.83612.0982-4.92313 3.30091-3.83059 5.93366.46608 1.69304 2.24618 2.82416 3.94741 2.85343zm-.12-3.96c.48654.26395-.34669-.17201-.0576-.18351-.17967.22348-.18013-.61009-.0454-.55338.50442-.3505-.38202.0627.58311-.22316-.33059.0681.21665.12905.1837.21598.18118.38446.19114-.16983.0563.62402.30625-.48666-.49589.46717-.19709.1463-.13282-.005-.67748.19068-.0429.0937" fill="#c00000"/><path d="m156.26 125.12c1.44 0 2.52-1.08 2.52-2.52 0-1.32-1.08-2.3998-2.52-2.3998-1.32 0-2.4 1.0798-2.4 2.3998 0 1.44 1.08 2.52 2.4 2.52" fill="#ed7d31"/><path d="m156.14081 127.04347c2.47901.24522 4.72126-1.96654 4.56-4.43232.0974-2.47661-2.22411-4.57487-4.67682-4.35453-2.83597.0982-4.92319 3.30071-3.83059 5.93342.46608 1.69304 2.24618 2.82416 3.94741 2.85343zm-.12-3.96c.48654.26395-.34669-.17201-.0576-.18351-.17967.22348-.18013-.61009-.0455-.55338.50442-.3505-.38202.0627.58311-.22316-.33059.0681.21665.12905.1837.21598.18118.38446.19114-.16983.0563.62402.30625-.48666-.49589.46717-.19709.1463-.13282-.005-.67748.19068-.0429.0937" fill="#c00000"/><path d="m163.34 138.68c1.44 0 2.52-1.08 2.52-2.52 0-1.32-1.08-2.4-2.52-2.4-1.32 0-2.4 1.08-2.4 2.4 0 1.44 1.08 2.52 2.4 2.52" fill="#ed7d31"/><path d="m163.22081 140.60347c2.47901.24522 4.72126-1.96654 4.56-4.43232.0955-2.47309-2.22391-4.57819-4.67682-4.35477-2.83612.0982-4.92313 3.30091-3.83059 5.93366.46608 1.69304 2.24618 2.82416 3.94741 2.85343zm-.12-3.96c.48654.26395-.34669-.17201-.0576-.18351-.17967.22348-.18013-.61009-.0454-.55338.50442-.3505-.38202.0627.58311-.22316-.33059.0681.21665.12905.1837.21598.18118.38446.19114-.16983.0563.62402.30625-.48666-.49589.46717-.19709.1463-.13282-.005-.67748.19068-.0429.0937" fill="#c00000"/><path d="m170.42 152.12c1.44 0 2.52-1.08 2.52-2.52 0-1.32-1.08-2.4-2.52-2.4-1.32 0-2.4 1.08-2.4 2.4 0 1.44 1.08 2.52 2.4 2.52" fill="#ed7d31"/><path d="m170.30081 154.04347c2.47901.24522 4.72126-1.96654 4.56-4.43232.0955-2.47309-2.22391-4.57819-4.67682-4.35477-2.83612.0982-4.92313 3.30091-3.83059 5.93366.46608 1.69304 2.24618 2.82416 3.94741 2.85343zm-.12-3.96c.48654.26395-.34669-.17201-.0576-.18351-.17967.22348-.18013-.61009-.0454-.55338.50442-.3505-.38202.0627.58311-.22316-.33059.0681.21665.12905.1837.21598.18118.38446.19114-.16983.0563.62402.30625-.48666-.49589.46717-.19709.1463-.13282-.005-.67748.19068-.0429.0937" fill="#c00000"/><path d="m177.62 165.68c1.44 0 2.52-1.08 2.52-2.52 0-1.32-1.08-2.4-2.52-2.4-1.32 0-2.4 1.08-2.4 2.4 0 1.44 1.08 2.52 2.4 2.52" fill="#ed7d31"/><path d="m177.50081 167.60347c2.47901.24522 4.72126-1.96654 4.56-4.43232.0955-2.47309-2.22391-4.57819-4.67682-4.35477-2.83612.0982-4.92313 3.30091-3.83059 5.93366.46608 1.69304 2.24618 2.82416 3.94741 2.85343zm-.12-3.96c.48654.26395-.34669-.17201-.0576-.18351-.17967.22348-.18013-.61009-.0454-.55338.50442-.3505-.38202.0627.58311-.22316-.33059.0681.21665.12905.1837.21598.18118.38446.19114-.16983.0563.62402.30625-.48666-.49589.46717-.19709.1463-.13282-.005-.67748.19068-.0429.0937" fill="#c00000"/><path d="m184.7 179.12c1.44 0 2.52-1.08 2.52-2.52 0-1.32-1.08-2.4-2.52-2.4-1.32 0-2.4 1.08-2.4 2.4 0 1.44 1.08 2.52 2.4 2.52" fill="#ed7d31"/><path d="m184.58081 181.04347c2.47901.24522 4.72126-1.96654 4.56-4.43232.0955-2.47309-2.22391-4.57819-4.67682-4.35477-2.83612.0982-4.92313 3.30091-3.83059 5.93366.46608 1.69304 2.24618 2.82416 3.94741 2.85343zm-.12-3.96c.48654.26395-.34669-.17201-.0576-.18351-.17967.22348-.18013-.61009-.0454-.55338.50442-.3505-.38202.0627.58311-.22316-.33059.0681.21665.12905.1837.21598.18118.38446.19114-.16983.0563.62402.30625-.48666-.49589.46717-.19709.1463-.13282-.005-.67748.19068-.0429.0937" fill="#c00000"/><path d="m191.78 192.68c1.44 0 2.52-1.08 2.52-2.52 0-1.32-1.08-2.4-2.52-2.4-1.32 0-2.4 1.08-2.4 2.4 0 1.44 1.08 2.52 2.4 2.52" fill="#ed7d31"/><path d="m191.66081 194.60347c2.47901.24522 4.72126-1.96654 4.56-4.43232.0955-2.47309-2.22391-4.57819-4.67682-4.35477-2.83612.0982-4.92313 3.30091-3.83059 5.93366.46608 1.69304 2.24618 2.82416 3.94741 2.85343zm-.12-3.96c.48654.26395-.34669-.17201-.0576-.18351-.17962.22348-.18015-.61009-.0455-.55338.50442-.3505-.38202.0627.58311-.22316-.33059.0681.21665.12905.1837.21598.18118.38446.19114-.16983.0563.62402.30625-.48666-.49589.46717-.19709.1463-.13282-.005-.67748.19068-.0429.0937" fill="#c00000"/><path d="m198.86 206.12c1.44 0 2.52-1.08 2.52-2.52 0-1.32-1.08-2.4-2.52-2.4-1.32 0-2.4 1.08-2.4 2.4 0 1.44 1.08 2.52 2.4 2.52" fill="#ed7d31"/><path d="m198.74081 208.04347c2.47901.24522 4.72126-1.96654 4.56-4.43232.0955-2.47309-2.22391-4.57819-4.67682-4.35477-2.83612.0982-4.92313 3.30091-3.83059 5.93366.46608 1.69304 2.24618 2.82416 3.94741 2.85343zm-.12-3.96c.48654.26395-.34669-.17201-.0576-.18351-.17967.22348-.18013-.61009-.0454-.55338.50442-.3505-.38202.0627.58311-.22316-.33059.0681.21665.12905.1837.21598.18118.38446.19114-.16983.0563.62402.30625-.48666-.49589.46717-.19709.1463-.13282-.005-.67748.19068-.0429.0937" fill="#c00000"/><path d="m205.94 219.56c1.44 0 2.52-1.08 2.52-2.52 0-1.32-1.08-2.4-2.52-2.4-1.32 0-2.4 1.08-2.4 2.4 0 1.44 1.08 2.52 2.4 2.52" fill="#ed7d31"/><path d="m205.82081 221.48347c2.47901.24522 4.72126-1.96654 4.56-4.43232.0955-2.47309-2.22391-4.57819-4.67682-4.35477-2.83612.0982-4.92313 3.30091-3.83059 5.93366.46608 1.69304 2.24618 2.82416 3.94741 2.85343zm-.12-3.96c.48654.26395-.34669-.17201-.0576-.18351-.17962.22348-.18015-.61009-.0455-.55338.50442-.3505-.38202.0627.58311-.22316-.33059.0681.21665.12905.1837.21598.18118.38446.19114-.16983.0563.62402.30625-.48666-.49589.46717-.19709.1463-.13282-.005-.67748.19068-.0429.0937" fill="#c00000"/><path d="m213.14 233.12c1.44 0 2.52-1.08 2.52-2.52 0-1.32-1.08-2.4-2.52-2.4-1.32 0-2.4 1.08-2.4 2.4 0 1.44 1.08 2.52 2.4 2.52" fill="#ed7d31"/><path d="m213.02081 235.04347c2.47901.24522 4.72126-1.96654 4.56-4.43232.0955-2.47309-2.22391-4.57819-4.67682-4.35477-2.83612.0982-4.92313 3.30091-3.83059 5.93366.46608 1.69304 2.24618 2.82416 3.94741 2.85343zm-.12-3.96c.48654.26395-.34669-.17201-.0576-.18351-.17967.22348-.18013-.61009-.0454-.55338.50442-.3505-.38202.0627.58311-.22316-.33059.0681.21665.12905.1837.21598.18118.38446.19114-.16983.0563.62402.30625-.48666-.49589.46717-.19709.1463-.13282-.005-.67748.19068-.0429.0937" fill="#c00000"/><path d="m220.22 246.56c1.44 0 2.52-1.08 2.52-2.52 0-1.32-1.08-2.4-2.52-2.4-1.32 0-2.4 1.08-2.4 2.4 0 1.44 1.08 2.52 2.4 2.52" fill="#ed7d31"/><path d="m220.10081 248.48347c2.47901.24522 4.72126-1.96654 4.56-4.43232.0955-2.47309-2.22391-4.57819-4.67682-4.35477-2.83612.0982-4.92313 3.30091-3.83059 5.93366.46608 1.69304 2.24618 2.82416 3.94741 2.85343zm-.12-3.96c.48654.26395-.34669-.17201-.0576-.18351-.17962.22348-.18015-.61009-.0455-.55338.50442-.3505-.38202.0627.58311-.22316-.33059.0681.21665.12905.1837.21598.18118.38446.19114-.16983.0563.62402.30625-.48666-.49589.46717-.19709.1463-.13282-.005-.67748.19068-.0429.0937" fill="#c00000"/><path d="m227.3 260.12c1.44 0 2.52-1.08 2.52-2.52 0-1.32-1.08-2.4-2.52-2.4-1.32 0-2.4 1.08-2.4 2.4 0 1.44 1.08 2.52 2.4 2.52" fill="#ed7d31"/><path d="m227.18081 262.04347c2.47901.24522 4.72126-1.96654 4.56-4.43232.0955-2.47309-2.22391-4.57819-4.67682-4.35477-2.83612.0982-4.92313 3.30091-3.83059 5.93366.46608 1.69304 2.24618 2.82416 3.94741 2.85343zm-.12-3.96c.48654.26395-.34669-.17201-.0576-.18351-.17967.22348-.18013-.61009-.0454-.55338.50442-.3505-.38202.0627.58311-.22316-.33059.0681.21665.12905.1837.21598.18118.38446.19114-.16983.0563.62402.30625-.48666-.49589.46717-.19709.14631-.13282-.005-.67748.19067-.0429.0937" fill="#c00000"/><path d="m234.38 273.56c1.44 0 2.52-1.08 2.52-2.52 0-1.32-1.08-2.4-2.52-2.4-1.32 0-2.4 1.08-2.4 2.4 0 1.44 1.08 2.52 2.4 2.52" fill="#ed7d31"/><path d="m234.26081 275.48347c2.47901.24522 4.72126-1.96654 4.56-4.43232.0955-2.47309-2.22391-4.57819-4.67682-4.35477-2.83612.0982-4.92313 3.30091-3.83059 5.93366.46608 1.69304 2.24618 2.82416 3.94741 2.85343zm-.12-3.96c.48654.26395-.34669-.17201-.0576-.18351-.17962.22348-.18015-.61009-.0455-.55338.50442-.3505-.38202.0627.58311-.22316-.33059.0681.21665.12905.1837.21598.18118.38446.19114-.16983.0563.62402.30625-.48666-.49589.46717-.19709.14631-.13282-.005-.67748.19067-.0429.0937" fill="#c00000"/><path d="m241.58 287.12c1.44 0 2.52-1.08 2.52-2.52 0-1.32-1.08-2.4-2.52-2.4-1.32 0-2.4 1.08-2.4 2.4 0 1.44 1.08 2.52 2.4 2.52" fill="#ed7d31"/><path d="m241.46081 289.04347c2.47901.24522 4.72126-1.96654 4.56-4.43232.0955-2.47309-2.22391-4.57819-4.67682-4.35477-2.83612.0982-4.92313 3.30091-3.83059 5.93366.46608 1.69304 2.24618 2.82416 3.94741 2.85343zm-.12-3.96c.48654.26395-.34669-.17201-.0576-.18351-.17967.22348-.18013-.61009-.0454-.55338.50442-.3505-.38202.0627.58311-.22316-.33059.0681.21665.12905.1837.21598.18118.38446.19114-.16983.0563.62402.30625-.48666-.49589.46717-.19709.14631-.13282-.005-.67748.19067-.0429.0937" fill="#c00000"/><path d="m248.66 300.56c1.44 0 2.52-1.08 2.52-2.52 0-1.32-1.08-2.4-2.52-2.4-1.32 0-2.4 1.08-2.4 2.4 0 1.44 1.08 2.52 2.4 2.52" fill="#ed7d31"/><path d="m248.54081 302.48347c2.47901.24522 4.72126-1.96654 4.56-4.43232.0955-2.47309-2.22391-4.57819-4.67682-4.35477-2.83612.0982-4.92313 3.30091-3.83059 5.93366.46608 1.69304 2.24618 2.82416 3.94741 2.85343zm-.12-3.96c.48654.26395-.34669-.17201-.0576-.18351-.17962.22348-.18015-.61009-.0455-.55338.50442-.3505-.38202.0627.58311-.22316-.33059.0681.21665.12905.1837.21598.18118.38446.19114-.16983.0563.62402.30625-.48666-.49589.46717-.19709.14631-.13282-.005-.67748.19067-.0429.0937" fill="#c00000"/><path d="m255.74 314.12c1.44 0 2.52-1.08 2.52-2.52 0-1.32-1.08-2.4-2.52-2.4-1.32 0-2.4 1.08-2.4 2.4 0 1.44 1.08 2.52 2.4 2.52" fill="#ed7d31"/><path d="m255.62081 316.04347c2.47901.24522 4.72126-1.96654 4.56-4.43232.0955-2.47309-2.22391-4.57819-4.67682-4.35477-2.83612.0982-4.92313 3.30091-3.83059 5.93366.46608 1.69304 2.24618 2.82416 3.94741 2.85343zm-.12-3.96c.48654.26395-.34669-.17201-.0576-.18351-.17967.22348-.18013-.61009-.0454-.55338.50442-.3505-.38202.0627.58311-.22316-.33059.0681.21665.12905.1837.21598.18118.38446.19114-.16983.0563.62402.30625-.48666-.49589.46717-.19709.14631-.13282-.005-.67748.19067-.0429.0937" fill="#c00000"/><path d="m262.82 327.56c1.44 0 2.52-1.08 2.52-2.52 0-1.32-1.08-2.4-2.52-2.4-1.32 0-2.4 1.08-2.4 2.4 0 1.44 1.08 2.52 2.4 2.52" fill="#ed7d31"/><path d="m262.70081 329.48347c2.47901.24522 4.72126-1.96654 4.56-4.43232.0955-2.47309-2.22391-4.57819-4.67682-4.35477-2.83612.0982-4.92313 3.30091-3.83059 5.93366.46608 1.69304 2.24618 2.82416 3.94741 2.85343zm-.12-3.96c.48654.26395-.34669-.17201-.0576-.18351-.17962.22348-.18015-.61009-.0455-.55338.50442-.3505-.38202.0627.58311-.22316-.33059.0681.21665.12905.1837.21598.18118.38446.19114-.16983.0563.62402.30625-.48666-.49589.46717-.19709.14631-.13282-.005-.67748.19067-.0429.0937" fill="#c00000"/><path d="m269.9 341c1.44 0 2.52-1.08 2.52-2.52 0-1.32-1.08-2.4-2.52-2.4-1.32 0-2.4 1.08-2.4 2.4 0 1.44 1.08 2.52 2.4 2.52" fill="#ed7d31"/><path d="m269.78081 342.92347c2.47901.24522 4.72126-1.96654 4.56-4.43232.0955-2.47309-2.22391-4.57819-4.67682-4.35477-2.83612.0982-4.92313 3.30091-3.83059 5.93366.46608 1.69304 2.24618 2.82416 3.94741 2.85343zm-.12-3.96c.48654.26395-.34669-.17201-.0576-.18351-.17967.22348-.18013-.61009-.0455-.55338.50442-.3505-.38202.0627.58311-.22316-.33059.0681.21665.12905.1837.21598.18118.38446.19114-.16983.0563.62402.30625-.48666-.49589.46717-.19709.14631-.13282-.005-.67748.19067-.0429.0937" fill="#c00000"/><path d="m277.1 354.56c1.44 0 2.52-1.08 2.52-2.52 0-1.32-1.08-2.4-2.52-2.4-1.32 0-2.4 1.08-2.4 2.4 0 1.44 1.08 2.52 2.4 2.52" fill="#ed7d31"/><path d="m276.98081 356.48347c2.47901.24522 4.72126-1.96654 4.56-4.43232.0955-2.47309-2.22391-4.57819-4.67682-4.35477-2.83612.0982-4.92313 3.30091-3.83059 5.93366.46608 1.69304 2.24618 2.82416 3.94741 2.85343zm-.12-3.96c.48654.26395-.34669-.17201-.0576-.18351-.17967.22348-.18013-.61009-.0454-.55338.50442-.3505-.38202.0627.58311-.22316-.33059.0681.21665.12905.1837.21598.18118.38446.19114-.16983.0563.62402.30625-.48666-.49589.46717-.19709.14631-.13282-.005-.67748.19067-.0429.0937" fill="#c00000"/><path d="m284.18 368c1.44 0 2.52-1.08 2.52-2.52 0-1.32-1.08-2.4-2.52-2.4-1.32 0-2.4 1.08-2.4 2.4 0 1.44 1.08 2.52 2.4 2.52" fill="#ed7d31"/><path d="m284.06081 369.92347c2.47901.24522 4.72126-1.96654 4.56-4.43232.0955-2.47309-2.22391-4.57819-4.67682-4.35477-2.83612.0982-4.92313 3.30091-3.83059 5.93366.46608 1.69304 2.24618 2.82416 3.94741 2.85343zm-.12-3.96c.48654.26395-.34669-.17201-.0576-.18351-.17962.22348-.18015-.61009-.0455-.55338.50442-.3505-.38202.0627.58311-.22316-.33059.0681.21665.12905.1837.21598.18118.38446.19114-.16983.0563.62402.30625-.48666-.49589.46717-.19709.14631-.13282-.005-.67748.19067-.0429.0937" fill="#c00000"/><path d="m291.26 381.56c1.44 0 2.52-1.08 2.52-2.52 0-1.32-1.08-2.4-2.52-2.4-1.32 0-2.4 1.08-2.4 2.4 0 1.44 1.08 2.52 2.4 2.52" fill="#ed7d31"/><path d="m291.14081 383.48347c2.47901.24522 4.72126-1.96654 4.56-4.43232.0955-2.47309-2.22391-4.57819-4.67682-4.35477-2.83612.0982-4.92313 3.30091-3.83059 5.93366.46608 1.69304 2.24618 2.82416 3.94741 2.85343zm-.12-3.96c.48654.26395-.34669-.17201-.0576-.18351-.17962.22348-.18015-.61009-.0455-.55338.50442-.3505-.38202.0627.58311-.22316-.33059.0681.21665.12905.1837.21598.18118.38446.19114-.16983.0563.62402.30625-.48666-.49589.46717-.19709.14631-.13282-.005-.67748.19067-.0429.0937" fill="#c00000"/><path d="m298.34 395c1.44 0 2.52-1.08 2.52-2.52 0-1.32-1.08-2.4-2.52-2.4-1.32 0-2.4 1.08-2.4 2.4 0 1.44 1.08 2.52 2.4 2.52" fill="#ed7d31"/><path d="m298.22081 396.92347c2.47901.24522 4.72126-1.96654 4.56-4.43232.0955-2.47309-2.22391-4.57819-4.67682-4.35477-2.83612.0982-4.92313 3.30091-3.83059 5.93366.46608 1.69304 2.24618 2.82416 3.94741 2.85343zm-.12-3.96c.48654.26395-.34669-.17201-.0576-.18351-.17967.22348-.18013-.61009-.0454-.55338.50442-.3505-.38202.0627.58311-.22316-.33059.0681.21665.12905.1837.21598.18118.38446.19114-.16983.0563.62402.30625-.48666-.49589.46717-.19709.14631-.13282-.005-.67748.19067-.0429.0937" fill="#c00000"/><path d="m305.54 408.56c1.44 0 2.52-1.08 2.52-2.52 0-1.32-1.08-2.4-2.52-2.4-1.32 0-2.4 1.08-2.4 2.4 0 1.44 1.08 2.52 2.4 2.52" fill="#ed7d31"/><path d="m305.42081 410.48347c2.47901.24522 4.72126-1.96654 4.56-4.43232.0955-2.47309-2.22391-4.57819-4.67682-4.35477-2.83612.0982-4.92313 3.30091-3.83059 5.93366.46608 1.69304 2.24618 2.82416 3.94741 2.85343zm-.12-3.96c.48654.26395-.34669-.17201-.0576-.18351-.17967.22348-.18013-.61009-.0454-.55338.50442-.3505-.38202.0627.58311-.22316-.33059.0681.21665.12905.1837.21598.18118.38446.19114-.16983.0563.62402.30625-.48666-.49589.46717-.19709.14631-.13282-.005-.67748.19067-.0429.0937" fill="#c00000"/><path d="m312.62 422c1.44 0 2.52-1.08 2.52-2.52 0-1.32-1.08-2.4-2.52-2.4-1.32 0-2.4 1.08-2.4 2.4 0 1.44 1.08 2.52 2.4 2.52" fill="#ed7d31"/><path d="m312.50081 423.92347c2.47901.24522 4.72126-1.96654 4.56-4.43232.0955-2.47309-2.22391-4.57819-4.67682-4.35477-2.83612.0982-4.92313 3.30091-3.83059 5.93366.46608 1.69304 2.24618 2.82416 3.94741 2.85343zm-.12-3.96c.48654.26395-.34669-.17201-.0576-.18351-.17962.22348-.18015-.61009-.0455-.55338.50442-.3505-.38202.0627.58311-.22316-.33059.0681.21665.12905.1837.21598.18118.38446.19114-.16983.0563.62402.30625-.48666-.49589.46717-.19709.14631-.13282-.005-.67748.19067-.0429.0937" fill="#c00000"/><path d="m319.7 435.44c1.44 0 2.52-1.08 2.52-2.52 0-1.32-1.08-2.4-2.52-2.4-1.32 0-2.4 1.08-2.4 2.4 0 1.44 1.08 2.52 2.4 2.52" fill="#ed7d31"/><path d="m319.58081 437.36347c2.47901.24522 4.72126-1.96654 4.56-4.43232.0955-2.47309-2.22391-4.57819-4.67682-4.35477-2.83612.0982-4.92313 3.30091-3.83059 5.93366.46608 1.69304 2.24618 2.82416 3.94741 2.85343zm-.12-3.96c.48654.26395-.34669-.17201-.0576-.18351-.17962.22348-.18015-.61009-.0455-.55338.50442-.3505-.38202.0627.58311-.22316-.33059.0681.21665.12905.1837.21598.18118.38446.19114-.16983.0563.62402.30625-.48666-.49589.46717-.19709.14631-.13282-.005-.67748.19067-.0429.0937" fill="#c00000"/><path d="m326.78 449c1.44 0 2.52-1.08 2.52-2.52 0-1.32-1.08-2.4-2.52-2.4-1.32 0-2.4 1.08-2.4 2.4 0 1.44 1.08 2.52 2.4 2.52" fill="#ed7d31"/><path d="m326.66081 450.92347c2.47901.24522 4.72126-1.96654 4.56-4.43232.0955-2.47309-2.22391-4.57819-4.67682-4.35477-2.83612.0982-4.92313 3.30091-3.83059 5.93366.46608 1.69304 2.24618 2.82416 3.94741 2.85343zm-.12-3.96c.48654.26395-.34669-.17201-.0576-.18351-.17967.22348-.18013-.61009-.0454-.55338.50442-.3505-.38202.0627.58311-.22316-.33059.0681.21665.12905.1837.21598.18118.38446.19114-.16983.0563.62402.30625-.48666-.49589.46717-.19709.14631-.13282-.005-.67748.19067-.0429.0937" fill="#c00000"/><path d="m333.98 462.44c1.44 0 2.52-1.08 2.52-2.52 0-1.32-1.08-2.4-2.52-2.4-1.32 0-2.4 1.08-2.4 2.4 0 1.44 1.08 2.52 2.4 2.52" fill="#ed7d31"/><path d="m333.86081 464.36347c2.47901.24522 4.72126-1.96654 4.56-4.43232.0955-2.47309-2.22391-4.57819-4.67682-4.35477-2.83612.0982-4.92313 3.30091-3.83059 5.93366.46608 1.69304 2.24618 2.82416 3.94741 2.85343zm-.12-3.96c.48654.26395-.34669-.17201-.0576-.18351-.17967.22348-.18013-.61009-.0454-.55338.50442-.3505-.38202.0627.58311-.22316-.33059.0681.21665.12905.1837.21598.18118.38446.19114-.16983.0563.62402.30625-.48666-.49589.46717-.19709.14631-.13282-.005-.67748.19067-.0429.0937" fill="#c00000"/><path d="m341.06 476c1.44 0 2.52-1.08 2.52-2.52 0-1.32-1.08-2.4-2.52-2.4-1.32 0-2.4 1.08-2.4 2.4 0 1.44 1.08 2.52 2.4 2.52" fill="#ed7d31"/><path d="m340.94081 477.92347c2.47901.24522 4.72126-1.96654 4.56-4.43232.0955-2.47309-2.22391-4.57819-4.67682-4.35477-2.83612.0982-4.92313 3.30091-3.83059 5.93366.46608 1.69304 2.24618 2.82416 3.94741 2.85343zm-.12-3.96c.48654.26395-.34669-.17201-.0576-.18351-.17962.22348-.18015-.61009-.0455-.55338.50442-.3505-.38202.0627.58311-.22316-.33059.0681.21665.12905.1837.21598.18118.38446.19114-.16983.0563.62402.30625-.48666-.49589.46717-.19709.14631-.13282-.005-.67748.19067-.0429.0937" fill="#c00000"/><path d="m348.14 489.44c1.44 0 2.52-1.08 2.52-2.52 0-1.32-1.08-2.4-2.52-2.4-1.32 0-2.4 1.08-2.4 2.4 0 1.44 1.08 2.52 2.4 2.52" fill="#ed7d31"/><path d="m348.02081 491.36347c2.47901.24522 4.72126-1.96654 4.56-4.43232.0955-2.47309-2.22391-4.57819-4.67682-4.35477-2.83612.0982-4.92313 3.30091-3.83059 5.93366.46608 1.69304 2.24618 2.82416 3.94741 2.85343zm-.12-3.96c.48654.26395-.34669-.17201-.0576-.18351-.17962.22348-.18015-.61009-.0455-.55338.50442-.3505-.38202.0627.58311-.22316-.33059.0681.21665.12905.1837.21598.18118.38446.19114-.16983.0563.62402.30625-.48666-.49589.46717-.19709.14631-.13282-.005-.67748.19067-.0429.0937" fill="#c00000"/><path d="m355.22 503c1.44 0 2.52-1.08 2.52-2.52 0-1.32-1.08-2.4-2.52-2.4-1.32 0-2.4 1.08-2.4 2.4 0 1.44 1.08 2.52 2.4 2.52" fill="#ed7d31"/><path d="m355.10081 504.92347c2.47901.24522 4.72126-1.96654 4.56-4.43232.0955-2.47309-2.22391-4.57819-4.67682-4.35477-2.83612.0982-4.92313 3.30091-3.83059 5.93366.46608 1.69304 2.24618 2.82416 3.94741 2.85343zm-.12-3.96c.48654.26395-.34669-.17201-.0576-.18351-.17967.22348-.18013-.61009-.0454-.55338.50442-.3505-.38202.0627.58311-.22316-.33059.0681.21665.12905.1837.21598.18118.38446.19114-.16983.0563.62402.30625-.48666-.49589.46717-.19709.14631-.13282-.005-.67748.19067-.0429.0937" fill="#c00000"/><path d="m362.3 516.44c1.44 0 2.52-1.08 2.52-2.52 0-1.32-1.08-2.4-2.52-2.4-1.32 0-2.4 1.08-2.4 2.4 0 1.44 1.08 2.52 2.4 2.52" fill="#ed7d31"/><path d="m362.18081 518.36347c2.47901.24522 4.72126-1.96654 4.56-4.43232.0955-2.47309-2.22391-4.57819-4.67682-4.35477-2.83612.0982-4.92313 3.30091-3.83059 5.93366.46608 1.69304 2.24618 2.82416 3.94741 2.85343zm-.12-3.96c.48654.26395-.34669-.17201-.0576-.18351-.17962.22348-.18015-.61009-.0455-.55338.50442-.35055-.38203.0629.58311-.22306-.33059.0681.21665.12905.1837.21598.18118.38446.19114-.16983.0563.62402.30625-.48666-.49589.46717-.19709.14631-.13282-.005-.67748.19067-.0429.0937" fill="#c00000"/><path d="m369.5 530c1.44 0 2.52-1.08 2.52-2.52 0-1.32-1.08-2.4-2.52-2.4-1.32 0-2.4 1.08-2.4 2.4 0 1.44 1.08 2.52 2.4 2.52" fill="#ed7d31"/><path d="m369.38081 531.92347c2.47901.24522 4.72126-1.96654 4.56-4.43232.0955-2.47309-2.22391-4.57819-4.67682-4.35477-2.83612.0982-4.92313 3.30091-3.83059 5.93366.46608 1.69304 2.24618 2.82416 3.94741 2.85343zm-.12-3.96c.48654.26395-.34669-.17201-.0576-.18351-.17962.22348-.18015-.61009-.0455-.55338.50442-.3505-.38202.0627.58311-.22316-.33059.0681.21665.12905.1837.21598.18118.38446.19114-.16983.0563.62402.30625-.48666-.49589.46717-.19709.1463-.13282-.005-.67748.19068-.0429.0937" fill="#c00000"/><path d="m376.58 543.44c1.44 0 2.52-1.08 2.52-2.52 0-1.32-1.08-2.4-2.52-2.4-1.32 0-2.4 1.08-2.4 2.4 0 1.44 1.08 2.52 2.4 2.52" fill="#ed7d31"/><path d="m376.46081 545.36347c2.47901.24522 4.72126-1.96654 4.56-4.43232.0955-2.47309-2.22391-4.57819-4.67682-4.35477-2.83612.0982-4.92313 3.30091-3.83059 5.93366.46608 1.69304 2.24618 2.82416 3.94741 2.85343zm-.12-3.96c.48654.26395-.34669-.17201-.0576-.18351-.17962.22348-.18015-.61009-.0455-.55338.50442-.35055-.38203.0629.58311-.22306-.33059.0681.21665.12905.1837.21598.18118.38446.19114-.16983.0563.62402.30625-.48666-.49589.46717-.19709.14631-.13282-.005-.67748.19067-.0429.0937" fill="#c00000"/><path d="m383.66 556.88c1.44 0 2.52-1.08 2.52-2.52 0-1.32-1.08-2.4-2.52-2.4-1.32 0-2.4 1.08-2.4 2.4 0 1.44 1.08 2.52 2.4 2.52" fill="#ed7d31"/><path d="m383.54081 558.80347c2.47901.24522 4.72126-1.96654 4.56-4.43232.0955-2.47309-2.22391-4.57819-4.67682-4.35477-2.83612.0982-4.92313 3.30091-3.83059 5.93366.46608 1.69304 2.24618 2.82416 3.94741 2.85343zm-.12-3.96c.48654.26395-.34669-.17201-.0576-.18351-.17967.22348-.18013-.61009-.0454-.55338.50442-.3505-.38202.0627.58311-.22316-.33059.0681.21665.12905.1837.21598.18118.38446.19114-.16983.0563.62402.30625-.48666-.49589.46717-.19709.14631-.13282-.005-.67748.19067-.0429.0937" fill="#c00000"/><path d="m390.74 570.44c1.44 0 2.52-1.08 2.52-2.52 0-1.32-1.08-2.4-2.52-2.4-1.32 0-2.4 1.08-2.4 2.4 0 1.44 1.08 2.52 2.4 2.52" fill="#ed7d31"/><path d="m390.62081 572.36347c2.47901.24522 4.72126-1.96654 4.56-4.43232.0955-2.47309-2.22391-4.57819-4.67682-4.35477-2.83612.0982-4.92313 3.30091-3.83059 5.93366.46608 1.69304 2.24618 2.82416 3.94741 2.85343zm-.12-3.96c.48654.26395-.34669-.17201-.0576-.18351-.17962.22348-.18015-.61009-.0455-.55338.50442-.35055-.38203.0629.58311-.22306-.33059.0681.21665.12905.1837.21598.18118.38446.19114-.16983.0563.62402.30625-.48666-.49589.46717-.19709.14631-.13282-.005-.67748.19067-.0429.0937" fill="#c00000"/><path d="m397.94 583.88c1.44 0 2.52-1.08 2.52-2.52 0-1.32-1.08-2.4-2.52-2.4-1.32 0-2.4 1.08-2.4 2.4 0 1.44 1.08 2.52 2.4 2.52" fill="#ed7d31"/><path d="m397.82081 585.80347c2.47901.24522 4.72126-1.96654 4.56-4.43232.0955-2.47309-2.22391-4.57819-4.67682-4.35477-2.83612.0982-4.92313 3.30091-3.83059 5.93366.46608 1.69304 2.24618 2.82416 3.94741 2.85343zm-.12-3.96c.48654.26395-.34669-.17201-.0576-.18351-.17962.22348-.18015-.61009-.0455-.55338.50442-.3505-.38202.0627.58311-.22316-.33059.0681.21665.12905.1837.21598.18118.38446.19114-.16983.0563.62402.30625-.48666-.49589.46717-.19709.14631-.13282-.005-.67748.19067-.0429.0937" fill="#c00000"/><path d="m405.02 597.44c1.44 0 2.52-1.08 2.52-2.52 0-1.32-1.08-2.4-2.52-2.4-1.32 0-2.4 1.08-2.4 2.4 0 1.44 1.08 2.52 2.4 2.52" fill="#ed7d31"/><path d="m404.90081 599.36347c2.47901.24522 4.72126-1.96654 4.56-4.43232.0955-2.47309-2.22391-4.57819-4.67682-4.35477-2.83612.0982-4.92313 3.30091-3.83059 5.93366.46608 1.69304 2.24618 2.82416 3.94741 2.85343zm-.12-3.96c.48654.26395-.34669-.17201-.0576-.18351-.17962.22348-.18015-.61009-.0455-.55338.50442-.35055-.38203.0629.58311-.22306-.33059.0681.21665.12905.1837.21598.18118.38446.19114-.16983.0563.62402.30625-.48666-.49589.46717-.19709.14631-.13282-.005-.67748.19067-.0429.0937" fill="#c00000"/><path d="m412.1 610.88c1.44 0 2.52-1.08 2.52-2.52 0-1.32-1.08-2.4-2.52-2.4-1.32 0-2.4 1.08-2.4 2.4 0 1.44 1.08 2.52 2.4 2.52" fill="#ed7d31"/><path d="m411.98081 612.80347c2.47901.24522 4.72126-1.96654 4.56-4.43232.0955-2.47309-2.22391-4.57819-4.67682-4.35477-2.83612.0982-4.92313 3.30091-3.83059 5.93366.46608 1.69304 2.24618 2.82416 3.94741 2.85343zm-.12-3.96c.48654.26395-.34669-.17201-.0576-.18351-.17967.22348-.18013-.61009-.0454-.55338.50442-.3505-.38202.0627.58311-.22316-.33059.0681.21665.12905.1837.21598.18118.38446.19114-.16983.0563.62402.30625-.48666-.49589.46717-.19709.14631-.13282-.005-.67748.19067-.0429.0937" fill="#c00000"/><path d="m419.18 624.44c1.44 0 2.52-1.08 2.52-2.52 0-1.32-1.08-2.4-2.52-2.4-1.32 0-2.4 1.08-2.4 2.4 0 1.44 1.08 2.52 2.4 2.52" fill="#ed7d31"/><path d="m419.06081 626.36347c2.47901.24522 4.72126-1.96654 4.56-4.43232.0955-2.47309-2.22391-4.57819-4.67682-4.35477-2.83612.0982-4.92313 3.30091-3.83059 5.93366.46608 1.69304 2.24618 2.82416 3.94741 2.85343zm-.12-3.96c.48654.26395-.34669-.17201-.0576-.18351-.17962.22348-.18015-.61009-.0455-.55338.50442-.35055-.38203.0629.58311-.22306-.33059.0681.21665.12905.1837.21598.18118.38446.19114-.16983.0563.62402.30625-.48666-.49589.46717-.19709.14631-.13282-.005-.67748.19067-.0429.0937" fill="#c00000"/><path d="m426.26 637.88c1.44 0 2.52-1.08 2.52-2.52 0-1.32-1.08-2.4-2.52-2.4-1.32 0-2.4 1.08-2.4 2.4 0 1.44 1.08 2.52 2.4 2.52" fill="#ed7d31"/><path d="m426.14081 639.80347c2.47901.24522 4.72126-1.96654 4.56-4.43232.0955-2.47309-2.22391-4.57819-4.67682-4.35477-2.83612.0982-4.92313 3.30091-3.83059 5.93366.46608 1.69304 2.24618 2.82416 3.94741 2.85343zm-.12-3.96c.48654.26395-.34669-.17201-.0576-.18351-.17962.22348-.18015-.61009-.0455-.55338.50442-.3505-.38202.0627.58311-.22316-.33059.0681.21665.12905.1837.21598.18118.38446.19114-.16983.0563.62402.30625-.48666-.49589.46717-.19709.14631-.13282-.005-.67748.19067-.0429.0937" fill="#c00000"/><path d="m433.46 651.32c1.44 0 2.52-1.08 2.52-2.52 0-1.32-1.08-2.4-2.52-2.4-1.32 0-2.4 1.08-2.4 2.4 0 1.44 1.08 2.52 2.4 2.52" fill="#ed7d31"/><path d="m433.34081 653.24347c2.47901.24522 4.72126-1.96654 4.56-4.43232.0955-2.47309-2.22391-4.57819-4.67682-4.35477-2.83612.0982-4.92313 3.30091-3.83059 5.93366.46608 1.69304 2.24618 2.82416 3.94741 2.85343zm-.12-3.96c.48654.26395-.34669-.17201-.0576-.18351-.17962.22348-.18015-.61009-.0455-.55338.50442-.35055-.38203.0629.58311-.22306-.33059.0681.21665.12905.1837.21598.18118.38446.19114-.16983.0563.62402.30625-.48666-.49589.46717-.19709.14631-.13282-.005-.67748.19067-.0429.0937" fill="#c00000"/><path d="m440.54 664.88c1.44 0 2.52-1.08 2.52-2.52 0-1.32-1.08-2.4-2.52-2.4-1.32 0-2.4 1.08-2.4 2.4 0 1.44 1.08 2.52 2.4 2.52" fill="#ed7d31"/><path d="m440.42081 666.80347c2.47901.24522 4.72126-1.96654 4.56-4.43232.0955-2.47309-2.22391-4.57819-4.67682-4.35477-2.83612.0982-4.92313 3.30091-3.83059 5.93366.46608 1.69304 2.24618 2.82416 3.94741 2.85343zm-.12-3.96c.48654.26395-.34669-.17201-.0576-.18351-.17967.22348-.18013-.61009-.0454-.55338.50442-.3505-.38202.0627.58311-.22316-.33059.0681.21665.12905.1837.21598.18118.38446.19114-.16983.0563.62402.30625-.48666-.49589.46717-.19709.14631-.13282-.005-.67748.19067-.0429.0937" fill="#c00000"/><path d="m447.62 678.32c1.44 0 2.52-1.08 2.52-2.52 0-1.32-1.08-2.4-2.52-2.4-1.32 0-2.4 1.08-2.4 2.4 0 1.44 1.08 2.52 2.4 2.52" fill="#ed7d31"/><path d="m447.50081 680.24347c2.47901.24522 4.72126-1.96654 4.56-4.43232.0955-2.47309-2.22391-4.57819-4.67682-4.35477-2.83612.0982-4.92313 3.30091-3.83059 5.93366.46608 1.69304 2.24618 2.82416 3.94741 2.85343zm-.12-3.96c.48654.26395-.34669-.17201-.0576-.18351-.17962.22348-.18015-.61009-.0455-.55338.50442-.35055-.38203.0629.58311-.22306-.33059.0681.21665.12905.1837.21598.18118.38446.19114-.16983.0563.62402.30625-.48666-.49589.46717-.19709.14631-.13282-.005-.67748.19067-.0429.0937" fill="#c00000"/><path d="m454.7 691.88c1.44 0 2.52-1.08 2.52-2.52 0-1.32-1.08-2.4-2.52-2.4-1.32 0-2.4 1.08-2.4 2.4 0 1.44 1.08 2.52 2.4 2.52" fill="#ed7d31"/><path d="m454.58081 693.80347c2.47901.24522 4.72126-1.96654 4.56-4.43232.0955-2.47309-2.22391-4.57819-4.67682-4.35477-2.83612.0982-4.92313 3.30091-3.83059 5.93366.46608 1.69304 2.24618 2.82416 3.94741 2.85343zm-.12-3.96c.48654.26395-.34669-.17201-.0576-.18351-.17962.22348-.18015-.61009-.0455-.55338.50442-.3505-.38202.0627.58311-.22316-.33059.0681.21665.12905.1837.21598.18118.38446.19114-.16983.0563.62402.30625-.48666-.49589.46717-.19709.14631-.13282-.005-.67748.19067-.0429.0937" fill="#c00000"/><path d="m461.9 705.32c1.44 0 2.52-1.08 2.52-2.52 0-1.32-1.08-2.4-2.52-2.4-1.32 0-2.4 1.08-2.4 2.4 0 1.44 1.08 2.52 2.4 2.52" fill="#ed7d31"/><path d="m461.78081 707.24347c2.47901.24522 4.72126-1.96654 4.56-4.43232.0955-2.47309-2.22391-4.57819-4.67682-4.35477-2.83612.0982-4.92313 3.30091-3.83059 5.93366.46608 1.69304 2.24618 2.82416 3.94741 2.85343zm-.12-3.96c.48654.26395-.34669-.17201-.0576-.18351-.17967.22348-.18013-.61009-.0455-.55338.50442-.35055-.38203.0629.58311-.22306-.33059.0681.21665.12905.1837.21598.18118.38446.19114-.16983.0563.62402.30625-.48666-.49589.46717-.19709.14631-.13282-.005-.67748.19067-.0429.0937" fill="#c00000"/><path d="m468.98 718.88c1.44 0 2.52-1.08 2.52-2.52 0-1.32-1.08-2.4-2.52-2.4-1.32 0-2.4 1.08-2.4 2.4 0 1.44 1.08 2.52 2.4 2.52" fill="#ed7d31"/><path d="m468.86081 720.80347c2.47901.24522 4.72126-1.96654 4.56-4.43232.0955-2.47309-2.22391-4.57819-4.67682-4.35477-2.83612.0982-4.92313 3.30091-3.83059 5.93366.46608 1.69304 2.24618 2.82416 3.94741 2.85343zm-.12-3.96c.48654.26395-.34669-.17201-.0576-.18351-.17967.22348-.18013-.61009-.0454-.55338.50442-.3505-.38202.0627.58311-.22316-.33059.0681.21665.12905.1837.21598.18118.38446.19114-.16983.0563.62402.30625-.48666-.49589.46717-.19709.14631-.13282-.005-.67748.19067-.0429.0937" fill="#c00000"/><path d="m476.06 732.32c1.44 0 2.52-1.08 2.52-2.52 0-1.32-1.08-2.4-2.52-2.4-1.32 0-2.4 1.08-2.4 2.4 0 1.44 1.08 2.52 2.4 2.52" fill="#ed7d31"/><path d="m475.94081 734.24347c2.47901.24522 4.72126-1.96654 4.56-4.43232.0955-2.47309-2.22391-4.57819-4.67682-4.35477-2.83612.0982-4.92313 3.30091-3.83059 5.93366.46608 1.69304 2.24618 2.82416 3.94741 2.85343zm-.12-3.96c.48654.26395-.34669-.17201-.0576-.18351-.17962.22348-.18015-.61009-.0455-.55338.50442-.35055-.38203.0629.58311-.22306-.33059.0681.21665.12905.1837.21598.18118.38446.19114-.16983.0563.62402.30625-.48666-.49589.46717-.19709.14631-.13282-.005-.67748.19067-.0429.0937" fill="#c00000"/><path d="m483.14 745.76c1.44 0 2.52-1.08 2.52-2.52 0-1.32-1.08-2.4-2.52-2.4-1.32 0-2.4 1.08-2.4 2.4 0 1.44 1.08 2.52 2.4 2.52" fill="#ed7d31"/><path d="m483.02081 747.68347c2.47901.24522 4.72126-1.96654 4.56-4.43232.0955-2.47309-2.22391-4.57819-4.67682-4.35477-2.83612.0982-4.92313 3.30091-3.83059 5.93366.46608 1.69304 2.24618 2.82416 3.94741 2.85343zm-.12-3.96c.48654.26395-.34669-.17201-.0576-.18351-.17962.22348-.18015-.61009-.0455-.55338.50442-.3505-.38202.0627.58311-.22316-.33059.0681.21665.12905.1837.21598.18118.38446.19114-.16983.0563.62402.30625-.48666-.49589.46717-.19709.14631-.13282-.005-.67748.19067-.0429.0937" fill="#c00000"/><path d="m490.22 759.32c1.44 0 2.52-1.08 2.52-2.52 0-1.32-1.08-2.4-2.52-2.4-1.32 0-2.4 1.08-2.4 2.4 0 1.44 1.08 2.52 2.4 2.52" fill="#ed7d31"/><path d="m490.10081 761.24347c2.47901.24522 4.72126-1.96654 4.56-4.43232.0955-2.47309-2.22391-4.57819-4.67682-4.35477-2.83612.0982-4.92313 3.30091-3.83059 5.93366.46608 1.69304 2.24618 2.82416 3.94741 2.85343zm-.12-3.96c.48654.26395-.34669-.17201-.0576-.18351-.17967.22348-.18013-.61009-.0454-.55338.50442-.35055-.38203.0629.58311-.22306-.33059.0681.21665.12905.1837.21598.18118.38446.19114-.16983.0563.62402.30625-.48666-.49589.46717-.19709.14631-.13282-.005-.67748.19067-.0429.0937" fill="#c00000"/><path d="m497.42 772.76c1.44 0 2.52-1.08 2.52-2.52 0-1.32-1.08-2.4-2.52-2.4-1.32 0-2.4 1.08-2.4 2.4 0 1.44 1.08 2.52 2.4 2.52" fill="#ed7d31"/><path d="m497.30081 774.68347c2.47901.24522 4.72126-1.96654 4.56-4.43232.0955-2.47309-2.22391-4.57819-4.67682-4.35477-2.83612.0982-4.92313 3.30091-3.83059 5.93366.46608 1.69304 2.24618 2.82416 3.94741 2.85343zm-.12-3.96c.48654.26395-.34669-.17201-.0576-.18351-.17962.22348-.18015-.61009-.0454-.55338.50442-.3505-.38202.0627.58311-.22316-.33059.0681.21665.12905.1837.21598.18118.38446.19114-.16983.0563.62402.30625-.48666-.49589.46717-.19709.14631-.13282-.005-.67748.19067-.0429.0937" fill="#c00000"/><g fill="#00b050"><path d="m142.1 98.244c2.8363.23548 3.4753-4.4836.62404-4.9771-2.9446-.77511-4.4562 3.8351-1.4942 4.8333l.42384.11581z"/><path d="m141.74 101.72c4.4144.61334 7.9714-4.7469 5.7944-8.6104-1.7053-3.6932-7.2632-4.5202-9.8421-1.3064-3.0869 3.1096-1.1885 8.9796 3.0678 9.8037l.4859.0812zm.24-6.96c2.9181.73436-.32652 2.3563-.29851 1.8846-1.0964-1.0925-.0448-2.1586.77856-1.7646"/><path d="m149.18 111.68c2.8363.23548 3.4753-4.4836.62404-4.9771-2.9446-.77512-4.4562 3.8351-1.4942 4.8333l.42384.11581z"/><path d="m148.82 115.16c4.4144.61334 7.9714-4.7468 5.7944-8.6104-1.7053-3.6932-7.2632-4.5202-9.8421-1.3064-3.0869 3.1096-1.1885 8.9796 3.0678 9.8037l.4859.0812zm.24-6.96c2.9182.7416-.32835 2.3526-.29851 1.8847-1.0964-1.0925-.0448-2.1586.77856-1.7646"/><path d="m156.26 125.24c2.8363.23552 3.4754-4.4835.62403-4.9769-2.9446-.77516-4.4562 3.8349-1.4942 4.8331l.42384.1158z"/><path d="m155.9 128.72c4.4144.61335 7.9714-4.7468 5.7944-8.6102-1.7053-3.6931-7.2631-4.52-9.842-1.3063-3.087 3.1095-1.1885 8.9795 3.0678 9.8035l.4859.0812zm.24-6.96c2.9182.7416-.32835 2.3526-.29851 1.8847-1.0964-1.0925-.0448-2.1586.77856-1.7646"/><path d="m163.46 138.68c2.8363.23548 3.4753-4.4836.62404-4.9771-2.9446-.77512-4.4562 3.8351-1.4942 4.8333l.42384.11581z"/><path d="m163.1 142.16c4.4144.61334 7.9714-4.7468 5.7944-8.6104-1.7053-3.6932-7.2632-4.5202-9.8421-1.3064-3.0869 3.1096-1.1885 8.9796 3.0678 9.8037l.4859.0812zm.24-6.96c2.9182.7416-.32835 2.3526-.29851 1.8847-1.0964-1.0925-.0448-2.1586.77856-1.7646"/><path d="m170.54 152.24c2.8363.23548 3.4753-4.4836.62404-4.9771-2.9446-.77512-4.4562 3.8351-1.4942 4.8333l.42384.11581z"/><path d="m170.18 155.72c4.4144.61334 7.9714-4.7468 5.7944-8.6104-1.7053-3.6932-7.2632-4.5202-9.8421-1.3064-3.0869 3.1096-1.1885 8.9796 3.0678 9.8037l.4859.0812zm.24-6.96c2.9182.7416-.32835 2.3526-.29851 1.8847-1.0964-1.0925-.0448-2.1586.77856-1.7646"/><path d="m177.62 165.68c2.8363.23548 3.4753-4.4836.62404-4.9771-2.9446-.77512-4.4562 3.8351-1.4942 4.8333l.42384.11581z"/><path d="m177.26 169.16c4.4144.61334 7.9714-4.7468 5.7944-8.6104-1.7053-3.6932-7.2632-4.5202-9.8421-1.3064-3.0869 3.1096-1.1885 8.9796 3.0678 9.8037l.4859.0812zm.24-6.96c2.9182.7416-.32835 2.3526-.29851 1.8847-1.0964-1.0925-.0448-2.1586.77856-1.7646"/><path d="m184.7 179.24c2.8363.23548 3.4753-4.4836.62404-4.9771-2.9446-.77512-4.4562 3.8351-1.4942 4.8333l.42384.11581z"/><path d="m184.34 182.72c4.4144.61334 7.9714-4.7468 5.7944-8.6104-1.7053-3.6932-7.2632-4.5202-9.8421-1.3064-3.0869 3.1096-1.1885 8.9796 3.0678 9.8037l.4859.0812zm.24-6.96c2.9182.7416-.32835 2.3526-.29851 1.8847-1.0964-1.0925-.0448-2.1586.77856-1.7646"/><path d="m191.9 192.68c2.8363.23548 3.4753-4.4836.62404-4.9771-2.9446-.77512-4.4562 3.8351-1.4942 4.8333l.42384.11581z"/><path d="m191.54 196.16c4.4144.61334 7.9714-4.7468 5.7944-8.6104-1.7053-3.6932-7.2632-4.5202-9.8421-1.3064-3.0869 3.1096-1.1885 8.9796 3.0678 9.8037l.4859.0812zm.24-6.96c2.9182.7416-.32835 2.3526-.29851 1.8847-1.0964-1.0925-.0448-2.1586.77856-1.7646"/><path d="m198.98 206.24c2.8363.23548 3.4753-4.4836.62404-4.9771-2.9446-.77512-4.4562 3.8351-1.4942 4.8333l.42384.11581z"/><path d="m198.62 209.72c4.4144.61334 7.9714-4.7468 5.7944-8.6104-1.7053-3.6932-7.2632-4.5202-9.8421-1.3064-3.0869 3.1096-1.1885 8.9796 3.0678 9.8037l.4859.0812zm.24-6.96c2.9182.7416-.32835 2.3526-.29851 1.8847-1.0964-1.0925-.0448-2.1586.77856-1.7646"/><path d="m206.06 219.68c2.8363.23548 3.4753-4.4836.62404-4.9771-2.9446-.77512-4.4562 3.8351-1.4942 4.8333l.42384.11581z"/><path d="m205.7 223.16c4.4144.61334 7.9714-4.7468 5.7944-8.6104-1.7053-3.6932-7.2632-4.5202-9.8421-1.3064-3.0869 3.1096-1.1885 8.9796 3.0678 9.8037l.4859.0812zm.24-6.96c2.9182.7416-.32835 2.3526-.29851 1.8847-1.0964-1.0925-.0448-2.1586.77856-1.7646"/><path d="m213.14 233.12c2.8363.23548 3.4753-4.4836.62404-4.9771-2.9446-.77512-4.4562 3.8351-1.4942 4.8333l.42384.11581z"/><path d="m212.78 236.6c4.4144.61334 7.9714-4.7468 5.7944-8.6104-1.7053-3.6932-7.2632-4.5202-9.8421-1.3064-3.0869 3.1096-1.1885 8.9796 3.0678 9.8037l.4859.0812zm.24-6.96c2.9182.7416-.32835 2.3526-.29851 1.8847-1.0964-1.0925-.0448-2.1586.77855-1.7646"/><path d="m220.22 246.68c2.8363.23548 3.4753-4.4836.62404-4.9771-2.9446-.77512-4.4562 3.8351-1.4942 4.8333l.42384.11581z"/><path d="m219.86 250.16c4.4144.61334 7.9714-4.7468 5.7944-8.6104-1.7053-3.6932-7.2632-4.5202-9.8421-1.3064-3.0869 3.1096-1.1885 8.9796 3.0678 9.8037l.4859.0812zm.24-6.96c2.9182.7416-.32835 2.3526-.29851 1.8847-1.0964-1.0925-.0448-2.1586.77856-1.7646"/><path d="m227.42 260.12c2.8363.23548 3.4753-4.4836.62404-4.9771-2.9446-.77512-4.4562 3.8351-1.4942 4.8333l.42384.11581z"/><path d="m227.06 263.6c4.4144.61334 7.9714-4.7468 5.7944-8.6104-1.7053-3.6932-7.2632-4.5202-9.8421-1.3064-3.0869 3.1096-1.1885 8.9796 3.0678 9.8037l.4859.0812zm.24-6.96c2.9182.7416-.32835 2.3526-.29851 1.8847-1.0964-1.0925-.0448-2.1586.77855-1.7646"/><path d="m234.5 273.68c2.8363.23548 3.4753-4.4836.62404-4.9771-2.9446-.77512-4.4562 3.8351-1.4942 4.8333l.42384.11581z"/><path d="m234.14 277.16c4.4144.61334 7.9714-4.7468 5.7944-8.6104-1.7053-3.6932-7.2632-4.5202-9.8421-1.3064-3.0869 3.1096-1.1885 8.9796 3.0678 9.8037l.4859.0812zm.24-6.96c2.9182.7416-.32835 2.3526-.29851 1.8847-1.0964-1.0925-.0448-2.1586.77856-1.7646"/><path d="m241.58 287.12c2.8363.23548 3.4753-4.4836.62404-4.9771-2.9446-.77512-4.4562 3.8351-1.4942 4.8333l.42384.11581z"/><path d="m241.22 290.6c4.4144.61334 7.9714-4.7468 5.7944-8.6104-1.7053-3.6932-7.2632-4.5202-9.8421-1.3064-3.0869 3.1096-1.1885 8.9796 3.0678 9.8037l.4859.0812zm.24-6.96c2.9182.7416-.32835 2.3526-.29851 1.8847-1.0964-1.0925-.0448-2.1586.77856-1.7646"/><path d="m248.66 300.68c2.8363.23548 3.4753-4.4836.62404-4.9771-2.9446-.77512-4.4562 3.8351-1.4942 4.8333l.42384.11581z"/><path d="m248.3 304.16c4.4144.61334 7.9714-4.7468 5.7944-8.6104-1.7053-3.6932-7.2632-4.5202-9.8421-1.3064-3.0869 3.1096-1.1885 8.9796 3.0678 9.8037l.4859.0812zm.24-6.96c2.9182.7416-.32835 2.3526-.29851 1.8847-1.0964-1.0925-.0448-2.1586.77856-1.7646"/><path d="m255.86 314.12c2.8363.23548 3.4753-4.4836.62404-4.9771-2.9446-.77512-4.4562 3.8351-1.4942 4.8333l.42384.11581z"/><path d="m255.5 317.6c4.4144.61334 7.9714-4.7468 5.7944-8.6104-1.7053-3.6932-7.2632-4.5202-9.8421-1.3064-3.0869 3.1096-1.1885 8.9796 3.0678 9.8037l.4859.0812zm.24-6.96c2.9182.7416-.32835 2.3526-.29851 1.8847-1.0964-1.0925-.0448-2.1586.77856-1.7646"/><path d="m262.94 327.56c2.8363.23548 3.4753-4.4836.62404-4.9771-2.9446-.77512-4.4562 3.8351-1.4942 4.8333l.42384.11581z"/><path d="m262.58 331.04c4.4144.61334 7.9714-4.7468 5.7944-8.6104-1.7053-3.6932-7.2632-4.5202-9.8421-1.3064-3.0869 3.1096-1.1885 8.9796 3.0678 9.8037l.4859.0812zm.24-6.96c2.9182.7416-.32835 2.3526-.29851 1.8847-1.0964-1.0925-.0448-2.1586.77856-1.7646"/><path d="m270.02 341.12c2.8363.23548 3.4753-4.4836.62404-4.9771-2.9446-.77512-4.4562 3.8351-1.4942 4.8333l.42384.11581z"/><path d="m269.66 344.6c4.4144.61334 7.9714-4.7468 5.7944-8.6104-1.7053-3.6932-7.2632-4.5202-9.8421-1.3064-3.0869 3.1096-1.1885 8.9796 3.0678 9.8037l.4859.0812zm.24-6.96c2.9182.7416-.32835 2.3526-.29851 1.8847-1.0964-1.0925-.0448-2.1586.77856-1.7646"/><path d="m277.1 354.56c2.8363.23548 3.4753-4.4836.62404-4.9771-2.9446-.77512-4.4562 3.8351-1.4942 4.8333l.42384.11581z"/><path d="m276.74 358.04c4.4144.61334 7.9714-4.7468 5.7944-8.6104-1.7053-3.6932-7.2632-4.5202-9.8421-1.3064-3.0869 3.1096-1.1885 8.9796 3.0678 9.8037l.4859.0812zm.24-6.96c2.9182.7416-.32835 2.3526-.29851 1.8847-1.0964-1.0925-.0448-2.1586.77856-1.7646"/><path d="m284.18 368.12c2.8363.23548 3.4753-4.4836.62404-4.9771-2.9446-.77512-4.4562 3.8351-1.4942 4.8333l.42384.11581z"/><path d="m283.82 371.6c4.4144.61334 7.9714-4.7468 5.7944-8.6104-1.7053-3.6932-7.2632-4.5202-9.8421-1.3064-3.0869 3.1096-1.1885 8.9796 3.0678 9.8037l.4859.0812zm.24-6.96c2.9182.7416-.32835 2.3526-.29851 1.8847-1.0964-1.0925-.0448-2.1586.77856-1.7646"/><path d="m291.38 381.56c2.8363.23548 3.4753-4.4836.62404-4.9771-2.9446-.77512-4.4562 3.8351-1.4942 4.8333l.42384.11581z"/><path d="m291.02 385.04c4.4144.61334 7.9714-4.7468 5.7944-8.6104-1.7053-3.6932-7.2632-4.5202-9.8421-1.3064-3.0869 3.1096-1.1885 8.9796 3.0678 9.8037l.4859.0812zm.24-6.96c2.9182.7416-.32835 2.3526-.29851 1.8847-1.0964-1.0925-.0448-2.1586.77856-1.7646"/><path d="m298.46 395.12c2.8363.23548 3.4753-4.4836.62404-4.9771-2.9446-.77512-4.4562 3.8351-1.4942 4.8333l.42384.11581z"/><path d="m298.1 398.6c4.4144.61334 7.9714-4.7468 5.7944-8.6104-1.7053-3.6932-7.2632-4.5202-9.8421-1.3064-3.0869 3.1096-1.1885 8.9796 3.0678 9.8037l.4859.0812zm.24-6.96c2.9182.7416-.32835 2.3526-.29851 1.8847-1.0964-1.0925-.0448-2.1586.77856-1.7646"/><path d="m305.54 408.56c2.8363.23548 3.4753-4.4836.62404-4.9771-2.9446-.77512-4.4562 3.8351-1.4942 4.8333l.42384.11581z"/><path d="m305.18 412.04c4.4144.61334 7.9714-4.7468 5.7944-8.6104-1.7053-3.6932-7.2632-4.5202-9.8421-1.3064-3.0869 3.1096-1.1885 8.9796 3.0678 9.8037l.4859.0812zm.24-6.96c2.9182.7416-.32835 2.3526-.29851 1.8847-1.0964-1.0925-.0448-2.1586.77856-1.7646"/><path d="m312.62 422.12c2.8363.23548 3.4753-4.4836.62404-4.9771-2.9446-.77512-4.4562 3.8351-1.4942 4.8333l.42384.11581z"/><path d="m312.26 425.6c4.4144.61334 7.9714-4.7468 5.7944-8.6104-1.7053-3.6932-7.2632-4.5202-9.8421-1.3064-3.0869 3.1096-1.1885 8.9796 3.0678 9.8037l.4859.0812zm.24-6.96c2.9182.7416-.32835 2.3526-.29851 1.8847-1.0964-1.0925-.0448-2.1586.77856-1.7646"/><path d="m319.82 435.56c2.8363.23548 3.4753-4.4836.62404-4.9771-2.9446-.77512-4.4562 3.8351-1.4942 4.8333l.42384.11581z"/><path d="m319.46 439.04c4.4144.61334 7.9714-4.7468 5.7944-8.6104-1.7053-3.6932-7.2632-4.5202-9.8421-1.3064-3.0869 3.1096-1.1885 8.9796 3.0678 9.8037l.4859.0812zm.24-6.96c2.9182.7416-.32835 2.3526-.29851 1.8847-1.0964-1.0925-.0448-2.1586.77856-1.7646"/><path d="m326.9 449c2.8363.23548 3.4753-4.4836.62404-4.9771-2.9446-.77512-4.4562 3.8351-1.4942 4.8333l.42384.11581z"/><path d="m326.54 452.48c4.4144.61334 7.9714-4.7468 5.7944-8.6104-1.7053-3.6932-7.2632-4.5202-9.8421-1.3064-3.0869 3.1096-1.1885 8.9796 3.0678 9.8037l.4859.0812zm.24-6.96c2.9182.7416-.32835 2.3526-.29851 1.8847-1.0964-1.0925-.0448-2.1586.77856-1.7646"/><path d="m333.98 462.56c2.8363.23548 3.4753-4.4836.62404-4.9771-2.9446-.77512-4.4562 3.8351-1.4942 4.8333l.42384.11581z"/><path d="m333.62 466.04c4.4144.61334 7.9714-4.7468 5.7944-8.6104-1.7053-3.6932-7.2632-4.5202-9.8421-1.3064-3.0869 3.1096-1.1885 8.9796 3.0678 9.8037l.4859.0812zm.24-6.96c2.9182.7416-.32835 2.3526-.29851 1.8847-1.0964-1.0925-.0448-2.1586.77856-1.7646"/><path d="m341.06 476c2.8363.23548 3.4753-4.4836.62404-4.9771-2.9446-.77512-4.4562 3.8351-1.4942 4.8333l.42384.11581z"/><path d="m340.7 479.48c4.4144.61334 7.9714-4.7468 5.7944-8.6104-1.7053-3.6932-7.2632-4.5202-9.8421-1.3064-3.0869 3.1096-1.1885 8.9796 3.0678 9.8037l.4859.0812zm.24-6.96c2.9182.7416-.32835 2.3526-.29851 1.8847-1.0964-1.0925-.0448-2.1586.77856-1.7646"/><path d="m348.14 489.56c2.8363.23548 3.4753-4.4836.62404-4.9771-2.9446-.77512-4.4562 3.8351-1.4942 4.8333l.42384.11581z"/><path d="m347.78 493.04c4.4144.61334 7.9714-4.7468 5.7944-8.6104-1.7053-3.6932-7.2632-4.5202-9.8421-1.3064-3.0869 3.1096-1.1885 8.9796 3.0678 9.8037l.4859.0812zm.24-6.96c2.9182.7416-.32835 2.3526-.29851 1.8847-1.0964-1.0925-.0448-2.1586.77856-1.7646"/><path d="m355.34 503c2.8363.23548 3.4753-4.4836.62404-4.9771-2.9446-.77512-4.4562 3.8351-1.4942 4.8333l.42384.11581z"/><path d="m354.98 506.48c4.4144.61334 7.9714-4.7468 5.7944-8.6104-1.7053-3.6932-7.2632-4.5202-9.8421-1.3064-3.0869 3.1096-1.1885 8.9796 3.0678 9.8037l.4859.0812zm.24-6.96c2.9182.7416-.32835 2.3526-.29851 1.8847-1.0964-1.0925-.0448-2.1586.77856-1.7646"/><path d="m362.42 516.56c2.8363.23548 3.4753-4.4836.62404-4.9771-2.9446-.77512-4.4562 3.8351-1.4942 4.8333l.42384.11581z"/><path d="m362.06 520.04c4.4144.61334 7.9714-4.7468 5.7944-8.6104-1.7053-3.6932-7.2632-4.5202-9.8421-1.3064-3.0869 3.1096-1.1885 8.9796 3.0678 9.8037l.4859.0812zm.24-6.96c2.9182.7416-.32835 2.3526-.29851 1.8847-1.0964-1.0925-.0448-2.1586.77856-1.7646"/><path d="m369.5 530c2.8363.23548 3.4753-4.4836.62404-4.9771-2.9446-.77512-4.4562 3.8351-1.4942 4.8333l.42384.11581z"/><path d="m369.14 533.48c4.4144.61334 7.9714-4.7468 5.7944-8.6104-1.7053-3.6932-7.2632-4.5202-9.8421-1.3064-3.0869 3.1096-1.1885 8.9796 3.0678 9.8037l.4859.0812zm.24-6.96c2.9182.7416-.32835 2.3526-.29851 1.8847-1.0964-1.0925-.0448-2.1586.77855-1.7646"/><path d="m376.58 543.44c2.8363.23548 3.4753-4.4836.62404-4.9771-2.9446-.77512-4.4562 3.8351-1.4942 4.8333l.42384.11581z"/><path d="m376.22 546.92c4.4144.61334 7.9714-4.7468 5.7944-8.6104-1.7053-3.6932-7.2632-4.5202-9.8421-1.3064-3.0869 3.1096-1.1885 8.9796 3.0678 9.8037l.4859.0812zm.24-6.96c2.9182.7416-.32835 2.3526-.29851 1.8847-1.0964-1.0925-.0448-2.1586.77856-1.7646"/><path d="m383.78 557c2.8363.23548 3.4753-4.4836.62404-4.9771-2.9446-.77512-4.4562 3.8351-1.4942 4.8333l.42384.11581z"/><path d="m383.42 560.48c4.4144.61334 7.9714-4.7468 5.7944-8.6104-1.7053-3.6932-7.2632-4.5202-9.8421-1.3064-3.0869 3.1096-1.1885 8.9796 3.0678 9.8037l.4859.0812zm.24-6.96c2.9182.7416-.32835 2.3526-.29851 1.8847-1.0964-1.0925-.0448-2.1586.77856-1.7646"/><path d="m390.86 570.44c2.8363.23548 3.4753-4.4836.62404-4.9771-2.9446-.77512-4.4562 3.8351-1.4942 4.8333l.42384.11581z"/><path d="m390.5 573.92c4.4144.61334 7.9714-4.7468 5.7944-8.6104-1.7053-3.6932-7.2632-4.5202-9.8421-1.3064-3.0869 3.1096-1.1885 8.9796 3.0678 9.8037l.4859.0812zm.24-6.96c2.9182.7416-.32835 2.3526-.29851 1.8847-1.0964-1.0925-.0448-2.1586.77856-1.7646"/><path d="m397.94 584c2.8363.23548 3.4753-4.4836.62404-4.9771-2.9446-.77512-4.4562 3.8351-1.4942 4.8333l.42384.11581z"/><path d="m397.58 587.48c4.4144.61334 7.9714-4.7468 5.7944-8.6104-1.7053-3.6932-7.2632-4.5202-9.8421-1.3064-3.0869 3.1096-1.1885 8.9796 3.0678 9.8037l.4859.0812zm.24-6.96c2.9182.7416-.32835 2.3526-.29851 1.8847-1.0964-1.0925-.0448-2.1586.77856-1.7646"/><path d="m405.02 597.44c2.8363.23548 3.4753-4.4836.62404-4.9771-2.9446-.77512-4.4562 3.8351-1.4942 4.8333l.42384.11581z"/><path d="m404.66 600.92c4.4144.61334 7.9714-4.7468 5.7944-8.6104-1.7053-3.6932-7.2632-4.5202-9.8421-1.3064-3.0869 3.1096-1.1885 8.9796 3.0678 9.8037l.4859.0812zm.24-6.96c2.9182.7416-.32835 2.3526-.29851 1.8847-1.0964-1.0925-.0448-2.1586.77856-1.7646"/><path d="m412.1 611c2.8363.23548 3.4753-4.4836.62404-4.9771-2.9446-.77512-4.4562 3.8351-1.4942 4.8333l.42384.11581z"/><path d="m411.74 614.48c4.4144.61334 7.9714-4.7468 5.7944-8.6104-1.7053-3.6932-7.2632-4.5202-9.8421-1.3064-3.0869 3.1096-1.1885 8.9796 3.0678 9.8037l.4859.0812zm.24-6.96c2.9182.7416-.32835 2.3526-.29851 1.8847-1.0964-1.0925-.0448-2.1586.77856-1.7646"/><path d="m419.3 624.44c2.8363.23548 3.4753-4.4836.62404-4.9771-2.9446-.77512-4.4562 3.8351-1.4942 4.8333l.42384.11581z"/><path d="m418.94 627.92c4.4144.61334 7.9714-4.7468 5.7944-8.6104-1.7053-3.6932-7.2632-4.5202-9.8421-1.3064-3.0869 3.1096-1.1885 8.9796 3.0678 9.8037l.4859.0812zm.24-6.96c2.9182.7416-.32835 2.3526-.29851 1.8847-1.0964-1.0925-.0448-2.1586.77856-1.7646"/><path d="m426.38 637.88c2.8363.23548 3.4753-4.4836.62404-4.9771-2.9446-.77512-4.4562 3.8351-1.4942 4.8333l.42384.11581z"/><path d="m426.02 641.36c4.4144.61334 7.9714-4.7468 5.7944-8.6104-1.7053-3.6932-7.2632-4.5202-9.8421-1.3064-3.0869 3.1096-1.1885 8.9796 3.0678 9.8037l.4859.0812zm.24-6.96c2.9182.7416-.32835 2.3526-.29851 1.8847-1.0964-1.0925-.0448-2.1586.77856-1.7646"/><path d="m135.02 651.44c2.8363.23548 3.4753-4.4836.62404-4.9771-2.9446-.77512-4.4562 3.8351-1.4942 4.8333l.42384.11581z"/><path d="m134.66 654.92c4.4144.61334 7.9714-4.7468 5.7944-8.6104-1.7053-3.6932-7.2632-4.5202-9.8421-1.3064-3.0869 3.1096-1.1885 8.9796 3.0678 9.8037l.4859.0812zm.24-6.96c2.9182.7416-.32835 2.3526-.29851 1.8847-1.0964-1.0925-.0448-2.1586.77856-1.7646"/><path d="m127.94 664.88c2.8363.23548 3.4753-4.4836.62404-4.9771-2.9446-.77512-4.4562 3.8351-1.4942 4.8333l.42384.11581z"/><path d="m127.58 668.36c4.4144.61334 7.9714-4.7468 5.7944-8.6104-1.7053-3.6932-7.2632-4.5202-9.8421-1.3064-3.0869 3.1096-1.1885 8.9796 3.0678 9.8037l.4859.0812zm.24-6.96c2.9182.7416-.32835 2.3526-.29851 1.8847-1.0964-1.0925-.0448-2.1586.77856-1.7646"/><path d="m120.74 678.44c2.8363.23548 3.4753-4.4836.62404-4.9771-2.9446-.77512-4.4562 3.8351-1.4942 4.8333l.42384.11581z"/><path d="m120.38 681.92c4.4144.61334 7.9714-4.7468 5.7944-8.6104-1.7053-3.6932-7.2632-4.5202-9.8421-1.3064-3.0869 3.1096-1.1885 8.9796 3.0678 9.8037l.4859.0812zm.24-6.96c2.9182.7416-.32835 2.3526-.29851 1.8847-1.0964-1.0925-.0448-2.1586.77855-1.7646"/><path d="m113.66 691.88c2.8363.23548 3.4753-4.4836.62404-4.9771-2.9446-.77512-4.4562 3.8351-1.4942 4.8333l.42384.11581z"/><path d="m113.3 695.36c4.4144.61334 7.9714-4.7468 5.7944-8.6104-1.7053-3.6932-7.2632-4.5202-9.8421-1.3064-3.0869 3.1096-1.1885 8.9796 3.0678 9.8037l.4859.0812zm.24-6.96c2.9182.7416-.32835 2.3526-.29851 1.8847-1.0964-1.0925-.0448-2.1586.77856-1.7646"/><path d="m106.58 705.44c2.8363.23548 3.4753-4.4836.62404-4.9771-2.9446-.77512-4.4562 3.8351-1.4942 4.8333l.42384.11581z"/><path d="m106.22 708.92c4.4144.61334 7.9714-4.7468 5.7944-8.6104-1.7053-3.6932-7.2632-4.5202-9.8421-1.3064-3.0869 3.1096-1.1885 8.9796 3.0678 9.8037l.4859.0812zm.24-6.96c2.9182.7416-.32835 2.3526-.29851 1.8847-1.0964-1.0925-.0448-2.1586.77856-1.7646"/><path d="m99.501 718.88c2.8363.23549 3.4753-4.4836.62404-4.9771-2.9446-.77512-4.4562 3.8351-1.4942 4.8333l.42385.11581z"/><path d="m99.141 722.36c4.4145.61334 7.9714-4.7468 5.7944-8.6104-1.7053-3.6932-7.2632-4.5202-9.8421-1.3064-3.0869 3.1096-1.1885 8.9796 3.0678 9.8037l.48591.0812zm.24-6.96c2.9181.73436-.32647 2.3563-.29853 1.8847-1.0963-1.0925-.04485-2.1586.77851-1.7646"/><path d="m92.301 732.44c2.8363.23548 3.4753-4.4836.62404-4.9771-2.9446-.77512-4.4562 3.8351-1.4942 4.8333l.42385.11581z"/><path d="m91.941 735.92c4.4145.61334 7.9713-4.7468 5.7944-8.6104-1.7053-3.6932-7.2632-4.5202-9.8421-1.3064-3.0869 3.1096-1.1885 8.9796 3.0678 9.8037l.48591.0812zm.24-6.96c2.9181.73438-.32646 2.3563-.29853 1.8847-1.0963-1.0925-.04485-2.1586.77852-1.7646"/><path d="m85.221 745.88c2.8363.23548 3.4753-4.4836.62404-4.9771-2.9446-.77512-4.4562 3.8351-1.4942 4.8333l.42385.11581z"/><path d="m84.861 749.36c4.4145.61334 7.9713-4.7468 5.7944-8.6104-1.7053-3.6932-7.2632-4.5202-9.8421-1.3064-3.0869 3.1096-1.1885 8.9796 3.0678 9.8037l.48591.0812zm.24-6.96c2.9181.73438-.32646 2.3563-.29853 1.8847-1.0963-1.0925-.04485-2.1586.77851-1.7646"/><path d="m78.141 759.32c2.8363.23548 3.4753-4.4836.62404-4.9771-2.9446-.77512-4.4562 3.8351-1.4942 4.8333l.42385.11581z"/><path d="m77.781 762.8c4.4145.61334 7.9713-4.7468 5.7944-8.6104-1.7053-3.6932-7.2632-4.5202-9.8421-1.3064-3.0869 3.1096-1.1885 8.9796 3.0678 9.8037l.48591.0812zm.24-6.96c2.9181.73438-.32646 2.3563-.29853 1.8847-1.0963-1.0925-.04485-2.1586.77851-1.7646"/><path d="m497.42 772.88c2.8363.23548 3.4753-4.4836.62404-4.9771-2.9446-.77512-4.4562 3.8351-1.4942 4.8333l.42384.11581z"/><path d="m497.06 776.36c4.4144.61334 7.9714-4.7468 5.7944-8.6104-1.7053-3.6932-7.2632-4.5202-9.8421-1.3064-3.0869 3.1096-1.1885 8.9796 3.0678 9.8037l.4859.0812zm.24-6.96c2.9182.7416-.32835 2.3526-.29851 1.8847-1.0964-1.0925-.0448-2.1586.77856-1.7646"/></g><g font-family="Calibri" font-size="30" font-weight="bold"><text transform="matrix(0 1 1 0 0 0)" x="331.96936" y="119.54081"><tspan font-size="30" x="331.96936" y="119.54081">OneMax (50 bit)</tspan></text><text transform="matrix(0 1 1 0 0 0)" x="471.4924" y="546.95929"><tspan font-size="30" x="471.4924" y="546.95929">number of bits that are 1</tspan></text><text transform="scale(-1 1)" x="-111.30869" y="76.479523"><tspan font-size="30" x="-111.30869" y="76.479523">f</tspan></text></g><path d="m185.66 617.96c1.44 0 2.52-1.08 2.52-2.52 0-1.32-1.08-2.4-2.52-2.4-1.32 0-2.4 1.08-2.4 2.4 0 1.44 1.08 2.52 2.4 2.52" fill="#ed7d31"/><path d="m185.54081 620.00347c1.93495-.0995 4.00986-1.21537 4.39968-3.26972.63846-1.67576-.0944-3.73365-1.51968-4.77028-2.0151-1.60153-5.24727-1.02044-6.52488 1.23657-1.62731 2.45754.0172 6.28035 2.99065 6.63981.22096.043.43507.11349.65423.16362zm-.12-4.08c.24016.0214.2169.14899-.17994-.25599.24059.40267-.1019-.43582.0599-.0614-.11765-.37839.17507-.55872-.0379-.24469.67394-.60775-.10561-.0948.30051-.28647.67915.0589-.12026-.21189.57736.1286-.40248-.11263.30675.21891 0 .19363-.0384.81892.22525-.18437-.25599.58635.549-.3434-.42531.17477.016-.0599" fill="#c00000"/><text fill="#c00000" font-family="Calibri" font-size="20.04" font-weight="bold" transform="matrix(0 1 1 0 0 0)" x="626.12402" y="191.5408"><tspan x="626.12402" y="191.5408">f<tspan baseline-shift="sub" fill="#c00000" font-size="65%">1</tspan>(x)</tspan></text><path d="m239.42 617.96c2.8363.23548 3.4753-4.4836.62404-4.9771-2.9446-.77512-4.4562 3.8351-1.4942 4.8333l.42384.11581z" fill="#00b050"/><path d="m239.06 621.44c4.4466.64342 7.9634-4.7383 5.817-8.6179-1.6776-3.6454-7.1295-4.5453-9.7446-1.4477-2.5291 2.4648-2.1088 6.9447.77055 8.9627.89998.6887 2.0175 1.1095 3.1571 1.1029zm.24-6.96c2.2071.0589.69982 3.1483-.62426 1.601-.58959-.72534.29828-1.8572 1.1043-1.6011" fill="#00b050"/><g transform="matrix(0 1 1 0 0 0)"><text fill="#00b050" font-family="Calibri" font-size="20.04" font-weight="bold" x="626.12402" y="245.30081"><tspan x="626.12402" y="245.30081">f<tspan baseline-shift="sub" fill="#00b050" font-size="65%">6</tspan>(x)=Jump<tspan baseline-shift="sub" fill="#00b050" font-size="65%">10</tspan></tspan></text><text x="419.48407" y="463.46082"><tspan x="419.48407" y="463.46082"/></text><g font-size="20" font-weight="bold"><g font-family="Calibri"><text x="57.002991" y="77.379166"><tspan font-size="20" x="57.002991" y="77.379166">60</tspan></text><text x="90.710335" y="520.16998"><tspan x="90.710335" y="520.16998">0</tspan></text><text x="67.139709" y="502.79395"><tspan x="67.139709" y="502.79395">0</tspan></text></g><g font-family="Ubuntu" stroke-width=".75"><text x="218.99348" y="520.11462"><tspan font-size="20" stroke-width=".75" x="218.99348" y="520.11462">10</tspan></text><text x="354.35349" y="520.11462"><tspan font-size="20" stroke-width=".75" x="354.35349" y="520.11462">20</tspan></text><text x="489.30347" y="520.0946"><tspan font-size="20" stroke-width=".75" x="489.30347" y="520.0946">30</tspan></text><text x="624.27344" y="520.11462"><tspan font-size="20" stroke-width=".75" x="624.27344" y="520.11462">40</tspan></text><text x="759.02344" y="520.0946"><tspan font-size="20" stroke-width=".75" x="759.02344" y="520.0946">50</tspan></text><text x="54.929569" y="433.39081"><tspan font-size="20" stroke-width=".75" x="54.929569" y="433.39081">10</tspan></text><text x="54.929569" y="362.3508"><tspan font-size="20" stroke-width=".75" x="54.929569" y="362.3508">20</tspan></text><text x="54.929569" y="291.18082"><tspan font-size="20" stroke-width=".75" x="54.929569" y="291.18082">30</tspan></text><text x="54.929569" y="220.1508"><tspan font-size="20" stroke-width=".75" x="54.929569" y="220.1508">40</tspan></text><text x="54.929569" y="149.10081"><tspan font-size="20" stroke-width=".75" x="54.929569" y="149.10081">50</tspan></text></g></g></g></g></svg>