<svg height="646pt" viewBox="0 0 970 646" width="970pt" xmlns="http://www.w3.org/2000/svg"><g transform="matrix(0 1.3333 1.3333 0 -72.502 -84.859)"><path d="m70.574 767.84v2.52h.96v-2.52"/><path d="m70.574 760.76v4.08h.96v-4.08z"/><path d="m70.574 753.8v3.96h.96v-3.96z"/><path d="m70.574 746.84v3.96h.96v-3.96z"/><path d="m70.574 739.76v4.08h.96v-4.08z"/><path d="m70.574 732.8v3.96h.96v-3.96z"/><path d="m70.574 725.84v3.96h.96v-3.96z"/><path d="m70.574 718.76v4.08h.96v-4.08z"/><path d="m70.574 711.8v3.96h.96v-3.96z"/><path d="m70.574 704.84v3.96h.96v-3.96z"/><path d="m70.574 697.76v4.08h.96v-4.08z"/><path d="m70.574 690.8v3.96h.96v-3.96z"/><path d="m70.574 683.84v3.96h.96v-3.96z"/><path d="m70.574 676.76v4.08h.96v-4.08z"/><path d="m70.574 669.8v3.96h.96v-3.96z"/><path d="m70.574 662.84v3.96h.96v-3.96z"/><path d="m70.574 655.76v4.08h.96v-4.08z"/><path d="m70.574 648.8v3.96h.96v-3.96z"/><path d="m70.574 641.84v3.96h.96v-3.96z"/><path d="m70.574 634.76v4.08h.96v-4.08z"/><path d="m70.574 627.8v3.96h.96v-3.96z"/><path d="m70.574 620.84v3.96h.96v-3.96z"/><path d="m70.574 613.76v4.08h.96v-4.08z"/><path d="m70.574 606.8v3.96h.96v-3.96z"/><path d="m70.574 599.84v3.96h.96v-3.96z"/><path d="m70.574 592.76v4.08h.96v-4.08z"/><path d="m70.574 585.8v3.96h.96v-3.96z"/><path d="m70.574 578.84v3.96h.96v-3.96z"/><path d="m70.574 571.76v4.08h.96v-4.08z"/><path d="m70.574 564.8v3.96h.96v-3.96z"/><path d="m70.574 557.84v3.96h.96v-3.96z"/><path d="m70.574 550.76v4.08h.96v-4.08z"/><path d="m70.574 543.8v3.96h.96v-3.96z"/><path d="m70.574 536.84v3.96h.96v-3.96z"/><path d="m70.574 529.76v4.08h.96v-4.08z"/><path d="m70.574 522.8v3.96h.96v-3.96z"/><path d="m70.574 515.84v3.96h.96v-3.96z"/><path d="m70.574 508.76v4.08h.96v-4.08z"/><path d="m70.574 501.8v3.96h.96v-3.96z"/><path d="m70.574 494.84v3.96h.96v-3.96z"/><path d="m70.574 487.76v4.08h.96v-4.08z"/><path d="m70.574 480.8v3.96h.96v-3.96z"/><path d="m70.574 473.84v3.96h.96v-3.96z"/><path d="m70.574 466.76v4.08h.96v-4.08z"/><path d="m70.574 459.8v3.96h.96v-3.96z"/><path d="m70.574 452.84v3.96h.96v-3.96z"/><path d="m70.574 445.76v4.08h.96v-4.08z"/><path d="m70.574 438.8v3.96h.96v-3.96z"/><path d="m70.574 431.84v3.96h.96v-3.96z"/><path d="m70.574 424.76v4.08h.96v-4.08z"/><path d="m70.574 417.8v3.96h.96v-3.96z"/><path d="m70.574 410.84v3.96h.96v-3.96z"/><path d="m70.574 403.76v4.08h.96v-4.08z"/><path d="m70.574 396.8v3.96h.96v-3.96z"/><path d="m70.574 389.84v3.96h.96v-3.96z"/><path d="m70.574 382.76v4.08h.96v-4.08z"/><path d="m70.574 375.8v3.96h.96v-3.96z"/><path d="m70.574 368.84v3.96h.96v-3.96z"/><path d="m70.574 361.76v4.08h.96v-4.08z"/><path d="m70.574 354.8v3.96h.96v-3.96z"/><path d="m70.574 347.84v3.96h.96v-3.96z"/><path d="m70.574 340.76v4.08h.96v-4.08z"/><path d="m70.574 333.8v3.96h.96v-3.96z"/><path d="m70.574 326.84v3.96h.96v-3.96z"/><path d="m70.574 319.76v4.08h.96v-4.08z"/><path d="m70.574 312.8v3.96h.96v-3.96z"/><path d="m70.574 305.84v3.96h.96v-3.96z"/><path d="m70.574 298.76v4.08h.96v-4.08z"/><path d="m70.574 291.8v3.96h.96v-3.96z"/><path d="m70.574 284.84v3.96h.96v-3.96z"/><path d="m70.574 277.76v4.08h.96v-4.08z"/><path d="m70.574 270.8v3.96h.96v-3.96z"/><path d="m70.574 263.84v3.96h.96v-3.96z"/><path d="m70.574 256.76v4.08h.96v-4.08z"/><path d="m70.574 249.8v3.96h.96v-3.96z"/><path d="m70.574 242.84v3.96h.96v-3.96z"/><path d="m70.574 235.76v4.08h.96v-4.08z"/><path d="m70.574 228.8v3.96h.96v-3.96z"/><path d="m70.574 221.84v3.96h.96v-3.96z"/><path d="m70.574 214.76v4.08h.96v-4.08z"/><path d="m70.574 207.8v3.96h.96v-3.96z"/><path d="m70.574 200.84v3.96h.96v-3.96z"/><path d="m70.574 193.76v4.08h.96v-4.08z"/><path d="m70.574 186.8v3.96h.96v-3.96z"/><path d="m70.574 179.84v3.96h.96v-3.96z"/><path d="m70.574 172.76v4.08h.96v-4.08z"/><path d="m70.574 165.8v3.96h.96v-3.96z"/><path d="m70.574 158.84v3.96h.96v-3.96z"/><path d="m70.574 151.76v4.08h.96v-4.08z"/><path d="m70.574 144.8v3.96h.96v-3.96z"/><path d="m70.574 137.84v3.96h.96v-3.96z"/><path d="m70.574 130.76v4.08h.96v-4.08z"/><path d="m70.574 123.8v3.96h.96v-3.96z"/><path d="m70.574 116.84v3.96h.96v-3.96z"/><path d="m70.574 109.76v4.08h.96v-4.08z"/><path d="m70.574 102.8v3.96h.96v-3.96z"/><path d="m70.574 95.844v3.96h.96v-3.96z"/><path d="m155.77 767.84v2.52h1.08v-2.52z"/><path d="m155.77 760.76v4.08h1.08v-4.08z"/><path d="m155.77 753.8v3.96h1.08v-3.96z"/><path d="m155.77 746.84v3.96h1.08v-3.96z"/><path d="m155.77 739.76v4.08h1.08v-4.08z"/><path d="m155.77 732.8v3.96h1.08v-3.96z"/><path d="m155.77 725.84v3.96h1.08v-3.96z"/><path d="m155.77 718.76v4.08h1.08v-4.08z"/><path d="m155.77 711.8v3.96h1.08v-3.96z"/><path d="m155.77 704.84v3.96h1.08v-3.96z"/><path d="m155.77 697.76v4.08h1.08v-4.08z"/><path d="m155.77 690.8v3.96h1.08v-3.96z"/><path d="m155.77 683.84v3.96h1.08v-3.96z"/><path d="m155.77 676.76v4.08h1.08v-4.08z"/><path d="m155.77 669.8v3.96h1.08v-3.96z"/><path d="m155.77 662.84v3.96h1.08v-3.96z"/><path d="m155.77 655.76v4.08h1.08v-4.08z"/><path d="m155.77 648.8v3.96h1.08v-3.96z"/><path d="m155.77 641.84v3.96h1.08v-3.96z"/><path d="m155.77 634.76v4.08h1.08v-4.08z"/><path d="m155.77 627.8v3.96h1.08v-3.96z"/><path d="m155.77 620.84v3.96h1.08v-3.96z"/><path d="m155.77 613.76v4.08h1.08v-4.08z"/><path d="m155.77 606.8v3.96h1.08v-3.96z"/><path d="m155.77 599.84v3.96h1.08v-3.96z"/><path d="m155.77 592.76v4.08h1.08v-4.08z"/><path d="m155.77 585.8v3.96h1.08v-3.96z"/><path d="m155.77 578.84v3.96h1.08v-3.96z"/><path d="m155.77 571.76v4.08h1.08v-4.08z"/><path d="m155.77 564.8v3.96h1.08v-3.96z"/><path d="m155.77 557.84v3.96h1.08v-3.96z"/><path d="m155.77 550.76v4.08h1.08v-4.08z"/><path d="m155.77 543.8v3.96h1.08v-3.96z"/><path d="m155.77 536.84v3.96h1.08v-3.96z"/><path d="m155.77 529.76v4.08h1.08v-4.08z"/><path d="m155.77 522.8v3.96h1.08v-3.96z"/><path d="m155.77 515.84v3.96h1.08v-3.96z"/><path d="m155.77 508.76v4.08h1.08v-4.08z"/><path d="m155.77 501.8v3.96h1.08v-3.96z"/><path d="m155.77 494.84v3.96h1.08v-3.96z"/><path d="m155.77 487.76v4.08h1.08v-4.08z"/><path d="m155.77 480.8v3.96h1.08v-3.96z"/><path d="m155.77 473.84v3.96h1.08v-3.96z"/><path d="m155.77 466.76v4.08h1.08v-4.08z"/><path d="m155.77 459.8v3.96h1.08v-3.96z"/><path d="m155.77 452.84v3.96h1.08v-3.96z"/><path d="m155.77 445.76v4.08h1.08v-4.08z"/><path d="m155.77 438.8v3.96h1.08v-3.96z"/><path d="m155.77 431.84v3.96h1.08v-3.96z"/><path d="m155.77 424.76v4.08h1.08v-4.08z"/><path d="m155.77 417.8v3.96h1.08v-3.96z"/><path d="m155.77 410.84v3.96h1.08v-3.96z"/><path d="m155.77 403.76v4.08h1.08v-4.08z"/><path d="m155.77 396.8v3.96h1.08v-3.96z"/><path d="m155.77 389.84v3.96h1.08v-3.96z"/><path d="m155.77 382.76v4.08h1.08v-4.08z"/><path d="m155.77 375.8v3.96h1.08v-3.96z"/><path d="m155.77 368.84v3.96h1.08v-3.96z"/><path d="m155.77 361.76v4.08h1.08v-4.08z"/><path d="m155.77 354.8v3.96h1.08v-3.96z"/><path d="m155.77 347.84v3.96h1.08v-3.96z"/><path d="m155.77 340.76v4.08h1.08v-4.08z"/><path d="m155.77 333.8v3.96h1.08v-3.96z"/><path d="m155.77 326.84v3.96h1.08v-3.96z"/><path d="m155.77 319.76v4.08h1.08v-4.08z"/><path d="m155.77 312.8v3.96h1.08v-3.96z"/><path d="m155.77 305.84v3.96h1.08v-3.96z"/><path d="m155.77 298.76v4.08h1.08v-4.08z"/><path d="m155.77 291.8v3.96h1.08v-3.96z"/><path d="m155.77 284.84v3.96h1.08v-3.96z"/><path d="m155.77 277.76v4.08h1.08v-4.08z"/><path d="m155.77 270.8v3.96h1.08v-3.96z"/><path d="m155.77 263.84v3.96h1.08v-3.96z"/><path d="m155.77 256.76v4.08h1.08v-4.08z"/><path d="m155.77 249.8v3.96h1.08v-3.96z"/><path d="m155.77 242.84v3.96h1.08v-3.96z"/><path d="m155.77 235.76v4.08h1.08v-4.08z"/><path d="m155.77 228.8v3.96h1.08v-3.96z"/><path d="m155.77 221.84v3.96h1.08v-3.96z"/><path d="m155.77 214.76v4.08h1.08v-4.08z"/><path d="m155.77 207.8v3.96h1.08v-3.96z"/><path d="m155.77 200.84v3.96h1.08v-3.96z"/><path d="m155.77 193.76v4.08h1.08v-4.08z"/><path d="m155.77 186.8v3.96h1.08v-3.96z"/><path d="m155.77 179.84v3.96h1.08v-3.96z"/><path d="m155.77 172.76v4.08h1.08v-4.08z"/><path d="m155.77 165.8v3.96h1.08v-3.96z"/><path d="m155.77 158.84v3.96h1.08v-3.96z"/><path d="m155.77 151.76v4.08h1.08v-4.08z"/><path d="m155.77 144.8v3.96h1.08v-3.96z"/><path d="m155.77 137.84v3.96h1.08v-3.96z"/><path d="m155.77 130.76v4.08h1.08v-4.08z"/><path d="m155.77 123.8v3.96h1.08v-3.96z"/><path d="m155.77 116.84v3.96h1.08v-3.96z"/><path d="m155.77 109.76v4.08h1.08v-4.08z"/><path d="m155.77 102.8v3.96h1.08v-3.96z"/><path d="m155.77 95.844v3.96h1.08v-3.96z"/><path d="m241.09 767.84v2.52h1.08v-2.52z"/><path d="m241.09 760.76v4.08h1.08v-4.08z"/><path d="m241.09 753.8v3.96h1.08v-3.96z"/><path d="m241.09 746.84v3.96h1.08v-3.96z"/><path d="m241.09 739.76v4.08h1.08v-4.08z"/><path d="m241.09 732.8v3.96h1.08v-3.96z"/><path d="m241.09 725.84v3.96h1.08v-3.96z"/><path d="m241.09 718.76v4.08h1.08v-4.08z"/><path d="m241.09 711.8v3.96h1.08v-3.96z"/><path d="m241.09 704.84v3.96h1.08v-3.96z"/><path d="m241.09 697.76v4.08h1.08v-4.08z"/><path d="m241.09 690.8v3.96h1.08v-3.96z"/><path d="m241.09 683.84v3.96h1.08v-3.96z"/><path d="m241.09 676.76v4.08h1.08v-4.08z"/><path d="m241.09 669.8v3.96h1.08v-3.96z"/><path d="m241.09 662.84v3.96h1.08v-3.96z"/><path d="m241.09 655.76v4.08h1.08v-4.08z"/><path d="m241.09 648.8v3.96h1.08v-3.96z"/><path d="m241.09 641.84v3.96h1.08v-3.96z"/><path d="m241.09 634.76v4.08h1.08v-4.08z"/><path d="m241.09 627.8v3.96h1.08v-3.96z"/><path d="m241.09 620.84v3.96h1.08v-3.96z"/><path d="m241.09 613.76v4.08h1.08v-4.08z"/><path d="m241.09 606.8v3.96h1.08v-3.96z"/><path d="m241.09 599.84v3.96h1.08v-3.96z"/><path d="m241.09 592.76v4.08h1.08v-4.08z"/><path d="m241.09 585.8v3.96h1.08v-3.96z"/><path d="m241.09 578.84v3.96h1.08v-3.96z"/><path d="m241.09 571.76v4.08h1.08v-4.08z"/><path d="m241.09 564.8v3.96h1.08v-3.96z"/><path d="m241.09 557.84v3.96h1.08v-3.96z"/><path d="m241.09 550.76v4.08h1.08v-4.08z"/><path d="m241.09 543.8v3.96h1.08v-3.96z"/><path d="m241.09 536.84v3.96h1.08v-3.96z"/><path d="m241.09 529.76v4.08h1.08v-4.08z"/><path d="m241.09 522.8v3.96h1.08v-3.96z"/><path d="m241.09 515.84v3.96h1.08v-3.96z"/><path d="m241.09 508.76v4.08h1.08v-4.08z"/><path d="m241.09 501.8v3.96h1.08v-3.96z"/><path d="m241.09 494.84v3.96h1.08v-3.96z"/><path d="m241.09 487.76v4.08h1.08v-4.08z"/><path d="m241.09 480.8v3.96h1.08v-3.96z"/><path d="m241.09 473.84v3.96h1.08v-3.96z"/><path d="m241.09 466.76v4.08h1.08v-4.08z"/><path d="m241.09 459.8v3.96h1.08v-3.96z"/><path d="m241.09 452.84v3.96h1.08v-3.96z"/><path d="m241.09 445.76v4.08h1.08v-4.08z"/><path d="m241.09 438.8v3.96h1.08v-3.96z"/><path d="m241.09 431.84v3.96h1.08v-3.96z"/><path d="m241.09 424.76v4.08h1.08v-4.08z"/><path d="m241.09 417.8v3.96h1.08v-3.96z"/><path d="m241.09 410.84v3.96h1.08v-3.96z"/><path d="m241.09 403.76v4.08h1.08v-4.08z"/><path d="m241.09 396.8v3.96h1.08v-3.96z"/><path d="m241.09 389.84v3.96h1.08v-3.96z"/><path d="m241.09 382.76v4.08h1.08v-4.08z"/><path d="m241.09 375.8v3.96h1.08v-3.96z"/><path d="m241.09 368.84v3.96h1.08v-3.96z"/><path d="m241.09 361.76v4.08h1.08v-4.08z"/><path d="m241.09 354.8v3.96h1.08v-3.96z"/><path d="m241.09 347.84v3.96h1.08v-3.96z"/><path d="m241.09 340.76v4.08h1.08v-4.08z"/><path d="m241.09 333.8v3.96h1.08v-3.96z"/><path d="m241.09 326.84v3.96h1.08v-3.96z"/><path d="m241.09 319.76v4.08h1.08v-4.08z"/><path d="m241.09 312.8v3.96h1.08v-3.96z"/><path d="m241.09 305.84v3.96h1.08v-3.96z"/><path d="m241.09 298.76v4.08h1.08v-4.08z"/><path d="m241.09 291.8v3.96h1.08v-3.96z"/><path d="m241.09 284.84v3.96h1.08v-3.96z"/><path d="m241.09 277.76v4.08h1.08v-4.08z"/><path d="m241.09 270.8v3.96h1.08v-3.96z"/><path d="m241.09 263.84v3.96h1.08v-3.96z"/><path d="m241.09 256.76v4.08h1.08v-4.08z"/><path d="m241.09 249.8v3.96h1.08v-3.96z"/><path d="m241.09 242.84v3.96h1.08v-3.96z"/><path d="m241.09 235.76v4.08h1.08v-4.08z"/><path d="m241.09 228.8v3.96h1.08v-3.96z"/><path d="m241.09 221.84v3.96h1.08v-3.96z"/><path d="m241.09 214.76v4.08h1.08v-4.08z"/><path d="m241.09 207.8v3.96h1.08v-3.96z"/><path d="m241.09 200.84v3.96h1.08v-3.96z"/><path d="m241.09 193.76v4.08h1.08v-4.08z"/><path d="m241.09 186.8v3.96h1.08v-3.96z"/><path d="m241.09 179.84v3.96h1.08v-3.96z"/><path d="m241.09 172.76v4.08h1.08v-4.08z"/><path d="m241.09 165.8v3.96h1.08v-3.96z"/><path d="m241.09 158.84v3.96h1.08v-3.96z"/><path d="m241.09 151.76v4.08h1.08v-4.08z"/><path d="m241.09 144.8v3.96h1.08v-3.96z"/><path d="m241.09 137.84v3.96h1.08v-3.96z"/><path d="m241.09 130.76v4.08h1.08v-4.08z"/><path d="m241.09 123.8v3.96h1.08v-3.96z"/><path d="m241.09 116.84v3.96h1.08v-3.96z"/><path d="m241.09 109.76v4.08h1.08v-4.08z"/><path d="m241.09 102.8v3.96h1.08v-3.96z"/><path d="m241.09 95.844v3.96h1.08v-3.96z"/><path d="m326.41 767.84v2.52h1.08v-2.52z"/><path d="m326.41 760.76v4.08h1.08v-4.08z"/><path d="m326.41 753.8v3.96h1.08v-3.96z"/><path d="m326.41 746.84v3.96h1.08v-3.96z"/><path d="m326.41 739.76v4.08h1.08v-4.08z"/><path d="m326.41 732.8v3.96h1.08v-3.96z"/><path d="m326.41 725.84v3.96h1.08v-3.96z"/><path d="m326.41 718.76v4.08h1.08v-4.08z"/><path d="m326.41 711.8v3.96h1.08v-3.96z"/><path d="m326.41 704.84v3.96h1.08v-3.96z"/><path d="m326.41 697.76v4.08h1.08v-4.08z"/><path d="m326.41 690.8v3.96h1.08v-3.96z"/><path d="m326.41 683.84v3.96h1.08v-3.96z"/><path d="m326.41 676.76v4.08h1.08v-4.08z"/><path d="m326.41 669.8v3.96h1.08v-3.96z"/><path d="m326.41 662.84v3.96h1.08v-3.96z"/><path d="m326.41 655.76v4.08h1.08v-4.08z"/><path d="m326.41 648.8v3.96h1.08v-3.96z"/><path d="m326.41 641.84v3.96h1.08v-3.96z"/><path d="m326.41 634.76v4.08h1.08v-4.08z"/><path d="m326.41 627.8v3.96h1.08v-3.96z"/><path d="m326.41 620.84v3.96h1.08v-3.96z"/><path d="m326.41 613.76v4.08h1.08v-4.08z"/><path d="m326.41 606.8v3.96h1.08v-3.96z"/><path d="m326.41 599.84v3.96h1.08v-3.96z"/><path d="m326.41 592.76v4.08h1.08v-4.08z"/><path d="m326.41 585.8v3.96h1.08v-3.96z"/><path d="m326.41 578.84v3.96h1.08v-3.96z"/><path d="m326.41 571.76v4.08h1.08v-4.08z"/><path d="m326.41 564.8v3.96h1.08v-3.96z"/><path d="m326.41 557.84v3.96h1.08v-3.96z"/><path d="m326.41 550.76v4.08h1.08v-4.08z"/><path d="m326.41 543.8v3.96h1.08v-3.96z"/><path d="m326.41 536.84v3.96h1.08v-3.96z"/><path d="m326.41 529.76v4.08h1.08v-4.08z"/><path d="m326.41 522.8v3.96h1.08v-3.96z"/><path d="m326.41 515.84v3.96h1.08v-3.96z"/><path d="m326.41 508.76v4.08h1.08v-4.08z"/><path d="m326.41 501.8v3.96h1.08v-3.96z"/><path d="m326.41 494.84v3.96h1.08v-3.96z"/><path d="m326.41 487.76v4.08h1.08v-4.08z"/><path d="m326.41 480.8v3.96h1.08v-3.96z"/><path d="m326.41 473.84v3.96h1.08v-3.96z"/><path d="m326.41 466.76v4.08h1.08v-4.08z"/><path d="m326.41 459.8v3.96h1.08v-3.96z"/><path d="m326.41 452.84v3.96h1.08v-3.96z"/><path d="m326.41 445.76v4.08h1.08v-4.08z"/><path d="m326.41 438.8v3.96h1.08v-3.96z"/><path d="m326.41 431.84v3.96h1.08v-3.96z"/><path d="m326.41 424.76v4.08h1.08v-4.08z"/><path d="m326.41 417.8v3.96h1.08v-3.96z"/><path d="m326.41 410.84v3.96h1.08v-3.96z"/><path d="m326.41 403.76v4.08h1.08v-4.08z"/><path d="m326.41 396.8v3.96h1.08v-3.96z"/><path d="m326.41 389.84v3.96h1.08v-3.96z"/><path d="m326.41 382.76v4.08h1.08v-4.08z"/><path d="m326.41 375.8v3.96h1.08v-3.96z"/><path d="m326.41 368.84v3.96h1.08v-3.96z"/><path d="m326.41 361.76v4.08h1.08v-4.08z"/><path d="m326.41 354.8v3.96h1.08v-3.96z"/><path d="m326.41 347.84v3.96h1.08v-3.96z"/><path d="m326.41 340.76v4.08h1.08v-4.08z"/><path d="m326.41 333.8v3.96h1.08v-3.96z"/><path d="m326.41 326.84v3.96h1.08v-3.96z"/><path d="m326.41 319.76v4.08h1.08v-4.08z"/><path d="m326.41 312.8v3.96h1.08v-3.96z"/><path d="m326.41 305.84v3.96h1.08v-3.96z"/><path d="m326.41 298.76v4.08h1.08v-4.08z"/><path d="m326.41 291.8v3.96h1.08v-3.96z"/><path d="m326.41 284.84v3.96h1.08v-3.96z"/><path d="m326.41 277.76v4.08h1.08v-4.08z"/><path d="m326.41 270.8v3.96h1.08v-3.96z"/><path d="m326.41 263.84v3.96h1.08v-3.96z"/><path d="m326.41 256.76v4.08h1.08v-4.08z"/><path d="m326.41 249.8v3.96h1.08v-3.96z"/><path d="m326.41 242.84v3.96h1.08v-3.96z"/><path d="m326.41 235.76v4.08h1.08v-4.08z"/><path d="m326.41 228.8v3.96h1.08v-3.96z"/><path d="m326.41 221.84v3.96h1.08v-3.96z"/><path d="m326.41 214.76v4.08h1.08v-4.08z"/><path d="m326.41 207.8v3.96h1.08v-3.96z"/><path d="m326.41 200.84v3.96h1.08v-3.96z"/><path d="m326.41 193.76v4.08h1.08v-4.08z"/><path d="m326.41 186.8v3.96h1.08v-3.96z"/><path d="m326.41 179.84v3.96h1.08v-3.96z"/><path d="m326.41 172.76v4.08h1.08v-4.08z"/><path d="m326.41 165.8v3.96h1.08v-3.96z"/><path d="m326.41 158.84v3.96h1.08v-3.96z"/><path d="m326.41 151.76v4.08h1.08v-4.08z"/><path d="m326.41 144.8v3.96h1.08v-3.96z"/><path d="m326.41 137.84v3.96h1.08v-3.96z"/><path d="m326.41 130.76v4.08h1.08v-4.08z"/><path d="m326.41 123.8v3.96h1.08v-3.96z"/><path d="m326.41 116.84v3.96h1.08v-3.96z"/><path d="m326.41 109.76v4.08h1.08v-4.08z"/><path d="m326.41 102.8v3.96h1.08v-3.96z"/><path d="m326.41 95.844v3.96h1.08v-3.96z"/><path d="m411.61 767.84v2.52h1.08v-2.52z"/><path d="m411.61 760.76v4.08h1.08v-4.08z"/><path d="m411.61 753.8v3.96h1.08v-3.96z"/><path d="m411.61 746.84v3.96h1.08v-3.96z"/><path d="m411.61 739.76v4.08h1.08v-4.08z"/><path d="m411.61 732.8v3.96h1.08v-3.96z"/><path d="m411.61 725.84v3.96h1.08v-3.96z"/><path d="m411.61 718.76v4.08h1.08v-4.08z"/><path d="m411.61 711.8v3.96h1.08v-3.96z"/><path d="m411.61 704.84v3.96h1.08v-3.96z"/><path d="m411.61 697.76v4.08h1.08v-4.08z"/><path d="m411.61 690.8v3.96h1.08v-3.96z"/><path d="m411.61 683.84v3.96h1.08v-3.96z"/><path d="m411.61 676.76v4.08h1.08v-4.08z"/><path d="m411.61 669.8v3.96h1.08v-3.96z"/><path d="m411.61 662.84v3.96h1.08v-3.96z"/><path d="m411.61 655.76v4.08h1.08v-4.08z"/><path d="m411.61 648.8v3.96h1.08v-3.96z"/><path d="m411.61 641.84v3.96h1.08v-3.96z"/><path d="m411.61 634.76v4.08h1.08v-4.08z"/><path d="m411.61 627.8v3.96h1.08v-3.96z"/><path d="m411.61 620.84v3.96h1.08v-3.96z"/><path d="m411.61 613.76v4.08h1.08v-4.08z"/><path d="m411.61 606.8v3.96h1.08v-3.96z"/><path d="m411.61 599.84v3.96h1.08v-3.96z"/><path d="m411.61 592.76v4.08h1.08v-4.08z"/><path d="m411.61 585.8v3.96h1.08v-3.96z"/><path d="m411.61 578.84v3.96h1.08v-3.96z"/><path d="m411.61 571.76v4.08h1.08v-4.08z"/><path d="m411.61 564.8v3.96h1.08v-3.96z"/><path d="m411.61 557.84v3.96h1.08v-3.96z"/><path d="m411.61 550.76v4.08h1.08v-4.08z"/><path d="m411.61 543.8v3.96h1.08v-3.96z"/><path d="m411.61 536.84v3.96h1.08v-3.96z"/><path d="m411.61 529.76v4.08h1.08v-4.08z"/><path d="m411.61 522.8v3.96h1.08v-3.96z"/><path d="m411.61 515.84v3.96h1.08v-3.96z"/><path d="m411.61 508.76v4.08h1.08v-4.08z"/><path d="m411.61 501.8v3.96h1.08v-3.96z"/><path d="m411.61 494.84v3.96h1.08v-3.96z"/><path d="m411.61 487.76v4.08h1.08v-4.08z"/><path d="m411.61 480.8v3.96h1.08v-3.96z"/><path d="m411.61 473.84v3.96h1.08v-3.96z"/><path d="m411.61 466.76v4.08h1.08v-4.08z"/><path d="m411.61 459.8v3.96h1.08v-3.96z"/><path d="m411.61 452.84v3.96h1.08v-3.96z"/><path d="m411.61 445.76v4.08h1.08v-4.08z"/><path d="m411.61 438.8v3.96h1.08v-3.96z"/><path d="m411.61 431.84v3.96h1.08v-3.96z"/><path d="m411.61 424.76v4.08h1.08v-4.08z"/><path d="m411.61 417.8v3.96h1.08v-3.96z"/><path d="m411.61 410.84v3.96h1.08v-3.96z"/><path d="m411.61 403.76v4.08h1.08v-4.08z"/><path d="m411.61 396.8v3.96h1.08v-3.96z"/><path d="m411.61 389.84v3.96h1.08v-3.96z"/><path d="m411.61 382.76v4.08h1.08v-4.08z"/><path d="m411.61 375.8v3.96h1.08v-3.96z"/><path d="m411.61 368.84v3.96h1.08v-3.96z"/><path d="m411.61 361.76v4.08h1.08v-4.08z"/><path d="m411.61 354.8v3.96h1.08v-3.96z"/><path d="m411.61 347.84v3.96h1.08v-3.96z"/><path d="m411.61 340.76v4.08h1.08v-4.08z"/><path d="m411.61 333.8v3.96h1.08v-3.96z"/><path d="m411.61 326.84v3.96h1.08v-3.96z"/><path d="m411.61 319.76v4.08h1.08v-4.08z"/><path d="m411.61 312.8v3.96h1.08v-3.96z"/><path d="m411.61 305.84v3.96h1.08v-3.96z"/><path d="m411.61 298.76v4.08h1.08v-4.08z"/><path d="m411.61 291.8v3.96h1.08v-3.96z"/><path d="m411.61 284.84v3.96h1.08v-3.96z"/><path d="m411.61 277.76v4.08h1.08v-4.08z"/><path d="m411.61 270.8v3.96h1.08v-3.96z"/><path d="m411.61 263.84v3.96h1.08v-3.96z"/><path d="m411.61 256.76v4.08h1.08v-4.08z"/><path d="m411.61 249.8v3.96h1.08v-3.96z"/><path d="m411.61 242.84v3.96h1.08v-3.96z"/><path d="m411.61 235.76v4.08h1.08v-4.08z"/><path d="m411.61 228.8v3.96h1.08v-3.96z"/><path d="m411.61 221.84v3.96h1.08v-3.96z"/><path d="m411.61 214.76v4.08h1.08v-4.08z"/><path d="m411.61 207.8v3.96h1.08v-3.96z"/><path d="m411.61 200.84v3.96h1.08v-3.96z"/><path d="m411.61 193.76v4.08h1.08v-4.08z"/><path d="m411.61 186.8v3.96h1.08v-3.96z"/><path d="m411.61 179.84v3.96h1.08v-3.96z"/><path d="m411.61 172.76v4.08h1.08v-4.08z"/><path d="m411.61 165.8v3.96h1.08v-3.96z"/><path d="m411.61 158.84v3.96h1.08v-3.96z"/><path d="m411.61 151.76v4.08h1.08v-4.08z"/><path d="m411.61 144.8v3.96h1.08v-3.96z"/><path d="m411.61 137.84v3.96h1.08v-3.96z"/><path d="m411.61 130.76v4.08h1.08v-4.08z"/><path d="m411.61 123.8v3.96h1.08v-3.96z"/><path d="m411.61 116.84v3.96h1.08v-3.96z"/><path d="m411.61 109.76v4.08h1.08v-4.08z"/><path d="m411.61 102.8v3.96h1.08v-3.96z"/><path d="m411.61 95.844v3.96h1.08v-3.96z"/><path d="m491.05 770.84h4.08v-.96h-4.08"/><path d="m484.09 770.84h3.96v-.96h-3.96z"/><path d="m477.13 770.84h3.96v-.96h-3.96z"/><path d="m470.05 770.84h4.08v-.96h-4.08z"/><path d="m463.09 770.84h3.96v-.96h-3.96z"/><path d="m456.13 770.84h3.96v-.96h-3.96z"/><path d="m449.05 770.84h4.08v-.96h-4.08z"/><path d="m442.09 770.84h3.96v-.96h-3.96z"/><path d="m435.13 770.84h3.96v-.96h-3.96z"/><path d="m428.05 770.84h4.08v-.96h-4.08z"/><path d="m421.09 770.84h3.96v-.96h-3.96z"/><path d="m414.13 770.84h3.96v-.96h-3.96z"/><path d="m407.05 770.84h4.08v-.96h-4.08z"/><path d="m400.09 770.84h3.96v-.96h-3.96z"/><path d="m393.13 770.84h3.96v-.96h-3.96z"/><path d="m386.05 770.84h4.08v-.96h-4.08z"/><path d="m379.09 770.84h3.96v-.96h-3.96z"/><path d="m372.13 770.84h3.96v-.96h-3.96z"/><path d="m365.05 770.84h4.08v-.96h-4.08z"/><path d="m358.09 770.84h3.96v-.96h-3.96z"/><path d="m351.13 770.84h3.96v-.96h-3.96z"/><path d="m344.05 770.84h4.08v-.96h-4.08z"/><path d="m337.09 770.84h3.96v-.96h-3.96z"/><path d="m330.13 770.84h3.96v-.96h-3.96z"/><path d="m323.05 770.84h4.08v-.96h-4.08z"/><path d="m316.09 770.84h3.96v-.96h-3.96z"/><path d="m309.13 770.84h3.96v-.96h-3.96z"/><path d="m302.05 770.84h4.08v-.96h-4.08z"/><path d="m295.09 770.84h3.96v-.96h-3.96z"/><path d="m288.13 770.84h3.96v-.96h-3.96z"/><path d="m281.05 770.84h4.08v-.96h-4.08z"/><path d="m274.09 770.84h3.96v-.96h-3.96z"/><path d="m267.13 770.84h3.96v-.96h-3.96z"/><path d="m260.05 770.84h4.08v-.96h-4.08z"/><path d="m253.09 770.84h3.96v-.96h-3.96z"/><path d="m246.13 770.84h3.96v-.96h-3.96z"/><path d="m239.05 770.84h4.08v-.96h-4.08z"/><path d="m232.09 770.84h3.96v-.96h-3.96z"/><path d="m225.13 770.84h3.96v-.96h-3.96z"/><path d="m218.05 770.84h4.08v-.96h-4.08z"/><path d="m211.09 770.84h3.96v-.96h-3.96z"/><path d="m204.13 770.84h3.96v-.96h-3.96z"/><path d="m197.05 770.84h4.08v-.96h-4.08z"/><path d="m190.09 770.84h3.96v-.96h-3.96z"/><path d="m183.13 770.84h3.96v-.96h-3.96z"/><path d="m176.05 770.84h4.08v-.96h-4.08z"/><path d="m169.09 770.84h3.96v-.96h-3.96z"/><path d="m162.13 770.84h3.96v-.96h-3.96z"/><path d="m155.05 770.84h4.08v-.96h-4.08z"/><path d="m148.09 770.84h3.96v-.96h-3.96z"/><path d="m141.13 770.84h3.96v-.96h-3.96z"/><path d="m134.05 770.84h4.08v-.96h-4.08z"/><path d="m127.09 770.84h3.96v-.96h-3.96z"/><path d="m120.13 770.84h3.96v-.96h-3.96z"/><path d="m113.05 770.84h4.08v-.96h-4.08z"/><path d="m106.09 770.84h3.96v-.96h-3.96z"/><path d="m99.134 770.84h3.96v-.96h-3.96z"/><path d="m92.054 770.84h4.08v-.96h-4.08z"/><path d="m85.094 770.84h3.96v-.96h-3.96z"/><path d="m78.134 770.84h3.96v-.96h-3.96z"/><path d="m71.054 770.84h4.08v-.96h-4.08z"/><path d="m491.05 635.96h4.08v-1.08h-4.08z"/><path d="m484.09 635.96h3.96v-1.08h-3.96z"/><path d="m477.13 635.96h3.96v-1.08h-3.96z"/><path d="m470.05 635.96h4.08v-1.08h-4.08z"/><path d="m463.09 635.96h3.96v-1.08h-3.96z"/><path d="m456.13 635.96h3.96v-1.08h-3.96z"/><path d="m449.05 635.96h4.08v-1.08h-4.08z"/><path d="m442.09 635.96h3.96v-1.08h-3.96z"/><path d="m435.13 635.96h3.96v-1.08h-3.96z"/><path d="m428.05 635.96h4.08v-1.08h-4.08z"/><path d="m421.09 635.96h3.96v-1.08h-3.96z"/><path d="m414.13 635.96h3.96v-1.08h-3.96z"/><path d="m407.05 635.96h4.08v-1.08h-4.08z"/><path d="m400.09 635.96h3.96v-1.08h-3.96z"/><path d="m393.13 635.96h3.96v-1.08h-3.96z"/><path d="m386.05 635.96h4.08v-1.08h-4.08z"/><path d="m379.09 635.96h3.96v-1.08h-3.96z"/><path d="m372.13 635.96h3.96v-1.08h-3.96z"/><path d="m365.05 635.96h4.08v-1.08h-4.08z"/><path d="m358.09 635.96h3.96v-1.08h-3.96z"/><path d="m351.13 635.96h3.96v-1.08h-3.96z"/><path d="m344.05 635.96h4.08v-1.08h-4.08z"/><path d="m337.09 635.96h3.96v-1.08h-3.96z"/><path d="m330.13 635.96h3.96v-1.08h-3.96z"/><path d="m323.05 635.96h4.08v-1.08h-4.08z"/><path d="m316.09 635.96h3.96v-1.08h-3.96z"/><path d="m309.13 635.96h3.96v-1.08h-3.96z"/><path d="m302.05 635.96h4.08v-1.08h-4.08z"/><path d="m295.09 635.96h3.96v-1.08h-3.96z"/><path d="m288.13 635.96h3.96v-1.08h-3.96z"/><path d="m281.05 635.96h4.08v-1.08h-4.08z"/><path d="m274.09 635.96h3.96v-1.08h-3.96z"/><path d="m267.13 635.96h3.96v-1.08h-3.96z"/><path d="m260.05 635.96h4.08v-1.08h-4.08z"/><path d="m253.09 635.96h3.96v-1.08h-3.96z"/><path d="m246.13 635.96h3.96v-1.08h-3.96z"/><path d="m239.05 635.96h4.08v-1.08h-4.08z"/><path d="m232.09 635.96h3.96v-1.08h-3.96z"/><path d="m225.13 635.96h3.96v-1.08h-3.96z"/><path d="m218.05 635.96h4.08v-1.08h-4.08z"/><path d="m211.09 635.96h3.96v-1.08h-3.96z"/><path d="m204.13 635.96h3.96v-1.08h-3.96z"/><path d="m197.05 635.96h4.08v-1.08h-4.08z"/><path d="m190.09 635.96h3.96v-1.08h-3.96z"/><path d="m183.13 635.96h3.96v-1.08h-3.96z"/><path d="m176.05 635.96h4.08v-1.08h-4.08z"/><path d="m169.09 635.96h3.96v-1.08h-3.96z"/><path d="m162.13 635.96h3.96v-1.08h-3.96z"/><path d="m155.05 635.96h4.08v-1.08h-4.08z"/><path d="m148.09 635.96h3.96v-1.08h-3.96z"/><path d="m141.13 635.96h3.96v-1.08h-3.96z"/><path d="m134.05 635.96h4.08v-1.08h-4.08z"/><path d="m127.09 635.96h3.96v-1.08h-3.96z"/><path d="m120.13 635.96h3.96v-1.08h-3.96z"/><path d="m113.05 635.96h4.08v-1.08h-4.08z"/><path d="m106.09 635.96h3.96v-1.08h-3.96z"/><path d="m99.134 635.96h3.96v-1.08h-3.96z"/><path d="m92.054 635.96h4.08v-1.08h-4.08z"/><path d="m85.094 635.96h3.96v-1.08h-3.96z"/><path d="m78.134 635.96h3.96v-1.08h-3.96z"/><path d="m71.054 635.96h4.08v-1.08h-4.08z"/><path d="m491.05 501.08h4.08v-1.08h-4.08z"/><path d="m484.09 501.08h3.96v-1.08h-3.96z"/><path d="m477.13 501.08h3.96v-1.08h-3.96z"/><path d="m470.05 501.08h4.08v-1.08h-4.08z"/><path d="m463.09 501.08h3.96v-1.08h-3.96z"/><path d="m456.13 501.08h3.96v-1.08h-3.96z"/><path d="m449.05 501.08h4.08v-1.08h-4.08z"/><path d="m442.09 501.08h3.96v-1.08h-3.96z"/><path d="m435.13 501.08h3.96v-1.08h-3.96z"/><path d="m428.05 501.08h4.08v-1.08h-4.08z"/><path d="m421.09 501.08h3.96v-1.08h-3.96z"/><path d="m414.13 501.08h3.96v-1.08h-3.96z"/><path d="m407.05 501.08h4.08v-1.08h-4.08z"/><path d="m400.09 501.08h3.96v-1.08h-3.96z"/><path d="m393.13 501.08h3.96v-1.08h-3.96z"/><path d="m386.05 501.08h4.08v-1.08h-4.08z"/><path d="m379.09 501.08h3.96v-1.08h-3.96z"/><path d="m372.13 501.08h3.96v-1.08h-3.96z"/><path d="m365.05 501.08h4.08v-1.08h-4.08z"/><path d="m358.09 501.08h3.96v-1.08h-3.96z"/><path d="m351.13 501.08h3.96v-1.08h-3.96z"/><path d="m344.05 501.08h4.08v-1.08h-4.08z"/><path d="m337.09 501.08h3.96v-1.08h-3.96z"/><path d="m330.13 501.08h3.96v-1.08h-3.96z"/><path d="m323.05 501.08h4.08v-1.08h-4.08z"/><path d="m316.09 501.08h3.96v-1.08h-3.96z"/><path d="m309.13 501.08h3.96v-1.08h-3.96z"/><path d="m302.05 501.08h4.08v-1.08h-4.08z"/><path d="m295.09 501.08h3.96v-1.08h-3.96z"/><path d="m288.13 501.08h3.96v-1.08h-3.96z"/><path d="m281.05 501.08h4.08v-1.08h-4.08z"/><path d="m274.09 501.08h3.96v-1.08h-3.96z"/><path d="m267.13 501.08h3.96v-1.08h-3.96z"/><path d="m260.05 501.08h4.08v-1.08h-4.08z"/><path d="m253.09 501.08h3.96v-1.08h-3.96z"/><path d="m246.13 501.08h3.96v-1.08h-3.96z"/><path d="m239.05 501.08h4.08v-1.08h-4.08z"/><path d="m232.09 501.08h3.96v-1.08h-3.96z"/><path d="m225.13 501.08h3.96v-1.08h-3.96z"/><path d="m218.05 501.08h4.08v-1.08h-4.08z"/><path d="m211.09 501.08h3.96v-1.08h-3.96z"/><path d="m204.13 501.08h3.96v-1.08h-3.96z"/><path d="m197.05 501.08h4.08v-1.08h-4.08z"/><path d="m190.09 501.08h3.96v-1.08h-3.96z"/><path d="m183.13 501.08h3.96v-1.08h-3.96z"/><path d="m176.05 501.08h4.08v-1.08h-4.08z"/><path d="m169.09 501.08h3.96v-1.08h-3.96z"/><path d="m162.13 501.08h3.96v-1.08h-3.96z"/><path d="m155.05 501.08h4.08v-1.08h-4.08z"/><path d="m148.09 501.08h3.96v-1.08h-3.96z"/><path d="m141.13 501.08h3.96v-1.08h-3.96z"/><path d="m134.05 501.08h4.08v-1.08h-4.08z"/><path d="m85.094 501.08h3.96v-1.08h-3.96z"/><path d="m78.134 501.08h3.96v-1.08h-3.96z"/><path d="m71.054 501.08h4.08v-1.08h-4.08z"/><path d="m491.05 366.2h4.08v-1.08h-4.08z"/><path d="m484.09 366.2h3.96v-1.08h-3.96z"/><path d="m477.13 366.2h3.96v-1.08h-3.96z"/><path d="m470.05 366.2h4.08v-1.08h-4.08z"/><path d="m463.09 366.2h3.96v-1.08h-3.96z"/><path d="m456.13 366.2h3.96v-1.08h-3.96z"/><path d="m449.05 366.2h4.08v-1.08h-4.08z"/><path d="m442.09 366.2h3.96v-1.08h-3.96z"/><path d="m435.13 366.2h3.96v-1.08h-3.96z"/><path d="m428.05 366.2h4.08v-1.08h-4.08z"/><path d="m421.09 366.2h3.96v-1.08h-3.96z"/><path d="m414.13 366.2h3.96v-1.08h-3.96z"/><path d="m407.05 366.2h4.08v-1.08h-4.08z"/><path d="m400.09 366.2h3.96v-1.08h-3.96z"/><path d="m393.13 366.2h3.96v-1.08h-3.96z"/><path d="m386.05 366.2h4.08v-1.08h-4.08z"/><path d="m379.09 366.2h3.96v-1.08h-3.96z"/><path d="m372.13 366.2h3.96v-1.08h-3.96z"/><path d="m365.05 366.2h4.08v-1.08h-4.08z"/><path d="m358.09 366.2h3.96v-1.08h-3.96z"/><path d="m351.13 366.2h3.96v-1.08h-3.96z"/><path d="m344.05 366.2h4.08v-1.08h-4.08z"/><path d="m337.09 366.2h3.96v-1.08h-3.96z"/><path d="m330.13 366.2h3.96v-1.08h-3.96z"/><path d="m323.05 366.2h4.08v-1.08h-4.08z"/><path d="m316.09 366.2h3.96v-1.08h-3.96z"/><path d="m309.13 366.2h3.96v-1.08h-3.96z"/><path d="m302.05 366.2h4.08v-1.08h-4.08z"/><path d="m295.09 366.2h3.96v-1.08h-3.96z"/><path d="m288.13 366.2h3.96v-1.08h-3.96z"/><path d="m281.05 366.2h4.08v-1.08h-4.08z"/><path d="m274.09 366.2h3.96v-1.08h-3.96z"/><path d="m267.13 366.2h3.96v-1.08h-3.96z"/><path d="m260.05 366.2h4.08v-1.08h-4.08z"/><path d="m253.09 366.2h3.96v-1.08h-3.96z"/><path d="m246.13 366.2h3.96v-1.08h-3.96z"/><path d="m239.05 366.2h4.08v-1.08h-4.08z"/><path d="m232.09 366.2h3.96v-1.08h-3.96z"/><path d="m225.13 366.2h3.96v-1.08h-3.96z"/><path d="m218.05 366.2h4.08v-1.08h-4.08z"/><path d="m211.09 366.2h3.96v-1.08h-3.96z"/><path d="m204.13 366.2h3.96v-1.08h-3.96z"/><path d="m197.05 366.2h4.08v-1.08h-4.08z"/><path d="m190.09 366.2h3.96v-1.08h-3.96z"/><path d="m183.13 366.2h3.96v-1.08h-3.96z"/><path d="m176.05 366.2h4.08v-1.08h-4.08z"/><path d="m169.09 366.2h3.96v-1.08h-3.96z"/><path d="m162.13 366.2h3.96v-1.08h-3.96z"/><path d="m155.05 366.2h4.08v-1.08h-4.08z"/><path d="m148.09 366.2h3.96v-1.08h-3.96z"/><path d="m141.13 366.2h3.96v-1.08h-3.96z"/><path d="m134.05 366.2h4.08v-1.08h-4.08z"/><path d="m85.094 366.2h3.96v-1.08h-3.96z"/><path d="m78.134 366.2h3.96v-1.08h-3.96z"/><path d="m71.054 366.2h4.08v-1.08h-4.08z"/><path d="m491.05 231.2h4.08v-1.08h-4.08z"/><path d="m484.09 231.2h3.96v-1.08h-3.96z"/><path d="m477.13 231.2h3.96v-1.08h-3.96z"/><path d="m470.05 231.2h4.08v-1.08h-4.08z"/><path d="m463.09 231.2h3.96v-1.08h-3.96z"/><path d="m456.13 231.2h3.96v-1.08h-3.96z"/><path d="m449.05 231.2h4.08v-1.08h-4.08z"/><path d="m442.09 231.2h3.96v-1.08h-3.96z"/><path d="m435.13 231.2h3.96v-1.08h-3.96z"/><path d="m428.05 231.2h4.08v-1.08h-4.08z"/><path d="m421.09 231.2h3.96v-1.08h-3.96z"/><path d="m414.13 231.2h3.96v-1.08h-3.96z"/><path d="m407.05 231.2h4.08v-1.08h-4.08z"/><path d="m400.09 231.2h3.96v-1.08h-3.96z"/><path d="m393.13 231.2h3.96v-1.08h-3.96z"/><path d="m386.05 231.2h4.08v-1.08h-4.08z"/><path d="m379.09 231.2h3.96v-1.08h-3.96z"/><path d="m372.13 231.2h3.96v-1.08h-3.96z"/><path d="m365.05 231.2h4.08v-1.08h-4.08z"/><path d="m358.09 231.2h3.96v-1.08h-3.96z"/><path d="m351.13 231.2h3.96v-1.08h-3.96z"/><path d="m344.05 231.2h4.08v-1.08h-4.08z"/><path d="m337.09 231.2h3.96v-1.08h-3.96z"/><path d="m330.13 231.2h3.96v-1.08h-3.96z"/><path d="m323.05 231.2h4.08v-1.08h-4.08z"/><path d="m316.09 231.2h3.96v-1.08h-3.96z"/><path d="m309.13 231.2h3.96v-1.08h-3.96z"/><path d="m302.05 231.2h4.08v-1.08h-4.08z"/><path d="m295.09 231.2h3.96v-1.08h-3.96z"/><path d="m288.13 231.2h3.96v-1.08h-3.96z"/><path d="m281.05 231.2h4.08v-1.08h-4.08z"/><path d="m274.09 231.2h3.96v-1.08h-3.96z"/><path d="m267.13 231.2h3.96v-1.08h-3.96z"/><path d="m260.05 231.2h4.08v-1.08h-4.08z"/><path d="m253.09 231.2h3.96v-1.08h-3.96z"/><path d="m246.13 231.2h3.96v-1.08h-3.96z"/><path d="m239.05 231.2h4.08v-1.08h-4.08z"/><path d="m232.09 231.2h3.96v-1.08h-3.96z"/><path d="m225.13 231.2h3.96v-1.08h-3.96z"/><path d="m218.05 231.2h4.08v-1.08h-4.08z"/><path d="m211.09 231.2h3.96v-1.08h-3.96z"/><path d="m204.13 231.2h3.96v-1.08h-3.96z"/><path d="m197.05 231.2h4.08v-1.08h-4.08z"/><path d="m190.09 231.2h3.96v-1.08h-3.96z"/><path d="m183.13 231.2h3.96v-1.08h-3.96z"/><path d="m176.05 231.2h4.08v-1.08h-4.08z"/><path d="m169.09 231.2h3.96v-1.08h-3.96z"/><path d="m162.13 231.2h3.96v-1.08h-3.96z"/><path d="m155.05 231.2h4.08v-1.08h-4.08z"/><path d="m148.09 231.2h3.96v-1.08h-3.96z"/><path d="m141.13 231.2h3.96v-1.08h-3.96z"/><path d="m134.05 231.2h4.08v-1.08h-4.08z"/><path d="m127.09 231.2h3.96v-1.08h-3.96z"/><path d="m120.13 231.2h3.96v-1.08h-3.96z"/><path d="m113.05 231.2h4.08v-1.08h-4.08z"/><path d="m106.09 231.2h3.96v-1.08h-3.96z"/><path d="m99.134 231.2h3.96v-1.08h-3.96z"/><path d="m92.054 231.2h4.08v-1.08h-4.08z"/><path d="m85.094 231.2h3.96v-1.08h-3.96z"/><path d="m78.134 231.2h3.96v-1.08h-3.96z"/><path d="m71.054 231.2h4.08v-1.08h-4.08z"/><path d="m497.41 94.284h-426.48c-.72 0-1.44.72-1.44 1.44 0 .84.72 1.56 1.44 1.56h426.48c.84 0 1.56-.72 1.56-1.56 0-.72-.72-1.44-1.56-1.44"/><path d="m495.97 95.724v674.52c0 .84.72 1.56 1.44 1.56.84 0 1.56-.72 1.56-1.56v-674.52c0-.72-.72-1.44-1.56-1.44-.72 0-1.44.72-1.44 1.44"/><path d="m492.61411 97.283708h4.8c.84 0 1.56-.72 1.56-1.56 0-.72-.72-1.44-1.56-1.44h-4.8c-.72 0-1.44.72-1.44 1.44 0 .84.72 1.56 1.44 1.56zm0 26.879762h4.8c.84 0 1.56-.72 1.56-1.56 0-.72-.72-1.44-1.56-1.44h-4.8c-.72 0-1.44.72-1.44 1.44 0 .84.72 1.56 1.44 1.56zm0 27h4.8c.84 0 1.56-.72 1.56-1.56 0-.72-.72-1.44-1.56-1.44h-4.8c-.72 0-1.44.72-1.44 1.44 0 .84.72 1.56 1.44 1.56zm0 27h4.8c.84 0 1.56-.72 1.56-1.56 0-.72-.72-1.44-1.56-1.44h-4.8c-.72 0-1.44.72-1.44 1.44 0 .84.72 1.56 1.44 1.56zm0 27h4.8c.84 0 1.56-.72 1.56-1.56 0-.72-.72-1.44-1.56-1.44h-4.8c-.72 0-1.44.72-1.44 1.44 0 .84.72 1.56 1.44 1.56zm0 27h4.8c.84 0 1.56-.72 1.56-1.56 0-.72-.72-1.44-1.56-1.44h-4.8c-.72 0-1.44.72-1.44 1.44 0 .84.72 1.56 1.44 1.56zm0 27h4.8c.84 0 1.56-.72 1.56-1.56 0-.72-.72-1.44-1.56-1.44h-4.8c-.72 0-1.44.72-1.44 1.44 0 .84.72 1.56 1.44 1.56zm0 27h4.8c.84 0 1.56-.72 1.56-1.56 0-.72-.72-1.44-1.56-1.44h-4.8c-.72 0-1.44.72-1.44 1.44 0 .84.72 1.56 1.44 1.56zm0 27h4.8c.84 0 1.56-.72 1.56-1.56 0-.72-.72-1.44-1.56-1.44h-4.8c-.72 0-1.44.72-1.44 1.44 0 .84.72 1.56 1.44 1.56zm0 26.88h4.8c.84 0 1.56-.72 1.56-1.56 0-.72-.72-1.44-1.56-1.44h-4.8c-.72 0-1.44.72-1.44 1.44 0 .84.72 1.56 1.44 1.56zm0 27h4.8c.84 0 1.56-.72 1.56-1.56 0-.72-.72-1.44-1.56-1.44h-4.8c-.72 0-1.44.72-1.44 1.44 0 .84.72 1.56 1.44 1.56zm0 27h4.8c.84 0 1.56-.72 1.56-1.56 0-.72-.72-1.44-1.56-1.44h-4.8c-.72 0-1.44.72-1.44 1.44 0 .84.72 1.56 1.44 1.56zm0 27h4.8c.84 0 1.56-.72 1.56-1.56 0-.72-.72-1.44-1.56-1.44h-4.8c-.72 0-1.44.72-1.44 1.44 0 .84.72 1.56 1.44 1.56zm0 27h4.8c.84 0 1.56-.72 1.56-1.56 0-.72-.72-1.44-1.56-1.44h-4.8c-.72 0-1.44.72-1.44 1.44 0 .84.72 1.56 1.44 1.56zm0 27h4.8c.84 0 1.56-.72 1.56-1.56 0-.72-.72-1.44-1.56-1.44h-4.8c-.72 0-1.44.72-1.44 1.44 0 .84.72 1.56 1.44 1.56zm0 27h4.8c.84 0 1.56-.72 1.56-1.56 0-.72-.72-1.44-1.56-1.44h-4.8c-.72 0-1.44.72-1.44 1.44 0 .84.72 1.56 1.44 1.56zm0 27h4.8c.84 0 1.56-.72 1.56-1.56 0-.72-.72-1.44-1.56-1.44h-4.8c-.72 0-1.44.72-1.44 1.44 0 .84.72 1.56 1.44 1.56zm0 26.88h4.8c.84 0 1.56-.72 1.56-1.56 0-.72-.72-1.44-1.56-1.44h-4.8c-.72 0-1.44.72-1.44 1.44 0 .84.72 1.56 1.44 1.56zm0 27h4.8c.84 0 1.56-.72 1.56-1.56 0-.72-.72-1.44-1.56-1.44h-4.8c-.72 0-1.44.72-1.44 1.44 0 .84.72 1.56 1.44 1.56zm0 27h4.8c.84 0 1.56-.72 1.56-1.56 0-.72-.72-1.44-1.56-1.44h-4.8c-.72 0-1.44.72-1.44 1.44 0 .84.72 1.56 1.44 1.56zm0 27h4.8c.84 0 1.56-.72 1.56-1.56 0-.72-.72-1.44-1.56-1.44h-4.8c-.72 0-1.44.72-1.44 1.44 0 .84.72 1.56 1.44 1.56zm0 27h4.8c.84 0 1.56-.72 1.56-1.56 0-.72-.72-1.44-1.56-1.44h-4.8c-.72 0-1.44.72-1.44 1.44 0 .84.72 1.56 1.44 1.56zm0 27h4.8c.84 0 1.56-.72 1.56-1.56 0-.72-.72-1.44-1.56-1.44h-4.8c-.72 0-1.44.72-1.44 1.44 0 .84.72 1.56 1.44 1.56zm0 27h4.8c.84 0 1.56-.72 1.56-1.56 0-.72-.72-1.44-1.56-1.44h-4.8c-.72 0-1.44.72-1.44 1.44 0 .84.72 1.56 1.44 1.56zm0 26.88h4.8c.84 0 1.56-.72 1.56-1.56 0-.72-.72-1.44-1.56-1.44h-4.8c-.72 0-1.44.72-1.44 1.44 0 .84.72 1.56 1.44 1.56zm0 27h4.8c.84 0 1.56-.72 1.56-1.56 0-.72-.72-1.44-1.56-1.44h-4.8c-.72 0-1.44.72-1.44 1.44 0 .84.72 1.56 1.44 1.56"/><path d="m70.934 98.244c1.44 0 2.52-1.08 2.52-2.52 0-1.32-1.08-2.4-2.52-2.4-1.32 0-2.4 1.08-2.4 2.4 0 1.44 1.08 2.52 2.4 2.52" fill="#ed7d31"/><path d="m70.814 100.16c2.5936.24518 4.8954-2.1657 4.5528-4.7501-.08243-2.1577-1.9729-3.9771-4.1447-4.0365-2.863-.24785-5.3117 2.7517-4.484 5.4984.33842 1.9131 2.1948 3.2573 4.0759 3.2883zm-.12-3.96c.30598.13402-.20544-.13218-.18962-.28452.08611.36431-.10087-.55177.09281-.45871.52339-.35841-.41107.08136.57677-.21677-.47358.0742.35391.05702.05765.18415-.02703-.36218.45926.58573.18235.05585.28573.69016-.3451.76838-.36188.77557l-.16752.06239.28941.002" fill="#c00000"/><path d="m79.454 111.68c1.44 0 2.52-1.08 2.52-2.52 0-1.32-1.08-2.4-2.52-2.4-1.32 0-2.4 1.08-2.4 2.4 0 1.44 1.08 2.52 2.4 2.52" fill="#ed7d31"/><path d="m79.334115 113.60371c2.593569.24511 4.89545-2.16567 4.552811-4.75014-.08243-2.1577-1.972911-3.97706-4.144732-4.03655-2.863029-.24794-5.311674 2.75165-4.484004 5.49837.339324 1.91412 2.194125 3.25663 4.075925 3.28832zm-.12-3.96c.305982.13408-.205443-.13213-.189615-.28447.03809.44245.0054-.65125.0069-.3728.686772-.44963-.361117-.0253.662707-.30271-.473577.0742.353912.057.05765.18415-.02703-.36219.459256.58573.182348.0559.285727.6902-.345116.76831-.36189.77554l-.167523.0624.289408.002" fill="#c00000"/><path d="m87.974 125.12c1.44 0 2.52-1.08 2.52-2.52 0-1.32-1.08-2.3998-2.52-2.3998-1.32 0-2.4 1.0798-2.4 2.3998 0 1.44 1.08 2.52 2.4 2.52" fill="#ed7d31"/><path d="m87.854115 127.04347c2.593561.24518 4.895447-2.1657 4.552811-4.75014-.0825-2.1576-1.973034-3.97681-4.144732-4.03631-2.86287-.24792-5.311703 2.75146-4.484004 5.49813.339324 1.91412 2.194125 3.25663 4.075925 3.28832zm-.12-3.96c.305982.13408-.205443-.13213-.189615-.28447.03809.44245.0054-.65125.0069-.3728.686772-.44963-.361117-.0253.662707-.30271-.473577.0742.353912.057.05765.18415-.02703-.36219.459257.58573.182349.0558.285727.6902-.345116.76831-.36189.77554l-.167523.0624.289408.002" fill="#c00000"/><path d="m96.494 138.68c1.44 0 2.52-1.08 2.52-2.52 0-1.32-1.08-2.4-2.52-2.4-1.32 0-2.4 1.08-2.4 2.4 0 1.44 1.08 2.52 2.4 2.52" fill="#ed7d31"/><path d="m96.374115 140.60347c2.59356.24518 4.895445-2.1657 4.552805-4.75014-.0824-2.15769-1.972906-3.97707-4.144726-4.03654-2.863006-.24777-5.31168 2.7517-4.484004 5.49846.339316 1.91402 2.194139 3.2568 4.075925 3.28822zm-.12-3.96c.305982.13408-.205443-.13213-.189615-.28447.03809.44245.0054-.65125.0069-.3728.686772-.44963-.361117-.0253.662707-.30271-.473577.0742.353912.057.05765.18415-.02703-.36219.459257.58573.182349.0558.285729.6902-.3451.76831-.36188.77554l-.167523.0624.289408.002" fill="#c00000"/><path d="m105.13 152.12c1.44 0 2.52-1.08 2.52-2.52 0-1.32-1.08-2.4-2.52-2.4-1.32 0-2.4 1.08-2.4 2.4 0 1.44 1.08 2.52 2.4 2.52" fill="#ed7d31"/><path d="m105.01411 154.04347c2.59357.24511 4.89545-2.16567 4.55281-4.75014-.0824-2.15769-1.97291-3.97706-4.14473-4.03654-2.86301-.24778-5.31168 2.7517-4.48401 5.49846.33932 1.91402 2.19414 3.2568 4.07593 3.28822zm-.12-3.96c.30597.13408-.20544-.13213-.18962-.28447.0861.36433-.10086-.55182.0928-.45873.5234-.35842-.41107.0813.57678-.21678-.47357.0742.35391.057.0577.18415-.0271-.36218.45927.58573.18233.0559.28574.6902-.34505.76831-.36185.77554l-.16752.0624.28941.002" fill="#c00000"/><path d="m113.65 165.68c1.44 0 2.52-1.08 2.52-2.52 0-1.32-1.08-2.4-2.52-2.4-1.32 0-2.4 1.08-2.4 2.4 0 1.44 1.08 2.52 2.4 2.52" fill="#ed7d31"/><path d="m113.53411 167.60347c2.59356.24518 4.89545-2.1657 4.55281-4.75014-.0824-2.15769-1.97291-3.97706-4.14473-4.03654-2.86301-.24778-5.31168 2.7517-4.48401 5.49846.33932 1.91402 2.19414 3.2568 4.07593 3.28822zm-.12-3.96c.30597.13408-.20544-.13213-.18962-.28447.0861.36433-.10089-.55182.0928-.45873.5234-.35842-.41107.0813.57678-.21678-.47357.0742.35391.057.0576.18415-.0271-.36218.45927.58573.18233.0558.28574.6902-.34505.76831-.36185.77554l-.16752.0624.28941.002" fill="#c00000"/><path d="m122.17 179.12c1.44 0 2.52-1.08 2.52-2.52 0-1.32-1.08-2.4-2.52-2.4-1.32 0-2.4 1.08-2.4 2.4 0 1.44 1.08 2.52 2.4 2.52" fill="#ed7d31"/><path d="m122.05411 181.04347c2.59357.24511 4.89545-2.16567 4.55281-4.75014-.0824-2.15769-1.97291-3.97706-4.14473-4.03654-2.86301-.24778-5.31168 2.7517-4.48401 5.49846.33932 1.91402 2.19414 3.2568 4.07593 3.28822zm-.12-3.96c.30597.13408-.20544-.13213-.18962-.28447.0861.36433-.10086-.55182.0928-.45873.5234-.35842-.41107.0813.57678-.21678-.47357.0742.35391.057.0576.18415-.0271-.36218.45927.58573.18233.0559.28574.6902-.34505.76831-.36185.77554l-.16752.0624.28941.002" fill="#c00000"/><path d="m130.69 192.68c1.44 0 2.52-1.08 2.52-2.52 0-1.32-1.08-2.4-2.52-2.4-1.32 0-2.4 1.08-2.4 2.4 0 1.44 1.08 2.52 2.4 2.52" fill="#ed7d31"/><path d="m130.57411 194.60347c2.59356.24518 4.89545-2.1657 4.55281-4.75014-.0824-2.15769-1.97291-3.97706-4.14473-4.03654-2.86301-.24778-5.31168 2.7517-4.48401 5.49846.33932 1.91402 2.19414 3.2568 4.07593 3.28822zm-.12-3.96c.30597.13408-.20544-.13213-.18962-.28447.0861.36433-.10089-.55182.0928-.45873.5234-.35842-.41107.0813.57678-.21678-.47357.0742.35391.057.0576.18415-.0271-.36218.45927.58573.18233.0558.28574.6902-.34505.76831-.36185.77554l-.16752.0624.28941.002" fill="#c00000"/><path d="m139.21 206.12c1.44 0 2.52-1.08 2.52-2.52 0-1.32-1.08-2.4-2.52-2.4-1.32 0-2.4 1.08-2.4 2.4 0 1.44 1.08 2.52 2.4 2.52" fill="#ed7d31"/><path d="m139.09411 208.04347c2.59357.24511 4.89545-2.16567 4.55281-4.75014-.0824-2.15769-1.97291-3.97706-4.14473-4.03654-2.86301-.24778-5.31168 2.7517-4.48401 5.49846.33932 1.91402 2.19414 3.2568 4.07593 3.28822zm-.12-3.96c.30597.13408-.20544-.13213-.18962-.28447.0861.36433-.10086-.55182.0928-.45873.5234-.35842-.41107.0813.57678-.21678-.47357.0742.35391.057.0576.18415-.0271-.36218.45927.58573.18233.0559.28574.6902-.34505.76831-.36185.77554l-.16752.0624.28941.002" fill="#c00000"/><path d="m147.73 219.56c1.44 0 2.52-1.08 2.52-2.52 0-1.32-1.08-2.4-2.52-2.4-1.32 0-2.4 1.08-2.4 2.4 0 1.44 1.08 2.52 2.4 2.52" fill="#ed7d31"/><path d="m147.61411 221.48347c2.59357.24511 4.89545-2.16567 4.55281-4.75014-.0824-2.15769-1.97291-3.97706-4.14473-4.03654-2.86301-.24778-5.31168 2.7517-4.48401 5.49846.33932 1.91402 2.19414 3.2568 4.07593 3.28822zm-.12-3.96c.30597.13408-.20544-.13213-.18962-.28447.0861.36433-.10086-.55182.0928-.45873.5234-.35842-.41107.0813.57678-.21678-.47357.0742.35391.057.0577.18415-.0271-.36218.45927.58573.18233.0559.28574.6902-.34505.76831-.36185.77554l-.16752.0624.28941.002" fill="#c00000"/><path d="m156.25 233.12c1.44 0 2.52-1.08 2.52-2.52 0-1.32-1.08-2.4-2.52-2.4-1.32 0-2.4 1.08-2.4 2.4 0 1.44 1.08 2.52 2.4 2.52" fill="#ed7d31"/><path d="m156.13411 235.04347c2.59357.24511 4.89545-2.16567 4.55281-4.75014-.0824-2.15769-1.97291-3.97706-4.14473-4.03654-2.86301-.24778-5.31168 2.7517-4.48401 5.49846.33932 1.91402 2.19414 3.2568 4.07593 3.28822zm-.12-3.96c.30597.13408-.20544-.13213-.18962-.28447.0861.36433-.10089-.55182.0928-.45873.5234-.35842-.41107.0813.57678-.21678-.47357.0742.35391.057.0576.18415-.0271-.36218.45927.58573.18233.0559.28574.6902-.34505.76831-.36185.77554l-.16752.0624.28941.002" fill="#c00000"/><path d="m164.77 246.56c1.44 0 2.52-1.08 2.52-2.52 0-1.32-1.08-2.4-2.52-2.4-1.32 0-2.4 1.08-2.4 2.4 0 1.44 1.08 2.52 2.4 2.52" fill="#ed7d31"/><path d="m164.65411 248.48347c2.59357.24511 4.89545-2.16567 4.55281-4.75014-.0824-2.15769-1.97291-3.97706-4.14473-4.03654-2.86301-.24778-5.31168 2.7517-4.48401 5.49846.33932 1.91402 2.19414 3.2568 4.07593 3.28822zm-.12-3.96c.30597.13408-.20544-.13213-.18962-.28447.0861.36433-.10086-.55182.0928-.45873.5234-.35842-.41107.0813.57678-.21678-.47357.0742.35391.057.0576.18415-.0271-.36218.45927.58573.18233.0559.28574.6902-.34505.76831-.36185.77554l-.16752.0624.28941.002" fill="#c00000"/><path d="m173.29 260.12c1.44 0 2.52-1.08 2.52-2.52 0-1.32-1.08-2.4-2.52-2.4-1.32 0-2.4 1.08-2.4 2.4 0 1.44 1.08 2.52 2.4 2.52" fill="#ed7d31"/><path d="m173.17411 262.04347c2.59356.24518 4.89545-2.1657 4.55281-4.75014-.0824-2.15769-1.97291-3.97706-4.14473-4.03654-2.86301-.24778-5.31168 2.7517-4.48401 5.49846.33932 1.91402 2.19414 3.2568 4.07593 3.28822zm-.12-3.96c.30597.13408-.20544-.13213-.18962-.28447.0861.36433-.10086-.55182.0928-.45873.5234-.35842-.41107.0814.57678-.21678-.47357.0742.35391.057.0576.18415-.027-.36218.45927.58573.18233.0559.28574.6902-.34505.76831-.36185.77554l-.16752.0624.28941.002" fill="#c00000"/><path d="m181.81 273.56c1.44 0 2.52-1.08 2.52-2.52 0-1.32-1.08-2.4-2.52-2.4-1.32 0-2.4 1.08-2.4 2.4 0 1.44 1.08 2.52 2.4 2.52" fill="#ed7d31"/><path d="m181.69411 275.48347c2.59356.24518 4.89545-2.1657 4.55281-4.75014-.0824-2.1577-1.97291-3.97706-4.14473-4.03655-2.86303-.24794-5.31167 2.75165-4.48401 5.49837.33933 1.91413 2.19412 3.25663 4.07593 3.28832zm-.12-3.96c.30597.13408-.20544-.13213-.18962-.28447.0861.36433-.10086-.55182.0928-.45873.5234-.35842-.41107.0814.57678-.21678-.47357.0742.35391.057.0576.18415-.0271-.36218.45927.58573.18233.0559.28574.6902-.34505.76831-.36185.77554l-.16752.0624.28941.002" fill="#c00000"/><path d="m190.33 287.12c1.44 0 2.52-1.08 2.52-2.52 0-1.32-1.08-2.4-2.52-2.4-1.32 0-2.4 1.08-2.4 2.4 0 1.44 1.08 2.52 2.4 2.52" fill="#ed7d31"/><path d="m190.21411 289.04347c2.59356.24518 4.89545-2.1657 4.55281-4.75014-.0824-2.1577-1.97291-3.97706-4.14473-4.03655-2.86303-.24794-5.31167 2.75165-4.48401 5.49837.33933 1.91413 2.19412 3.25663 4.07593 3.28832zm-.12-3.96c.30597.13408-.20544-.13213-.18962-.28447.0861.36433-.10086-.55182.0928-.45873.5234-.35842-.41107.0814.57678-.21678-.47357.0742.35391.057.0576.18415-.0271-.36218.45927.58573.18233.0559.28574.6902-.34505.76831-.36185.77554l-.16752.0624.28941.002" fill="#c00000"/><path d="m198.85 300.56c1.44 0 2.52-1.08 2.52-2.52 0-1.32-1.08-2.4-2.52-2.4-1.32 0-2.4 1.08-2.4 2.4 0 1.44 1.08 2.52 2.4 2.52" fill="#ed7d31"/><path d="m198.73411 302.48347c2.59356.24518 4.89545-2.1657 4.55281-4.75014-.0824-2.1577-1.97291-3.97706-4.14473-4.03655-2.86303-.24794-5.31167 2.75165-4.48401 5.49837.33933 1.91413 2.19412 3.25663 4.07593 3.28832zm-.12-3.96c.30597.13408-.20544-.13213-.18962-.28447.0861.36433-.10086-.55182.0928-.45873.5234-.35842-.41107.0814.57678-.21678-.47357.0742.35391.057.0576.18415-.0271-.36218.45927.58573.18233.0559.28574.6902-.34505.76831-.36185.77554l-.16752.0624.28941.002" fill="#c00000"/><path d="m207.37 314.12c1.44 0 2.52-1.08 2.52-2.52 0-1.32-1.08-2.4-2.52-2.4-1.32 0-2.4 1.08-2.4 2.4 0 1.44 1.08 2.52 2.4 2.52" fill="#ed7d31"/><path d="m207.25411 316.04347c2.59356.24518 4.89545-2.1657 4.55281-4.75014-.0824-2.1577-1.97291-3.97706-4.14473-4.03655-2.86303-.24794-5.31167 2.75165-4.48401 5.49837.33933 1.91413 2.19412 3.25663 4.07593 3.28832zm-.12-3.96c.30597.13408-.20544-.13213-.18962-.28447.0861.36433-.10086-.55182.0928-.45873.5234-.35842-.41107.0814.57678-.21678-.47357.0742.35391.057.0576.18415-.0271-.36218.45927.58573.18233.0559.28574.6902-.34505.76831-.36185.77554l-.16752.0624.28941.002" fill="#c00000"/><path d="m215.89 327.56c1.44 0 2.52-1.08 2.52-2.52 0-1.32-1.08-2.4-2.52-2.4-1.32 0-2.4 1.08-2.4 2.4 0 1.44 1.08 2.52 2.4 2.52" fill="#ed7d31"/><path d="m215.77411 329.48347c2.59356.24518 4.89545-2.1657 4.55281-4.75014-.0824-2.1577-1.97291-3.97706-4.14473-4.03655-2.86303-.24794-5.31167 2.75165-4.48401 5.49837.33933 1.91413 2.19412 3.25663 4.07593 3.28832zm-.12-3.96c.30597.13408-.20544-.13213-.18962-.28447.0861.36433-.10086-.55182.0928-.45873.5234-.35842-.41107.0814.57678-.21678-.47357.0742.35391.057.0577.18415-.0271-.36218.45927.58573.18233.0559.28574.6902-.34505.76831-.36185.77554l-.16752.0624.28941.002" fill="#c00000"/><path d="m224.41 341c1.44 0 2.52-1.08 2.52-2.52 0-1.32-1.08-2.4-2.52-2.4-1.32 0-2.4 1.08-2.4 2.4 0 1.44 1.08 2.52 2.4 2.52" fill="#ed7d31"/><path d="m224.29411 342.92347c2.59356.24518 4.89545-2.1657 4.55281-4.75014-.0824-2.1577-1.97291-3.97706-4.14473-4.03655-2.86303-.24794-5.31167 2.75165-4.48401 5.49837.33933 1.91413 2.19412 3.25663 4.07593 3.28832zm-.12-3.96c.30597.13408-.20544-.13213-.18962-.28447.0861.36433-.10086-.55182.0928-.45873.5234-.35842-.41107.0813.57678-.21678-.47357.0742.35391.057.0576.18415-.0271-.36218.45927.58573.18233.0559.28574.6902-.34505.76831-.36185.77554l-.16752.0624.28941.002" fill="#c00000"/><path d="m233.05 354.56c1.44 0 2.52-1.08 2.52-2.52 0-1.32-1.08-2.4-2.52-2.4-1.32 0-2.4 1.08-2.4 2.4 0 1.44 1.08 2.52 2.4 2.52" fill="#ed7d31"/><path d="m232.93411 356.48347c2.59356.24518 4.89545-2.1657 4.55281-4.75014-.0824-2.1577-1.97291-3.97706-4.14473-4.03655-2.86303-.24794-5.31167 2.75165-4.48401 5.49837.33933 1.91413 2.19412 3.25663 4.07593 3.28832zm-.12-3.96c.30597.13408-.20544-.13213-.18962-.28447.0861.36433-.10086-.55182.0928-.45873.5234-.35842-.41107.0814.57678-.21678-.47357.0742.35391.057.0576.18415-.0271-.36218.45927.58573.18233.0559.28574.6902-.34505.76831-.36185.77554l-.16752.0624.28941.002" fill="#c00000"/><path d="m241.57 368c1.44 0 2.52-1.08 2.52-2.52 0-1.32-1.08-2.4-2.52-2.4-1.32 0-2.4 1.08-2.4 2.4 0 1.44 1.08 2.52 2.4 2.52" fill="#ed7d31"/><path d="m241.45411 369.92347c2.59356.24518 4.89545-2.1657 4.55281-4.75014-.0824-2.1577-1.97291-3.97706-4.14473-4.03655-2.86303-.24794-5.31167 2.75165-4.48401 5.49837.33933 1.91413 2.19412 3.25663 4.07593 3.28832zm-.12-3.96c.30597.13408-.20544-.13213-.18962-.28447.0861.36433-.10086-.55182.0928-.45873.5234-.35842-.41107.0813.57678-.21678-.47357.0742.35391.057.0576.18415-.027-.36218.45927.58573.18233.0559.28574.6902-.34505.76831-.36185.77554l-.16752.0624.28941.002" fill="#c00000"/><path d="m250.09 381.56c1.44 0 2.52-1.08 2.52-2.52 0-1.32-1.08-2.4-2.52-2.4-1.32 0-2.4 1.08-2.4 2.4 0 1.44 1.08 2.52 2.4 2.52" fill="#ed7d31"/><path d="m249.97411 383.48347c2.59356.24518 4.89545-2.1657 4.55281-4.75014-.0824-2.1577-1.97291-3.97706-4.14473-4.03655-2.86303-.24794-5.31167 2.75165-4.48401 5.49837.33933 1.91413 2.19412 3.25663 4.07593 3.28832zm-.12-3.96c.30597.13408-.20544-.13213-.18962-.28447.0861.36433-.10086-.55182.0928-.45873.5234-.35842-.41107.0814.57678-.21678-.47357.0742.35391.057.0576.18415-.0271-.36218.45927.58573.18233.0559.28574.6902-.34505.76831-.36185.77554l-.16752.0624.28941.002" fill="#c00000"/><path d="m258.61 395c1.44 0 2.52-1.08 2.52-2.52 0-1.32-1.08-2.4-2.52-2.4-1.32 0-2.4 1.08-2.4 2.4 0 1.44 1.08 2.52 2.4 2.52" fill="#ed7d31"/><path d="m258.49411 396.92347c2.59356.24518 4.89545-2.1657 4.55281-4.75014-.0824-2.1577-1.97291-3.97706-4.14473-4.03655-2.86303-.24794-5.31167 2.75165-4.48401 5.49837.33933 1.91413 2.19412 3.25663 4.07593 3.28832zm-.12-3.96c.30597.13408-.20544-.13213-.18962-.28447.0861.36433-.10089-.55182.0928-.45873.5234-.35842-.41107.0813.57678-.21678-.47357.0742.35391.057.0577.18415-.0271-.36218.45927.58573.18233.0559.28574.6902-.34505.76831-.36185.77554l-.16752.0624.28941.002" fill="#c00000"/><path d="m267.13 408.56c1.44 0 2.52-1.08 2.52-2.52 0-1.32-1.08-2.4-2.52-2.4-1.32 0-2.4 1.08-2.4 2.4 0 1.44 1.08 2.52 2.4 2.52" fill="#ed7d31"/><path d="m267.01411 410.48347c2.59356.24518 4.89545-2.1657 4.55281-4.75014-.0824-2.1577-1.97291-3.97706-4.14473-4.03655-2.86303-.24794-5.31167 2.75165-4.48401 5.49837.33933 1.91413 2.19412 3.25663 4.07593 3.28832zm-.12-3.96c.30597.13408-.20544-.13213-.18962-.28447.0861.36433-.10086-.55182.0928-.45873.5234-.35842-.41107.0814.57678-.21678-.47357.0742.35391.057.0576.18415-.027-.36218.45927.58573.18233.0559.28574.6902-.34505.76831-.36185.77554l-.16752.0624.28941.002" fill="#c00000"/><path d="m275.65 422c1.44 0 2.52-1.08 2.52-2.52 0-1.32-1.08-2.4-2.52-2.4-1.32 0-2.4 1.08-2.4 2.4 0 1.44 1.08 2.52 2.4 2.52" fill="#ed7d31"/><path d="m275.53411 423.92347c2.59356.24518 4.89545-2.1657 4.55281-4.75014-.0824-2.1577-1.97291-3.97706-4.14473-4.03655-2.86303-.24794-5.31167 2.75165-4.48401 5.49837.33933 1.91413 2.19412 3.25663 4.07593 3.28832zm-.12-3.96c.30597.13408-.20544-.13213-.18962-.28447.0861.36433-.10086-.55182.0928-.45873.5234-.35842-.41107.0813.57678-.21678-.47357.0742.35391.057.0576.18415-.027-.36218.45927.58573.18233.0559.28574.6902-.34505.76831-.36185.77554l-.16752.0624.28941.002" fill="#c00000"/><path d="m284.17 435.44c1.44 0 2.52-1.08 2.52-2.52 0-1.32-1.08-2.4-2.52-2.4-1.32 0-2.4 1.08-2.4 2.4 0 1.44 1.08 2.52 2.4 2.52" fill="#ed7d31"/><path d="m284.05411 437.36347c2.59356.24518 4.89545-2.1657 4.55281-4.75014-.0824-2.1577-1.97291-3.97706-4.14473-4.03655-2.86303-.24794-5.31167 2.75165-4.48401 5.49837.33933 1.91413 2.19412 3.25663 4.07593 3.28832zm-.12-3.96c.30597.13408-.20544-.13213-.18962-.28447.0861.36433-.10086-.55182.0928-.45873.5234-.35842-.41107.0813.57678-.21678-.47357.0742.35391.057.0577.18415-.0271-.36218.45927.58573.18233.0559.28574.6902-.34505.76831-.36185.77554l-.16752.0624.28941.002" fill="#c00000"/><path d="m292.69 449c1.44 0 2.52-1.08 2.52-2.52 0-1.32-1.08-2.4-2.52-2.4-1.32 0-2.4 1.08-2.4 2.4 0 1.44 1.08 2.52 2.4 2.52" fill="#ed7d31"/><path d="m292.57411 450.92347c2.59356.24518 4.89545-2.1657 4.55281-4.75014-.0824-2.1577-1.97291-3.97706-4.14473-4.03655-2.86303-.24794-5.31167 2.75165-4.48401 5.49837.33933 1.91413 2.19412 3.25663 4.07593 3.28832zm-.12-3.96c.30597.13408-.20544-.13213-.18962-.28447.0861.36433-.10086-.55182.0928-.45873.5234-.35842-.41107.0813.57678-.21678-.47357.0742.35391.057.0576.18415-.027-.36218.45927.58573.18233.0559.28574.6902-.34505.76831-.36185.77554l-.16752.0624.28941.002" fill="#c00000"/><path d="m301.21 462.44c1.44 0 2.52-1.08 2.52-2.52 0-1.32-1.08-2.4-2.52-2.4-1.32 0-2.4 1.08-2.4 2.4 0 1.44 1.08 2.52 2.4 2.52" fill="#ed7d31"/><path d="m301.09411 464.36347c2.59356.24518 4.89545-2.1657 4.55281-4.75014-.0824-2.1577-1.97291-3.97706-4.14473-4.03655-2.86303-.24794-5.31167 2.75165-4.48401 5.49837.33933 1.91413 2.19412 3.25663 4.07593 3.28832zm-.12-3.96c.30597.13408-.20544-.13213-.18962-.28447.0861.36433-.10086-.55182.0928-.45873.5234-.35842-.41107.0813.57678-.21678-.47357.0742.35391.057.0576.18415-.027-.36218.45927.58573.18233.0559.28574.6902-.34505.76831-.36185.77554l-.16752.0624.28941.002" fill="#c00000"/><path d="m309.73 476c1.44 0 2.52-1.08 2.52-2.52 0-1.32-1.08-2.4-2.52-2.4-1.32 0-2.4 1.08-2.4 2.4 0 1.44 1.08 2.52 2.4 2.52" fill="#ed7d31"/><path d="m309.61411 477.92347c2.59356.24518 4.89545-2.1657 4.55281-4.75014-.0824-2.1577-1.97291-3.97706-4.14473-4.03655-2.86303-.24794-5.31167 2.75165-4.48401 5.49837.33933 1.91413 2.19412 3.25663 4.07593 3.28832zm-.12-3.96c.30597.13408-.20544-.13213-.18962-.28447.0861.36433-.10086-.55182.0928-.45873.5234-.35842-.41107.0813.57678-.21678-.47357.0742.35391.057.0577.18415-.0271-.36218.45927.58573.18233.0559.28574.6902-.34505.76831-.36185.77554l-.16752.0624.28941.002" fill="#c00000"/><path d="m318.25 489.44c1.44 0 2.52-1.08 2.52-2.52 0-1.32-1.08-2.4-2.52-2.4-1.32 0-2.4 1.08-2.4 2.4 0 1.44 1.08 2.52 2.4 2.52" fill="#ed7d31"/><path d="m318.13411 491.36347c2.59356.24518 4.89545-2.1657 4.55281-4.75014-.0824-2.1577-1.97291-3.97706-4.14473-4.03655-2.86303-.24794-5.31167 2.75165-4.48401 5.49837.33933 1.91413 2.19412 3.25663 4.07593 3.28832zm-.12-3.96c.30597.13408-.20544-.13213-.18962-.28447.0861.36433-.10086-.55182.0928-.45873.5234-.35842-.41107.0813.57678-.21678-.47357.0742.35391.057.0576.18415-.027-.36218.45927.58573.18233.0559.28574.6902-.34505.76831-.36185.77554l-.16752.0624.28941.002" fill="#c00000"/><path d="m326.77 503c1.44 0 2.52-1.08 2.52-2.52 0-1.32-1.08-2.4-2.52-2.4-1.32 0-2.4 1.08-2.4 2.4 0 1.44 1.08 2.52 2.4 2.52" fill="#ed7d31"/><path d="m326.65411 504.92347c2.59356.24518 4.89545-2.1657 4.55281-4.75014-.0824-2.1577-1.97291-3.97706-4.14473-4.03655-2.86303-.24794-5.31167 2.75165-4.48401 5.49837.33933 1.91413 2.19412 3.25663 4.07593 3.28832zm-.12-3.96c.30597.13408-.20544-.13213-.18962-.28447.0861.36433-.10086-.55182.0928-.45873.5234-.35842-.41107.0813.57678-.21678-.47357.0742.35391.057.0576.18415-.027-.36218.45927.58573.18233.0559.28574.6902-.34505.76831-.36185.77554l-.16752.0624.28941.002" fill="#c00000"/><path d="m335.29 516.44c1.44 0 2.52-1.08 2.52-2.52 0-1.32-1.08-2.4-2.52-2.4-1.32 0-2.4 1.08-2.4 2.4 0 1.44 1.08 2.52 2.4 2.52" fill="#ed7d31"/><path d="m335.17411 518.36347c2.59356.24518 4.89545-2.1657 4.55281-4.75014-.0824-2.1577-1.97291-3.97706-4.14473-4.03655-2.86303-.24794-5.31167 2.75165-4.48401 5.49837.33933 1.91413 2.19412 3.25663 4.07593 3.28832zm-.12-3.96c.30597.13408-.20544-.13213-.18962-.28447.0861.36433-.10086-.55182.0928-.45873.5234-.35842-.41107.0814.57678-.21678-.47357.0742.35391.057.0577.18415-.0271-.36218.45927.58573.18233.0558.28574.6902-.34505.76831-.36185.77554l-.16752.0624.28941.002" fill="#c00000"/><path d="m343.81 530c1.44 0 2.52-1.08 2.52-2.52 0-1.32-1.08-2.4-2.52-2.4-1.32 0-2.4 1.08-2.4 2.4 0 1.44 1.08 2.52 2.4 2.52" fill="#ed7d31"/><path d="m343.69411 531.92347c2.59356.24518 4.89545-2.1657 4.55281-4.75014-.0824-2.15769-1.97291-3.97706-4.14473-4.03654-2.86301-.24778-5.31168 2.7517-4.48401 5.49846.33932 1.91402 2.19414 3.2568 4.07593 3.28822zm-.12-3.96c.30597.13408-.20544-.13213-.18962-.28447.0861.36433-.10086-.55182.0928-.45873.5234-.35842-.41107.0813.57678-.21678-.47357.0742.35391.057.0577.18415-.027-.36218.45927.58573.18233.0558.28574.6902-.34505.76831-.36185.77554l-.16752.0624.28941.002" fill="#c00000"/><path d="m352.33 543.44c1.44 0 2.52-1.08 2.52-2.52 0-1.32-1.08-2.4-2.52-2.4-1.32 0-2.4 1.08-2.4 2.4 0 1.44 1.08 2.52 2.4 2.52" fill="#ed7d31"/><path d="m352.21411 545.36347c2.59356.24518 4.89545-2.1657 4.55281-4.75014-.0824-2.1577-1.97291-3.97706-4.14473-4.03655-2.86303-.24794-5.31167 2.75165-4.48401 5.49837.33933 1.91413 2.19412 3.25663 4.07593 3.28832zm-.12-3.96c.30597.13408-.20544-.13213-.18962-.28447.0861.36433-.10086-.55182.0928-.45873.5234-.35842-.41107.0814.57678-.21678-.47357.0742.35391.057.0576.18415-.027-.36218.45927.58573.18233.0558.28574.6902-.34505.76831-.36185.77554l-.16752.0624.28941.002" fill="#c00000"/><path d="m360.97 556.88c1.44 0 2.52-1.08 2.52-2.52 0-1.32-1.08-2.4-2.52-2.4-1.32 0-2.4 1.08-2.4 2.4 0 1.44 1.08 2.52 2.4 2.52" fill="#ed7d31"/><path d="m360.85411 558.80347c2.59356.24518 4.89545-2.1657 4.55281-4.75014-.0824-2.15769-1.97291-3.97706-4.14473-4.03654-2.86301-.24778-5.31168 2.7517-4.48401 5.49846.33932 1.91402 2.19414 3.2568 4.07593 3.28822zm-.12-3.96c.30597.13408-.20544-.13213-.18962-.28447.0861.36433-.10086-.55182.0928-.45873.5234-.35842-.41107.0813.57678-.21678-.47357.0742.35391.057.0577.18415-.0271-.36218.45927.58573.18233.0558.28574.6902-.34505.76831-.36185.77554l-.16752.0624.28941.002" fill="#c00000"/><path d="m369.49 570.44c1.44 0 2.52-1.08 2.52-2.52 0-1.32-1.08-2.4-2.52-2.4-1.32 0-2.4 1.08-2.4 2.4 0 1.44 1.08 2.52 2.4 2.52" fill="#ed7d31"/><path d="m369.37411 572.36347c2.59356.24518 4.89545-2.1657 4.55281-4.75014-.0824-2.1577-1.97291-3.97706-4.14473-4.03655-2.86303-.24794-5.31167 2.75165-4.48401 5.49837.33933 1.91413 2.19412 3.25663 4.07593 3.28832zm-.12-3.96c.30597.13408-.20544-.13213-.18962-.28447.0861.36433-.10086-.55182.0928-.45873.5234-.35842-.41107.0814.57678-.21678-.47357.0742.35391.057.0577.18415-.0271-.36218.45927.58573.18233.0558.28574.6902-.34505.76831-.36185.77554l-.16752.0624.28941.002" fill="#c00000"/><path d="m378.01 583.88c1.44 0 2.52-1.08 2.52-2.52 0-1.32-1.08-2.4-2.52-2.4-1.32 0-2.4 1.08-2.4 2.4 0 1.44 1.08 2.52 2.4 2.52" fill="#ed7d31"/><path d="m377.89411 585.80347c2.59356.24518 4.89545-2.1657 4.55281-4.75014-.0824-2.15769-1.97291-3.97706-4.14473-4.03654-2.86301-.24778-5.31168 2.7517-4.48401 5.49846.33932 1.91402 2.19414 3.2568 4.07593 3.28822zm-.12-3.96c.30597.13408-.20544-.13213-.18962-.28447.0861.36433-.10086-.55182.0928-.45873.5234-.35842-.41107.0813.57678-.21678-.47357.0742.35391.057.0576.18415-.027-.36218.45927.58573.18233.0558.28574.6902-.34505.76831-.36185.77554l-.16752.0624.28941.002" fill="#c00000"/><path d="m386.53 597.44c1.44 0 2.52-1.08 2.52-2.52 0-1.32-1.08-2.4-2.52-2.4-1.32 0-2.4 1.08-2.4 2.4 0 1.44 1.08 2.52 2.4 2.52" fill="#ed7d31"/><path d="m386.41411 599.36347c2.59356.24518 4.89545-2.1657 4.55281-4.75014-.0824-2.1577-1.97291-3.97706-4.14473-4.03655-2.86303-.24794-5.31167 2.75165-4.48401 5.49837.33933 1.91413 2.19412 3.25663 4.07593 3.28832zm-.12-3.96c.30597.13408-.20544-.13213-.18962-.28447.0861.36433-.10086-.55182.0928-.45873.5234-.35842-.41107.0814.57678-.21678-.47357.0742.35391.057.0577.18415-.0271-.36218.45927.58573.18233.0558.28574.6902-.34505.76831-.36185.77554l-.16752.0624.28941.002" fill="#c00000"/><path d="m395.05 610.88c1.44 0 2.52-1.08 2.52-2.52 0-1.32-1.08-2.4-2.52-2.4-1.32 0-2.4 1.08-2.4 2.4 0 1.44 1.08 2.52 2.4 2.52" fill="#ed7d31"/><path d="m394.93411 612.80347c2.59356.24518 4.89545-2.1657 4.55281-4.75014-.0824-2.15769-1.97291-3.97706-4.14473-4.03654-2.86301-.24778-5.31168 2.7517-4.48401 5.49846.33932 1.91402 2.19414 3.2568 4.07593 3.28822zm-.12-3.96c.30597.13408-.20544-.13213-.18962-.28447.0861.36433-.10086-.55182.0928-.45873.5234-.35842-.41107.0813.57678-.21678-.47357.0742.35391.057.0577.18415-.0271-.36218.45927.58573.18233.0558.28574.6902-.34505.76831-.36185.77554l-.16752.0624.28941.002" fill="#c00000"/><path d="m403.57 624.44c1.44 0 2.52-1.08 2.52-2.52 0-1.32-1.08-2.4-2.52-2.4-1.32 0-2.4 1.08-2.4 2.4 0 1.44 1.08 2.52 2.4 2.52" fill="#ed7d31"/><path d="m403.45411 626.36347c2.59356.24518 4.89545-2.1657 4.55281-4.75014-.0824-2.1577-1.97291-3.97706-4.14473-4.03655-2.86303-.24794-5.31167 2.75165-4.48401 5.49837.33933 1.91413 2.19412 3.25663 4.07593 3.28832zm-.12-3.96c.30597.13408-.20544-.13213-.18962-.28447.0861.36433-.10086-.55182.0928-.45873.5234-.35842-.41107.0814.57678-.21678-.47357.0742.35391.057.0576.18415-.027-.36218.45927.58573.18233.0558.28574.6902-.34505.76831-.36185.77554l-.16752.0624.28941.002" fill="#c00000"/><path d="m412.09 637.88c1.44 0 2.52-1.08 2.52-2.52 0-1.32-1.08-2.4-2.52-2.4-1.32 0-2.4 1.08-2.4 2.4 0 1.44 1.08 2.52 2.4 2.52" fill="#ed7d31"/><path d="m411.97411 639.80347c2.59356.24518 4.89545-2.1657 4.55281-4.75014-.0824-2.15769-1.97291-3.97706-4.14473-4.03654-2.86301-.24778-5.31168 2.7517-4.48401 5.49846.33932 1.91402 2.19414 3.2568 4.07593 3.28822zm-.12-3.96c.30597.13408-.20544-.13213-.18962-.28447.0861.36433-.10086-.55182.0928-.45873.5234-.35842-.41107.0813.57678-.21678-.47357.0742.35391.057.0577.18415-.0271-.36218.45927.58573.18233.0558.28574.6902-.34505.76831-.36185.77554l-.16752.0624.28941.002" fill="#c00000"/><path d="m420.61 651.32c1.44 0 2.52-1.08 2.52-2.52 0-1.32-1.08-2.4-2.52-2.4-1.32 0-2.4 1.08-2.4 2.4 0 1.44 1.08 2.52 2.4 2.52" fill="#ed7d31"/><path d="m420.49411 653.24347c2.59356.24518 4.89545-2.1657 4.55281-4.75014-.0824-2.1577-1.97291-3.97706-4.14473-4.03655-2.86303-.24794-5.31167 2.75165-4.48401 5.49837.33933 1.91413 2.19412 3.25663 4.07593 3.28832zm-.12-3.96c.30597.13408-.20544-.13213-.18962-.28447.0861.36433-.10089-.55182.0928-.45873.5234-.35842-.41107.0814.57678-.21678-.47357.0742.35391.057.0577.18415-.0271-.36218.45927.58573.18233.0558.28574.6902-.34505.76831-.36185.77554l-.16752.0624.28941.002" fill="#c00000"/><path d="m429.13 664.88c1.44 0 2.52-1.08 2.52-2.52 0-1.32-1.08-2.4-2.52-2.4-1.32 0-2.4 1.08-2.4 2.4 0 1.44 1.08 2.52 2.4 2.52" fill="#ed7d31"/><path d="m429.01411 666.80347c2.59356.24518 4.89545-2.1657 4.55281-4.75014-.0824-2.15769-1.97291-3.97706-4.14473-4.03654-2.86301-.24778-5.31168 2.7517-4.48401 5.49846.33932 1.91402 2.19414 3.2568 4.07593 3.28822zm-.12-3.96c.30597.13408-.20544-.13213-.18962-.28447.0861.36433-.10086-.55182.0928-.45873.5234-.35842-.41107.0813.57678-.21678-.47357.0742.35391.057.0576.18415-.027-.36218.45927.58573.18233.0558.28574.6902-.34505.76831-.36185.77554l-.16752.0624.28941.002" fill="#c00000"/><path d="m437.65 678.32c1.44 0 2.52-1.08 2.52-2.52 0-1.32-1.08-2.4-2.52-2.4-1.32 0-2.4 1.08-2.4 2.4 0 1.44 1.08 2.52 2.4 2.52" fill="#ed7d31"/><path d="m437.53411 680.24347c2.59356.24518 4.89545-2.1657 4.55281-4.75014-.0824-2.1577-1.97291-3.97706-4.14473-4.03655-2.86303-.24794-5.31167 2.75165-4.48401 5.49837.33933 1.91413 2.19412 3.25663 4.07593 3.28832zm-.12-3.96c.30597.13408-.20544-.13213-.18962-.28447.0861.36433-.10086-.55182.0928-.45873.5234-.35842-.41107.0814.57678-.21678-.47357.0742.35391.057.0576.18415-.027-.36218.45927.58573.18233.0558.28574.6902-.34505.76831-.36185.77554l-.16752.0624.28941.002" fill="#c00000"/><path d="m446.17 691.88c1.44 0 2.52-1.08 2.52-2.52 0-1.32-1.08-2.4-2.52-2.4-1.32 0-2.4 1.08-2.4 2.4 0 1.44 1.08 2.52 2.4 2.52" fill="#ed7d31"/><path d="m446.05411 693.80347c2.59356.24518 4.89545-2.1657 4.55281-4.75014-.0824-2.15769-1.97291-3.97706-4.14473-4.03654-2.86301-.24778-5.31168 2.7517-4.48401 5.49846.33932 1.91402 2.19414 3.2568 4.07593 3.28822zm-.12-3.96c.30597.13408-.20544-.13213-.18962-.28447.0861.36433-.10086-.55182.0928-.45873.5234-.35842-.41107.0813.57678-.21678-.47357.0742.35391.057.0577.18415-.0271-.36218.45927.58573.18233.0558.28574.6902-.34505.76831-.36185.77554l-.16752.0624.28941.002" fill="#c00000"/><path d="m454.69 705.32c1.44 0 2.52-1.08 2.52-2.52 0-1.32-1.08-2.4-2.52-2.4-1.32 0-2.4 1.08-2.4 2.4 0 1.44 1.08 2.52 2.4 2.52" fill="#ed7d31"/><path d="m454.57411 707.24347c2.59356.24518 4.89545-2.1657 4.55281-4.75014-.0824-2.1577-1.97291-3.97706-4.14473-4.03655-2.86303-.24794-5.31167 2.75165-4.48401 5.49837.33933 1.91413 2.19412 3.25663 4.07593 3.28832zm-.12-3.96c.30597.13408-.20544-.13213-.18962-.28447.0861.36433-.10086-.55182.0928-.45873.5234-.35842-.41107.0814.57678-.21678-.47357.0742.35391.057.0576.18415-.027-.36218.45927.58573.18233.0558.28574.6902-.34505.76831-.36185.77554l-.16752.0624.28941.002" fill="#c00000"/><path d="m463.21 718.88c1.44 0 2.52-1.08 2.52-2.52 0-1.32-1.08-2.4-2.52-2.4-1.32 0-2.4 1.08-2.4 2.4 0 1.44 1.08 2.52 2.4 2.52" fill="#ed7d31"/><path d="m463.09411 720.80347c2.59356.24518 4.89545-2.1657 4.55281-4.75014-.0824-2.15769-1.97291-3.97706-4.14473-4.03654-2.86301-.24778-5.31168 2.7517-4.48401 5.49846.33932 1.91402 2.19414 3.2568 4.07593 3.28822zm-.12-3.96c.30597.13408-.20544-.13213-.18962-.28447.0861.36433-.10086-.55182.0928-.45873.5234-.35842-.41107.0813.57678-.21678-.47357.0742.35391.057.0576.18415-.027-.36218.45927.58573.18233.0558.28574.6902-.34505.76831-.36185.77554l-.16752.0624.28941.002" fill="#c00000"/><path d="m471.73 732.32c1.44 0 2.52-1.08 2.52-2.52 0-1.32-1.08-2.4-2.52-2.4-1.32 0-2.4 1.08-2.4 2.4 0 1.44 1.08 2.52 2.4 2.52" fill="#ed7d31"/><path d="m471.61411 734.24347c2.59356.24518 4.89545-2.1657 4.55281-4.75014-.0824-2.1577-1.97291-3.97706-4.14473-4.03655-2.86303-.24794-5.31167 2.75165-4.48401 5.49837.33933 1.91413 2.19412 3.25663 4.07593 3.28832zm-.12-3.96c.30597.13408-.20544-.13213-.18962-.28447.0861.36433-.10086-.55182.0928-.45873.5234-.35842-.41107.0814.57678-.21678-.47357.0742.35391.057.0577.18415-.0271-.36218.45927.58573.18233.0558.28574.6902-.34505.76831-.36185.77554l-.16752.0624.28941.002" fill="#c00000"/><path d="m480.37 745.76c1.44 0 2.52-1.08 2.52-2.52 0-1.32-1.08-2.4-2.52-2.4-1.32 0-2.4 1.08-2.4 2.4 0 1.44 1.08 2.52 2.4 2.52" fill="#ed7d31"/><path d="m480.25411 747.68347c2.59357.24511 4.89545-2.16567 4.55281-4.75014-.0824-2.15769-1.97291-3.97706-4.14473-4.03654-2.86301-.24778-5.31168 2.7517-4.48401 5.49846.33932 1.91402 2.19414 3.2568 4.07593 3.28822zm-.12-3.96c.30597.13408-.20544-.13213-.18962-.28447.0861.36433-.10086-.55182.0928-.45873.5234-.35842-.41107.0813.57678-.21678-.47357.0742.35391.057.0577.18415-.027-.36218.45927.58573.18233.0559.28574.6902-.34505.76831-.36185.77554l-.16752.0624.28941.002" fill="#c00000"/><path d="m488.89 759.32c1.44 0 2.52-1.08 2.52-2.52 0-1.32-1.08-2.4-2.52-2.4-1.32 0-2.4 1.08-2.4 2.4 0 1.44 1.08 2.52 2.4 2.52" fill="#ed7d31"/><path d="m488.77411 761.24347c2.59356.24518 4.89545-2.1657 4.55281-4.75014-.0824-2.1577-1.97291-3.97706-4.14473-4.03655-2.86303-.24794-5.31167 2.75165-4.48401 5.49837.33933 1.91413 2.19412 3.25663 4.07593 3.28832zm-.12-3.96c.30597.13408-.20544-.13213-.18962-.28447.0861.36433-.10086-.55182.0928-.45873.5234-.35842-.41107.0814.57678-.21678-.47357.0742.35391.057.0576.18415-.027-.36218.45927.58573.18233.0558.28574.6902-.34505.76831-.36185.77554l-.16752.0624.28941.002" fill="#c00000"/><path d="m497.41 772.76c1.44 0 2.52-1.08 2.52-2.52 0-1.32-1.08-2.4-2.52-2.4-1.32 0-2.4 1.08-2.4 2.4 0 1.44 1.08 2.52 2.4 2.52" fill="#ed7d31"/><path d="m497.29411 774.68347c2.59357.24511 4.89545-2.16567 4.55281-4.75014-.0824-2.15769-1.97291-3.97706-4.14473-4.03654-2.86301-.24778-5.31168 2.7517-4.48401 5.49846.33932 1.91402 2.19414 3.2568 4.07593 3.28822zm-.12-3.96c.30597.13408-.20544-.13213-.18962-.28447.0861.36433-.10086-.55182.0928-.45873.5234-.35842-.41107.0813.57678-.21678-.47357.0742.35391.057.0577.18415-.0271-.36218.45927.58573.18233.0559.28574.6902-.34505.76831-.36185.77554l-.16752.0624.28941.002" fill="#c00000"/><g fill="#00f"><path d="m497.41 98.244c2.8363.23548 3.4753-4.4836.62404-4.9771-2.9446-.77511-4.4562 3.8351-1.4942 4.8333l.42384.11581z"/><path d="m497.05 101.72c4.4131.61227 7.9689-4.7481 5.7944-8.6104-1.7054-3.6934-7.2637-4.5202-9.8425-1.306-3.0867 3.1097-1.1879 8.9793 3.0682 9.8033l.48586.0812zm.24-6.96c1.8997.57184 1.2838 1.8734-.13112 1.9646-1.296-.75955-.46336-2.291.61089-1.8447"/><path d="m71.054 111.68c2.8363.23548 3.4753-4.4836.62404-4.9771-2.9446-.77512-4.4562 3.8351-1.4942 4.8333l.42385.11581z"/><path d="m70.694 115.16c4.4131.61227 7.9689-4.7481 5.7944-8.6104-1.7054-3.6934-7.2637-4.5202-9.8425-1.306-3.0867 3.1097-1.1879 8.9793 3.0682 9.8033l.48586.0812zm.24-6.96c1.8997.57198 1.2837 1.874-.13087 1.965-1.1224-.64531-.68674-2.326.61084-1.8448"/><path d="m79.574 125.24c2.8363.23552 3.4754-4.4835.62402-4.9769-2.9446-.77516-4.4562 3.8349-1.4942 4.8331l.42384.1158z"/><path d="m79.214 128.72c4.413.61228 7.969-4.748 5.7944-8.6102-1.7054-3.6933-7.2636-4.5201-9.8424-1.306-3.0868 3.1096-1.1879 8.9792 3.0682 9.8032l.48586.0812zm.24-6.96c1.8997.57204 1.2837 1.8739-.13087 1.9651-1.1224-.64531-.68674-2.326.61084-1.8448"/><path d="m88.094 138.68c2.8363.23548 3.4753-4.4836.62404-4.9771-2.9446-.77512-4.4562 3.8351-1.4942 4.8333l.42385.11581z"/><path d="m87.734 142.16c4.4131.61227 7.9689-4.7481 5.7944-8.6104-1.7054-3.6934-7.2637-4.5202-9.8425-1.306-3.0867 3.1097-1.1879 8.9793 3.0682 9.8033l.48586.0812zm.24-6.96c1.8997.57198 1.2837 1.874-.13087 1.965-1.1224-.64531-.68674-2.326.61084-1.8448"/><path d="m96.614 152.24c2.8363.23548 3.4753-4.4836.62404-4.9771-2.9446-.77512-4.4562 3.8351-1.4942 4.8333l.42385.11581z"/><path d="m96.254 155.72c4.4131.61228 7.9689-4.7481 5.7944-8.6104-1.7054-3.6934-7.2637-4.5202-9.8425-1.306-3.0867 3.1097-1.1879 8.9793 3.0682 9.8033l.48586.0812zm.24-6.96c1.8997.5721 1.2837 1.8738-.13087 1.9649-1.1224-.64531-.68674-2.326.61084-1.8448"/><path d="m105.13 165.68c2.8363.23548 3.4753-4.4836.62404-4.9771-2.9446-.77512-4.4562 3.8351-1.4942 4.8333l.42384.11581z"/><path d="m104.77 169.16c4.4131.61227 7.9689-4.7481 5.7944-8.6104-1.7054-3.6934-7.2637-4.5202-9.8425-1.306-3.0867 3.1097-1.1879 8.9793 3.0682 9.8033l.48586.0812zm.24-6.96c1.509.10938 1.006 1.6443 1.2.84044-.40063 2.2286-2.06.73023-1.9763-.0385.45147-.87607.2609-.7418 1.256-.6817"/><path d="m113.65 179.24c2.8363.23548 3.4753-4.4836.62404-4.9771-2.9446-.77512-4.4562 3.8351-1.4942 4.8333l.42384.11581z"/><path d="m113.29 182.72c4.4131.61227 7.9689-4.7481 5.7944-8.6104-1.7054-3.6934-7.2637-4.5202-9.8425-1.306-3.0867 3.1097-1.1879 8.9793 3.0682 9.8033l.48586.0812zm.24-6.96c1.509.10934 1.006 1.6444 1.2.84034-.40063 2.2286-2.06.73023-1.9763-.0385.45147-.87607.2609-.7418 1.256-.6817"/><path d="m122.17 192.68c2.8363.23548 3.4753-4.4836.62404-4.9771-2.9446-.77512-4.4562 3.8351-1.4942 4.8333l.42384.11581z"/><path d="m121.81 196.16c4.4131.61227 7.9689-4.7481 5.7944-8.6104-1.7054-3.6934-7.2637-4.5202-9.8425-1.306-3.0867 3.1097-1.1879 8.9793 3.0682 9.8033l.48586.0812zm.24-6.96c1.509.10938 1.006 1.6443 1.2.84044-.40063 2.2286-2.06.73023-1.9763-.0385.45147-.87607.2609-.7418 1.256-.6817"/><path d="m130.69 206.24c2.8363.23548 3.4753-4.4836.62404-4.9771-2.9446-.77512-4.4562 3.8351-1.4942 4.8333l.42384.11581z"/><path d="m130.33 209.72c4.4131.61227 7.9689-4.7481 5.7944-8.6104-1.7054-3.6934-7.2637-4.5202-9.8425-1.306-3.0867 3.1097-1.1879 8.9793 3.0682 9.8033l.48586.0812zm.24-6.96c1.509.10934 1.006 1.6444 1.2.84034-.40063 2.2286-2.06.73023-1.9763-.0385.45147-.87607.2609-.7418 1.256-.6817"/><path d="m139.21 219.68c2.8363.23548 3.4753-4.4836.62404-4.9771-2.9446-.77512-4.4562 3.8351-1.4942 4.8333l.42384.11581z"/><path d="m138.85 223.16c4.4131.61227 7.9689-4.7481 5.7944-8.6104-1.7054-3.6934-7.2637-4.5202-9.8425-1.306-3.0867 3.1097-1.1879 8.9793 3.0682 9.8033l.48586.0812zm.24-6.96c1.509.10938 1.006 1.6443 1.2.84044-.40063 2.2286-2.06.73023-1.9763-.0385.45147-.87607.2609-.7418 1.256-.6817"/><path d="m147.73 233.12c2.8363.23548 3.4753-4.4836.62404-4.9771-2.9446-.77512-4.4562 3.8351-1.4942 4.8333l.42384.11581z"/><path d="m147.37 236.6c4.4131.61227 7.9689-4.7481 5.7944-8.6104-1.7054-3.6934-7.2637-4.5202-9.8425-1.306-3.0867 3.1097-1.1879 8.9793 3.0682 9.8033l.48586.0812zm.24-6.96c1.509.10938 1.006 1.6443 1.2.84044-.40063 2.2286-2.06.73023-1.9763-.0385.45147-.87607.2609-.7418 1.256-.6817"/><path d="m156.25 246.68c2.8363.23548 3.4753-4.4836.62404-4.9771-2.9446-.77512-4.4562 3.8351-1.4942 4.8333l.42384.11581z"/><path d="m155.89 250.16c4.4131.61227 7.9689-4.7481 5.7944-8.6104-1.7054-3.6934-7.2637-4.5202-9.8425-1.306-3.0867 3.1097-1.1879 8.9793 3.0682 9.8033l.48586.0812zm.24-6.96c1.509.10938 1.006 1.6443 1.2.84044-.40063 2.2286-2.06.73023-1.9763-.0385.45147-.87607.2609-.7418 1.256-.6817"/><path d="m164.77 260.12c2.8363.23548 3.4753-4.4836.62404-4.9771-2.9446-.77512-4.4562 3.8351-1.4942 4.8333l.42384.11581z"/><path d="m164.41 263.6c4.4131.61227 7.9689-4.7481 5.7944-8.6104-1.7054-3.6934-7.2637-4.5202-9.8425-1.306-3.0867 3.1097-1.1879 8.9793 3.0682 9.8033l.48586.0812zm.24-6.96c1.509.10934 1.006 1.6444 1.2.84034-.40063 2.2286-2.06.73023-1.9763-.0385.45147-.87607.2609-.7418 1.256-.6817"/><path d="m173.41 273.68c2.8363.23548 3.4753-4.4836.62404-4.9771-2.9446-.77512-4.4562 3.8351-1.4942 4.8333l.42384.11581z"/><path d="m173.05 277.16c4.4131.61227 7.9689-4.7481 5.7944-8.6104-1.7054-3.6934-7.2637-4.5202-9.8425-1.306-3.0867 3.1097-1.1879 8.9793 3.0682 9.8033l.48586.0812zm.24-6.96c1.509.10934 1.006 1.6444 1.2.84034-.40063 2.2286-2.06.73023-1.9763-.0385.45147-.87607.2609-.7418 1.256-.6817"/><path d="m181.93 287.12c2.8363.23548 3.4753-4.4836.62404-4.9771-2.9446-.77512-4.4562 3.8351-1.4942 4.8333l.42384.11581z"/><path d="m181.57 290.6c4.4131.61227 7.9689-4.7481 5.7944-8.6104-1.7054-3.6934-7.2637-4.5202-9.8425-1.306-3.0867 3.1097-1.1879 8.9793 3.0682 9.8033l.48586.0812zm.24-6.96c1.509.10934 1.006 1.6444 1.2.84034-.40063 2.2286-2.06.73023-1.9763-.0385.45147-.87607.2609-.7418 1.256-.6817"/><path d="m190.45 300.68c2.8363.23548 3.4753-4.4836.62404-4.9771-2.9446-.77512-4.4562 3.8351-1.4942 4.8333l.42384.11581z"/><path d="m190.09 304.16c4.4131.61227 7.9689-4.7481 5.7944-8.6104-1.7054-3.6934-7.2637-4.5202-9.8425-1.306-3.0867 3.1097-1.1879 8.9793 3.0682 9.8033l.48586.0812zm.24-6.96c1.509.10934 1.006 1.6444 1.2.84034-.40063 2.2286-2.06.73023-1.9763-.0385.45147-.87607.2609-.7418 1.256-.6817"/><path d="m198.97 314.12c2.8363.23548 3.4753-4.4836.62404-4.9771-2.9446-.77512-4.4562 3.8351-1.4942 4.8333l.42384.11581z"/><path d="m198.61 317.6c4.4131.61227 7.9689-4.7481 5.7944-8.6104-1.7054-3.6934-7.2637-4.5202-9.8425-1.306-3.0867 3.1097-1.1879 8.9793 3.0682 9.8033l.48586.0812zm.24-6.96c1.509.10934 1.006 1.6444 1.2.84034-.40063 2.2286-2.06.73023-1.9763-.0385.45147-.87607.2609-.7418 1.256-.6817"/><path d="m207.49 327.56c2.8363.23548 3.4753-4.4836.62404-4.9771-2.9446-.77512-4.4562 3.8351-1.4942 4.8333l.42384.11581z"/><path d="m207.13 331.04c4.4131.61227 7.9689-4.7481 5.7944-8.6104-1.7054-3.6934-7.2637-4.5202-9.8425-1.306-3.0867 3.1097-1.1879 8.9793 3.0682 9.8033l.48586.0812zm.24-6.96c1.509.10934 1.006 1.6444 1.2.84034-.40063 2.2286-2.06.73023-1.9763-.0385.45147-.87607.2609-.7418 1.256-.6817"/><path d="m216.01 341.12c2.8363.23548 3.4753-4.4836.62404-4.9771-2.9446-.77512-4.4562 3.8351-1.4942 4.8333l.42384.11581z"/><path d="m215.65 344.6c4.4131.61227 7.9689-4.7481 5.7944-8.6104-1.7054-3.6934-7.2637-4.5202-9.8425-1.306-3.0867 3.1097-1.1879 8.9793 3.0682 9.8033l.48586.0812zm.24-6.96c1.509.10934 1.006 1.6444 1.2.84034-.40063 2.2286-2.06.73023-1.9763-.0385.45147-.87607.2609-.7418 1.256-.6817"/><path d="m224.53 354.56c2.8363.23548 3.4753-4.4836.62404-4.9771-2.9446-.77512-4.4562 3.8351-1.4942 4.8333l.42384.11581z"/><path d="m224.17 358.04c4.4131.61227 7.9689-4.7481 5.7944-8.6104-1.7054-3.6934-7.2637-4.5202-9.8425-1.306-3.0867 3.1097-1.1879 8.9793 3.0682 9.8033l.48586.0812zm.24-6.96c1.509.10934 1.006 1.6444 1.2.84034-.40063 2.2286-2.06.73023-1.9763-.0385.45147-.87607.2609-.7418 1.256-.6817"/><path d="m233.05 368.12c2.8363.23548 3.4753-4.4836.62404-4.9771-2.9446-.77512-4.4562 3.8351-1.4942 4.8333l.42384.11581z"/><path d="m232.69 371.6c4.4131.61227 7.9689-4.7481 5.7944-8.6104-1.7054-3.6934-7.2637-4.5202-9.8425-1.306-3.0867 3.1097-1.1879 8.9793 3.0682 9.8033l.48586.0812zm.24-6.96c1.509.10934 1.006 1.6444 1.2.84034-.40063 2.2286-2.06.73023-1.9763-.0385.45147-.87607.2609-.7418 1.256-.6817"/><path d="m241.57 381.56c2.8363.23548 3.4753-4.4836.62404-4.9771-2.9446-.77512-4.4562 3.8351-1.4942 4.8333l.42384.11581z"/><path d="m241.21 385.04c4.4131.61227 7.9689-4.7481 5.7944-8.6104-1.7054-3.6934-7.2637-4.5202-9.8425-1.306-3.0867 3.1097-1.1879 8.9793 3.0682 9.8033l.48586.0812zm.24-6.96c1.509.10934 1.006 1.6444 1.2.84034-.40063 2.2286-2.06.73023-1.9763-.0385.45147-.87607.2609-.7418 1.256-.6817"/><path d="m250.09 395.12c2.8363.23548 3.4753-4.4836.62404-4.9771-2.9446-.77512-4.4562 3.8351-1.4942 4.8333l.42384.11581z"/><path d="m249.73 398.6c4.4131.61227 7.9689-4.7481 5.7944-8.6104-1.7054-3.6934-7.2637-4.5202-9.8425-1.306-3.0867 3.1097-1.1879 8.9793 3.0682 9.8033l.48586.0812zm.24-6.96c1.509.10934 1.006 1.6444 1.2.84034-.40063 2.2286-2.06.73023-1.9763-.0385.45147-.87607.2609-.7418 1.256-.6817"/><path d="m258.61 408.56c2.8363.23548 3.4753-4.4836.62404-4.9771-2.9446-.77512-4.4562 3.8351-1.4942 4.8333l.42384.11581z"/><path d="m258.25 412.04c4.4131.61227 7.9689-4.7481 5.7944-8.6104-1.7054-3.6934-7.2637-4.5202-9.8425-1.306-3.0867 3.1097-1.1879 8.9793 3.0682 9.8033l.48586.0812zm.24-6.96c1.509.10934 1.006 1.6444 1.2.84034-.40063 2.2286-2.06.73023-1.9763-.0385.45147-.87607.2609-.7418 1.256-.6817"/><path d="m267.13 422.12c2.8363.23548 3.4753-4.4836.62404-4.9771-2.9446-.77512-4.4562 3.8351-1.4942 4.8333l.42384.11581z"/><path d="m266.77 425.6c4.4131.61227 7.9689-4.7481 5.7944-8.6104-1.7054-3.6934-7.2637-4.5202-9.8425-1.306-3.0867 3.1097-1.1879 8.9793 3.0682 9.8033l.48586.0812zm.24-6.96c1.509.10934 1.006 1.6444 1.2.84034-.40063 2.2286-2.06.73023-1.9763-.0385.45147-.87607.2609-.7418 1.256-.6817"/><path d="m275.65 435.56c2.8363.23548 3.4753-4.4836.62404-4.9771-2.9446-.77512-4.4562 3.8351-1.4942 4.8333l.42384.11581z"/><path d="m275.29 439.04c4.4131.61227 7.9689-4.7481 5.7944-8.6104-1.7054-3.6934-7.2637-4.5202-9.8425-1.306-3.0867 3.1097-1.1879 8.9793 3.0682 9.8033l.48586.0812zm.24-6.96c1.509.10934 1.006 1.6444 1.2.84034-.40063 2.2286-2.06.73023-1.9763-.0385.45147-.87607.2609-.7418 1.256-.6817"/><path d="m284.17 449c2.8363.23548 3.4753-4.4836.62404-4.9771-2.9446-.77512-4.4562 3.8351-1.4942 4.8333l.42384.11581z"/><path d="m283.81 452.48c4.4131.61227 7.9689-4.7481 5.7944-8.6104-1.7054-3.6934-7.2637-4.5202-9.8425-1.306-3.0867 3.1097-1.1879 8.9793 3.0682 9.8033l.48586.0812zm.24-6.96c1.509.10934 1.006 1.6444 1.2.84034-.40063 2.2286-2.06.73023-1.9763-.0385.45147-.87607.2609-.7418 1.256-.6817"/><path d="m292.81 462.56c2.8363.23548 3.4753-4.4836.62404-4.9771-2.9446-.77512-4.4562 3.8351-1.4942 4.8333l.42384.11581z"/><path d="m292.45 466.04c4.4131.61227 7.9689-4.7481 5.7944-8.6104-1.7054-3.6934-7.2637-4.5202-9.8425-1.306-3.0867 3.1097-1.1879 8.9793 3.0682 9.8033l.48586.0812zm.24-6.96c1.509.10934 1.006 1.6444 1.2.84034-.40063 2.2286-2.06.73023-1.9763-.0385.45147-.87607.2609-.7418 1.256-.6817"/><path d="m301.33 476c2.8363.23548 3.4753-4.4836.62404-4.9771-2.9446-.77512-4.4562 3.8351-1.4942 4.8333l.42384.11581z"/><path d="m300.97 479.48c4.4131.61227 7.9689-4.7481 5.7944-8.6104-1.7054-3.6934-7.2637-4.5202-9.8425-1.306-3.0867 3.1097-1.1879 8.9793 3.0682 9.8033l.48586.0812zm.24-6.96c1.509.10934 1.006 1.6444 1.2.84034-.40063 2.2286-2.06.73023-1.9763-.0385.45147-.87607.2609-.7418 1.256-.6817"/><path d="m309.85 489.56c2.8363.23548 3.4753-4.4836.62404-4.9771-2.9446-.77512-4.4562 3.8351-1.4942 4.8333l.42384.11581z"/><path d="m309.49 493.04c4.4131.61227 7.9689-4.7481 5.7944-8.6104-1.7054-3.6934-7.2637-4.5202-9.8425-1.306-3.0867 3.1097-1.1879 8.9793 3.0682 9.8033l.48586.0812zm.24-6.96c1.509.10934 1.006 1.6444 1.2.84034-.40063 2.2286-2.06.73023-1.9763-.0385.45147-.87607.2609-.7418 1.256-.6817"/><path d="m318.37 503c2.8363.23548 3.4753-4.4836.62404-4.9771-2.9446-.77512-4.4562 3.8351-1.4942 4.8333l.42384.11581z"/><path d="m318.01 506.48c4.4131.61227 7.9689-4.7481 5.7944-8.6104-1.7054-3.6934-7.2637-4.5202-9.8425-1.306-3.0867 3.1097-1.1879 8.9793 3.0682 9.8033l.48586.0812zm.24-6.96c1.509.10934 1.006 1.6444 1.2.84034-.40063 2.2286-2.06.73023-1.9763-.0385.45147-.87607.2609-.7418 1.256-.6817"/><path d="m326.89 516.56c2.8363.23548 3.4753-4.4836.62404-4.9771-2.9446-.77512-4.4562 3.8351-1.4942 4.8333l.42384.11581z"/><path d="m326.53 520.04c4.4131.61227 7.9689-4.7481 5.7944-8.6104-1.7054-3.6934-7.2637-4.5202-9.8425-1.306-3.0867 3.1097-1.1879 8.9793 3.0682 9.8033l.48586.0812zm.24-6.96c1.509.10934 1.006 1.6444 1.2.84034-.40063 2.2286-2.06.73023-1.9763-.0385.45147-.87607.2609-.7418 1.256-.6817"/><path d="m335.41 530c2.8363.23548 3.4753-4.4836.62404-4.9771-2.9446-.77512-4.4562 3.8351-1.4942 4.8333l.42384.11581z"/><path d="m335.05 533.48c4.4131.61227 7.9689-4.7481 5.7944-8.6104-1.7054-3.6934-7.2637-4.5202-9.8425-1.306-3.0867 3.1097-1.1879 8.9793 3.0682 9.8033l.48586.0812zm.24-6.96c1.509.10934 1.006 1.6444 1.2.84034-.40064 2.2286-2.06.73039-1.9763-.0384.45147-.87607.2609-.7418 1.256-.6817"/><path d="m343.93 543.44c2.8363.23548 3.4753-4.4836.62404-4.9771-2.9446-.77512-4.4562 3.8351-1.4942 4.8333l.42384.11581z"/><path d="m343.57 546.92c4.4131.61227 7.9689-4.7481 5.7944-8.6104-1.7054-3.6934-7.2637-4.5202-9.8425-1.306-3.0867 3.1097-1.1879 8.9793 3.0682 9.8033l.48586.0812zm.24-6.96c1.509.10934 1.006 1.6444 1.2.84034-.40063 2.2286-2.06.73023-1.9763-.0385.45147-.87607.2609-.7418 1.256-.6817"/><path d="m352.45 557c2.8363.23548 3.4753-4.4836.62404-4.9771-2.9446-.77512-4.4562 3.8351-1.4942 4.8333l.42384.11581z"/><path d="m352.09 560.48c4.4131.61227 7.9689-4.7481 5.7944-8.6104-1.7054-3.6934-7.2637-4.5202-9.8425-1.306-3.0867 3.1097-1.1879 8.9793 3.0682 9.8033l.48586.0812zm.24-6.96c1.509.10934 1.006 1.6444 1.2.84034-.40064 2.2286-2.06.73039-1.9763-.0384.45147-.87607.2609-.7418 1.256-.6817"/><path d="m360.97 570.44c2.8363.23548 3.4753-4.4836.62404-4.9771-2.9446-.77512-4.4562 3.8351-1.4942 4.8333l.42384.11581z"/><path d="m360.61 573.92c4.4131.61227 7.9689-4.7481 5.7944-8.6104-1.7054-3.6934-7.2637-4.5202-9.8425-1.306-3.0867 3.1097-1.1879 8.9793 3.0682 9.8033l.48586.0812zm.24-6.96c1.509.10934 1.006 1.6444 1.2.84034-.40063 2.2286-2.06.73023-1.9763-.0385.45147-.87607.2609-.7418 1.256-.6817"/><path d="m369.49 584c2.8363.23548 3.4753-4.4836.62404-4.9771-2.9446-.77512-4.4562 3.8351-1.4942 4.8333l.42384.11581z"/><path d="m369.13 587.48c4.4131.61227 7.9689-4.7481 5.7944-8.6104-1.7054-3.6934-7.2637-4.5202-9.8425-1.306-3.0867 3.1097-1.1879 8.9793 3.0682 9.8033l.48586.0812zm.24-6.96c1.509.10934 1.006 1.6444 1.2.84034-.40064 2.2286-2.06.73039-1.9763-.0384.45147-.87607.2609-.7418 1.256-.6817"/><path d="m378.01 597.44c2.8363.23548 3.4753-4.4836.62404-4.9771-2.9446-.77512-4.4562 3.8351-1.4942 4.8333l.42384.11581z"/><path d="m377.65 600.92c4.4131.61227 7.9689-4.7481 5.7944-8.6104-1.7054-3.6934-7.2637-4.5202-9.8425-1.306-3.0867 3.1097-1.1879 8.9793 3.0682 9.8033l.48586.0812zm.24-6.96c1.509.10934 1.006 1.6444 1.2.84034-.40063 2.2286-2.06.73023-1.9763-.0385.45147-.87607.2609-.7418 1.256-.6817"/><path d="m386.53 611c2.8363.23548 3.4753-4.4836.62404-4.9771-2.9446-.77512-4.4562 3.8351-1.4942 4.8333l.42384.11581z"/><path d="m386.17 614.48c4.4131.61227 7.9689-4.7481 5.7944-8.6104-1.7054-3.6934-7.2637-4.5202-9.8425-1.306-3.0867 3.1097-1.1879 8.9793 3.0682 9.8033l.48586.0812zm.24-6.96c1.509.10934 1.006 1.6444 1.2.84034-.40064 2.2286-2.06.73039-1.9763-.0384.45147-.87607.2609-.7418 1.256-.6817"/><path d="m395.05 624.44c2.8363.23548 3.4753-4.4836.62404-4.9771-2.9446-.77512-4.4562 3.8351-1.4942 4.8333l.42384.11581z"/><path d="m394.69 627.92c4.4131.61227 7.9689-4.7481 5.7944-8.6104-1.7054-3.6934-7.2637-4.5202-9.8425-1.306-3.0867 3.1097-1.1879 8.9793 3.0682 9.8033l.48586.0812zm.24-6.96c1.509.10934 1.006 1.6444 1.2.84034-.40063 2.2286-2.06.73023-1.9763-.0385.45147-.87607.2609-.7418 1.256-.6817"/><path d="m403.57 637.88c2.8363.23548 3.4753-4.4836.62404-4.9771-2.9446-.77512-4.4562 3.8351-1.4942 4.8333l.42384.11581z"/><path d="m403.21 641.36c4.4131.61227 7.9689-4.7481 5.7944-8.6104-1.7054-3.6934-7.2637-4.5202-9.8425-1.306-3.0867 3.1097-1.1879 8.9793 3.0682 9.8033l.48586.0812zm.24-6.96c1.509.10934 1.006 1.6444 1.2.84034-.40064 2.2286-2.06.73039-1.9763-.0384.45147-.87607.2609-.7418 1.256-.6817"/><path d="m412.09 651.44c2.8363.23548 3.4753-4.4836.62404-4.9771-2.9446-.77512-4.4562 3.8351-1.4942 4.8333l.42384.11581z"/><path d="m411.73 654.92c4.4131.61227 7.9689-4.7481 5.7944-8.6104-1.7054-3.6934-7.2637-4.5202-9.8425-1.306-3.0867 3.1097-1.1879 8.9793 3.0682 9.8033l.48586.0812zm.24-6.96c1.509.10934 1.006 1.6444 1.2.84034-.40063 2.2286-2.06.73023-1.9763-.0385.45147-.87607.2609-.7418 1.256-.6817"/><path d="m420.73 664.88c2.8363.23548 3.4753-4.4836.62404-4.9771-2.9446-.77512-4.4562 3.8351-1.4942 4.8333l.42384.11581z"/><path d="m420.37 668.36c4.4131.61227 7.9689-4.7481 5.7944-8.6104-1.7054-3.6934-7.2637-4.5202-9.8425-1.306-3.0867 3.1097-1.1879 8.9793 3.0682 9.8033l.48586.0812zm.24-6.96c1.509.10934 1.006 1.6444 1.2.84034-.40064 2.2286-2.06.73039-1.9763-.0384.45147-.87607.2609-.7418 1.256-.6817"/><path d="m429.25 678.44c2.8363.23548 3.4753-4.4836.62404-4.9771-2.9446-.77512-4.4562 3.8351-1.4942 4.8333l.42384.11581z"/><path d="m428.89 681.92c4.4131.61227 7.9689-4.7481 5.7944-8.6104-1.7054-3.6934-7.2637-4.5202-9.8425-1.306-3.0867 3.1097-1.1879 8.9793 3.0682 9.8033l.48586.0812zm.24-6.96c1.509.10934 1.006 1.6444 1.2.84034-.40063 2.2286-2.06.73023-1.9763-.0385.45147-.87607.2609-.7418 1.256-.6817"/><path d="m437.77 691.88c2.8363.23548 3.4753-4.4836.62404-4.9771-2.9446-.77512-4.4562 3.8351-1.4942 4.8333l.42384.11581z"/><path d="m437.41 695.36c4.4131.61227 7.9689-4.7481 5.7944-8.6104-1.7054-3.6934-7.2637-4.5202-9.8425-1.306-3.0867 3.1097-1.1879 8.9793 3.0682 9.8033l.48586.0812zm.24-6.96c1.509.10934 1.006 1.6444 1.2.84034-.40064 2.2286-2.06.73039-1.9763-.0384.45147-.87607.2609-.7418 1.256-.6817"/><path d="m446.29 705.44c2.8363.23548 3.4753-4.4836.62404-4.9771-2.9446-.77512-4.4562 3.8351-1.4942 4.8333l.42384.11581z"/><path d="m445.93 708.92c4.4131.61227 7.9689-4.7481 5.7944-8.6104-1.7054-3.6934-7.2637-4.5202-9.8425-1.306-3.0867 3.1097-1.1879 8.9793 3.0682 9.8033l.48586.0812zm.24-6.96c1.509.10934 1.006 1.6444 1.2.84034-.40063 2.2286-2.06.73023-1.9763-.0385.45147-.87607.2609-.7418 1.256-.6817"/><path d="m454.81 718.88c2.8363.23548 3.4753-4.4836.62404-4.9771-2.9446-.77512-4.4562 3.8351-1.4942 4.8333l.42384.11581z"/><path d="m454.45 722.36c4.4131.61227 7.9689-4.7481 5.7944-8.6104-1.7054-3.6934-7.2637-4.5202-9.8425-1.306-3.0867 3.1097-1.1879 8.9793 3.0682 9.8033l.48586.0812zm.24-6.96c1.509.10934 1.006 1.6444 1.2.84034-.40064 2.2286-2.06.73039-1.9763-.0384.45147-.87607.2609-.7418 1.256-.6817"/><path d="m463.33 732.44c2.8363.23548 3.4753-4.4836.62404-4.9771-2.9446-.77512-4.4562 3.8351-1.4942 4.8333l.42384.11581z"/><path d="m462.97 735.92c4.4131.61227 7.9689-4.7481 5.7944-8.6104-1.7054-3.6934-7.2637-4.5202-9.8425-1.306-3.0867 3.1097-1.1879 8.9793 3.0682 9.8033l.48586.0812zm.24-6.96c1.509.10934 1.006 1.6444 1.2.84034-.40063 2.2286-2.06.73023-1.9763-.0385.45147-.87607.2609-.7418 1.256-.6817"/><path d="m471.85 745.88c2.8363.23548 3.4753-4.4836.62404-4.9771-2.9446-.77512-4.4562 3.8351-1.4942 4.8333l.42384.11581z"/><path d="m471.49 749.36c4.4131.61227 7.9689-4.7481 5.7944-8.6104-1.7054-3.6934-7.2637-4.5202-9.8425-1.306-3.0867 3.1097-1.1879 8.9793 3.0682 9.8033l.48586.0812zm.24-6.96c1.509.10934 1.006 1.6444 1.2.84034-.40064 2.2286-2.06.73039-1.9763-.0384.45147-.87607.2609-.7418 1.256-.6817"/><path d="m480.37 759.32c2.8363.23548 3.4753-4.4836.62404-4.9771-2.9446-.77512-4.4562 3.8351-1.4942 4.8333l.42384.11581z"/><path d="m480.01 762.8c4.4131.61227 7.9689-4.7481 5.7944-8.6104-1.7054-3.6934-7.2637-4.5202-9.8425-1.306-3.0867 3.1097-1.1879 8.9793 3.0682 9.8033l.48586.0812zm.24-6.96c1.509.10937 1.006 1.6443 1.2.84044-.40063 2.2286-2.06.73023-1.9763-.0385.45147-.87607.2609-.7418 1.256-.6817"/><path d="m488.89 772.88c2.8363.23548 3.4753-4.4836.62404-4.9771-2.9446-.77512-4.4562 3.8351-1.4942 4.8333l.42384.11581z"/><path d="m488.53 776.36c4.4131.61227 7.9689-4.7481 5.7944-8.6104-1.7054-3.6934-7.2637-4.5202-9.8425-1.306-3.0867 3.1097-1.1879 8.9793 3.0682 9.8033l.48586.0812zm.24-6.96c1.509.10934 1.006 1.6444 1.2.84034-.40064 2.2286-2.06.73039-1.9763-.0384.45147-.87607.2609-.7418 1.256-.6817"/></g><text font-family="Calibri" font-size="30" font-weight="bold" transform="matrix(0 1 1 0 0 0)" x="331.96936" y="119.53412"><tspan font-size="30" x="331.96936" y="119.53412">OneMax (50 bit)</tspan></text><path d="m173.77 657.92c1.44 0 2.52-1.08 2.52-2.52 0-1.32-1.08-2.4-2.52-2.4-1.32 0-2.4 1.08-2.4 2.4 0 1.44 1.08 2.52 2.4 2.52" fill="#ed7d31"/><path d="m173.65411 659.96347c2.05533-.0776 4.16108-1.38352 4.47669-3.54861.49713-1.6016-.25548-3.51686-1.59669-4.49139-2.17328-1.76263-5.77907-.85281-6.7944 1.77584-1.17301 2.44302.5213 5.74585 3.24506 6.11204l.33117.0736.33818.0785zm-.12-4.08c.23298.0156.22585.157-.18203-.25783.25305.40017-.1048-.40181.0621-.0632-.11155-.38102.16131-.54191-.0341-.2449.67569-.6154-.0923-.0933.29324-.28189.55073.056.18904-.19042.70083.36779-.25704-.26801.0824.67388-.60007.59996.96635-.0545-.21631-.14241.24-.12" fill="#c00000"/><text fill="#c00000" font-family="Calibri" font-size="20.04" font-weight="bold" transform="matrix(0 1 1 0 0 0)" x="666.08405" y="179.77411"><tspan x="666.08405" y="179.77411">f<tspan baseline-shift="sub" fill="#c00000" font-size="65%">1</tspan>(x)</tspan></text><path d="m204.01 657.92c2.8363.23548 3.4753-4.4836.62404-4.9771-2.9446-.77512-4.4562 3.8351-1.4942 4.8333l.42384.11581z" fill="#00f"/><path d="m203.65 661.4c4.4467.64358 7.9635-4.7384 5.8169-8.618-1.6777-3.6456-7.1299-4.5452-9.7448-1.4473-2.5288 2.4649-2.1084 6.9446.77096 8.9625.89996.68865 2.0175 1.1094 3.157 1.1028zm.24-6.96c2.5157.34106.14559 3.3815-.75462 1.384-.31854-.79978.43612-1.5135 1.2338-1.3842" fill="#00f"/><g transform="matrix(0 1 1 0 0 0)"><text fill="#00f" font-family="Calibri" font-size="20.04" font-weight="bold" x="666.08405" y="210.01411"><tspan x="666.08405" y="210.01411">f<tspan baseline-shift="sub" fill="#00f" font-size="65%">5</tspan>(x)=Trap</tspan></text><text font-family="Calibri" font-size="30" font-weight="bold" x="471.4924" y="546.95294"><tspan font-size="30" x="471.4924" y="546.95294">number of bits that are 1</tspan></text><text x="419.48407" y="463.45413"><tspan x="419.48407" y="463.45413"/></text><g font-weight="bold"><text font-family="Calibri" font-size="20.04" x="56.963535" y="77.385117"><tspan x="56.963535" y="77.385117">50</tspan></text><g font-size="20"><text font-family="Calibri" x="90.710335" y="520.16333"><tspan x="90.710335" y="520.16333">0</tspan></text><text font-family="Calibri" x="67.139709" y="502.78726"><tspan x="67.139709" y="502.78726">0</tspan></text><g font-family="Ubuntu" stroke-width=".75"><text x="218.99348" y="520.10797"><tspan font-size="20" stroke-width=".75" x="218.99348" y="520.10797">10</tspan></text><text x="354.35349" y="520.10797"><tspan font-size="20" stroke-width=".75" x="354.35349" y="520.10797">20</tspan></text><text x="489.30347" y="520.08795"><tspan font-size="20" stroke-width=".75" x="489.30347" y="520.08795">30</tspan></text><text x="624.27344" y="520.10797"><tspan font-size="20" stroke-width=".75" x="624.27344" y="520.10797">40</tspan></text><text x="759.02344" y="520.08795"><tspan font-size="20" stroke-width=".75" x="759.02344" y="520.08795">50</tspan></text><text x="54.929569" y="419.10413"><tspan font-size="20" stroke-width=".75" x="54.929569" y="419.10413">10</tspan></text><text x="54.929569" y="333.90411"><tspan font-size="20" stroke-width=".75" x="54.929569" y="333.90411">20</tspan></text><text x="54.929569" y="248.57411"><tspan font-size="20" stroke-width=".75" x="54.929569" y="248.57411">30</tspan></text><text x="54.929569" y="163.26411"><tspan font-size="20" stroke-width=".75" x="54.929569" y="163.26411">40</tspan></text></g></g></g></g><text font-family="Calibri" font-size="30" font-weight="bold" transform="scale(-1 1)" x="-118.39353" y="76.289528"><tspan font-size="30" x="-118.39353" y="76.289528">f</tspan></text></g></svg>