<svg height="646pt" viewBox="0 0 970 646" width="970pt" xmlns="http://www.w3.org/2000/svg"><g transform="matrix(0 1.3333 1.3333 0 -72.502 -84.859)"><path d="m70.574 767.84v2.52h.96v-2.52"/><path d="m70.574 760.76v4.08h.96v-4.08z"/><path d="m70.574 753.8v3.96h.96v-3.96z"/><path d="m70.574 746.84v3.96h.96v-3.96z"/><path d="m70.574 739.76v4.08h.96v-4.08z"/><path d="m70.574 732.8v3.96h.96v-3.96z"/><path d="m70.574 725.84v3.96h.96v-3.96z"/><path d="m70.574 718.76v4.08h.96v-4.08z"/><path d="m70.574 711.8v3.96h.96v-3.96z"/><path d="m70.574 704.84v3.96h.96v-3.96z"/><path d="m70.574 697.76v4.08h.96v-4.08z"/><path d="m70.574 690.8v3.96h.96v-3.96z"/><path d="m70.574 683.84v3.96h.96v-3.96z"/><path d="m70.574 676.76v4.08h.96v-4.08z"/><path d="m70.574 669.8v3.96h.96v-3.96z"/><path d="m70.574 662.84v3.96h.96v-3.96z"/><path d="m70.574 655.76v4.08h.96v-4.08z"/><path d="m70.574 648.8v3.96h.96v-3.96z"/><path d="m70.574 641.84v3.96h.96v-3.96z"/><path d="m70.574 634.76v4.08h.96v-4.08z"/><path d="m70.574 627.8v3.96h.96v-3.96z"/><path d="m70.574 620.84v3.96h.96v-3.96z"/><path d="m70.574 613.76v4.08h.96v-4.08z"/><path d="m70.574 606.8v3.96h.96v-3.96z"/><path d="m70.574 599.84v3.96h.96v-3.96z"/><path d="m70.574 592.76v4.08h.96v-4.08z"/><path d="m70.574 585.8v3.96h.96v-3.96z"/><path d="m70.574 578.84v3.96h.96v-3.96z"/><path d="m70.574 571.76v4.08h.96v-4.08z"/><path d="m70.574 564.8v3.96h.96v-3.96z"/><path d="m70.574 557.84v3.96h.96v-3.96z"/><path d="m70.574 550.76v4.08h.96v-4.08z"/><path d="m70.574 543.8v3.96h.96v-3.96z"/><path d="m70.574 536.84v3.96h.96v-3.96z"/><path d="m70.574 529.76v4.08h.96v-4.08z"/><path d="m70.574 522.8v3.96h.96v-3.96z"/><path d="m70.574 515.84v3.96h.96v-3.96z"/><path d="m70.574 508.76v4.08h.96v-4.08z"/><path d="m70.574 501.8v3.96h.96v-3.96z"/><path d="m70.574 494.84v3.96h.96v-3.96z"/><path d="m70.574 487.76v4.08h.96v-4.08z"/><path d="m70.574 480.8v3.96h.96v-3.96z"/><path d="m70.574 473.84v3.96h.96v-3.96z"/><path d="m70.574 466.76v4.08h.96v-4.08z"/><path d="m70.574 459.8v3.96h.96v-3.96z"/><path d="m70.574 452.84v3.96h.96v-3.96z"/><path d="m70.574 445.76v4.08h.96v-4.08z"/><path d="m70.574 438.8v3.96h.96v-3.96z"/><path d="m70.574 431.84v3.96h.96v-3.96z"/><path d="m70.574 424.76v4.08h.96v-4.08z"/><path d="m70.574 417.8v3.96h.96v-3.96z"/><path d="m70.574 410.84v3.96h.96v-3.96z"/><path d="m70.574 403.76v4.08h.96v-4.08z"/><path d="m70.574 396.8v3.96h.96v-3.96z"/><path d="m70.574 389.84v3.96h.96v-3.96z"/><path d="m70.574 382.76v4.08h.96v-4.08z"/><path d="m70.574 375.8v3.96h.96v-3.96z"/><path d="m70.574 368.84v3.96h.96v-3.96z"/><path d="m70.574 361.76v4.08h.96v-4.08z"/><path d="m70.574 354.8v3.96h.96v-3.96z"/><path d="m70.574 347.84v3.96h.96v-3.96z"/><path d="m70.574 340.76v4.08h.96v-4.08z"/><path d="m70.574 333.8v3.96h.96v-3.96z"/><path d="m70.574 326.84v3.96h.96v-3.96z"/><path d="m70.574 319.76v4.08h.96v-4.08z"/><path d="m70.574 312.8v3.96h.96v-3.96z"/><path d="m70.574 305.84v3.96h.96v-3.96z"/><path d="m70.574 298.76v4.08h.96v-4.08z"/><path d="m70.574 291.8v3.96h.96v-3.96z"/><path d="m70.574 284.84v3.96h.96v-3.96z"/><path d="m70.574 277.76v4.08h.96v-4.08z"/><path d="m70.574 270.8v3.96h.96v-3.96z"/><path d="m70.574 263.84v3.96h.96v-3.96z"/><path d="m70.574 256.76v4.08h.96v-4.08z"/><path d="m70.574 249.8v3.96h.96v-3.96z"/><path d="m70.574 242.84v3.96h.96v-3.96z"/><path d="m70.574 235.76v4.08h.96v-4.08z"/><path d="m70.574 228.8v3.96h.96v-3.96z"/><path d="m70.574 221.84v3.96h.96v-3.96z"/><path d="m70.574 214.76v4.08h.96v-4.08z"/><path d="m70.574 207.8v3.96h.96v-3.96z"/><path d="m70.574 200.84v3.96h.96v-3.96z"/><path d="m70.574 193.76v4.08h.96v-4.08z"/><path d="m70.574 186.8v3.96h.96v-3.96z"/><path d="m70.574 179.84v3.96h.96v-3.96z"/><path d="m70.574 172.76v4.08h.96v-4.08z"/><path d="m70.574 165.8v3.96h.96v-3.96z"/><path d="m70.574 158.84v3.96h.96v-3.96z"/><path d="m70.574 151.76v4.08h.96v-4.08z"/><path d="m70.574 144.8v3.96h.96v-3.96z"/><path d="m70.574 137.84v3.96h.96v-3.96z"/><path d="m70.574 130.76v4.08h.96v-4.08z"/><path d="m70.574 123.8v3.96h.96v-3.96z"/><path d="m70.574 116.84v3.96h.96v-3.96z"/><path d="m70.574 109.76v4.08h.96v-4.08z"/><path d="m70.574 102.8v3.96h.96v-3.96z"/><path d="m70.574 95.844v3.96h.96v-3.96z"/><path d="m155.65 767.84v2.52h1.08v-2.52z"/><path d="m155.65 760.76v4.08h1.08v-4.08z"/><path d="m155.65 753.8v3.96h1.08v-3.96z"/><path d="m155.65 746.84v3.96h1.08v-3.96z"/><path d="m155.65 739.76v4.08h1.08v-4.08z"/><path d="m155.65 732.8v3.96h1.08v-3.96z"/><path d="m155.65 725.84v3.96h1.08v-3.96z"/><path d="m155.65 718.76v4.08h1.08v-4.08z"/><path d="m155.65 711.8v3.96h1.08v-3.96z"/><path d="m155.65 704.84v3.96h1.08v-3.96z"/><path d="m155.65 697.76v4.08h1.08v-4.08z"/><path d="m155.65 690.8v3.96h1.08v-3.96z"/><path d="m155.65 683.84v3.96h1.08v-3.96z"/><path d="m155.65 676.76v4.08h1.08v-4.08z"/><path d="m155.65 669.8v3.96h1.08v-3.96z"/><path d="m155.65 662.84v3.96h1.08v-3.96z"/><path d="m155.65 655.76v4.08h1.08v-4.08z"/><path d="m155.65 648.8v3.96h1.08v-3.96z"/><path d="m155.65 641.84v3.96h1.08v-3.96z"/><path d="m155.65 634.76v4.08h1.08v-4.08z"/><path d="m155.65 627.8v3.96h1.08v-3.96z"/><path d="m155.65 620.84v3.96h1.08v-3.96z"/><path d="m155.65 613.76v4.08h1.08v-4.08z"/><path d="m155.65 606.8v3.96h1.08v-3.96z"/><path d="m155.65 599.84v3.96h1.08v-3.96z"/><path d="m155.65 592.76v4.08h1.08v-4.08z"/><path d="m155.65 585.8v3.96h1.08v-3.96z"/><path d="m155.65 578.84v3.96h1.08v-3.96z"/><path d="m155.65 571.76v4.08h1.08v-4.08z"/><path d="m155.65 564.8v3.96h1.08v-3.96z"/><path d="m155.65 557.84v3.96h1.08v-3.96z"/><path d="m155.65 550.76v4.08h1.08v-4.08z"/><path d="m155.65 543.8v3.96h1.08v-3.96z"/><path d="m155.65 536.84v3.96h1.08v-3.96z"/><path d="m155.65 529.76v4.08h1.08v-4.08z"/><path d="m155.65 522.8v3.96h1.08v-3.96z"/><path d="m155.65 515.84v3.96h1.08v-3.96z"/><path d="m155.65 508.76v4.08h1.08v-4.08z"/><path d="m155.65 501.8v3.96h1.08v-3.96z"/><path d="m155.65 494.84v3.96h1.08v-3.96z"/><path d="m155.65 487.76v4.08h1.08v-4.08z"/><path d="m155.65 480.8v3.96h1.08v-3.96z"/><path d="m155.65 473.84v3.96h1.08v-3.96z"/><path d="m155.65 466.76v4.08h1.08v-4.08z"/><path d="m155.65 459.8v3.96h1.08v-3.96z"/><path d="m155.65 452.84v3.96h1.08v-3.96z"/><path d="m155.65 445.76v4.08h1.08v-4.08z"/><path d="m155.65 438.8v3.96h1.08v-3.96z"/><path d="m155.65 431.84v3.96h1.08v-3.96z"/><path d="m155.65 424.76v4.08h1.08v-4.08z"/><path d="m155.65 417.8v3.96h1.08v-3.96z"/><path d="m155.65 410.84v3.96h1.08v-3.96z"/><path d="m155.65 403.76v4.08h1.08v-4.08z"/><path d="m155.65 396.8v3.96h1.08v-3.96z"/><path d="m155.65 389.84v3.96h1.08v-3.96z"/><path d="m155.65 382.76v4.08h1.08v-4.08z"/><path d="m155.65 375.8v3.96h1.08v-3.96z"/><path d="m155.65 368.84v3.96h1.08v-3.96z"/><path d="m155.65 361.76v4.08h1.08v-4.08z"/><path d="m155.65 354.8v3.96h1.08v-3.96z"/><path d="m155.65 347.84v3.96h1.08v-3.96z"/><path d="m155.65 340.76v4.08h1.08v-4.08z"/><path d="m155.65 333.8v3.96h1.08v-3.96z"/><path d="m155.65 326.84v3.96h1.08v-3.96z"/><path d="m155.65 319.76v4.08h1.08v-4.08z"/><path d="m155.65 312.8v3.96h1.08v-3.96z"/><path d="m155.65 305.84v3.96h1.08v-3.96z"/><path d="m155.65 298.76v4.08h1.08v-4.08z"/><path d="m155.65 291.8v3.96h1.08v-3.96z"/><path d="m155.65 284.84v3.96h1.08v-3.96z"/><path d="m155.65 277.76v4.08h1.08v-4.08z"/><path d="m155.65 270.8v3.96h1.08v-3.96z"/><path d="m155.65 263.84v3.96h1.08v-3.96z"/><path d="m155.65 256.76v4.08h1.08v-4.08z"/><path d="m155.65 249.8v3.96h1.08v-3.96z"/><path d="m155.65 242.84v3.96h1.08v-3.96z"/><path d="m155.65 235.76v4.08h1.08v-4.08z"/><path d="m155.65 228.8v3.96h1.08v-3.96z"/><path d="m155.65 221.84v3.96h1.08v-3.96z"/><path d="m155.65 214.76v4.08h1.08v-4.08z"/><path d="m155.65 207.8v3.96h1.08v-3.96z"/><path d="m155.65 200.84v3.96h1.08v-3.96z"/><path d="m155.65 193.76v4.08h1.08v-4.08z"/><path d="m155.65 186.8v3.96h1.08v-3.96z"/><path d="m155.65 179.84v3.96h1.08v-3.96z"/><path d="m155.65 172.76v4.08h1.08v-4.08z"/><path d="m155.65 165.8v3.96h1.08v-3.96z"/><path d="m155.65 158.84v3.96h1.08v-3.96z"/><path d="m155.65 151.76v4.08h1.08v-4.08z"/><path d="m155.65 144.8v3.96h1.08v-3.96z"/><path d="m155.65 137.84v3.96h1.08v-3.96z"/><path d="m155.65 130.76v4.08h1.08v-4.08z"/><path d="m155.65 123.8v3.96h1.08v-3.96z"/><path d="m155.65 116.84v3.96h1.08v-3.96z"/><path d="m155.65 109.76v4.08h1.08v-4.08z"/><path d="m155.65 102.8v3.96h1.08v-3.96z"/><path d="m155.65 95.844v3.96h1.08v-3.96z"/><path d="m240.73 767.84v2.52h1.08v-2.52z"/><path d="m240.73 760.76v4.08h1.08v-4.08z"/><path d="m240.73 753.8v3.96h1.08v-3.96z"/><path d="m240.73 746.84v3.96h1.08v-3.96z"/><path d="m240.73 739.76v4.08h1.08v-4.08z"/><path d="m240.73 732.8v3.96h1.08v-3.96z"/><path d="m240.73 725.84v3.96h1.08v-3.96z"/><path d="m240.73 718.76v4.08h1.08v-4.08z"/><path d="m240.73 711.8v3.96h1.08v-3.96z"/><path d="m240.73 704.84v3.96h1.08v-3.96z"/><path d="m240.73 697.76v4.08h1.08v-4.08z"/><path d="m240.73 690.8v3.96h1.08v-3.96z"/><path d="m240.73 683.84v3.96h1.08v-3.96z"/><path d="m240.73 676.76v4.08h1.08v-4.08z"/><path d="m240.73 669.8v3.96h1.08v-3.96z"/><path d="m240.73 662.84v3.96h1.08v-3.96z"/><path d="m240.73 655.76v4.08h1.08v-4.08z"/><path d="m240.73 648.8v3.96h1.08v-3.96z"/><path d="m240.73 641.84v3.96h1.08v-3.96z"/><path d="m240.73 634.76v4.08h1.08v-4.08z"/><path d="m240.73 627.8v3.96h1.08v-3.96z"/><path d="m240.73 620.84v3.96h1.08v-3.96z"/><path d="m240.73 613.76v4.08h1.08v-4.08z"/><path d="m240.73 606.8v3.96h1.08v-3.96z"/><path d="m240.73 599.84v3.96h1.08v-3.96z"/><path d="m240.73 592.76v4.08h1.08v-4.08z"/><path d="m240.73 585.8v3.96h1.08v-3.96z"/><path d="m240.73 578.84v3.96h1.08v-3.96z"/><path d="m240.73 571.76v4.08h1.08v-4.08z"/><path d="m240.73 564.8v3.96h1.08v-3.96z"/><path d="m240.73 557.84v3.96h1.08v-3.96z"/><path d="m240.73 550.76v4.08h1.08v-4.08z"/><path d="m240.73 543.8v3.96h1.08v-3.96z"/><path d="m240.73 536.84v3.96h1.08v-3.96z"/><path d="m240.73 529.76v4.08h1.08v-4.08z"/><path d="m240.73 522.8v3.96h1.08v-3.96z"/><path d="m240.73 515.84v3.96h1.08v-3.96z"/><path d="m240.73 508.76v4.08h1.08v-4.08z"/><path d="m240.73 501.8v3.96h1.08v-3.96z"/><path d="m240.73 494.84v3.96h1.08v-3.96z"/><path d="m240.73 487.76v4.08h1.08v-4.08z"/><path d="m240.73 480.8v3.96h1.08v-3.96z"/><path d="m240.73 473.84v3.96h1.08v-3.96z"/><path d="m240.73 466.76v4.08h1.08v-4.08z"/><path d="m240.73 459.8v3.96h1.08v-3.96z"/><path d="m240.73 452.84v3.96h1.08v-3.96z"/><path d="m240.73 445.76v4.08h1.08v-4.08z"/><path d="m240.73 438.8v3.96h1.08v-3.96z"/><path d="m240.73 431.84v3.96h1.08v-3.96z"/><path d="m240.73 424.76v4.08h1.08v-4.08z"/><path d="m240.73 417.8v3.96h1.08v-3.96z"/><path d="m240.73 410.84v3.96h1.08v-3.96z"/><path d="m240.73 403.76v4.08h1.08v-4.08z"/><path d="m240.73 396.8v3.96h1.08v-3.96z"/><path d="m240.73 389.84v3.96h1.08v-3.96z"/><path d="m240.73 382.76v4.08h1.08v-4.08z"/><path d="m240.73 375.8v3.96h1.08v-3.96z"/><path d="m240.73 368.84v3.96h1.08v-3.96z"/><path d="m240.73 361.76v4.08h1.08v-4.08z"/><path d="m240.73 354.8v3.96h1.08v-3.96z"/><path d="m240.73 347.84v3.96h1.08v-3.96z"/><path d="m240.73 340.76v4.08h1.08v-4.08z"/><path d="m240.73 333.8v3.96h1.08v-3.96z"/><path d="m240.73 326.84v3.96h1.08v-3.96z"/><path d="m240.73 319.76v4.08h1.08v-4.08z"/><path d="m240.73 312.8v3.96h1.08v-3.96z"/><path d="m240.73 305.84v3.96h1.08v-3.96z"/><path d="m240.73 298.76v4.08h1.08v-4.08z"/><path d="m240.73 291.8v3.96h1.08v-3.96z"/><path d="m240.73 284.84v3.96h1.08v-3.96z"/><path d="m240.73 277.76v4.08h1.08v-4.08z"/><path d="m240.73 270.8v3.96h1.08v-3.96z"/><path d="m240.73 263.84v3.96h1.08v-3.96z"/><path d="m240.73 256.76v4.08h1.08v-4.08z"/><path d="m240.73 249.8v3.96h1.08v-3.96z"/><path d="m240.73 242.84v3.96h1.08v-3.96z"/><path d="m240.73 235.76v4.08h1.08v-4.08z"/><path d="m240.73 228.8v3.96h1.08v-3.96z"/><path d="m240.73 221.84v3.96h1.08v-3.96z"/><path d="m240.73 214.76v4.08h1.08v-4.08z"/><path d="m240.73 207.8v3.96h1.08v-3.96z"/><path d="m240.73 200.84v3.96h1.08v-3.96z"/><path d="m240.73 193.76v4.08h1.08v-4.08z"/><path d="m240.73 186.8v3.96h1.08v-3.96z"/><path d="m240.73 179.84v3.96h1.08v-3.96z"/><path d="m240.73 172.76v4.08h1.08v-4.08z"/><path d="m240.73 165.8v3.96h1.08v-3.96z"/><path d="m240.73 158.84v3.96h1.08v-3.96z"/><path d="m240.73 151.76v4.08h1.08v-4.08z"/><path d="m240.73 144.8v3.96h1.08v-3.96z"/><path d="m240.73 137.84v3.96h1.08v-3.96z"/><path d="m240.73 130.76v4.08h1.08v-4.08z"/><path d="m240.73 123.8v3.96h1.08v-3.96z"/><path d="m240.73 116.84v3.96h1.08v-3.96z"/><path d="m240.73 109.76v4.08h1.08v-4.08z"/><path d="m240.73 102.8v3.96h1.08v-3.96z"/><path d="m240.73 95.844v3.96h1.08v-3.96z"/><path d="m325.81 767.84v2.52h1.08v-2.52z"/><path d="m325.81 760.76v4.08h1.08v-4.08z"/><path d="m325.81 753.8v3.96h1.08v-3.96z"/><path d="m325.81 746.84v3.96h1.08v-3.96z"/><path d="m325.81 739.76v4.08h1.08v-4.08z"/><path d="m325.81 732.8v3.96h1.08v-3.96z"/><path d="m325.81 725.84v3.96h1.08v-3.96z"/><path d="m325.81 718.76v4.08h1.08v-4.08z"/><path d="m325.81 711.8v3.96h1.08v-3.96z"/><path d="m325.81 704.84v3.96h1.08v-3.96z"/><path d="m325.81 697.76v4.08h1.08v-4.08z"/><path d="m325.81 690.8v3.96h1.08v-3.96z"/><path d="m325.81 683.84v3.96h1.08v-3.96z"/><path d="m325.81 676.76v4.08h1.08v-4.08z"/><path d="m325.81 669.8v3.96h1.08v-3.96z"/><path d="m325.81 662.84v3.96h1.08v-3.96z"/><path d="m325.81 655.76v4.08h1.08v-4.08z"/><path d="m325.81 648.8v3.96h1.08v-3.96z"/><path d="m325.81 641.84v3.96h1.08v-3.96z"/><path d="m325.81 634.76v4.08h1.08v-4.08z"/><path d="m325.81 627.8v3.96h1.08v-3.96z"/><path d="m325.81 620.84v3.96h1.08v-3.96z"/><path d="m325.81 613.76v4.08h1.08v-4.08z"/><path d="m325.81 606.8v3.96h1.08v-3.96z"/><path d="m325.81 599.84v3.96h1.08v-3.96z"/><path d="m325.81 592.76v4.08h1.08v-4.08z"/><path d="m325.81 585.8v3.96h1.08v-3.96z"/><path d="m325.81 578.84v3.96h1.08v-3.96z"/><path d="m325.81 571.76v4.08h1.08v-4.08z"/><path d="m325.81 564.8v3.96h1.08v-3.96z"/><path d="m325.81 557.84v3.96h1.08v-3.96z"/><path d="m325.81 550.76v4.08h1.08v-4.08z"/><path d="m325.81 543.8v3.96h1.08v-3.96z"/><path d="m325.81 536.84v3.96h1.08v-3.96z"/><path d="m325.81 529.76v4.08h1.08v-4.08z"/><path d="m325.81 522.8v3.96h1.08v-3.96z"/><path d="m325.81 515.84v3.96h1.08v-3.96z"/><path d="m325.81 508.76v4.08h1.08v-4.08z"/><path d="m325.81 501.8v3.96h1.08v-3.96z"/><path d="m325.81 494.84v3.96h1.08v-3.96z"/><path d="m325.81 487.76v4.08h1.08v-4.08z"/><path d="m325.81 480.8v3.96h1.08v-3.96z"/><path d="m325.81 473.84v3.96h1.08v-3.96z"/><path d="m325.81 466.76v4.08h1.08v-4.08z"/><path d="m325.81 459.8v3.96h1.08v-3.96z"/><path d="m325.81 452.84v3.96h1.08v-3.96z"/><path d="m325.81 445.76v4.08h1.08v-4.08z"/><path d="m325.81 438.8v3.96h1.08v-3.96z"/><path d="m325.81 431.84v3.96h1.08v-3.96z"/><path d="m325.81 424.76v4.08h1.08v-4.08z"/><path d="m325.81 417.8v3.96h1.08v-3.96z"/><path d="m325.81 410.84v3.96h1.08v-3.96z"/><path d="m325.81 403.76v4.08h1.08v-4.08z"/><path d="m325.81 396.8v3.96h1.08v-3.96z"/><path d="m325.81 389.84v3.96h1.08v-3.96z"/><path d="m325.81 382.76v4.08h1.08v-4.08z"/><path d="m325.81 375.8v3.96h1.08v-3.96z"/><path d="m325.81 368.84v3.96h1.08v-3.96z"/><path d="m325.81 361.76v4.08h1.08v-4.08z"/><path d="m325.81 354.8v3.96h1.08v-3.96z"/><path d="m325.81 347.84v3.96h1.08v-3.96z"/><path d="m325.81 340.76v4.08h1.08v-4.08z"/><path d="m325.81 333.8v3.96h1.08v-3.96z"/><path d="m325.81 326.84v3.96h1.08v-3.96z"/><path d="m325.81 319.76v4.08h1.08v-4.08z"/><path d="m325.81 312.8v3.96h1.08v-3.96z"/><path d="m325.81 305.84v3.96h1.08v-3.96z"/><path d="m325.81 298.76v4.08h1.08v-4.08z"/><path d="m325.81 291.8v3.96h1.08v-3.96z"/><path d="m325.81 284.84v3.96h1.08v-3.96z"/><path d="m325.81 277.76v4.08h1.08v-4.08z"/><path d="m325.81 270.8v3.96h1.08v-3.96z"/><path d="m325.81 263.84v3.96h1.08v-3.96z"/><path d="m325.81 256.76v4.08h1.08v-4.08z"/><path d="m325.81 249.8v3.96h1.08v-3.96z"/><path d="m325.81 242.84v3.96h1.08v-3.96z"/><path d="m325.81 235.76v4.08h1.08v-4.08z"/><path d="m325.81 228.8v3.96h1.08v-3.96z"/><path d="m325.81 221.84v3.96h1.08v-3.96z"/><path d="m325.81 214.76v4.08h1.08v-4.08z"/><path d="m325.81 207.8v3.96h1.08v-3.96z"/><path d="m325.81 200.84v3.96h1.08v-3.96z"/><path d="m325.81 193.76v4.08h1.08v-4.08z"/><path d="m325.81 186.8v3.96h1.08v-3.96z"/><path d="m325.81 179.84v3.96h1.08v-3.96z"/><path d="m325.81 172.76v4.08h1.08v-4.08z"/><path d="m325.81 165.8v3.96h1.08v-3.96z"/><path d="m325.81 158.84v3.96h1.08v-3.96z"/><path d="m325.81 151.76v4.08h1.08v-4.08z"/><path d="m325.81 144.8v3.96h1.08v-3.96z"/><path d="m325.81 137.84v3.96h1.08v-3.96z"/><path d="m325.81 130.76v4.08h1.08v-4.08z"/><path d="m325.81 123.8v3.96h1.08v-3.96z"/><path d="m325.81 116.84v3.96h1.08v-3.96z"/><path d="m325.81 109.76v4.08h1.08v-4.08z"/><path d="m325.81 102.8v3.96h1.08v-3.96z"/><path d="m325.81 95.844v3.96h1.08v-3.96z"/><path d="m410.89 767.84v2.52h1.08v-2.52z"/><path d="m410.89 760.76v4.08h1.08v-4.08z"/><path d="m410.89 753.8v3.96h1.08v-3.96z"/><path d="m410.89 746.84v3.96h1.08v-3.96z"/><path d="m410.89 739.76v4.08h1.08v-4.08z"/><path d="m410.89 732.8v3.96h1.08v-3.96z"/><path d="m410.89 725.84v3.96h1.08v-3.96z"/><path d="m410.89 718.76v4.08h1.08v-4.08z"/><path d="m410.89 711.8v3.96h1.08v-3.96z"/><path d="m410.89 704.84v3.96h1.08v-3.96z"/><path d="m410.89 697.76v4.08h1.08v-4.08z"/><path d="m410.89 690.8v3.96h1.08v-3.96z"/><path d="m410.89 683.84v3.96h1.08v-3.96z"/><path d="m410.89 676.76v4.08h1.08v-4.08z"/><path d="m410.89 669.8v3.96h1.08v-3.96z"/><path d="m410.89 662.84v3.96h1.08v-3.96z"/><path d="m410.89 655.76v4.08h1.08v-4.08z"/><path d="m410.89 648.8v3.96h1.08v-3.96z"/><path d="m410.89 641.84v3.96h1.08v-3.96z"/><path d="m410.89 634.76v4.08h1.08v-4.08z"/><path d="m410.89 627.8v3.96h1.08v-3.96z"/><path d="m410.89 620.84v3.96h1.08v-3.96z"/><path d="m410.89 613.76v4.08h1.08v-4.08z"/><path d="m410.89 606.8v3.96h1.08v-3.96z"/><path d="m410.89 599.84v3.96h1.08v-3.96z"/><path d="m410.89 592.76v4.08h1.08v-4.08z"/><path d="m410.89 585.8v3.96h1.08v-3.96z"/><path d="m410.89 578.84v3.96h1.08v-3.96z"/><path d="m410.89 571.76v4.08h1.08v-4.08z"/><path d="m410.89 564.8v3.96h1.08v-3.96z"/><path d="m410.89 557.84v3.96h1.08v-3.96z"/><path d="m410.89 550.76v4.08h1.08v-4.08z"/><path d="m410.89 543.8v3.96h1.08v-3.96z"/><path d="m410.89 536.84v3.96h1.08v-3.96z"/><path d="m410.89 529.76v4.08h1.08v-4.08z"/><path d="m410.89 522.8v3.96h1.08v-3.96z"/><path d="m410.89 515.84v3.96h1.08v-3.96z"/><path d="m410.89 508.76v4.08h1.08v-4.08z"/><path d="m410.89 501.8v3.96h1.08v-3.96z"/><path d="m410.89 494.84v3.96h1.08v-3.96z"/><path d="m410.89 487.76v4.08h1.08v-4.08z"/><path d="m410.89 480.8v3.96h1.08v-3.96z"/><path d="m410.89 473.84v3.96h1.08v-3.96z"/><path d="m410.89 466.76v4.08h1.08v-4.08z"/><path d="m410.89 459.8v3.96h1.08v-3.96z"/><path d="m410.89 452.84v3.96h1.08v-3.96z"/><path d="m410.89 445.76v4.08h1.08v-4.08z"/><path d="m410.89 438.8v3.96h1.08v-3.96z"/><path d="m410.89 431.84v3.96h1.08v-3.96z"/><path d="m410.89 424.76v4.08h1.08v-4.08z"/><path d="m410.89 417.8v3.96h1.08v-3.96z"/><path d="m410.89 410.84v3.96h1.08v-3.96z"/><path d="m410.89 403.76v4.08h1.08v-4.08z"/><path d="m410.89 396.8v3.96h1.08v-3.96z"/><path d="m410.89 389.84v3.96h1.08v-3.96z"/><path d="m410.89 382.76v4.08h1.08v-4.08z"/><path d="m410.89 375.8v3.96h1.08v-3.96z"/><path d="m410.89 368.84v3.96h1.08v-3.96z"/><path d="m410.89 361.76v4.08h1.08v-4.08z"/><path d="m410.89 354.8v3.96h1.08v-3.96z"/><path d="m410.89 347.84v3.96h1.08v-3.96z"/><path d="m410.89 340.76v4.08h1.08v-4.08z"/><path d="m410.89 333.8v3.96h1.08v-3.96z"/><path d="m410.89 326.84v3.96h1.08v-3.96z"/><path d="m410.89 319.76v4.08h1.08v-4.08z"/><path d="m410.89 312.8v3.96h1.08v-3.96z"/><path d="m410.89 305.84v3.96h1.08v-3.96z"/><path d="m410.89 298.76v4.08h1.08v-4.08z"/><path d="m410.89 291.8v3.96h1.08v-3.96z"/><path d="m410.89 284.84v3.96h1.08v-3.96z"/><path d="m410.89 277.76v4.08h1.08v-4.08z"/><path d="m410.89 270.8v3.96h1.08v-3.96z"/><path d="m410.89 263.84v3.96h1.08v-3.96z"/><path d="m410.89 256.76v4.08h1.08v-4.08z"/><path d="m410.89 249.8v3.96h1.08v-3.96z"/><path d="m410.89 242.84v3.96h1.08v-3.96z"/><path d="m410.89 235.76v4.08h1.08v-4.08z"/><path d="m410.89 228.8v3.96h1.08v-3.96z"/><path d="m410.89 221.84v3.96h1.08v-3.96z"/><path d="m410.89 214.76v4.08h1.08v-4.08z"/><path d="m410.89 207.8v3.96h1.08v-3.96z"/><path d="m410.89 200.84v3.96h1.08v-3.96z"/><path d="m410.89 193.76v4.08h1.08v-4.08z"/><path d="m410.89 186.8v3.96h1.08v-3.96z"/><path d="m410.89 179.84v3.96h1.08v-3.96z"/><path d="m410.89 172.76v4.08h1.08v-4.08z"/><path d="m410.89 165.8v3.96h1.08v-3.96z"/><path d="m410.89 158.84v3.96h1.08v-3.96z"/><path d="m410.89 151.76v4.08h1.08v-4.08z"/><path d="m410.89 144.8v3.96h1.08v-3.96z"/><path d="m410.89 137.84v3.96h1.08v-3.96z"/><path d="m410.89 130.76v4.08h1.08v-4.08z"/><path d="m410.89 123.8v3.96h1.08v-3.96z"/><path d="m410.89 116.84v3.96h1.08v-3.96z"/><path d="m410.89 109.76v4.08h1.08v-4.08z"/><path d="m410.89 102.8v3.96h1.08v-3.96z"/><path d="m410.89 95.844v3.96h1.08v-3.96z"/><path d="m491.05 770.84h4.08v-.96h-4.08"/><path d="m484.09 770.84h3.96v-.96h-3.96z"/><path d="m477.13 770.84h3.96v-.96h-3.96z"/><path d="m470.05 770.84h4.08v-.96h-4.08z"/><path d="m463.09 770.84h3.96v-.96h-3.96z"/><path d="m456.13 770.84h3.96v-.96h-3.96z"/><path d="m449.05 770.84h4.08v-.96h-4.08z"/><path d="m442.09 770.84h3.96v-.96h-3.96z"/><path d="m435.13 770.84h3.96v-.96h-3.96z"/><path d="m428.05 770.84h4.08v-.96h-4.08z"/><path d="m421.09 770.84h3.96v-.96h-3.96z"/><path d="m414.13 770.84h3.96v-.96h-3.96z"/><path d="m407.05 770.84h4.08v-.96h-4.08z"/><path d="m400.09 770.84h3.96v-.96h-3.96z"/><path d="m393.13 770.84h3.96v-.96h-3.96z"/><path d="m386.05 770.84h4.08v-.96h-4.08z"/><path d="m379.09 770.84h3.96v-.96h-3.96z"/><path d="m372.13 770.84h3.96v-.96h-3.96z"/><path d="m365.05 770.84h4.08v-.96h-4.08z"/><path d="m358.09 770.84h3.96v-.96h-3.96z"/><path d="m351.13 770.84h3.96v-.96h-3.96z"/><path d="m344.05 770.84h4.08v-.96h-4.08z"/><path d="m337.09 770.84h3.96v-.96h-3.96z"/><path d="m330.13 770.84h3.96v-.96h-3.96z"/><path d="m323.05 770.84h4.08v-.96h-4.08z"/><path d="m316.09 770.84h3.96v-.96h-3.96z"/><path d="m309.13 770.84h3.96v-.96h-3.96z"/><path d="m302.05 770.84h4.08v-.96h-4.08z"/><path d="m295.09 770.84h3.96v-.96h-3.96z"/><path d="m288.13 770.84h3.96v-.96h-3.96z"/><path d="m281.05 770.84h4.08v-.96h-4.08z"/><path d="m274.09 770.84h3.96v-.96h-3.96z"/><path d="m267.13 770.84h3.96v-.96h-3.96z"/><path d="m260.05 770.84h4.08v-.96h-4.08z"/><path d="m253.09 770.84h3.96v-.96h-3.96z"/><path d="m246.13 770.84h3.96v-.96h-3.96z"/><path d="m239.05 770.84h4.08v-.96h-4.08z"/><path d="m232.09 770.84h3.96v-.96h-3.96z"/><path d="m225.13 770.84h3.96v-.96h-3.96z"/><path d="m218.05 770.84h4.08v-.96h-4.08z"/><path d="m211.09 770.84h3.96v-.96h-3.96z"/><path d="m204.13 770.84h3.96v-.96h-3.96z"/><path d="m197.05 770.84h4.08v-.96h-4.08z"/><path d="m190.09 770.84h3.96v-.96h-3.96z"/><path d="m183.13 770.84h3.96v-.96h-3.96z"/><path d="m176.05 770.84h4.08v-.96h-4.08z"/><path d="m169.09 770.84h3.96v-.96h-3.96z"/><path d="m162.13 770.84h3.96v-.96h-3.96z"/><path d="m155.05 770.84h4.08v-.96h-4.08z"/><path d="m148.09 770.84h3.96v-.96h-3.96z"/><path d="m141.13 770.84h3.96v-.96h-3.96z"/><path d="m134.05 770.84h4.08v-.96h-4.08z"/><path d="m127.09 770.84h3.96v-.96h-3.96z"/><path d="m120.13 770.84h3.96v-.96h-3.96z"/><path d="m113.05 770.84h4.08v-.96h-4.08z"/><path d="m106.09 770.84h3.96v-.96h-3.96z"/><path d="m99.134 770.84h3.96v-.96h-3.96z"/><path d="m92.054 770.84h4.08v-.96h-4.08z"/><path d="m85.094 770.84h3.96v-.96h-3.96z"/><path d="m78.134 770.84h3.96v-.96h-3.96z"/><path d="m71.054 770.84h4.08v-.96h-4.08z"/><path d="m491.05 635.96h4.08v-1.08h-4.08z"/><path d="m484.09 635.96h3.96v-1.08h-3.96z"/><path d="m477.13 635.96h3.96v-1.08h-3.96z"/><path d="m470.05 635.96h4.08v-1.08h-4.08z"/><path d="m463.09 635.96h3.96v-1.08h-3.96z"/><path d="m456.13 635.96h3.96v-1.08h-3.96z"/><path d="m449.05 635.96h4.08v-1.08h-4.08z"/><path d="m442.09 635.96h3.96v-1.08h-3.96z"/><path d="m435.13 635.96h3.96v-1.08h-3.96z"/><path d="m428.05 635.96h4.08v-1.08h-4.08z"/><path d="m421.09 635.96h3.96v-1.08h-3.96z"/><path d="m414.13 635.96h3.96v-1.08h-3.96z"/><path d="m407.05 635.96h4.08v-1.08h-4.08z"/><path d="m400.09 635.96h3.96v-1.08h-3.96z"/><path d="m393.13 635.96h3.96v-1.08h-3.96z"/><path d="m386.05 635.96h4.08v-1.08h-4.08z"/><path d="m379.09 635.96h3.96v-1.08h-3.96z"/><path d="m372.13 635.96h3.96v-1.08h-3.96z"/><path d="m365.05 635.96h4.08v-1.08h-4.08z"/><path d="m358.09 635.96h3.96v-1.08h-3.96z"/><path d="m351.13 635.96h3.96v-1.08h-3.96z"/><path d="m344.05 635.96h4.08v-1.08h-4.08z"/><path d="m337.09 635.96h3.96v-1.08h-3.96z"/><path d="m330.13 635.96h3.96v-1.08h-3.96z"/><path d="m323.05 635.96h4.08v-1.08h-4.08z"/><path d="m316.09 635.96h3.96v-1.08h-3.96z"/><path d="m309.13 635.96h3.96v-1.08h-3.96z"/><path d="m302.05 635.96h4.08v-1.08h-4.08z"/><path d="m295.09 635.96h3.96v-1.08h-3.96z"/><path d="m288.13 635.96h3.96v-1.08h-3.96z"/><path d="m281.05 635.96h4.08v-1.08h-4.08z"/><path d="m274.09 635.96h3.96v-1.08h-3.96z"/><path d="m267.13 635.96h3.96v-1.08h-3.96z"/><path d="m260.05 635.96h4.08v-1.08h-4.08z"/><path d="m253.09 635.96h3.96v-1.08h-3.96z"/><path d="m246.13 635.96h3.96v-1.08h-3.96z"/><path d="m239.05 635.96h4.08v-1.08h-4.08z"/><path d="m232.09 635.96h3.96v-1.08h-3.96z"/><path d="m225.13 635.96h3.96v-1.08h-3.96z"/><path d="m218.05 635.96h4.08v-1.08h-4.08z"/><path d="m211.09 635.96h3.96v-1.08h-3.96z"/><path d="m204.13 635.96h3.96v-1.08h-3.96z"/><path d="m197.05 635.96h4.08v-1.08h-4.08z"/><path d="m190.09 635.96h3.96v-1.08h-3.96z"/><path d="m183.13 635.96h3.96v-1.08h-3.96z"/><path d="m176.05 635.96h4.08v-1.08h-4.08z"/><path d="m169.09 635.96h3.96v-1.08h-3.96z"/><path d="m162.13 635.96h3.96v-1.08h-3.96z"/><path d="m155.05 635.96h4.08v-1.08h-4.08z"/><path d="m148.09 635.96h3.96v-1.08h-3.96z"/><path d="m141.13 635.96h3.96v-1.08h-3.96z"/><path d="m134.05 635.96h4.08v-1.08h-4.08z"/><path d="m127.09 635.96h3.96v-1.08h-3.96z"/><path d="m120.13 635.96h3.96v-1.08h-3.96z"/><path d="m113.05 635.96h4.08v-1.08h-4.08z"/><path d="m106.09 635.96h3.96v-1.08h-3.96z"/><path d="m99.134 635.96h3.96v-1.08h-3.96z"/><path d="m92.054 635.96h4.08v-1.08h-4.08z"/><path d="m85.094 635.96h3.96v-1.08h-3.96z"/><path d="m78.134 635.96h3.96v-1.08h-3.96z"/><path d="m71.054 635.96h4.08v-1.08h-4.08z"/><path d="m491.05 501.08h4.08v-1.08h-4.08z"/><path d="m484.09 501.08h3.96v-1.08h-3.96z"/><path d="m477.13 501.08h3.96v-1.08h-3.96z"/><path d="m470.05 501.08h4.08v-1.08h-4.08z"/><path d="m463.09 501.08h3.96v-1.08h-3.96z"/><path d="m456.13 501.08h3.96v-1.08h-3.96z"/><path d="m449.05 501.08h4.08v-1.08h-4.08z"/><path d="m442.09 501.08h3.96v-1.08h-3.96z"/><path d="m435.13 501.08h3.96v-1.08h-3.96z"/><path d="m428.05 501.08h4.08v-1.08h-4.08z"/><path d="m421.09 501.08h3.96v-1.08h-3.96z"/><path d="m414.13 501.08h3.96v-1.08h-3.96z"/><path d="m407.05 501.08h4.08v-1.08h-4.08z"/><path d="m400.09 501.08h3.96v-1.08h-3.96z"/><path d="m393.13 501.08h3.96v-1.08h-3.96z"/><path d="m386.05 501.08h4.08v-1.08h-4.08z"/><path d="m379.09 501.08h3.96v-1.08h-3.96z"/><path d="m372.13 501.08h3.96v-1.08h-3.96z"/><path d="m365.05 501.08h4.08v-1.08h-4.08z"/><path d="m358.09 501.08h3.96v-1.08h-3.96z"/><path d="m351.13 501.08h3.96v-1.08h-3.96z"/><path d="m344.05 501.08h4.08v-1.08h-4.08z"/><path d="m337.09 501.08h3.96v-1.08h-3.96z"/><path d="m330.13 501.08h3.96v-1.08h-3.96z"/><path d="m323.05 501.08h4.08v-1.08h-4.08z"/><path d="m316.09 501.08h3.96v-1.08h-3.96z"/><path d="m309.13 501.08h3.96v-1.08h-3.96z"/><path d="m302.05 501.08h4.08v-1.08h-4.08z"/><path d="m295.09 501.08h3.96v-1.08h-3.96z"/><path d="m288.13 501.08h3.96v-1.08h-3.96z"/><path d="m281.05 501.08h4.08v-1.08h-4.08z"/><path d="m274.09 501.08h3.96v-1.08h-3.96z"/><path d="m267.13 501.08h3.96v-1.08h-3.96z"/><path d="m260.05 501.08h4.08v-1.08h-4.08z"/><path d="m253.09 501.08h3.96v-1.08h-3.96z"/><path d="m246.13 501.08h3.96v-1.08h-3.96z"/><path d="m239.05 501.08h4.08v-1.08h-4.08z"/><path d="m232.09 501.08h3.96v-1.08h-3.96z"/><path d="m225.13 501.08h3.96v-1.08h-3.96z"/><path d="m218.05 501.08h4.08v-1.08h-4.08z"/><path d="m211.09 501.08h3.96v-1.08h-3.96z"/><path d="m204.13 501.08h3.96v-1.08h-3.96z"/><path d="m197.05 501.08h4.08v-1.08h-4.08z"/><path d="m190.09 501.08h3.96v-1.08h-3.96z"/><path d="m183.13 501.08h3.96v-1.08h-3.96z"/><path d="m176.05 501.08h4.08v-1.08h-4.08z"/><path d="m169.09 501.08h3.96v-1.08h-3.96z"/><path d="m162.13 501.08h3.96v-1.08h-3.96z"/><path d="m155.05 501.08h4.08v-1.08h-4.08z"/><path d="m148.09 501.08h3.96v-1.08h-3.96z"/><path d="m141.13 501.08h3.96v-1.08h-3.96z"/><path d="m134.05 501.08h4.08v-1.08h-4.08z"/><path d="m127.09 501.08h3.96v-1.08h-3.96z"/><path d="m85.094 501.08h3.96v-1.08h-3.96z"/><path d="m78.134 501.08h3.96v-1.08h-3.96z"/><path d="m71.054 501.08h4.08v-1.08h-4.08z"/><path d="m491.05 366.2h4.08v-1.08h-4.08z"/><path d="m484.09 366.2h3.96v-1.08h-3.96z"/><path d="m477.13 366.2h3.96v-1.08h-3.96z"/><path d="m470.05 366.2h4.08v-1.08h-4.08z"/><path d="m463.09 366.2h3.96v-1.08h-3.96z"/><path d="m456.13 366.2h3.96v-1.08h-3.96z"/><path d="m449.05 366.2h4.08v-1.08h-4.08z"/><path d="m442.09 366.2h3.96v-1.08h-3.96z"/><path d="m435.13 366.2h3.96v-1.08h-3.96z"/><path d="m428.05 366.2h4.08v-1.08h-4.08z"/><path d="m421.09 366.2h3.96v-1.08h-3.96z"/><path d="m414.13 366.2h3.96v-1.08h-3.96z"/><path d="m407.05 366.2h4.08v-1.08h-4.08z"/><path d="m400.09 366.2h3.96v-1.08h-3.96z"/><path d="m393.13 366.2h3.96v-1.08h-3.96z"/><path d="m386.05 366.2h4.08v-1.08h-4.08z"/><path d="m379.09 366.2h3.96v-1.08h-3.96z"/><path d="m372.13 366.2h3.96v-1.08h-3.96z"/><path d="m365.05 366.2h4.08v-1.08h-4.08z"/><path d="m358.09 366.2h3.96v-1.08h-3.96z"/><path d="m351.13 366.2h3.96v-1.08h-3.96z"/><path d="m344.05 366.2h4.08v-1.08h-4.08z"/><path d="m337.09 366.2h3.96v-1.08h-3.96z"/><path d="m330.13 366.2h3.96v-1.08h-3.96z"/><path d="m323.05 366.2h4.08v-1.08h-4.08z"/><path d="m316.09 366.2h3.96v-1.08h-3.96z"/><path d="m309.13 366.2h3.96v-1.08h-3.96z"/><path d="m302.05 366.2h4.08v-1.08h-4.08z"/><path d="m295.09 366.2h3.96v-1.08h-3.96z"/><path d="m288.13 366.2h3.96v-1.08h-3.96z"/><path d="m281.05 366.2h4.08v-1.08h-4.08z"/><path d="m274.09 366.2h3.96v-1.08h-3.96z"/><path d="m267.13 366.2h3.96v-1.08h-3.96z"/><path d="m260.05 366.2h4.08v-1.08h-4.08z"/><path d="m253.09 366.2h3.96v-1.08h-3.96z"/><path d="m246.13 366.2h3.96v-1.08h-3.96z"/><path d="m239.05 366.2h4.08v-1.08h-4.08z"/><path d="m232.09 366.2h3.96v-1.08h-3.96z"/><path d="m225.13 366.2h3.96v-1.08h-3.96z"/><path d="m218.05 366.2h4.08v-1.08h-4.08z"/><path d="m211.09 366.2h3.96v-1.08h-3.96z"/><path d="m204.13 366.2h3.96v-1.08h-3.96z"/><path d="m197.05 366.2h4.08v-1.08h-4.08z"/><path d="m190.09 366.2h3.96v-1.08h-3.96z"/><path d="m183.13 366.2h3.96v-1.08h-3.96z"/><path d="m176.05 366.2h4.08v-1.08h-4.08z"/><path d="m169.09 366.2h3.96v-1.08h-3.96z"/><path d="m162.13 366.2h3.96v-1.08h-3.96z"/><path d="m155.05 366.2h4.08v-1.08h-4.08z"/><path d="m148.09 366.2h3.96v-1.08h-3.96z"/><path d="m141.13 366.2h3.96v-1.08h-3.96z"/><path d="m134.05 366.2h4.08v-1.08h-4.08z"/><path d="m127.09 366.2h3.96v-1.08h-3.96z"/><path d="m85.094 366.2h3.96v-1.08h-3.96z"/><path d="m78.134 366.2h3.96v-1.08h-3.96z"/><path d="m71.054 366.2h4.08v-1.08h-4.08z"/><path d="m491.05 231.2h4.08v-1.08h-4.08z"/><path d="m484.09 231.2h3.96v-1.08h-3.96z"/><path d="m477.13 231.2h3.96v-1.08h-3.96z"/><path d="m470.05 231.2h4.08v-1.08h-4.08z"/><path d="m463.09 231.2h3.96v-1.08h-3.96z"/><path d="m456.13 231.2h3.96v-1.08h-3.96z"/><path d="m449.05 231.2h4.08v-1.08h-4.08z"/><path d="m442.09 231.2h3.96v-1.08h-3.96z"/><path d="m435.13 231.2h3.96v-1.08h-3.96z"/><path d="m428.05 231.2h4.08v-1.08h-4.08z"/><path d="m421.09 231.2h3.96v-1.08h-3.96z"/><path d="m414.13 231.2h3.96v-1.08h-3.96z"/><path d="m407.05 231.2h4.08v-1.08h-4.08z"/><path d="m400.09 231.2h3.96v-1.08h-3.96z"/><path d="m393.13 231.2h3.96v-1.08h-3.96z"/><path d="m386.05 231.2h4.08v-1.08h-4.08z"/><path d="m379.09 231.2h3.96v-1.08h-3.96z"/><path d="m372.13 231.2h3.96v-1.08h-3.96z"/><path d="m365.05 231.2h4.08v-1.08h-4.08z"/><path d="m358.09 231.2h3.96v-1.08h-3.96z"/><path d="m351.13 231.2h3.96v-1.08h-3.96z"/><path d="m344.05 231.2h4.08v-1.08h-4.08z"/><path d="m337.09 231.2h3.96v-1.08h-3.96z"/><path d="m330.13 231.2h3.96v-1.08h-3.96z"/><path d="m323.05 231.2h4.08v-1.08h-4.08z"/><path d="m316.09 231.2h3.96v-1.08h-3.96z"/><path d="m309.13 231.2h3.96v-1.08h-3.96z"/><path d="m302.05 231.2h4.08v-1.08h-4.08z"/><path d="m295.09 231.2h3.96v-1.08h-3.96z"/><path d="m288.13 231.2h3.96v-1.08h-3.96z"/><path d="m281.05 231.2h4.08v-1.08h-4.08z"/><path d="m274.09 231.2h3.96v-1.08h-3.96z"/><path d="m267.13 231.2h3.96v-1.08h-3.96z"/><path d="m260.05 231.2h4.08v-1.08h-4.08z"/><path d="m253.09 231.2h3.96v-1.08h-3.96z"/><path d="m246.13 231.2h3.96v-1.08h-3.96z"/><path d="m239.05 231.2h4.08v-1.08h-4.08z"/><path d="m232.09 231.2h3.96v-1.08h-3.96z"/><path d="m225.13 231.2h3.96v-1.08h-3.96z"/><path d="m218.05 231.2h4.08v-1.08h-4.08z"/><path d="m211.09 231.2h3.96v-1.08h-3.96z"/><path d="m204.13 231.2h3.96v-1.08h-3.96z"/><path d="m197.05 231.2h4.08v-1.08h-4.08z"/><path d="m190.09 231.2h3.96v-1.08h-3.96z"/><path d="m183.13 231.2h3.96v-1.08h-3.96z"/><path d="m176.05 231.2h4.08v-1.08h-4.08z"/><path d="m169.09 231.2h3.96v-1.08h-3.96z"/><path d="m162.13 231.2h3.96v-1.08h-3.96z"/><path d="m155.05 231.2h4.08v-1.08h-4.08z"/><path d="m148.09 231.2h3.96v-1.08h-3.96z"/><path d="m141.13 231.2h3.96v-1.08h-3.96z"/><path d="m134.05 231.2h4.08v-1.08h-4.08z"/><path d="m127.09 231.2h3.96v-1.08h-3.96z"/><path d="m120.13 231.2h3.96v-1.08h-3.96z"/><path d="m113.05 231.2h4.08v-1.08h-4.08z"/><path d="m106.09 231.2h3.96v-1.08h-3.96z"/><path d="m99.134 231.2h3.96v-1.08h-3.96z"/><path d="m92.054 231.2h4.08v-1.08h-4.08z"/><path d="m85.094 231.2h3.96v-1.08h-3.96z"/><path d="m78.134 231.2h3.96v-1.08h-3.96z"/><path d="m71.054 231.2h4.08v-1.08h-4.08z"/><path d="m496.45 94.284h-425.52c-.72 0-1.44.72-1.44 1.44 0 .84.72 1.56 1.44 1.56h425.52c.84 0 1.56-.72 1.56-1.56 0-.72-.72-1.44-1.56-1.44"/><path d="m495.01 95.724v674.52c0 .84.72 1.56 1.44 1.56.84 0 1.56-.72 1.56-1.56v-674.52c0-.72-.72-1.44-1.56-1.44-.72 0-1.44.72-1.44 1.44"/><path d="m491.65411 97.283772h4.8c.84 0 1.56-.72 1.56-1.56 0-.72-.72-1.44-1.56-1.44h-4.8c-.72 0-1.44.72-1.44 1.44 0 .84.72 1.56 1.44 1.56zm0 26.879758h4.8c.84 0 1.56-.72 1.56-1.56 0-.72-.72-1.44-1.56-1.44h-4.8c-.72 0-1.44.72-1.44 1.44 0 .84.72 1.56 1.44 1.56zm0 27h4.8c.84 0 1.56-.72 1.56-1.56 0-.72-.72-1.44-1.56-1.44h-4.8c-.72 0-1.44.72-1.44 1.44 0 .84.72 1.56 1.44 1.56zm0 27h4.8c.84 0 1.56-.72 1.56-1.56 0-.72-.72-1.44-1.56-1.44h-4.8c-.72 0-1.44.72-1.44 1.44 0 .84.72 1.56 1.44 1.56zm0 27h4.8c.84 0 1.56-.72 1.56-1.56 0-.72-.72-1.44-1.56-1.44h-4.8c-.72 0-1.44.72-1.44 1.44 0 .84.72 1.56 1.44 1.56zm0 27h4.8c.84 0 1.56-.72 1.56-1.56 0-.72-.72-1.44-1.56-1.44h-4.8c-.72 0-1.44.72-1.44 1.44 0 .84.72 1.56 1.44 1.56zm0 27h4.8c.84 0 1.56-.72 1.56-1.56 0-.72-.72-1.44-1.56-1.44h-4.8c-.72 0-1.44.72-1.44 1.44 0 .84.72 1.56 1.44 1.56zm0 27h4.8c.84 0 1.56-.72 1.56-1.56 0-.72-.72-1.44-1.56-1.44h-4.8c-.72 0-1.44.72-1.44 1.44 0 .84.72 1.56 1.44 1.56zm0 27h4.8c.84 0 1.56-.72 1.56-1.56 0-.72-.72-1.44-1.56-1.44h-4.8c-.72 0-1.44.72-1.44 1.44 0 .84.72 1.56 1.44 1.56zm0 26.88h4.8c.84 0 1.56-.72 1.56-1.56 0-.72-.72-1.44-1.56-1.44h-4.8c-.72 0-1.44.72-1.44 1.44 0 .84.72 1.56 1.44 1.56zm0 27h4.8c.84 0 1.56-.72 1.56-1.56 0-.72-.72-1.44-1.56-1.44h-4.8c-.72 0-1.44.72-1.44 1.44 0 .84.72 1.56 1.44 1.56zm0 27h4.8c.84 0 1.56-.72 1.56-1.56 0-.72-.72-1.44-1.56-1.44h-4.8c-.72 0-1.44.72-1.44 1.44 0 .84.72 1.56 1.44 1.56zm0 27h4.8c.84 0 1.56-.72 1.56-1.56 0-.72-.72-1.44-1.56-1.44h-4.8c-.72 0-1.44.72-1.44 1.44 0 .84.72 1.56 1.44 1.56zm0 27h4.8c.84 0 1.56-.72 1.56-1.56 0-.72-.72-1.44-1.56-1.44h-4.8c-.72 0-1.44.72-1.44 1.44 0 .84.72 1.56 1.44 1.56zm0 27h4.8c.84 0 1.56-.72 1.56-1.56 0-.72-.72-1.44-1.56-1.44h-4.8c-.72 0-1.44.72-1.44 1.44 0 .84.72 1.56 1.44 1.56zm0 27h4.8c.84 0 1.56-.72 1.56-1.56 0-.72-.72-1.44-1.56-1.44h-4.8c-.72 0-1.44.72-1.44 1.44 0 .84.72 1.56 1.44 1.56zm0 27h4.8c.84 0 1.56-.72 1.56-1.56 0-.72-.72-1.44-1.56-1.44h-4.8c-.72 0-1.44.72-1.44 1.44 0 .84.72 1.56 1.44 1.56zm0 26.88h4.8c.84 0 1.56-.72 1.56-1.56 0-.72-.72-1.44-1.56-1.44h-4.8c-.72 0-1.44.72-1.44 1.44 0 .84.72 1.56 1.44 1.56zm0 27h4.8c.84 0 1.56-.72 1.56-1.56 0-.72-.72-1.44-1.56-1.44h-4.8c-.72 0-1.44.72-1.44 1.44 0 .84.72 1.56 1.44 1.56zm0 27h4.8c.84 0 1.56-.72 1.56-1.56 0-.72-.72-1.44-1.56-1.44h-4.8c-.72 0-1.44.72-1.44 1.44 0 .84.72 1.56 1.44 1.56zm0 27h4.8c.84 0 1.56-.72 1.56-1.56 0-.72-.72-1.44-1.56-1.44h-4.8c-.72 0-1.44.72-1.44 1.44 0 .84.72 1.56 1.44 1.56zm0 27h4.8c.84 0 1.56-.72 1.56-1.56 0-.72-.72-1.44-1.56-1.44h-4.8c-.72 0-1.44.72-1.44 1.44 0 .84.72 1.56 1.44 1.56zm0 27h4.8c.84 0 1.56-.72 1.56-1.56 0-.72-.72-1.44-1.56-1.44h-4.8c-.72 0-1.44.72-1.44 1.44 0 .84.72 1.56 1.44 1.56zm0 27h4.8c.84 0 1.56-.72 1.56-1.56 0-.72-.72-1.44-1.56-1.44h-4.8c-.72 0-1.44.72-1.44 1.44 0 .84.72 1.56 1.44 1.56zm0 26.88h4.8c.84 0 1.56-.72 1.56-1.56 0-.72-.72-1.44-1.56-1.44h-4.8c-.72 0-1.44.72-1.44 1.44 0 .84.72 1.56 1.44 1.56zm0 27h4.8c.84 0 1.56-.72 1.56-1.56 0-.72-.72-1.44-1.56-1.44h-4.8c-.72 0-1.44.72-1.44 1.44 0 .84.72 1.56 1.44 1.56"/><path d="m70.934 98.244c1.44 0 2.52-1.08 2.52-2.52 0-1.32-1.08-2.4-2.52-2.4-1.32 0-2.4 1.08-2.4 2.4 0 1.44 1.08 2.52 2.4 2.52" fill="#ed7d31"/><path d="m70.814 100.16c2.1537.17515 4.3005-1.4569 4.5161-3.6474.44664-2.313-1.2447-4.8792-3.6649-5.0744-2.3042-.42569-4.7137 1.2819-5.0098 3.6187-.43577 2.1987 1.0573 4.5279 3.2578 4.995.29482.0702.59764.10767.90078.10814zm-.12-3.96c-.01253-.07828-.40582-.5265-.15204-.35376-.32506-.45311.69299-.67942.53118-.55552.37041.12804-.02127-.07055.23263.18428-.01835-.29699.35424.39241.18255.31275-.29534.60161-.20998.36092-.59977.55847l.28542-.02622" fill="#c00000"/><path d="m79.454 111.68c1.44 0 2.52-1.08 2.52-2.52 0-1.32-1.08-2.4-2.52-2.4-1.32 0-2.4 1.08-2.4 2.4 0 1.44 1.08 2.52 2.4 2.52" fill="#ed7d31"/><path d="m79.334115 113.60377c2.153657.17516 4.300505-1.45695 4.516083-3.64738.446642-2.31299-1.244652-4.87916-3.664869-5.0744-2.304156-.42573-4.713672 1.28182-5.009829 3.61865-.435766 2.19868 1.057298 4.52789 3.257866 4.99495.294806.0702.597615.10768.900749.10818zm-.12-3.96c-.01252-.0782-.40582-.5265-.152041-.35377-.320686-.54147.780199-.61454.465907-.58897.528429.19622.01333.003.459058.27707.158701.31847-.356783.89942-.401816.71768-.251727.005-.279148.249.108847.068" fill="#c00000"/><path d="m87.974 125.12c1.44 0 2.52-1.08 2.52-2.52 0-1.32-1.08-2.3998-2.52-2.3998-1.32 0-2.4 1.0798-2.4 2.3998 0 1.44 1.08 2.52 2.4 2.52" fill="#ed7d31"/><path d="m87.854115 127.04353c2.15366.17516 4.300481-1.45695 4.516095-3.64736.446634-2.31294-1.244787-4.87893-3.664881-5.07418-2.304114-.42571-4.713649 1.28177-5.009842 3.61855-.435721 2.19865 1.057376 4.52775 3.257879 4.99481.294806.0702.597615.10768.900749.10818zm-.12-3.96c-.01252-.0782-.40582-.5265-.152041-.35377-.320685-.54147.780197-.61451.465917-.58907.528429.19622.01332.003.459059.27707.15872.31846-.356778.89942-.401807.71768-.251727.005-.279148.249.108847.068" fill="#c00000"/><path d="m96.494 138.68c1.44 0 2.52-1.08 2.52-2.52 0-1.32-1.08-2.4-2.52-2.4-1.32 0-2.4 1.08-2.4 2.4 0 1.44 1.08 2.52 2.4 2.52" fill="#ed7d31"/><path d="m96.374115 140.60353c2.153656.17516 4.300505-1.45695 4.516075-3.64738.44665-2.31299-1.24465-4.87914-3.664862-5.0744-2.304157-.42574-4.713675 1.28182-5.009828 3.61864-.435767 2.19869 1.057297 4.5279 3.257866 4.99496.294806.0702.597615.10768.900749.10818zm-.12-3.96c-.01252-.0782-.40582-.5265-.152041-.35377-.320685-.54147.780193-.61454.465917-.58896.528429.19621.01332.003.459059.27706.15872.31846-.356778.89942-.401807.71768-.251727.005-.279148.249.108847.068" fill="#c00000"/><path d="m105.01 152.12c1.44 0 2.52-1.08 2.52-2.52 0-1.32-1.08-2.4-2.52-2.4-1.32 0-2.4 1.08-2.4 2.4 0 1.44 1.08 2.52 2.4 2.52" fill="#ed7d31"/><path d="m104.89411 154.04353c2.15365.17515 4.30051-1.45695 4.51608-3.64738.44664-2.31299-1.24465-4.87916-3.66487-5.0744-2.30415-.42574-4.71367 1.28182-5.00982 3.61864-.43577 2.19869 1.0573 4.52789 3.25786 4.99496.29481.0702.59762.10768.90075.10818zm-.12-3.96c-.0125-.0782-.40586-.5265-.15208-.35377-.325-.45316.69304-.67938.53124-.55544.37043.12812-.0213-.0706.23263.18427-.0184-.297.35432.39242.18235.31275-.29494.60162-.2099.36085-.59958.55843l.28543-.0262" fill="#c00000"/><path d="m113.53 165.68c1.44 0 2.52-1.08 2.52-2.52 0-1.32-1.08-2.4-2.52-2.4-1.32 0-2.4 1.08-2.4 2.4 0 1.44 1.08 2.52 2.4 2.52" fill="#ed7d31"/><path d="m113.41411 167.60353c2.15365.17515 4.30051-1.45695 4.51608-3.64738.44664-2.31299-1.24465-4.87916-3.66487-5.0744-2.30415-.42574-4.71367 1.28182-5.00982 3.61864-.43577 2.19869 1.0573 4.52789 3.25786 4.99496.29481.0702.59762.10768.90075.10818zm-.12-3.96c-.0125-.0782-.40586-.5265-.15208-.35377-.325-.45316.69304-.67938.53124-.55544.37043.12812-.0213-.0706.23263.18427-.0184-.297.35432.39242.18235.31275-.29489.60164-.20994.36084-.59958.55843l.28543-.0262" fill="#c00000"/><path d="m122.05 179.12c1.44 0 2.52-1.08 2.52-2.52 0-1.32-1.08-2.4-2.52-2.4-1.32 0-2.4 1.08-2.4 2.4 0 1.44 1.08 2.52 2.4 2.52" fill="#ed7d31"/><path d="m121.93411 181.04353c2.15365.17515 4.30051-1.45695 4.51608-3.64738.44664-2.31299-1.24465-4.87916-3.66487-5.0744-2.30415-.42574-4.71367 1.28182-5.00982 3.61864-.43577 2.19869 1.0573 4.52789 3.25786 4.99496.29481.0702.59762.10768.90075.10818zm-.12-3.96c-.0125-.0782-.40586-.5265-.15208-.35377-.325-.45316.69304-.67938.53124-.55544.37043.12812-.0213-.0706.23263.18427-.0184-.297.35432.39242.18239.31275-.29498.60164-.20996.36084-.59962.55843l.28543-.0262" fill="#c00000"/><path d="m130.57 192.68c1.44 0 2.52-1.08 2.52-2.52 0-1.32-1.08-2.4-2.52-2.4-1.32 0-2.4 1.08-2.4 2.4 0 1.44 1.08 2.52 2.4 2.52" fill="#ed7d31"/><path d="m130.45411 194.60353c2.15365.17515 4.30051-1.45695 4.51608-3.64738.44664-2.31299-1.24465-4.87916-3.66487-5.0744-2.30415-.42574-4.71367 1.28182-5.00982 3.61864-.43577 2.19869 1.0573 4.52789 3.25786 4.99496.29481.0702.59762.10768.90075.10818zm-.12-3.96c-.0125-.0782-.40586-.5265-.15208-.35377-.325-.45316.69304-.67938.53124-.55544.37043.12812-.0213-.0706.23263.18427-.0184-.297.35432.39242.18235.31275-.2949.60164-.20998.36084-.59958.55843l.28543-.0262" fill="#c00000"/><path d="m139.09 206.12c1.44 0 2.52-1.08 2.52-2.52 0-1.32-1.08-2.4-2.52-2.4-1.32 0-2.4 1.08-2.4 2.4 0 1.44 1.08 2.52 2.4 2.52" fill="#ed7d31"/><path d="m138.97411 208.04353c2.15365.17515 4.30051-1.45695 4.51608-3.64738.44664-2.31299-1.24465-4.87916-3.66487-5.0744-2.30415-.42574-4.71367 1.28182-5.00982 3.61864-.43577 2.19869 1.0573 4.52789 3.25786 4.99496.29481.0702.59762.10768.90075.10818zm-.12-3.96c-.0125-.0782-.40586-.5265-.15208-.35377-.325-.45316.69304-.67938.53124-.55544.37043.12812-.0213-.0706.23263.18427-.0184-.297.35432.39242.18239.31275-.29503.60161-.20995.36085-.59962.55843l.28543-.0262" fill="#c00000"/><path d="m147.49 219.56c1.44 0 2.52-1.08 2.52-2.52 0-1.32-1.08-2.4-2.52-2.4-1.32 0-2.4 1.08-2.4 2.4 0 1.44 1.08 2.52 2.4 2.52" fill="#ed7d31"/><path d="m147.37411 221.48353c2.15365.17515 4.30051-1.45695 4.51608-3.64738.44664-2.31299-1.24465-4.87916-3.66487-5.0744-2.30415-.42574-4.71367 1.28182-5.00982 3.61864-.43577 2.19869 1.0573 4.52789 3.25786 4.99496.29481.0702.59762.10768.90075.10818zm-.12-3.96c-.0125-.0782-.40586-.5265-.15208-.35377-.32499-.45317.69305-.67933.53124-.55554.37043.12812-.0213-.0706.23263.18427-.0184-.297.35432.39242.18239.31275-.29502.60162-.20992.36085-.59962.55843l.28543-.0262" fill="#c00000"/><path d="m156.01 233.12c1.44 0 2.52-1.08 2.52-2.52 0-1.32-1.08-2.4-2.52-2.4-1.32 0-2.4 1.08-2.4 2.4 0 1.44 1.08 2.52 2.4 2.52" fill="#ed7d31"/><path d="m155.89411 235.04353c2.15365.17515 4.30051-1.45695 4.51608-3.64738.44664-2.31299-1.24465-4.87916-3.66487-5.0744-2.30415-.42574-4.71367 1.28182-5.00982 3.61864-.43577 2.19869 1.0573 4.52789 3.25786 4.99496.29481.0702.59762.10768.90075.10818zm-.12-3.96c-.0125-.0782-.40586-.5265-.15208-.35377-.325-.45316.69304-.67938.53124-.55544.37043.12812-.0213-.0706.23263.18427-.0184-.297.35432.39242.18235.31275-.2949.60164-.20998.36084-.59958.55843l.28543-.0262" fill="#c00000"/><path d="m164.53 246.56c1.44 0 2.52-1.08 2.52-2.52 0-1.32-1.08-2.4-2.52-2.4-1.32 0-2.4 1.08-2.4 2.4 0 1.44 1.08 2.52 2.4 2.52" fill="#ed7d31"/><path d="m164.41411 248.48353c2.15365.17515 4.30051-1.45695 4.51608-3.64738.44664-2.31299-1.24465-4.87916-3.66487-5.0744-2.30415-.42574-4.71367 1.28182-5.00982 3.61864-.43577 2.19869 1.0573 4.52789 3.25786 4.99496.29481.0702.59762.10768.90075.10818zm-.12-3.96c-.0125-.0782-.40586-.5265-.15208-.35377-.32499-.45317.69305-.67933.53124-.55554.37043.12812-.0213-.0706.23263.18427-.0184-.297.35432.39242.18235.31275-.29495.60162-.20994.36085-.59958.55843l.28543-.0262" fill="#c00000"/><path d="m173.05 260.12c1.44 0 2.52-1.08 2.52-2.52 0-1.32-1.08-2.4-2.52-2.4-1.32 0-2.4 1.08-2.4 2.4 0 1.44 1.08 2.52 2.4 2.52" fill="#ed7d31"/><path d="m172.93411 262.04353c2.15365.17515 4.30051-1.45695 4.51608-3.64738.44664-2.31299-1.24465-4.87916-3.66487-5.0744-2.30415-.42574-4.71367 1.28182-5.00982 3.61864-.43577 2.19869 1.0573 4.52789 3.25786 4.99496.29481.0702.59762.10768.90075.10818zm-.12-3.96c-.0125-.0782-.40586-.5265-.15208-.35377-.32499-.45317.69305-.67933.53124-.55554.37043.12812-.0213-.0706.23263.18427-.0184-.297.35432.39242.18239.31275-.29502.60162-.20992.36085-.59962.55843l.28543-.0262" fill="#c00000"/><path d="m181.57 273.56c1.44 0 2.52-1.08 2.52-2.52 0-1.32-1.08-2.4-2.52-2.4-1.32 0-2.4 1.08-2.4 2.4 0 1.44 1.08 2.52 2.4 2.52" fill="#ed7d31"/><path d="m181.45411 275.48353c2.15365.17515 4.30051-1.45695 4.51608-3.64738.44664-2.31299-1.24465-4.87916-3.66487-5.0744-2.30415-.42574-4.71366 1.28183-5.00982 3.61865-.43577 2.19868 1.0573 4.52788 3.25786 4.99495.29481.0702.59762.10768.90075.10818zm-.12-3.96c-.0125-.0782-.40586-.5265-.15208-.35377-.32499-.45317.69305-.67933.53124-.55555.37043.12813-.0213-.0706.23263.18428-.0184-.29699.35432.39242.18235.31275-.2949.60165-.20998.36084-.59958.55843l.28543-.0262" fill="#c00000"/><path d="m190.09 287.12c1.44 0 2.52-1.08 2.52-2.52 0-1.32-1.08-2.4-2.52-2.4-1.32 0-2.4 1.08-2.4 2.4 0 1.44 1.08 2.52 2.4 2.52" fill="#ed7d31"/><path d="m189.97411 289.04353c2.15365.17515 4.30051-1.45695 4.51608-3.64738.44664-2.31299-1.24465-4.87916-3.66487-5.0744-2.30415-.42574-4.71367 1.28182-5.00982 3.61864-.43577 2.19869 1.0573 4.52789 3.25786 4.99496.29481.0702.59762.10768.90075.10818zm-.12-3.96c-.0125-.0782-.40586-.5265-.15208-.35377-.32499-.45317.69305-.67933.53124-.55554.37043.12812-.0213-.0706.23263.18427-.0184-.297.35432.39242.18239.31275-.29503.60162-.20996.36085-.59962.55843l.28543-.0262" fill="#c00000"/><path d="m198.61 300.56c1.44 0 2.52-1.08 2.52-2.52 0-1.32-1.08-2.4-2.52-2.4-1.32 0-2.4 1.08-2.4 2.4 0 1.44 1.08 2.52 2.4 2.52" fill="#ed7d31"/><path d="m198.49411 302.48353c2.15365.17515 4.30051-1.45695 4.51608-3.64738.44664-2.31299-1.24465-4.87916-3.66487-5.0744-2.30415-.42574-4.71366 1.28183-5.00982 3.61865-.43577 2.19868 1.0573 4.52788 3.25786 4.99495.29481.0702.59762.10768.90075.10818zm-.12-3.96c-.0125-.0782-.40586-.5265-.15208-.35377-.32499-.45317.69305-.67933.53124-.55555.37043.12813-.0213-.0706.23263.18428-.0184-.297.35432.39242.18239.31275-.29503.60162-.20996.36085-.59962.55843l.28543-.0262" fill="#c00000"/><path d="m207.13 314.12c1.44 0 2.52-1.08 2.52-2.52 0-1.32-1.08-2.4-2.52-2.4-1.32 0-2.4 1.08-2.4 2.4 0 1.44 1.08 2.52 2.4 2.52" fill="#ed7d31"/><path d="m207.01411 316.04353c2.15365.17515 4.30051-1.45695 4.51608-3.64738.44664-2.31299-1.24465-4.87916-3.66487-5.0744-2.30415-.42574-4.71367 1.28182-5.00982 3.61864-.43577 2.19869 1.0573 4.52789 3.25786 4.99496.29481.0702.59762.10768.90075.10818zm-.12-3.96c-.0125-.0782-.40586-.5265-.15208-.35377-.32499-.45317.69305-.67933.53124-.55554.37043.12812-.0213-.0706.23263.18427-.0184-.29699.35432.39242.18235.31275-.2949.60165-.20998.36084-.59958.55843l.28543-.0262" fill="#c00000"/><path d="m215.65 327.56c1.44 0 2.52-1.08 2.52-2.52 0-1.32-1.08-2.4-2.52-2.4-1.32 0-2.4 1.08-2.4 2.4 0 1.44 1.08 2.52 2.4 2.52" fill="#ed7d31"/><path d="m215.53411 329.48353c2.15365.17515 4.30051-1.45695 4.51608-3.64738.44664-2.31299-1.24465-4.87916-3.66487-5.0744-2.30415-.42574-4.71366 1.28183-5.00982 3.61865-.43577 2.19868 1.0573 4.52788 3.25786 4.99495.29481.0702.59762.10768.90075.10818zm-.12-3.96c-.0125-.0782-.40586-.5265-.15208-.35377-.32499-.45317.69305-.67933.53124-.55555.37043.12813-.0213-.0706.23263.18428-.0184-.297.35432.39242.18239.31275-.29502.60162-.20992.36085-.59962.55843l.28543-.0262" fill="#c00000"/><path d="m224.17 341c1.44 0 2.52-1.08 2.52-2.52 0-1.32-1.08-2.4-2.52-2.4-1.32 0-2.4 1.08-2.4 2.4 0 1.44 1.08 2.52 2.4 2.52" fill="#ed7d31"/><path d="m224.05411 342.92353c2.15365.17515 4.30051-1.45695 4.51608-3.64738.44664-2.31299-1.24465-4.87916-3.66487-5.0744-2.30415-.42574-4.71366 1.28183-5.00982 3.61865-.43577 2.19868 1.0573 4.52788 3.25786 4.99495.29481.0702.59762.10768.90075.10818zm-.12-3.96c-.0125-.0782-.40586-.5265-.15208-.35377-.32499-.45317.69305-.67933.53124-.55555.37043.12813-.0213-.0706.23263.18428-.0184-.297.35432.39242.18239.31275-.29503.60162-.20996.36085-.59962.55843l.28543-.0262" fill="#c00000"/><path d="m232.69 354.56c1.44 0 2.52-1.08 2.52-2.52 0-1.32-1.08-2.4-2.52-2.4-1.32 0-2.4 1.08-2.4 2.4 0 1.44 1.08 2.52 2.4 2.52" fill="#ed7d31"/><path d="m232.57411 356.48353c2.15365.17515 4.30051-1.45695 4.51608-3.64738.44664-2.31299-1.24465-4.87916-3.66487-5.0744-2.30415-.42574-4.71366 1.28183-5.00982 3.61865-.43577 2.19868 1.0573 4.52788 3.25786 4.99495.29481.0702.59762.10768.90075.10818zm-.12-3.96c-.0125-.0782-.40586-.5265-.15208-.35377-.32499-.45317.69305-.67933.53124-.55555.37043.12813-.0213-.0706.23263.18428-.0184-.29699.35432.39242.18235.31275-.29494.60162-.20994.36085-.59958.55843l.28543-.0262" fill="#c00000"/><path d="m241.21 368c1.44 0 2.52-1.08 2.52-2.52 0-1.32-1.08-2.4-2.52-2.4-1.32 0-2.4 1.08-2.4 2.4 0 1.44 1.08 2.52 2.4 2.52" fill="#ed7d31"/><path d="m241.09411 369.92353c2.15365.17515 4.30051-1.45695 4.51608-3.64738.44664-2.31299-1.24465-4.87916-3.66487-5.0744-2.30415-.42574-4.71366 1.28183-5.00982 3.61865-.43577 2.19868 1.0573 4.52788 3.25786 4.99495.29481.0702.59762.10768.90075.10818zm-.12-3.96c-.0125-.0782-.40586-.5265-.15208-.35377-.32499-.45317.69305-.67933.53124-.55555.37043.12813-.0213-.0706.23263.18428-.0184-.297.35432.39242.18239.31275-.29502.60162-.20992.36085-.59962.55843l.28543-.0262" fill="#c00000"/><path d="m249.61 381.56c1.44 0 2.52-1.08 2.52-2.52 0-1.32-1.08-2.4-2.52-2.4-1.32 0-2.4 1.08-2.4 2.4 0 1.44 1.08 2.52 2.4 2.52" fill="#ed7d31"/><path d="m249.49411 383.48353c2.15365.17515 4.30051-1.45695 4.51608-3.64738.44664-2.31299-1.24465-4.87916-3.66487-5.0744-2.30415-.42574-4.71366 1.28183-5.00982 3.61865-.43577 2.19868 1.0573 4.52788 3.25786 4.99495.29481.0702.59762.10768.90075.10818zm-.12-3.96c-.0125-.0782-.40586-.5265-.15208-.35377-.32499-.45317.69305-.67933.53124-.55555.37043.12813-.0213-.0706.23263.18428-.0184-.297.35432.39242.18239.31275-.29503.60162-.20996.36085-.59962.55843l.28543-.0262" fill="#c00000"/><path d="m258.13 395c1.44 0 2.52-1.08 2.52-2.52 0-1.32-1.08-2.4-2.52-2.4-1.32 0-2.4 1.08-2.4 2.4 0 1.44 1.08 2.52 2.4 2.52" fill="#ed7d31"/><path d="m258.01411 396.92353c2.15365.17515 4.30051-1.45695 4.51608-3.64738.44664-2.31299-1.24465-4.87916-3.66487-5.0744-2.30415-.42574-4.71366 1.28183-5.00982 3.61865-.43577 2.19868 1.0573 4.52788 3.25786 4.99495.29481.0702.59762.10768.90075.10818zm-.12-3.96c-.0125-.0782-.40586-.5265-.15208-.35377-.32499-.45317.69305-.67933.53124-.55555.37043.12813-.0213-.0706.23263.18428-.0184-.297.35432.39242.18239.31275-.29498.60164-.21.36084-.59962.55843l.28543-.0262" fill="#c00000"/><path d="m266.65 408.56c1.44 0 2.52-1.08 2.52-2.52 0-1.32-1.08-2.4-2.52-2.4-1.32 0-2.4 1.08-2.4 2.4 0 1.44 1.08 2.52 2.4 2.52" fill="#ed7d31"/><path d="m266.53411 410.48353c2.15365.17515 4.30051-1.45695 4.51608-3.64738.44664-2.31299-1.24465-4.87916-3.66487-5.0744-2.30415-.42574-4.71366 1.28183-5.00982 3.61865-.43577 2.19868 1.0573 4.52788 3.25786 4.99495.29481.0702.59762.10768.90075.10818zm-.12-3.96c-.0125-.0782-.40586-.5265-.15208-.35377-.32499-.45317.69305-.67933.53124-.55555.37043.12813-.0213-.0706.23263.18428-.0184-.29699.35432.39242.18235.31275-.2949.60165-.20998.36084-.59958.55843l.28543-.0262" fill="#c00000"/><path d="m275.17 422c1.44 0 2.52-1.08 2.52-2.52 0-1.32-1.08-2.4-2.52-2.4-1.32 0-2.4 1.08-2.4 2.4 0 1.44 1.08 2.52 2.4 2.52" fill="#ed7d31"/><path d="m275.05411 423.92353c2.15365.17515 4.30051-1.45695 4.51608-3.64738.44664-2.31299-1.24465-4.87916-3.66487-5.0744-2.30415-.42574-4.71366 1.28183-5.00982 3.61865-.43577 2.19868 1.0573 4.52788 3.25786 4.99495.29481.0702.59762.10768.90075.10818zm-.12-3.96c-.0125-.0782-.40586-.5265-.15208-.35377-.32499-.45317.69305-.67933.53124-.55555.37043.12813-.0213-.0706.23263.18428-.0184-.297.35432.39242.18239.31275-.29503.60162-.20996.36085-.59962.55843l.28543-.0262" fill="#c00000"/><path d="m283.69 435.44c1.44 0 2.52-1.08 2.52-2.52 0-1.32-1.08-2.4-2.52-2.4-1.32 0-2.4 1.08-2.4 2.4 0 1.44 1.08 2.52 2.4 2.52" fill="#ed7d31"/><path d="m283.57411 437.36353c2.15365.17515 4.30051-1.45695 4.51608-3.64738.44664-2.31299-1.24465-4.87916-3.66487-5.0744-2.30415-.42574-4.71366 1.28183-5.00982 3.61865-.43577 2.19868 1.0573 4.52788 3.25786 4.99495.29481.0702.59762.10768.90075.10818zm-.12-3.96c-.0125-.0782-.40586-.5265-.15208-.35377-.32499-.45317.69305-.67933.53124-.55554.37043.12812-.0213-.0706.23263.18427-.0184-.297.35432.39242.18239.31275-.29498.60164-.21.36084-.59962.55843l.28543-.0262" fill="#c00000"/><path d="m292.21 449c1.44 0 2.52-1.08 2.52-2.52 0-1.32-1.08-2.4-2.52-2.4-1.32 0-2.4 1.08-2.4 2.4 0 1.44 1.08 2.52 2.4 2.52" fill="#ed7d31"/><path d="m292.09411 450.92353c2.15365.17515 4.30051-1.45695 4.51608-3.64738.44664-2.31299-1.24465-4.87916-3.66487-5.0744-2.30415-.42574-4.71366 1.28183-5.00982 3.61865-.43577 2.19868 1.0573 4.52788 3.25786 4.99495.29481.0702.59762.10768.90075.10818zm-.12-3.96c-.0125-.0782-.40586-.5265-.15208-.35377-.32499-.45317.69305-.67933.53124-.55555.37043.12813-.0213-.0706.23263.18428-.0184-.29699.35432.39242.18235.31275-.2949.60165-.20998.36084-.59958.55843l.28543-.0262" fill="#c00000"/><path d="m300.73 462.44c1.44 0 2.52-1.08 2.52-2.52 0-1.32-1.08-2.4-2.52-2.4-1.32 0-2.4 1.08-2.4 2.4 0 1.44 1.08 2.52 2.4 2.52" fill="#ed7d31"/><path d="m300.61411 464.36353c2.15365.17515 4.30051-1.45695 4.51608-3.64738.44664-2.31299-1.24465-4.87916-3.66487-5.0744-2.30415-.42574-4.71366 1.28183-5.00982 3.61865-.43577 2.19868 1.0573 4.52788 3.25786 4.99495.29481.0702.59762.10768.90075.10818zm-.12-3.96c-.0125-.0782-.40586-.5265-.15208-.35377-.32499-.45317.69305-.67933.53124-.55554.37043.12812-.0213-.0706.23263.18427-.0184-.297.35432.39242.18239.31275-.29502.60162-.20992.36085-.59962.55843l.28543-.0262" fill="#c00000"/><path d="m309.25 476c1.44 0 2.52-1.08 2.52-2.52 0-1.32-1.08-2.4-2.52-2.4-1.32 0-2.4 1.08-2.4 2.4 0 1.44 1.08 2.52 2.4 2.52" fill="#ed7d31"/><path d="m309.13411 477.92353c2.15365.17515 4.30051-1.45695 4.51608-3.64738.44664-2.31299-1.24465-4.87916-3.66487-5.0744-2.30415-.42574-4.71366 1.28183-5.00982 3.61865-.43577 2.19868 1.0573 4.52788 3.25786 4.99495.29481.0702.59762.10768.90075.10818zm-.12-3.96c-.0125-.0782-.40586-.5265-.15208-.35377-.32499-.45317.69305-.67933.53124-.55555.37043.12813-.0213-.0706.23263.18428-.0184-.297.35432.39242.18239.31275-.29498.60164-.21.36084-.59962.55843l.28543-.0262" fill="#c00000"/><path d="m317.77 489.44c1.44 0 2.52-1.08 2.52-2.52 0-1.32-1.08-2.4-2.52-2.4-1.32 0-2.4 1.08-2.4 2.4 0 1.44 1.08 2.52 2.4 2.52" fill="#ed7d31"/><path d="m317.65411 491.36353c2.15365.17515 4.30051-1.45695 4.51608-3.64738.44664-2.31299-1.24465-4.87916-3.66487-5.0744-2.30415-.42574-4.71366 1.28183-5.00982 3.61865-.43577 2.19868 1.0573 4.52788 3.25786 4.99495.29481.0702.59762.10768.90075.10818zm-.12-3.96c-.0125-.0782-.40586-.5265-.15208-.35377-.32499-.45317.69305-.67933.53124-.55554.37043.12812-.0213-.0706.23263.18427-.0184-.29699.35432.39242.18235.31275-.2949.60165-.20998.36084-.59958.55843l.28543-.0262" fill="#c00000"/><path d="m326.29 503c1.44 0 2.52-1.08 2.52-2.52 0-1.32-1.08-2.4-2.52-2.4-1.32 0-2.4 1.08-2.4 2.4 0 1.44 1.08 2.52 2.4 2.52" fill="#ed7d31"/><path d="m326.17411 504.92353c2.15365.17515 4.30051-1.45695 4.51608-3.64738.44664-2.31299-1.24465-4.87916-3.66487-5.0744-2.30415-.42574-4.71366 1.28183-5.00982 3.61865-.43577 2.19868 1.0573 4.52788 3.25786 4.99495.29481.0702.59762.10768.90075.10818zm-.12-3.96c-.0125-.0782-.40586-.5265-.15208-.35377-.32499-.45317.69305-.67933.53124-.55555.37043.12813-.0213-.0706.23263.18428-.0184-.297.35432.39242.18239.31275-.29502.60162-.20992.36085-.59962.55843l.28543-.0262" fill="#c00000"/><path d="m334.81 516.44c1.44 0 2.52-1.08 2.52-2.52 0-1.32-1.08-2.4-2.52-2.4-1.32 0-2.4 1.08-2.4 2.4 0 1.44 1.08 2.52 2.4 2.52" fill="#ed7d31"/><path d="m334.69411 518.36353c2.15365.17515 4.30051-1.45695 4.51608-3.64738.44664-2.31299-1.24465-4.87916-3.66487-5.0744-2.30415-.42574-4.71366 1.28183-5.00982 3.61865-.43577 2.19868 1.0573 4.52788 3.25786 4.99495.29481.0702.59762.10768.90075.10818zm-.12-3.96c-.0125-.0782-.40586-.5265-.15208-.35377-.32499-.45317.69305-.67933.53124-.55555.37043.12813-.0213-.0706.23263.18428-.0184-.297.35432.39242.18239.31275-.29499.60164-.20999.36084-.59962.55843l.28543-.0262" fill="#c00000"/><path d="m343.33 530c1.44 0 2.52-1.08 2.52-2.52 0-1.32-1.08-2.4-2.52-2.4-1.32 0-2.4 1.08-2.4 2.4 0 1.44 1.08 2.52 2.4 2.52" fill="#ed7d31"/><path d="m343.21411 531.92353c2.15365.17515 4.30051-1.45695 4.51608-3.64738.44664-2.31299-1.24465-4.87916-3.66487-5.0744-2.30415-.42574-4.71366 1.28183-5.00982 3.61865-.43577 2.19868 1.0573 4.52788 3.25786 4.99495.29481.0702.59762.10768.90075.10818zm-.12-3.96c-.0125-.0782-.40586-.5265-.15208-.35377-.325-.45316.69304-.67938.53124-.55544.37043.12812-.0213-.0706.23263.18427-.0184-.297.35432.39242.18235.31275-.2949.60164-.20998.36084-.59958.55843l.28543-.0262" fill="#c00000"/><path d="m351.73 543.44c1.44 0 2.52-1.08 2.52-2.52 0-1.32-1.08-2.4-2.52-2.4-1.32 0-2.4 1.08-2.4 2.4 0 1.44 1.08 2.52 2.4 2.52" fill="#ed7d31"/><path d="m351.61411 545.36353c2.15365.17515 4.30051-1.45695 4.51608-3.64738.44664-2.31299-1.24465-4.87916-3.66487-5.0744-2.30415-.42574-4.71367 1.28182-5.00982 3.61864-.43577 2.19869 1.0573 4.52789 3.25786 4.99496.29481.0702.59762.10768.90075.10818zm-.12-3.96c-.0125-.0782-.40586-.5265-.15208-.35377-.32499-.45317.69305-.67933.53124-.55555.37043.12813-.0213-.0706.23263.18428-.0184-.297.35432.39242.18239.31275-.29502.60162-.20992.36085-.59962.55843l.28543-.0262" fill="#c00000"/><path d="m360.25 556.88c1.44 0 2.52-1.08 2.52-2.52 0-1.32-1.08-2.4-2.52-2.4-1.32 0-2.4 1.08-2.4 2.4 0 1.44 1.08 2.52 2.4 2.52" fill="#ed7d31"/><path d="m360.13411 558.80353c2.15365.17515 4.30051-1.45695 4.51608-3.64738.44664-2.31299-1.24465-4.87916-3.66487-5.0744-2.30415-.42574-4.71367 1.28182-5.00982 3.61864-.43577 2.19869 1.0573 4.52789 3.25786 4.99496.29481.0702.59762.10768.90075.10818zm-.12-3.96c-.0125-.0782-.40586-.5265-.15208-.35377-.325-.45316.69304-.67938.53124-.55545.37043.12813-.0213-.0706.23263.18428-.0184-.297.35432.39242.18239.31275-.29499.60164-.20999.36084-.59962.55843l.28543-.0262" fill="#c00000"/><path d="m368.77 570.44c1.44 0 2.52-1.08 2.52-2.52 0-1.32-1.08-2.4-2.52-2.4-1.32 0-2.4 1.08-2.4 2.4 0 1.44 1.08 2.52 2.4 2.52" fill="#ed7d31"/><path d="m368.65411 572.36353c2.15365.17515 4.30051-1.45695 4.51608-3.64738.44664-2.31299-1.24465-4.87916-3.66487-5.0744-2.30415-.42574-4.71367 1.28182-5.00982 3.61864-.43577 2.19869 1.0573 4.52789 3.25786 4.99496.29481.0702.59762.10768.90075.10818zm-.12-3.96c-.0125-.0782-.40586-.5265-.15208-.35377-.32499-.45317.69305-.67933.53124-.55555.37043.12813-.0213-.0706.23263.18428-.0184-.297.35432.39242.18235.31275-.2949.60164-.20998.36084-.59958.55843l.28543-.0262" fill="#c00000"/><path d="m377.29 583.88c1.44 0 2.52-1.08 2.52-2.52 0-1.32-1.08-2.4-2.52-2.4-1.32 0-2.4 1.08-2.4 2.4 0 1.44 1.08 2.52 2.4 2.52" fill="#ed7d31"/><path d="m377.17411 585.80353c2.15365.17515 4.30051-1.45695 4.51608-3.64738.44664-2.31299-1.24465-4.87916-3.66487-5.0744-2.30415-.42574-4.71367 1.28182-5.00982 3.61864-.43577 2.19869 1.0573 4.52789 3.25786 4.99496.29481.0702.59762.10768.90075.10818zm-.12-3.96c-.0125-.0782-.40586-.5265-.15208-.35377-.325-.45316.69304-.67938.53124-.55545.37043.12813-.0213-.0706.23263.18428-.0184-.297.35432.39242.18239.31275-.29502.60162-.20992.36085-.59962.55843l.28543-.0262" fill="#c00000"/><path d="m385.81 597.44c1.44 0 2.52-1.08 2.52-2.52 0-1.32-1.08-2.4-2.52-2.4-1.32 0-2.4 1.08-2.4 2.4 0 1.44 1.08 2.52 2.4 2.52" fill="#ed7d31"/><path d="m385.69411 599.36353c2.15365.17515 4.30051-1.45695 4.51608-3.64738.44664-2.31299-1.24465-4.87916-3.66487-5.0744-2.30415-.42574-4.71367 1.28182-5.00982 3.61864-.43577 2.19869 1.0573 4.52789 3.25786 4.99496.29481.0702.59762.10768.90075.10818zm-.12-3.96c-.0125-.0782-.40586-.5265-.15208-.35377-.32499-.45317.69305-.67933.53124-.55555.37043.12813-.0213-.0706.23263.18428-.0184-.297.35432.39242.18239.31275-.29499.60164-.20999.36084-.59962.55843l.28543-.0262" fill="#c00000"/><path d="m394.33 610.88c1.44 0 2.52-1.08 2.52-2.52 0-1.32-1.08-2.4-2.52-2.4-1.32 0-2.4 1.08-2.4 2.4 0 1.44 1.08 2.52 2.4 2.52" fill="#ed7d31"/><path d="m394.21411 612.80353c2.15365.17515 4.30051-1.45695 4.51608-3.64738.44664-2.31299-1.24465-4.87916-3.66487-5.0744-2.30415-.42574-4.71367 1.28182-5.00982 3.61864-.43577 2.19869 1.0573 4.52789 3.25786 4.99496.29481.0702.59762.10768.90075.10818zm-.12-3.96c-.0125-.0782-.40586-.5265-.15208-.35377-.325-.45316.69304-.67938.53124-.55545.37043.12813-.0213-.0706.23263.18428-.0184-.297.35432.39242.18235.31275-.2949.60164-.20998.36084-.59958.55843l.28543-.0262" fill="#c00000"/><path d="m402.85 624.44c1.44 0 2.52-1.08 2.52-2.52 0-1.32-1.08-2.4-2.52-2.4-1.32 0-2.4 1.08-2.4 2.4 0 1.44 1.08 2.52 2.4 2.52" fill="#ed7d31"/><path d="m402.73411 626.36353c2.15365.17515 4.30051-1.45695 4.51608-3.64738.44664-2.31299-1.24465-4.87916-3.66487-5.0744-2.30415-.42574-4.71367 1.28182-5.00982 3.61864-.43577 2.19869 1.0573 4.52789 3.25786 4.99496.29481.0702.59762.10768.90075.10818zm-.12-3.96c-.0125-.0782-.40586-.5265-.15208-.35377-.32499-.45317.69305-.67933.53124-.55555.37043.12813-.0213-.0706.23263.18428-.0184-.297.35432.39242.18239.31275-.29502.60162-.20992.36085-.59962.55843l.28543-.0262" fill="#c00000"/><path d="m411.37 637.88c1.44 0 2.52-1.08 2.52-2.52 0-1.32-1.08-2.4-2.52-2.4-1.32 0-2.4 1.08-2.4 2.4 0 1.44 1.08 2.52 2.4 2.52" fill="#ed7d31"/><path d="m411.25411 639.80353c2.15365.17515 4.30051-1.45695 4.51608-3.64738.44664-2.31299-1.24465-4.87916-3.66487-5.0744-2.30415-.42574-4.71367 1.28182-5.00982 3.61864-.43577 2.19869 1.0573 4.52789 3.25786 4.99496.29481.0702.59762.10768.90075.10818zm-.12-3.96c-.0125-.0782-.40586-.5265-.15208-.35377-.325-.45316.69304-.67938.53124-.55545.37043.12813-.0213-.0706.23263.18428-.0184-.297.35432.39242.18239.31275-.29499.60164-.20999.36084-.59962.55843l.28543-.0262" fill="#c00000"/><path d="m419.89 651.32c1.44 0 2.52-1.08 2.52-2.52 0-1.32-1.08-2.4-2.52-2.4-1.32 0-2.4 1.08-2.4 2.4 0 1.44 1.08 2.52 2.4 2.52" fill="#ed7d31"/><path d="m419.77411 653.24353c2.15365.17515 4.30051-1.45695 4.51608-3.64738.44664-2.31299-1.24465-4.87916-3.66487-5.0744-2.30415-.42574-4.71367 1.28182-5.00982 3.61864-.43577 2.19869 1.0573 4.52789 3.25786 4.99496.29481.0702.59762.10768.90075.10818zm-.12-3.96c-.0125-.0782-.40586-.5265-.15208-.35377-.32499-.45317.69305-.67933.53124-.55554.37043.12812-.0213-.0706.23263.18427-.0184-.297.35432.39242.18235.31275-.2949.60164-.20998.36084-.59958.55843l.28543-.0262" fill="#c00000"/><path d="m428.41 664.88c1.44 0 2.52-1.08 2.52-2.52 0-1.32-1.08-2.4-2.52-2.4-1.32 0-2.4 1.08-2.4 2.4 0 1.44 1.08 2.52 2.4 2.52" fill="#ed7d31"/><path d="m428.29411 666.80353c2.15365.17515 4.30051-1.45695 4.51608-3.64738.44664-2.31299-1.24465-4.87916-3.66487-5.0744-2.30415-.42574-4.71367 1.28182-5.00982 3.61864-.43577 2.19869 1.0573 4.52789 3.25786 4.99496.29481.0702.59762.10768.90075.10818zm-.12-3.96c-.0125-.0782-.40586-.5265-.15208-.35377-.325-.45316.69304-.67938.53124-.55545.37043.12813-.0213-.0706.23263.18428-.0184-.297.35432.39242.18239.31275-.29502.60162-.20992.36085-.59962.55843l.28543-.0262" fill="#c00000"/><path d="m436.93 678.32c1.44 0 2.52-1.08 2.52-2.52 0-1.32-1.08-2.4-2.52-2.4-1.32 0-2.4 1.08-2.4 2.4 0 1.44 1.08 2.52 2.4 2.52" fill="#ed7d31"/><path d="m436.81411 680.24353c2.15365.17515 4.30051-1.45695 4.51608-3.64738.44664-2.31299-1.24465-4.87916-3.66487-5.0744-2.30415-.42574-4.71367 1.28182-5.00982 3.61864-.43577 2.19869 1.0573 4.52789 3.25786 4.99496.29481.0702.59762.10768.90075.10818zm-.12-3.96c-.0125-.0782-.40586-.5265-.15208-.35377-.32499-.45317.69305-.67933.53124-.55554.37043.12812-.0213-.0706.23263.18427-.0184-.297.35432.39242.18239.31275-.29499.60164-.20999.36084-.59962.55843l.28543-.0262" fill="#c00000"/><path d="m445.33 691.88c1.44 0 2.52-1.08 2.52-2.52 0-1.32-1.08-2.4-2.52-2.4-1.32 0-2.4 1.08-2.4 2.4 0 1.44 1.08 2.52 2.4 2.52" fill="#ed7d31"/><path d="m445.21411 693.80353c2.15365.17515 4.30051-1.45695 4.51608-3.64738.44664-2.31299-1.24465-4.87916-3.66487-5.0744-2.30415-.42574-4.71367 1.28182-5.00982 3.61864-.43577 2.19869 1.0573 4.52789 3.25786 4.99496.29481.0702.59762.10768.90075.10818zm-.12-3.96c-.0125-.0782-.40586-.5265-.15208-.35377-.325-.45316.69304-.67938.53124-.55545.37043.12813-.0213-.0706.23263.18428-.0184-.297.35432.39242.18235.31275-.2949.60164-.20998.36084-.59958.55843l.28543-.0262" fill="#c00000"/><path d="m453.85 705.32c1.44 0 2.52-1.08 2.52-2.52 0-1.32-1.08-2.4-2.52-2.4-1.32 0-2.4 1.08-2.4 2.4 0 1.44 1.08 2.52 2.4 2.52" fill="#ed7d31"/><path d="m453.73411 707.24353c2.15365.17515 4.30051-1.45695 4.51608-3.64738.44664-2.31299-1.24465-4.87916-3.66487-5.0744-2.30415-.42574-4.71367 1.28182-5.00982 3.61864-.43577 2.19869 1.0573 4.52789 3.25786 4.99496.29481.0702.59762.10768.90075.10818zm-.12-3.96c-.0125-.0782-.40586-.5265-.15208-.35377-.32499-.45317.69305-.67933.53124-.55554.37043.12812-.0213-.0706.23263.18427-.0184-.297.35432.39242.18239.31275-.29502.60162-.20992.36085-.59962.55843l.28543-.0262" fill="#c00000"/><path d="m462.37 718.88c1.44 0 2.52-1.08 2.52-2.52 0-1.32-1.08-2.4-2.52-2.4-1.32 0-2.4 1.08-2.4 2.4 0 1.44 1.08 2.52 2.4 2.52" fill="#ed7d31"/><path d="m462.25411 720.80353c2.15365.17515 4.30051-1.45695 4.51608-3.64738.44664-2.31299-1.24465-4.87916-3.66487-5.0744-2.30415-.42574-4.71367 1.28182-5.00982 3.61864-.43577 2.19869 1.0573 4.52789 3.25786 4.99496.29481.0702.59762.10768.90075.10818zm-.12-3.96c-.0125-.0782-.40586-.5265-.15208-.35377-.325-.45316.69304-.67938.53124-.55545.37043.12813-.0213-.0706.23263.18428-.0184-.297.35432.39242.18239.31275-.29499.60164-.20999.36084-.59962.55843l.28543-.0262" fill="#c00000"/><path d="m470.89 732.32c1.44 0 2.52-1.08 2.52-2.52 0-1.32-1.08-2.4-2.52-2.4-1.32 0-2.4 1.08-2.4 2.4 0 1.44 1.08 2.52 2.4 2.52" fill="#ed7d31"/><path d="m470.77411 734.24353c2.15365.17515 4.30051-1.45695 4.51608-3.64738.44664-2.31299-1.24465-4.87916-3.66487-5.0744-2.30415-.42574-4.71367 1.28182-5.00982 3.61864-.43577 2.19869 1.0573 4.52789 3.25786 4.99496.29481.0702.59762.10768.90075.10818zm-.12-3.96c-.0125-.0782-.40586-.5265-.15208-.35377-.32499-.45317.69305-.67933.53124-.55554.37043.12812-.0213-.0706.23263.18427-.0184-.297.35432.39242.18235.31275-.2949.60164-.20998.36084-.59958.55843l.28543-.0262" fill="#c00000"/><path d="m479.41 745.76c1.44 0 2.52-1.08 2.52-2.52 0-1.32-1.08-2.4-2.52-2.4-1.32 0-2.4 1.08-2.4 2.4 0 1.44 1.08 2.52 2.4 2.52" fill="#ed7d31"/><path d="m479.29411 747.68353c2.15365.17515 4.30051-1.45695 4.51608-3.64738.44664-2.31299-1.24465-4.87916-3.66487-5.0744-2.30415-.42574-4.71366 1.28183-5.00982 3.61865-.43577 2.19868 1.0573 4.52788 3.25786 4.99495.29481.0702.59762.10768.90075.10818zm-.12-3.96c-.0125-.0782-.40586-.5265-.15208-.35377-.325-.45316.69304-.67938.53124-.55544.37043.12812-.0213-.0706.23263.18427-.0184-.297.35432.39242.18239.31275-.29502.60162-.20992.36085-.59962.55843l.28543-.0262" fill="#c00000"/><path d="m487.93 759.32c1.44 0 2.52-1.08 2.52-2.52 0-1.32-1.08-2.4-2.52-2.4-1.32 0-2.4 1.08-2.4 2.4 0 1.44 1.08 2.52 2.4 2.52" fill="#ed7d31"/><path d="m487.81411 761.24353c2.15365.17515 4.30051-1.45695 4.51608-3.64738.44664-2.31299-1.24465-4.87916-3.66487-5.0744-2.30415-.42574-4.71367 1.28182-5.00982 3.61864-.43577 2.19869 1.0573 4.52789 3.25786 4.99496.29481.0702.59762.10768.90075.10818zm-.12-3.96c-.0125-.0782-.40586-.5265-.15208-.35377-.32499-.45317.69305-.67933.53124-.55554.37043.12812-.0213-.0706.23263.18427-.0184-.297.35432.39242.18239.31275-.29499.60164-.20999.36084-.59962.55843l.28543-.0262" fill="#c00000"/><path d="m496.45 772.76c1.44 0 2.52-1.08 2.52-2.52 0-1.32-1.08-2.4-2.52-2.4-1.32 0-2.4 1.08-2.4 2.4 0 1.44 1.08 2.52 2.4 2.52" fill="#ed7d31"/><path d="m496.33411 774.68353c2.15365.17515 4.30051-1.45695 4.51608-3.64738.44664-2.31299-1.24465-4.87916-3.66487-5.0744-2.30415-.42574-4.71366 1.28183-5.00982 3.61865-.43577 2.19868 1.0573 4.52788 3.25786 4.99495.29481.0702.59762.10768.90075.10818zm-.12-3.96c-.0125-.0782-.40586-.5265-.15208-.35377-.325-.45316.69304-.67938.53124-.55544.37043.12812-.0213-.0706.23263.18427-.0184-.297.35432.39242.18239.31275-.29499.60164-.20999.36084-.59962.55843l.28543-.0262" fill="#c00000"/><text font-family="Calibri" font-size="30" font-weight="bold" transform="matrix(0 1 1 0 0 0)" x="331.96942" y="119.53412"><tspan font-size="30" x="331.96942" y="119.53412">OneMax (50 bit)</tspan></text><path d="m173.65 684.92c1.44 0 2.52-1.08 2.52-2.52 0-1.32-1.08-2.4-2.52-2.4-1.32 0-2.4 1.08-2.4 2.4 0 1.44 1.08 2.52 2.4 2.52" fill="#ed7d31"/><path d="m173.53411 686.96353c1.88009-.0825 3.87645-1.15731 4.37483-3.08664.88944-2.30178-.59454-5.10019-2.98104-5.69104-2.54125-.86412-5.45619 1.15807-5.66153 3.80919-.22199 2.07475 1.15949 4.247 3.2353 4.73262.33616.11422.68976.15075 1.03244.23587zm-.12-4.08c.77165.25483-.56036-.27604.24.12-.62912-.4149-.33275-.94324-.27313-.80499.63592-.52865-.57284.16991.29759-.179.45791.0624.57613.2411.45851.49728-.0158.42038-.58584.52875-.24298.36707" fill="#c00000"/><g transform="matrix(0 1 1 0 0 0)"><text fill="#c00000" font-family="Calibri" font-size="20.04" font-weight="bold" x="693.08417" y="179.5341"><tspan x="693.08417" y="179.5341">f<tspan baseline-shift="sub" fill="#c00000" font-size="65%">1</tspan>(x)</tspan></text><text x="419.48413" y="462.73413"><tspan x="419.48413" y="462.73413"/></text><g font-weight="bold"><text font-family="Calibri" font-size="20.04" x="56.96373" y="77.385117"><tspan x="56.96373" y="77.385117">50</tspan></text><g font-size="20"><text font-family="Calibri" x="90.710526" y="520.16351"><tspan x="90.710526" y="520.16351">0</tspan></text><text font-family="Calibri" x="67.1399" y="502.78748"><tspan x="67.1399" y="502.78748">0</tspan></text><g font-family="Ubuntu" stroke-width=".75"><text x="218.99355" y="520.10815"><tspan font-size="20" stroke-width=".75" x="218.99355" y="520.10815">10</tspan></text><text x="354.35355" y="520.10815"><tspan font-size="20" stroke-width=".75" x="354.35355" y="520.10815">20</tspan></text><text x="489.30353" y="520.08813"><tspan font-size="20" stroke-width=".75" x="489.30353" y="520.08813">30</tspan></text><text x="624.27356" y="520.10815"><tspan font-size="20" stroke-width=".75" x="624.27356" y="520.10815">40</tspan></text><text x="759.02356" y="520.08813"><tspan font-size="20" stroke-width=".75" x="759.02356" y="520.08813">50</tspan></text><text x="54.929764" y="418.38412"><tspan font-size="20" stroke-width=".75" x="54.929764" y="418.38412">10</tspan></text><text x="54.929764" y="333.30414"><tspan font-size="20" stroke-width=".75" x="54.929764" y="333.30414">20</tspan></text><text x="54.929764" y="248.21411"><tspan font-size="20" stroke-width=".75" x="54.929764" y="248.21411">30</tspan></text><text x="54.929764" y="163.1441"><tspan font-size="20" stroke-width=".75" x="54.929764" y="163.1441">40</tspan></text></g></g><text font-family="Calibri" font-size="30" x="471.49246" y="546.95294"><tspan font-size="30" x="471.49246" y="546.95294">number of bits that are 1</tspan></text></g></g><text font-family="Calibri" font-size="30" font-weight="bold" transform="scale(-1 1)" x="-118.33353" y="77.52639"><tspan font-size="30" x="-118.33353" y="77.52639">f</tspan></text></g></svg>