<svg height="90.092pt" viewBox="0 0 141.02 90.092" width="141.02pt" xmlns="http://www.w3.org/2000/svg" xmlns:xlink="http://www.w3.org/1999/xlink"><symbol id="a" overflow="visible"><path d="m1.5-2.234375c0-.140625 0-.140625.09375-.234375.28125-.28125.640625-.328125.78125-.328125.453125 0 .84375.421875.84375 1.28125 0 .953125-.484375 1.3125-.921875 1.3125-.09375 0-.421875 0-.71875-.375-.078125-.078125-.078125-.09375-.078125-.21875zm0 1.96875c.296875.234375.59375.3125.875.3125 1.015625 0 1.71875-.625 1.71875-1.5625 0-.90625-.625-1.546875-1.609375-1.546875-.515625 0-.875.203125-1.03125.328125v-.328125l-1.203125.046875v.328125c.421875 0 .46875 0 .46875.25v3.4375h-.46875v.328125c.1875-.015625.609375-.03125.859375-.03125.265625 0 .671875.015625.859375.03125v-.328125h-.46875zm0 0"/></symbol><symbol id="b" overflow="visible"><path d="m1.390625-2.296875v-.765625l-1.140625.046875v.328125c.421875 0 .46875 0 .46875.265625v2.109375h-.46875v.3125c.234375 0 .546875-.015625.859375-.015625.265625 0 .703125 0 .9375.015625v-.3125h-.59375v-1.203125c0-.46875.171875-1.3125.859375-1.3125-.015625.015625-.125.125-.125.328125 0 .265625.203125.40625.40625.40625s.421875-.140625.421875-.40625c0-.375-.375-.5625-.734375-.5625-.46875 0-.734375.34375-.890625.765625zm0 0"/></symbol><symbol id="c" overflow="visible"><path d="m3.6875-1.4844c0-.90625-.625-1.6094-1.7344-1.6094s-1.7344.70312-1.7344 1.6094c0 .84375.59375 1.5312 1.7344 1.5312s1.7344-.6875 1.7344-1.5312zm-1.7344 1.25c-.85938 0-.85938-.73438-.85938-1.3281 0-.29688 0-.65625.10938-.89062.125-.25.42188-.39062.75-.39062.28125 0 .57812.10938.71875.34375.15625.23438.15625.60938.15625.9375 0 .59375 0 1.3281-.875 1.3281z"/></symbol><symbol id="d" overflow="visible"><path d="m2.453125-2.765625c-.125.109375-.140625.25-.140625.3125 0 .296875.25.421875.421875.421875.21875 0 .4375-.140625.4375-.421875 0-.59375-.796875-.640625-1.1875-.640625-1.21875 0-1.71875.796875-1.71875 1.578125 0 .90625.640625 1.5625 1.6875 1.5625 1.09375 0 1.296875-.796875 1.296875-.84375 0-.09375-.09375-.09375-.15625-.09375-.125 0-.125.015625-.171875.09375-.171875.4375-.5.5625-.84375.5625-.953125 0-.953125-1-.953125-1.3125 0-.375 0-1.265625.890625-1.265625.234375 0 .34375.015625.4375.046875zm0 0"/></symbol><symbol id="e" overflow="visible"><path d="m3.140625-1.484375c.15625 0 .21875 0 .21875-.1875 0-.203125-.03125-.703125-.375-1.046875-.25-.25-.609375-.375-1.078125-.375-1.09375 0-1.6875.703125-1.6875 1.5625 0 .90625.6875 1.578125 1.78125 1.578125 1.078125 0 1.359375-.734375 1.359375-.84375 0-.125-.125-.125-.15625-.125-.109375 0-.125.03125-.171875.140625-.140625.328125-.53125.546875-.96875.546875-.96875 0-.96875-.90625-.96875-1.25zm-2.046875-.21875c.015625-.265625.015625-.5625.15625-.78125.1875-.28125.453125-.359375.65625-.359375.796875 0 .8125.890625.8125 1.140625zm0 0"/></symbol><symbol id="f" overflow="visible"><path d="m2.84375-.296875v.34375l1.25-.046875v-.3125c-.421875 0-.46875 0-.46875-.265625v-4.15625l-1.203125.0625v.3125c.421875 0 .46875 0 .46875.265625v1.328125c-.34375-.265625-.703125-.296875-.921875-.296875-1 0-1.703125.59375-1.703125 1.5625 0 .890625.625 1.546875 1.625 1.546875.421875 0 .75-.171875.953125-.34375zm0-2.109375v1.703125c-.078125.125-.359375.5-.875.5-.84375 0-.84375-.828125-.84375-1.296875 0-.328125 0-.703125.1875-.96875.1875-.28125.515625-.359375.71875-.359375.390625 0 .671875.21875.8125.421875zm0 0"/></symbol><symbol id="g" overflow="visible"><path d="m2.984375-.484375v.53125l1.203125-.046875v-.3125c-.421875 0-.46875 0-.46875-.265625v-2.484375l-1.25.046875v.328125c.421875 0 .46875 0 .46875.265625v1.296875c0 .5625-.34375.921875-.84375.921875-.515625 0-.546875-.171875-.546875-.546875v-2.3125l-1.234375.046875v.328125c.421875 0 .46875 0 .46875.265625v1.578125c0 .734375.546875.890625 1.21875.890625.1875 0 .671875 0 .984375-.53125zm0 0"/></symbol><symbol id="h" overflow="visible"><path d="m5.015625-2.5625c.046875-.09375.0625-.140625.46875-.140625v-.328125c-.15625.015625-.359375.03125-.53125.03125s-.5-.015625-.640625-.03125v.328125c.046875 0 .390625 0 .390625.078125 0 .015625-.015625.0625-.03125.078125l-.71875 1.75-.765625-1.90625h.375v-.328125c-.21875.015625-.578125.03125-.78125.03125-.28125 0-.5625-.015625-.671875-.03125v.328125h.390625c.15625.34375.15625.359375.15625.359375 0 .03125-.03125.0625-.03125.09375l-.546875 1.296875-.703125-1.75h.375v-.328125c-.28125.015625-.5625.03125-.84375.03125-.203125 0-.5-.015625-.734375-.03125v.328125h.40625l1.03125 2.546875c.046875.109375.078125.1875.25.1875s.203125-.078125.25-.1875l.71875-1.765625.71875 1.765625c.046875.109375.078125.1875.25.1875s.1875-.078125.25-.1875zm0 0"/></symbol><symbol id="i" overflow="visible"><path d="m.78125-.3125h-.46875v.3125c.1875 0 .59375-.015625.859375-.015625s.65625.015625.84375.015625v-.3125h-.46875v-1.4375c0-.734375.59375-1.078125 1.015625-1.078125.234375 0 .375.15625.375.671875v1.84375h-.46875v.3125c.1875 0 .609375-.015625.859375-.015625.265625 0 .671875.015625.859375.015625v-.3125h-.46875v-1.765625c0-.71875-.359375-.984375-1.046875-.984375-.65625 0-1 .390625-1.15625.671875v-2.34375l-1.203125.0625v.3125c.421875 0 .46875 0 .46875.265625zm0 0"/></symbol><symbol id="j" overflow="visible"><path d="m1.53125-3.0625-1.1875.046875v.328125c.40625 0 .453125 0 .453125.265625v2.109375h-.484375v.3125c.21875 0 .546875-.015625.84375-.015625.203125 0 .546875.015625.796875.015625v-.3125h-.421875zm.0625-1.140625c0-.296875-.25-.53125-.53125-.53125-.296875 0-.53125.234375-.53125.53125s.234375.53125.53125.53125c.28125 0 .53125-.234375.53125-.53125zm0 0"/></symbol><symbol id="k" overflow="visible"><path d="m1.53125-4.734375-1.21875.0625v.3125c.4375 0 .484375 0 .484375.265625v3.78125h-.484375v.3125c.21875 0 .546875-.015625.84375-.015625s.609375.015625.84375.015625v-.3125h-.46875zm0 0"/></symbol><symbol id="l" overflow="visible"><path d="m.796875-3.03125h-.515625v.328125h.515625v2.390625h-.46875v.3125c.234375 0 .546875-.015625.859375-.015625.25 0 .6875 0 .9375.015625v-.3125h-.59375v-2.390625h.78125v-.328125h-.828125v-.6875c0-.75.53125-.8125.703125-.8125.03125 0 .0625 0 .109375.015625-.109375.078125-.15625.203125-.15625.34375 0 .28125.234375.421875.421875.421875.203125 0 .421875-.140625.421875-.421875 0-.296875-.25-.59375-.78125-.59375-.671875 0-1.40625.28125-1.40625 1.046875zm0 0"/></symbol><symbol id="m" overflow="visible"><path d="m.703125-2.703125v1.859375c0 .734375.59375.890625 1.078125.890625.515625 0 .828125-.390625.828125-.890625v-.359375h-.328125v.34375c0 .46875-.21875.625-.40625.625-.390625 0-.390625-.4375-.390625-.59375v-1.875h.984375v-.328125h-.984375v-1.296875h-.328125c0 .6875-.34375 1.359375-1.015625 1.375v.25zm0 0"/></symbol><symbol id="n" overflow="visible"><path d="m.78125-2.421875v2.109375h-.46875v.3125c.1875 0 .59375-.015625.859375-.015625s.65625.015625.84375.015625v-.3125h-.46875v-1.4375c0-.734375.59375-1.078125 1.015625-1.078125.234375 0 .375.15625.375.671875v1.84375h-.46875v.3125c.1875 0 .609375-.015625.859375-.015625.265625 0 .671875.015625.859375.015625v-.3125h-.46875v-1.765625c0-.71875-.359375-.984375-1.046875-.984375-.65625 0-1.015625.390625-1.1875.734375v-.734375l-1.171875.046875v.328125c.421875 0 .46875 0 .46875.265625zm0 0"/></symbol><symbol id="o" overflow="visible"><path d="m2.25 1.640625c0-.03125 0-.046875-.109375-.15625-.859375-.859375-1.078125-2.140625-1.078125-3.1875 0-1.1875.265625-2.375 1.109375-3.21875.078125-.078125.078125-.09375.078125-.125 0-.046875-.015625-.0625-.0625-.0625-.0625 0-.6875.46875-1.078125 1.328125-.359375.75-.4375 1.5-.4375 2.078125 0 .53125.078125 1.359375.453125 2.125.40625.84375 1 1.28125 1.0625 1.28125.046875 0 .0625-.015625.0625-.0625zm0 0"/></symbol><symbol id="p" overflow="visible"><path d="m2.78125-1.5625h1.90625c.09375 0 .21875 0 .21875-.140625s-.125-.140625-.21875-.140625h-1.90625v-1.90625c0-.09375 0-.21875-.125-.21875-.140625 0-.140625.125-.140625.21875v1.90625h-1.90625c-.09375 0-.234375 0-.234375.140625s.140625.140625.234375.140625h1.90625v1.90625c0 .09375 0 .21875.140625.21875.125 0 .125-.125.125-.21875zm0 0"/></symbol><symbol id="q" overflow="visible"><path d="m1.96875-1.703125c0-.53125-.078125-1.359375-.453125-2.125-.40625-.84375-.984375-1.28125-1.0625-1.28125-.03125 0-.0625.03125-.0625.0625s0 .046875.125.15625c.671875.6875 1.0625 1.765625 1.0625 3.1875 0 1.171875-.25 2.359375-1.09375 3.21875-.09375.078125-.09375.09375-.09375.125s.03125.0625.0625.0625c.078125 0 .6875-.46875 1.09375-1.328125.34375-.75.421875-1.5.421875-2.078125zm0 0"/></symbol><symbol id="r" overflow="visible"><path d="m1.3125-2.578125c0-.1875-.171875-.359375-.359375-.359375-.203125 0-.375.171875-.375.359375 0 .203125.171875.359375.375.359375.1875 0 .359375-.15625.359375-.359375zm0 2.21875c0-.203125-.171875-.359375-.359375-.359375-.203125 0-.375.15625-.375.359375s.171875.359375.375.359375c.1875 0 .359375-.15625.359375-.359375zm0 0"/></symbol><symbol id="s" overflow="visible"><path d="m1.140625-2.265625v-.75l-.953125.078125v.21875c.484375 0 .53125.046875.53125.375v1.828125c0 .296875-.078125.296875-.53125.296875v.21875c.265625 0 .59375-.015625.78125-.015625.265625 0 .59375 0 .859375.015625v-.21875h-.140625c-.5 0-.515625-.0625-.515625-.3125v-1.046875c0-.671875.28125-1.28125.796875-1.28125h.078125c-.015625.015625-.15625.09375-.15625.265625 0 .203125.140625.296875.296875.296875.125 0 .296875-.078125.296875-.296875s-.21875-.421875-.515625-.421875c-.484375 0-.734375.453125-.828125.75zm0 0"/></symbol><symbol id="t" overflow="visible"><path d="m2.265625-.515625c.03125.265625.21875.5625.53125.5625.140625 0 .5625-.09375.5625-.65625v-.375h-.171875v.375c0 .390625-.171875.4375-.25.4375-.21875 0-.25-.3125-.25-.34375v-1.359375c0-.28125 0-.546875-.234375-.796875-.265625-.265625-.609375-.375-.9375-.375-.5625 0-1.03125.3125-1.03125.765625 0 .203125.140625.3125.3125.3125.1875 0 .3125-.125.3125-.3125 0-.078125-.03125-.296875-.34375-.3125.1875-.234375.515625-.3125.734375-.3125.328125 0 .71875.265625.71875.875v.25c-.34375.03125-.828125.046875-1.25.25-.515625.234375-.6875.578125-.6875.890625 0 .546875.671875.71875 1.09375.71875.453125 0 .765625-.28125.890625-.59375zm-.046875-1.125v.6875c0 .640625-.484375.875-.796875.875-.328125 0-.609375-.234375-.609375-.578125 0-.375.28125-.9375 1.40625-.984375zm0 0"/></symbol><symbol id="u" overflow="visible"><path d="m.75-2.34375v1.828125c0 .296875-.078125.296875-.53125.296875v.21875c.234375 0 .578125-.015625.765625-.015625s.53125.015625.765625.015625v-.21875c-.453125 0-.53125 0-.53125-.296875v-1.25c0-.71875.484375-1.09375.921875-1.09375.421875 0 .5.359375.5.75v1.59375c0 .296875-.078125.296875-.53125.296875v.21875c.234375 0 .59375-.015625.765625-.015625.1875 0 .53125.015625.765625.015625v-.21875c-.34375 0-.515625 0-.53125-.203125v-1.296875c0-.578125 0-.796875-.203125-1.046875-.09375-.109375-.328125-.25-.71875-.25-.5 0-.8125.296875-1.015625.71875v-.71875l-.953125.078125v.21875c.46875 0 .53125.046875.53125.375zm0 0"/></symbol><symbol id="v" overflow="visible"><path d="m2.59375-.375v.453125l1-.078125v-.21875c-.484375 0-.53125-.046875-.53125-.375v-4.140625l-.984375.078125v.21875c.484375 0 .53125.046875.53125.375v1.46875c-.203125-.234375-.484375-.421875-.859375-.421875-.796875 0-1.515625.671875-1.515625 1.546875s.671875 1.546875 1.4375 1.546875c.4375 0 .75-.234375.921875-.453125zm0-1.828125v1.40625c0 .109375 0 .125-.078125.25-.203125.328125-.515625.46875-.8125.46875s-.546875-.171875-.703125-.4375c-.1875-.28125-.203125-.65625-.203125-.9375 0-.25.015625-.671875.21875-.96875.140625-.21875.390625-.4375.765625-.4375.234375 0 .515625.09375.734375.40625.078125.109375.078125.125.078125.25zm0 0"/></symbol><symbol id="w" overflow="visible"><path d="m3.203125-1.453125c0-.875-.671875-1.59375-1.5-1.59375-.84375 0-1.515625.734375-1.515625 1.59375 0 .875.71875 1.53125 1.515625 1.53125.8125 0 1.5-.671875 1.5-1.53125zm-1.5 1.359375c-.296875 0-.59375-.140625-.78125-.453125-.171875-.3125-.171875-.71875-.171875-.96875 0-.265625 0-.625.171875-.9375.1875-.3125.5-.453125.78125-.453125.296875 0 .578125.15625.765625.453125.171875.28125.171875.6875.171875.9375s0 .609375-.140625.921875c-.15625.296875-.453125.5-.796875.5zm0 0"/></symbol><symbol id="x" overflow="visible"><path d="m.75-2.34375v1.828125c0 .296875-.078125.296875-.53125.296875v.21875c.234375 0 .578125-.015625.765625-.015625s.53125.015625.765625.015625v-.21875c-.453125 0-.53125 0-.53125-.296875v-1.25c0-.71875.484375-1.09375.921875-1.09375.421875 0 .5.359375.5.75v1.59375c0 .296875-.078125.296875-.53125.296875v.21875c.234375 0 .59375-.015625.765625-.015625.1875 0 .53125.015625.765625.015625v-.21875c-.453125 0-.53125 0-.53125-.296875v-1.25c0-.71875.484375-1.09375.921875-1.09375s.5.359375.5.75v1.59375c0 .296875-.0625.296875-.53125.296875v.21875c.25 0 .59375-.015625.78125-.015625.171875 0 .53125.015625.75.015625v-.21875c-.34375 0-.515625 0-.53125-.203125v-1.296875c0-.578125 0-.796875-.203125-1.046875-.09375-.109375-.328125-.25-.71875-.25-.5625 0-.875.40625-.984375.671875-.09375-.59375-.59375-.671875-.90625-.671875-.5 0-.8125.296875-1.015625.71875v-.71875l-.953125.078125v.21875c.46875 0 .53125.046875.53125.375zm0 0"/></symbol><symbol id="y" overflow="visible"><path d="m1.203125-4.734375-.984375.078125v.21875c.484375 0 .53125.046875.53125.375v3.546875c0 .296875-.0625.296875-.53125.296875v.21875c.234375 0 .59375-.015625.765625-.015625s.5.015625.75.015625v-.21875c-.453125 0-.53125 0-.53125-.296875zm0 0"/></symbol><symbol id="z" overflow="visible"><path d="m2.828125-2.28125c.171875-.4375.53125-.4375.625-.4375v-.21875c-.15625.015625-.34375.015625-.5.015625-.125 0-.453125 0-.59375-.015625v.21875c.203125 0 .3125.109375.3125.28125 0 .078125 0 .09375-.03125.171875l-.6875 1.671875-.765625-1.828125c-.015625-.078125-.03125-.09375-.03125-.125 0-.171875.25-.171875.375-.171875v-.21875c-.171875.015625-.625.015625-.734375.015625-.1875 0-.46875 0-.671875-.015625v.21875c.328125 0 .453125 0 .5625.234375l1.015625 2.484375c-.03125.09375-.125.3125-.171875.40625-.140625.375-.34375.84375-.78125.84375-.03125 0-.1875 0-.3125-.125.203125-.03125.265625-.171875.265625-.28125 0-.1875-.125-.296875-.28125-.296875-.140625 0-.296875.09375-.296875.296875 0 .3125.296875.546875.625.546875.4375 0 .71875-.375.875-.765625zm0 0"/></symbol><symbol id="A" overflow="visible"><path d="m1.421875-1.328125c.140625.03125.703125.140625.703125.640625 0 .34375-.234375.609375-.765625.609375-.578125 0-.828125-.390625-.953125-.96875-.015625-.078125-.03125-.109375-.09375-.109375-.09375 0-.09375.046875-.09375.171875v.890625c0 .125 0 .171875.078125.171875.03125 0 .046875-.015625.171875-.140625.015625-.015625.015625-.03125.140625-.15625.296875.28125.609375.296875.75.296875.78125 0 1.09375-.453125 1.09375-.953125 0-.359375-.203125-.5625-.28125-.640625-.234375-.21875-.5-.28125-.78125-.328125-.375-.078125-.84375-.171875-.84375-.5625 0-.234375.1875-.515625.765625-.515625.75 0 .78125.609375.796875.828125.015625.0625.078125.0625.078125.0625.09375 0 .09375-.046875.09375-.171875v-.6875c0-.109375 0-.15625-.078125-.15625-.03125 0-.046875 0-.125.078125-.03125.03125-.09375.09375-.125.109375-.25-.1875-.53125-.1875-.640625-.1875-.828125 0-1.09375.453125-1.09375.828125 0 .25.109375.4375.296875.578125.21875.1875.40625.21875.90625.3125zm0 0"/></symbol><symbol id="B" overflow="visible"><path d="m1.171875-2.5625v-.453125l-.984375.078125v.21875c.484375 0 .53125.03125.53125.328125v3.1875c0 .3125-.078125.3125-.53125.3125v.21875c.234375-.015625.59375-.03125.765625-.03125.1875 0 .53125.015625.765625.03125v-.21875c-.453125 0-.53125 0-.53125-.3125v-1.203125c.03125.109375.328125.484375.84375.484375.8125 0 1.515625-.671875 1.515625-1.546875s-.65625-1.546875-1.421875-1.546875c-.53125 0-.8125.296875-.953125.453125zm.015625 1.78125v-1.515625c.203125-.34375.53125-.546875.890625-.546875.484375 0 .90625.609375.90625 1.375 0 .828125-.484375 1.390625-.984375 1.390625-.265625 0-.53125-.140625-.71875-.40625-.09375-.15625-.09375-.15625-.09375-.296875zm0 0"/></symbol><symbol id="C" overflow="visible"><path d="m.765625-1.71875c.03125-1.015625.609375-1.1875.84375-1.1875.703125 0 .765625.921875.765625 1.1875zm-.015625.140625h1.90625c.15625 0 .171875 0 .171875-.140625 0-.671875-.375-1.328125-1.21875-1.328125-.796875 0-1.421875.703125-1.421875 1.546875 0 .921875.71875 1.578125 1.5 1.578125.828125 0 1.140625-.765625 1.140625-.890625 0-.0625-.0625-.078125-.09375-.078125-.0625 0-.078125.03125-.078125.09375-.25.703125-.859375.703125-.921875.703125-.34375 0-.609375-.203125-.78125-.453125-.203125-.328125-.203125-.78125-.203125-1.03125zm0 0"/></symbol><symbol id="D" overflow="visible"><path d="m1.1875-2.9375v-.78125c0-.609375.328125-.9375.625-.9375.03125 0 .125 0 .234375.046875-.078125.03125-.203125.125-.203125.296875 0 .15625.109375.28125.28125.28125.203125 0 .3125-.125.3125-.296875 0-.25-.25-.46875-.625-.46875-.46875 0-1.046875.359375-1.046875 1.078125v.78125h-.546875v.21875h.546875v2.203125c0 .296875-.078125.296875-.53125.296875v.21875c.265625 0 .578125-.015625.78125-.015625.265625 0 .578125 0 .859375.015625v-.21875h-.140625c-.515625 0-.515625-.0625-.515625-.3125v-2.1875h.765625v-.21875zm0 0"/></symbol><symbol id="E" overflow="visible"><path d="m1.3125-2.578125c0-.1875-.171875-.359375-.359375-.359375-.203125 0-.375.171875-.375.359375 0 .203125.171875.359375.375.359375.1875 0 .359375-.15625.359375-.359375zm-.140625 2.5c0 .1875 0 .71875-.421875 1.234375-.0625.046875-.0625.0625-.0625.078125 0 .046875.046875.078125.078125.078125.078125 0 .5625-.546875.5625-1.328125 0-.203125-.015625-.703125-.375-.703125-.25 0-.375.1875-.375.359375s.125.359375.375.359375h.046875c.046875-.015625.125-.03125.171875-.078125zm0 0"/></symbol><symbol id="F" overflow="visible"><path d="m1.171875-2.71875h.984375v-.21875h-.984375v-1.25h-.15625c-.015625.5625-.21875 1.28125-.890625 1.3125v.15625h.578125v1.875c0 .84375.640625.921875.890625.921875.484375 0 .671875-.484375.671875-.921875v-.390625h-.171875v.375c0 .5-.203125.765625-.453125.765625-.46875 0-.46875-.625-.46875-.734375zm0 0"/></symbol><symbol id="G" overflow="visible"><path d="m1.203125-3.015625-.953125.078125v.21875c.4375 0 .5.03125.5.375v1.828125c0 .296875-.0625.296875-.53125.296875v.21875c.21875 0 .59375-.015625.75-.015625.25 0 .484375.015625.71875.015625v-.21875c-.453125 0-.484375-.03125-.484375-.296875zm.03125-1.1875c0-.21875-.171875-.359375-.359375-.359375-.21875 0-.359375.1875-.359375.359375 0 .1875.140625.375.359375.375.1875 0 .359375-.15625.359375-.375zm0 0"/></symbol><symbol id="H" overflow="visible"><path d="m3.140625-2.1875c0-.53125-.046875-1.078125-.28125-1.59375-.3125-.640625-.875-.75-1.15625-.75-.40625 0-.90625.171875-1.1875.8125-.21875.46875-.25 1-.25 1.53125 0 .515625.03125 1.125.3125 1.65625.28125.546875.78125.6875 1.125.6875.359375 0 .875-.15625 1.171875-.796875.21875-.46875.265625-1 .265625-1.546875zm-1.4375 2.1875c-.265625 0-.671875-.171875-.796875-.828125-.078125-.40625-.078125-1.03125-.078125-1.4375 0-.4375 0-.875.0625-1.25.125-.8125.640625-.875.8125-.875.21875 0 .671875.125.796875.796875.0625.390625.0625.90625.0625 1.328125 0 .515625 0 .984375-.0625 1.40625-.109375.65625-.5.859375-.796875.859375zm0 0"/></symbol><symbol id="I" overflow="visible"><path d="m1.7344 1.7031v-.26562h-.65625v-6.2812h.65625v-.26562h-.9375v6.8125z"/></symbol><symbol id="J" overflow="visible"><path d="m1.0781-5.1094h-.92188v.26562h.65625v6.2812h-.65625v.26562h.92188z"/></symbol><symbol id="K" overflow="visible"><path d="m2-4.359375c0-.171875 0-.171875-.15625-.171875-.421875.4375-1.015625.4375-1.234375.4375v.203125c.140625 0 .53125 0 .890625-.171875v3.53125c0 .234375-.015625.3125-.640625.3125h-.21875v.21875c.25-.015625.84375-.015625 1.109375-.015625s.859375 0 1.109375.015625v-.21875h-.21875c-.625 0-.640625-.0625-.640625-.3125zm0 0"/></symbol><symbol id="L" overflow="visible"><path d="m2.03125-4.625h-.125c-.40625.421875-.96875.4375-1.296875.453125v.390625c.21875 0 .546875-.015625.890625-.15625v3.546875h-.859375v.390625h2.25v-.390625h-.859375zm0 0"/></symbol><symbol id="M" overflow="visible"><path d="m3.5-2.2344v-.42188h-2.25v-1.6094h2.4219v-.4375h-3.0312v4.7031h3.1406v-.48438h-2.5313v-1.75z"/></symbol><symbol id="N" overflow="visible"><path d="m2.5625-4.7344h-.59375l-1.7812 4.7344h.5l.53125-1.3906h1.9844l.51562 1.3906h.625zm.48438 2.9688h-1.6875l.45312-1.2344c.14062-.40625.34375-.98438.39062-1.2344h.015625c.015625.09375.0625.26562.21875.71875z"/></symbol><symbol id="O" overflow="visible"><path d="m3.2969-2.1406v-.42188h-2.0469v-1.7031h2.3281v-.4375h-2.9375v4.7031h.60938v-2.1406z"/></symbol><symbol id="P" overflow="visible"><path d="m2.5-2.71875h.59375c.125 0 .203125 0 .203125-.140625 0-.078125-.078125-.078125-.1875-.078125h-.5625l.140625-.78125c.03125-.140625.125-.625.15625-.703125.0625-.125.1875-.234375.328125-.234375.015625 0 .203125 0 .328125.125-.296875.03125-.359375.265625-.359375.375 0 .15625.109375.234375.25.234375.171875 0 .375-.15625.375-.40625 0-.3125-.3125-.46875-.59375-.46875-.234375 0-.671875.109375-.875.796875-.03125.140625-.0625.203125-.21875 1.0625h-.46875c-.125 0-.203125 0-.203125.125 0 .09375.0625.09375.1875.09375h.453125l-.515625 2.6875c-.125.65625-.234375 1.28125-.59375 1.28125-.03125 0-.1875 0-.328125-.125.3125-.015625.375-.265625.375-.375 0-.15625-.125-.234375-.25-.234375-.171875 0-.375.15625-.375.40625 0 .3125.296875.46875.578125.46875.375 0 .65625-.390625.765625-.65625.21875-.421875.375-1.25.390625-1.296875zm0 0"/></symbol><symbol id="Q" overflow="visible"><path d="m2.28125-2.0625c.03125-.171875.1875-.796875.671875-.796875.03125 0 .1875 0 .34375.09375-.203125.03125-.328125.203125-.328125.359375 0 .109375.0625.234375.25.234375.15625 0 .375-.109375.375-.390625 0-.359375-.40625-.453125-.640625-.453125-.390625 0-.625.359375-.71875.515625-.15625-.4375-.53125-.515625-.734375-.515625-.703125 0-1.09375.890625-1.09375 1.046875 0 .078125.078125.078125.078125.078125.0625 0 .078125-.015625.09375-.078125.234375-.71875.6875-.890625.90625-.890625.140625 0 .375.0625.375.453125 0 .21875-.109375.671875-.375 1.625-.09375.421875-.34375.703125-.640625.703125-.046875 0-.203125 0-.34375-.078125.171875-.046875.328125-.1875.328125-.375s-.15625-.234375-.25-.234375c-.203125 0-.375.171875-.375.390625 0 .3125.328125.453125.640625.453125.4375 0 .6875-.484375.703125-.515625.09375.25.328125.515625.734375.515625.703125 0 1.09375-.875 1.09375-1.046875 0-.078125-.0625-.078125-.078125-.078125-.0625 0-.078125.03125-.09375.078125-.21875.734375-.6875.890625-.90625.890625-.265625 0-.375-.21875-.375-.453125 0-.140625.046875-.296875.125-.59375zm0 0"/></symbol><symbol id="R" overflow="visible"><path d="m3.3125-2.59375c.03125-.09375.03125-.109375.03125-.15625 0-.125-.09375-.1875-.203125-.1875-.0625 0-.171875.046875-.234375.140625-.015625.03125-.078125.25-.09375.375-.046875.171875-.09375.359375-.140625.546875l-.3125 1.21875c-.015625.109375-.3125.578125-.765625.578125-.34375 0-.421875-.296875-.421875-.546875 0-.3125.109375-.734375.34375-1.34375.109375-.265625.140625-.34375.140625-.484375 0-.3125-.21875-.5625-.5625-.5625-.640625 0-.890625 1-.890625 1.046875 0 .078125.0625.078125.078125.078125.0625 0 .078125-.015625.109375-.125.1875-.640625.453125-.84375.6875-.84375.046875 0 .171875 0 .171875.21875 0 .171875-.078125.34375-.125.46875-.265625.734375-.390625 1.109375-.390625 1.4375 0 .609375.4375.8125.828125.8125.265625 0 .5-.125.6875-.3125-.078125.359375-.171875.6875-.4375 1.046875-.171875.234375-.4375.4375-.75.4375-.09375 0-.40625-.03125-.515625-.296875.109375 0 .203125 0 .296875-.078125.0625-.0625.125-.140625.125-.28125 0-.203125-.171875-.234375-.25-.234375-.15625 0-.375.109375-.375.4375 0 .34375.296875.59375.71875.59375.703125 0 1.40625-.609375 1.59375-1.390625zm0 0"/></symbol><symbol id="S" overflow="visible"><path d="m5.203125-4.125c.0625-.25.0625-.3125.5625-.3125.1875 0 .234375 0 .234375-.140625 0-.078125-.078125-.078125-.09375-.078125-.1875 0-.6875.03125-.875.03125s-.671875-.03125-.875-.03125c-.0625 0-.125 0-.125.140625 0 .078125.0625.078125.1875.078125.015625 0 .140625 0 .25.015625.125 0 .1875.015625.1875.109375 0 .015625 0 .03125-.03125.125l-.40625 1.65625h-2.078125l.40625-1.59375c.0625-.25.078125-.3125.578125-.3125.171875 0 .234375 0 .234375-.140625 0-.078125-.078125-.078125-.109375-.078125-.1875 0-.671875.03125-.859375.03125-.203125 0-.6875-.03125-.890625-.03125-.046875 0-.125 0-.125.140625 0 .078125.0625.078125.1875.078125.015625 0 .140625 0 .265625.015625.125 0 .1875.015625.1875.109375 0 .015625-.015625.046875-.03125.125l-.921875 3.65625c-.0625.265625-.078125.3125-.609375.3125-.125 0-.1875 0-.1875.140625 0 .078125.078125.078125.09375.078125.1875 0 .671875-.015625.859375-.015625h.4375c.15625 0 .3125.015625.453125.015625.046875 0 .125 0 .125-.140625 0-.078125-.046875-.078125-.1875-.078125-.25 0-.4375 0-.4375-.109375 0-.046875.015625-.078125.015625-.125l.46875-1.859375h2.078125c-.28125 1.125-.453125 1.78125-.46875 1.875-.078125.21875-.203125.21875-.625.21875-.09375 0-.15625 0-.15625.140625 0 .078125.078125.078125.09375.078125.1875 0 .671875-.015625.859375-.015625h.4375c.15625 0 .296875.015625.4375.015625.0625 0 .140625 0 .140625-.140625 0-.078125-.0625-.078125-.1875-.078125-.25 0-.4375 0-.4375-.109375 0-.046875 0-.078125.015625-.125zm0 0"/></symbol><symbol id="T" overflow="visible"><path d="m1.390625 0c0-.453125-.171875-.71875-.4375-.71875-.234375 0-.375.171875-.375.359375s.140625.359375.375.359375c.078125 0 .171875-.03125.234375-.09375.015625-.015625.03125-.015625.03125-.015625s.015625 0 .015625.109375c0 .5-.234375.90625-.46875 1.125-.078125.078125-.078125.09375-.078125.109375 0 .046875.046875.078125.078125.078125.078125 0 .625-.515625.625-1.3125zm0 0"/></symbol><symbol id="U" overflow="visible"><path d="m3.140625-4.6875c-.125 0-.21875 0-.21875.125 0 .078125.0625.109375.125.109375.234375.03125.234375.3125.234375.328125 0 .203125-.078125.296875-.265625.546875-.125.171875-.28125.375-.390625.5-.671875-1.03125-.703125-1.15625-.75-1.296875.109375-.0625.25-.078125.328125-.078125.046875 0 .171875 0 .171875-.109375 0-.125-.109375-.125-.234375-.125h-1.75c-.125 0-.234375 0-.234375.125 0 0 0 .09375.109375.109375.203125.03125.234375.0625.34375.21875.390625.484375 1.359375 1.953125 1.5 2.171875l-.734375.84375c-.515625.5625-.828125.921875-1.09375.984375-.078125.015625-.15625.015625-.15625.109375 0 .125.109375.125.234375.125h1.171875c.125 0 .234375 0 .234375-.125 0-.09375-.109375-.109375-.15625-.109375-.25-.046875-.25-.34375-.25-.34375 0-.1875.109375-.3125.140625-.359375.25-.296875.515625-.59375.78125-.890625.75 1.15625.8125 1.328125.859375 1.5-.109375.078125-.28125.09375-.421875.09375-.0625 0-.171875 0-.171875.109375 0 .125.109375.125.21875.125h1.828125c.125 0 .234375 0 .234375-.125 0-.0625-.0625-.09375-.109375-.109375-.125-.03125-.15625-.046875-.171875-.0625-.09375-.09375-.53125-.71875-.8125-1.140625l-.9375-1.375c.015625-.015625.09375-.109375.1875-.234375l.328125-.453125c.34375-.453125.703125-.90625 1.265625-.953125.0625 0 .15625-.015625.15625-.109375 0-.125-.09375-.125-.21875-.125zm.75.234375c-.125.09375-.234375.203125-.359375.328125 0-.109375-.03125-.234375-.09375-.328125zm-2.78125 3.875c0 .015625.015625.078125.015625.09375.03125.140625.0625.21875.09375.25h-.453125zm.515625-3.875c0 .140625 0 .234375.421875.921875.25.390625 1.75 2.671875 2.234375 3.296875h-.90625c.015625-.03125.015625-.046875.015625-.078125 0-.109375-.078125-.296875-.34375-.75-.28125-.453125-1.75-2.6875-2.296875-3.390625zm0 0"/></symbol><symbol id="V" overflow="visible"><path d="m.765625-4.078125v3.34375c0 .359375-.046875.484375-.40625.5-.078125 0-.1875 0-.1875.109375 0 .125.109375.125.234375.125h1.0625c.125 0 .21875 0 .21875-.125 0-.109375-.109375-.109375-.203125-.109375-.375-.015625-.4375-.15625-.4375-.515625v-3.125l2.96875 3.90625c.0625.078125.09375.09375.140625.09375.109375 0 .109375-.109375.109375-.21875v-3.875c0-.375.0625-.46875.375-.484375.046875 0 .15625 0 .15625-.109375 0-.125-.09375-.125-.21875-.125h-1c-.125 0-.234375 0-.234375.125 0 .109375.125.109375.203125.109375.375.015625.4375.140625.4375.515625v2.140625l-2.0625-2.796875c-.078125-.09375-.09375-.09375-.25-.09375h-1.1875c-.125 0-.234375 0-.234375.125 0 .09375.109375.109375.140625.109375.1875.03125.328125.140625.390625.21875-.015625.046875-.015625.0625-.015625.15625zm3.265625 3.734375-2.984375-3.9375c-.0625-.078125-.0625-.09375-.140625-.171875h.8125l2.3125 3.125zm0 0"/></symbol><symbol id="W" overflow="visible"><path d="m.640625-1.5625c.046875 0 .203125 0 .203125-.140625s-.15625-.140625-.203125-.140625v-.890625c0-.109375 0-.234375-.125-.234375-.140625 0-.140625.125-.140625.234375v2.0625c0 .109375 0 .234375.140625.234375.125 0 .125-.125.125-.234375zm0 0"/></symbol><symbol id="X" overflow="visible"><path d="m5.6875-1.5625c-.375.28125-.5625.5625-.625.65625-.296875.46875-.359375.890625-.359375.90625 0 .078125.09375.078125.140625.078125.109375 0 .125-.015625.15625-.140625.15625-.671875.546875-1.234375 1.328125-1.546875.078125-.03125.09375-.046875.09375-.09375s-.03125-.0625-.046875-.078125c-.3125-.109375-1.125-.453125-1.390625-1.59375-.015625-.078125-.03125-.109375-.140625-.109375-.046875 0-.140625 0-.140625.078125 0 .015625.0625.453125.359375.90625.125.203125.328125.4375.625.65625h-5.0625c-.125 0-.25 0-.25.140625s.125.140625.25.140625zm0 0"/></symbol><symbol id="Y" overflow="visible"><path d="m6.1875-1.5625c.125 0 .25 0 .25-.140625s-.125-.140625-.25-.140625h-5.0625c.375-.28125.5625-.5625.609375-.65625.3125-.46875.359375-.890625.359375-.90625 0-.078125-.078125-.078125-.125-.078125-.125 0-.125.015625-.15625.140625-.15625.671875-.5625 1.234375-1.328125 1.546875-.078125.03125-.109375.046875-.109375.09375s.046875.0625.109375.09375c.703125.28125 1.171875.8125 1.328125 1.578125.03125.078125.03125.109375.15625.109375.046875 0 .125 0 .125-.078125 0-.015625-.0625-.453125-.34375-.90625-.140625-.203125-.328125-.4375-.625-.65625zm0 0"/></symbol><symbol id="Z" overflow="visible"><path d="m4.15625-2.1875c0-.21875-.015625-.234375-.234375-.234375h-3.3125c-.109375 0-.234375 0-.234375.140625 0 .125.125.125.234375.125h3.28125v1.296875c0 .125 0 .25.140625.25.125 0 .125-.125.125-.25zm0 0"/></symbol><symbol id="aa" overflow="visible"><path d="m4.59375-4.046875c.078125-.03125.140625-.0625.140625-.15625 0-.0625-.0625-.125-.140625-.125-.03125 0-.09375.015625-.125.03125l-3.765625 1.78125c-.125.0625-.140625.109375-.140625.15625 0 .0625.046875.109375.140625.15625l3.765625 1.765625c.09375.046875.109375.046875.125.046875.078125 0 .140625-.0625.140625-.140625 0-.046875-.03125-.09375-.15625-.15625l-3.5625-1.671875zm-.109375 4.984375c.125 0 .25 0 .25-.140625s-.15625-.140625-.25-.140625h-3.671875c-.109375 0-.25 0-.25.140625s.125.140625.234375.140625zm0 0"/></symbol><symbol id="ab" overflow="visible"><path d="m1.3125-1.703125c0-.203125-.171875-.359375-.359375-.359375-.203125 0-.375.15625-.375.359375s.171875.359375.375.359375c.1875 0 .359375-.15625.359375-.359375zm0 0"/></symbol><symbol id="ac" overflow="visible"><path d="m2.09375-1.828125c-.171875.03125-.25.171875-.25.265625 0 .140625.09375.1875.1875.1875.109375 0 .265625-.078125.265625-.3125 0-.328125-.359375-.421875-.625-.421875-.71875 0-1.375.671875-1.375 1.328125 0 .40625.28125.828125.875.828125.8125 0 1.1875-.46875 1.1875-.53125 0-.03125-.046875-.09375-.078125-.09375s-.046875.015625-.078125.046875c-.375.453125-.9375.453125-1.015625.453125-.34375 0-.5-.234375-.5-.53125 0-.140625.0625-.65625.3125-.984375.1875-.234375.4375-.375.671875-.375.0625 0 .296875.015625.421875.140625zm0 0"/></symbol><symbol id="ad" overflow="visible"><path d="m.578125-.296875c-.015625.0625-.046875.171875-.046875.1875 0 .109375.09375.15625.171875.15625s.15625-.0625.171875-.109375c.03125-.03125.0625-.1875.09375-.296875.015625-.078125.078125-.296875.109375-.421875.015625-.109375.046875-.203125.078125-.3125.046875-.203125.0625-.234375.203125-.4375.125-.1875.34375-.4375.703125-.4375.28125 0 .28125.25.28125.328125 0 .296875-.203125.828125-.28125 1.015625-.046875.140625-.0625.1875-.0625.265625 0 .25.203125.40625.453125.40625.46875 0 .6875-.65625.6875-.734375 0-.0625-.0625-.0625-.078125-.0625-.0625 0-.078125.03125-.09375.09375-.109375.375-.3125.578125-.5.578125-.109375 0-.125-.078125-.125-.171875 0-.109375.03125-.171875.109375-.390625.0625-.140625.25-.65625.25-.921875 0-.453125-.359375-.546875-.609375-.546875-.40625 0-.671875.25-.8125.4375-.03125-.328125-.3125-.4375-.515625-.4375s-.3125.15625-.375.265625c-.09375.171875-.171875.453125-.171875.46875 0 .0625.078125.0625.09375.0625.0625 0 .0625-.015625.09375-.140625.078125-.28125.171875-.515625.34375-.515625.125 0 .171875.109375.171875.234375 0 .09375-.046875.265625-.078125.390625-.03125.140625-.09375.328125-.109375.4375zm0 0"/></symbol><symbol id="ae" overflow="visible"><path d="m.75-2.734375c-.015625-.203125-.15625-.203125-.28125-.203125h-.21875c-.09375 0-.28125 0-.28125.203125 0 .21875.140625.21875.390625.21875v2.09375c-.25 0-.390625 0-.390625.21875 0 .203125.1875.203125.28125.203125h.609375c.09375 0 .265625 0 .265625-.203125 0-.21875-.140625-.21875-.375-.21875v-1.21875c0-.59375.265625-.921875.546875-.921875.15625 0 .25.109375.25.5625v1.578125c-.125 0-.296875 0-.296875.21875 0 .203125.1875.203125.28125.203125h.515625c.09375 0 .28125 0 .28125-.203125 0-.21875-.140625-.21875-.390625-.21875v-1.21875c0-.59375.28125-.921875.5625-.921875.15625 0 .25.109375.25.5625v1.578125c-.140625 0-.296875 0-.296875.21875 0 .203125.171875.203125.265625.203125h.515625c.109375 0 .28125 0 .28125-.203125 0-.21875-.140625-.21875-.390625-.21875v-1.640625c0-.140625 0-.921875-.609375-.921875-.203125 0-.484375.09375-.671875.359375-.09375-.234375-.296875-.359375-.515625-.359375s-.421875.109375-.578125.25zm0 0"/></symbol><symbol id="af" overflow="visible"><path d="m3.1875-1.4688c0-.85938-.64062-1.5312-1.4062-1.5312s-1.3906.67188-1.3906 1.5312.64062 1.5156 1.3906 1.5156 1.4062-.65625 1.4062-1.5156zm-1.4062 1.0938c-.5 0-.92188-.51562-.92188-1.1406s.4375-1.0625.92188-1.0625c.5 0 .9375.4375.9375 1.0625s-.4375 1.1406-.9375 1.1406z"/></symbol><symbol id="ag" overflow="visible"><path d="m2.921875-2.515625h.21875c.09375 0 .265625 0 .265625-.203125 0-.21875-.15625-.21875-.265625-.21875h-.796875c-.109375 0-.28125 0-.28125.203125 0 .21875.171875.21875.28125.21875h.1875l-.75 2.1875-.734375-2.1875h.1875c.09375 0 .265625 0 .265625-.203125 0-.21875-.15625-.21875-.265625-.21875h-.796875c-.109375 0-.28125 0-.28125.21875 0 .203125.171875.203125.28125.203125h.203125l.78125 2.3125c.078125.234375.21875.234375.359375.234375s.296875 0 .359375-.234375zm0 0"/></symbol><symbol id="ah" overflow="visible"><path d="m2.890625-1.296875c.140625 0 .265625 0 .265625-.25 0-.78125-.4375-1.453125-1.3125-1.453125-.8125 0-1.46875.6875-1.46875 1.515625 0 .84375.6875 1.53125 1.5625 1.53125.90625 0 1.21875-.625 1.21875-.796875 0-.1875-.1875-.1875-.234375-.1875-.125 0-.171875.03125-.21875.15625-.15625.34375-.515625.40625-.71875.40625-.5 0-1.015625-.34375-1.125-.921875zm-2.03125-.40625c.09375-.5.5-.875.984375-.875.34375 0 .765625.171875.828125.875zm0 0"/></symbol><symbol id="ai" overflow="visible"><path d="m.28125-3.25v.171875h.125c.359375 0 .375.046875.375.203125v2.484375c0 .171875-.015625.21875-.375.21875h-.125v.171875h2.03125c.671875 0 1.15625-.421875 1.15625-.875 0-.40625-.421875-.765625-1-.828125.46875-.078125.859375-.375.859375-.734375 0-.4375-.5-.8125-1.171875-.8125zm.921875 1.484375v-1.125c0-.15625 0-.1875.21875-.1875h.703125c.484375 0 .71875.328125.71875.640625 0 .328125-.3125.671875-.859375.671875zm.21875 1.59375c-.21875 0-.21875-.03125-.21875-.1875v-1.265625h1.015625c.5 0 .765625.40625.765625.75s-.328125.703125-.84375.703125zm0 0"/></symbol><path d="m37.401297 85.562094c.0312-.171875.1875-.796875.67187-.796875.0312 0 .1875 0 .34375.09375-.20312.03125-.32812.203125-.32812.359375 0 .109375.0625.234375.25.234375.15625 0 .375-.109375.375-.390625 0-.359375-.40625-.453125-.64063-.453125-.39062 0-.625.359375-.71875.515625-.15625-.4375-.53125-.515625-.73437-.515625-.70313 0-1.09375.890625-1.09375 1.046875 0 .07813.0781.07813.0781.07813.0625 0 .0781-.01563.0937-.07813.23438-.71875.6875-.890625.90625-.890625.14063 0 .375.0625.375.453125 0 .21875-.10937.671875-.375 1.625-.0937.421875-.34375.703125-.64062.703125-.0469 0-.20313 0-.34375-.07813.17187-.04687.32812-.1875.32812-.375s-.15625-.234375-.25-.234375c-.20312 0-.375.171875-.375.390625 0 .3125.32813.453125.64063.453125.4375 0 .6875-.484375.70312-.515625.0937.25.32813.515625.73438.515625.70312 0 1.09375-.875 1.09375-1.046875 0-.07813-.0625-.07813-.0781-.07813-.0625 0-.0781.03125-.0937.07813-.21875.734375-.6875.890625-.90625.890625-.26562 0-.375-.21875-.375-.453125 0-.140625.0469-.296875.125-.59375zm0 0"/><path d="m41.109887 86.819129c-.17188.03125-.25.171875-.25.265625 0 .140625.0937.1875.1875.1875.10937 0 .26562-.07813.26562-.3125 0-.328125-.35937-.421875-.625-.421875-.71875 0-1.375.671875-1.375 1.328125 0 .40625.28125.828125.875.828125.8125 0 1.1875-.46875 1.1875-.53125 0-.03125-.0469-.09375-.0781-.09375s-.0469.01563-.0781.04687c-.375.453125-.9375.453125-1.01562.453125-.34375 0-.5-.234375-.5-.53125 0-.140625.0625-.65625.3125-.984375.1875-.234375.4375-.375.67187-.375.0625 0 .29688.01563.42188.140625zm0 0"/><path d="m43.183707 87.624594c0-.4375-.17187-.71875-.4375-.71875-.25 0-.375.1875-.375.359375s.125.359375.375.359375c.10938 0 .1875-.04687.25-.09375l.0156-.01563s.0156 0 .0156.109375c0 .421875-.1875.84375-.48437 1.171875-.0469.03125-.0625.04687-.0625.0625 0 .04687.0469.07813.0781.07813.0781 0 .625-.53125.625-1.3125zm0 0"/><path d="m49.271217 85.030844c.0312-.09375.0312-.109375.0312-.15625 0-.125-.0937-.1875-.20313-.1875-.0625 0-.17187.04687-.23437.140625-.0156.03125-.0781.25-.0937.375-.0469.171875-.0937.359375-.14063.546875l-.3125 1.21875c-.0156.109375-.3125.578125-.76562.578125-.34375 0-.42188-.296875-.42188-.546875 0-.3125.10938-.734375.34375-1.34375.10938-.265625.14063-.34375.14063-.484375 0-.3125-.21875-.5625-.5625-.5625-.64063 0-.89063 1-.89063 1.046875 0 .07813.0625.07813.0781.07813.0625 0 .0781-.01563.10937-.125.1875-.640625.45313-.84375.6875-.84375.0469 0 .17188 0 .17188.21875 0 .171875-.0781.34375-.125.46875-.26563.734375-.39063 1.109375-.39063 1.4375 0 .609375.4375.8125.82813.8125.26562 0 .5-.125.6875-.3125-.0781.359375-.17188.6875-.4375 1.046875-.17188.234375-.4375.4375-.75.4375-.0937 0-.40625-.03125-.51563-.296875.10938 0 .20313 0 .29688-.07813.0625-.0625.125-.140625.125-.28125 0-.203125-.17188-.234375-.25-.234375-.15625 0-.375.109375-.375.4375 0 .34375.29687.59375.71875.59375.70312 0 1.40625-.609375 1.59375-1.390625zm0 0"/><path d="m51.393877 86.819129c-.17188.03125-.25.171875-.25.265625 0 .140625.0937.1875.1875.1875.10937 0 .26562-.07813.26562-.3125 0-.328125-.35937-.421875-.625-.421875-.71875 0-1.375.671875-1.375 1.328125 0 .40625.28125.828125.875.828125.8125 0 1.1875-.46875 1.1875-.53125 0-.03125-.0469-.09375-.0781-.09375s-.0469.01563-.0781.04687c-.375.453125-.9375.453125-1.01562.453125-.34375 0-.5-.234375-.5-.53125 0-.140625.0625-.65625.3125-.984375.1875-.234375.4375-.375.67187-.375.0625 0 .29688.01563.42188.140625zm0 0"/><g transform="translate(-53.058 -169.05)"><use height="100%" width="100%" x="53.8078" xlink:href="#a" y="175.15601"/><use height="100%" width="100%" x="58.162804" xlink:href="#b" y="175.15601"/><use height="100%" width="100%" x="61.391056" xlink:href="#c" y="175.15601"/><use height="100%" width="100%" x="65.528503" xlink:href="#d" y="175.15601"/><use height="100%" width="100%" x="69.012367" xlink:href="#e" y="175.15601"/><use height="100%" width="100%" x="72.605301" xlink:href="#f" y="175.15601"/><use height="100%" width="100%" x="76.960304" xlink:href="#g" y="175.15601"/><use height="100%" width="100%" x="81.315308" xlink:href="#b" y="175.15601"/><use height="100%" width="100%" x="84.543564" xlink:href="#e" y="175.15601"/><use height="100%" width="100%" x="90.4086" xlink:href="#o" y="175.15601"/><use height="100%" width="100%" x="93.05899" xlink:href="#L" y="175.15601"/><use height="100%" width="100%" x="97.981651" xlink:href="#p" y="175.15601"/><use height="100%" width="100%" x="104.79845" xlink:href="#L" y="175.15601"/><use height="100%" width="100%" x="108.20665" xlink:href="#q" y="175.15601"/><use height="100%" width="100%" x="113.43243" xlink:href="#O" y="175.15601"/><use height="100%" width="100%" x="117.31369" xlink:href="#M" y="175.15601"/><use height="100%" width="100%" x="121.38445" xlink:href="#N" y="175.15601"/><use height="100%" width="100%" x="125.92933" xlink:href="#o" y="175.15601"/><use height="100%" width="100%" x="128.58051" xlink:href="#P" y="175.15601"/><use height="100%" width="100%" x="134.54495" xlink:href="#r" y="175.15601"/><use height="100%" width="100%" x="138.33167" xlink:href="#U" y="175.15601"/><use height="100%" width="100%" x="145.16644" xlink:href="#W" y="175.15601"/><use height="100%" width="100%" x="145.16644" xlink:href="#X" y="175.15601"/><use height="100%" width="100%" x="153.87621" xlink:href="#V" y="175.15601"/><use height="100%" width="100%" x="158.81763" xlink:href="#q" y="175.15601"/><g fill="#630000"><use height="100%" width="100%" x="64.032402" xlink:href="#S" y="183.367"/><use height="100%" width="100%" x="72.145683" xlink:href="#Y" y="183.367"/><use height="100%" width="100%" x="80.855453" xlink:href="#o" y="183.367"/><use height="100%" width="100%" x="83.506348" xlink:href="#H" y="183.367"/><use height="100%" width="100%" x="86.914833" xlink:href="#T" y="183.367"/><use height="100%" width="100%" x="89.944519" xlink:href="#H" y="183.367"/><use height="100%" width="100%" x="93.352333" xlink:href="#T" y="183.367"/><use height="100%" width="100%" x="96.382019" xlink:href="#ab" y="183.367"/><use height="100%" width="100%" x="99.414047" xlink:href="#ab" y="183.367"/><use height="100%" width="100%" x="102.43905" xlink:href="#ab" y="183.367"/><use height="100%" width="100%" x="106.60702" xlink:href="#T" y="183.367"/><use height="100%" width="100%" x="109.63632" xlink:href="#H" y="183.367"/><use height="100%" width="100%" x="113.04453" xlink:href="#q" y="183.367"/><use height="100%" width="100%" x="115.69543" xlink:href="#E" y="183.367"/></g><use height="100%" width="100%" x="64.032402" xlink:href="#s" y="191.577"/><use height="100%" width="100%" x="66.702393" xlink:href="#t" y="191.577"/><use height="100%" width="100%" x="70.110596" xlink:href="#u" y="191.577"/><use height="100%" width="100%" x="73.897797" xlink:href="#v" y="191.577"/><use height="100%" width="100%" x="77.684998" xlink:href="#w" y="191.577"/><use height="100%" width="100%" x="81.093201" xlink:href="#x" y="191.577"/><use height="100%" width="100%" x="86.773315" xlink:href="#y" y="191.577"/><use height="100%" width="100%" x="88.666916" xlink:href="#z" y="191.577"/><use height="100%" width="100%" x="94.534363" xlink:href="#A" y="191.577"/><use height="100%" width="100%" x="97.222748" xlink:href="#t" y="191.577"/><use height="100%" width="100%" x="100.63095" xlink:href="#x" y="191.577"/><use height="100%" width="100%" x="106.31106" xlink:href="#B" y="191.577"/><use height="100%" width="100%" x="110.09827" xlink:href="#y" y="191.577"/><use height="100%" width="100%" x="111.99186" xlink:href="#C" y="191.577"/><use height="100%" width="100%" x="117.2953" xlink:href="#Q" y="191.577"/><use height="100%" width="100%" x="121.19139" xlink:href="#ac" y="192.60005"/><use height="100%" width="100%" x="126.24061" xlink:href="#D" y="191.577"/><use height="100%" width="100%" x="128.3237" xlink:href="#s" y="191.577"/><use height="100%" width="100%" x="130.9937" xlink:href="#w" y="191.577"/><use height="100%" width="100%" x="134.4019" xlink:href="#x" y="191.577"/><use height="100%" width="100%" x="142.35352" xlink:href="#U" y="191.577"/><use height="100%" width="100%" x="147.29492" xlink:href="#E" y="191.577"/><use height="100%" width="100%" x="153.7332" xlink:href="#R" y="191.577"/><use height="100%" width="100%" x="157.075" xlink:href="#ac" y="192.60005"/><use height="100%" width="100%" x="161.74532" xlink:href="#Y" y="191.577"/><use height="100%" width="100%" x="170.45508" xlink:href="#P" y="191.577"/><use height="100%" width="100%" x="174.52617" xlink:href="#o" y="191.577"/><use height="100%" width="100%" x="177.17656" xlink:href="#Q" y="191.577"/><use height="100%" width="100%" x="181.07227" xlink:href="#ac" y="192.60005"/><use height="100%" width="100%" x="183.84959" xlink:href="#q" y="191.577"/><use height="100%" width="100%" x="186.5005" xlink:href="#E" y="191.577"/><g fill="#000063"><use height="100%" width="100%" x="64.032402" xlink:href="#Q" y="199.78799"/><use height="100%" width="100%" x="67.92849" xlink:href="#ai" y="200.81065"/><use height="100%" width="100%" x="73.973412" xlink:href="#Y" y="199.78799"/><use height="100%" width="100%" x="82.683182" xlink:href="#Q" y="199.78799"/><use height="100%" width="100%" x="86.57888" xlink:href="#ac" y="200.81065"/><use height="100%" width="100%" x="89.355438" xlink:href="#E" y="199.78799"/><use height="100%" width="100%" x="95.792938" xlink:href="#R" y="199.78799"/><use height="100%" width="100%" x="99.135521" xlink:href="#ai" y="200.81065"/><use height="100%" width="100%" x="105.18044" xlink:href="#Y" y="199.78799"/><use height="100%" width="100%" x="113.89021" xlink:href="#R" y="199.78799"/><use height="100%" width="100%" x="117.23162" xlink:href="#ac" y="200.81065"/></g><use height="100%" width="100%" x="120.009" xlink:href="#E" y="199.78799"/><use height="100%" width="100%" x="64.032402" xlink:href="#h" y="207.99815"/><use height="100%" width="100%" x="69.694107" xlink:href="#i" y="207.99815"/><use height="100%" width="100%" x="74.04911" xlink:href="#j" y="207.99815"/><use height="100%" width="100%" x="76.226273" xlink:href="#k" y="207.99815"/><use height="100%" width="100%" x="78.403442" xlink:href="#e" y="207.99815"/><use height="100%" width="100%" x="84.269096" xlink:href="#Z" y="207.99815"/><use height="100%" width="100%" x="91.085121" xlink:href="#F" y="207.99815"/><use height="100%" width="100%" x="93.736023" xlink:href="#C" y="207.99815"/><use height="100%" width="100%" x="96.765228" xlink:href="#s" y="207.99815"/><use height="100%" width="100%" x="99.435219" xlink:href="#x" y="207.99815"/><use height="100%" width="100%" x="105.11534" xlink:href="#G" y="207.99815"/><use height="100%" width="100%" x="107.00893" xlink:href="#u" y="207.99815"/><use height="100%" width="100%" x="110.79613" xlink:href="#t" y="207.99815"/><use height="100%" width="100%" x="114.20433" xlink:href="#F" y="207.99815"/><use height="100%" width="100%" x="116.85524" xlink:href="#C" y="207.99815"/><use height="100%" width="100%" x="122.15662" xlink:href="#f" y="207.99815"/><use height="100%" width="100%" x="126.51163" xlink:href="#c" y="207.99815"/><use height="100%" width="100%" x="74.257019" xlink:href="#Q" y="216.20871"/><use height="100%" width="100%" x="78.153107" xlink:href="#ad" y="217.23099"/><use height="100%" width="100%" x="83.75663" xlink:href="#Y" y="216.20871"/><use height="100%" width="100%" x="92.4664" xlink:href="#ae" y="216.20871"/><use height="100%" width="100%" x="96.045013" xlink:href="#af" y="216.20871"/><use height="100%" width="100%" x="99.623627" xlink:href="#ag" y="216.20871"/><use height="100%" width="100%" x="103.20225" xlink:href="#ah" y="216.20871"/><use height="100%" width="100%" x="106.7812" xlink:href="#o" y="216.20871"/><use height="100%" width="100%" x="109.43198" xlink:href="#Q" y="216.20871"/><use height="100%" width="100%" x="113.32768" xlink:href="#ac" y="217.23099"/><use height="100%" width="100%" x="116.10424" xlink:href="#q" y="216.20871"/><use height="100%" width="100%" x="118.75515" xlink:href="#E" y="216.20871"/><use height="100%" width="100%" x="125.19291" xlink:href="#R" y="216.20871"/><use height="100%" width="100%" x="128.53471" xlink:href="#ad" y="217.23099"/><use height="100%" width="100%" x="134.13901" xlink:href="#Y" y="216.20871"/><use height="100%" width="100%" x="142.84879" xlink:href="#P" y="216.20871"/><use height="100%" width="100%" x="146.91988" xlink:href="#o" y="216.20871"/><use height="100%" width="100%" x="149.57027" xlink:href="#Q" y="216.20871"/><use height="100%" width="100%" x="153.46635" xlink:href="#ad" y="217.23099"/><use height="100%" width="100%" x="157.17651" xlink:href="#q" y="216.20871"/><use height="100%" width="100%" x="159.82742" xlink:href="#E" y="216.20871"/><g fill="#630000"><use height="100%" width="100%" x="74.257004" xlink:href="#S" y="224.41901"/><use height="100%" width="100%" x="80.47731" xlink:href="#I" y="224.41901"/><use height="100%" width="100%" x="82.370277" xlink:href="#R" y="224.41901"/><use height="100%" width="100%" x="85.71286" xlink:href="#ac" y="225.44089"/><use height="100%" width="100%" x="88.489029" xlink:href="#J" y="224.41901"/><use height="100%" width="100%" x="92.276138" xlink:href="#Y" y="224.41901"/><use height="100%" width="100%" x="100.98591" xlink:href="#S" y="224.41901"/><use height="100%" width="100%" x="107.20622" xlink:href="#I" y="224.41901"/><use height="100%" width="100%" x="109.09919" xlink:href="#R" y="224.41901"/><use height="100%" width="100%" x="112.44177" xlink:href="#ac" y="225.44089"/><use height="100%" width="100%" x="115.21833" xlink:href="#J" y="224.41901"/><use height="100%" width="100%" x="118.62537" xlink:href="#p" y="224.41901"/><use height="100%" width="100%" x="125.4406" xlink:href="#K" y="224.41901"/><use height="100%" width="100%" x="128.8488" xlink:href="#E" y="224.41901"/><use height="100%" width="100%" x="135.28903" xlink:href="#S" y="224.41901"/><use height="100%" width="100%" x="141.50934" xlink:href="#I" y="224.41901"/><use height="100%" width="100%" x="143.40231" xlink:href="#R" y="224.41901"/><use height="100%" width="100%" x="146.74451" xlink:href="#ad" y="225.44089"/><use height="100%" width="100%" x="150.45505" xlink:href="#J" y="224.41901"/><use height="100%" width="100%" x="154.24138" xlink:href="#Y" y="224.41901"/><use height="100%" width="100%" x="162.95154" xlink:href="#S" y="224.41901"/><use height="100%" width="100%" x="169.17146" xlink:href="#I" y="224.41901"/><use height="100%" width="100%" x="171.06522" xlink:href="#R" y="224.41901"/><use height="100%" width="100%" x="174.40701" xlink:href="#ad" y="225.44089"/><use height="100%" width="100%" x="178.11717" xlink:href="#J" y="224.41901"/><use height="100%" width="100%" x="181.5242" xlink:href="#p" y="224.41901"/><use height="100%" width="100%" x="188.33945" xlink:href="#K" y="224.41901"/><use height="100%" width="100%" x="191.74765" xlink:href="#E" y="224.41901"/></g><use height="100%" width="100%" x="74.257004" xlink:href="#j" y="232.629"/><use height="100%" width="100%" x="76.434166" xlink:href="#l" y="232.629"/><g fill="#630000"><use height="100%" width="100%" x="81.844902" xlink:href="#S" y="232.629"/><use height="100%" width="100%" x="88.064819" xlink:href="#I" y="232.629"/><use height="100%" width="100%" x="89.958961" xlink:href="#R" y="232.629"/><use height="100%" width="100%" x="93.300369" xlink:href="#ad" y="233.65128"/><use height="100%" width="100%" x="97.010918" xlink:href="#J" y="232.629"/><use height="100%" width="100%" x="100.79803" xlink:href="#aa" y="232.629"/><use height="100%" width="100%" x="107.99295" xlink:href="#S" y="232.629"/><use height="100%" width="100%" x="114.21287" xlink:href="#I" y="232.629"/><use height="100%" width="100%" x="116.10623" xlink:href="#R" y="232.629"/><use height="100%" width="100%" x="119.44842" xlink:href="#ac" y="233.65128"/><use height="100%" width="100%" x="122.22498" xlink:href="#J" y="232.629"/></g><use height="100%" width="100%" x="126.391" xlink:href="#m" y="232.629"/><use height="100%" width="100%" x="129.4393" xlink:href="#i" y="232.629"/><use height="100%" width="100%" x="133.79431" xlink:href="#e" y="232.629"/><use height="100%" width="100%" x="137.38724" xlink:href="#n" y="232.629"/><use height="100%" width="100%" x="84.482002" xlink:href="#Q" y="240.83955"/><use height="100%" width="100%" x="88.377701" xlink:href="#ac" y="241.86182"/><use height="100%" width="100%" x="93.048012" xlink:href="#Y" y="240.83955"/><use height="100%" width="100%" x="101.75778" xlink:href="#Q" y="240.83955"/><use height="100%" width="100%" x="105.65387" xlink:href="#ad" y="241.86182"/><use height="100%" width="100%" x="109.36403" xlink:href="#E" y="240.83955"/><use height="100%" width="100%" x="115.80192" xlink:href="#R" y="240.83955"/><use height="100%" width="100%" x="119.14333" xlink:href="#ac" y="241.86182"/><use height="100%" width="100%" x="123.81364" xlink:href="#Y" y="240.83955"/><use height="100%" width="100%" x="132.5238" xlink:href="#R" y="240.83955"/><use height="100%" width="100%" x="135.866" xlink:href="#ad" y="241.86182"/><use height="100%" width="100%" x="139.57654" xlink:href="#E" y="240.83955"/><use height="100%" width="100%" x="64.032402" xlink:href="#b" y="256.74799"/><use height="100%" width="100%" x="67.260651" xlink:href="#e" y="256.74799"/><use height="100%" width="100%" x="70.853584" xlink:href="#m" y="256.74799"/><use height="100%" width="100%" x="73.901878" xlink:href="#g" y="256.74799"/><use height="100%" width="100%" x="78.256882" xlink:href="#b" y="256.74799"/><use height="100%" width="100%" x="81.48513" xlink:href="#n" y="256.74799"/></g></svg>