<svg height="104.54pt" viewBox="0 0 63.716 36.88" width="180.61pt" xmlns="http://www.w3.org/2000/svg" xmlns:xlink="http://www.w3.org/1999/xlink"><radialGradient id="a" cx="75.543" cy="13.491" gradientUnits="userSpaceOnUse" r="12.142"><stop offset="0" stop-color="#7f868a"/><stop offset="1" stop-color="#927386" stop-opacity=".8222"/></radialGradient><radialGradient id="b" cx="83.84" cy="125.8" gradientTransform="matrix(.9808 0 0 .9803 -6.9322 -109.5)" gradientUnits="userSpaceOnUse" r="12.05" xlink:href="#c"/><linearGradient id="c"><stop offset="0" stop-color="#4e443a"/><stop offset="1" stop-color="#6a5148"/></linearGradient><radialGradient id="d" cx="84.25" cy="125.6" gradientTransform="matrix(.9808 0 0 .9954 -6.9322 -111.4)" gradientUnits="userSpaceOnUse" r="11.6" xlink:href="#e"/><linearGradient id="e"><stop offset="0" stop-color="#211d18" stop-opacity=".9333"/><stop offset="1" stop-color="#332f2f" stop-opacity=".8"/></linearGradient><radialGradient id="f" cx="38.996" cy="13.559" gradientUnits="userSpaceOnUse" r="12.134"><stop offset="0" stop-color="#a79f95"/><stop offset="1" stop-color="#c6c1c8" stop-opacity=".8074"/></radialGradient><radialGradient id="g" cx="39.68" cy="134.1" gradientTransform="matrix(.9684 0 0 .966 .4538 -116.1)" gradientUnits="userSpaceOnUse" r="12.35" xlink:href="#c"/><radialGradient id="h" cx="40.01" cy="134.2" gradientTransform="matrix(.9684 0 0 .9657 .4538 -116)" gradientUnits="userSpaceOnUse" r="11.71" xlink:href="#e"/><path d="m50.133.35296a13.23 13.23 0 0 0 -13.23 13.23 13.23 13.23 0 0 0 12.13 13.181v-8.3107a1.1905 1.1905 0 0 1 1.1891-1.1912 1.1905 1.1905 0 0 1 1.1917 1.1912v8.2901a13.23 13.23 0 0 0 11.949-13.16 13.23 13.23 0 0 0 -13.23-13.23z" fill="#f00"/><path d="m13.583.37311a13.23 13.23 0 0 0 -13.23 13.23 13.23 13.23 0 0 0 11.94 13.159v-8.3092a1.1905 1.1905 0 0 1 1.1896-1.1912 1.1905 1.1905 0 0 1 1.1912 1.1912v8.3319a13.23 13.23 0 0 0 12.14-13.182 13.23 13.23 0 0 0 -13.23-13.23z" fill="#0f0"/><text style="fill:#0d0;font-family:DejaVu Sans;font-size:5.644;letter-spacing:0;stroke-width:.2646;word-spacing:0" x="4.943146" y="36.44799"><tspan fill="#0d0" font-family="'DejaVu Sans'" font-size="5.644" stroke-width=".2646" x="4.943146" y="36.44799">heads</tspan></text><text style="fill:#fb0000;font-family:DejaVu Sans;font-size:5.644;letter-spacing:0;stroke-width:.2646;word-spacing:0" x="44.318275" y="36.44799"><tspan fill="#fb0000" font-family="'DejaVu Sans'" font-size="5.644" stroke-width=".2646" x="44.318275" y="36.44799">tails</tspan></text><path d="m50.223 31.113v-12.66" fill="none" stroke="#f00" stroke-linecap="round" stroke-linejoin="round" stroke-width=".868"/><circle cx="50.133" cy="13.613" fill="#fff" r="12.14"/><g stroke-width=".04137"><path d="m42.2728 22.813c-2.922-2.488-4.693-6.401-4.206-10.24.09477-2.144 1.073-4.143 2.285-5.878.9929-1.612 2.389-2.965 4.088-3.834 2.876-1.49 6.34-1.916 9.432-.8433 4.636 1.459 8.22 5.882 8.374 10.75-.01654.3726.1056 1.019-.1323.4051-.05403 2.121-.4296 4.279-1.5 6.148-.9613 1.665-2.196 3.242-3.787 4.355-2.871 1.911-6.562 2.532-9.894 1.584-1.719-.4409-3.284-1.347-4.659-2.446zm1.171.2317c-.06256-.2467-.3482-.002 0 0zm.2247.1317c-.09925-.2004-.1062.0277 0 0zm.4001.2776c-.01632-.2283-.2248.0506 0 0zm-2.171-1.708c-.2443-.6109-.7021-.3324 0 0zm3.028 2.152c.3289.005-.8699-.3601 0 0zm-.5592-.5082c2.677 1.576 6.007 1.905 8.991 1.1.9256.0941 1.739-.8144 2.708-1.147.8114-.5264 1.93-1.244 2.332-1.958-2.721 2.604-6.687 4-10.44 3.221-4.738-.8482-8.694-4.96-9.167-9.743-.4573-3.64 1.088-7.314 3.644-9.89-2.792 2.162-4.131 5.784-3.942 9.238.0454 1.271.3757 2.502.9335 3.622.09139.4278-.5649-1.121-.2654-.1824.3209 1.304 1.407 2.193 2.147 3.259.859.9991 1.914 1.82 3.054 2.481zm-4.529-4.405c-.1631-.7517.5628.8274.0051.009zm-.2284-.5141c-.334-.8284.4356.6012 0 0zm-.6666-1.865c.02309-.226.04325.3828 0 0zm-.2767-1.042c.1258-.2096.02063.3004 0 0zm2.66 5.61c-.02747-.2627-.1994.0289 0 0zm-.2172-.2628c-.2339-.4972-.02659.1915 0 0zm-.1382-.2107c-.2317-.5674-.4158-.1649 0 0zm-.3554-.509c-.3023-.7966-.3499.0779 0 0zm6.009 4.375c.05083-.1745-.213.0666 0 0zm.4672.1705c.7619.1028-.7786-.2886 0 0zm.8009.1738c.196-.1598-.4615.0195 0 0zm.6802.089c.2552-.097-.471-.0143 0 0zm-2.105-1.884c.2944.6084 1.2.2121.2528-.01.3379-.562-.8859.1004-.2528.01zm2.91 1.983c.5085-.0765-.4141-.1025 0 0zm-7.848-6.064c.1158-.512.4713-2.037-.0086-.7539-.161.2186-.3196.5845.0086.7539zm8.319 6.06c.05083-.1745-.213.0666 0 0zm-10.81-7.99c.03252-.1707-.1543.0004 0 0zm11.3 7.991c.04987-.1578-.1706.0729 0 0zm-9.048-6.849c-.1182-.8772-1.23-.5539 0 0zm9.434 6.847c.3483-.1203-.4656-.007 0 0zm-8.03-6.183c-.1166-.4951-.6936-1.884-.4233-.6289-.0062.2671.04863.6758.4233.6289zm6.757 5.007c-.3363-.3134-.1706-2.075-.4297-.6931.000056.2796.1002.6464.4297.6931zm2.009 1.11c1.321-.2187-1.328.0978 0 0zm-3.813-2.614c.3892-.7854-1.516-.8435-.2236-.3858.09535.0433.01592.5487.2236.3858zm-4.42-3.538c.5567-.5318-.5007-1.937-.06357-.5202.03564.1326-.1579.4682.06357.5202zm.5189.0173c.1118-.4158-.2849.2088 0 0zm6.444 4.644c.9037-.6683-1.04-1.592-.6484-1.251.7234-.1117.3504 1.144.6484 1.251zm-6.148-5.016c.2227-.986-.6521-.0602 0 0zm.8567.3874c.0051-.5193-.9243-1.717-.8454-1.137.4177.2729.3791.9197.8454 1.137zm.4062.0172c.2581-.9011-.5222-.806 0 0zm7.095 4.853c-.149-.3912-.5412-2.367-.4831-1.037.1676.3218.01842.9456.4831 1.037zm-9.098-6.7c.1269-.488.5829-1.999.1153-.8667-.106.2234-.5101.7038-.1153.8667zm4.175 3.024c1.202.1012 2.404-.2534 3.59-.2614.7625.1704 1.441-.1679 1.715.05 1.069-.1495.4184-.3996-.2587-.2646-1.654.0685-3.308.1695-4.963.2055-.3446-.3258-.4066.2027-.08226.2705zm.9649-.1806c.6885-.0109-.4518.116 0 0zm.7036-.02c.85-.0334-.7042.1778 0 0zm3.675-.1652c.223-.0511-.04159.1609 0 0zm-6.484-.8578c.2973-.5995-.5127-1.964-.1738-.6188-.01363.2096-.1881.6021.1738.6188zm.9729.4656c.6439-.1692.6848-.7849.04192-.2463-.3798.062-.5809.4271-.04192.2463zm-4.898-3.492c.4751.2879.8044.5869.29-.0654-.1523-.1425-.7905.0388-.29.0654zm3.482 2.633c.1855-.7575-1.54-1.258-.3645-.3689.09181.1428.1736.3332.3645.3689zm-1.428-1.94c.3345-.5682-.7079-1.307-.2424-.3383.0692.3114.2023 1.228.2424.3383zm3.717 2.91c1.518-.103 3.051-.0477 4.558-.2417-1.596-.0553-3.255.0734-4.868.1908.0669.1356.2171-.0313.31.051zm-8.174-6.635c-.01523-1.159-.6604-.2759 0 0zm.5608.4049c.1691-.564-.4345-1.272-.2059-.3277.03959.1046.03959.3373.2059.3277zm13.51 9.82c-.04781-.2077-.3265.0735 0 0zm-5.519-4.091c.941-.0825 3.198.012 3.286-.2233-1.114.0119-2.376.0473-3.4.1682zm-9.08-7.245c.04487-.2252-.2562.1543 0 0zm9.643 6.74c.7339-.0918 2.56.0333 2.602-.2047-.9824.0962-2.336.0276-3.087.1336.1334.1181.3238.0943.4847.0711zm4.66 3.603c.6953-.71 1.461 1.384 1.066-.006-.0817-.2865-1.731-.3911-1.066.006zm-13.75-10.41c.06237-.9592-.2865.5494 0 0zm13.5 9.99c.5262-.0973 1.002-.5637.1983-.1939.09965-.038-.5262.2152-.1983.1939zm-12.44-9.586c.449.0585 1.316.3982.4386-.0588-1.003.5327-1.042-2.038-1.513-1.156.71.4.09476 1.291 1.075 1.215zm8.007 5.932c.6322-.1118 2.422.00011 2.406-.1989-.7002.1078-2.479-.0641-2.539.1957l.06844.002.06454.002zm-.0087-.4838c.7168-.1241 2.375-.009 2.47-.1975-.7494.1102-2.539-.0274-2.673.205zm.1323-.4801c.678-.1149 2.253-.006 2.317-.1943-.6709.0728-2.758-.03-2.572.22zm-.1358-.4852c.5984-.0718 2.39-.0233 2.325-.1806-.6963.1022-2.493-.085-2.521.191.0651-.004.1304-.007.1954-.0104zm5.086 3.507c.469-1.434-2.162-1.34-1.62-2.917-.1705-3.356-.3956-6.709-.5403-10.07-1.042-.3714-2.684-.1996-3.47.1139 1.046.3285 2.181-.4226 3.172.0865.5067 1.032.05207 2.35.1625 3.501.3222 2.429.344 4.898.5509 7.332.3555.722 1.795 1.406 1.744 1.95zm-5.197-3.974c.6786-.0815 2.36-.0224 2.427-.1929-.668.0624-2.546-.0468-2.485.1947zm-.09542-.481c.731-.0896 2.421-.0318 2.556-.196-.8866.0492-2.186-.0165-2.556.196zm-.08672-.4747c.6506-.0897 2.518-.033 2.497-.2206-.6382.1385-2.642-.0718-2.508.2208l.0102.00024zm.05678-.4973c.7189-.1108 2.43.011 2.518-.2051-.9183.0834-2.185-.0407-2.518.2051zm-.121-.4542c.753-.1039 2.564-.0345 2.678-.2499-.7051.1178-2.696-.0612-2.678.2499zm.01798-.4947c.7238-.0936 2.462-.0227 2.549-.2359-.627.0886-2.802-.0628-2.549.2359zm6.354 4.678c1.113-.379.0043-.4732 0 0zm-12.55-9.623c-.3883-.21-1.281-1.725-.836-.5969.2324.2577.555.4019.836.5969zm.3219.2226c.2795-.498.5035-1.237.01582-.3528.000013.0211-.2346.4619-.01582.3528zm5.757 4.24c.8079-.0931 2.631-.0329 2.8-.2417-.7317.0818-2.742-.0921-2.8.2417zm.000636-.4588c.7825-.1716 2.609-.0462 2.755-.2683-.6708.1326-2.862-.1598-2.755.2683zm-6.496-4.986c.07569-.4486-.2221.3546 0 0zm.2861.1567c-.1652-.1-.03266.3718 0 0zm.3627.2355c.2273-.6844-.3869.5408 0 0zm13.65 9.778c.4263-.5476.08124-1.782.02917-.5028.0065.0942-.3804.848-.02917.5028zm-7.628-5.718c.7047-.0821 2.391.0156 2.456-.2247-.7589.1022-2.501-.0868-2.673.2326zm-6.224-4.889c.243-.5558-.345-.0619 0 0zm.3189.1901c.02556-.4003-.3993.1265 0 0zm5.859 4.221c.7465-.0295 2.46-.028 2.59-.2053-.7327.0473-2.657-.1034-2.652.2064l.0618-.00097zm-5.309-3.815c.01668-.1892-.1776.0706 0 0zm11.67 8.515c1.184-.0823 2.827-.0132 3.752-.2029-1.05-.3258-2.428-.0239-3.6.0496-.06085.0576-.5944.1126-.152.1534zm-8.371-6.439c1.671-.1766-.9919-.5319 0 0zm11.05 8.176c.9718-.0919-.1189-.174-.04961-.4743.03364-.4891-.2404-1.471-.2157-.3671.01376.2625-.1255.7884.2653.8414zm-14.19-10.57c.2397-.3049-.4357.0823 0 0zm2.631 1.774c.4331-.212 1.595-1.182.507-.4915-.09611.0853-1.246.6982-.507.4915zm2.535 1.87c.7137-.0588 2.329.0248 2.443-.2035-.6872.1082-2.529-.1595-2.558.1976l.06839.004.04652.002zm-5.502-4.07c.4884-.4301-1.063-.3495 0 0zm-.4494-.5055c.05825-.3875-.3527.0431 0 0zm.8283.4671c.0129-.341-.2121.1277 0 0zm4.953 3.632c.7534-.003 2.417-.0347 2.581-.2035-.7802.0508-2.292-.0976-2.581.2035zm-4.191-3.407c-.2799-.5996-1.006-1.264-1.614-1.308.5641.4032 1.08.8666 1.614 1.308zm14.64 10.8c.6787-.6921-1.214-.8657-.06447-.335.06383.0747-.1742.4594.06447.335zm-11.64-8.799c1.121-.0209-.6516-.1715-.06469-.005zm1.534.9194c.6263-.1416 2.221-.00031 2.216-.2086-.8075.1394-2.303-.1222-2.708.2285.167.0431.3249-.055.4919-.0199zm6.961 5.101c.718-.197 2.253.1634 2.439-.1585-.8682-.2933-2.424-.0762-2.929.1572.1634.0451.3258-.0237.4901.00097zm-7.155-5.566c.6844-.1598 2.289.0107 2.376-.2147-.7273.1229-2.447-.1484-2.563.2203zm-.9607-.9564c.9063-.008 3.15-.0181 3.258-.2286-.8912.0971-3.121.0104-3.258.2286zm.9819.4736c.7126-.1727 2.235.0295 2.428-.2063-.6011.0671-2.657-.0776-2.461.2068l.03297-.00056zm-.1052-.9838c.7369-.0702 2.336-.015 2.525-.1713-.7662.0183-2.393-.0566-2.652.1758l.0684-.003zm.3156-.4922c.608-.0392 1.977.0181 2.098-.1671-.4376.0639-2.377-.0909-2.098.1671zm-1.855-3.525c.3633-.1433 2.247.1893 1.474-.3306-.8043.31-1.655.1176-2.229-.1834.09544.2744.4704.4954.7544.5139zm12.01 7.569c.9732-.1733-1.01-.2505-.5424-.927.01526.2683.07784 1.2.5424.927zm1.221.7089c-.08294-1.101-.4561-.2956 0 0zm-13.81-10.34c.107-.1677-.301.1035 0 0zm13.53 9.473c-.01264-.4323-.6815-1.852-.3645-.6057.2017.145.05461.5908.3645.6057zm.4649.0248c.2297-.6279-.2465.2584 0 0zm.06383-.3828c-.2521-.8367-.2221.3439 0 0zm-1.81-1.259c.07607-.2325-.3469.1909 0 0zm3.317 2.491c.1604-.3489-.2614-.2163 0 0zm-10.21-7.884c1.043.0649-.9527-.3015-.2308-.0587l.2307.0587zm7.53 5.236c.1867-.3887-1.085-1-.3329-.2705.1121.0836.1845.236.3329.2705zm2.604 1.566c-.329-1.298.08728 1.056 0 0zm-10.18-7.412c.5815-.0617-.7884-.1763 0 0zm1.467 1.126c-.3385-.5788-.8578-.5633-.1477-.0827.04904.0277.09856.0558.1477.0827zm.5206.293c-.1247-.9413-.6078-.1867 0 0zm3.844 2.821c-.08702-.5682-.9454-.9158-.2506-.2302.07109.0846.1119.2318.2506.2302zm2.739 1.737c-.2088-.611-1.071-.6112-.2376-.123.089.0753.2136.5639.2376.123zm-11.29-8.357c-.03809-.23-.2003.1618 0 0zm3.611 2.541c.8751.2538-.8714-.5022 0 0zm2.983 1.982c.3203-.3748-.522.2135 0 0zm1.352 1.138c1.175.5354-.8388-.8062-.171-.0949.0572.0313.1142.0643.171.0949zm4.78 3.532c.07438-.3244-.3516-.8488-.1161-.2264zm-9.376-7.155c.3535-.1663-.7079-.1339 0 0zm3.905 2.852c-.202-.5333-.6601-.2691 0 0zm-4.647-3.636c.7869.0857-.3878-.1424 0 0zm5.636 3.939c.8634-.0397-.9292-.3078 0 0zm-1.184-1.058c-.07339-.4504-.5813.0704 0 0zm.4751.3515c-.2158-.4564-.2817.0147 0 0zm-3.742-2.912c.6516.5568.3867-.3008-.1482-.0182zm4.633 3.306c-.1088-.3324-.1957.0771 0 0zm3.818 2.743c-.000971-.2607-.1534.005 0 0zm-4.604-3.48c-.1686-.6514-.7777-.3627 0 0zm.5018.1803c.1776-.6844-.2304-.0338 0 0zm1.165.589c-.1508-.5735-1.417-.7946-.3109-.3395.05895-.0157.3583.6395.3109.3395zm-6.138-4.754c.2709-.0889-.5666-.0755 0 0zm4.737 3.383c.7804.1282-.8789-.2897 0 0zm3.733 2.782c.0025-.2217-.1535.0988 0 0zm-7.906-6.06c.2206-.1621-.3934.042 0 0zm.6878.1759c.4956.1791 1.118.2802.2681.002-.2957-.2155-1.084-.121-.2681-.002zm6.858 5.259c.0025-.2217-.1535.0988 0 0zm-.1214-.217c-.09741-.4806-.3161-.1155.000033-.00004zm-.3306-.5271c-.1368-.3184-.05204.1637 0 0zm-4.861-3.943c-.06256-.2467-.3482-.002 0 0zm3.016 1.915c-.07138-.3311-.1922.0762 0 0zm-1.342-1.041c.0533-.2028-.288.0619 0 0zm.6456.4808c-.3231-.6142-.77-.2976 0 0zm.3879.2811c-.09137-.2948-.3106-.002 0 0zm4.292 10.83c.07868-.1666-.01709.2539 0 0z" fill="url(#a)"/><path d="m42.2428 22.813c-1.455-1.293-2.704-2.88-3.339-4.732 1.213 2.699 3.305 5.028 6.015 6.297 1.996.952 4.246 1.331 6.449 1.196-1.774.3042-3.634.0208-5.329-.544-1.387-.5046-2.66-1.286-3.797-2.217zm1.093-.2518c-.2939-.2275.3065-1.015.2466-.8478.5389.022 1.012-.0208.9276.4888 1.246.6651 1.198-.8201 1.186-1.503.4551.282.07424 1.803.06923 1.83.3779-.5258 1.14-.6925 1.559-.1924-.05676.5658-2.234.8946-.7702 1.209.6441.496-.6014.1437-.2795.5735-.7013-.5024-1.996-.473-1.935-1.595-.5916-.1884-.4552.8254-1.003.0373zm1.475.6894c.1311-.3334-.2443.1364 0 0zm.5538.0201c-.01632-.2283-.2248.0506 0 0zm.8433.3937c.1707-.463-.3442.2133 0 0zm-.5529-.4363c-.02143-.2503-.217.0442 0 0zm.7256-.763c-.1101-.1691-.2981.2909 0 0zm-2.464.46c.6157-.5302.3419.7178 0 0zm-1.607-1.239c.3106.002.09137.2948 0 0zm-.6435-.7277c-.3598-.4693-1.205-1.265-.5981-1.363-1.087-.2638-1.476-1.554-1.542-2.54-.1951-.8652-.9329-2.495-.2497-2.554-1.094-.7199-.2185-2.422-.1457-3.44.9804.0383-.3025-.5114.3032-1.066.3779-1.259 1.144-2.337 1.824-3.442 2.577-3.553 7.4-5.269 11.66-4.119 4.374 1.021 7.958 4.78 8.616 9.212.3588 2.168.1005 4.451-.7557 6.473-.3974 1.013-1.741 2.627-2.242 2.646-.02284.2384-.7739 1.733-1.584 1.499.2297-1.036-.7959-.1888-.1511.3067-.4001.7875-1.059-.3161-.8528.6477-.2819-.2976-.354-.1855-.4711.1731-.2374-.5502-.2448-.5381-.5094-.1627-.2118-.0382-.6436.535-.3075-.1965.8941-.5581-.1741-1.491-.9287-1.183 1.172-.438.08741-.8574-.3622-.1711-.181.7719.5736.9356.9065.4855 1.219.4375-1.177 1.028-.08519 1.377-.2364.3645.2299.2056.2676.4128-.7396-.0769-1.278.5804-1.869-.0799-.4171-.3587-.7865-1.697-.1363-1.836.1622-.8162-1.255-1.247-.8448-.2913-.427.2359.9103-.0186.1857.5404-.4399.5961.5583 1.287.07327 1.944.3055.6052-1.544.6598-2.033.4552-.5554-.0878-1.342-.0876-1.543-.5408-.3196 1.125-2.149-.4176-.6783-.7807.9024-.004-1.482.1122-.4696-.4422.8928-.0111 1.596-.8817 2.312-.8384-.9336.4621-.6506 2.61.5084 1.778.6011-.4952.5547-1.386-.04177-1.741.1357-.5408.4403-.9114-.06394-1.061-.5187-.1414-.9131 1.102-1.538.421.9766-.0977-.3726-.6621-.6976-.1386-.3818-.4631.04544.9932-.4675.1469-.4703.1918-1.207.773-.8904-.1534-.02984-.5151.5691.6668.7373-.1319.01695.0434.7402-.2795.5805-.2851-1.027-.1142-1.464-.407-1.08-1.27-.4524-.0546-1.317-.02-1.359-.0356-.7139-.2968-.06678.9266-.4262.6128-.4716.2471-.579-.7207-.6765.0903.5654.3741.4493 1.024.8916.4519.05041.7754-1.848.5802-1.792.5229-.06197.8985-1.317.1142-.9503-.5361-.2014-.1074-.3601.2694-.5228.2042zm1.115.5578c.4404-.3083-.6863-.3149 0 0zm-1.009-1.151c-.01525-.2268-.1431.0861 0 0zm-.5256-1.337c.5642.4878.6673-1.93.8108-.536.2862 1.288 1.845.065 2.65.4808.5223.2994.9038-.1718.6754-.6428.2878.5145 1.347 1.182.9843.063-.2442-.5695.3252-.8578.5443-.8781-.1586-.5314-1.663-.2849-.7063-.0325-.6665.0707.0802 1.16-.6458.4091-.9202-1.068-.3821.6677-.701.824-.1346-.589-.6857-1.75-1.067-.749-.07942.8719-.6367.5727-.4215-.1334-.7958-.7905-.2048 1.824-.8455.5239.02533-.7901-.9302-.9589-1.236-.2529-.4292-.8171-1.06-.004-.2849.3476.1066.1604.03436.5174.2431.5763zm2.829-.7672c.2226-.3869.06745.5097 0 0zm4.045 5.754c.2213-.1486-.503.0609 0 0zm-8.249-6.138c.0129-.3411-.2121.1277 0 0zm3.852 2.541c.07494-.3432-.2168.1467 0 0zm5.307 3.951c-.0596-.3012-.2348.0996 0 0zm-7.143-5.507c.09859-.2216-.1904.0418 0 0zm7.752 5.502c-.161-.2582-.2377.2137 0 0zm-1.281-1.12c-.07377-.8058-.6061-.179 0 0zm1.677 1.181c-.0131-.2722-.2822.0988 0 0zm.7074.1951c.08882-.3702-.3552.2144 0 0zm-10.3-7.697c-.04443-.4104-.2916.0188 0 0zm.3163-.181c-.03882-.2557-.1849.0693 0 0zm.3851.2111c.3355-.1981-.3633-.1887 0 0zm.7711.0984c.04279-.2616.2428-.8755.0088-.55-.09029.2884-.7719.4499-.0088.55zm3.416 2.312c-.2381-.2664.04892.3222 0 0zm1.984 1.171c1.483.099 2.947-.3471 4.42-.1778.7881-.4093 2.623.5196 2.521-.7449-.2107-1.123-1.99-.9374-1.698-2.389-.04138-1.245.1319-2.465-.183-3.685.000314-1.247-.02353-2.477-.1969-3.712-.138-1.208.4523-3.507-1.523-2.902-1.139.317-2.02-.0472-2.709-.9267-.5665-.4436-1.86.1499-.5294.2408 1.734.2564.6354 1.817-.2866 2.339-1.111.1519-1.651 1.996-.2136 1.886.4942-.4028 1.452-.7668 1.179.3079.04649 2.052.1204 4.111.2496 6.154.4489 1.164-.2878 2.017-1.31 2.368-.3396.3852-.2213 1.061.2799 1.243zm.174-.7181c1.393-.0544 2.822-.3509 4.197-.1658-1.198.1874-2.514.1546-3.756.2087.01404-.1204-.5234.1314-.4408-.0428zm.1633-.2097c.5605-.199-.02266.2556 0 0zm.4028-.2777c.8783-.1251 2.905-.2624 3.091-.086-1.012.0323-2.161.201-3.091.086zm.5823-.5022c.5347-.1522 2.135-.2772 2.117-.0352-.7052.009-1.414.1588-2.117.0352zm.2234-.5062c.5302-.3077 2.647-.0312 1.024.0389-.3407.006-.6986.1157-1.024-.0389zm.4113-.5331c.7399.0333 2.371-.4015 2.504-.007-.8971.0574-2.154.2202-2.504.007zm-.405-.4121c.8497-.0911 2.545-.358 2.898-.122-.9489.1978-1.935.2094-2.898.122zm3.116 2.233c.5333.091 1.619-.5685 1.448.0497-.4794.0638-.9714.0188-1.448-.0497zm-.4356-.4548c.4274-.3569 1.894-.0614.7665.0652-.2521.0128-.5365.0722-.7665-.0652zm-.312-.4819c.5512-.2817 1.53.1438.4129.0875-.1174-.007-.3703.0883-.4129-.0875zm-2.384-1.792c.9066-.1565 2.398-.1893 2.967-.1987-.8759.4763-2.053.1256-2.919.2502l-.0396-.0148zm2.228 1.301c.4849-.2549 1.377.2282.3776.1179-.1081.0142-.8673.0431-.3776-.1179zm-2.257-1.805c.8866-.1036 2.518-.2648 2.955-.0795-.9304.1636-2.129.23-2.955.0795zm-.03771-.428c.7942-.1407 2.777-.3685 2.818-.1479-.8983.3162-1.887.1145-2.818.1479zm-.03682-.5594c.8523-.2379 2.666.0922 2.916-.4014-.889-.2905-2.141.3386-2.824-.0974.9949.0559 2.217-.491 3.093.0437-.2639.8492-2.369.5426-3.185.4551zm-.01537-.979c.9286-.0323 2.319-.2095 2.973-.0416-.948.0755-2.094.3149-2.973.0416zm-.02056-.4567c.8389-.2379 2.637.0652 2.876-.4113-.7487-.3496-2.673.3186-2.691-.1219.941.0529 2.128-.3488 2.902-.01.1133 1.146-1.525.2535-2.239.6487-.2854.013-.5814.0104-.8484-.1061zm-.01688-.9705c.8986-.1489 2.358-.134 2.939-.0924-.9439.149-2.005.2449-2.939.0924zm-.06911-.5312c1.004-.0571 2.275-.1671 3.116-.1191-.4746.4068-1.741.0544-2.545.2583-.1959-.0119-.3954-.046-.5702-.1392zm-.02796-.4559c.9958-.146 2.103-.1242 3.053-.1069-.6127.2613-1.893.1195-2.773.1832l-.1426-.0316zm-.0024-.4911c.5148-.2154 2.734-.005 1.116.0879-.3675.0249-.777.1032-1.116-.0879zm-1.925-1.877c1.068-.5591.7163.6224-.03098.0481zm1.923 1.412c.9429-.0443 2.28-.1713 2.976-.1487-.8135.3626-2.162.1435-2.976.1487zm-.0084-.5026c1.004-.1042 2.016-.0593 3.021-.1546-.8472.4488-2.323.1714-3.021.1546zm-1.313-1.369c.7461-.5881 1.233.4401 0 0zm1.317.9365c.9643-.1294 1.967-.2615 2.928-.0738-.9538.0762-1.999.1911-2.928.0738zm2.182 1.336c.5217-.5341 1.333.2292.2944.0817.01721-.0249-.6337.0969-.2944-.0817zm-2.219-1.817c.5174-.4242 1.68.1716.4718.0564-.1201-.0234-.4245.1378-.4718-.0564zm-.6938-.8932c1.109-.3364 2.424-.1984 3.592-.3073-.3911.5421-2.222.1478-3.164.3484-.1184-.017-.3538.1103-.4277-.041zm.6396.4452c.9235-.1672 2.347-.3687 3.007-.0656-.9893.0356-2.023.1578-3.007.0656zm1.315.3465c.5882-.0894 1.087.1683.1976.1112l-.1127-.0291zm-1.454-1.277c.7951-.6773 2.605.1736 2.984-.4835-.6728-.2422-2.34.3301-2.388-.236.7275-.0563 3.054-.5973 2.382.702-1.011-.1245-1.975.0665-2.977.0175zm2.628 1.28c.8655-.4943.6408.476 0 0zm-7.814 7.68c.2865-.4423.8666-1.926.8087-.5162.7309 1.452.9411-1.676-.324-.9011-.5884.4926-.7673.0809-1.369.0187-.2735.2804.6704 1.136.8841 1.399zm-2.289-1.788c.1431-.5178-.3328.2697 0 0zm9.798 7.312c.09859-.2216-.1904.0418 0 0zm-.2996-.4293c.01668-.1892-.1776.0706 0 0zm-8.81-6.615c.1553-.6606-.7687-.7066 0 0zm9.698 7.087c.02613-.1739-.1534.1487 0 0zm-2.489-1.858c.01668-.1892-.1776.0706 0 0zm2.415 1.477c-.3981-.2396.1644-1.357-.427-.7376-.97-.4179.2887.8766.427.7376zm2.209 1.676c-.01632-.2283-.2248.0505 0 0zm-12.7-9.57c.01668-.1892-.1776.0706 0 0zm.9066.6117c.3669-.2516.9052.4127.3807-.2828-.347-.6632-.686.2411-.3807.2828zm4.977 3.623c.04988-.1578-.1706.0729 0 0zm7.1 5.029c-.02761-.2625-.1994.0291 0 0zm-14.14-10.63c.8881.3645 1.274.1004 1.026-.7678.3976-.31 2.115.4864 1.111-.3269-1.262.3538-.8344-1.15-1.449-1.49-.6155.3208-.6428.993-.982 1.335.6232.4198-.2592 1.169.294 1.249zm.424-.7046c.02683-.9501.2261.8278 0 0zm.1255-.9315c.241-.7863.0062.7982 0 0zm5.242 5.648c.01668-.1892-.1776.0706 0 0zm1.712.8649c-.1753-.1244-.0101.2485 0 0zm-4.624-3.485c.4839-.3485-.4792-.2207 0 0zm10.3 7.514c-.1753-.1244-.01011.2485 0 0zm-9.875-7.541c-.2004-.2114-.02072.5346 0 0zm4.483 3.504c.3208-.3711-.4909.0193 0 0zm-1.362-1.089c.2046-.3345-.4375.0203 0 0zm6.724 4.987c.02096-.1833-.1377.0931 0 0zm-11.25-8.401c-.07742-.1563-.1533.1405 0 0zm10.07 7.484c.02097-.1833-.1377.0931 0 0zm-5.862-4.416c.02704-.2308-.338.1231 0 0zm6.869 4.72c-.0563-.9508-.6471-.2992-.1777.194l.1023-.0518zm-4.596-3.167c-.09613-.1684-.03168.2691 0 0zm-3.15-2.512c.5211.7148.6921-.3585 1.306-.4884.9444-.7879-.4716-.5933-.6236.0653-.875-.4873-.3527-1.397.2489-1.066-.5946-.1321-1.099-.8141-1.374-.1709-.9231-.6035.2107-1.231.8304-1.068.8814-.3014-.376-1.931-.05519-.7573.1131.8207-.4404-.6791-.743.2897-.6536.2652-1.028-.3484-.2416-.4859-.3681-.9784-1.074.7096-1.431-.4722-.5426.0295.1057.7438.182.6555.01749.584 1.088 1.317.1812 1.405-.4322 1.149 1.035.7739 1.399 1.527.373-.8702.4686.2816.1272.6021zm-.01549-.3213c.222-.1107.09987.3534 0 0zm-1.465-1.222c-.01939-.8036.5478.3917 0 0zm.8045.4918c-.3855-.6798 1.23-.2238.3088-.0492.01778.2584-.1692.1924-.3088.0492zm-.7201-1.778c.08371-.3223.1258.3654 0 0zm-.2534-.3754c.1245-.2869.1234.2928 0 0zm.8763.3875c.1911-.4963.6459.0536 0 0zm.916 3.046c.1141-.4631-.5229.2441 0 0zm1.797 1.281c.6766-.4457-.5212-.7693 0 0zm-2.981-2.16c.2339-.4686-.4619.005 0 0zm2.303 1.422c.01614-.3626-.4044.1097 0 0zm7.135 5.086c.08437-.506-.9278-1.358-.3612-.4012.1134.1749-.05154.6679.3612.4012zm-13.81-10.11c.02814-.4798-.4233.0786 0 0zm2.931 2.099c.06236-.3716-.3605.24 0 0zm3.9 2.612c.0867-.3176-.3557.0822 0 0zm-4.065-3.111c.5808-.6673-.4113-.029 0 0zm.6222.5216c.02803-.1708-.2186-.0105 0 0zm-.2265-.3369c.01033-.2526-.323.0483 0 0zm3.993 2.999c.2387-.3649-.3623-.0124 0 0zm-3.667-3.003c.03289-.3118-.2784.1216 0 0zm11.2 8.023c-.5007-.886-.5572-.2947 0 0zm2.281 1.536c.4607-.6974-.8064.037 0 0zm-14.06-10.48c.04987-.1578-.1706.0729 0 0zm1.984 1.461c.04497-.3757-.2729.0502 0 0zm1.291.9199c-.1466-.177-.115.003 0 0zm2.398 1.649c.03085-.2477-.3733-.1503 0 0zm-5.721-4.33c.4357-.022-.3012-.1809-.1717-.0577zm12.6 9.244c.6534.0403.09958-.5391.7894-.6622.8962-.1058.08531-2.098.01188-1.214.7725.2165-.8785 1.555-.2678.3906.4384-.949-.4771-.0715-.8-.5387.5574.3071-.0035 1.079.508 1.33-.4652-.1688-.9761.7277-.2415.6942zm-8.696-6.977c.3634-.6817-.2209-.8898-.5686-.9506-.4605-.5485-.2081.789.4145.4766.2397.1505-.2997.9065.154.474zm-1.485-.8847c.01668-.1892-.1776.0706 0 0zm.3392.0858c.3634-.2277-.4088-.0812 0 0zm2.527 1.822c-.02659-.2973-.172.1084 0 0zm8.767 6.326c-.04652-.3578-.4223.1851 0 0zm-14.11-10.45c.8209-.3947-.7682-.0849.000027-.00002zm-.4229-.4477c.1131-.725-.3408.5178 0 0zm1.663 1.076c-.2484-.38.06356.3758 0 0zm12.52 9.177c-.1248-.2271-.05096.345 0 0zm-9.244-6.906c.421-.2838.4851-.656.0026-.3319.05399.1046-.2395.3313-.0026.3319zm9.38 6.715c.1287-.4145-.345-.0651 0 0zm.9659.6585c.1177-.7157.4342-2.339.09527-2.468.1355.6471-.7473 1.983-.09527 2.468zm-2.504-1.876c.08253-.2888-.3479.0526 0 0zm-.648-.6022c.5786.3894 1.177-.3136.2515-.2328-.128-.005-.6463.0663-.2515.2328zm.6151-.0446c.1211-.261.1816.2804 0 0zm-10.8-7.544c.4676-.2887.722-.2542.5188.2288.8944.3725.3387-.6354.2504-.9089.5031.3279.3219-.3096.497-.519-.4901.1488-1.448-.2393-1.49-.1473.1719.373.04755 1.189.2236 1.346zm.06514-.6922c.2531-.3021.1401.1851 0 0zm.5053-.0484c.2936-.0282-.2053.197 0 0zm9.381 7.921c-.2617-.0654-.0052-.0902 0 0zm-6.909-5.12c.6314-.3939-.7106-.1537 0 0zm7.143 5.138c.4574-.0911-.4143-.1089 0 0zm2.554 1.859c.7227-.1979-.5014-1.615-.2384-.4632.01567.165.03705.4151.2384.4632zm-3.153-2.425c.07653-.4468-.3188.0416 0 0zm-6.639-5.055c.3761-.6512-.3919-.101 0 0zm7.111 5.3c.9214.3322 2.025.7701 2.757-.1338.02904-.4403.3533-2.04.5775-.8632-.3797 1.387 1.985 1.957 2.102.5636-.564-1.092-.9836 1.059-1.489-.1635-.4404-1.075.915-.8625 1.229-1.215-1.099-.4122-3.035-.2361-4.028.1112.4215.3893 1.819.2985.9758 1.228-.5163.8143-1.441.702-1.967.0412-.3841-.0948-.5601.2468-.1565.4321zm-7.696-5.829c1.738.2442-.9897-.7527 0 0zm8.931 6.585c.04987-.1578-.1706.0729 0 0zm-9.452-7.173c.01668-.1892-.1776.0706 0 0zm-.257-.2872c.3106-.6981-.832-.4927 0 0zm8.643 6.134c.3671.5513 1.202.0619.3732-.189.02954-.9738-.1733.8052-.3953-.2104-.3843-1.474-.5728.2874.02215.3994zm-.9357-.9176c.3012-.5809-.437.3197 0 0zm-10.2-7.522c.4193-.7315.7826-1.475 1.609-1.755-.3155-.7794-1.748-2.123-2.385-.8935-.7044.6837-1.11 1.431-.1222 2.022.2501.2659.5304.5361.8983.6264zm-.2572-.5663c.2912-.3279 1.041-1.893 1.272-1.289-.6002.2168-.8141 1.254-1.272 1.289zm-.6857-.5311c-.4559-1.048 1.017.94.1085.0964zm.6365-.1011c.2921-.8906.196.6346 0 0zm-.2544-.286c.08596-.3254.2488.2749 0 0zm-.2688-.3031c.1403-.8676.6881-.7087.2663.0178l-.03855.0272zm-.08428-.4023c.1216-.1038-.0921.1785 0 0zm1.016.4006c.1095-.3672.3023.3235 0 0zm-.2196-.2903c.3017-.5871.03054.4112 0 0zm-.1124-.6154c.7511-.4591 1.213 1.253.3425.2326-.04418-.1015-.3964-.0767-.3425-.2326zm3.038 4.79c.02487-.1767-.2016.1371 0 0zm1.539 1.192c.02804-.1708-.2186-.0106 0 0zm-3.676-2.761c.3257-.4688-.5343-.1704 0 0zm1.8 1.189c-.07742-.1563-.1533.1405 0 0zm11.04 8.116c.4178-.3162-.79-.2266 0 0zm-11.97-9.094c-.0056-.2737-.2125.1565 0 0zm10.33 7.425c-.0055-.4969-.3296.2156 0 0zm3.107 2.316c.415-.6978-.5452-.4007 0 0zm-12.21-9.098c.05034-.3186-.3619.0136 0 0zm.2774.1874-.06468-.0355zm12.79 9.256c.09853-.6756-.497-1.331-.1543-.2904.0052-.0214.08637.5407.1543.2904zm-13.29-9.845c.01152-.4972-.5834-.0635 0 0zm8.409 6.143c.4068-.3362 1.611-.0976 1.043-.9532-.691.1586-.2706-.0678-.4242-.5812-.2624.3112-.7346.1925-.2036.55.253.5236-1.429.2628-.4156.9843zm.8381-.5231c.3218-.1504.1414.1876 0 0zm-10.15-6.448c.2373-.6371 1.629-.4118 1.326-1.325-.805-.3995.8506-.1167.1229-.4376.6198-.0911.114-.5726-.1692-.0567-.8361-.1399-.6876.3735-.313.8039-.07789.9514-.9081-1.296-.853-.1162.7139.5806-.7979.343-.1785.8443-.09473.1637-.3718.4323.06449.2872zm.4416-.968c.185-.1578.01477.1931 0 0zm.07436 1.441c.2173-.4493-.487.0882 0 0zm-3.664-2.864c.06161-.2538-.2938.2742 0 0zm2.856 2.162c-.06954-.4014-.3153.1618 0 0zm1.334.3868c-.1883-.4646-.2305.4091 0 0zm7.656 5.627c-.09435-.5966-.2864.1564 0 0zm6.159 4.331c.3662-.5567-.2709-.2082 0 0zm-14.82-11.12c.07987-.1752-.2947.1194 0 0zm14.85 10.59c-.07716-.4731-.1286.3674 0 0zm-5.836-4.302c.07786-.4554-.3196-.238 0 0zm-.8372-.9552c.03289-.3118-.2784.1216 0 0zm3.047 2.131c.7754-.2052 2.589.373 2.681-.4757-.9262-.3799-2.431-.1679-3.107.201.0398.1768.237.3591.4264.2747zm3.61 2.729c.03396-.5269-.3065.0721 0 0zm.4103.2109c-.1987-.6644-.3971.0863 0 0zm.2332.2649c.1674-.3202-.3303.0458 0 0zm-6.531-4.951c.7265-.4634.9417 1.027 1.036.1526.1422-.7937-1.922-.2001-1.036-.1526zm-8.703-6.513c.2399-.379-.4266-.0373 0 0zm8.101 5.868c.2813-.3911-.3915-.1366 0 0zm7.282 5.128c.4852-.6164-.4666.2466 0 0zm-5.268-4.065c.04079-.4851-.4362.079 0 0zm-10.03-7.55c.4315-.484-.5283.2374 0 0zm14.84 11.09c.1064-.4047-.2904.0907 0 0zm-4.315-3.258c.2326-.5116-.2492-.7768.1328-1.003-.9623-.1694.8651-.3334-.0078-.782.8649-.308-.3801-.6738-.2335.2031-.9433.1245-.8903.7837-.1835 1.308l.1061.101.1858.1728zm-.4781-1.005c.1705-.3064.1145.2892 0 0zm-1.055-.2281c.6074-.4169-1.208-.8811-.2732-.1879.06314.003.1667.334.2732.1879zm1.951 1.333c.02097-.1833-.1377.0931 0 0zm.3123-.003c-.08517-.2878-.3398.1976.000046-.00005zm3.132 2.131c.4655.2956 1.488.1482.4635-.0353-.1355-.4701-1.086.2205-.4635.0353zm-5.438-3.979c1.313-.008-1.565-1.329-.4012-.2266l.1965.12zm2.082 1.426c-.2175-.7091-.1396.301 0 0zm.6823.3699c.4324-.5139-.4229-.2013 0 0zm-.7409-.7452c-.02141-.2503-.217.0441 0 0zm-.9687-.8293c.543-.574-.0048-1.196-.139-.3-.09387.1213-.0481.3161.139.3zm-1.687-1.321c.4174-.0871 1.284.3953.7525-.3816-.5658-.1235-1.331-.6549-.7525.3816zm3.52 2.378c-.01632-.2283-.2248.0506 0 0zm-9.816-7.413c.1064-.4047-.2904.0906 0 0zm-1.583-1.404c.8269-.1749-.6873-.0386 0 0zm2.032 1.472c.9777.0156.2086-.8829 0 0zm10.25 7.471c.485-.0186 1.811-.5266.6385-.4882-.08196.1148-1.339.401-.6385.4882zm3.137 2.378c.04987-.1578-.1706.0729 0 0zm-4.314-3.376c-.03322-.3516-.2277.1746 0 0zm-10.68-7.965c.5935-1.431 2.09-.6288 3.155-.9511.2751-1.06-1.854.3908-2.192-.6746-.6002.2023-.9216 1.11-1.091 1.603zm1.49 1.107c.03903-.323-.2614.126 0 0zm5.848 4.282c-.01489-.1931-.1851.158 0 0zm2.118 1.385c.1918-.2302-.3908-.022 0 0zm-7.18-5.371c.04162-.1609-.223.0512 0 0zm9.262 6.806c.03447-.3989-.2832.003 0 0zm-3.027-2.376c.5108-.5893 1.359.1948 1.279.2779.204-.7796-1.072-1.8-1.471-1.662.284.5651 1.191.8755.1718 1.098-.1941.0532-.3013.3336.02047.2862zm-.5308-.4041c.05705-.2417-.2165.1242 0 0zm5.61 4.114c.8237-.5573-.5301.0232 0 0zm-12.35-9.221c.3287-.2779-.4939-.1676 0 0zm10.28 7.568c-.05033-.5598-.3199-.01 0 0zm3.663 2.64c.02488-.1768-.2016.1371 0 0zm-4.277-3.33c.6749-.3095-.8003-.0439.000025-.00003zm1.129.8318c.0312-.3347-.4114.1531 0 0zm-1.434-1.057c.01668-.1892-.1776.0706 0 0zm4.714 3.364c.07296-.5535-.4724.1315 0 0zm-4.379-3.466c.03204-.4987-.61-.2275 0 0zm-3.21-2.762c.02995-.2359-.2264.118 0 0zm-.7464-.5963c.4502-.021-.8306-.278 0 0zm3.789 2.821c.1392-.4126-.2865-.0742 0 0zm-6.521-4.934c.6412-.4809.04749-1.994-.1866-.6442-.02779.2126-.06275.5392.1866.6442zm3.728 2.583c-.04209-.3375-.3483.201 0 0zm4.016 2.859c-.1472-.4916-.1696.1686 0 0zm-2.01-1.501c.1544-.3508-.3102.008 0 0zm1.388.8539c1.23-.9436-.7933-.0133 0 0zm-1.463-1.198c-.0106-.6407-.5691.1475 0 0zm.7716.6972c.01668-.1892-.1776.0706 0 0zm.2586.1585c.3742-.6163-.5546-.2998 0 0zm-.5713-.7232c.485-1.433-.7342.1749 0 0zm1.756 1.401c.02619-.4586-.3229.0476 0 0zm-3.958-3.088c.2791-1.263-.7943-.3599 0 0zm3.663 2.79c-.01632-.2283-.2248.0506 0 0zm-1.058-.857c.04346-.2466-.2228.1121 0 0zm-9.686-7.183c.04419-.3603-.279.1252 0 0zm7.625 5.433c.3559.1515 1.201.9997.6719.0706-.8566-.3557.4858-1.436.09711-.3864.2829.287.5483.9169.3885.0344-.0083-.9209-.9382-2.328-1.636-2.267-.9237-.6821-1.325 1.067-.2956.2393.5731-.2051 1.474.7907.8028.9199-.0542-.8998-.4375.3622.05213.6062.4187.3258-.7932 1.039-.08104.7833zm.3644-1.041c.3606-.2225-.1159.3116 0 0zm.2818-.1016c.1194-.3335.07046.3993 0 0zm-.2235-.7026c.1377-.0931-.02097.1833 0 0zm-5.74-2.386c-.3571-.3554-.5738.2799 0 0zm9.951 7.381c.7876-.8345 1.633 1.503 1.281.009-.09022-.3286.8279-.7192.1083-1-.4949 1.081-1.026-1.207.1127-.7165.1839-.9236-1.043-.7689-1.204-.8589-.3692-.5403-.8212-.0551-.3361.3156-1.028.4395.4544.6139.4694.8556.6788.773-.5431 1.532-.7384.4828-.1864-1.141-.5138 1.509.3071.9126zm-6.104-4.364c.02031-.3896-.3375.0801 0 0zm-.4178-.5092c.237-.0765-.481-.0311 0 0zm.7493.55c-.07436-.3522-.07343.2232 0 0zm-1.221-1.08c1.115.3253.01166-1.216-.2734-.1376l.04656.0549zm5.114 3.774c.5956-.3062-.6191-.9642-.1595-.0447l.0291.0617zm4.136 2.994c-.06798-.2841-.2584.0543 0 0zm-12.03-8.932c-.0596-.3012-.2348.0996 0 0zm.5402.3574c.04966-.4575-.6358-.0463 0 0zm3.976 2.672c.4467-.883-.4439.3507 0 0zm2.589 2.014c.4454-.5448-.7718-1.136-.1699-.1586-.0044.0899.07872.1774.1699.1586zm-5.415-4.051c-.04945-.7191-.4074-.2907-.000059.00008zm.8849.6333c.3569-.2925-.3764-.0271 0 0zm9.27 6.618c.1368-.2724-.3353.262 0 0zm-8.419-6.168c.02097-.1833-.1377.0931 0 0zm5.157 3.74c.2857-.2428-.4875-.0461 0 0zm-5.867-4.623c-.01523-.2267-.1431.0861 0 0zm.2291.1432c.03903-.323-.2614.126 0 0zm1.577 1.176c.6378.3276-.4013-.5049 0 0zm6.912 5.107c.01668-.1892-.1776.0706 0 0zm-4.698-3.745c.03909-.5426-.3675-.2649 0 0zm-4.759-3.526c.1336-.3221-.2762.0839 0 0zm5.026 3.56c-.2139-.2066-.04408.22 0 0zm-4.848-3.591c.5344.2635 1.346-.3406.36-.2676-.2842-.7667 1.256-.1208 1.028.5362.186.5466 1.506.7999.8572-.033-1.007.1575-.4274-.9843-.9998-1.074.4128-.2254 1.246-.5733.3629-.91-.5966.0466-1.755-.7797-1.401.482.02312.4183-.7449.9366-.2072 1.267zm.3297-.9831c.3662-.5353.593.6056 0 0zm.2542-.4687c.6676-.5759 1.289.8762 0 0zm3.581 4.44c-.07112-.1343-.1101.0235 0 0zm-.6906-1.271c.02794-.1708-.2185-.0106 0 0zm1.592 1.142c.4358-.2068 1.516 1.341 1.009.2932.1533-.6229-.236-.6285-.5596-1.051.8426.3444 2.344-.4578.827-.9443-.6184-.2188-.4906-1.407-1.342-.8881.4728.209.9536.9759.1162.3521-.4665-.2465.05133.5252-.4765.1692-.4225.0177-.01099.5444-.5363.6156.4063.3443 1.3.5974.4885 1.111.09537.1864.3065.2444.4739.3421zm.03237-.4277c.4372-.3559.2097.7237 0 0zm-.04956-.7113c-.5518-.4105.4995-.339.5364-.5771.4419.1888-.2706.8098-.5364.5771zm.6728.0513c.1767-.5511.4851.6139 0 0zm.4449-.1251c-.01911-.8014.6514.7072 0 0zm3.361 4.385c.3212-.4729-.4542.1379 0 0zm-2.858-2.398c-.1556-.5486-.2283.2072.000016-.00003zm1.37.6543c.133-.1824-.1851.0312 0 0zm1.049.2779c-.263-.1695-.1438.2239 0 0zm-7.761-6.41c.04987-.1578-.1706.0729 0 0zm.9029.3832c.05705-.2417-.2165.1242 0 0zm-7.003 20.64c.1769-.0623-.0061.2226 0 0zm-7.975-6.521c-.1898-.5494-.5757-1.851-.4648-1.976.01256.4994.7248 2.106.4648 1.976zm9.688 6.962c.1535-.0988-.0025.2217 0 0zm-3.13-2.542c.01724-.5036.3172.3937 0 0zm-.4882-.5422c.3082-.432.09546.4902 0 0zm.4033-.1518c-.2268-.8973.5461.1439-.000266.0137zm4.157 2.346c-.5557-1.24 1.297-1.304.5943.006-.1267.2388-.4783.2588-.5943-.006zm-3.982-3.171c.5779-.6193.1524.4092 0 0zm2.473 1.724c-.3088-1.049 1.927-.2042.4543.1002-.157.2605-.439.2049-.4543-.1002zm-9.682-7.132c-.02922-.4278.08154.4624 0 0zm14.06 10.36c.3683-.1414.1048.0821 0 0zm-5.43-4.551c.3395-.1346.5274.4018 0 0zm5.478 3.173c-.15-.3934.5624.5248 0 0zm-14.16-10.6c.01581-.566.1263.4178 0 0zm11.51 8.424c.2467-.4206.2695.455 0 0zm-.2962-.3152c.2248-.0506.01632.2283 0 0zm.3543-.1689c.1672-.2611.06966.25 0 0zm4.502 1.904c.185-.1578.01477.1931 0 0zm.5991.3491c.5897-.8075.6685.4534 0 0zm3.66-2.45c.1776-.0706-.01668.1892 0 0z" fill="url(#b)"/><path d="m42.1628 22.613c-.3733-.5097 1.332 1.086.1679.1437-.05687-.0467-.1123-.0959-.1679-.1437zm.7704.5752c1.292.8066 2.637 1.585 4.13 1.957-1.401-.1614-2.635-.981-3.815-1.697l-.1635-.1254-.1513-.1343zm-1.618-1.389c-.667-.7611.7452.6688 0 0zm.398.3413c.31.0871-.01739.1069 0 0zm-1.118-1.234c.2546.07-.09261.0579 0 0zm.8083-1.016c.02585-.6119-.7851-1.077-.7579-1.526-.6409-.1929-.2812-.7751-.3171-1.355.7982-.4068 2.41.4333.864.827-1.042-.7294-.3956.6375-.05199 1.032.2629.948.6779-.7942.6465.1788.2146-.9043.5388.2166 1.148.1059-.08515.6183-.8538.9174-1.107.5997-.01106.1753-.346.3674-.4242.1373zm1.063-.5332c-.1753-.1244-.01011.2485 0 0zm-.2801-.2204c.01668-.1892-.1776.0706 0 0zm-1.596-1.947c-.01632-.2283-.2248.0506 0 0zm.6868.3137c.02511-.586-.4698.1241 0 0zm1.031 3.003c.504-.302.06388.3754 0 0zm3.395 2.509c.3165-.2657.5306.1527 0 0zm-.1644-.1995c.1912-.3575.1026.3825 0 0zm-2.246-1.908c.3762-.1584-.01647.3332 0 0zm3.881 2.763c.4189-.364.1861.2267 0 0zm-1.374-1.067c.5721-.2071.1592.4482 0 0zm-3.259-2.467c.4444-.3844.4428.531 0 0zm.5058.3944c.2818.045-.1207.1583 0 0zm3.329 2.169c.5483-.1247.01703-1.077.7345-.5049.2342.3792-1.243 1.063-.7345.5049zm.5809.3608c.7701-.8444.5924.6614 0 0zm.6978.5325c.04197-.4121.3429.4237 0 0zm1.013.4581c-.2685-.562-.3272-1.563.2099-1.603.1137.2727.1109 2.243-.2099 1.603zm.05714-.8651c.04987-.1578-.1706.0729 0 0zm-8.677-5.703c.2394-.2713-.1484.3453 0 0zm3.144 2.313c.2389-.0985-.03423.2933 0 0zm-.3088-.2325c.2984-.2676.5897-.8564 1.012-.3355-.57-.1602-.4.9028-1.012.3355zm-1.134-1.121c-.03718-.9086.6416-.1163 0 0zm8.091 5.578c.7055-.2635.8469-1.053.5692-1.364.2704.6049.3926.2566.7641.1504.2265.1519.809-.1255.6259.6073.1561.3074-.2096 1.199-.4901.5315-.2904.5648-1.066-.0832-1.525.1746l.05617-.0999zm.5081-.2288c.04346-.2466-.2228.1122 0 0zm.385.2355c.03252-.1707-.1542.00033 0 0zm.6456-.2128c.4525-.5701-.423-.206 0 0zm-.09148-.481c1.141-.195-.7155-.2912 0 0zm-11.45-6.697c-.3732-.5405.432-1.222.1911-.2262.1519.2448.07099.5622-.1911.2262zm9.49 6.933c-.5136-.9443.9547-1.346.575-.172-.04612.2559-.4216.4763-.575.172zm.3555-.0391c.4357-.4375-.2404-.3172 0 0zm-.04612-.5174c.5853-.008-.4851-.2119 0 0zm-7.086-4.784c.2147-.5951-.3931-1.513-.3754-1.587.1106-.343-.3861-1.029.2472-.4072.09694.653 1.311 1.039.5025 1.292.01605.2416-.0596 1.79-.3743.7022zm.1808-.6911c-.0056-.3149-.3801.1236 0 0zm7.689 6.696c.18-.1093.02373.2917 0 0zm-6.163-4.782c.09218-.2451.2083.2249 0 0zm-.2423-.2954c.8175-.0841-.7565-.4758.2214-.3228.5441.0674 1.319.3701.3593.3578-.1328-.0124-.5857.2813-.5808-.035zm-4.709-3.53c-.03225-.6215.2208.5369 0 0zm1.098.842c-.07476-.7291.9225.3823.000879.003zm1.724 1.011c.7024-.1004-.1852.1693 0 0zm1.364.6004c.3598-.9741.0079.7768-.000028-.00002zm-3.169-2.222c.5936-.8269-1.548-.808-.2761-1.082.6034-.485-.9227-1.486.3098-1.334.3811.656.3313 1.436.3878 2.08.2338-.2637.7707.1877.3464.4538-.2621-.3286-.6424.3314-.7679-.1178zm.1338-1.123c-.07384-.1702-.2036.04 0 0zm6.198 5.647c-.2428-.5713.148-1.526.1641-.4187.09377.3522.3907.9858-.1641.4187zm-7.459-5.551c.1776-.0706-.01668.1892 0 0zm.8577.4782c.1612-.1037.03871.288 0 0zm3.298 2.306c.02273-.4308.3932.4415 0 0zm3.985 2.965c1.067.109 2.3-.4421 3.241-.1311.318.7884-.748-.1351-1.275.3595-.6638-.2731-1.434.3399-1.966-.2284zm-1.98-1.562c-.09173-1.12.5233-.0412.8627.1144-.145.0646-.9584.1423-.8627-.1144zm-3.801-2.986c.3184-.0985.01073.3343 0 0zm8.67 6.441c.1477-.3692.2292.1814 0 0zm-6.611-4.931c-.09399-.2662-.3802-1.331.2069-.8787-.2328-.7332.2764-.7045.1459-.0207.4843.7053.4425.844-.3527.8994zm-4.673-3.515c.3689-.2589.2232.4598 0 0zm5.717 4.096c-.6802-.6144.9186-1.236.4712-.794-.6836-.1351.1047 1.683-.4712.794zm5.383 3.883c.1881-.0791.03346.2242 0 0zm2.458 1.661c-.301-.6277-.5022-1.574.3262-1.296.1521.4096.5896 1.113.5974.299-1.17-.5452.1278-1.567.3203-1.779.05954.5592-1.025 1.136-.03309 1.548.5486-.7054 1.393.0883.4571.4089-.4834.0103-.5694.9239-.5309.3126-.7434-.1168-.7329.2146-.3692.6725-.2574.0237-.5309-.2878-.7677-.166zm.268-.2202c.2696-.2984-.3901.1065 0 0zm-.2372-.17c-.01632-.2283-.2248.0506 0 0zm-13.47-9.62c-.3097-.3912-.1573-1.299.3111-.5953.3808.0449 1.244.2488.3844.3227-.02939.362-.4642.7156-.6955.2726zm.2871-.2249c.02279-.6875-.4536.3094 0 0zm7.475 5.63c.8009-.2617-.5392-.6062-.3229-.8607.1251-.5865.4158.1484.3757.0709.4342.7075.3087.1873.5576-.1986 1.011.4063.07739 1.148-.6103.9884zm4.569 3.344c-.7351-.9278.8483.1317 0 0zm-8.527-6.541c-.8534-.6861.8682-.5568 1.146-.3952-.345.0346-.7068.3326-1.019.537zm5.164 3.844c.5339-.1399.0515.1586 0 0zm-2.287-1.909c-.8132-.5767.8536-.5899.1126-.3563-.1206.131.2009.9636-.1126.3563zm-1.172-.8257c.1738-.3711.06535.4088 0 0zm8.757 6.408c.2998-.13-.03639.2487 0 0zm-12.58-9.356c.331-.3214.257.4172 0 0zm.4332.3387c.2219.0363.004.109 0 0zm3.369 2.226c.05989-1.166.5892 1.109 0 0zm-2.13-1.458c.1049-.7264.7823.3672 0 0zm8.16 5.836c.2128-.0701-.0089.1862 0 0zm-11.51-8.745c.2303-.857.3577.8589.000003 0zm9.881 7.438c.213-.0666-.05083.1744 0 0zm-3.909-2.93c.1582-.1604.03999.2414 0 0zm-4.432-3.349c.4781.1345-.3517.0297 0 0zm1.152.8504c.2165-.1242-.05704.2417 0 0zm4.646 3.425c.3931-.3824.1689.5674 0 0zm2.429 1.531c.9107-.0942-.7004.1813 0 0zm2.022 1.595c-.5226-.7937 1.745-.6171.9772-.0456-.1127-.9281-.7436.772-.9772.0456zm-7.935-5.875c.01967-.569 1.101 1.058 0 0zm-1.449-1.11c-.1714-.4118.3617.2893 0 0zm-.8543-.9267c-.7228-1.212 2.361-.4367.7658.1097-.1994.1076-.7361.2417-.7658-.1097zm7.432 5.538c.1625-.5402-.752-1.185-.209-1.681.2386-.4526.08482-.9109-.3743-1.315.3502-.1468.1837-1.146.04474-1.187-.9136-.4212.6777-.1492.229-1.003-.1699-.5083.3244-1.351-.6239-1.161-.02417-.5855.9709-1.085-.05721-.8576-1.382-.2119 1.334-2.119.9344-.6095.07368 2.537.245 5.071.3346 7.608.03793-.0201-.275.5009-.2784.2061zm-.1429-4.69c.05286-.6038-.2505.4357 0 0zm-.2845-1.954c.4469-.1768-.786-.3385 0 0zm.2652-.267c.1669-.5516-.4139-.26 0 0zm-.2064-.7614c.01033-.295-.2524.1746 0 0zm2.34 8.861c.5727.01-.443.1229 0 0zm-1.14-.8862c.6943-.0152-.4452.111 0 0zm-8.912-6.55c.1921-.2543-.000175.3212 0 0zm12.68 9.31c-.04592-.7516.3259.5995 0 0zm2.189 1.468c.161-.3804.3303.2647 0 0zm-4.472-3.338c.3047-.1684.2686.1706 0 0zm-1.127-.9133c.1776-.0706-.01668.1892 0 0zm.7013.4595c.5556-.1563.8103.1352 0 0zm.7602.4214c.2178-.1744.8572.0907.2574.0471zm3.149 2.154c.3513-.0421-.2371.1615 0 0zm1.167.705c.4263-.7555-1.67-.7021-.4334-1.172.7262-.2679.9591.7306 1.143.7892 1.456-.5483-.2875 1.086-.7098.383zm.1022-.6439c.6139-.3332-.7461-.1359 0 0zm.08661-.2867c.09404-.3849-.2418.0981 0 0zm.1203 1.298c.2879-.2998.0545.3903 0 0zm-5.44-4.143c.5126-.1203.3134.1467 0 0zm3.259 2.38c.03581-.3411.1659.411 0 0zm-.7095-.6009c.07249-.7438.1703.6141 0 0zm-1.745-1.319c.3911.005-.2548.0693 0 0zm-1.147-.9369c.4554-.1378.1892.1769-.05267.0644zm-8.813-6.563c-.1348-.7809-.1921-1.916-.9965-1.831.2307-.2848.2876-.6719.457-1.176.627.2274.6206-.1178.2292-.3178.5511-1.381 1.705.7555 2.511.9935.2178.4917-1.183-.1267-.9779.8178-.4389.5229-.8082-.7366-.8717-.5158.0606-.7939-1.731.0853-.3465.2071.6963.3119-.5139 1.297.5334 1.018.8919.1499-.2479 1.04.3989.6968.4242.6234-.8245.3802-.9368.1072zm-.4709-2.421c.5493-.1878-.4353-.4005 0 0zm1.399.7213c.1656-.1803-.2957.0675 0 0zm-.763-1.714c.06205-.2814-.2479.1173 0 0zm12.02 12.43c-.7932-.453.8254-.4603.03328-.0411.1754.0607.04531.2783-.03328.0411zm.2459.0862c.3625-.1661.2519.3301 0 0zm-3.834-2.963.06201.0271zm-9.654-7.344c.3787-.8089.1197.7748 0 0zm9.314 6.864c.213-.0666-.05083.1744 0 0zm.6709.4514c.5424-.1639.6007.1615 0 0zm-2.155-1.648c.3566-.1791.2105.4481 0 0zm1.796 1.194c.5029-.082 1.601-.0356.4674.026-.03518-.0211-.6943.0727-.4674-.026zm4.12 3.068c.8894-.3607.7967.5357 0 0zm-1.03-.8037c.3192-.1859.04991.1518 0 0zm-5.972-4.463c.1769-.0623-.0061.2226 0 0zm5.475 3.985c.3947-.0964.2481.0942-.02547.037zm-1.668-1.352c.5807-.1378 1.426.0289.3506.0326-.005-.0347-.4495.1003-.3506-.0326zm5.393 3.966c.5866-.6695.1587.521 0 0zm-4.1-3.071c.5855-.2274.05448.2409 0 0zm-.3586-.4727c.5168-.0338.8655.0793 0 0zm1.188.908c.5973-.2014.5103.2114 0 0zm1.903 1.417c.4058-.3976.3053.6017 0 0zm-4.879-3.659c.477-.1368 2.242-.0664.8945-.003-.298-.0132-.6029.1137-.8945.003zm6.196 4.509c.3807-.1874.05024.3334 0 0zm-13.5-9.937c-.03118-.3859.2224.1712 0 0zm9.842 7.223c.3287-.1224.08076.2259 0 0zm4.266 3.114c.2592-.383.1533.3556 0 0zm-7.139-5.393c.8561-.0927.5204.1262-.1375.0235zm4.313 3.153c.213-.0666-.05083.1745 0 0zm1.082.7104c.2234-.3048.3505.4011 0 0zm-3.82-2.962c.4542-.1628 1.717-.00026.5237.0265-.1724-.0391-.3673.0873-.5237-.0265zm-1.775-1.361c.4287-.2065.2608.1838 0 0zm5.483 3.914c.2545-.4398.1339.5166 0 0zm1.03.8615c.1543-.00041-.03252.1707 0 0zm1.936 1.187c-.3034-.4332.4344.2474 0 0zm-5.548-4.206c.5873-.005-.2867.1489 0 0zm-1.819-1.363c.5632-.1858-.09342.281 0 0zm-1.099-.8846c.7044-.1678 1.126.0886.169.0544l-.1031-.00065zm4.124 2.987c-.5358-1.465 1.159.9012 0 0zm1.314.8407c.06811-.3272.1006.2241 0 0zm-3.897-2.954c.5684-.1756.8953.2105 0 0zm7.371 5.357c.2165-.1242-.05705.2417 0 0zm-15.28-11.45c-.3522-.6988 1.017-.1908.1705.034-.0255.2038-.2045.0639-.1705-.034zm7.605 5.639c.5672-.1502 2.44-.0572.8909-.004-.2966.006-.5959.0585-.8909.004zm1.191.926c.2788-.1818.9175.0603.254.038zm6.24 4.519c.2743-.7305.3022.5847 0 0zm-4.831-3.622c.1104-.4391.1428.3605 0 0zm-3.629-2.768c1.037-.2952.3357.281 0 0zm2.098 1.365c.6649.0246-.4038.09 0 0zm-1.23-.8926c.4346-.2005.8023.1756 0 0zm7.374 5.449c.2248-.0506.01632.2283 0 0zm-8.477-6.403c1.026-.0882.2921.2032 0 0zm3.829 2.814c.1607-.309.2076.3572 0 0zm.4115.2638c.2984-.3144-.07503.3498 0 0zm4.584 3.248c-.1043-.749 1.056-1.067.5035-.156-.07275.0949-.4289.4303-.5035.156zm-5.905-4.513c.6435.0475-.4508.1142 0 0zm1.23.972c.4619-.2936.199.3672 0 0zm1.824 1.364c.4576.4444 2.073-.5458.908.3359-.3371.1308-.6912-.0916-.908-.3359zm-7.866-5.892c.2898-.3837.1835.4941 0 0zm2.955 2.225c.1609-.226.7385.0462.2317.0372zm-1.047-.9514c.7012-.2333.7037.2406 0 0zm1.844 1.407c.4296-.1966 1.349-.003.3801.005l-.1912.0135zm-1.106-.9418c.3396-.0981.4429.1666 0 0zm3.137 2.306c.1542-.00034-.03252.1707 0 0zm3.238 2.356c.2058-.3163.2141.4148 0 0zm-1.265-1.052c.3074-.1655-.0734.3305 0 0zm-8.954-6.582c.2468-.2494.1208.3508 0 0zm4.859 3.413c.4399-.1746 1.806-.006.5675.0195-.1711-.0712-.4444.1507-.5675-.0195zm5.77 4.223c.3178-.0644-.07418.237 0 0zm-8.909-6.578c-.0179-.3808.2946.1547 0 0zm1.31.9286c.3257-.1002.0019.2938 0 0zm-7.819-5.796c.1542-.00032-.03252.1707 0 0zm14.21 10.33c.5956-.5836-1.441-1.433-.2318-1.424.5816.3895 1.65.1897.9298 1.175-.1322.2058-.4567.4978-.698.2496zm-12.06-9.141c.01208-.6424 1.614-1.944 1.152-.6883-.3339.4275-.8889.4024-.6678.8683.167.2217-.8462.1007-.484-.1799zm.9534-.7991c.04988-.1578-.1706.0729 0 0zm-2.99-.6162c.3654-.7706.364.4404 0 0zm17.59 12.88c.01788-.4732.1741-1.463.3477-.5403-.1004.0729-.1754.9508-.3477.5403zm-16.54-12.14c.2546.07-.09261.0579 0 0zm3.912 2.778c-.3593-.8402-.7554-1.754.2376-2.199.5545-.3603.2233.4736-.2471.4654-.3357.6032.8753 1.783.5241 1.95-.03517-.3943-.577.0237-.5146-.216zm.1079-.3953c-.2077-.428-.2416-.0331 0 0zm-.1976-.4965c.1335-.3221-.2762.0837 0 0zm3.386 3.425c.4015-.1784.5688.1648 0 0zm.7405.4584c.5314-.1004-.288.1271 0 0zm2.547 1.968c-.1946-.6106.3685-.9945.2393-.1818.5227.1383.06905.5232-.2393.1818zm4.085 2.829c.3687-.3537-.7122-.3843.1599-.7222-.3875-.4906.2538-1.764.2675-.5376-.1856 1.412 1.201.8972 2.017 1.071.1051.897-1.083-.01-1.591.6193.1272-.6003-.6981-.5122-.9033-.2564l-.04039-.0793.09016-.0951zm2.158.076c.05563-.5156-.46.2378 0 0zm-4.083-1.373c.2604-.2549.08257.1969 0 0zm2.201 1.616.07486.0232zm-8.056-6.066c.5883-.1899.5154.2038 0 0zm10.07 7.452c.2364-.4151.2754.2432 0 0zm-8.163-6.064c.7684-.2413.619.1605 0 0zm7.549 5.327c.2165-.1242-.05704.2417 0 0zm-7.861-5.809c.6014-.1616.5575.1297 0 0zm7.579 5.545c-.07302-.6568.4704-.141 0 0zm-16.67-12.41c.6758-.6618-.5371-.1156.05399-.6207 2.272-2.894 6.07-4.602 9.766-4.208 4.489.3415 8.563 3.57 9.898 7.838.6356 1.992.7975 4.213.166 6.217-.1179-1.043.1919-2.152.1162-3.245.1962-.8003-.2102-.6229-.4015-1.3.968-.4718-1.147-1.934-.5176-2.29-.5845.324-1.395.0235-1.726-.1118.1269.4536.1532.7867-.192 1.003.2217.548 1.248.1619 1.059 1.019.09052.9467-1.196-.0397-1.022-.344-.5209.8263.2546 1.853 1.074 1.07.3051.3086.9986 1.348.7509.2598-.163-.4818.814-.4176.1498-.0576 1.196-.0696-.5306 1.076.3035 1.074.05055-.653.698-.0391.1023.2583.3182.6608-.3521 1.392-.2909 1.894-.8829-.4203.4076-1.224-.7285-1.262-.638.0105-.3856-1.804-.7469-.6672-.2476-.7049-1.349.0205-1.116-1.033.02587-.5308-.5951-1.05.1529-1.1-.3143-.2256-.8127-.4876-.000942-.4171.1165-.4738-.1215-.9318.1808-1.126-.483-.3597-.2493-.1116-.5698.1667-.255-.4131-.6744-1.207-.5356-.2621-.5403-.4454-1.005-1.518-1.076-1.952.5292-.3057 1.838 1.347 1.759.5898-1.248-.7065.2762-1.293.6084-1.809-.4808-.4494-1.2-.9526-1.576-1.488-.9818-.5018-.429.9958-1.268.6131.3706.395-.8179.6332.08763.9134.757.1642.1875.7739.1535 1.1-.2398-.5122-.968-.3512-.6537-1.071-.1052.1978-.9294-1.191-1.344-.4476-.9335-.2695-2.03-.5738-2.648-1.182.4318-.0337 1.621-.1112.5804-.4275-.4716-.6106 1.017.043.9525.6329.1407.8718 1.705.5504.684-.109-1.365-.3136.08651-1.374-.03108-1.862-.6095.0444-.6282-.7274-1.213-.2438-.0071-.6462-1.333-.4115-.7096.3292-.1159.5095-.55 1.741-.6126 1.787-.3643-.5539-1.848.5468-.9658-.3376-.7847-.2605-1.219-.7356-1.236-1.605-1.164-.3234.7084.6619-.4942.8317-.5394.3619-2.09-.3248-.9004-.3797-.3803-.2301-.7871-.6189-.06992-.394.3448.5808 1.296.4924.4397.006-.2321-.7983-1.609.0911-2.16.4616-.0045.7183.2486.246.577.306.1602.8266-2.097 1.323-.6397 1.478.9318-.1108-.8587 1.706-.3335.5087-.7246-.3476-.4416 1.838-1.185.7059-.8339-.7706-1.732-1.45-2.3.0276-.08987.1117-.1945.243-.3501.2605zm1.453-1.543c.08417-.3621-.5828.0687 0 0zm.8412.1996c.1437-.5096.7214.2114.4934-.3375-.2087-.1575-1.204.1782-.4934.3375zm-.3926-.5267c-.07113-.1343-.1101.0236 0 0zm.0066-.2458c-.02204-.3097-.2372.1007 0 0zm.534.219c.03836-.8057-.5951.0118-.02221.0161zm.7724.226c.03905-.3475-.3161.2061 0 0zm-.8064-.8322c-.1801-.3654-.1932.2202 0 0zm.18-.0592c.1357-.3447-.2649.1502 0 0zm.8199.2637c.2813-.422-.3273.0685 0 0zm13.7 8.239c.02704-.2308-.338.123 0 0zm1.57 1.097c.08967-.5879-.3612.1967 0 0zm.7324.4384c-.09428-.3508-.1172.1467 0 0zm-1.748-1.584c.1801-.5167-.3593.362 0 0zm1.688.8551c.1729-.6038-.4463.4215 0 0zm-.1344-.7755c.05705-.2417-.2165.1242 0 0zm-11.18-8.902c.1643-.4212-.2806-.0361 0 0zm.5404.3008c.2945-.2132-.4235-.0377 0 0zm-.3048-.5482-.1437-.095zm7.225 5.307c.1868-.413-.2885.0541 0 0zm-5.054-3.934c.0387-.1901-.2997.1452 0 0zm-1.582-1.191c.3262-.627-.3307.0747 0 0zm-.816-.6332c.489-.1294-.2935-.1986 0 0zm11.88 8.651c-.01869-.2366-.4745-.1112 0 0zm-4.238-3.172c.0533-.2028-.288.0619 0 0zm-6.975-5.194c.6014-.7541-.8294-.4544 0 0zm6.982 4.942-.04399-.0645zm.2635.1979c.0046-.3036-.3728-.0305 0 0zm-7.768-5.914c-.1373-.1656-.1437.2061 0 0zm.3844.0437c.02217-.3916-.4404.2139 0 0zm8.529 6.381c.3892-1.098-.4452-.2791 0 0zm-7.821-6.129c.04346-.2466-.2228.1121 0 0zm8.794 6.139c.4209-.4843-.6972-.3893 0 0zm-4.908-3.739c.01964-.9129-.6143-.562 0 0zm5.118 3.287c.04162-.1609-.223.0511 0 0zm-1.057-.8968c-.2431-.3614.0075.3098 0 0zm.5019.359c-.00056-.4607-.4883.1388 0 0zm-.2553-.4193c-.02534-.4046-.1679.2571 0 0zm-5.036-3.708c.01124-.3333-.2606.055 0 0zm.5076.321c.09113.007.9881.2577.3546-.0876-.05849-.5846-.8022.0274-.3546.0876zm5.965 4.371c.03252-.1707-.1542.00033 0 0zm-6.146-4.61c.07087-.1839-.2541.0533 0 0zm4.338 3.059c-.1485-.1808-.2561.1226 0 0zm1.02.8115c.47-.3501-.6405-.1651 0 0zm-5.244-4.3c.0025-.2217-.1535.0988 0 0zm5.056 3.649c.2858-.1469-.4459.005 0 0zm-.4975-.4426c.03789-.297-.2688.1352 0 0zm-4.568-3.47c.0025-.2217-.1535.0988 0 0zm3.841 2.09c.1161-.3119-.2531.0691 0 0zm-1.084-.9018c.03252-.1707-.1542.00034 0 0zm-14.43 3.123c.08634-.4033.1639.2915 0 0zm6.152 4.563c.2674-.1076.02458.2284 0 0zm.3091.002c.6436-.1141 1.057.0677.1849.0353-.05562-.007-.1651.0584-.1849-.0353zm2.032 1.363c.2253-.0962.09135.1771 0 0zm.61.4424c.2435-.0608-.02946.2214 0 0zm-2.993-2.292c.522-.1015 1.101.0717.2397.0742.1529.1274-.4212.0106-.2397-.0742zm10.66 7.529c.3215-.1667-.146.2716 0 0zm-8.267-6.182c.6393-.1974-.03498.2628 0 0zm.5982.4825c.07829-.2379.1431.2742 0 0zm-8.702-6.515c.1776-.0706-.01668.1892 0 0zm.318.1703c.5922-.3675.4494.1208 0 0zm11.7 8.616c.08124-.2988.1636-1.055.3964-.3054 1.065-.155 2.841.518 3.332-.6758.4969.673.8403-.2017 1.031-.575.5221-.2402.3345.0533.1795.2077.5783.9111-.5748 1.476-.9875 2.129-.4849.224-.7762 1.77-1.154.596-.3365-1.282 1.372-.2795 1.169-1.296-.8762-.3987-1.917.0798-2.927-.1069-.4755.1004-.6869-.0168-1.039.0261zm4.265.0818c.09841-.2947-.2556.1788 0 0zm-.4652-.6545c.1656-.1802-.2956.0673 0 0zm.6324.3713c.4141-.2456-.576-.0381 0 0zm.1263-.2463c.2217-.2534-.4036.0353 0 0zm-7.916-2.33c.3076-.0305-.02806.252 0 0zm-4.939-3.647c.5845-.4473.7584.4222 0 0zm2.584 1.829c.6395-.0175-.3313.1046 0 0zm1.31.9172c.3832-.2057.1603.2239 0 0zm8.986 6.628c.1745-.5489.404.3433 0 0zm-16.33-12.1c-1.259-.8235.6948-.2583.07334.0806zm5.569 4.111c.23-.1306.04826.1492 0 0zm-5.04-3.868c.1079-.3314.1145.3234 0 0zm2.137 1.594c.1379-.2906.1162.4507 0 0zm5.662 4.048c.5004-.2516-.1559.3304 0 0zm-5.618-4.348c.3803-.4163.06855.4213 0 0zm14.16 10.4c.4953-.3401.5838-2.126.9093-1.61-.2291.5433-.344 1.325-.9093 1.61zm-8.781-6.514c.3464-.0967-.1003.2017 0 0zm1.12.6714c.04319-.3028.09041.279 0 0zm-3.28-2.495c.5004-.0729-.2986.1621 0 0zm2.442 1.852c.3228-.018-.05851.1784 0 0zm-4.238-3.22c.7879-.3169.7048.2804 0 0zm11.92 8.823c-.08172-.6679.2549.0846 0 0zm.4097.3117c.1377-.0931-.02096.1833 0 0zm-4.259-3.216c.1836-.11.05929.2498 0 0zm-10.5-7.876c.2263-.4289.1911.4391 0 0zm8.191 6.061c.1705-.3064.1145.2892 0 0zm-6.309-4.702c1.042-.4741-.8865-1.173.2527-1.028.4592-.2673 1.478-.4083.7217.3284-.2785.257-.5229.7776-.9744.6994zm.7159-.7021c.1172-.176-.3123.1159 0 0zm.1652-.179c.09472-.4052-.3468.112 0 0zm1.805 2.842c.1706-.0729-.04987.1578 0 0zm1.976 1.347c.6332.0648-.3443.145 0 0zm.9235.688c.1377-.0931-.02098.1833 0 0zm6.505 4.753c.4961-.2508.5598.4735 0 0zm.4729.2494c.1581-.5558.9407.0525.2622-.0523-.03142.0647-.2134.1847-.2622.0523zm-10.7-7.942c.3204-.1853.04849.1513 0 0zm7.318 5.367c.642-.6641.7404.6646 0 0zm-4.834-3.572c.5182-.2172.5887.2488 0 0zm7.813 5.665c.3433-.196.04838.1604 0 0zm-6.579-5.062c.2491-.863.6708.5146.06932.013.1388.1652-.199.169-.06932-.013zm-3.261-2.457c.2426-.1217.02479.2438 0 0zm-1.051-.9464c1.065-.2046.737.3312 0 0zm.7402.4944c.9998-.1059.06174.1581 0 0zm2.557 1.777c.7633-.063-.5264.3067 0 0zm5.312 3.989c.6583-.0376.5411-.0761.3555-.3257.6312-.3618.4567 1.391-.3555.3257zm3.528 2.474c.1776-.0706-.01668.1892 0 0zm-9.026-6.914c.6008-.1801.396.2086 0 0zm8.605 6.37c-.2647-.8531.6629.2905 0 0zm-7.493-5.633c.1847-.1854.7143-1.149.4492-.2222-.08285.3696-.2327.3296-.4492.2222zm-6.266-4.712c.4579-.1798.2444.5693 0 0zm11.49 8.51c.1017-.4878 1.26-.2816 1.107-.3211-.1902.3684-.7483.5489-1.107.3211zm-8.543-6.327c.3919-.1113.2623.113 0 0zm-.4631-.5564c1.402-.3426-.2208.5227 0 0zm12.21 8.797c.2226-.3194.7254-.5706.3391.0371-.1991-.3378-.2771.4763-.3391-.0371zm-14.76-10.93c.75-.401.4834.6453 0 0zm14.35 10.61c.6288-.3854.0047.2214 0 0zm-8.856-6.588c.3655-.0119-.1075.1539 0 0zm.7641.1234c.0018-1.107.9263-.5095.257.2371-.2302.5577-.2827-.0197-.257-.2371zm8.322 6.308c.02759-.4114.2135.292 0 0zm-2.704-2.031c.1582-.1604.03999.2414 0 0zm-9.693-7.2c.1776-.0706-.01668.1892 0 0zm3.215 2.27c.2938-.1947.03677.3783 0 0zm-2.464-1.852c.7156.0148 2.247-.3711 2.384.0581-.7911-.1074-1.617.2402-2.384-.0581zm.7739.5153c.7527-.1127.9456.0752.1288.0427.1843.0481-.2816-.0423-.1288-.0427zm-3.854-2.888c.3645-1.036 2.531-.7058 2.56-.5299-.4141.1239.3338.8444-.432.3853-.7342-.3427-1.264-.4152-.7365.1171-.4892.007-1.026.4647-1.392.0275zm4.536 3.325c.213-.0666-.05083.1745 0 0zm.6131.4681c.6918-.2406.7119.2439 0 0zm-.2166-.471c.7061-.1698-.1987.1881 0 0zm1.42.4304c-.3957-.5614.5258-1.117-.0012-1.172.2453-1.13.7909 1.277.1335 1.059.7551.1999-.4518 1.035-.1324.1136zm.3012-.4584c.01668-.1892-.1776.0706 0 0zm-1.291.009c.5556-.3688.2208.3219 0 0zm7.736 5.623c.5187-1.004.6664.8266 0 0zm-9.944-7.423c.2105-.8142.2493.7661 0 0zm-1.831-1.317c.2248-.0505.01632.2283 0 0zm3.977 2.617c.9667.069-.6717.1739 0 0zm-2.592-1.979c.1969-.4991.0064.4556 0 0zm.9067.7667c.4785-.5303.2119.4187 0 0zm-1.582-1.523c.2165-.1242-.05704.2417 0 0zm2.266 1.463c.391-.5548 1.319.0972.3367.0954-.1004.0583-.3448.082-.3367-.0954zm.3863.004c.05083-.1745-.213.0666 0 0zm2.301 1.799c.2219-.1744.2844.3389 0 0zm-.193-.399.0973.0365zm-4.016-3.111c.1638-.582 1.134.5589.3855.0791-.000205.4453-.3152.0724-.3855-.0791zm-2.172-1.65c.1533-.1405.07742.1563 0 0zm4.601 3.391c.2542-.1067.06124.1936 0 0zm1.485.7801c.1865-.5457.1616.5876 0 0zm8.709 6.266c.1776-.0706-.01668.1892 0 0zm-9.41-7.091c.4386.0102-.04597.1894 0 0zm-2.557-1.933c.0242-.2144.1841.2445 0 0zm2.82 2.029c.5479-.2235-.2701.2953 0 0zm-4.273-3.307c.1829-.3373.1345.2577 0 0zm9.842 6.998c.2248-.0506.01632.2283 0 0zm3.182 2.246c.185-.1578.01477.1931 0 0zm-9.462-7.216c.08595-.2527.1884.2773 0 0zm.2792.0492c.2546.07-.09261.0579 0 0zm8.283 5.451c-.6259-1.064 1.408-.226.2747.1434.0087.4499-.2791.005-.2747-.1434zm-7.038-5.063c.1832-.2601.0665.3171 0 0zm2.546 1.584c.04963-.2334.1779.1801 0 0zm5.332 3.684c.3331-.2022-.1595.3283 0 0zm-.05953-.5659c.07079-.3602.1963.2887 0 0zm-8.869-6.858c.6457-.1429.06099.5004 0 0zm4.758 3.528c.2224-.3098.1203.4554 0 0zm-3.907-3.318c.213-.0666-.05083.1744 0 0zm-.5549-.5939c.9255-.1044.5448.5355 0 0zm4.801 3.599c.6992-.0963.6071.6048 0 0zm-.4383-.4374c-.4512-.3322 1.067-.7049.3496-.0963l-.1507.0513zm.6724.02c.2862-.1418.09871.3928 0 0zm.5148-.141c.1704-.1994.09021.3292 0 0zm-.9517-.9823c.5907.2891-.4724-.0933 0 0z" fill="url(#d)"/></g><path d="m13.483 31.113v-12.66" fill="none" stroke="#0f0" stroke-linecap="round" stroke-linejoin="round" stroke-width=".868"/><circle cx="13.583" cy="13.613" fill="#fff" r="12.14"/><g stroke-width=".04126"><path d="m1.4928 11.713c.7584-3.535 2.843-6.861 6.004-8.646 1.594-.934 3.426-1.503 5.265-1.597 2.205.0603 4.559-.0222 6.517 1.19 3.577 1.969 6.187 5.777 6.397 9.942.3815 4.544-1.992 9.173-5.914 11.43-1.765 1.097-3.856 1.558-5.9 1.702-4.379.2306-8.723-2.355-10.8-6.236-1.122-2.063-1.581-4.426-1.621-6.764.0013-.34.01808-.6801.05263-1.018zm.9101 3.254c.1932.6138-.1033-1.106-.05892-1.438-.05964-1.298-.01585 1.19.05892 1.438zm-.02631-2.228c.1917-1.406-.09859-.141 0 0zm.1938-1.424c.3748-1.935-.3273 1.143 0-.00001zm.08837 4.941c.1354.1776-.1844-.6482 0 0zm.1407-5.955c.06235-.1392-.08517-.0724 0 0zm.09119-.3231c.2107-.3243-.1696.0928 0 0zm.07702-.2302c.1675-.4205-.1431.1576 0 0zm.7051 6.894c.2582-.358-.2922-.479 0 0zm.1028-1.824c.4884-.3846-.1793-.5002 0 0zm.3505.2606c.6271-.3121-.607.0466 0 0zm-.1912-1.51c.6814-.1791-.01055-1.503.195-.3438-.05492.1199-.2078.1935-.195.3438zm.3091.768c.1057-.4752-.3772.1325 0 0zm.08689-2.42c.09034-.1925-.2104.005 0 0zm.1957 4.519c.3385-.4482-.3646-.9546 0 0zm-.04003-6.618c.1587-.1038-.163-.0966 0 0zm.1384-3.226c.5545-.6248-.302.2208 0 0zm.1174 3.719c.4695-.3789-.01098-1.305 0 0zm.2864-4.23c.4615-.485.6241-.7616.06043-.1247-.08209.0822-.4574.5879-.06043.1247zm-.03313 1.898c.6814-.2157-.3126-.1109 0 0zm.407.8742c.6324-.3876-.0121-1.126.0261-.1976-.1123-.1169-.2823.5105-.0261.1976zm-.07182 3.036c.3812.6143-.157-.6922 0 0zm-.05779-3.501c.2337-.059-.1482-.1245 0 0zm.8433 4.634c-.1763-.5144-.5712-.4298 0 0zm-.2746-7.804c.1642-.2439-.2639.1531 0 0zm.4307 7.164c.03667-.104-.2413.101 0 0zm.1752-4.957c.411-.6418-.1431-.6467 0 0zm.148-2.887c.7527-.5667-.3916.1676 0 0zm.6061-.4141c2.061-1.426 4.579-2.164 7.074-2.059-1.405-.3393-2.911.0313-4.267.4597-.9808.3386-2.211.9592-2.807 1.6zm.2837 2.262c.4852-.4271-.09528-1.186.09657-.2241-.0046.0562-.2227.1753-.09657.2241zm.4519 11.13c.4162.4639-.2551-.8097 0 0zm.1828-6.618c.5834-.3222.1779-1.283.05705-.3549-.02119.1474-.3076.1405-.05705.3549zm.5924 7.112c.3465-.235-.7881.2492 0 0zm-.1981-6.77c.4116.3938-.3458-.7291 0 0zm.1023 3.007c.7542 1.009-.4597-1.205.2371-.3163-.04428.1548.2824-.8961.2817-.8352-.3865.116-.7947.779-.5188 1.152zm.1518-2.489c-.2028.7815 1.986 1.613.6924.784-.2411-.2014-.3095-.9365-.6924-.784zm.3311 6.117c.2356-.2356-.5738.2731 0 0zm.3841-.0604c.7749-.4073-.4208-.2415-.000001-.00001zm.5605 3.907c.03667-.104-.2413.101 0 0zm.04665-12.53c-.3642-.8495 1.062-1.791.9114-2.097-.5283.3619-1.107.9871-.9114 2.097zm.06.871c.04501-.9596-.1359-.5264 0 0zm.4537 5.8c1.141-1.132-.5622.1186 0 0zm-.1446-5.046c.4076.7435.04051-.4071 0 0zm.1473 1.921c.05196-.229-.2514-.1265 0 0zm.2495 5.591c.5609-.1209 1.716-1.412 1.431-1.286-.4577.4474-1.031.785-1.431 1.286zm-.1407-4.872c.4054-.1257-.143-.5131 0 0zm.3772 5.655c.2122.5252.5678 1.426.3.3623-.02951-.2598-.8504-1.033-.3-.3623zm-.1103-2.269c.1077-.5075-.4364.1843 0 0zm-.1373.4558c.3131.003-.2774-.3337 0 0zm-.03736-7.675c.2563.0703-.3713-.4976 0 0zm.1937.788c.2311-.3994-.2079-.6627 0 0zm.113 2.164c.3887-.3315 1.537-2.222.5956-.8492-.2274.244-.6414.4525-.5956.8492zm.4921 9.709c.1789-.0376-.2357-.3757 0 0zm-.1092-12.21c.5588-.695-.0487-.9253 0 0zm.6165 12.9c.1587-.1038-.163-.0966 0 0zm-.3225-15.65c.1382-.4454.484-2.326.05133-1.043-.07057.3429-.05205.6949-.05133 1.043zm.0683 2.075c.3691-.4535.1465-1.229-.0047-.2479l-.03695.1268zm.4137 14.17c.3997-.5918-.1687-.5299 0 0zm-.01128-2.476c.6201 1.027-.01746-.3557-.0589-.2751l.02239.1158zm-.1449-7.213c.4292-.2504.7459-1.982.2738-.7746.01639.2935-.2272.4991-.2738.7746zm.286-8.099c.08426-.1785-.2518.1445 0 0zm.226 10.95c.2372-.1116-.09352-.1263 0 0zm-.2541-12.97c.06235-.1392-.08518-.0724 0 0zm.2529 1.918c.5001-.4414-.4632-.2219 0 0zm.2177 14.51c.2049.9088-.05123-2.256-.03348-.6901.01702.2297.02884.4598.03348.6901zm-.05323-3.696c.1756-.135-.1706-.0601 0 0zm.1534 5.147c.1678-.0677-.1813-.127 0 0zm-.2097-13.3c.2841-.3343.7265-1.961.19-.7232-.08229.1438-.3685.6083-.19.7232zm.4253 13.71c.2854-.4507-.1134-.257-.08129.0395zm-.09512-15.16c.6289-.4509.6111-.6775-.0071-.1032-.1028-.005-.3238.6623.0071.1032zm.04864-2.892c.1174-.8524-.204-.7711 0 0zm.2651 2.912c.583-.29.6395-.629.1123-.1721-.01733.0401-.1974.1248-.1123.1721zm.2179 7.691c.05009-.2252-.07207-.0889 0 0zm.1025-4.292c.1537-.0798-.09381-.1216 0 0zm.2162 3.214c.5318-.6403.2181-.715-.04141-.0509zm.1683 4.687c.2485.2591-.0976-.4017 0 0zm.2343.6005c.1541-.0582-.1607-.0896 0 0zm-.1328-15.44c.2109-.008-.2002-.602 0 0zm.2185 2.941c.5883.5894-.1712-.776 0 0zm.3288 13.43c.376.4647-.3081-.7887 0 0zm-.2926-15.78c.2819-.3794-.195-.1908 0 0zm.4208 10.81c.2105-.6108.1124-.9235-.0068-.09.08985-.0685-.02329.0917.0068.09zm.4791 5.644c.7577.5925-.6849-.7248 0 0zm-.5366-16.76c.2368-.4565-.1775-.6395 0 0zm.2154 9.728c.2413.3042-.2261-.7713 0 0zm.4961 3.558c.03667-.104-.2413.101 0 0zm-.1503-6.526c.1762-.0711-.2116-.1993 0 0zm.1409.5992c.1316-.1624-.2312-.1605 0 0zm.3444 8.093c.5269-.8345-.577.4643 0 0zm-.2538-9.829c.4617.7996.1335-.14-.06161-.1198-.04721-.002.1064.1201.06161.1198zm-.0428-5.245c.216-.4596-.1811.0476 0 0zm.09549-.4175c.1716-.7067-.1954.3132 0 0zm.1429 4.649c.4113-.3426.9301-1.112.2353-.3554-.0076.0554-.4815.2919-.2353.3554zm.1937 11.79c.1656.1027-.2162-.4287 0 0zm.1334-5.945c.3357-.3962.3276-1.534.1144-.4419.02698.0824-.2886.4841-.1144.4419zm.05819-5.445c.3857.006-.6711-.4715 0 0zm.2391 8.085c.7631-.2749-.567-.0492 0 0zm.1034 4.229c.2745-.4021-.2349.1584 0 0zm-.1239-11.86c.2528.3211-.2693-.8368 0 0zm.3536-1.836c.7705-.4298.6822-.5572.0081-.0739l-.02329.0383zm.1969 7.888c.4857-.4366.7149-1.283.6598-1.858-.02419.6752-.4003 1.258-.6598 1.858zm.0661 1.203c.304-.2029-.2837.0975 0 0zm.1306-4.697c-.1032-.295-.3029-.2272 0 0zm.115 4.566c.6171-.0607 1.262-1.941.6062-.635-.07077.2144-.7389.5055-.6062.635zm-.3238-11.75c.2979-.4487-.09642-.4765 0 0zm.4012 5.288c.4908.4272.9748.7949.2648.0983-.02065-.1609-.3207-.4975-.2648-.0983zm.2325-1.26c.05135.8251.3021.7157.1931-.003-.08303-.2713-.5958-.2559-.1931.003zm.8512 8.195c1.281-.1501-.7436-.0804-.204.0349zm-.5612-10.23c.4161.9056.03573-.4082 0 0zm.1628 7.229c.1756-.135-.1706-.0601 0 0zm.1349-1.519c-.08853.4038-.1005 1.96.09404.7002-.1835-1.286 1.731-1.474 1.722-2.793-.301.5035-1.108 2.334-1.746 1.495.1379-.6608.0046-1.339-.06044-.2435-.4996-.1213.2823.6697-.01.8412zm.04265 2.533c.03915-.2565-.21-.2658 0 0zm.3221 3.351c.4682-.2945.1362-1.18.02151-.3013-.04234.1681-.6021.4161-.02151.3013zm.316 1.063c.7093.2686 1.23-1.537.5707-.3127.000554.114-1.002.3736-.5707.3127zm-.07891-4.552c.3532-.459.5401-1.827.1521-.5831.0061.1041-.4034.6567-.1521.5831zm.6131 9.543c.6995-.4074-.5775.1447 0 0zm-.06258-10.92c.0502-.2252-.07207-.089 0 0zm.1881 2.186c.5891-.1236 1.767-2.118.7218-.7457-.2343.2536-.5302.4536-.7218.7457zm-.161-10.12c.1614-.1374-.2042.0518 0 0zm.771 11.27c-.3132-.2529-.4616.2654 0 0zm-.3493-11.48-.0035-.1444zm.7726 11.38c.5317-.1072 1.393-1.075 1.209-1.179.1018.561-1.579 1.134-1.209 1.179zm-.3062-7.054c.159-.498-.1899.1425 0 0zm.5493 4.495c.1988-.2529-.1781-.0562 0 0zm.1578-.3578c.2207-.5457-.2117-.3177-.000019.00001zm1.777-4.027.01356-.0663zm.3393-.3806c.1587-.1038-.163-.0965 0 0z" fill="url(#f)"/><path d="m1.5128 12.213c.6334-3.636 2.686-7.136 5.925-8.964.9945-.5498 1.823-.8899 2.891-1.24 1.16.1784-1.471.7052-1.992 1.035-1.278.6642-2.584 1.368-3.532 2.497-.4564.7371-.9904 1.503-1.493 2.3-.5683 1.203-1.336 2.361-1.42 3.74-.1675.6222-.1589 2.368-.3101 2.281-.11-.5426-.06229-1.1-.06925-1.649zm2.246-5.136c.1605-.3288-.2512.229 0 0zm-2.128 7.091c.4971 1.47.3512 3.187 1.422 4.427.4786 1.101 1.29 1.985 1.898 3.007.8445.7257 1.702 1.243 2.333 2.136-2.169-1.184-3.823-3.239-4.756-5.533-.5503-1.264-.7694-2.683-.8976-4.037zm1.762 5.397c.1541-.0582-.1607-.0896 0 0zm-1.208-5.903c.1079.2906-.07862.0898 0 0zm.05664.6639c.1052.4249-.07115.1396 0 0zm.02227.487c.2724.5334-.1532.1788 0 0zm.1212.6204c.3723 1.635-.2748-.6416 0 0zm-.06259-3.654c.1389.2863-.2071.4919 0 0zm.1804 1.816c-.07697-3.124 1.267-6.246 3.531-8.351.4992-.0172 1.207-1.29 2.113-1.508 2.354-1.461 5.283-1.836 7.974-1.323-.4016-.6106-2.162-.4653-3.079-.5511-.4871-.1088-2.762.4281-1.455-.0794 1.943-.1989 3.992-.2026 5.824.5826 3.027.834 5.492 3.22 6.854 6.036.7286 1.286 1.018 2.767 1.05 4.23.2897 1.375-.02613 2.786-.289 4.138-.3024 1.117-.787 2.166-1.431 3.121-.5893 1.131-1.465 1.99-2.435 2.759-.7451.8834-1.88 1.278-2.847 1.857-1.937.8588-4.078 1.208-6.18.9375-.5003.2291-2.395-.7273-1.115-.5463.9784.252 2.601.4934 3.258.14-1.125-.2558-2.302-.1791-3.414-.5367-1.296-.3279-2.561-.8627-3.613-1.71-.6967-.517-1.559-1.083-2.137-1.893-1.684-2.019-2.654-4.654-2.61-7.303zm.5669.2768c.3278-.5316-.2085-.5125 0 0zm.03894.2793c.1195-.3523-.157-.0468 0 0zm.04673.5027c.7328-.0748-.2253-.3994 0 0zm.1063-1.255c.3548.0975.5862-1.425.7631-.3137-.8938 1.128.9369.3108.172-.3721-.5482-.5192-1.451.005-.9351.6858zm-.01258 2.257c.1764-.182.3482-.7166.9059-.4741.5822-.3669-.6953-.2595.01688-.757.2751-.9264-1.208.9836-.9227 1.231zm.1047-3.632c.2494-.3881-.2793.0311 0 0zm.1604-.5241c.5461-.4836-.2762-.3089.000038 0zm.0098 4.518c-.0254 1.241.3379.2327.3203.0423.9158.3427-.5163-.6802-.3203-.0423zm.2596 1.264c.4796.9509-.1719-.6735-.000194.00001zm-.04566-6.315c.4245-.1152-.189-.211-.1345-.0374zm.0108-.9156c.744.5395.2331-.4588.5865-.7524-.3145-.007-.8166.4096-.5865.7524zm.04659 1.663c.2078.6195.9768.0668.2203-.0686.7569.0494.3328-1.055.1647-.2893-.09773.081-.6244.1368-.385.3578zm.07618-1.406c.4221.337-.1297-.4329 0 0zm.327 8.109c.2509-.1689-.2974-.1869 0 0zm.1765-1.968c.8604.3464-.2184-1.626-.0027-.3462-.01947.0933-.1431.2724.0027.3462zm.02604 2.345c.1915-.0833-.223-.1892 0 0zm-.08432-11.02c.2547-.2441-.274-.0714 0 0zm.03813 2.145c.6814-.2827-.3709 1.18.5511.4377.4139-.576-.3332-1.694-.5511-.4377zm.2171 9.2c.1587-.1038-.163-.0966 0 0zm.08356-10.51c.776.5052.04878-.3124.3359-.3582.5658-1.097-1.044-.1158-.3359.3582zm.08892 10.9c.4473.0674-.05968-.5677 0 0zm.4413-10.44c1.05.1406.2814-1.903.03936-.7386.4582.278-.512.7728-.03936.7386zm.212 11.24c.2442.056-.295-.3524 0 0zm-.08938-8.077c.09784.6257 1.93 1.802.7804.6085-1.076-1.068 1.117.0639 1.654.093.6104.215 1.023.009.1853-.1937-.9544-.1639-2.039-.567-2.718-1.05-.04596.1884.0406.3686.09776.542zm.4555 8.651-.03618-.1265zm-.1522-13.78c.8683.8199-.2279-.6595-.09599-.1102.032.0367.06398.0735.09599.1102zm.2111-.6124c.9259.021.0262 1.957.8338.8412.1029-.2924-.6821-1.393-.8338-.8412zm.4635 13.66c.6407.5475-.3191-.4802 0 0zm.4661-14.01c.6609.6742-.09548-1.369.7695-.4606.01177.4501-.596 1.311.1991.5986.6075-1.022-1.452-1.446-.9686-.1379zm.2318 7.01c.1541-.0582-.1607-.0896 0 0zm-.1402-8.305c.3069-.0758-.1923-.2714 0 0zm.3603 16.5c.2168-.2611-.1764-.1045 0 0zm-.07049-7.608c.265-.1293-.2984-.176 0 0zm.4203.1088c.4851.1253-.1342-.4966 0 0zm.2035 4.869c.4654-.2665-.2459-.2104 0 0zm.02371.9964c.6464-.0944.2716-.7983 0 0zm.03083-1.723c.8866.2712.01557-1.624-.04065-.406l-.01522.2125zm.2457 3.778c.7286.2181-.6511-.3812 0 0zm.117-10.62c.6148.848.8827 2.028 2.057 2.243.59.0696-.3695.7704.4411.4231.8004-1.31-1.126-1.512-1.702-2.256-.6402-.3272-.3379-2.307-.9687-1.075-.06837.2268-.0449.5253.1721.6654zm1.058.9685c.3544.2248 1.901 1.171.6913.6963-.2465-.1928-.6576-.3324-.6913-.6963zm-1.107 1.913c.1249.7166 1.831 1.393.8144.2402-.7777-.5442 1.061.5274.2172-.2436-.7805-.367.7602-1.168-.2372-.9648-.3214.251-.6655.5717-.7945.9682zm.213-.1611c.2869.061-.1215.4343 0 0zm.1275 4.349c.5825-.825 1.768.3871 1.751.2567-.3034-.4295-.6463-.8431-.3067-1.324-.2854-.0517-2.235 1.057-1.445 1.067zm-.1525 1.335c.1516-.0666-.1753-.1445 0 0zm.4398-.8286c.2995-.3011-.3137-.2861 0 0zm.5938 3.235c.5604.1974 1.824-.7391.5845-.2921-.1776.0556-1.385.2452-.5845.2921zm-.2565-1.561c.2422-.2613-.2113-.2351 0 0zm-.0077-3.271c.8623-.6114 1.612-1.223 2.4-1.813.395.7612.5414-1.047-.05495-.236-1 .1471-1.702 1.534-2.345 2.049zm.1364 2.127c.3355-.4597-.4004-.5743 0 0zm.4233-3.804c.6513.0767 2.115-1.171.73-.7704-.0052.658-.6308-.3302-.9577.3934.5686.004 1.002.0836.1536.2029-.5745.023-.3286.2208.07403.1741zm-.214-11.21c.57 2.192.2414-1.433 0 0zm.3778 17.96c.1587-.1038-.163-.0966 0 0zm-.1289-8.87c.5592.0957-.238-.3639 0 0zm.1984 6.927c-.1699.3937 1.221.5242.3776.1218-.0523-.0571-.595-.5367-.3776-.1218zm.02784-1.071c.4952-.0731-.2287-.5752 0 0zm-.0788-5.522c.1541-.0582-.1607-.0896 0 0zm.02132-9.817c.1225.5686.7577 1.288.4387.262-.0044-.1089-.6913-.7074-.4387-.262zm.05358 5.565c-.2267.5102.9823 2.38.6204 1.204-.5387-.4034-.2178-2.555.122-1.145.0063.556.6389 1.778.4592.4917-.4769-.9164-.5386-2.244.1193-2.831-1.029-.3744-1.347 1.571-1.321 2.281zm.214 4.93c.6707.6062 1.268-.9058.3388-.2492-.01948.0755-.5268.091-.3388.2492zm.1039 5.066c.5825-.1954.766 1.812.8273.5994-.06021-.473-.6313-1.666-.6746-.7449-.07701-.0445-.2356.0493-.1527.1455zm.3513.6558c.07802-.2636-.5532-.0763 0 0zm-.1854-1.45c1.421.7303.7118 2.495 1.125 3.67.5065.4364-.2568-1.21.04789-1.595.3136-.8297-.529-2.48-1.173-2.075zm.0339-1.042c.2669-.1461-.177-.3774 0 0zm.1882.8556c1.019-.008 2.258-1.586 2.185-2.06-.4926.693-1.575.9264-1.865 1.528.4684.3773-.7657.1758-.3202.5322zm.05866 2.508c.08893-.1636-.1547-.136 0 0zm.4911.6259c-.04372-.6528-.8352-.2993-.03234-.0172zm-.4267-4.213c.516.499.551-1.683.04924-.5838-.08271.1734-.2403.4144-.04924.5838zm.2627-4.668c.6952-.5167 1.494-1.656 1.875-2.064-.8263-.6226-1.702.5903-1.426 1.27-.3164.1445-.7178.3763-.4491.7939zm.6849-1.36c.3458-.007-.233.261 0 0zm.5746-.7382c.287-.0224.1452.4739 0 0zm-1.309-6.808c-.2981.9768 1.312-.4221.1528.0276.2783-.5307.6718-.6056-.09616-.5221-.2846-.0222-.1093.3918-.05661.4946zm.1626.7114c1.029-.0498.3938-.6918-.1565-.0296zm.03473 7.425c.1894-.1841-.1436-.1395 0 0zm.2817 4.916c.7877.0994 1.293-1.74.4377-.5689-.09872.1314-.7471.377-.4377.5689zm-.1027-5.169c.2232-.1273-.2212-.1834 0 0zm.1327 3.258c.1762-.0712-.2116-.1993 0 0zm-.03411-4.594c.4253-.5655 1.26-1.514.8054-1.717.1766-.6414.5426-1.356.2173-.218.798.9544.5243-1.275 1.305-1.532.412-.3194 1.605-.4027.5798-.8524-.4042.2635-1.573.5722-2.016 1.444-.3319.9334-.8583 1.86-.8915 2.876zm.09873-1.762c.3406-.6179.4467-2.211.6561-2.264.2273.938.4256-.3777.4891-.4766.5869-.7158-1.034-.6452-.8187.2364-.258.8094-.1891 1.674-.3265 2.504zm.5211 14.6c-.4274 1.455 1.514-.6917.2532-.1989.01288-.3947-.2728-1.763-.3277-.5677.01654.256.01417.5156.07448.7666zm-.1786-9.904c.2489-.2456-.2698-.0694 0 0zm.1654 7.008c-.0329.6356.6635 2.453 1.222 1.839-.4597-1.17-.2057-2.421-.2136-3.698-.09121-1.288-.5517.9704-.4223 1.435.05245.548.2842 2.404-.2478 1.013-.3068-1.154.1284-2.3.5563-3.362-.1121-.6326-.802 1.34-.8 1.802-.05295.3209-.08566.6454-.09447.9707zm-.01749-6.222c.5433-.5008 1.034-1.587 1.242-1.999-1.248-.5366-.8735 1.373-1.308 1.759-.2052.043-.08621.2261.06626.2397zm1.026-1.757c.3038-.1331-.2106.3252 0 0zm-.8961 5.645c.3756-.4234-.06131-.3769 0 0zm.2211-13.72c.2803-.336.1382-1.18.6021-.25.6179.6559.01451-1.969-.01144-.435-.405-.2578-.7384-.7629-.663.1327-.02883.188.02501.3733.07232.5524zm.1424 7.539c.269-.2444-.2554-.2363 0 0zm.2501 4.408c.1748-.204-.1836-.196 0 0zm-.04192-4.735c.2585-.1249-.2423-.1233 0 0zm.05821-1.829c.7032-.3097-.2133-.7951 0 0zm-.0041.6647c.1537-.0798-.09371-.1216 0 0zm-.02882-7.061c.2772-.1689-.2573-.1286 0 0zm.1729 6.975c.2364.47.9329-.8235.4347.1532.493.9039.9335-.6682.8139-.6291.193.6626.1889-.6924.571-.9067-.5878-.1078-1.019.9186-1.485 1.031-.07182.1579-.2899.1779-.3346.3518zm.8412-.4264c.6699.2657-.5271.1379 0 0zm-.6599 4.971c.2394.3618.3572 1.074.5198.1427.3097-.9669.7835-1.923.7242-2.882-1.249-.1165.1362 1.931-1.014 2.305-.1434.0922-.234.2625-.2301.4342zm.05734-.918c1.22.4072-.2247-1.147 0 0zm.2357 3.394c.4544.6973-.2702 1.761.3158 2.338-.2005-.9995.2311-2.11-.2611-3.046.06522.2011-.2974.5863-.05475.7087zm.08341 4.723c.5221-.3341-.0866-.4654 0 0zm.0021-10.19c.6216-.4116-.6903-.1527 0 0zm-.1677-2.368.02589-.1008zm.1287 1.669c.3117-.3332-.2498-.1534 0 0zm.1551 2.167c.374-.2225-.1533-.4809 0 0zm.2124 7.618c.1699-.1511-.1914-.2199 0 0zm-.01188-4.219c.0036.8711 2.416 1.5.9674.7195-.2099-.0384-.9508-1.334-.9674-.7195zm-.1268-5.892c.1587-.1038-.163-.0966 0 0zm.3513 7.738c.3257.7709.8081 1.666 1.021 2.305.2956-.5572 1.729 1.017 1.47.1238-.9459.2187-2.23-1.494-.6835-1.53.5141-.6914-.1517-.7271-.417-.1494-.7873.701-1.524-1.179-.2592-.3623-.2069-.0242-1.119-.808-1.24-1.446-.09877.3465-.07647.7429.1086 1.059zm-.06612 1.56c.1694-.154-.1759-.1463 0 0zm-.1974-10.71c.2462-.1316-.1113-.1898 0 0zm.3997 14.26c.5105-.0194-.2644-.2964 0 0zm-.2893-15.03c.1756-.1351-.1706-.0601 0 0zm.1533 2.615c1.335.5639-.3137-1.433 0 0zm.01238 5.023c.9887-.5542 1.435-2.271.8808-3.184-.4579-.0923.2093.4904-.3453.6883.3721 1.003.06791 1.712-.5356 2.496zm.8004-2.339c.2213-.0945-.05175.2876 0 0zm-.9602-9.667c.2836-.5347.2875-.7257.5336-.0209.3789-.6121.187-.3211.5067-.0948.2844-.6728-.2376-1.575-.4243-.3692-.3074-.1613-.3331-1.286-.4876-.2513-.1133.2176-.2569.492-.1285.7362zm.1689 4.863c.1688-.1522-.1543-.0598 0 0zm.2588 11.83c.3076-.076-.193-.2715 0 0zm-.04311-5.831c-.04058.9535.4124-.2666 0 0zm.06617-3.4c.2298-.2088-.2227-.1251 0 0zm.2778 11.9c.4529.1123-.2316-.4691 0 0zm-.2817-14.93c.1716-.1074-.1628-.1579 0 0zm.1142 3.971c.5371.7-.1163-.8787-.000096 0zm.385 10.16c.1873.3392.7742 1.401.3842.3975.05099-.087-.6896-1.123-.3842-.3975zm-.2723-14.61c.6411-.1786.07978-.5206 0 0zm-.0055 2.216c.2066.5749.5838 1.232.3568.2523-.01903-.0593-.4947-.5764-.3568-.2523zm.09499 1.515c.5739.7619-.1997-1.002-.02159-.0215l.02149.0215zm-.03999-1.874c.7479-.6761.7948 2.268.9519.6884.0096-.4416-1.165-1.842-.9519-.6884zm.4451 7.106c1.115.1406.5273-.5554-.1366-.0597zm-.2086-8.482c.2232-.1273-.2212-.1834 0 0zm.06235 3.031c.3884-.2223-.2705-.197 0 0zm.01125-3.24c.3376.0543.04782.748.473.2885-.1375.659.2205 1.062.4426 1.455.5311-.2225-.3575-1.982-.9156-1.744zm.1742 4.067c.2069.6039.798.7583.2515.0632-.02405-.1169-.5631-.3987-.2515-.0632zm.2818 8.483c.6343.3438-.2348-.3757 0 0zm-.1627-11.48c.1541-.0582-.1607-.0896 0 0zm.05889 2.74c.3284.094-.276-.4494 0 0zm.1531 3.229c.7625-.4407 1.471-2.199.7527-2.644.3501 1.052-.5338 2.109-.7527 2.644zm.1424 4.616c.1587-.1038-.163-.0966 0 0zm.1191-1.933-.0035-.1457zm.2124 3.026c.5674.0266-.7736-.2288 0 0zm-.1205 1.935c.3674-.2093-.2512-.1712 0 0zm-.1852-11.29c.3426-.1413-.2574-.1606 0 0zm-.1011-7.53c.6855-.3441.1096-1.797.04963-.442-.03254.1289-.1949.3243-.04963.442zm.4228 15.85c.6155.7047-.2675-.9835.000078-.00001zm-.2488-12.64c.5758.1002 1.002-.9234.394-.3916.03568.2191-.5845.228-.394.3916zm.1225 1.02c.2388.5326 1.05 1.396.585.3117-1.2-.8106 1.665-1.782.8891-1.876-.4696.4063-1.625.8125-1.474 1.565zm-.01309 3.041c.1764-.33-.2322.0853 0 0zm.1291-.5542c.6293-.1524.6733-1.593.2052-.5172-.07393.1454-.3171.3311-.2052.5172zm.09042 1.239c.4184.433 1.105.9109.4392.085-.03956-.006-.5043-.3638-.4392-.085zm.3015 4.68c.4941-.2112 1.464 1.21 1.469.6909-.5585-.2519-1.431-1.122-.2911-1.268.7543-.955 2.211-2.082 1.792-3.406-.5068.4768-.5235 2.92-1.306 1.423.3951.7538-.3834 1.27-.6621 1.819-.1536.216-1.373.4558-1.002.7417zm.2994 6.23c.564-.3707-.6246.0192 0 0zm-.09955-5.732c.5515.4141-.2451-.505 0 0zm.03432-1.027c.2505-.2323-.2878.0116 0 0zm.1276 1.589c.2626-.2366-.4891.1092 0 0zm-.3801-13.5c.1939-.6254.9187-.5154.35-1.119-.2218.3234-.2763.7415-.35 1.119zm.3337 14.14c1.298.0112.07337-.5257 0 0zm-.07656-2.963c.881-.7347 1.751-1.763 1.856-2.929.5435-1.063 1.744-1.717 1.916-3.005.4183-.4893-.2981-2.052-.1105-.7661-.0257 1.218-.9326 2.076-1.473 2.856-.9578.2599.1919-1.343-.7625-1.651-.7161-.4781.6284-2.001-.6779-1.721.4641.4952.3885 1.039-.1831 1.401.05323.5835 1.413.7618.926 1.427-.4182-.2097-1.106-.8361-.4688-.0277.4065.4193.4914.9325.3181 1.035.6316.6061-.3706 2.649-.1587.9468-.3931-1.078-.7155.9627-.3645.9292-.1098.5812-.563.9949-.8171 1.506zm.8786-2.401c.3188.009-.1635.3066 0 0zm-.7285-1.691c.397.3256.6474 1.231.5628.1746.04885-.225-.8552-.5956-.5628-.1746zm-.04096-4.592c1.529-.494-.2725-.4561 0 0zm.09902 2.989c.2353-.1769-.2872-.127 0 0zm.2583 7.733c1.045.2982-.4532-.3549.000039.00001zm-.2356-15.11c1.004.5764.3596-.4338-.1819-.0375zm.1566 11.96c.1772-.1887-.1665-.1032 0 0zm.1849 5.417c.1615-.0974-.2794-.1476 0 0zm-.02925-3.884c.5292-.0628-.198-.5215 0 0zm-.1885-11.4c.5766-.1791.4233-1.727.1201-.5496-.1097.1472-.2597.3685-.1201.5496zm.6345 18.02c.5085 2.205-.03904-1.476 0 0zm.259-5.753c1.013-.1407 2.113.01 3.062-.4027.4971-.0497 1.449-1.557.7571-1.2-.4922 1.132-1.893 1.257-2.96 1.224-.1498.0356-1.93.3353-.859.379zm-.1953 1.528c.5124-.3698 1.53.2932 1.28-.6257-.02825-1.382-.4042.4104-1.14.3064-.1134.0351-.2732.1969-.14.3192zm-.08081-11.89c.4151.0616.707 1.137.7034.0664-.02255-.2693-1.074-.5323-.7034-.0664zm.4868 15.75c.4849.005-.09887-.2914 0 0zm.3291-3.204c.8831-.278-.8827.0587 0 0zm.1227 2.579c-.1732-.2315-.4629-.0644 0 0zm.005.5862c.7126-.4653-.2264-.5888 0 0zm.07755-2.958c.6367.4752 1.848-1.176 1.081-.8598-.2702.395-.7986.4953-1.081.8598zm.1501.4261c.4019.2864 1.985 1.13.877.255-.02076-.0503-1.534-.7986-.877-.255zm.06143 1.912c.2425.9752.2048-.8542-.02967-.0635l.02878.0625.000417.0009zm.04772-2.639c.3262-.2281-.3344-.1393 0 0zm.2695-3.599c.2443-.2096-.3083-.1505 0 0zm.07658.3304c.4192-.4387 2.079.157.8936-.4064.5506-.7544 1.674-1.805.8221-2.763.000842.9786-.4299 1.958-1.233 2.596-.2286.0738-.5965-.0145-.4823.5732zm.04825 2.678c.2666-.1425-.27-.107 0 0zm-.1534-12.6c.3523-.108 1.296-1.134.4149-.6484-.3027-1.517-.1819.299-.4149.6484zm.3372 4.126c.1873-.0578-.1957-.1676 0 0zm.5421 11.53c.616-.4706-.5089.1011 0 0zm-.186-11.98c.365-.3562.09987-.7047 0 0zm.1986-3.151c.5473-.2998.6782-1.455.1426-.4033-.0089.0541-.3893.3948-.1426.4033zm.2957 7.732c.2266-.5344-.2364.1667 0 0zm.3814 7.113c.6634-.3472.5937-.8218-.0083-.201-.1555-.009-.5031.397.0083.201zm.1208-.6329c.3958-.1856-.4462-.0887 0 0zm-.2818-13.69c.5984-.286.2846-.6772 0 0zm.4906.5295c.4437-.1295.9112-1.246.2468-.4797-.08719-.4127-.06014-1.312-.1994-.3778.01593.2859.01162.5765-.04742.8576zm.6745 14.79c.1873-.0578-.1957-.1676 0 0zm-.2435-14.14c.5551-.158.04564-.4913 0 0zm.01669-1.87c.1743-.3055-.1875-.2974 0 0zm.3585 2.443c.5576-.2214 1.133-.8619.3597-.6922-.03983-.3778.1235-.9234-.2992-.3543.3933.3085.1273.716-.06053 1.046zm.3867.6975c.4308-.2332-.3832-.159 0 0zm.3748.1189c-.4791 1.347 1.284-.7214.4021-.358-.04474.6876-.4646-.5246-.4676.2514l.03605.0587.02953.048zm.4468 1.193c.8873-.3352-.945.0586 0 0zm-.02803.7476c.529-.0267 1.372-.6998.4019-.3168.164-.5898.549-1.25-.02273-.371-.1297.2268-.2871.441-.3791.6878zm.2191 1.17c-.06142 1.015.9853-.3786.1517.0276-.1668-.3794.5823-.8594-.1867-.4113l-.04508.1671.0801.2166zm.5391-.7094c.2183-.2914-.1862-.002 0 0zm.3715.4466c-.2863 1.069.4881-.5948-.2023-.4778.1101.11.3035.292.2023.4778zm.4524 5.579c.2834-.3466-.1691-.1797 0 0zm-21.84-1.276c.1556.4-.1566-.178 0 0zm.2355.7424c.3052.9911 1.418 2.764 1.581 3.072-.7459-.9972-1.401-2.134-1.703-3.35l.04134.0783.0804.1997zm1.839 3.386c.2829.2891.09513.2662 0 0zm.6987.7944c.1813.127-.1678.0677 0 0zm2.063 1.97c.7407.079-.2764.2294 0 0zm.4312.3629c.6931.3884 1.773.6124 2.272 1.031-.8141.044-1.743-.4061-2.277-.9488l-.02037-.0504.02566-.0317zm15.81-16.78c.1607.0896-.1541.0582 0 0z" fill="url(#g)"/><path d="m2.4728 9.109c.4016-.9298-.1552.6689-.000028 0zm.2687 4.587c.3599-.009-.2651.2816 0 0zm.08869-5.377c.2162-.5496.5502-.8206.1254-.1225-.07863.3779-.4055.5419-.1254.1225zm.1659 4.662c.1773.1686-.1588.4023 0 0zm.04688-1.139c.2883-.7598-.07614.625 0 0zm.1682 1.818c1.154.9387 1.676-1.498.2841-1.265-.2081-.7787.4232-.59.7782-.249.1546-.3622-.1437-.5815.2881-.8526-.5429-.2244-.7747-1.172-.09122-.7078 1.004-.2104.1048-1.401.9529-1.368.4172.2346.7201-1.522-.2472-1.557-.06197-.8105.9506-.1645 1.079.1946 1.328-.2814-.853-1.983.2805-1.933.5321.3846 1.077 1.739 1.234.39.04022-.6997-.253-1.692.5542-1.123-.2591-1.135 1.488-1.574 1.257-.184.3884-.1972.2375-.453.7424-.2264.1582-.6152-.6883-1.708.4674-1.157.2917.3924-.1077 1.843.6276.9087.5854-.1767.4442-.5578-.1335-.4288.5172-.1892.2941-1.573.9892-.6934-.2951.9779.5681 1.104 1.171.5443.4888-.154-.7612-1.272.09467-.8271.6502-.4528.05569 1.862.5476.6202.121.3872.4434.5812.5529.1762.2435.9706.7669-1.495.8928-.3818-.497.7718.3121.8444.3674.026 1.085-.8519-.1651 1.744.6376.4735.3859.2655.2666 1.039.6895.1765.1861-.6637 1.002-.7167.0062-.9398-.8274-.3644-1.582-.6772-2.169-.3402-.2733-.048-1.008-.1268-.329-.3195-1-.5694 1-.009 1.39-.057 1.014.2967 2.002.7038 3 1.062.4696.1511 1.468 1.233.3917.7512-.2873-.4386-1.872-.567-.7767-.1306.8683.1351-.2896 2.378.8161 1.161.1821-1.035 1.668.3737.8658-.5013.08725-.568-.6114-1.037.2038-.4875 2.948 2.169 4.603 5.927 4.489 9.593-.04373 1.745-.4646 3.484-1.368 4.982-1.483 2.916-4.32 5.146-7.499 5.802-1.06.1104-2.127.0507-3.186-.0358.8362-.5597-.822.1818-1.086-.1918-.7082.1386-.7445-.3445-.4284-.6119-.7609.478-1.061-.281-1.054-.66-.5853-.2373-1.088.2629-.226.4292.4659.7858-1.814-.1622-.9306-.1539-.269-1.195-1.745-.9244-2.391-1.838-.4104-.5843-1.421-1.338-1.305-1.968.4234.5268 1.794 1.063 2.02.8631-.869-.4596-1.544-.6018-2.396-1.369-.3588-.14-.01509-.5132-.5534-.2752.1643-.856-1.374-1.919-.5809-2.583 1.003 1.016.4484-1.762.1523-.3596-.2612-.378-1.418-.5187-.2722-.7545.7429-.1164.2098-.4796.0423-.6311.7877-.727-.3946-.368-.7616-.3029-.1477-.2388-.03349-.4377-.08074-.6896zm1.564 1.234c.4327-.1881-.2509-.2769 0 0zm.1647-3.015.02394-.0746zm.2782 3.33c.4158 1.177.7068-.5069-.07412-.3377l.04261.1771zm.1362-2.783c.3622.8905 1.523 1.793 2.277 1.583.6663-.3748-.1913-1.338-.2064-.6841-.0095.9973-2.497-1.294-.8083-.5831.578-.1286.2137.9705.6938.2856-.139-.2012 1.93.4438.85-.2718-1.032-.1246-2.312-.762-2.998-1.026-.05045.2448.02093.5146.1919.6958zm.1322 6.893c.3658-.01-.2404-.3228 0 0zm.07599-2.871c.4138-.2859-.4609-.2684 0 0zm.03055 2.338c.532.1596 2.042-.4523.7192-.3031-.2359.109-.892-.2355-.7192.3031zm.01955-5.224c1.257 1.228-.2204-1.058 0 0zm.1748 2.598c.6676-.2054-.3586-.533 0 0zm.07798.8206c.2848.003-.1463-.3122 0 0zm.1781 2.248c.1541-.0582-.1607-.0896 0 0zm-.1614-10.2c.2495-.3994-.1774-.3447 0 0zm.2823 8.228c.1762-.0711-.2116-.1993 0 0zm.1197 1.999c.8379.344 1.385-.5616 2.034-.4162.348.2268 1.089.6776 1.418.7698-.2473-.3656-1.354-2.011-.3394-1.01.3367.4842 1.324 1.817 1.079 1.929-.5473-.7737-2.136-.8005-2.126.0969.6535-.2255 1.419-.2585 1.462.474.01849-.9139 1.305.1978.23-.057-.07984.3718.6908.4817-.1236.5507-.7501.2379-2.603.4742-2.469-.6169-.8131.6978 1.377 1.25 2.066 1.049.8379-.3876 1.913-.5449 2.183.6335-.4109-1.184.3646-2.624-.5162-3.657-.2037-.5836.7166-1.023.95-1.295-.351 1.021.9461-1.565.4912-.2404-.4153.8815-.7426 1.927-.6761 2.887-.06454.8233.7243 1.94.988 2.161.6219-.0863 1.146-1.91.4345-1.027-.4422.548-.3609-1.116-.2674-1.5-.2141-1.242.1442-2.491-.1468-3.714-.5314-.8669-1.072 1.872-1.914.8424.9407.379 2.02-2.266.7193-1.052-.2681.4829-.6494.7968-.8402.2331-.2838.8102-1.133 1.246-.1934 1.817-1.414.5446-.7376-1.601.05023-2.019.1568-.3728.8113-.9816.6992-.1593.8679-.3714.3482-1.446-.301-1.634-.1845-1.059-.5486-1.882-1.586-2.276-.6323-.5765-1.197-1.238-1.096-2.039-1.231.2185-.2493 1.5.09671 2.015-.2814.6064-.1149.4779.1842.6797.9723.3989-1.854 1.087-.5558 1.973.519.2161.9368.5464.8209.9904.5637-.2054 2.066-.5788 1.057.4018-.3523.2706-1.832 1.418-.6531 1.089.43.0409-1.417 1.194-1.353.0607.7434-.7302-1.413.7602-.09304 1.043.5151.6528-1.228-.3587-.5464.5193-.0046.5073-1.353-.0604-1.167.4978zm1.696-5.112c.4104.0212-.1753.4598 0 0zm.5238 4.162c.5837.286-.5344.2049 0 0zm.4204-3.997c.2032.0343-.07579.1578 0 0zm.07182-.6501c.4011-.527.7146.6554.1569.0449-.04534.2922-.3397.1425-.1569-.0449zm.2916 4.344c.7443.0236.7451 1.136.1696.2368-.0759-.0376-.3255-.1158-.1696-.2368zm.07249-4.659c.01621-.7923.236.3922 0 0zm.03832-1.012c.2541.181-.2221-.0252 0 0zm.0092 2.165c.8151-.14.3572.5355 0 0zm.1181-1.031c.163.0965-.1587.1038 0 0zm.1004.6434c.4549-.1182.2184.1906-.0428.0625zm-.01995-1.601c.3896.0685.4724.4926.07107.1271zm.4957 3.894c.5905-.4382-.4607.7105 0 0zm.5347.9844c.1949.0746-.2146.199 0 0zm.08242-2.327c.7094-.617.6566-.0666-.08865.1142zm.0328 3.945c.5142.276.3883 1.643.1692.4543-.01865-.1619-.2499-.2818-.1692-.4543zm.0239 1.786c.4062.0407.4955-1.077.585-.0547.03733.8482-.4072.7446-.585.0547zm.1827-6.443c.192.1198-.3249.1241 0 0zm1.421 5.952c-.0053-1.63.6067 2.218.007.6735-.04376-.2204-.06124-.4532-.007-.6735zm.06247-1.229c.1693-1.093.344-.0557-.01449.4053-.04355-.131.02596-.2746.01449-.4053zm-6.367-9.788c1.134-.9854-.1495-.456 0 0zm.1028 4.84c.1541-.0582-.1607-.0896 0 0zm.1693 5.751c.2549-.0292-.1738-.2363 0 0zm.03561-2.889c.4646-.3032-.2312-.5124 0 0zm.06981.3308c.1694-.154-.1759-.1463 0 0zm.1752-8.955c.4537-.002-.2589-.4164 0 0zm.1875 1.095c.3222-.1967-.2048-.1844 0 0zm.2637 10.25c.1587-.1038-.163-.0966 0 0zm-.0214-4.735c.1785-.1328-.1562-.1012 0 0zm.09293 3.048c.3767-.0143-.304-.2587 0 0zm-.1543-10.61c.3674-.2093-.2512-.1711 0 0zm.04094.996c.1566-.0967-.1565-.0512 0 0zm.05629-.3319c.6499-.3182-.1688-.8956 0 0zm.3202 4.289c.2534-.1721-.5632-.0259 0 0zm.07437 7.293c.5023.5566 1.23-.1442 1.772.1432-.1369-.5654-1.571-.8665-1.772-.1432zm.3422-3.45c.05593-.2557-.2644.102 0 0zm-.1622-9.039c1.19-.004.4919-1.356 0 0zm.3304 13.16c.4278-.0193-.2253-.3769 0 0zm-.06337-14.89c.338-.6356-.3144.2247 0 0zm.3715 6.346c.1014-.2663-.3729-.1482 0 0zm-.1627-3.87c.2004-.2333-.2205-.1239 0 0zm.1081-2.09.02394-.0746zm.06858.3236c.3608-.228-.3247-.3302 0 0zm.2768 11.33c.07394-.18-.2305.1414 0 0zm.08001 4.061c.1785-.1328-.1562-.1012 0 0zm-.09099-14.51c.6079.1779 1.156.3816 1.193-.5246.04359-.9754-.3995-.3074-.6445.0416-.1571.0973-.8232.1745-.5488.483zm.2187 3.491c.2151.3785-.148-.7805 0 0zm.2539 5.713c.2244-.4001-.4721-.1097 0 0zm.06157 5.035c.4187-.1115-.4653-.5441 0 0zm-.06245-15.15c.2233-.1197-.2281-.1006 0 0zm.1977 4.357c.1566-.0967-.1565-.0512 0 0zm.4004 11.79c.8922.0453-.4319-.4245 0 0zm-.08795-12.5c.1645-.1927-.195-.205 0 0zm.24-.2754c-.1127 1.076 1.085 2.463 1.484.8396.7087.1432.7498-1.598 1.39-1.315-.2948.4146-1.312 1.481-.2525 1.015.3874.7292-1.256.2765-1.255 1.246-.4436.5086-.579 2.166.3437 1.115.2773-.6164 1.361-.6892.5271-.0342-.265.5695-.7439 1.227-.2206 1.853.8646-.0544.9956-2.145 1.646-1.512-.255.6844-.8482 1.524-.7988 2.22.4442.0154.4976 1.18.9031.1508.2846-.4578.4956-2.358.9811-1.879-.1247.4276-.623.8614-.05354 1.247-1.283.2107-.0605 1.705-.9908 1.904-.4528.1914-.1034 1.93-.142 2.721.38 1.158 1.473 1.794 2.551 2.259.8038.0136.9629-.7102.04847-.6633-.6524.0427-1.266-1.451-.4758-.9964-.2428.6943.418.3212.7095.7901.2959-.7133-.6084-1.092-.1475-1.67-.7694.0957-2.067-.2569-1.863-1.332.6677.9927 1.689.6258 2.707.5802 1.256.23-1.252.4509-.09613.5719.9309-.2053 1.615.0139 2.507-.2516-.8706-.0834-.6754-1.948.3007-1.487.8513-.0581 2.803-.8249 2.113-1.811-.3912.7988-1.361 1.264-2.339 1.27-.9451-.197-2.321.8342-2.538.3867 1.115-.0781 1.348-1.585 2.18-2.161.3002-.3712.6377-2.148-.05266-1.502.04424.73-.7794 2.496-.9552.9256.5388-1.032.5143-1.986 1.538-2.665.5285-.7363 1.409-2.422.5066-2.978.479 1.447-.8683 2.442-1.539 3.53-.337-.5969.0155-1.68-.7269-2.085.4019-.7291-.2194-2.35-.9252-1.147.7546.2719-.1863 1.579-.3354.4908-1.043-1.076.5084-1.693 1.206-2.284.5407 1.015.6818-.8345-.3316-.5896-1.127.4553-2.354 1.018-3.275 1.938-.434.5652-1.562.8783-.9711-.2398.5203-.3128.2122-1.125 1.168-1.246 1.163-1.006-1.255-.8829-1.618.011-.216-.4738.5275-1.928-.5722-1.354-.718.8256-.5735 2.408-.5825 3.201.1987-.4351.6244-2.764.6973-1.319-.6905.6193-.4647 2.376-1.142 2.671-.2055-.7193-.7555-2.301.2302-2.308-.2255-1.585-1.73.4128-1.494 1.227-.06319.2151-.1197.4462-.04237.6679zm.5913-.0601c.6861.1599-.4001.3875 0 0zm-.06668.2691c.0993.2443-.1015-.0374 0 0zm.2563.2639c.6384.5611-.04415.9278-.01779.0767l.01559-.0672zm1.663 1.311c.3938-.4325.9094-.008.1154.1073-.07085.149-.4406.1596-.1154-.1073zm-.136-5.013c.3699.3044-.1896.2038-.12-.0111zm.5798 5.346c.4619-.3574-.09275.6042 0 0zm.2844-.2512c.9725-.5686.4333.3107 0 0zm.02763-1.812c.4104-.0369-.2342.2701 0 0zm.1312 1.054c.3609.0809-.4062.3352 0 0zm-.03943 1.144c.92-.0579.4221 1.06 0 0zm.5381 4.829c.8008.745-.05062.9552 0 0zm.1097 2.428c.1706.0601-.1756.135 0 0zm.02974.2529c.4934-.2595.4028.2882.2387.2868-.04487.3271-.4638-.1522-.2387-.2868zm-.0133-.5648c.6981-.0607.0367.6688 0 0zm-.05251-9.879c.3509.1625-.2176.0853 0 0zm.1485 7.384c.5284.3439.818.637.5271-.0276.44-1.002 1.333-2.398.4118-3.371-.63-1.25 1.225 1.193.6365-.1648-.1363-.6232-.2355-.8192-.4395-.4936.1678-.6768-.1683-1.632-.2777-2.001.2047.2747.8873 1.764.8349.5984-.1944-.5587-.5586-1.499.02266-.4614.4432.3346.9347-1.525.5447-.2972-.4117.576-.2889 1.452.2777.4841.169-.4028.6895-1.108.7686-.2647.7332.2479.8294 1.257.06275.4114-.5707-.0762.6902 1.3.3578 1.807.2577.4137.4171 1.796.08042.6661-.4733-.4259-.4732-2.469-1.25-1.42 1.166.4034.7262 2.001.2919 2.958-.2482.5271-.8444 1.567.1557.8119.3588-.3546 1.172-1.502.8949-.3753-.7345.9564-1.786 1.698-2.997 1.709-.07086.6052-.9419-.2695-.9032-.57zm.7882-.2076c.4035.2841.1193-.2618-.05072-.1224zm.3007-.1796c.9591.7542-.2385-1.251 0 0zm.1459-4.21c.3727-.2264-.1139-.3869 0 0zm.189 3.888c.9611-.2456 1.539-2.098.9366-2.845-.1858.371-.2404.9571-.3688.9714.4409.5723-.3334.7766-.1868.1289-.5712.0546.4908.8517-.1449.8865.4948.4854-.6753-.2288-.2844.6116-.01307.0889.0166.1657.0483.2465zm.1279.8611c.1516-.0666-.1753-.1445 0 0zm.04627-4.507c.9392-.216-.1968-1.025 0 0zm.3067 4.084c.204-.1038-.2764-.1069 0 0zm.02894-3.514c.7141-.4051 1.15 1.765.9524.259-.01335-.3896-.9658-.8644-.9524-.259zm.2534-1.115c.05593-.2557-.2644.102 0 0zm.489-.2417c.7829-.2403-.6932-.0833 0 0zm.429 1.313c.1541-.0582-.1607-.0896 0 0zm-3.032-.6424c.4583-.1195-.2187.2508 0 0zm.02351-1.354c.7683-.8945.3456.7515 0 0zm.04551-1.863c.3729.1072-.1504.2714 0 0zm.2906 11.25c.3388.1272-.2306.1758 0 0zm-.1066-7.198c.5868-.0943-.06872.5081 0 0zm.2933 6.155c.1607.0896-.1541.0582 0 0zm.02862 1.266c.64.1636.2514.6827 0 0zm.01748-8.071c.298.1795-.3117.1987 0 0zm.1934 6.95c.7798.0503-.07222.4627 0 0zm-.2112-9.639c.9216-1.064.4349 1.021 0 0zm.2104 10.03c.2426.1164-.1763.1703 0 0zm-.05239-8.201c.3932.7726-.3704-.004 0 0zm.09793 6.119c.5731-.3404 2.189.0379 1.739.5877-.7815.2931-1.243-.1152-1.739-.5877zm.04414-9.084c.2411-.35 1.775-1.091 1.199-.3584-.8032-.1132.1846.4565-.6498.2884.4914.3142.8649 2.25.3279.9266-.07325-.4621-.55-.619-.877-.8567zm.4065 12.57c.2032.0343-.07579.1578 0 0zm.02562-2.804c.1565.0512-.1566.0967 0 0zm.1465 1.077c.1565.0512-.1566.0967 0 0zm.2418.5805c.8216-.0548.2366.622 0 0zm.6859-2.559c.5523-.091 1.449 1.072.4221.4384-.02688-.1526-.7787-.2976-.4221-.4384zm.08396-9.696c.433-.4942 1.203-.51.2899-.0548-.036.0151-.4536.4151-.2899.0548zm.06144 2.457c.1953.1547-.1917.1136 0 0zm.3049 6.59c.163.0965-.1587.1038 0 0zm.2679 1.472c.8349.0651-.6646.214 0 0zm.4337-.7967c.3386.3345 1.585-.3804.9741.6069-.2665.9162-1.603-.7578-.9741-.6069zm-.2204-8.052c.7625.2086-.1954 1.138 0 0zm.2473 8.939c.4732-.0242-.03427.3427 0 0zm-7.613-12.42c.2528-.1365-.177-.1709 0 0zm.3466.8992c.4674-.1628-.4948-.3318 0 0zm.08124-1.117c.1511-.0834-.1245-.1792 0 0zm.05287 1.37c.1587-.1038-.163-.0966 0 0zm.1475 4.878c.1716-.1074-.1628-.1579 0 0zm.1086-6.275c.4956-.0809-.2864-.2844 0 0zm1.011 19.06c.2243-.1044-.2287-.0942 0 0zm-.01546-5.088c.204-.1038-.2764-.1069 0 0zm-.2445-13.18c.2275-.1403-.09343-.5124 0 0zm.4837 18.18c.1694-.154-.1759-.1463 0 0zm-.3293-18.96c.2166-.3232-.2225.0263 0 0zm.4397 17.95c-.198 1.211.7226.1029 1.03-.2246-1.057.3054-.4288-.905-1.051-1.187-.1515.4464-.04052.9562.02087 1.412zm.04722-19.1c.3361-.1596-.3953-.0739 0 0zm-.0681.7492c.2397.0378-.2262-.2091 0 0zm.01011-1.413c.2772-.1689-.2573-.1286 0 0zm.5279 20.88c.7425-.0152-.4541-.252 0 0zm-.05916-9.93c.515.0724-.154-.8034 0 0zm.5052.7841c.1587-.1038-.163-.0966 0 0zm.4896 9.148c.1409-.327-.4917.0753 0 0zm-.1862-1.719c.4669-.1515-.3754-.1399 0 0zm.1058.4821c.3588-.1695-.478-.15 0 0zm-.3413-16.8c.6857-.137-.3342-.4368 0 0zm.229 6.517c.2772-.1688-.2573-.1286 0 0zm.112 3.182c1.229-.4384-.3336-.3572 0 0zm.1998 7.427c.6722.4551-.3682-.6187 0 0zm-.06478-3.231c.06235-.1392-.08517-.0724 0 0zm.273 2.797c.6212-.0106.4674.6656.4148.5786.5747.2253 1.114.2148.4478-.3573-.08614-.5867-1.355-.2413-.8625-.2213zm.0307 1.418c.2927-.4901-.6064.0273 0 0zm-.2001-4.082c.2157-.089-.2991-.0761 0 0zm.09359 2.306c.2667-.0843-.229-.2708 0 0zm-.1873-16.81c.4703-.2037-.4179-.1286 0 0zm.2792 15.13c.4614.4667.9077-.4552.09116-.1461-.15-.3814-.2026.0781-.09116.1461zm.05997 1.176c.09033-.1925-.2104.005 0 0zm.2128.5167c.2173-.2048-.1893-.0687 0 0zm.0659 1.926c.5849-.0929 1.162-.4439.223-.2267-.09296-.0116-.4284.0909-.223.2267zm.05062-3.05c.3153-.1012-.2077-.1571 0 0zm-.2788-15.72c.3296-.2273-.3416-.2371 0 0zm.4998 15.9c-.0086-.2153-.2012.1455 0 0zm.1958-.4411c.8577.1424-.2899-.5632 0 0zm.02159.5358c.3485-.3173.03882-.6524 0 0zm.1496.9768c.2556.6312.8553 1.373.4591.2695-.04718-.1335-.6574-.9817-.4591-.2695zm.05307-.3998c.4473-.5389 1.93.8474 1.287-.1862.345-.4748-.1292-1.239-.2797-.4181.0742.8775-.8877-.0459-1.007.6043zm.03347.8093c.1873-.0578-.1957-.1676 0 0zm.2115 1.595c.5428-.1233-.2972-.3477 0 0zm-.3609-19.81c.1426-.1311-.2362-.0486 0 0zm.7169 17.91c.1541-.0582-.1607-.0896 0 0zm.05252-1.351c.1566-.0967-.1565-.0512 0 0zm-.08332-16.52c.4861-.1637-.5509-.3193 0 0zm.3503 18.16c.8104-.355-.3888-.3226 0 0zm.2379-4.699c.1727-.0869-.2956-.1469 0 0zm-.2063-13.67c.03667-.104-.2413.101 0 0zm.5429 18.36c1.278.1505-.4232-.5427 0 0zm.1491 1.464c.2345-.1585-.2195-.0426 0 0zm.1622-2.636c.5577-.2933-.3318-.4129 0 0zm.1928-1.409c.588.1288 1.317-.6454.3531-.2702-.2002-.0532-.5214-.0477-.3531.2702zm.04697.864c.1587-.1038-.163-.0966 0 0zm.2293.5914c.3369-.0875-.3974-.1989 0 0zm-.07112-1.89c.4624-.21-.3351-.515 0 0zm.2357 3.146c.9848.7734-.1235-1.623 1.129-.9474 1.065-.1667.0708-1.305.9645-1.366-.4472-.2739-1.338-.3115-1.702.0416.8278.1738-.4725.6712.4132.7574.9006.6064-1.453.2685-.5492 1.069.5717.6479-.4833.0691-.2549.4453zm.9382-2.004c.7895.2448.3918.8371-.1033.0716l.02666-.0393zm-.8898 2.54c.632-.1366-.3155-.4344 0 0zm-.2699-18.43c.3489-.265-.2756-.1843 0 0zm.8381 15.14c.4717-.004-.1757-.5293 0 0zm.0591-1.587c.5898 1.571 2.758-.845 1.657-.72.03986 1.097-1.491.0837-1.657.72zm.1261.9078c.6439.01-.5052-.5004 0 0zm.1885.6493c.5116.064 1.486-.1225.4354-.2504-.1512-.1906-.7772.0278-.4354.2504zm-.2983-17.1c.09034-.1925-.2104.005 0 0zm-.04956.5113c.06235-.1392-.08517-.0724 0 0zm.3037 12.07c.4412.0151-.2448-.3126 0 0zm.2645 3.814c.7826.3744 1.506 1.066 2.444.9696-.5209.1786-.8342.7787-.07861.3083 1.071-.8652-1.076-.3606-1.369-1.113-.1339-.2025-1.428-.7746-.9965-.1651zm-.1685-13.34c.1587-.1038-.163-.0965 0 0zm.6662 9.439c.5112-.1937 2.696.0409 1.252-.466.01505-.6192 1.539-1.737.8051-2.725-.5545-.1784-.19 1.466-.8845 1.827-.302.524-1.745.6981-1.173 1.363zm.3075 7.259c.02105-.1934-.4317-.0477 0 0zm-.09089.3142c.4366-.2244-.1599-.2905 0 0zm.1129-12.86c.2494-.3881-.2793.0311 0 0zm.0041-.601c.6281.6835.9087-2.312.3688-.5412-.07197.1861-.4571.2982-.3688.5412zm.5544 11.57c1.072-.7288-.9946.0913 0 0zm-.2131-.8226c.2348-.2621-.2664.0994 0 0zm-.04372-3.163c.3512.1561-.2497-.6211 0 0zm-.02426-3.416c.2346-1.034-.1447-.6081 0 0zm.0058-7.508c.1883-.1633-.1964-.1049 0 0zm.5328 16.08c.3186-.1443-.3583-.1713 0 0zm-.2554-16.29c.6577-.13.7738-1.702.1959-.5525-.06398.1216-.4386.4121-.1959.5525zm.1446 7.93c.5962-.3402.2612-1.107 0 0zm.1584-1.881c.4159-.5366-.1605-.5894 0 0zm.1838 9.766c.1486-.1428-.09599-.1594 0 0zm-.0069-9.433c.5743-.0964-.3004-.3016 0 0zm.3954 9.533c.1355-.2417-.3782.2378 0 0zm-.3304-15.39c.799-1.063.1942 1.279.8841.2002.448-.3317.2602-.8152-.1579-.3178.0295-.3433.6429-1.448.1088-1.075-.1402.4492-.865.7464-.8349 1.193zm.4091 14.88c.1989-.253-.1782-.0561 0 0zm-.2251-13.94c.1727-.0869-.2956-.1469 0 0zm.1676.1624c.1727-.087-.2956-.1469 0 0zm.09061 4.014c.1541-.0582-.1607-.0896 0 0zm.06294-6.973c-.06965-.0844-.1951.1075 0 0zm.1379 10.66c.1984-.1332-.2589-.3599 0 0zm.03755-.2898c.1756-.135-.1706-.0601 0 0zm.1181 5.626c.3989-.2206-.1983-.3577 0 0zm.1374-13c.7263-.172-.1783-.5363 0 0zm.5403 12.39c-.0086-.2153-.2012.1455 0 0zm-.1712-11.82c.5541-.0119 1.23-1.088.387-.8078.1904-.5852-.1115-.8923-.2657-.1692.06911.3168.03119.8246-.1213.977zm.08199-2.419c.6835.6744-.2937-.8972-.000068 0zm.2771 3.092c.6679-.3992-.0045 1.31.6354.4576.7874-.3699.4511-1.203-.2835-.8139-.1477-.021-.601.1337-.3519.3563zm.6467-.0721c.09371.1216-.1537.0798 0 0zm-.5992-2.448c.1863-.1317-.3079-.2588 0 0zm.3096.564c.1678-.0677-.1813-.127 0 0zm.2882 3.336c1.189-.6018-.5336 1.045.5344.6489 1.039-.3448.5023-.5481.2074-.5709.4197-.5774.5203-1.288-.133-.4658-.1123.123-.8956.0781-.6087.3879zm-.04605-3.079c.6888.2395.8464 1.788.9449 1.799.2031-.712.05668-1.094-.4472-1.733-.03302-.1148-.9978-.324-.4977-.066zm.2201 6.35c.3485-.2784-.3083-.1934 0 0zm.1873-1.346c-.04432 1.057 1.176-.7296.3038-.1034-.2998-.5685.9214-.898.5192.0499.3852.6122.5607-1.607-.4016-.8282-.2996.1588-.581.5274-.4215.8817zm.9109-1.412c.1587-.1038-.163-.0966 0 0zm.6488 2.615c.4887-.024-.3932-.2256.000019 0zm-21.31.8202c.804-.2496-.1087.6401 0 0zm-.01358-3.367c.2536-.6163-.0098.5073 0 0zm.1125 3.674c.2718.1548-.2576.1563 0 0zm.03605-4.404c-.08783-.4864.6996-1.989.5858-1.408-.3634.128-.2493 2.284-.5858 1.408zm.1674.1105c.2387-.168-.2739-.2158 0 0zm-.000905 2.348c1.019-.7336.0682.8114 0 0zm-.1067-5.845c.1031.0687-.1892.1432 0 0zm.3854 3.891c.64.098-.4327.3139 0 0zm.266 7.753c.3291.2161-.2059.2029 0 0zm-.02806-7.537c.2911.0173-.2994.1371 0 0zm.1833 8.033c.6603.0176.2077.8904 0 0zm-.03747-10.72c.6079-.5918-.3218.5115 0 0zm.1105.4138c.7404-.9359.09429 1.061 0 0zm.000969-.767c.09859.1145-.1453.1645 0 0zm.3165 11.73c.2868.1046-.09871.2041 0 0zm-.07014-10.01c.1772-.0595-.198.372 0 0zm.4357 10.44c.3159-.006-.2518.1985 0 0zm.3553-.5255c.2428.0638-.2269.0784 0 0zm.1327 1.181c.2947-.1431-.1397.3215 0 0zm.2351.2503c.3837-.0248-.3134.2099 0 0zm-.04669-14.6c.6084-.3179.5887 1.074.2949.2484-.2237.1654-.4949.0413-.2949-.2484zm.3199 14.86c.5497.1379-.0091.358 0 0zm.2621.2628c.5808.1607.101.8082 0 0zm.5027.4872c.1752.1445-.1515.0667 0 0zm.5613.1158c.5047.2839 2.325 1.32.8187.8836-.3545-.1497-.9253-.3972-.8187-.8836zm-.2761-16.62c.5368-.4504.2376.8743.1736.09-.04524.0572-.4516.2107-.1736-.09zm.2818-.7453c.4456.01-.3307.3026 0 0zm.679-.4875c.4109-.1342-.2097.2068 0 0zm.5069-.6812c.1576.0826-.2263.0847 0 0zm.1895-.0375c.3224-.302-.163.3778 0 0zm.9951-.6721c.4677-.0515-.2585.1632 0 0zm.3156-.2721c.3172.1381-.2563.1254 0 0zm.06211.218c.2408-.0301-.2236.202 0 0zm.2208-.092c.6-.077-.2793.273 0 0zm.4697 21.19c.5836-.1724-.01768.6005 0 0zm-.1844-21.43c.4191-.0834-.2402.276 0 0zm1.674-.0523c1.154-.4471-.1483.8152-.000106.00001zm.3727.9174c.5272.5924-.08467.4028-.1578-.0569zm.1552-.3939c.3256-.0267-.1688.6487 0 0zm.2127-.524c.2331.0487-.224.1616 0 0zm-.0032-.3685c.4761-.1591 1.413.2818.4211.1389l-.1918-.0507zm1.407.8194c.4887-.4887-.2942.8955 0 0zm.9688 21.69c.1576.0826-.2263.0847 0 0zm-.2829-21.76c.3756.0509-.1573.2357 0 0zm.8749.0352c.3576-.005-.2126.2903 0 0zm.2892.0659c.1552.0319-.196.0376 0 0zm.3542-.0112c.4058.0931-.2098.1014 0 0zm.2394.4555c.5592.1792-.3989.5929 0 0zm1.869-.3619c.6873-.1169-.4604.2306 0 0zm.6951.367c.4172.3489-.2998-.1096 0 0zm.04789.8531c.8383.7626-.7581.4133 0 0zm.9534-.4431c.245-.003.03135.211 0 0zm.269.1803c.1607.0896-.1541.0582 0 0zm1.506 1.358c.1562.1012-.1785.1328 0 0z" fill="url(#h)"/></g></svg>