<svg height="241pt" viewBox="0 0 516 241" width="516pt" xmlns="http://www.w3.org/2000/svg"><g fill="none" stroke="#b2b2b2" stroke-dasharray=".666667 .666667 .666667 .666667" stroke-width=".66667" transform="translate(.58717 .44439)"><path d="m50.183 213.97h372.2"/><path d="m50.183 219.17h372.2"/><path d="m50.183 208.87h372.2"/><path d="m50.183 17.464h372.2"/><path d="m50.183 43.364h372.2"/><path d="m50.183 193.27h372.2"/><path d="m50.183 162.27h372.2"/><path d="m50.183 120.97h372.2"/><path d="m50.183 69.164h372.2"/><path d="m50.183 177.77h372.2"/><path d="m50.183 146.77h372.2"/><path d="m50.183 95.064h372.2"/><path d="m84.013 224.37v-206.9"/><path d="m117.89 224.37v-206.9"/><path d="m151.69 224.37v-206.9"/><path d="m185.49 224.37v-206.9"/><path d="m219.39 224.37v-206.9"/><path d="m253.19 224.37v-206.9"/><path d="m286.99 224.37v-206.9"/><path d="m320.89 224.37v-206.9"/><path d="m354.69 224.37v-206.9"/><path d="m388.49 224.37v-206.9"/><path d="m422.39 224.37v-206.9"/></g><g font-family="DejaVu Sans"><g transform="translate(6.5383 2.4782)"><text x="18.89879" y="124.10197"><tspan font-family="'DejaVu Sans'" font-size="10">10</tspan></text><text x="31.594908" y="118.37229"><tspan font-family="'DejaVu Sans'" font-size="6.667">20</tspan></text></g><g transform="translate(6.6783 2.5042)"><text x="18.89879" y="98.241966"><tspan font-family="'DejaVu Sans'" font-size="10">10</tspan></text><text x="31.594908" y="92.512291"><tspan font-family="'DejaVu Sans'" font-size="6.667">25</tspan></text></g><g transform="translate(6.5578 2.5142)"><text x="18.89879" y="72.371971"><tspan font-family="'DejaVu Sans'" font-size="10">10</tspan></text><text x="31.575377" y="66.642296"><tspan font-family="'DejaVu Sans'" font-size="6.667">30</tspan></text></g><g transform="translate(6.6978 2.5042)"><text x="18.89879" y="46.541969"><tspan font-family="'DejaVu Sans'" font-size="10">10</tspan></text><text x="31.575377" y="40.812294"><tspan font-family="'DejaVu Sans'" font-size="6.667">35</tspan></text></g><g transform="translate(6.3755 2.5342)"><text x="18.89879" y="20.641968"><tspan font-family="'DejaVu Sans'" font-size="10">10</tspan></text><text x="31.757677" y="14.912292"><tspan font-family="'DejaVu Sans'" font-size="6.667">40</tspan></text></g></g><g fill="none"><g stroke="#000" stroke-width=".9998"><path d="m50.77 17.908v208.5"/><path d="m48.18 224.81h374.8"/><path d="m118.48 226.41v-1.64"/><path d="m186.08 226.41v-1.64"/><path d="m389.08 226.41v-1.64"/></g><g stroke-dasharray="10.6677 1.06667 10.6677 1.06667" stroke-width="1.0667"><path d="m50.770181 224.80791 2.146-.1857c9.994-.9457 20-1.863 30-2.784l1.707-.1545m338.199999-31.12h6.465m-12.61.5879.0973-.0309h.1953l.0487-.0309h.2438l.0488-.0309h.244l.0488-.0311h.3903l.0485-.0309h.244l.0485-.0309h.2926l.049-.0309h.39l.0488-.0309h.1953l.0975-.0309h.195l.0488-.0312h.3903l.0485-.0309h.2443l.0482-.0309h.2444l.0484-.0309h.3904l.0975-.0309h.1465l.0485-.0309h.2441l.0487-.0312h.3901l.0975-.0309h.1463l.0487-.0309h.3901l.0978-.0309h.1465m-48.33 4.455.1947-.0309h.1465l.1463-.0309h.0978l.2925-.0312.1466-.0309h.1947l.2929-.0309.0977-.0309h.146l.1466-.0309h.4875l.2926-.0309.244-.0312.5851-.0618.1466-.0309h.195l.146-.0309h.4878l.1466-.0309.2925-.0309.5854-.0617h.2434l.5854-.0618.2443-.0309.2926-.0312.1463-.0309h.4872l.1466-.0309.244-.0309.5851-.0618h.3903l.1463-.0312.2438-.0309.0978-.0309h.39l.2438-.0309.1463-.0309h.1465l.2438-.0309h.2441l.2435-.0312.1465-.0309h.146l.2444-.0309h.2434l.4879-.0618.2441-.0308h.2434l.2444-.0312.2435-.0309.2438-.0309h.244l.4876-.0618h.2441l.2437-.0309.2438-.0309.2441-.0309h.2438l.1953-.0309.2435-.0309h.244l.2438-.0309.195-.0309h.2441l.2438-.0312.195-.0309h.2441l.195-.0309.2438-.0309h.2437l.1953-.0309.2435-.0309h.2929l.0978-.0312.1462-.0309h.341l.2444-.0308.1947-.0309h.1953l.2435-.0309.1953-.0309h.1953l.2438-.0312.2438-.0309h.195l.0975-.0309h.2926l.2443-.0309.1948-.0309h.244l.1948-.0309.1953-.0309h.1953l.0972-.0309h.2928l.2438-.0309.1953-.0309h.195l.0975-.0309h.2929l.2435-.0309.195-.0312h.1953l.0975-.0309h.2925l.3901-.0618h.1953l.0975-.0309h.3416l.0487-.0309h.4391l.0975-.0311.0975-.0309h.2438l.0975-.0309h.2926l.0975-.0309h.2925l.3903-.0618h.1466l.0975-.0312h.2925l.0976-.0309h.2925l.3906-.0618h.146l.0975-.0309h.2925l.0491-.0309h.341l.0978-.0312h.244l.0976-.0309h.2437l.0975-.0309h.2926l.1465-.0309.1953-.0309h.1948l.0487-.0309h.2926l.049-.0309h.2928l.0973-.0309h.2437l.0978-.0309h.2438l.0975-.0309h.2438l.0975-.0309h.2925l.0491-.0309h.2928l.0485-.0311h.2925l.0491-.0309h.2925l.0975-.0309h.1953l.0972-.0309h.2441l.0975-.0309h.2438l.0487-.0309h.2926l.0975-.0312h.1953l.0972-.0309h.2444l.0975-.0309h.2435l.049-.0309h.2435l.0978-.0309h.2441l.0975-.0309h.195l.0975-.0312h.2438l.0975-.0309h.3901l.0978-.0309h.195l.0978-.0309h.2438l.0487-.0309h.2438l.0487-.0309h.2441l.0975-.0309h.2438l.0488-.0309h.3903l.0485-.0309h.2925m-331.999999 30.53 1.609-.1548c5.609-.4878 11.22-1.05 16.829999-1.547l1.366-.1236 1.414-.1239c7.391-.7058 14.8-1.349 22.19-2.042l1.317-.1239 1.268-.1236c4.449-.3994 8.92-.8183 13.36-1.238l1.804-.1545 1.756-.1548c2.569-.2386 5.136-.4804 7.706-.7114l2.78-.2475 1.366-.1236 1.317-.1239 1.268-.1239 1.22-.0926 2.341-.2163 2.292-.2169 2.195-.1856 2.049-.1857 2-.1854 1.902-.1857 1.854-.1856 1.756-.1545 1.707-.1548 1.658-.1545.7807-.0618c1.444-.1808 3.056-.2781 4.536-.4025l.8291-.0927.9267-.093c2.04-.1652 4.123-.394 6.145-.5567l.8294-.0927.7317-.0618.6828-.0621 1.17-.1236 1.024-.0926 1.073-.0927.5366-.0621.5366-.0309.9754-.0927 1.024-.093.585-.0309.5854-.0618.6828-.0621c1.481-.1406 2.954-.3092 4.438-.4328l.6341-.0618.5363-.0621c.7806-.0643 1.692-.0964 2.439-.2166l.4879-.0308.5366-.0618c1.264-.0332 2.493-.2642 3.756-.3093l.5366-.0618.4388-.0312c.6216-.1057 1.452-.1542 2.097-.2165l.3903-.0309.4875-.0309.4879-.0618 1.122-.093 1.073-.0927.5366-.0618.4391-.0309.39-.0312.3413-.0309 1.171-.1236.6832-.0618.39-.0309.4878-.062.9267-.0927.9751-.093.4394-.0309.39-.0309.3413-.0309.2926-.0309.5365-.0312.4879-.0309.2435-.0309.3418-.0309.7314-.0618.8291-.0927.8294-.0618.8292-.0929 1.512-.1548 1.512-.1236.7313-.0621.7807-.0927.7316-.0618.6341-.0618.2926-.0309h.195l.4391-.0618.39-.0311h.2438l.2441-.0309.5853-.0618 1.366-.1239.6339-.0618 1.219-.1239 1.219-.0927 2.341-.2165 2.244-.2163 2.146-.1857 2.049-.1857 1.951-.1856.9751-.0927.9266-.0618.9267-.093.8779-.0927 1.756-.1547 1.707-.1548 1.658-.1548.7807-.0927 2.341-.1854.7314-.0929 2.195-.1857.3413-.0309.3416-.0309.2925-.0309.3904-.0309.4388-.0312.4875-.0618.4391-.0618.4388-.0309.6832-.0618.6338-.0309.6831-.0618.6336-.062.8779-.0927.3418-.0309.3901-.0309.4388-.0621.7804-.0618.3418-.0309.2926-.0309.5363-.0312 1.17-.1236.5366-.0621h.2925l.2929-.0308.3412-.0309.7804-.0618.3416-.0309.2925-.0309.2438-.0309.2441-.0309.2925-.0309.3413-.0309 1.024-.093.2929-.0309.2435-.0309.4878-.0309.4876-.0621h.2443l.2435-.0309.2925-.0309.3901-.0309h.3418l.2926-.0309.2435-.0309h.2443l.195-.0311.2438-.0309.2926-.0309.2928-.0309.3413-.0309.2925-.0309.4878-.0618.8779-.0618h.1953l.2435-.0309.5854-.0621.2925-.0309.2928-.0309.2438-.0309h.3906l.2435-.0309.5366-.0621.5366-.0618.5851-.0618h.2928l.2438-.0309.1953-.0311h.3901l.1953-.0309.2435-.0309h.2925l.2928-.0309.2438-.0309.3903-.0621h.195l.1951-.0309.4878-.0618.4876-.0309.7806-.0618.4879-.0309.4873-.0618.4878-.0618.4388-.0312.3419-.0309.39-.0309.4388-.0309.4879-.0309.439-.062.4388-.0309.6826-.0618.4391-.0618.4388-.0312.8782-.0618h.1463l.1953-.0309h.1462l.1463-.0309.39-.0618.4388-.0309.8295-.0618.4388-.0618.3903-.0312h.1465l.146-.0309h.2929l.39-.0309.39-.0617.7804-.0621.7804-.0618h.1466l.1462-.0309.0975-.0309h.1463l.3416-.0309.39-.0312.7316-.0618.3413-.0618.3901-.0309.7319-.0621.6826-.0618.244-.0309h.2926l.3413-.0309.3415-.0309.6341-.0617 1.366-.1239 1.268-.1236.6335-.0621.6344-.0618.8779-.0927h.3413l.5854-.0621.5853-.0618.5851-.0617.5854-.0309.5365-.0618.5854-.0618.5851-.0309.5363-.0621.5369-.0618.5363-.0309.5366-.0621.5363-.0309.5366-.0618.4878-.0618.5364-.0312.244-.0309.2438-.0308.2925-.0309h.3416l.4879-.0618.4878-.0309.4873-.0621.4878-.0309.4388-.0618.4879-.0309.5853-.0618.2441-.0309h.195l.4876-.0618.4388-.0312h.1953l.2437-.0309.2926-.0309.2928-.0309.2438-.0309h.195l.4391-.0309.3903-.062.2438-.0309h.2925l.2438-.0309.1953-.0309.4388-.0309h.1953l.1948-.0312.2443-.0309.2926-.0309.195-.0309h.195l.1953-.0309h.4388l.2925-.0309.3901-.0618.1953-.0309h.1947l.2444-.0309h.4388l.5853-.093.1948-.0309h.2443l.7801-.0618.1953-.0309.2435-.0309.3904-.0311.195-.0309h.244l.3901-.0309h.1463l.39-.0618.2444-.0309.1459-.0312h.1951l.195-.0309h.2441l.1462-.0309h.195l.1954-.0309h.2437l.1953-.0309h.1463l.1463-.0309h.195l.195-.0309h.4388l.1466-.0309.39-.0618.3413-.0312.3903-.0309.3416-.0309.3901-.0309.3413-.0309.1953-.0309h.1947l.1466-.0309h.1462l.195-.0309h.1954l.3412-.0311.3904-.0309.3413-.0309.6828-.0618.1466-.0309h.1463l.1947-.0312h.1953l.1463-.0309h.3415l.1948-.0309.1953-.0309.1463-.0309h.4388l.1953-.0309.1465-.0312h.146l.195-.0309h.1953l.3416-.0309.2925-.0309.3411-.0309.1953-.0309h.1465l.0972-.0309h.1463l.1466-.0309h.195l.3416-.0309.2925-.0309.1465-.0308h.1948l.2928-.0309.2925-.0312.1463-.0309h.195l.2928-.0309h.2926l.2925-.0309" stroke="#483434"/><path d="m50.770181 224.80791 2.146-.0927c9.997-.4456 20.02-.688 30-1.33l1.707-.1238m338.299999-15.59h6.465m-12.76.3093h.1463l.0485-.0309h.5369l.0484-.0312h.6829l.0487-.0309h.5366l.0488-.0309h.7313l.0491-.0309h.6341l.0487-.0309h.6832l.0482-.0309h.4878l.0491-.0309h.6828l.0488-.0309h.6338l.0978-.0309m-48.33 2.227h.3412l.1463-.0309h.7316l.1463-.0309h.3903l.1466-.0309h.4875l.146-.0312h.6832l.1465-.0309h.4876l.146-.0309h.3418l.146-.0308h.7319l.146-.0309h.39l.1466-.0309h.6831l.146-.0312h.4391l.0975-.0309h.6341l.1466-.0309h.4385l.0975-.0309h.6829l.0978-.0309h.39l.0973-.0309h.6831l.0975-.0309h.6826l.1466-.0309h.3412l.0976-.0309h.6344l.0972-.0309h.6341l.0975-.0309h.3903l.0975-.0309h.6342l.0975-.0312h.6341l.1465-.0309h.5361l.0975-.0309h.5853l.0978-.0309h.5851l.0975-.0309h.5854l.1465-.0309h.536l.0978-.0311h.5854l.0975-.0309h.5363l.0978-.0309h.5363l.0975-.0309h.5854l.0975-.0309h.4876l.0978-.0309h.7801l.0978-.0312h.4875l.0978-.0309h.5366l.0975-.0309h.4879l.0972-.0309h.7316l.0975-.0309h.4876l.0978-.0309h.6828l.0973-.0309h.4878l.0975-.0309h.6832l.0972-.0309h.4878l.0488-.0312h.6831l.0976-.0309h.4878l.0482-.0309h.6344l.0975-.0309h.6829l.0484-.0309h.6344l.0975-.0309h.4388l.0978-.0309h.6339l.0487-.0309h.6344l.0482-.0309h.6344l.0975-.0311h.5854l.0978-.0309h.585l.0485-.0309h.5854l.0978-.0309h.585l.0488-.0309h.5853l.0488-.0309h.6344l.0482-.0312h.6831l.0975-.0309h.5851l.0975-.0309h.4879l.049-.0309h.5854l.0481-.0309h.5854m-331.999999 15.28 1.609-.0618c5.594-.3079 11.23-.5125 16.829999-.8045l1.366-.0618 1.414-.0618c7.397-.3444 14.79-.7001 22.19-1.021l1.317-.0618 1.268-.0618c4.452-.1851 8.914-.415 13.36-.5879l1.804-.0927 1.756-.093c2.544-.1148 5.174-.2154 7.706-.371l2.78-.1236 1.366-.0621 1.317-.0618 1.268-.0618 1.22-.0309 2.341-.1239 2.292-.0927 2.195-.0929 2.049-.0927 2-.0927 1.902-.093 1.854-.0927 1.756-.093 1.707-.0618 1.658-.0927.7807-.0311c1.517-.0618 3.003-.1803 4.536-.2163l.8291-.0309.9267-.0309c2.023-.1347 4.134-.1522 6.145-.2787l.8294-.0309.7317-.0309.6828-.0309 1.17-.0618 1.024-.0311 2.146-.1236.9754-.0309 1.024-.0618 1.17-.0618.6828-.0309c1.479-.0692 2.96-.1145 4.438-.1857l.6341-.0309.5363-.0312c.8226.0176 1.552-.1278 2.439-.0927l.4879-.0309.5366-.0309c1.252-.0623 2.504-.1193 3.756-.1856l.5366-.0312.4388-.0309c.699-.0003 1.395-.074 2.097-.0618l.3903-.0309.4875-.0309h.4879l1.122-.0618 1.073-.0618h.5366l.4391-.0309.39-.0309h.3413l.5853-.0312.5854-.0309h.3413l.3419-.0309.39-.0309h.4878l.9267-.0617.9751-.0312h.4394l.39-.0309.3413-.0309h.2926l.5365-.0309.4879-.0309h.2435l.3418-.0309.7314-.0312.8291-.0618 1.659-.0618 3.024-.1236.7313-.0309.7807-.0309.7316-.0309.6341-.0312h.2926l.195-.0309.4391-.0308h.39l.2438-.0309h.2441l.5853-.0309 1.366-.0621.6339-.0309 1.219-.0618 1.219-.0309 1.17-.0621 1.171-.0618 2.244-.0927 2.146-.093 2.049-.1235 2.926-.0927.9266-.0618 1.805-.093 1.756-.0927 1.707-.0621.8288-.0618.8291-.0309 1.561-.0621 1.561-.0618 2.926-.1235.3413-.0309.3416-.0309h.2925l.3904-.0309.4388-.0309h.4875l.4391-.0309h.7807l.3413-.0312.6338-.0309.6831-.0309.6336-.0309.5853-.0309.2926-.0309h.7319l.4388-.0312.3903-.0309h.7319l.2926-.0309.5363-.0309 1.17-.0618.5366-.0311.2925-.0309h.2929l.3412-.0309h.3901l.3903-.0309h.6341l.2438-.0309h.8779l.3416-.0309h.3413l.3415-.0312.2929-.0309h.2435l.9754-.0618h.7803l.3901-.0309h.3418l.2926-.0309.2435-.0309h.2443l.195-.0309h.5364l.2928-.0309h.6338l.4878-.0309.8779-.0618h.7317l.2925-.0312.2925-.0309h.5366l.1953-.0309h.4388l1.073-.0618.5851-.0309h.7319l.3901-.062h.4388l.2925-.0309h.9269l.195-.0309h.1951l.9754-.0618.3906-.0312h.8779l.4873-.0309.4878-.0309.4388-.0309.3419-.0309h.8288l.4879-.0309.8778-.0618.3413-.0309h.3413l.4391-.0309h.4388l.4394-.0309h.5851l.1953-.0309h.6825l.4388-.0312.8295-.0618.4388-.0309h.5368l.146-.0309h.2929l.39-.0309h.39l.7804-.0311.3901-.0309h.5369l.1462-.0309h.2438l.3416-.0309h.39l2.195-.093.3413-.0309h.3413l.244-.0309h.2926l.3413-.0309h.3415l.6341-.0309 1.366-.0621 2.536-.1236.5854-.0309.2925-.0309h.3413l.5854-.0309h.5853l1.17-.0618.5365-.0309.5854-.0308.5851-.0312.5363-.0309h.5369l2.146-.1236h.4878l.5364-.0312.244-.0309h.2438l.2925-.0309h.8295l1.463-.0927h.4388l.4879-.0312.2928-.0309h.2925l.2441-.0309h.6826l.4388-.0309.1953-.0309h1.073l.195-.0309.4391-.0309h.6341l.2925-.0309.2438-.0308h.8294l.1948-.0309.2443-.0309h.8779l.1948-.0309.244-.0312h.8779l.1947-.0309.2444-.0309h.6335l.1953-.0309h.6344l.7801-.0618h.4388l.3904-.0312.195-.0309h.6341l.1463-.0309h.6344l.1459-.0309h.7804l.195-.0309.1954-.0309h.5853l.1463-.0312h.6338l.195-.0309h.5366l.1463-.0309h.5853l.3416-.0309.3901-.0309h.3413l.1953-.0309h.4875l.195-.0311h.5366l.1954-.0309h.5363l.1462-.0309h.5366l.1466-.0309h.5363l.1463-.0309h.5363l.1953-.0309h.4391l.146-.0309h.4878l.195-.0309h.5369l.146-.0309h.4876l.1953-.0309h.39l.1466-.0309h.8291l.1465-.0309h.4876l.146-.0312h.4878l.1466-.0309h.4388l.1465-.0309h.146" stroke="#525266"/></g></g><g fill="#525266"><path d="m433.54092 207.68568v4.1792h-.79102v-4.1792h-.66796v-.57568h.66796v-.53614q0-.65039.28565-.93603.28564-.28565.87451-.28565.32959 0 .55811.0527v.60205q-.19776-.0352-.35157-.0352-.30322 0-.43945.15381-.13623.15381-.13623.55811v.42627h.92725v.57568z"/><path d="m435.01667 209.39734q0-1.27.39551-2.2808.3999-1.0107 1.2261-1.9028h.76465q-.82178.91406-1.2085 1.9424-.38232 1.0283-.38232 2.25 0 1.2173.37793 2.2412.38232 1.0239 1.2129 1.9512h-.76465q-.83057-.89648-1.2261-1.9072-.39551-1.0151-.39551-2.2764z"/><path d="m441.62686 210.46303q0 .67236-.50977 1.0371-.50537.36475-1.41943.36475-.8877 0-1.37109-.29004-.47901-.29443-.62403-.91406l.69873-.13623q.10108.38232.41748.5625.31641.17578.87891.17578.60205 0 .87891-.18457.28125-.18457.28125-.55371 0-.28125-.19336-.45703-.19336-.17578-.62403-.29004l-.56689-.14942q-.68115-.17578-.97119-.34277-.28565-.17139-.44825-.41309-.16259-.24169-.16259-.59326 0-.65039.46142-.98877.46582-.34277 1.35352-.34277.78662 0 1.24804.27686.46583.27685.58887.88769l-.71191.0879q-.0659-.3164-.35596-.4834-.28564-.17138-.76904-.17138-.53613 0-.79102.16259-.25488.1626-.25488.49219 0 .20215.10547.33399.10547.13183.31201.22412.20654.0923.87012.25488.62842.1582.90527.29443.27686.13184.43506.29444.1626.16259.25049.37793.0879.21093.0879.4834z"/><path d="m444.38667 209.41494q0 1.27-.3999 2.2808-.39551 1.0107-1.2217 1.9028h-.76465q.82617-.92285 1.2085-1.9424.38233-1.0239.38233-2.25 0-1.2261-.38672-2.25-.38232-1.0239-1.2041-1.9424h.76465q.83056.89648 1.2261 1.9116.39551 1.0107.39551 2.272z"/><path d="m445.39 208.61v-.65039h4.3726v.65039zm0 2.25v-.65039h4.3726v.65039z"/><path d="m454.37979 210.46303q0 .67236-.50977 1.0371-.50537.36475-1.41943.36475-.8877 0-1.3711-.29004-.479-.29443-.62402-.91406l.69873-.13623q.10108.38232.41748.5625.31641.17578.87891.17578.60205 0 .8789-.18457.28125-.18457.28125-.55371 0-.28125-.19335-.45703-.19336-.17578-.62403-.29004l-.56689-.14942q-.68115-.17578-.97119-.34277-.28565-.17139-.44825-.41309-.16259-.24169-.16259-.59326 0-.65039.46142-.98877.46582-.34277 1.35352-.34277.78662 0 1.24804.27686.46582.27685.58887.88769l-.71191.0879q-.0659-.3164-.35596-.4834-.28564-.17138-.76904-.17138-.53614 0-.79102.16259-.25488.1626-.25488.49219 0 .20215.10547.33399.10547.13183.31201.22412.20654.0923.87012.25488.62841.1582.90527.29443.27686.13184.43506.29444.1626.16259.25049.37793.0879.21093.0879.4834z"/></g><g fill="none" stroke="#000" stroke-width=".9998"><path d="m355.28 226.41v-1.64"/><path d="m84.6 226.41v-1.64"/><path d="m152.28 226.41v-1.64"/><path d="m321.48 226.41v-1.64"/><path d="m287.58 226.41v-1.64"/><path d="m253.78 226.41v-1.64"/><path d="m219.98 226.41v-1.64"/><path d="m422.98 226.41v-1.64"/></g><g font-family="DejaVu Sans"><text x="13.546488" y="223.25221"><tspan font-family="'DejaVu Sans'" font-size="10">10</tspan></text><text x="27.751066" y="218.05222"><tspan font-family="'DejaVu Sans'" font-size="10">100</tspan></text><text x=".821878" y="212.85222"><tspan font-family="'DejaVu Sans'" font-size="10">1000</tspan></text><text x="4.171965" y="197.44011"><tspan font-family="'DejaVu Sans'" font-size="10">1 million</tspan></text><text x="7.565519" y="181.94011"><tspan font-family="'DejaVu Sans'" font-size="10">1 billion</tspan></text><text x="5.880949" y="166.44011"><tspan font-family="'DejaVu Sans'" font-size="10">1 trillion</tspan></text><text x="247.34903" y="239.078"><tspan font-family="'DejaVu Sans'" font-size="10">64</tspan></text><text x="277.8287" y="239.078"><tspan font-family="'DejaVu Sans'" font-size="10">128</tspan></text><text x="179.48302" y="239.078"><tspan font-family="'DejaVu Sans'" font-size="10">16</tspan></text><text x="213.73701" y="239.08313"><tspan font-family="'DejaVu Sans'" font-size="10">32</tspan></text><text x="311.88495" y="239.078"><tspan font-family="'DejaVu Sans'" font-size="10">256</tspan></text><text x="345.85098" y="239.078"><tspan font-family="'DejaVu Sans'" font-size="10">512</tspan></text><text x="376.08652" y="239.078"><tspan font-family="'DejaVu Sans'" font-size="10">1024</tspan></text><text x="410.23065" y="239.078"><tspan font-family="'DejaVu Sans'" font-size="10">2048</tspan></text></g><g fill="none" stroke="#000" stroke-width=".9998"><path d="m50.77 17.908h-2.585"/><path d="m50.77 43.778h-2.585"/><path d="m50.77 69.618h-2.585"/><path d="m50.77 95.478h-2.585"/><path d="m50.77 121.31h-2.585"/><path d="m50.77 147.21h-2.585"/><path d="m50.77 162.71h-2.585"/><path d="m50.77 178.21h-2.585"/><path d="m50.77 193.71h-2.585"/><path d="m50.77 209.21h-21.92"/><path d="m50.77 214.41h-2.585"/><path d="m50.77 219.61h-21.92"/></g><text font-family="'DejaVu Sans'" font-size="13.067" x="54.284531" y="32.661079"><tspan font-family="'DejaVu Sans'" font-size="13.333">f(s)</tspan></text><text x="205.92331" y="9.266789"><tspan x="205.92331" y="44.65741"/></text><g fill="#483434"><path d="m433.54092 190.5789v4.1792h-.79102v-4.1792h-.66796v-.57568h.66796v-.53614q0-.65039.28565-.93603.28564-.28565.87451-.28565.32959 0 .55811.0527v.60205q-.19776-.0352-.35157-.0352-.30322 0-.43945.15381-.13623.15381-.13623.55811v.42627h.92725v.57568z"/><path d="m435.01667 192.29056q0-1.27.39551-2.2808.3999-1.0108 1.2261-1.9028h.76465q-.82178.91407-1.2085 1.9424-.38232 1.0283-.38232 2.25 0 1.2173.37793 2.2412.38232 1.0239 1.2129 1.9512h-.76465q-.83057-.89648-1.2261-1.9072-.39551-1.0151-.39551-2.2764z"/><path d="m441.62686 193.35624q0 .67237-.50977 1.03711-.50537.36475-1.41943.36475-.8877 0-1.37109-.29004-.47901-.29443-.62403-.91406l.69873-.13623q.10108.38232.41748.5625.31641.17578.87891.17578.60205 0 .87891-.18457.28125-.18457.28125-.55371 0-.28125-.19336-.45703-.19336-.17579-.62403-.29004l-.56689-.14942q-.68115-.17578-.97119-.34277-.28565-.17139-.44825-.41309-.16259-.2417-.16259-.59326 0-.65039.46142-.98877.46582-.34277 1.35352-.34277.78662 0 1.24804.27685.46583.27686.58887.8877l-.71191.0879q-.0659-.31641-.35596-.4834-.28564-.17138-.76904-.17138-.53613 0-.79102.16259-.25488.1626-.25488.49219 0 .20215.10547.33398.10547.13184.31201.22413.20654.0923.87012.25488.62842.1582.90527.29443.27686.13184.43506.29444.1626.16259.25049.37793.0879.21093.0879.48339z"/><path d="m444.38667 192.30816q0 1.27-.3999 2.2808-.39551 1.0107-1.2217 1.9028h-.76465q.82617-.92285 1.2085-1.9424.38233-1.0239.38233-2.25 0-1.2261-.38672-2.25-.38232-1.0239-1.2041-1.9424h.76465q.83056.89649 1.2261 1.9116.39551 1.0107.39551 2.272z"/><path d="m445.39 191.5v-.65039h4.3726v.65039zm0 2.25v-.65039h4.3726v.65039z"/><path d="m454.37979 193.35624q0 .67237-.50977 1.03711-.50537.36475-1.41943.36475-.8877 0-1.3711-.29004-.479-.29443-.62402-.91406l.69873-.13623q.10108.38232.41748.5625.31641.17578.87891.17578.60205 0 .8789-.18457.28125-.18457.28125-.55371 0-.28125-.19335-.45703-.19336-.17579-.62403-.29004l-.56689-.14942q-.68115-.17578-.97119-.34277-.28565-.17139-.44825-.41309-.16259-.2417-.16259-.59326 0-.65039.46142-.98877.46582-.34277 1.35352-.34277.78662 0 1.24804.27685.46582.27686.58887.8877l-.71191.0879q-.0659-.31641-.35596-.4834-.28564-.17138-.76904-.17138-.53614 0-.79102.16259-.25488.1626-.25488.49219 0 .20215.10547.33398.10547.13184.31201.22413.20654.0923.87012.25488.62841.1582.90527.29443.27686.13184.43506.29444.1626.16259.25049.37793.0879.21093.0879.48339z"/><path d="m455.82718 191.30012v-.41343q.16603-.38088.40367-.67061.2409-.29298.50458-.52737.26369-.23764.52086-.43947.26043-.20183.46877-.40367.20835-.20183.33531-.4232.13021-.22136.13021-.50132 0-.37763-.22136-.58597-.22137-.20834-.61527-.20834-.37437 0-.61852.20508-.2409.20184-.28322.56969l-.59899-.0553q.0651-.55015.46552-.87569.40367-.32554 1.03521-.32554.69339 0 1.06451.32879.37436.32554.37436.92778 0 .26695-.1237.53063-.12045.26369-.36135.52737-.24089.26369-.92127.8171-.37436.306-.59573.55341-.22136.24415-.31902.47203h2.39269v.49807z"/></g><g font-family="DejaVu Sans"><text x="411.64539" y="221.25746"><tspan font-family="'DejaVu Sans'" font-size="13.333">s</tspan></text><g transform="translate(6.9224 2.4763)"><text x="18.89879" y="149.95996"><tspan font-family="'DejaVu Sans'" font-size="10">10</tspan></text><text x="31.350756" y="144.23029"><tspan font-family="'DejaVu Sans'" font-size="6.667">15</tspan></text></g><text x="149.10098" y="239.078"><tspan font-family="'DejaVu Sans'" font-size="10">8</tspan></text><text x="114.70625" y="239.20007"><tspan font-family="'DejaVu Sans'" font-size="10">4</tspan></text><text x="81.552818" y="239.20007"><tspan font-family="'DejaVu Sans'" font-size="10">2</tspan></text><text x="47.500656" y="239.20007"><tspan font-family="'DejaVu Sans'" font-size="10">1</tspan></text></g></svg>