<svg height="241pt" viewBox="0 0 516 241" width="516pt" xmlns="http://www.w3.org/2000/svg"><g fill="none" stroke="#b2b2b2" stroke-dasharray=".666667 .666667 .666667 .666667" stroke-width=".66667" transform="translate(.58717 .44439)"><path d="m50.183 213.97h372.2"/><path d="m50.183 219.17h372.2"/><path d="m50.183 208.87h372.2"/><path d="m50.183 17.464h372.2"/><path d="m50.183 43.364h372.2"/><path d="m50.183 193.27h372.2"/><path d="m50.183 162.27h372.2"/><path d="m50.183 120.97h372.2"/><path d="m50.183 69.164h372.2"/><path d="m50.183 177.77h372.2"/><path d="m50.183 146.77h372.2"/><path d="m50.183 95.064h372.2"/><path d="m84.013 224.37v-206.9"/><path d="m117.89 224.37v-206.9"/><path d="m151.69 224.37v-206.9"/><path d="m185.49 224.37v-206.9"/><path d="m219.39 224.37v-206.9"/><path d="m253.19 224.37v-206.9"/><path d="m286.99 224.37v-206.9"/><path d="m320.89 224.37v-206.9"/><path d="m354.69 224.37v-206.9"/><path d="m388.49 224.37v-206.9"/><path d="m422.39 224.37v-206.9"/></g><g font-family="'DejaVu Sans'"><g transform="translate(6.5383 2.4782)"><text x="18.89879" y="124.10197"><tspan font-family="'DejaVu Sans'" font-size="10">10</tspan></text><text x="31.594908" y="118.37229"><tspan font-family="'DejaVu Sans'" font-size="6.667">20</tspan></text></g><g transform="translate(6.6783 2.5042)"><text x="18.89879" y="98.241966"><tspan font-family="'DejaVu Sans'" font-size="10">10</tspan></text><text x="31.594908" y="92.512291"><tspan font-family="'DejaVu Sans'" font-size="6.667">25</tspan></text></g><g transform="translate(6.5578 2.5142)"><text x="18.89879" y="72.371971"><tspan font-family="'DejaVu Sans'" font-size="10">10</tspan></text><text x="31.575377" y="66.642296"><tspan font-family="'DejaVu Sans'" font-size="6.667">30</tspan></text></g><g transform="translate(6.6978 2.5042)"><text x="18.89879" y="46.541969"><tspan font-family="'DejaVu Sans'" font-size="10">10</tspan></text><text x="31.575377" y="40.812294"><tspan font-family="'DejaVu Sans'" font-size="6.667">35</tspan></text></g><g transform="translate(6.3755 2.5342)"><text x="18.89879" y="20.641968"><tspan font-family="'DejaVu Sans'" font-size="10">10</tspan></text><text x="31.757677" y="14.912292"><tspan font-family="'DejaVu Sans'" font-size="6.667">40</tspan></text></g></g><g fill="none"><g stroke="#000" stroke-width=".9998"><path d="m50.77 17.908v208.5"/><path d="m48.18 224.81h374.8"/><path d="m118.48 226.41v-1.64"/><path d="m186.08 226.41v-1.64"/><path d="m389.08 226.41v-1.64"/></g><path d="m50.770181 224.80791 2.146-.0927c9.997-.4456 20.02-.688 30-1.33l1.707-.1238m338.299999-15.59h6.465m-12.76.3093h.1463l.0485-.0309h.5369l.0484-.0312h.6829l.0487-.0309h.5366l.0488-.0309h.7313l.0491-.0309h.6341l.0487-.0309h.6832l.0482-.0309h.4878l.0491-.0309h.6828l.0488-.0309h.6338l.0978-.0309m-48.33 2.227h.3412l.1463-.0309h.7316l.1463-.0309h.3903l.1466-.0309h.4875l.146-.0312h.6832l.1465-.0309h.4876l.146-.0309h.3418l.146-.0308h.7319l.146-.0309h.39l.1466-.0309h.6831l.146-.0312h.4391l.0975-.0309h.6341l.1466-.0309h.4385l.0975-.0309h.6829l.0978-.0309h.39l.0973-.0309h.6831l.0975-.0309h.6826l.1466-.0309h.3412l.0976-.0309h.6344l.0972-.0309h.6341l.0975-.0309h.3903l.0975-.0309h.6342l.0975-.0312h.6341l.1465-.0309h.5361l.0975-.0309h.5853l.0978-.0309h.5851l.0975-.0309h.5854l.1465-.0309h.536l.0978-.0311h.5854l.0975-.0309h.5363l.0978-.0309h.5363l.0975-.0309h.5854l.0975-.0309h.4876l.0978-.0309h.7801l.0978-.0312h.4875l.0978-.0309h.5366l.0975-.0309h.4879l.0972-.0309h.7316l.0975-.0309h.4876l.0978-.0309h.6828l.0973-.0309h.4878l.0975-.0309h.6832l.0972-.0309h.4878l.0488-.0312h.6831l.0976-.0309h.4878l.0482-.0309h.6344l.0975-.0309h.6829l.0484-.0309h.6344l.0975-.0309h.4388l.0978-.0309h.6339l.0487-.0309h.6344l.0482-.0309h.6344l.0975-.0311h.5854l.0978-.0309h.585l.0485-.0309h.5854l.0978-.0309h.585l.0488-.0309h.5853l.0488-.0309h.6344l.0482-.0312h.6831l.0975-.0309h.5851l.0975-.0309h.4879l.049-.0309h.5854l.0481-.0309h.5854m-331.999999 15.28 1.609-.0618c5.594-.3079 11.23-.5125 16.829999-.8045l1.366-.0618 1.414-.0618c7.397-.3444 14.79-.7001 22.19-1.021l1.317-.0618 1.268-.0618c4.452-.1851 8.914-.415 13.36-.5879l1.804-.0927 1.756-.093c2.544-.1148 5.174-.2154 7.706-.371l2.78-.1236 1.366-.0621 1.317-.0618 1.268-.0618 1.22-.0309 2.341-.1239 2.292-.0927 2.195-.0929 2.049-.0927 2-.0927 1.902-.093 1.854-.0927 1.756-.093 1.707-.0618 1.658-.0927.7807-.0311c1.517-.0618 3.003-.1803 4.536-.2163l.8291-.0309.9267-.0309c2.023-.1347 4.134-.1522 6.145-.2787l.8294-.0309.7317-.0309.6828-.0309 1.17-.0618 1.024-.0311 2.146-.1236.9754-.0309 1.024-.0618 1.17-.0618.6828-.0309c1.479-.0692 2.96-.1145 4.438-.1857l.6341-.0309.5363-.0312c.8226.0176 1.552-.1278 2.439-.0927l.4879-.0309.5366-.0309c1.252-.0623 2.504-.1193 3.756-.1856l.5366-.0312.4388-.0309c.699-.0003 1.395-.074 2.097-.0618l.3903-.0309.4875-.0309h.4879l1.122-.0618 1.073-.0618h.5366l.4391-.0309.39-.0309h.3413l.5853-.0312.5854-.0309h.3413l.3419-.0309.39-.0309h.4878l.9267-.0617.9751-.0312h.4394l.39-.0309.3413-.0309h.2926l.5365-.0309.4879-.0309h.2435l.3418-.0309.7314-.0312.8291-.0618 1.659-.0618 3.024-.1236.7313-.0309.7807-.0309.7316-.0309.6341-.0312h.2926l.195-.0309.4391-.0308h.39l.2438-.0309h.2441l.5853-.0309 1.366-.0621.6339-.0309 1.219-.0618 1.219-.0309 1.17-.0621 1.171-.0618 2.244-.0927 2.146-.093 2.049-.1235 2.926-.0927.9266-.0618 1.805-.093 1.756-.0927 1.707-.0621.8288-.0618.8291-.0309 1.561-.0621 1.561-.0618 2.926-.1235.3413-.0309.3416-.0309h.2925l.3904-.0309.4388-.0309h.4875l.4391-.0309h.7807l.3413-.0312.6338-.0309.6831-.0309.6336-.0309.5853-.0309.2926-.0309h.7319l.4388-.0312.3903-.0309h.7319l.2926-.0309.5363-.0309 1.17-.0618.5366-.0311.2925-.0309h.2929l.3412-.0309h.3901l.3903-.0309h.6341l.2438-.0309h.8779l.3416-.0309h.3413l.3415-.0312.2929-.0309h.2435l.9754-.0618h.7803l.3901-.0309h.3418l.2926-.0309.2435-.0309h.2443l.195-.0309h.5364l.2928-.0309h.6338l.4878-.0309.8779-.0618h.7317l.2925-.0312.2925-.0309h.5366l.1953-.0309h.4388l1.073-.0618.5851-.0309h.7319l.3901-.062h.4388l.2925-.0309h.9269l.195-.0309h.1951l.9754-.0618.3906-.0312h.8779l.4873-.0309.4878-.0309.4388-.0309.3419-.0309h.8288l.4879-.0309.8778-.0618.3413-.0309h.3413l.4391-.0309h.4388l.4394-.0309h.5851l.1953-.0309h.6825l.4388-.0312.8295-.0618.4388-.0309h.5368l.146-.0309h.2929l.39-.0309h.39l.7804-.0311.3901-.0309h.5369l.1462-.0309h.2438l.3416-.0309h.39l2.195-.093.3413-.0309h.3413l.244-.0309h.2926l.3413-.0309h.3415l.6341-.0309 1.366-.0621 2.536-.1236.5854-.0309.2925-.0309h.3413l.5854-.0309h.5853l1.17-.0618.5365-.0309.5854-.0308.5851-.0312.5363-.0309h.5369l2.146-.1236h.4878l.5364-.0312.244-.0309h.2438l.2925-.0309h.8295l1.463-.0927h.4388l.4879-.0312.2928-.0309h.2925l.2441-.0309h.6826l.4388-.0309.1953-.0309h1.073l.195-.0309.4391-.0309h.6341l.2925-.0309.2438-.0308h.8294l.1948-.0309.2443-.0309h.8779l.1948-.0309.244-.0312h.8779l.1947-.0309.2444-.0309h.6335l.1953-.0309h.6344l.7801-.0618h.4388l.3904-.0312.195-.0309h.6341l.1463-.0309h.6344l.1459-.0309h.7804l.195-.0309.1954-.0309h.5853l.1463-.0312h.6338l.195-.0309h.5366l.1463-.0309h.5853l.3416-.0309.3901-.0309h.3413l.1953-.0309h.4875l.195-.0311h.5366l.1954-.0309h.5363l.1462-.0309h.5366l.1466-.0309h.5363l.1463-.0309h.5363l.1953-.0309h.4391l.146-.0309h.4878l.195-.0309h.5369l.146-.0309h.4876l.1953-.0309h.39l.1466-.0309h.8291l.1465-.0309h.4876l.146-.0312h.4878l.1466-.0309h.4388l.1465-.0309h.146" stroke="#525266" stroke-dasharray="10.6677 1.06667 10.6677 1.06667" stroke-width="1.0667"/></g><g fill="#525266" transform="translate(4.9967 2.4421)"><path d="m428.54425 205.24359v4.1792h-.79102v-4.1792h-.66796v-.57568h.66796v-.53614q0-.65039.28565-.93603.28564-.28565.87451-.28565.32959 0 .55811.0527v.60205q-.19776-.0352-.35157-.0352-.30322 0-.43945.15381-.13623.15381-.13623.55811v.42627h.92725v.57568z"/><path d="m430.02 206.95525q0-1.27.39551-2.2808.3999-1.0107 1.2261-1.9028h.76465q-.82178.91406-1.2085 1.9424-.38232 1.0283-.38232 2.25 0 1.2173.37793 2.2412.38232 1.0239 1.2129 1.9512h-.76465q-.83057-.89648-1.2261-1.9072-.39551-1.0151-.39551-2.2764z"/><path d="m436.63019 208.02094q0 .67236-.50977 1.0371-.50537.36475-1.41943.36475-.8877 0-1.37109-.29004-.47901-.29443-.62403-.91406l.69873-.13623q.10108.38232.41748.5625.31641.17578.87891.17578.60205 0 .87891-.18457.28125-.18457.28125-.55371 0-.28125-.19336-.45703-.19336-.17578-.62403-.29004l-.56689-.14942q-.68115-.17578-.97119-.34277-.28565-.17139-.44825-.41309-.16259-.24169-.16259-.59326 0-.65039.46142-.98877.46582-.34277 1.35352-.34277.78662 0 1.24804.27686.46583.27685.58887.88769l-.71191.0879q-.0659-.3164-.35596-.4834-.28564-.17138-.76904-.17138-.53613 0-.79102.16259-.25488.1626-.25488.49219 0 .20215.10547.33399.10547.13183.31201.22412.20654.0923.87012.25488.62842.1582.90527.29443.27686.13184.43506.29444.1626.16259.25049.37793.0879.21093.0879.4834z"/><path d="m439.39 206.97285q0 1.27-.3999 2.2808-.39551 1.0107-1.2217 1.9028h-.76465q.82617-.92285 1.2085-1.9424.38233-1.0239.38233-2.25 0-1.2261-.38672-2.25-.38232-1.0239-1.2041-1.9424h.76465q.83056.89648 1.2261 1.9116.39551 1.0107.39551 2.272z"/><path d="m440.39 206.16424v-.65039h4.3726v.65039zm0 2.25v-.65039h4.3726v.65039z"/><path d="m449.38312 208.02094q0 .67236-.50977 1.0371-.50537.36475-1.41943.36475-.8877 0-1.3711-.29004-.479-.29443-.62402-.91406l.69873-.13623q.10108.38232.41748.5625.31641.17578.87891.17578.60205 0 .8789-.18457.28125-.18457.28125-.55371 0-.28125-.19335-.45703-.19336-.17578-.62403-.29004l-.56689-.14942q-.68115-.17578-.97119-.34277-.28565-.17139-.44825-.41309-.16259-.24169-.16259-.59326 0-.65039.46142-.98877.46582-.34277 1.35352-.34277.78662 0 1.24804.27686.46582.27685.58887.88769l-.71191.0879q-.0659-.3164-.35596-.4834-.28564-.17138-.76904-.17138-.53614 0-.79102.16259-.25488.1626-.25488.49219 0 .20215.10547.33399.10547.13183.31201.22412.20654.0923.87012.25488.62841.1582.90527.29443.27686.13184.43506.29444.1626.16259.25049.37793.0879.21093.0879.4834z"/></g><g transform="translate(.58717 .44439)"><g fill="none" stroke="#000" stroke-width=".9998"><path d="m354.69 225.97v-1.64"/><path d="m84.013 225.97v-1.64"/><path d="m151.69 225.97v-1.64"/><path d="m320.89 225.97v-1.64"/><path d="m286.99 225.97v-1.64"/><path d="m253.19 225.97v-1.64"/><path d="m219.39 225.97v-1.64"/><path d="m422.39 225.97v-1.64"/></g><g font-family="'DejaVu Sans'"><text x="12.959319" y="222.80783"><tspan font-family="'DejaVu Sans'" font-size="10">10</tspan></text><text x="27.163897" y="217.60783"><tspan font-family="'DejaVu Sans'" font-size="10">100</tspan></text><text x=".234709" y="212.40784"><tspan font-family="'DejaVu Sans'" font-size="10">1000</tspan></text><text x="3.584796" y="196.99573"><tspan font-family="'DejaVu Sans'" font-size="10">1 million</tspan></text><text x="6.97835" y="181.49573"><tspan font-family="'DejaVu Sans'" font-size="10">1 billion</tspan></text><text x="5.29378" y="165.99573"><tspan font-family="'DejaVu Sans'" font-size="10">1 trillion</tspan></text><text x="246.76186" y="238.63362"><tspan font-family="'DejaVu Sans'" font-size="10">64</tspan></text><text x="277.24155" y="238.63362"><tspan font-family="'DejaVu Sans'" font-size="10">128</tspan></text><text x="178.89584" y="238.63362"><tspan font-family="'DejaVu Sans'" font-size="10">16</tspan></text><text x="213.14984" y="238.63875"><tspan font-family="'DejaVu Sans'" font-size="10">32</tspan></text><text x="311.29779" y="238.63362"><tspan font-family="'DejaVu Sans'" font-size="10">256</tspan></text><text x="345.26382" y="238.63362"><tspan font-family="'DejaVu Sans'" font-size="10">512</tspan></text><text x="375.49936" y="238.63362"><tspan font-family="'DejaVu Sans'" font-size="10">1024</tspan></text><text x="409.64349" y="238.63362"><tspan font-family="'DejaVu Sans'" font-size="10">2048</tspan></text></g><g fill="none" stroke="#000" stroke-width=".9998"><path d="m50.183 17.464h-2.585"/><path d="m50.183 43.334h-2.585"/><path d="m50.183 69.174h-2.585"/><path d="m50.183 95.034h-2.585"/><path d="m50.183 120.87h-2.585"/><path d="m50.183 146.77h-2.585"/><path d="m50.183 162.27h-2.585"/><path d="m50.183 177.77h-2.585"/><path d="m50.183 193.27h-2.585"/><path d="m50.183 208.77h-21.92"/><path d="m50.183 213.97h-2.585"/><path d="m50.183 219.17h-21.92"/></g></g><text font-family="'DejaVu Sans'" font-size="13.067" x="54.284531" y="32.661079"><tspan font-family="'DejaVu Sans'" font-size="13.333">f(s)</tspan></text><text x="205.92331" y="9.266789"><tspan x="205.92331" y="44.65741"/></text><g font-family="'DejaVu Sans'" transform="translate(.58717 .44439)"><text x="411.05823" y="220.81308"><tspan font-family="'DejaVu Sans'" font-size="13.333">s</tspan></text><g transform="translate(6.3352 2.0319)"><text x="18.89879" y="149.95996"><tspan font-family="'DejaVu Sans'" font-size="10">10</tspan></text><text x="31.350756" y="144.23029"><tspan font-family="'DejaVu Sans'" font-size="6.667">15</tspan></text></g><text x="148.51381" y="238.63362"><tspan font-family="'DejaVu Sans'" font-size="10">8</tspan></text><text x="114.11909" y="238.75569"><tspan font-family="'DejaVu Sans'" font-size="10">4</tspan></text><text x="80.965652" y="238.75569"><tspan font-family="'DejaVu Sans'" font-size="10">2</tspan></text><text x="46.913486" y="238.75569"><tspan font-family="'DejaVu Sans'" font-size="10">1</tspan></text></g></svg>