<svg height="241pt" viewBox="0 0 516 241" width="516pt" xmlns="http://www.w3.org/2000/svg"><g fill="none" stroke="#b2b2b2" stroke-dasharray=".666667 .666667 .666667 .666667" stroke-width=".66667"><path d="m50.77 214.41h372.2"/><path d="m50.77 219.61h372.2"/><path d="m50.77 209.31h372.2"/><path d="m50.77 17.908h372.2"/><path d="m50.77 43.808h372.2"/><path d="m50.77 193.71h372.2"/><path d="m50.77 162.71h372.2"/><path d="m50.77 121.41h372.2"/><path d="m50.77 69.608h372.2"/><path d="m50.77 178.21h372.2"/><path d="m50.77 147.21h372.2"/><path d="m50.77 95.508h372.2"/><path d="m84.6 224.81v-206.9"/><path d="m118.48 224.81v-206.9"/><path d="m152.28 224.81v-206.9"/><path d="m186.08 224.81v-206.9"/><path d="m219.98 224.81v-206.9"/><path d="m253.78 224.81v-206.9"/><path d="m287.58 224.81v-206.9"/><path d="m321.48 224.81v-206.9"/><path d="m355.28 224.81v-206.9"/><path d="m389.08 224.81v-206.9"/><path d="m422.98 224.81v-206.9"/></g><g font-family="'DejaVu Sans'"><g transform="translate(6.5383 2.4782)"><text x="18.89879" y="124.10197"><tspan font-family="'DejaVu Sans'" font-size="10">10</tspan></text><text x="31.594908" y="118.37229"><tspan font-family="'DejaVu Sans'" font-size="6.667">20</tspan></text></g><g transform="translate(6.6783 2.5042)"><text x="18.89879" y="98.241966"><tspan font-family="'DejaVu Sans'" font-size="10">10</tspan></text><text x="31.594908" y="92.512291"><tspan font-family="'DejaVu Sans'" font-size="6.667">25</tspan></text></g><g transform="translate(6.5578 2.5142)"><text x="18.89879" y="72.371971"><tspan font-family="'DejaVu Sans'" font-size="10">10</tspan></text><text x="31.575377" y="66.642296"><tspan font-family="'DejaVu Sans'" font-size="6.667">30</tspan></text></g><g transform="translate(6.6978 2.5042)"><text x="18.89879" y="46.541969"><tspan font-family="'DejaVu Sans'" font-size="10">10</tspan></text><text x="31.575377" y="40.812294"><tspan font-family="'DejaVu Sans'" font-size="6.667">35</tspan></text></g><g transform="translate(6.3755 2.5342)"><text x="18.89879" y="20.641968"><tspan font-family="'DejaVu Sans'" font-size="10">10</tspan></text><text x="31.757677" y="14.912292"><tspan font-family="'DejaVu Sans'" font-size="6.667">40</tspan></text></g></g><g fill="none" stroke="#000" stroke-width=".9998"><path d="m50.77 17.908v208.5"/><path d="m48.18 224.81h374.8"/><path d="m118.48 226.41v-1.64"/><path d="m186.08 226.41v-1.64"/><path d="m389.08 226.41v-1.64"/><g transform="translate(.58717 .44439)"><path d="m354.69 225.97v-1.64"/><path d="m84.013 225.97v-1.64"/><path d="m151.69 225.97v-1.64"/><path d="m320.89 225.97v-1.64"/><path d="m286.99 225.97v-1.64"/><path d="m253.19 225.97v-1.64"/><path d="m219.39 225.97v-1.64"/><path d="m422.39 225.97v-1.64"/></g></g><g font-family="'DejaVu Sans'" transform="translate(.58717 .44439)"><text x="12.959319" y="222.80783"><tspan font-family="'DejaVu Sans'" font-size="10">10</tspan></text><text x="27.163897" y="217.60783"><tspan font-family="'DejaVu Sans'" font-size="10">100</tspan></text><text x=".234709" y="212.40784"><tspan font-family="'DejaVu Sans'" font-size="10">1000</tspan></text><text x="3.584796" y="196.99573"><tspan font-family="'DejaVu Sans'" font-size="10">1 million</tspan></text><text x="6.97835" y="181.49573"><tspan font-family="'DejaVu Sans'" font-size="10">1 billion</tspan></text><text x="5.29378" y="165.99573"><tspan font-family="'DejaVu Sans'" font-size="10">1 trillion</tspan></text><text x="246.76186" y="238.63362"><tspan font-family="'DejaVu Sans'" font-size="10">64</tspan></text><text x="277.24155" y="238.63362"><tspan font-family="'DejaVu Sans'" font-size="10">128</tspan></text><text x="178.89584" y="238.63362"><tspan font-family="'DejaVu Sans'" font-size="10">16</tspan></text><text x="213.14984" y="238.63875"><tspan font-family="'DejaVu Sans'" font-size="10">32</tspan></text><text x="311.29779" y="238.63362"><tspan font-family="'DejaVu Sans'" font-size="10">256</tspan></text><text x="345.26382" y="238.63362"><tspan font-family="'DejaVu Sans'" font-size="10">512</tspan></text><text x="375.49936" y="238.63362"><tspan font-family="'DejaVu Sans'" font-size="10">1024</tspan></text><text x="409.64349" y="238.63362"><tspan font-family="'DejaVu Sans'" font-size="10">2048</tspan></text></g><g fill="none" stroke="#000" stroke-width=".9998" transform="translate(.58717 .44439)"><path d="m50.183 17.464h-2.585"/><path d="m50.183 43.334h-2.585"/><path d="m50.183 69.174h-2.585"/><path d="m50.183 95.034h-2.585"/><path d="m50.183 120.87h-2.585"/><path d="m50.183 146.77h-2.585"/><path d="m50.183 162.27h-2.585"/><path d="m50.183 177.77h-2.585"/><path d="m50.183 193.27h-2.585"/><path d="m50.183 208.77h-21.92"/><path d="m50.183 213.97h-2.585"/><path d="m50.183 219.17h-21.92"/></g><text font-family="'DejaVu Sans'" font-size="13.067" x="54.284531" y="32.661079"><tspan font-family="'DejaVu Sans'" font-size="13.333">f(s)</tspan></text><text x="205.92331" y="9.266789"><tspan x="205.92331" y="44.65741"/></text><g font-family="'DejaVu Sans'" transform="translate(.58717 .44439)"><text x="411.05823" y="220.81308"><tspan font-family="'DejaVu Sans'" font-size="13.333">s</tspan></text><g transform="translate(6.3352 2.0319)"><text x="18.89879" y="149.95996"><tspan font-family="'DejaVu Sans'" font-size="10">10</tspan></text><text x="31.350756" y="144.23029"><tspan font-family="'DejaVu Sans'" font-size="6.667">15</tspan></text></g><text x="148.51381" y="238.63362"><tspan font-family="'DejaVu Sans'" font-size="10">8</tspan></text><text x="114.11909" y="238.75569"><tspan font-family="'DejaVu Sans'" font-size="10">4</tspan></text><text x="80.965652" y="238.75569"><tspan font-family="'DejaVu Sans'" font-size="10">2</tspan></text><text x="46.913486" y="238.75569"><tspan font-family="'DejaVu Sans'" font-size="10">1</tspan></text></g></svg>