<svg height="241pt" viewBox="0 0 516 241" width="516pt" xmlns="http://www.w3.org/2000/svg"><g fill="none" stroke="#000" stroke-width=".9998"><path d="m48.180169 224.81439h374.800001"/><path d="m118.47717 226.41439v-1.64"/><path d="m186.07717 226.41439v-1.64"/><path d="m389.07717 226.41439v-1.64"/><g transform="translate(.587169 .444386)"><path d="m354.69 225.97v-1.64"/><path d="m84.013 225.97v-1.64"/><path d="m151.69 225.97v-1.64"/><path d="m320.89 225.97v-1.64"/><path d="m286.99 225.97v-1.64"/><path d="m253.19 225.97v-1.64"/><path d="m219.39 225.97v-1.64"/><path d="m422.39 225.97v-1.64"/></g></g><g font-family="DejaVu Sans"><text x="247.34903" y="239.078"><tspan font-family="'DejaVu Sans'" font-size="10">64</tspan></text><text x="277.8287" y="239.078"><tspan font-family="'DejaVu Sans'" font-size="10">128</tspan></text><text x="179.48302" y="239.078"><tspan font-family="'DejaVu Sans'" font-size="10">16</tspan></text><text x="213.73701" y="239.08313"><tspan font-family="'DejaVu Sans'" font-size="10">32</tspan></text><text x="311.88495" y="239.078"><tspan font-family="'DejaVu Sans'" font-size="10">256</tspan></text><text x="345.85098" y="239.078"><tspan font-family="'DejaVu Sans'" font-size="10">512</tspan></text><text x="376.08652" y="239.078"><tspan font-family="'DejaVu Sans'" font-size="10">1024</tspan></text><text x="410.23065" y="239.078"><tspan font-family="'DejaVu Sans'" font-size="10">2048</tspan></text></g><text x="205.92331" y="9.266789"><tspan x="205.92331" y="44.65741"/></text><g font-family="DejaVu Sans"><text x="411.64539" y="221.25746"><tspan font-family="'DejaVu Sans'" font-size="13.333">s</tspan></text><text x="149.10098" y="239.078"><tspan font-family="'DejaVu Sans'" font-size="10">8</tspan></text><text x="114.70625" y="239.20007"><tspan font-family="'DejaVu Sans'" font-size="10">4</tspan></text><text x="81.552818" y="239.20007"><tspan font-family="'DejaVu Sans'" font-size="10">2</tspan></text><text x="47.500656" y="239.20007"><tspan font-family="'DejaVu Sans'" font-size="10">1</tspan></text></g></svg>