<svg height="241pt" viewBox="0 0 516 241" width="516pt" xmlns="http://www.w3.org/2000/svg"><g fill="none"><g stroke="#b2b2b2" stroke-dasharray=".666667 .666667 .666667 .666667" stroke-width=".66667"><path d="m50.77 214.41h372.2"/><path d="m50.77 219.61h372.2"/><path d="m50.77 209.31h372.2"/><path d="m50.77 17.908h372.2"/><path d="m50.77 43.808h372.2"/><path d="m50.77 193.71h372.2"/><path d="m50.77 162.71h372.2"/><path d="m50.77 121.41h372.2"/><path d="m50.77 69.608h372.2"/><path d="m50.77 178.21h372.2"/><path d="m50.77 147.21h372.2"/><path d="m50.77 95.508h372.2"/><path d="m84.6 224.81v-206.9"/><path d="m118.48 224.81v-206.9"/><path d="m152.28 224.81v-206.9"/><path d="m186.08 224.81v-206.9"/><path d="m219.98 224.81v-206.9"/><path d="m253.78 224.81v-206.9"/><path d="m287.58 224.81v-206.9"/><path d="m321.48 224.81v-206.9"/><path d="m355.28 224.81v-206.9"/><path d="m389.08 224.81v-206.9"/><path d="m422.98 224.81v-206.9"/></g><path d="m50.77 168.21h378.7" stroke="#000" stroke-linecap="round" stroke-linejoin="round" stroke-width="1.2"/></g><g font-family="DejaVu Sans"><text x="25.437059" y="126.58015"><tspan font-family="'DejaVu Sans'" font-size="10">10</tspan></text><text x="38.133179" y="120.85048"><tspan font-family="'DejaVu Sans'" font-size="6.667">20</tspan></text><text x="25.577059" y="100.74615"><tspan font-family="'DejaVu Sans'" font-size="10">10</tspan></text><text x="38.273178" y="95.016479"><tspan font-family="'DejaVu Sans'" font-size="6.667">25</tspan></text><text x="25.45656" y="74.886154"><tspan font-family="'DejaVu Sans'" font-size="10">10</tspan></text><text x="38.133144" y="69.156479"><tspan font-family="'DejaVu Sans'" font-size="6.667">30</tspan></text><text x="25.59656" y="49.046154"><tspan font-family="'DejaVu Sans'" font-size="10">10</tspan></text><text x="38.273144" y="43.316479"><tspan font-family="'DejaVu Sans'" font-size="6.667">35</tspan></text><text x="25.27426" y="23.176153"><tspan font-family="'DejaVu Sans'" font-size="10">10</tspan></text><text x="38.133144" y="17.446478"><tspan font-family="'DejaVu Sans'" font-size="6.667">40</tspan></text></g><g fill="none"><g stroke="#000" stroke-width=".9998"><path d="m50.77 17.908v208.5"/><path d="m48.18 224.81h374.8"/><path d="m118.48 226.41v-1.64"/><path d="m186.08 226.41v-1.64"/><path d="m389.08 226.41v-1.64"/></g><path d="m50.770181 224.80791 2.146-.1857c9.994-.9457 20-1.863 30-2.784l1.707-.1545m338.199999-31.12h6.465m-12.61.5879.0973-.0309h.1953l.0487-.0309h.2438l.0488-.0309h.244l.0488-.0311h.3903l.0485-.0309h.244l.0485-.0309h.2926l.049-.0309h.39l.0488-.0309h.1953l.0975-.0309h.195l.0488-.0312h.3903l.0485-.0309h.2443l.0482-.0309h.2444l.0484-.0309h.3904l.0975-.0309h.1465l.0485-.0309h.2441l.0487-.0312h.3901l.0975-.0309h.1463l.0487-.0309h.3901l.0978-.0309h.1465m-48.33 4.455.1947-.0309h.1465l.1463-.0309h.0978l.2925-.0312.1466-.0309h.1947l.2929-.0309.0977-.0309h.146l.1466-.0309h.4875l.2926-.0309.244-.0312.5851-.0618.1466-.0309h.195l.146-.0309h.4878l.1466-.0309.2925-.0309.5854-.0617h.2434l.5854-.0618.2443-.0309.2926-.0312.1463-.0309h.4872l.1466-.0309.244-.0309.5851-.0618h.3903l.1463-.0312.2438-.0309.0978-.0309h.39l.2438-.0309.1463-.0309h.1465l.2438-.0309h.2441l.2435-.0312.1465-.0309h.146l.2444-.0309h.2434l.4879-.0618.2441-.0308h.2434l.2444-.0312.2435-.0309.2438-.0309h.244l.4876-.0618h.2441l.2437-.0309.2438-.0309.2441-.0309h.2438l.1953-.0309.2435-.0309h.244l.2438-.0309.195-.0309h.2441l.2438-.0312.195-.0309h.2441l.195-.0309.2438-.0309h.2437l.1953-.0309.2435-.0309h.2929l.0978-.0312.1462-.0309h.341l.2444-.0308.1947-.0309h.1953l.2435-.0309.1953-.0309h.1953l.2438-.0312.2438-.0309h.195l.0975-.0309h.2926l.2443-.0309.1948-.0309h.244l.1948-.0309.1953-.0309h.1953l.0972-.0309h.2928l.2438-.0309.1953-.0309h.195l.0975-.0309h.2929l.2435-.0309.195-.0312h.1953l.0975-.0309h.2925l.3901-.0618h.1953l.0975-.0309h.3416l.0487-.0309h.4391l.0975-.0311.0975-.0309h.2438l.0975-.0309h.2926l.0975-.0309h.2925l.3903-.0618h.1466l.0975-.0312h.2925l.0976-.0309h.2925l.3906-.0618h.146l.0975-.0309h.2925l.0491-.0309h.341l.0978-.0312h.244l.0976-.0309h.2437l.0975-.0309h.2926l.1465-.0309.1953-.0309h.1948l.0487-.0309h.2926l.049-.0309h.2928l.0973-.0309h.2437l.0978-.0309h.2438l.0975-.0309h.2438l.0975-.0309h.2925l.0491-.0309h.2928l.0485-.0311h.2925l.0491-.0309h.2925l.0975-.0309h.1953l.0972-.0309h.2441l.0975-.0309h.2438l.0487-.0309h.2926l.0975-.0312h.1953l.0972-.0309h.2444l.0975-.0309h.2435l.049-.0309h.2435l.0978-.0309h.2441l.0975-.0309h.195l.0975-.0312h.2438l.0975-.0309h.3901l.0978-.0309h.195l.0978-.0309h.2438l.0487-.0309h.2438l.0487-.0309h.2441l.0975-.0309h.2438l.0488-.0309h.3903l.0485-.0309h.2925m-331.999999 30.53 1.609-.1548c5.609-.4878 11.22-1.05 16.829999-1.547l1.366-.1236 1.414-.1239c7.391-.7058 14.8-1.349 22.19-2.042l1.317-.1239 1.268-.1236c4.449-.3994 8.92-.8183 13.36-1.238l1.804-.1545 1.756-.1548c2.569-.2386 5.136-.4804 7.706-.7114l2.78-.2475 1.366-.1236 1.317-.1239 1.268-.1239 1.22-.0926 2.341-.2163 2.292-.2169 2.195-.1856 2.049-.1857 2-.1854 1.902-.1857 1.854-.1856 1.756-.1545 1.707-.1548 1.658-.1545.7807-.0618c1.444-.1808 3.056-.2781 4.536-.4025l.8291-.0927.9267-.093c2.04-.1652 4.123-.394 6.145-.5567l.8294-.0927.7317-.0618.6828-.0621 1.17-.1236 1.024-.0926 1.073-.0927.5366-.0621.5366-.0309.9754-.0927 1.024-.093.585-.0309.5854-.0618.6828-.0621c1.481-.1406 2.954-.3092 4.438-.4328l.6341-.0618.5363-.0621c.7806-.0643 1.692-.0964 2.439-.2166l.4879-.0308.5366-.0618c1.264-.0332 2.493-.2642 3.756-.3093l.5366-.0618.4388-.0312c.6216-.1057 1.452-.1542 2.097-.2165l.3903-.0309.4875-.0309.4879-.0618 1.122-.093 1.073-.0927.5366-.0618.4391-.0309.39-.0312.3413-.0309 1.171-.1236.6832-.0618.39-.0309.4878-.062.9267-.0927.9751-.093.4394-.0309.39-.0309.3413-.0309.2926-.0309.5365-.0312.4879-.0309.2435-.0309.3418-.0309.7314-.0618.8291-.0927.8294-.0618.8292-.0929 1.512-.1548 1.512-.1236.7313-.0621.7807-.0927.7316-.0618.6341-.0618.2926-.0309h.195l.4391-.0618.39-.0311h.2438l.2441-.0309.5853-.0618 1.366-.1239.6339-.0618 1.219-.1239 1.219-.0927 2.341-.2165 2.244-.2163 2.146-.1857 2.049-.1857 1.951-.1856.9751-.0927.9266-.0618.9267-.093.8779-.0927 1.756-.1547 1.707-.1548 1.658-.1548.7807-.0927 2.341-.1854.7314-.0929 2.195-.1857.3413-.0309.3416-.0309.2925-.0309.3904-.0309.4388-.0312.4875-.0618.4391-.0618.4388-.0309.6832-.0618.6338-.0309.6831-.0618.6336-.062.8779-.0927.3418-.0309.3901-.0309.4388-.0621.7804-.0618.3418-.0309.2926-.0309.5363-.0312 1.17-.1236.5366-.0621h.2925l.2929-.0308.3412-.0309.7804-.0618.3416-.0309.2925-.0309.2438-.0309.2441-.0309.2925-.0309.3413-.0309 1.024-.093.2929-.0309.2435-.0309.4878-.0309.4876-.0621h.2443l.2435-.0309.2925-.0309.3901-.0309h.3418l.2926-.0309.2435-.0309h.2443l.195-.0311.2438-.0309.2926-.0309.2928-.0309.3413-.0309.2925-.0309.4878-.0618.8779-.0618h.1953l.2435-.0309.5854-.0621.2925-.0309.2928-.0309.2438-.0309h.3906l.2435-.0309.5366-.0621.5366-.0618.5851-.0618h.2928l.2438-.0309.1953-.0311h.3901l.1953-.0309.2435-.0309h.2925l.2928-.0309.2438-.0309.3903-.0621h.195l.1951-.0309.4878-.0618.4876-.0309.7806-.0618.4879-.0309.4873-.0618.4878-.0618.4388-.0312.3419-.0309.39-.0309.4388-.0309.4879-.0309.439-.062.4388-.0309.6826-.0618.4391-.0618.4388-.0312.8782-.0618h.1463l.1953-.0309h.1462l.1463-.0309.39-.0618.4388-.0309.8295-.0618.4388-.0618.3903-.0312h.1465l.146-.0309h.2929l.39-.0309.39-.0617.7804-.0621.7804-.0618h.1466l.1462-.0309.0975-.0309h.1463l.3416-.0309.39-.0312.7316-.0618.3413-.0618.3901-.0309.7319-.0621.6826-.0618.244-.0309h.2926l.3413-.0309.3415-.0309.6341-.0617 1.366-.1239 1.268-.1236.6335-.0621.6344-.0618.8779-.0927h.3413l.5854-.0621.5853-.0618.5851-.0617.5854-.0309.5365-.0618.5854-.0618.5851-.0309.5363-.0621.5369-.0618.5363-.0309.5366-.0621.5363-.0309.5366-.0618.4878-.0618.5364-.0312.244-.0309.2438-.0308.2925-.0309h.3416l.4879-.0618.4878-.0309.4873-.0621.4878-.0309.4388-.0618.4879-.0309.5853-.0618.2441-.0309h.195l.4876-.0618.4388-.0312h.1953l.2437-.0309.2926-.0309.2928-.0309.2438-.0309h.195l.4391-.0309.3903-.062.2438-.0309h.2925l.2438-.0309.1953-.0309.4388-.0309h.1953l.1948-.0312.2443-.0309.2926-.0309.195-.0309h.195l.1953-.0309h.4388l.2925-.0309.3901-.0618.1953-.0309h.1947l.2444-.0309h.4388l.5853-.093.1948-.0309h.2443l.7801-.0618.1953-.0309.2435-.0309.3904-.0311.195-.0309h.244l.3901-.0309h.1463l.39-.0618.2444-.0309.1459-.0312h.1951l.195-.0309h.2441l.1462-.0309h.195l.1954-.0309h.2437l.1953-.0309h.1463l.1463-.0309h.195l.195-.0309h.4388l.1466-.0309.39-.0618.3413-.0312.3903-.0309.3416-.0309.3901-.0309.3413-.0309.1953-.0309h.1947l.1466-.0309h.1462l.195-.0309h.1954l.3412-.0311.3904-.0309.3413-.0309.6828-.0618.1466-.0309h.1463l.1947-.0312h.1953l.1463-.0309h.3415l.1948-.0309.1953-.0309.1463-.0309h.4388l.1953-.0309.1465-.0312h.146l.195-.0309h.1953l.3416-.0309.2925-.0309.3411-.0309.1953-.0309h.1465l.0972-.0309h.1463l.1466-.0309h.195l.3416-.0309.2925-.0309.1465-.0308h.1948l.2928-.0309.2925-.0312.1463-.0309h.195l.2928-.0309h.2926l.2925-.0309" stroke="#483434" stroke-dasharray="10.6677 1.06667 10.6677 1.06667" stroke-width="1.0667"/><path d="m50.770181 224.80791 2.146-.4023c10-1.828 20-3.666 30-5.506l1.707-.3095m338.299999-62.27h6.465m-12.76 1.145.1463-.0311.1463-.0309h.1465l.146-.0309.1466-.0309.1462-.0309.1466-.0309.146-.0309.1465-.0309.146-.0309h.1465l.1463-.0309.0975-.0309h.0973l.049-.0309h.0487l.1466-.0312.0975-.0309h.0972l.0488-.0309h.049l.1463-.0309.0975-.0309h.195l.1466-.0309.1463-.0312.1462-.0309.1463-.0309.1465-.0309h.146l.1466-.0309.1462-.0309.1466-.0311.146-.0309.1465-.0309h.0975l.146-.0309.1466-.0309.1462-.0309.1463-.0312.1463-.0309.1465-.0309h.0973l.1462-.0309.1466-.0309.146-.0309.1465-.0309h.0978m-48.33 8.878.1947-.0309.2928-.0618h.0978l.2925-.062.1466-.0309.1947-.0309.2929-.0618.0977-.0309h.146l.1466-.0312.1947-.0309.5854-.1236.244-.0309.5851-.1236.1466-.0309.195-.0312.146-.0309h.1465l.1953-.0618.146-.0309h.1466l.2925-.062.5854-.1236.2434-.0309.2929-.0621.2925-.0309.2443-.0618.2926-.0618.1463-.0312h.1462l.195-.0618.146-.0309h.1466l.244-.0618.2926-.0618.2925-.0309.2441-.0618.1462-.0311h.1463l.2438-.0618.0978-.0309h.0972l.1466-.0309.1462-.0309.2438-.0312.1463-.0309.1465-.0309.2438-.0309.2441-.0618.2435-.0312.2925-.0618.2444-.0309.2434-.0618.2441-.0309.2438-.0618.2441-.0309.2434-.0617.2444-.0312.2435-.0618.2438-.0309.244-.0618.2438-.0312.2438-.0618.4878-.0618.2438-.0621.2441-.0309.2438-.0618.1953-.0309.2435-.0309.244-.0618.2438-.0308.195-.0309.2441-.0621.2438-.0309.195-.0618.2441-.0309.195-.0309.2438-.0621.2437-.0309.1953-.0309.2435-.0309.1953-.0618.0976-.0312h.0978l.2925-.0618.0975-.0309h.0972l.2444-.0309.1947-.0308.1953-.0621.2435-.0309.3906-.0618.2438-.0618.2438-.0309.195-.0309.1953-.0618.1948-.0309.2443-.0312.1948-.0309.244-.0618.1948-.0309.1953-.0309.1953-.0312.1947-.0618.1953-.0308.2438-.0309.1953-.0309.195-.0312.1951-.0618.1953-.0309.2435-.0309.195-.0309.1953-.0309.195-.0618.195-.0309.3901-.0618.1953-.0312.2438-.0618.1953-.0309.1462-.0309.1951-.0309.1465-.0311h.0975l.0975-.0309h.0485l.1953-.0309.1948-.0618.1953-.0309.1953-.0312.1947-.0309.3903-.0618.1466-.0309.195-.0309.195-.0621.3901-.0618.3906-.0618.146-.0309.39-.0618h.0491l.195-.0618.146-.0309.0978-.0311h.0487l.3904-.0618.1462-.0309.3901-.0618.1465-.0312.3901-.0618.1462-.0309.0978-.0309h.0973l.1465-.0309.1953-.0312.1948-.0309.1462-.0309.1951-.0618h.1465l.1953-.0618.146-.0309h.195l.0978-.0309.0972-.0309.1466-.0309.0975-.0309h.0978l.146-.0311.0975-.0309h.0975l.1466-.0309.0978-.0309h.0972l.1463-.0309.1465-.0309.0972-.0312h.0978l.1463-.0309.0975-.0309h.0972l.2929-.0618.0978-.0309h.0972l.1465-.0312.1463-.0309.0972-.0309h.2444l.195-.0618h.146l.1465-.0309.146-.0311.0978-.0309h.0975l.1466-.0309.0975-.0309h.0978l.0482-.0309h.049l.0975-.0309h.0978l.146-.0309.0975-.0309h.0975l.0491-.0309h.0487l.0975-.0309h.0973l.2928-.0618.0978-.0312h.0972l.1466-.0309.1462-.0309h.1463l.1463-.0309.1465-.0309.0975-.0309h.0975l.1463-.0312.1466-.0309.1459-.0309.2929-.0618.0972-.0309h.0975m-331.999999 61.13 1.609-.3093c5.611-1.029 11.23-2.039 16.829999-3.093l1.366-.2475 1.414-.2784c7.419-1.299 14.79-2.716 22.19-4.052l1.317-.2475 1.268-.2474c4.452-.8204 8.914-1.617 13.36-2.444l1.804-.3404 1.756-.3093c2.56-.466 5.131-.9978 7.706-1.423l2.78-.5258 1.366-.2474 1.317-.2478 1.268-.2163 1.22-.2474 2.341-.4023 2.292-.4331 2.195-.4022 2.049-.402 2-.3713 1.902-.3402 1.854-.3404 1.756-.3093 1.707-.3093 1.658-.3095.7807-.1545c1.531-.2259 2.997-.5825 4.536-.8354l.8291-.1544.9267-.1857c2.017-.3376 4.137-.7382 6.145-1.114l.8294-.1544.7317-.1239.6828-.1236.5851-.1239.5853-.0927 1.024-.2165 1.073-.1857 1.073-.1854.9754-.1857 1.024-.1856.585-.093.5854-.1236.6828-.1236c1.475-.2781 2.957-.5383 4.438-.8045l.6341-.1236.5363-.0929c.7407-.1494 1.709-.362 2.439-.4641l.4879-.0927.5366-.0926c1.239-.2245 2.517-.4683 3.756-.6809l.5366-.0927.4388-.0927c.7095-.0989 1.399-.2687 2.097-.3714l.3903-.0926.4875-.093.4879-.0927 1.122-.2163 1.609-.2786.4391-.0927.39-.0621.3413-.0618.5853-.1239.5854-.0927.6832-.1236.39-.0618.4878-.0929.9267-.1857.9751-.1548.4394-.0927.39-.0618.3413-.0618.2926-.0618.5365-.0929.4879-.0927.2435-.0618.3418-.0621.7314-.1236 2.488-.464 3.024-.557.7313-.1236.7807-.1545.7316-.1239.6341-.1239.2926-.0618.195-.0309.4391-.0929.39-.0618.2438-.0309.2441-.0621.5853-.0927 1.366-.2472.6339-.1238 1.219-.2475 1.219-.2166 2.341-.4331 2.244-.4022 2.146-.402 2.049-.3713 2.926-.5568.9266-.1547 1.805-.3402 1.756-.3095 1.707-.3093 1.658-.3093.7807-.1547.7804-.1236 1.561-.3093.7314-.1239.7316-.1235.7316-.1548.7316-.1239.3413-.0618.3416-.0621.2925-.0618.3904-.0618.4388-.0926.4875-.0927.4391-.0621.4388-.0927.6832-.1239.6338-.1236.6831-.1238.6336-.1236.5853-.0927.2926-.0621.3418-.0618.3901-.0618.4388-.093.3903-.0927.3901-.0621.3418-.0617.2926-.0618.5363-.093 1.17-.1854.5366-.0927.5854-.1239.3412-.0618.3901-.0929.3903-.0618.3416-.0618.2925-.0621.2438-.0309.2441-.0309.2925-.0618 1.366-.2475.2929-.0618.2435-.0309.4878-.0929.4876-.0927.2443-.0309.2435-.0621.2925-.0618.3901-.0618.3418-.0621.2926-.0618.2435-.0618.2443-.0309.195-.0309.2438-.0618.5854-.1238.3413-.0309.2925-.0618.4878-.093.4388-.0618.4391-.093.1953-.0309.2435-.0618.5854-.1236.2925-.0309.2928-.0617.2438-.0309.1953-.0621.1953-.0309.2435-.0309.5366-.093.5366-.0927.5851-.1239.2928-.0309.2438-.0618.1953-.0309.3901-.062.1953-.0309.2435-.0618.2925-.0618.2928-.0309.2438-.0618.3903-.0618.195-.0312.1951-.0309.9754-.1857.3906-.0926.39-.0621.9752-.1854.4878-.0927.4388-.0618.3419-.0621.39-.0618.4388-.093.4879-.0926.439-.093.4388-.0618.6826-.1239.8779-.1854.4394-.0927.4388-.0618.1463-.0311.1953-.0309.2925-.0618.39-.093.4388-.0618.8295-.1239.4388-.0927.3903-.0618.1465-.0309.146-.0309.2929-.0618.39-.0929 1.17-.1857.3901-.0927.3903-.0618.2928-.0621h.0975l.1463-.0309.3416-.0618.39-.0618.7316-.1547 1.463-.2475.6826-.1236.244-.0621.2926-.0618.6828-.1238.6341-.1236.6829-.1236.6826-.093 1.902-.3713.6344-.1236.5854-.0927.2925-.0618.3413-.0621.5854-.0927.2925-.0618.2928-.0621.5851-.0927.5854-.1238.5365-.0927.2926-.0621.2928-.0618.5851-.0927.5363-.0927.5369-.0927.2435-.062.2928-.0618.5366-.093 1.073-.1857.4878-.0927.5364-.0927.244-.0309.2438-.0618.2925-.0618.3416-.062.2438-.0618.2441-.0309.4878-.093.4873-.0927.4878-.0621.4388-.0927.4879-.093.5853-.1235.2441-.0309.195-.0309.2438-.0309.2438-.0618.4388-.093.1953-.0309.2437-.0309.5854-.1239.2438-.0309.195-.0309.2441-.0618.5853-.0929.2438-.0618.2925-.0618.2438-.0309.1953-.0309.2435-.0618.1953-.0309.3901-.0621.2443-.0309.2926-.0618.195-.0618.195-.0312.3901-.0618.244-.0618.2925-.0309.1951-.0311.195-.0309.1953-.0309.1947-.0618.2444-.0621.2435-.0309.39-.0618.3906-.0618.1948-.0618.2443-.0309.3901-.0618.39-.0621.1953-.0618.2435-.0309.3904-.0618.195-.062.244-.0309.3901-.0618.1463-.0309.1953-.0312.1947-.0618.2444-.0309.1459-.0309.1951-.0309.195-.0618.2441-.0309.1462-.0309.195-.0309.1954-.0309.2437-.0312.1953-.0309.2926-.0618.195-.0308.195-.0621.2438-.0309.195-.0309.1466-.0309.39-.0618.3413-.0621.1953-.0618.195-.0309.3416-.0621.3901-.0618.3413-.0618.39-.0618.2928-.0617.195-.0618.1954-.0309.1465-.0312h.1947l.1954-.0309.195-.0618.3413-.0618.3415-.0621.3413-.0618.2929-.0618.1947-.0312.1953-.0309.2925-.0618.1953-.0309.1948-.0308.3416-.0618.2928-.0618.146-.0309.1953-.0309.2925-.0621.195-.0309.1953-.0309.3416-.0618.2925-.0621.3411-.0618.1953-.0309.1465-.0309.0972-.0312h.1463l.1466-.0309.195-.0308.3416-.0618.2925-.0621.1465-.0309.1948-.0309.2928-.0618.2925-.0309.1463-.0309.195-.0309.5854-.1236.2925-.0621" stroke="#5b835b" stroke-dasharray="10.6677 1.06667 10.6677 1.06667" stroke-width="1.0667"/><path d="m50.770181 224.50791h2.146c9.997-.1341 20-.0913 30-.2166h1.707m301.699999-206.400004v-4.639m-.1145 5.133.1145-.4947m-.3594 1.578.2444-1.083m-11.22 42.38.0488-.2166.0975-.2165.049-.1857.0488-.2166.0488-.2474.0975-.2784.1462-.557.1466-.5255.1947-.5262.1463-.5567.0978-.2783.0488-.2475.0977-.4331.0973-.2166.0487-.2166.1466-.5258.1947-.5258.2928-1.083.146-.5567.0978-.2786.0488-.2472.0978-.4331.0975-.1857.0487-.2166.0485-.2474.0978-.2784.1463-.5567.2925-1.052.1466-.5258.195-.5567.146-.557.0978-.2784.0487-.2475.0978-.4331.0485-.1854.049-.2165.0485-.2478.0975-.2781.1466-.557.2925-1.052.2928-1.083.146-.5567.0975-.2784.0491-.2474.0975-.4332.0978-.1856.0481-.2166.0491-.2475.0975-.2783.1463-.557.2925-1.083.2443-1.052.2926-1.083.2925-1.052.195-.866.0488-.2477.0972-.2784.1466-.5567.244-1.052.2926-1.082.2925-1.052.2441-1.083.1462-.5567.1463-.5261.1463-.5259.0975-.5258.195-.866.0491-.2477.0975-.2784.1462-.5567.2438-1.052.1463-.5567.1465-.5258.2438-1.052.2441-1.083.2435-1.083.2925-1.052m-281.5 204.600004 1.414-.0309c7.381-.0949 14.81-.2341 22.19-.3713l1.317-.0309 1.268-.0312c4.458-.0564 8.905-.2324 13.36-.309l1.804-.062 1.756-.0618c2.568-.0117 5.143-.218 7.706-.2475l2.78-.1239 1.366-.0618 1.317-.0309 1.268-.062 1.22-.0618 2.341-.1236 2.292-.0927 2.195-.093 2.049-.1236 2-.1239 1.902-.0929 1.854-.0927 1.756-.1236 1.707-.1236 1.658-.093.7807-.0618c1.439-.0623 3.072-.2097 4.536-.3095l.8291-.0618.9267-.0618c2.046-.1743 4.102-.3101 6.145-.4949l.8294-.0621.7317-.0618.6828-.0618.5851-.0621.5853-.0309 1.024-.1236 1.073-.0927.5366-.0618.5366-.0309.9754-.1238 1.024-.093.585-.0618.5854-.0618.6828-.0621c1.499-.2338 2.957-.301 4.438-.5255l.6341-.0621.5363-.0618c.805-.1329 1.633-.1772 2.439-.3095l.4879-.0618.5366-.0618c1.214-.1914 2.544-.3093 3.756-.495l.5366-.0618.4388-.062c.7016-.0967 1.401-.1942 2.097-.309l.3903-.0621.4875-.0618.4879-.093 1.122-.1856 1.073-.1545.5366-.093.4391-.0618.39-.0618.3413-.0618 1.171-.1857.6832-.1238.39-.0618.4878-.0927.9267-.1857.9751-.1545.4394-.093.39-.0617.3413-.0618.2926-.0621.5365-.0927.4879-.0621.2435-.0618.3418-.0618.7314-.1548.8291-.1544.8294-.1857.8292-.1548 1.512-.3401 1.512-.3093.7313-.1548.7807-.1856.7316-.1548.6341-.1545.2926-.0618.195-.0618.4391-.093.39-.0927.4879-.1238.5853-.1548 1.366-.3093.6339-.1545 1.219-.3095 1.219-.3402 2.341-.6497 2.244-.6497 2.146-.6185 2.049-.6497 1.951-.6497.9751-.3401.9266-.3096 1.805-.6185 1.756-.6497 1.707-.6494 1.658-.6497 2.341-.9281.7806-.3401.7314-.3405.7316-.3092.7316-.3405.7316-.3092.6829-.3093.2925-.1548.3904-.1856.4388-.1854.4875-.2475.4391-.2166.4388-.1856.3419-.1857.3413-.1545.6338-.3095.6831-.3402.6336-.3092.5853-.3096.2926-.1239.3418-.1853.3901-.2166.4388-.2166.7804-.4328.3418-.1857.2926-.1548.5363-.3095 1.17-.6494.5366-.3093.2925-.1239.2929-.1856.3412-.2166.7804-.4329.3416-.2165.5363-.3405.2441-.1236.2925-.1856 1.366-.8663.2929-.1857.2435-.1236 1.22-.7732.2435-.1857.2925-.2166.3901-.2165.3418-.2166.2926-.2166.4878-.3092.195-.1548.2438-.1545.5854-.4331.3413-.2166.2925-.2166.2441-.1856.2437-.1545.4388-.3096.4391-.3092.1953-.1545.2435-.1857.2929-.1857.2925-.2474.2925-.2166.2928-.1857.2438-.1856.1953-.1236.1953-.1548.2435-.1854.2438-.2165.2928-.2166.5366-.4331.8779-.6497.2438-.1854.1953-.1857.1948-.1239.1953-.1547.1953-.1854.2435-.2166.5853-.4331.2438-.2166.1953-.1854.195-.1548.195-.1238.1951-.1857.2438-.1854.244-.2474.2438-.2166.2438-.1857.1953-.1857.1953-.1235.1947-.1548.1953-.1857.9752-.8663.4878-.4328.4388-.4022.1953-.1857.1466-.1236.1947-.1548.1953-.1856.1953-.1857.2435-.2475.4879-.4328.439-.4332.2435-.2474.1953-.1857.1948-.1548.2928-.3092.195-.1545.1953-.1857.2438-.2477.4388-.4329.4394-.4331.2435-.2475.1953-.1856.1463-.1545.1953-.1548.2925-.3093.195-.1856.195-.2475.4388-.4331.8295-.866.4388-.4334.195-.2472.1953-.1857.5854-.6188.1947-.1854.1953-.2477.39-.4329.7804-.8662.3901-.4332.3903-.4019.1466-.1857.1462-.1239.0975-.1547.1463-.1857.1463-.2163.5853-.6497.7316-.8354.7314-.8659.7319-.8663.3413-.4329.3413-.4022.244-.3093.1466-.1547.146-.1857.6828-.8663.6341-.866.6829-.8353.6826-.866.6341-.8663.6344-.8351.6335-.8662.6344-.866.5854-.8354.2925-.4331.3413-.4329.5854-.8662.5853-.8351.5851-.8663.5854-.8663.5365-.835.5854-.8663.5851-.8663.5363-.8351.5369-.8662.5363-.866.5366-.8354.5363-.8663.5366-.8659.4878-.8663.5364-.8351.4878-.8663.1465-.2474.146-.2784.1951-.2784.1465-.2474.4879-.8663.4878-.866.4873-.8662.4878-.8351.4388-.8663.4879-.8663.1465-.2474.2925-.5567.1463-.2475.2441-.4331.195-.4332.4876-.8662.4388-.8351.1953-.4332.2437-.4331.1463-.2475.2926-.5567.1465-.2475.2438-.4331.195-.4331.4391-.866.3903-.8663.1463-.2474.0975-.2784.1463-.2784.1462-.2474.2438-.4332.1953-.4331.4388-.8351.1953-.4025.0973-.2163.0975-.2475.1465-.2474.0978-.3093.146-.2786.1466-.2475.195-.4328.195-.4023.1953-.4022.0975-.2166.0973-.2474.1462-.2475.0978-.3093.1466-.2786.1459-.2472.1951-.4331.195-.4023.1953-.4022.0975-.2166.0972-.2471.0978-.2475.1466-.3096.1463-.2783.0972-.2475.1953-.4331.1947-.402.1953-.4022.0976-.2166.0977-.2474.0973-.2475.0975-.3093.1465-.2786.0978-.2475.1948-.4328.1953-.4023.1953-.4022.0972-.2166.0975-.2474.0978-.2472.0975-.3095.146-.2787.0975-.2472.1953-.4331.0973-.1857.0978-.2163.0975-.2477.0975-.2784.1463-.3092.0977-.2475.0976-.2477.0975-.2163.195-.4023.1463-.4022.1953-.4329.0972-.2477.0975-.2781.1466-.3095.0978-.2475.0975-.2166.0484-.2165.1951-.4332.0978-.2471.0972-.2787.1465-.2783.0976-.2475.0977-.2166.0485-.2165.195-.4329.0976-.2477.0978-.2784.1465-.2784.0972-.2474.1953-.4332.1463-.4331.1463-.4328.195-.4332.0978-.2477.0972-.2781.1463-.2787.0975-.2474.195-.432904.0491-.2165.0975-.2169.0975-.2472.0978-.3095.0972-.2784.0975-.2472.0978-.2168.0485-.2166.0978-.1856.0972-.2163.0975-.2475.0978-.2786.0975-.309.0975-.2478.0976-.2165.0487-.2166.1953-.4328.0975-.2478.1951-.5567.0975-.2475.0978-.2165.0484-.2163.1951-.4334.0975-.2472.1953-.557.0972-.2472.0978-.2169.0975-.4331.0975-.2163.0978-.2474.0972-.3096.0976-.2784.0978-.2474.0975-.2166.049-.2166.0972-.1853.0975-.2166.0978-.2478.2926-.835.195-.5568.0488-.2786.0975-.2472.0975-.2166.0487-.2165.0978-.1857.0975-.2166.0976-.2474.0977-.2784.0482-.3092.0978-.2475.0975-.2169.0976-.4328.0978-.2166.0972-.2474.1953-.5568.0975-.2477.0972-.2163.0978-.4331.0975-.2166.3901-1.052.1953-.557.049-.2783.0973-.2475.0975-.2166.0978-.4328.0975-.2169.0975-.2474.0485-.2784.0975-.2783.0978-.2475.0975-.2166.0975-.4331.0975-.2166.0975-.2474.2928-.8351.1951-.5261.1465-.5256.0975-.2168.0972-.4329.0978-.2166.1463-.5261.1948-.5258.1953-.5567.049-.2784.0975-.2474.0972-.4332.0978-.2165.0485-.2166.1466-.5258.195-.5259.1953-.557.0485-.278.0978-.2478.0972-.2166.0975-.4328.0978-.2166.1465-.5258.1948-.5261.1462-.5567.0978-.2787.0488-.2472.0485-.2165.0975-.2166.049-.2166.0975-.2165.1463-.5259.195-.5258.1466-.5567.0975-.2787.0487-.2474.0491-.2166.0972-.2163.0488-.1856.0975-.2169.049-.2472.0975-.2783.146-.557.1953-.5568.0488-.2783.0978-.2475m-290.299999 163.500004h1.609c5.609-.0711 11.22-.1185 16.829999-.1854l1.366-.0309" stroke="#b1c900" stroke-dasharray="9.9992 1.9998 9.9992 1.9998" stroke-width="2"/><path d="m50.770181 224.80791 2.146-.0927c9.997-.4456 20.02-.688 30-1.33l1.707-.1238m338.299999-15.59h6.465m-12.76.3093h.1463l.0485-.0309h.5369l.0484-.0312h.6829l.0487-.0309h.5366l.0488-.0309h.7313l.0491-.0309h.6341l.0487-.0309h.6832l.0482-.0309h.4878l.0491-.0309h.6828l.0488-.0309h.6338l.0978-.0309m-48.33 2.227h.3412l.1463-.0309h.7316l.1463-.0309h.3903l.1466-.0309h.4875l.146-.0312h.6832l.1465-.0309h.4876l.146-.0309h.3418l.146-.0308h.7319l.146-.0309h.39l.1466-.0309h.6831l.146-.0312h.4391l.0975-.0309h.6341l.1466-.0309h.4385l.0975-.0309h.6829l.0978-.0309h.39l.0973-.0309h.6831l.0975-.0309h.6826l.1466-.0309h.3412l.0976-.0309h.6344l.0972-.0309h.6341l.0975-.0309h.3903l.0975-.0309h.6342l.0975-.0312h.6341l.1465-.0309h.5361l.0975-.0309h.5853l.0978-.0309h.5851l.0975-.0309h.5854l.1465-.0309h.536l.0978-.0311h.5854l.0975-.0309h.5363l.0978-.0309h.5363l.0975-.0309h.5854l.0975-.0309h.4876l.0978-.0309h.7801l.0978-.0312h.4875l.0978-.0309h.5366l.0975-.0309h.4879l.0972-.0309h.7316l.0975-.0309h.4876l.0978-.0309h.6828l.0973-.0309h.4878l.0975-.0309h.6832l.0972-.0309h.4878l.0488-.0312h.6831l.0976-.0309h.4878l.0482-.0309h.6344l.0975-.0309h.6829l.0484-.0309h.6344l.0975-.0309h.4388l.0978-.0309h.6339l.0487-.0309h.6344l.0482-.0309h.6344l.0975-.0311h.5854l.0978-.0309h.585l.0485-.0309h.5854l.0978-.0309h.585l.0488-.0309h.5853l.0488-.0309h.6344l.0482-.0312h.6831l.0975-.0309h.5851l.0975-.0309h.4879l.049-.0309h.5854l.0481-.0309h.5854m-331.999999 15.28 1.609-.0618c5.594-.3079 11.23-.5125 16.829999-.8045l1.366-.0618 1.414-.0618c7.397-.3444 14.79-.7001 22.19-1.021l1.317-.0618 1.268-.0618c4.452-.1851 8.914-.415 13.36-.5879l1.804-.0927 1.756-.093c2.544-.1148 5.174-.2154 7.706-.371l2.78-.1236 1.366-.0621 1.317-.0618 1.268-.0618 1.22-.0309 2.341-.1239 2.292-.0927 2.195-.0929 2.049-.0927 2-.0927 1.902-.093 1.854-.0927 1.756-.093 1.707-.0618 1.658-.0927.7807-.0311c1.517-.0618 3.003-.1803 4.536-.2163l.8291-.0309.9267-.0309c2.023-.1347 4.134-.1522 6.145-.2787l.8294-.0309.7317-.0309.6828-.0309 1.17-.0618 1.024-.0311 2.146-.1236.9754-.0309 1.024-.0618 1.17-.0618.6828-.0309c1.479-.0692 2.96-.1145 4.438-.1857l.6341-.0309.5363-.0312c.8226.0176 1.552-.1278 2.439-.0927l.4879-.0309.5366-.0309c1.252-.0623 2.504-.1193 3.756-.1856l.5366-.0312.4388-.0309c.699-.0003 1.395-.074 2.097-.0618l.3903-.0309.4875-.0309h.4879l1.122-.0618 1.073-.0618h.5366l.4391-.0309.39-.0309h.3413l.5853-.0312.5854-.0309h.3413l.3419-.0309.39-.0309h.4878l.9267-.0617.9751-.0312h.4394l.39-.0309.3413-.0309h.2926l.5365-.0309.4879-.0309h.2435l.3418-.0309.7314-.0312.8291-.0618 1.659-.0618 3.024-.1236.7313-.0309.7807-.0309.7316-.0309.6341-.0312h.2926l.195-.0309.4391-.0308h.39l.2438-.0309h.2441l.5853-.0309 1.366-.0621.6339-.0309 1.219-.0618 1.219-.0309 1.17-.0621 1.171-.0618 2.244-.0927 2.146-.093 2.049-.1235 2.926-.0927.9266-.0618 1.805-.093 1.756-.0927 1.707-.0621.8288-.0618.8291-.0309 1.561-.0621 1.561-.0618 2.926-.1235.3413-.0309.3416-.0309h.2925l.3904-.0309.4388-.0309h.4875l.4391-.0309h.7807l.3413-.0312.6338-.0309.6831-.0309.6336-.0309.5853-.0309.2926-.0309h.7319l.4388-.0312.3903-.0309h.7319l.2926-.0309.5363-.0309 1.17-.0618.5366-.0311.2925-.0309h.2929l.3412-.0309h.3901l.3903-.0309h.6341l.2438-.0309h.8779l.3416-.0309h.3413l.3415-.0312.2929-.0309h.2435l.9754-.0618h.7803l.3901-.0309h.3418l.2926-.0309.2435-.0309h.2443l.195-.0309h.5364l.2928-.0309h.6338l.4878-.0309.8779-.0618h.7317l.2925-.0312.2925-.0309h.5366l.1953-.0309h.4388l1.073-.0618.5851-.0309h.7319l.3901-.062h.4388l.2925-.0309h.9269l.195-.0309h.1951l.9754-.0618.3906-.0312h.8779l.4873-.0309.4878-.0309.4388-.0309.3419-.0309h.8288l.4879-.0309.8778-.0618.3413-.0309h.3413l.4391-.0309h.4388l.4394-.0309h.5851l.1953-.0309h.6825l.4388-.0312.8295-.0618.4388-.0309h.5368l.146-.0309h.2929l.39-.0309h.39l.7804-.0311.3901-.0309h.5369l.1462-.0309h.2438l.3416-.0309h.39l2.195-.093.3413-.0309h.3413l.244-.0309h.2926l.3413-.0309h.3415l.6341-.0309 1.366-.0621 2.536-.1236.5854-.0309.2925-.0309h.3413l.5854-.0309h.5853l1.17-.0618.5365-.0309.5854-.0308.5851-.0312.5363-.0309h.5369l2.146-.1236h.4878l.5364-.0312.244-.0309h.2438l.2925-.0309h.8295l1.463-.0927h.4388l.4879-.0312.2928-.0309h.2925l.2441-.0309h.6826l.4388-.0309.1953-.0309h1.073l.195-.0309.4391-.0309h.6341l.2925-.0309.2438-.0308h.8294l.1948-.0309.2443-.0309h.8779l.1948-.0309.244-.0312h.8779l.1947-.0309.2444-.0309h.6335l.1953-.0309h.6344l.7801-.0618h.4388l.3904-.0312.195-.0309h.6341l.1463-.0309h.6344l.1459-.0309h.7804l.195-.0309.1954-.0309h.5853l.1463-.0312h.6338l.195-.0309h.5366l.1463-.0309h.5853l.3416-.0309.3901-.0309h.3413l.1953-.0309h.4875l.195-.0311h.5366l.1954-.0309h.5363l.1462-.0309h.5366l.1466-.0309h.5363l.1463-.0309h.5363l.1953-.0309h.4391l.146-.0309h.4878l.195-.0309h.5369l.146-.0309h.4876l.1953-.0309h.39l.1466-.0309h.8291l.1465-.0309h.4876l.146-.0312h.4878l.1466-.0309h.4388l.1465-.0309h.146" stroke="#525266" stroke-dasharray="10.6677 1.06667 10.6677 1.06667" stroke-width="1.0667"/></g><g fill="#525266"><path d="m433.54092 207.68568v4.1792h-.79102v-4.1792h-.66796v-.57568h.66796v-.53614q0-.65039.28565-.93603.28564-.28565.87451-.28565.32959 0 .55811.0527v.60205q-.19776-.0352-.35157-.0352-.30322 0-.43945.15381-.13623.15381-.13623.55811v.42627h.92725v.57568z"/><path d="m435.01667 209.39734q0-1.27.39551-2.2808.3999-1.0107 1.2261-1.9028h.76465q-.82178.91406-1.2085 1.9424-.38232 1.0283-.38232 2.25 0 1.2173.37793 2.2412.38232 1.0239 1.2129 1.9512h-.76465q-.83057-.89648-1.2261-1.9072-.39551-1.0151-.39551-2.2764z"/><path d="m441.62686 210.46303q0 .67236-.50977 1.0371-.50537.36475-1.41943.36475-.8877 0-1.37109-.29004-.47901-.29443-.62403-.91406l.69873-.13623q.10108.38232.41748.5625.31641.17578.87891.17578.60205 0 .87891-.18457.28125-.18457.28125-.55371 0-.28125-.19336-.45703-.19336-.17578-.62403-.29004l-.56689-.14942q-.68115-.17578-.97119-.34277-.28565-.17139-.44825-.41309-.16259-.24169-.16259-.59326 0-.65039.46142-.98877.46582-.34277 1.35352-.34277.78662 0 1.24804.27686.46583.27685.58887.88769l-.71191.0879q-.0659-.3164-.35596-.4834-.28564-.17138-.76904-.17138-.53613 0-.79102.16259-.25488.1626-.25488.49219 0 .20215.10547.33399.10547.13183.31201.22412.20654.0923.87012.25488.62842.1582.90527.29443.27686.13184.43506.29444.1626.16259.25049.37793.0879.21093.0879.4834z"/><path d="m444.38667 209.41494q0 1.27-.3999 2.2808-.39551 1.0107-1.2217 1.9028h-.76465q.82617-.92285 1.2085-1.9424.38233-1.0239.38233-2.25 0-1.2261-.38672-2.25-.38232-1.0239-1.2041-1.9424h.76465q.83056.89648 1.2261 1.9116.39551 1.0107.39551 2.272z"/><path d="m445.39 208.61v-.65039h4.3726v.65039zm0 2.25v-.65039h4.3726v.65039z"/><path d="m454.37979 210.46303q0 .67236-.50977 1.0371-.50537.36475-1.41943.36475-.8877 0-1.3711-.29004-.479-.29443-.62402-.91406l.69873-.13623q.10108.38232.41748.5625.31641.17578.87891.17578.60205 0 .8789-.18457.28125-.18457.28125-.55371 0-.28125-.19335-.45703-.19336-.17578-.62403-.29004l-.56689-.14942q-.68115-.17578-.97119-.34277-.28565-.17139-.44825-.41309-.16259-.24169-.16259-.59326 0-.65039.46142-.98877.46582-.34277 1.35352-.34277.78662 0 1.24804.27686.46582.27685.58887.88769l-.71191.0879q-.0659-.3164-.35596-.4834-.28564-.17138-.76904-.17138-.53614 0-.79102.16259-.25488.1626-.25488.49219 0 .20215.10547.33399.10547.13183.31201.22412.20654.0923.87012.25488.62841.1582.90527.29443.27686.13184.43506.29444.1626.16259.25049.37793.0879.21093.0879.4834z"/></g><g fill="none" stroke="#000" stroke-width=".9998"><path d="m355.28 226.41v-1.64"/><path d="m84.6 226.41v-1.64"/><path d="m152.28 226.41v-1.64"/><path d="m321.48 226.41v-1.64"/><path d="m287.58 226.41v-1.64"/><path d="m253.78 226.41v-1.64"/><path d="m219.98 226.41v-1.64"/><path d="m422.98 226.41v-1.64"/></g><g font-family="DejaVu Sans"><text x="13.546488" y="223.25221"><tspan font-family="'DejaVu Sans'" font-size="10">10</tspan></text><text x="27.751066" y="218.05222"><tspan font-family="'DejaVu Sans'" font-size="10">100</tspan></text><text x=".821878" y="212.85222"><tspan font-family="'DejaVu Sans'" font-size="10">1000</tspan></text><text x="4.171965" y="197.44011"><tspan font-family="'DejaVu Sans'" font-size="10">1 million</tspan></text><text x="7.565519" y="181.94011"><tspan font-family="'DejaVu Sans'" font-size="10">1 billion</tspan></text><text x="5.880949" y="166.44011"><tspan font-family="'DejaVu Sans'" font-size="10">1 trillion</tspan></text><text x="247.34903" y="239.078"><tspan font-family="'DejaVu Sans'" font-size="10">64</tspan></text><text x="277.8287" y="239.078"><tspan font-family="'DejaVu Sans'" font-size="10">128</tspan></text><text x="179.48302" y="239.078"><tspan font-family="'DejaVu Sans'" font-size="10">16</tspan></text><text x="213.73701" y="239.08313"><tspan font-family="'DejaVu Sans'" font-size="10">32</tspan></text><text x="311.88495" y="239.078"><tspan font-family="'DejaVu Sans'" font-size="10">256</tspan></text><text x="345.85098" y="239.078"><tspan font-family="'DejaVu Sans'" font-size="10">512</tspan></text><text x="376.08652" y="239.078"><tspan font-family="'DejaVu Sans'" font-size="10">1024</tspan></text><text x="410.23065" y="239.078"><tspan font-family="'DejaVu Sans'" font-size="10">2048</tspan></text></g><g fill="none" stroke="#000" stroke-width=".9998"><path d="m50.77 17.908h-2.585"/><path d="m50.77 43.778h-2.585"/><path d="m50.77 69.618h-2.585"/><path d="m50.77 95.478h-2.585"/><path d="m50.77 121.31h-2.585"/><path d="m50.77 147.21h-2.585"/><path d="m50.77 162.71h-2.585"/><path d="m50.77 178.21h-2.585"/><path d="m50.77 193.71h-2.585"/><path d="m50.77 209.21h-21.92"/><path d="m50.77 214.41h-2.585"/><path d="m50.77 219.61h-21.92"/></g><text font-family="'DejaVu Sans'" x="431.26456" y="170.53481"><tspan font-family="'DejaVu Sans'" font-size="9">ms per day</tspan></text><text font-family="'DejaVu Sans'" font-size="13.067" x="54.284531" y="32.661079"><tspan font-family="'DejaVu Sans'" font-size="13.333">f(s)</tspan></text><text x="205.92331" y="9.266789"><tspan x="205.92331" y="44.65741"/></text><g fill="#5b835b"><path d="m433.54092 156.33461v4.1792h-.79102v-4.1792h-.66796v-.57569h.66796v-.53613q0-.65039.28565-.93604.28564-.28564.87451-.28564.32959 0 .55811.0527v.60206q-.19776-.0352-.35157-.0352-.30322 0-.43945.15381-.13623.15381-.13623.5581v.42627h.92725v.57569z"/><path d="m435.01667 158.04627q0-1.27.39551-2.2808.3999-1.0107 1.2261-1.9028h.76465q-.82178.91406-1.2085 1.9424-.38232 1.0283-.38232 2.25 0 1.2173.37793 2.2412.38232 1.0239 1.2129 1.9512h-.76465q-.83057-.89649-1.2261-1.9072-.39551-1.0151-.39551-2.2764z"/><path d="m441.62686 159.11195q0 .67236-.50977 1.03711-.50537.36475-1.41943.36475-.8877 0-1.37109-.29004-.47901-.29444-.62403-.91407l.69873-.13623q.10108.38233.41748.5625.31641.17579.87891.17579.60205 0 .87891-.18457.28125-.18458.28125-.55372 0-.28125-.19336-.45703-.19336-.17578-.62403-.29004l-.56689-.14941q-.68115-.17578-.97119-.34277-.28565-.17139-.44825-.41309-.16259-.2417-.16259-.59326 0-.65039.46142-.98877.46582-.34277 1.35352-.34277.78662 0 1.24804.27685.46583.27686.58887.8877l-.71191.0879q-.0659-.31641-.35596-.4834-.28564-.17139-.76904-.17139-.53613 0-.79102.1626-.25488.1626-.25488.49219 0 .20215.10547.33398.10547.13184.31201.22412.20654.0923.87012.25489.62842.1582.90527.29443.27686.13184.43506.29443.1626.1626.25049.37793.0879.21094.0879.4834z"/><path d="m444.38667 158.06387q0 1.27-.3999 2.2808-.39551 1.0108-1.2217 1.9028h-.76465q.82617-.92285 1.2085-1.9424.38233-1.0239.38233-2.25 0-1.2261-.38672-2.25-.38232-1.0239-1.2041-1.9424h.76465q.83056.89649 1.2261 1.9116.39551 1.0107.39551 2.272z"/><path d="m445.39 157.26v-.65039h4.3726v.65039zm0 2.25v-.65039h4.3726v.65039z"/><path d="m454.37979 159.11195q0 .67236-.50977 1.03711-.50537.36475-1.41943.36475-.8877 0-1.3711-.29004-.479-.29444-.62402-.91407l.69873-.13623q.10108.38233.41748.5625.31641.17579.87891.17579.60205 0 .8789-.18457.28125-.18458.28125-.55372 0-.28125-.19335-.45703-.19336-.17578-.62403-.29004l-.56689-.14941q-.68115-.17578-.97119-.34277-.28565-.17139-.44825-.41309-.16259-.2417-.16259-.59326 0-.65039.46142-.98877.46582-.34277 1.35352-.34277.78662 0 1.24804.27685.46582.27686.58887.8877l-.71191.0879q-.0659-.31641-.35596-.4834-.28564-.17139-.76904-.17139-.53614 0-.79102.1626-.25488.1626-.25488.49219 0 .20215.10547.33398.10547.13184.31201.22412.20654.0923.87012.25489.62841.1582.90527.29443.27686.13184.43506.29443.1626.1626.25049.37793.0879.21094.0879.4834z"/><path d="m457.67117 154.81134v1.03846h-.55341v-1.03846h-2.16157v-.45575l2.09972-3.0926h.61526v3.08609h.64456v.46226zm-.55341-2.88751q-.007.0195-.0911.17253-.0846.153-.12696.21486l-1.17519 1.73185-.17579.2409-.0521.0651h1.62118z"/></g><g fill="#483434"><path d="m433.54092 190.5789v4.1792h-.79102v-4.1792h-.66796v-.57568h.66796v-.53614q0-.65039.28565-.93603.28564-.28565.87451-.28565.32959 0 .55811.0527v.60205q-.19776-.0352-.35157-.0352-.30322 0-.43945.15381-.13623.15381-.13623.55811v.42627h.92725v.57568z"/><path d="m435.01667 192.29056q0-1.27.39551-2.2808.3999-1.0108 1.2261-1.9028h.76465q-.82178.91407-1.2085 1.9424-.38232 1.0283-.38232 2.25 0 1.2173.37793 2.2412.38232 1.0239 1.2129 1.9512h-.76465q-.83057-.89648-1.2261-1.9072-.39551-1.0151-.39551-2.2764z"/><path d="m441.62686 193.35624q0 .67237-.50977 1.03711-.50537.36475-1.41943.36475-.8877 0-1.37109-.29004-.47901-.29443-.62403-.91406l.69873-.13623q.10108.38232.41748.5625.31641.17578.87891.17578.60205 0 .87891-.18457.28125-.18457.28125-.55371 0-.28125-.19336-.45703-.19336-.17579-.62403-.29004l-.56689-.14942q-.68115-.17578-.97119-.34277-.28565-.17139-.44825-.41309-.16259-.2417-.16259-.59326 0-.65039.46142-.98877.46582-.34277 1.35352-.34277.78662 0 1.24804.27685.46583.27686.58887.8877l-.71191.0879q-.0659-.31641-.35596-.4834-.28564-.17138-.76904-.17138-.53613 0-.79102.16259-.25488.1626-.25488.49219 0 .20215.10547.33398.10547.13184.31201.22413.20654.0923.87012.25488.62842.1582.90527.29443.27686.13184.43506.29444.1626.16259.25049.37793.0879.21093.0879.48339z"/><path d="m444.38667 192.30816q0 1.27-.3999 2.2808-.39551 1.0107-1.2217 1.9028h-.76465q.82617-.92285 1.2085-1.9424.38233-1.0239.38233-2.25 0-1.2261-.38672-2.25-.38232-1.0239-1.2041-1.9424h.76465q.83056.89649 1.2261 1.9116.39551 1.0107.39551 2.272z"/><path d="m445.39 191.5v-.65039h4.3726v.65039zm0 2.25v-.65039h4.3726v.65039z"/><path d="m454.37979 193.35624q0 .67237-.50977 1.03711-.50537.36475-1.41943.36475-.8877 0-1.3711-.29004-.479-.29443-.62402-.91406l.69873-.13623q.10108.38232.41748.5625.31641.17578.87891.17578.60205 0 .8789-.18457.28125-.18457.28125-.55371 0-.28125-.19335-.45703-.19336-.17579-.62403-.29004l-.56689-.14942q-.68115-.17578-.97119-.34277-.28565-.17139-.44825-.41309-.16259-.2417-.16259-.59326 0-.65039.46142-.98877.46582-.34277 1.35352-.34277.78662 0 1.24804.27685.46582.27686.58887.8877l-.71191.0879q-.0659-.31641-.35596-.4834-.28564-.17138-.76904-.17138-.53614 0-.79102.16259-.25488.1626-.25488.49219 0 .20215.10547.33398.10547.13184.31201.22413.20654.0923.87012.25488.62841.1582.90527.29443.27686.13184.43506.29444.1626.16259.25049.37793.0879.21093.0879.48339z"/><path d="m455.82718 191.30012v-.41343q.16603-.38088.40367-.67061.2409-.29298.50458-.52737.26369-.23764.52086-.43947.26043-.20183.46877-.40367.20835-.20183.33531-.4232.13021-.22136.13021-.50132 0-.37763-.22136-.58597-.22137-.20834-.61527-.20834-.37437 0-.61852.20508-.2409.20184-.28322.56969l-.59899-.0553q.0651-.55015.46552-.87569.40367-.32554 1.03521-.32554.69339 0 1.06451.32879.37436.32554.37436.92778 0 .26695-.1237.53063-.12045.26369-.36135.52737-.24089.26369-.92127.8171-.37436.306-.59573.55341-.22136.24415-.31902.47203h2.39269v.49807z"/></g><g font-family="DejaVu Sans"><text x="411.64539" y="221.25746"><tspan font-family="'DejaVu Sans'" font-size="13.333">s</tspan></text><text x="25.821159" y="152.43625"><tspan font-family="'DejaVu Sans'" font-size="10">10</tspan></text><text x="38.273125" y="146.70657"><tspan font-family="'DejaVu Sans'" font-size="6.667">15</tspan></text><text x="149.10098" y="239.078"><tspan font-family="'DejaVu Sans'" font-size="10">8</tspan></text><text x="114.70625" y="239.20007"><tspan font-family="'DejaVu Sans'" font-size="10">4</tspan></text><text x="81.552818" y="239.20007"><tspan font-family="'DejaVu Sans'" font-size="10">2</tspan></text><text x="47.500656" y="239.20007"><tspan font-family="'DejaVu Sans'" font-size="10">1</tspan></text></g><g fill="#b1c900"><path d="m369.59967 6.2578942v4.1791998h-.79101v-4.1791998h-.66797v-.57568h.66797v-.53613q0-.65039.28564-.93604.28565-.28564.87451-.28564.32959 0 .55811.052734v.60205q-.19775-.035156-.35156-.035156-.30323 0-.43946.15381-.13623.15381-.13623.55811v.42627h.92725v.57568z"/><path d="m371.06967 7.9695541q0-1.27.39551-2.2808.3999-1.0107 1.2261-1.9028h.76465q-.82177.91406-1.2085 1.9424-.38233 1.0283-.38233 2.25 0 1.2173.37793 2.2411999.38233 1.0239 1.2129 1.9512h-.76465q-.83056-.89648-1.2261-1.9072-.39551-1.0150999-.39551-2.2763999z"/><path d="m377.68294 9.0352391q0 .6723631-.50976 1.0371089-.50538.364746-1.41944.364746-.88769 0-1.37109-.290039-.47901-.2944328-.62402-.9140618l.69873-.136231q.10107.382325.41748.5625.3164.175782.8789.175782.60205 0 .87891-.184571.28125-.18457.28125-.553711 0-.28125-.19336-.457031-.19336-.1757811-.62402-.290039l-.5669-.1494141q-.68115-.1757812-.97119-.3427734-.28564-.1713868-.44824-.413086-.1626-.2416992-.1626-.5932617 0-.6503907.46143-.9887696.46582-.3427734 1.35351-.3427734.78662 0 1.24805.2768555.46582.2768554.58887.8876953l-.71192.087891q-.0659-.3164063-.35596-.4833984-.28564-.1713868-.76904-.1713868-.53613 0-.79101.1625977-.25489.1625977-.25489.4921875 0 .2021484.10547.3339844.10547.1318359.31201.2241211.20655.092285.87012.2548828.62842.1582031.90527.2944336.27686.1318359.43506.2944336.1626.1625976.25049.3779288.0879.210938.0879.483399z"/><path d="m380.45 7.9872q0 1.27-.3999 2.2808-.39551 1.0107-1.2217 1.9028h-.76465q.82617-.92285 1.2085-1.9424.38232-1.0239.38232-2.25t-.38672-2.25q-.38232-1.0239-1.2041-1.9424h.76465q.83057.89648 1.2261 1.9116.39551 1.0107.39551 2.272z"/><path d="m381.44 7.1785v-.65039h4.3726v.65039zm0 2.25v-.65039h4.3726v.65039z"/><path d="m386.95 11.074v-.67236h1.5776v-4.7637l-1.3975.99756v-.74707l1.4634-1.0063h.72949v5.5195h1.5073v.67236z"/><path d="m392.09 11.074v-.9624h.85694v.9624z"/><path d="m394.45 11.074v-.67236h1.5776v-4.7637l-1.3975.99756v-.74707l1.4634-1.0063h.72949v5.5195h1.5073v.67236z"/><path d="m402.06284 4.3796931q0 .4980718-.37763.7682676-.37436.2701958-1.05148.2701958-.65759 0-1.01568-.2148545-.35483-.2181099-.46226-.6771172l.5176-.1009165q.0749.2832173.30926.4166875.23439.1302148.65108.1302148.44598 0 .65107-.1367255.20835-.1367256.20835-.4101768 0-.2083437-.14324-.3385586-.14324-.1302148-.46226-.2148545l-.41995-.1106826q-.50458-.1302148-.71943-.2539189-.2116-.1269595-.33205-.3060049-.12045-.1790454-.12045-.4394751 0-.4817949.34182-.7324584.34506-.253919 1.00265-.253919.58271 0 .92452.2050884.34507.2050884.43622.6575849l-.52737.065107q-.0488-.2343867-.26368-.3580908-.2116-.1269594-.56969-.1269594-.39716 0-.58597.1204487-.18881.1204487-.18881.3646015 0 .1497471.0781.2474082.0781.097661.23113.166024.153.068363.64456.1888115.46552.1171933.67061.2181098.20509.097661.32228.2181099.12045.1204487.18556.2799619.0651.1562578.0651.3580908z"/></g></svg>