<svg height="114pt" viewBox="0 0 191 114" width="191pt" xmlns="http://www.w3.org/2000/svg"><g fill="none" stroke-width=".9998"><path d="m10.705 1.2389v103.36h179.04" stroke="#1b1918"/><path d="m175.58 104.22c-125.28-3.5769-152.48-7.3631-164.87-94.222" stroke="#009ee0"/><g stroke-dasharray="1.9996 2.9993 1.9996 2.9993"><path d="m66.392 56.065c28.978 16.875 66.459 28.148 123.36 30.04" stroke="#ab417f"/><path d="m92.972 84.971c21.577 5.7317 51.72 9.589 96.777 12.949" stroke="#009035"/></g></g><text x="85.259338" y="112.6776"><tspan fill="#1b1918" font-family="Calibri" font-size="9">runtime</tspan></text><text transform="rotate(-90)" x="-80.618027" y="7.373351"><tspan fill="#1b1918" font-family="Calibri" font-size="9">objective value</tspan></text><text x="111.51477" y="46.641621"><tspan fill="#1b1918" font-family="Calibri" font-size="8">point of termination</tspan></text><g fill="none"><g stroke="#1b1918"><path d="m175.58 104.22-33.913-50.444"/><path d="m92.972 84.971 31.288-31.333"/><path d="m66.392 56.065 42.323-13.002"/></g><path d="m175.58 101.14a3.078 3.078 0 0 1 3.078 3.078 3.078 3.078 0 1 1 -3.078-3.078z" stroke="#fff" stroke-width="4"/><g stroke-width=".9998"><path d="m175.58 101.14a3.078 3.078 0 0 1 3.078 3.078 3.078 3.078 0 1 1 -3.078-3.078z" stroke="#009ee0"/><path d="m10.704 9.9998c16.848 17.457 33.855 33.351 55.688 46.065" stroke="#ab417f"/><path d="m10.705 10c29.274 42.205 36.483 62.808 82.267 74.971" stroke="#009035"/></g><path d="m92.844 81.859a3.078 3.078 0 0 1 3.078 3.078 3.078 3.078 0 1 1 -3.078-3.078z" stroke="#fff" stroke-width="4"/><path d="m92.844 81.859a3.078 3.078 0 0 1 3.078 3.078 3.078 3.078 0 1 1 -3.078-3.078z" stroke="#009035" stroke-width=".9998"/><path d="m66.437 53.013a3.078 3.078 0 0 1 3.078 3.078 3.078 3.078 0 1 1 -3.078-3.078z" stroke="#fff" stroke-width="4"/><path d="m66.437 53.013a3.078 3.078 0 0 1 3.078 3.078 3.078 3.078 0 1 1 -3.078-3.078z" stroke="#ab417f" stroke-width=".9998"/></g><text font-family="sans-serif" font-size="12" x="45.81464" y="10.358906"><tspan x="45.81464" y="10.358906">Method <tspan fill="#ab417f">A</tspan>, <tspan fill="#009035">B</tspan>, and <tspan fill="#009ee0">C</tspan></tspan></text></svg>