<svg height="114pt" viewBox="0 0 191 114" width="191pt" xmlns="http://www.w3.org/2000/svg"><g fill="none" stroke-width=".9998"><path d="m10.705 1.2389v103.36h179.04" stroke="#1b1918"/><g stroke-dasharray="1.9996 2.9993 1.9996 2.9993"><path d="m175.58 104.22c-125.28-3.5769-152.48-7.3631-164.87-94.222" stroke="#009ee0"/><path d="m66.393 56.064c28.978 16.875 66.458 28.148 123.36 30.04" stroke="#ab417f"/><path d="m10.704 10c16.848 17.457 33.856 33.35 55.689 46.063" stroke="#ab417f"/><path d="m10.705 10c29.274 42.205 36.483 62.808 82.267 74.971 21.577 5.7317 51.719 9.588 96.776 12.948" stroke="#009035"/></g></g><text x="85.259338" y="112.6776"><tspan fill="#1b1918" font-family="Calibri" font-size="9">runtime</tspan></text><text transform="rotate(-90)" x="-80.618027" y="7.373351"><tspan fill="#1b1918" font-family="Calibri" font-size="9">objective value</tspan></text><text x="111.51477" y="46.641621"><tspan fill="#1b1918" font-family="Calibri" font-size="8">point of termination</tspan></text><g fill="none" stroke="#1b1918"><path d="m175.58 104.22-33.913-50.444"/><path d="m92.972 84.971 31.288-31.333"/><path d="m66.392 56.065 42.323-13.002"/></g><text font-family="sans-serif" font-size="12" x="45.81464" y="10.358906"><tspan x="45.81464" y="10.358906">Method <tspan fill="#ab417f">A</tspan>, <tspan fill="#009035">B</tspan>, and <tspan fill="#009ee0">C</tspan></tspan></text><g fill="none"><g stroke="#6e7071" stroke-dasharray=".3331 .9992 .3331 .9992" stroke-width=".3331" transform="translate(-261.14 -271.29)"><path d="m282.5 285.05v90.842"/><path d="m296.9 285.05v90.842"/><path d="m311.3 285.05v90.842"/><path d="m325.7 285.05v90.842"/><path d="m340.1 285.05v90.842"/><path d="m354.5 285.05v90.842"/><path d="m368.9 285.05v90.842"/><path d="m383.3 285.05v90.842"/><path d="m397.7 285.05v90.842"/><path d="m412.1 285.05v90.842"/><path d="m426.5 285.05v90.842"/><path d="m440.9 285.05v90.842"/><path d="m271.85 366.2h179.04"/><path d="m271.85 351.8h179.04"/><path d="m271.85 337.4h179.04"/><path d="m271.85 323h179.04"/><path d="m271.85 308.6h179.04"/><path d="m271.85 294.2h179.04"/></g><g stroke-width=".9998"><path d="m10.705 10h10.654v10.753h2.222v2.154h12.178v11.116h3.8956v3.2836h10.504v8.1519h9.125l-.004 6.2481h5.279v3.2763h14.4v7.7646h7.3476v3.3591h7.0524v2.8817h14.4v4.9561h14.4v3.8826h14.4v2.9846h14.408l-.008 2.2283h14.4v1.5869h14.4v1.0386h8.0963v.3719" stroke="#ab417f"/><path d="m10.705 10h8.7701v12.907l1.8842-.0003v2.8213h7.7686v11.579h6.6314v9.398h3.8298v5.0014h10.57v11.544h3.2482v2.8562h11.152v7.7479h14.4v6.653h14.4v4.5654h14.4v3.2738h14.4v2.5035h14.4v2.0004h14.4v1.6552h3.9033v.4014h10.497v1.0085h14.4v1.2306h8.0963v.631" stroke="#009035"/><path d="m10.705 10h2.0681v12.907l3.0467.0454v14.356h4.3503v14.399h1.1892v3.0847h5.576v11.315h8.824v11.416h3.2215v2.984h11.178v7.4996h14.4v5.8031h2.4562v1.0973h11.944v2.4197h14.4v2.2524h14.4v1.5018h14.4v1.0403h14.4v.7526h14.412l-.0116.5757h14.4v.4722h10.223v.6792" stroke="#009ee0"/></g><path d="m66.437 53.013a3.078 3.078 0 0 1 3.078 3.078 3.078 3.078 0 1 1 -3.078-3.078z" stroke="#fff" stroke-width="4"/><path d="m66.437 53.013a3.078 3.078 0 0 1 3.078 3.078 3.078 3.078 0 1 1 -3.078-3.078z" stroke="#ab417f" stroke-width=".9998"/><path d="m92.844 81.859a3.078 3.078 0 0 1 3.078 3.078 3.078 3.078 0 1 1 -3.078-3.078z" stroke="#fff" stroke-width="4"/><path d="m92.844 81.859a3.078 3.078 0 0 1 3.078 3.078 3.078 3.078 0 1 1 -3.078-3.078z" stroke="#009035" stroke-width=".9998"/><path d="m175.58 101.14a3.078 3.078 0 0 1 3.078 3.078 3.078 3.078 0 1 1 -3.078-3.078z" stroke="#fff" stroke-width="4"/><path d="m175.58 101.14a3.078 3.078 0 0 1 3.078 3.078 3.078 3.078 0 1 1 -3.078-3.078z" stroke="#009ee0" stroke-width=".9998"/></g></svg>