<svg height="270pt" viewBox="0 0 224 270" width="224pt" xmlns="http://www.w3.org/2000/svg" xmlns:xlink="http://www.w3.org/1999/xlink"><defs><g id="a"><path d="m3.8281-1.5312c-.45312.70312-.85938.98438-1.4531.98438-.53125 0-.9375-.28125-1.2188-.8125-.15625-.35938-.23438-.67188-.25-1.2344h2.8906c-.078125-.60938-.17188-.89062-.40625-1.1875-.28125-.32812-.70312-.53125-1.2031-.53125-.46875 0-.90625.17188-1.2656.48438-.4375.39062-.6875 1.0469-.6875 1.8281 0 1.2812.67188 2.0938 1.75 2.0938.89062 0 1.5938-.54688 1.9844-1.5625zm-2.9062-1.3594c.10938-.73438.42188-1.0781 1-1.0781s.79688.25.92188 1.0781z"/></g><g id="b"><path d="m.0625-3.65625c.140625-.03125.21875-.03125.328125-.03125.234375 0 .328125.140625.328125.5625v2.34375c0 .46875-.078125.53125-.671875.640625v.140625h2.25v-.140625c-.640625-.03125-.796875-.171875-.796875-.703125v-2.109375c0-.296875.40625-.765625.65625-.765625.0625 0 .140625.046875.25.140625.140625.125.25.1875.375.1875.21875 0 .359375-.15625.359375-.421875 0-.3125-.203125-.5-.515625-.5-.390625 0-.671875.21875-1.125.875v-.859375l-.046875-.015625c-.5.203125-.828125.328125-1.390625.5zm0 0"/></g><g id="c"><path d="m3.21875.09375 1.390625-.484375v-.15625c-.171875.015625-.1875.015625-.21875.015625-.34375 0-.421875-.109375-.421875-.53125v-5.328125l-.046875-.015625c-.4375.15625-.765625.25-1.375.421875v.140625h.203125c.359375 0 .4375.09375.4375.46875v1.46875c-.359375-.296875-.609375-.40625-.984375-.40625-1.078125 0-1.953125 1.0625-1.953125 2.390625 0 1.203125.703125 2.015625 1.734375 2.015625.53125 0 .890625-.1875 1.203125-.625v.59375zm-.03125-1.046875c0 .0625-.0625.171875-.15625.28125-.171875.1875-.40625.28125-.671875.28125-.78125 0-1.296875-.75-1.296875-1.90625 0-1.0625.453125-1.75 1.171875-1.75.5 0 .953125.4375.953125.9375zm0 0"/></g><g id="d"><path d="m.78125 1.3281c.625-.3125 1.0469-.89062 1.0469-1.4531 0-.46875-.32812-.82812-.75-.82812-.32812 0-.54688.21875-.54688.53125 0 .29688.20312.48438.54688.48438.0625 0 .125-.015625.17188-.03125l.078125-.015625c.078125 0 .14062.0625.14062.14062 0 .29688-.26562.64062-.78125.98438z"/></g><g id="e"><path d="m4.140625-.625c-.15625.140625-.265625.1875-.40625.1875-.21875 0-.28125-.140625-.28125-.546875v-1.828125c0-.484375-.046875-.765625-.1875-.984375-.203125-.34375-.609375-.515625-1.171875-.515625-.875 0-1.5625.453125-1.5625 1.046875 0 .21875.1875.40625.390625.40625.234375 0 .421875-.1875.421875-.390625 0-.046875 0-.09375-.015625-.15625-.015625-.078125-.03125-.15625-.03125-.21875 0-.25.3125-.46875.6875-.46875.453125 0 .703125.28125.703125.78125v.578125c-1.4375.578125-1.59375.65625-2 1.015625-.203125.1875-.34375.5-.34375.8125 0 .59375.421875 1 .984375 1 .421875 0 .796875-.203125 1.375-.6875.046875.484375.21875.6875.59375.6875.328125 0 .515625-.109375.84375-.46875zm-1.453125-.53125c0 .296875-.046875.375-.234375.484375-.234375.140625-.5.21875-.6875.21875-.328125 0-.59375-.3125-.59375-.71875v-.03125c0-.5625.390625-.890625 1.515625-1.3125zm0 0"/></g><g id="f"><path d="m4.46875-4.21875h-1.296875v.140625c.296875.03125.4375.125.4375.296875 0 .09375-.015625.1875-.0625.28125l-.921875 2.4375-.953125-2.40625c-.0625-.125-.09375-.265625-.09375-.34375 0-.171875.109375-.234375.4375-.265625v-.140625h-1.84375v.140625c.359375.015625.421875.109375.859375 1.078125l1.125 2.6875c.015625.0625.046875.125.078125.203125.046875.171875.109375.234375.171875.234375.046875 0 .109375-.109375.25-.46875l1.203125-3c.28125-.640625.328125-.703125.609375-.734375zm0 0"/></g><g id="g"><path d="m4.40625-3.640625v-.359375h-.71875c-.1875 0-.328125-.03125-.515625-.09375l-.203125-.078125c-.265625-.09375-.515625-.140625-.75-.140625-.875 0-1.578125.671875-1.578125 1.53125 0 .59375.265625.9375.875 1.25-.171875.171875-.34375.328125-.40625.375-.296875.28125-.421875.46875-.421875.65625s.109375.296875.5.484375c-.671875.5-.921875.796875-.921875 1.15625 0 .484375.734375.90625 1.625.90625.703125 0 1.421875-.25 1.921875-.640625.34375-.296875.515625-.59375.515625-.953125 0-.578125-.453125-.96875-1.140625-1l-1.203125-.046875c-.5-.03125-.734375-.109375-.734375-.265625 0-.1875.3125-.515625.5625-.578125.078125 0 .140625.015625.171875.015625.1875.015625.296875.03125.359375.03125.34375 0 .71875-.140625 1.015625-.40625.3125-.25.453125-.578125.453125-1.046875 0-.28125-.046875-.5-.1875-.796875zm-3.03125 3.65625c.3125.0625 1.0625.125 1.515625.125.859375 0 1.171875.125 1.171875.453125 0 .546875-.71875.921875-1.78125.921875-.8125 0-1.359375-.28125-1.359375-.6875 0-.21875.0625-.34375.453125-.8125zm.046875-3.1875c0-.546875.265625-.875.703125-.875.28125 0 .53125.15625.671875.4375.171875.328125.28125.765625.28125 1.125 0 .53125-.265625.859375-.703125.859375-.5625 0-.953125-.609375-.953125-1.515625zm0 0"/></g><g id="h"><path d="m2.3438-4.3125c-1.2188 0-2.0781.90625-2.0781 2.1875 0 1.2656.875 2.2188 2.0625 2.2188 1.1719 0 2.0781-1 2.0781-2.2812 0-1.2344-.85938-2.125-2.0625-2.125zm-.125.26562c.79688 0 1.3438.89062 1.3438 2.1875 0 1.0469-.42188 1.6875-1.125 1.6875-.35938 0-.71875-.21875-.90625-.59375-.26562-.48438-.42188-1.1406-.42188-1.8125 0-.89062.45312-1.4688 1.1094-1.4688z"/></g><g id="i"><path d="m2.390625-4.21875h-.953125v-1.09375c0-.09375 0-.109375-.0625-.109375-.0625.078125-.125.15625-.1875.25-.359375.515625-.75.96875-.90625 1.015625-.109375.0625-.15625.125-.15625.171875 0 .03125 0 .046875.03125.0625h.5v2.828125c0 .78125.28125 1.1875.828125 1.1875.46875 0 .828125-.21875 1.125-.71875l-.109375-.09375c-.203125.234375-.359375.328125-.5625.328125-.359375 0-.5-.25-.5-.84375v-2.6875h.953125zm0 0"/></g><g id="j"><path d="m1.46875-3.21875c.390625-.421875.671875-.59375 1.046875-.59375.46875 0 .703125.34375.703125 1v1.859375c0 .640625-.09375.75-.640625.8125v.140625h1.984375v-.140625c-.5-.09375-.5625-.171875-.5625-.8125v-1.875c0-.984375-.390625-1.484375-1.15625-1.484375-.546875 0-.9375.21875-1.375.78125v-2.84375l-.046875-.03125c-.3125.109375-.546875.1875-1.078125.34375l-.25.078125v.140625h.109375c.40625 0 .484375.0625.484375.46875v4.421875c0 .65625-.0625.734375-.609375.8125v.140625h2.03125v-.140625c-.546875-.0625-.640625-.171875-.640625-.8125zm0 0"/></g><g id="k"><path d="m4.484375-.46875h-.046875c-.421875 0-.53125-.109375-.53125-.53125v-3.21875h-1.484375v.15625c.59375.03125.703125.125.703125.59375v2.203125c0 .265625-.046875.390625-.1875.5-.25.203125-.53125.3125-.8125.3125-.375 0-.671875-.3125-.671875-.703125v-3.0625h-1.375v.125c.453125.03125.59375.171875.59375.609375v2.359375c0 .734375.4375 1.21875 1.125 1.21875.34375 0 .71875-.15625.96875-.40625l.40625-.40625v.78125l.03125.015625c.46875-.1875.8125-.28125 1.28125-.421875zm0 0"/></g><g id="l"><path d="m.15625-3.734375c.046875-.03125.140625-.03125.25-.03125.265625 0 .34375.140625.34375.59375v2.328125c0 .53125-.109375.671875-.578125.703125v.140625h1.984375v-.140625c-.484375-.03125-.625-.15625-.625-.484375v-2.640625c.453125-.421875.65625-.53125.96875-.53125.46875 0 .6875.296875.6875.90625v1.96875c0 .578125-.125.75-.59375.78125v.140625h1.953125v-.140625c-.453125-.046875-.578125-.15625-.578125-.625v-2.140625c0-.875-.40625-1.40625-1.09375-1.40625-.4375 0-.734375.15625-1.359375.765625v-.75l-.078125-.015625c-.453125.171875-.765625.265625-1.28125.421875zm0 0"/></g><g id="m"><path d="m2.953125-2.9375-.03125-1.28125h-.109375l-.015625.015625c-.09375.0625-.09375.078125-.140625.078125s-.140625-.015625-.25-.0625c-.203125-.078125-.40625-.109375-.65625-.109375-.734375 0-1.265625.46875-1.265625 1.140625 0 .53125.296875.90625 1.09375 1.359375l.546875.3125c.328125.1875.484375.40625.484375.703125 0 .40625-.296875.671875-.78125.671875-.3125 0-.609375-.125-.78125-.328125-.203125-.234375-.28125-.453125-.40625-.984375h-.15625v1.453125h.125c.0625-.09375.109375-.109375.21875-.109375.078125 0 .21875.015625.421875.078125.265625.0625.515625.09375.6875.09375.71875 0 1.328125-.546875 1.328125-1.203125 0-.46875-.234375-.78125-.796875-1.109375l-1-.609375c-.265625-.140625-.40625-.375-.40625-.625 0-.375.28125-.640625.71875-.640625.53125 0 .8125.3125 1.03125 1.15625zm0 0"/></g><g id="n"><path d="m1.640625-4.3125-1.453125.515625v.140625l.078125-.015625c.109375-.015625.234375-.015625.3125-.015625.234375 0 .3125.140625.3125.5625v2.171875c0 .671875-.09375.78125-.734375.8125v.140625h2.21875v-.140625c-.625-.046875-.703125-.140625-.703125-.8125v-3.328125zm-.4375-2.09375c-.25 0-.46875.21875-.46875.484375s.203125.46875.46875.46875.484375-.203125.484375-.46875-.21875-.484375-.484375-.484375zm0 0"/></g><g id="o"><path d="m.078125-3.6875h.234375c.328125 0 .390625.09375.390625.53125v4.390625c0 .484375-.109375.578125-.65625.640625v.15625h2.265625v-.171875c-.703125 0-.828125-.109375-.828125-.703125v-1.46875c.328125.3125.5625.40625.953125.40625 1.109375 0 1.96875-1.046875 1.96875-2.40625 0-1.171875-.65625-2-1.5625-2-.53125 0-.9375.234375-1.359375.734375v-.71875l-.046875-.015625c-.515625.203125-.84375.3125-1.359375.484375zm1.40625.5625c0-.28125.53125-.625.96875-.625.6875 0 1.140625.71875 1.140625 1.796875 0 1.046875-.453125 1.75-1.125 1.75-.4375 0-.984375-.34375-.984375-.625zm0 0"/></g><g id="p"><path d="m1.171875-.9375c-.28125 0-.515625.25-.515625.53125s.234375.515625.5.515625c.296875 0 .546875-.234375.546875-.515625s-.25-.53125-.53125-.53125zm0 0"/></g><g id="q"><path d="m8.734375-6.203125h-1.859375v.171875c.484375.046875.65625.15625.65625.40625 0 .203125-.0625.4375-.15625.703125l-1.171875 3.171875-1.234375-3.1875c-.015625-.046875-.109375-.25-.109375-.28125-.09375-.203125-.140625-.375-.140625-.484375 0-.21875.21875-.3125.71875-.328125v-.171875h-2.5v.171875c.53125.015625.625.09375.9375.84375l.3125.765625-1 2.65625-1.34375-3.53125c-.078125-.171875-.109375-.328125-.109375-.4375 0-.203125.125-.265625.609375-.296875v-.171875h-2.296875v.171875c.484375.046875.625.21875.96875 1.09375l1.8125 5.046875h.140625l1.4375-3.96875 1.5 3.96875h.140625c.796875-2.453125.890625-2.71875 1.90625-5.46875.1875-.484375.28125-.578125.78125-.671875zm0 0"/></g><g id="r"><path d="m.296875-3.90625h.625v3.03125c0 .59375-.09375.71875-.625.734375v.140625h2.0625v-.140625c-.515625-.03125-.640625-.171875-.640625-.6875v-3.078125h.796875c.90625 0 .953125.03125.953125.515625v2.484375c0 .640625-.0625.71875-.640625.765625v.140625h2.0625v-.140625c-.53125-.046875-.640625-.171875-.640625-.765625v-2.453125c0-.21875 0-.421875.03125-.921875l-.046875-.03125c-.40625.0625-.6875.09375-1.0625.09375h-1.46875v-.40625c0-.40625.03125-.703125.078125-.859375.125-.40625.5-.6875.921875-.6875.265625 0 .4375.125.65625.4375.1875.265625.3125.359375.46875.359375.1875 0 .328125-.171875.328125-.375 0-.390625-.46875-.65625-1.1875-.65625-.703125 0-1.25.25-1.59375.703125-.28125.390625-.375.734375-.4375 1.484375h-.640625zm0 0"/></g><g id="s"><path d="m.171875-3.734375c.125-.03125.203125-.03125.3125-.03125.234375 0 .328125.140625.328125.59375v2.375c0 .5-.140625.640625-.65625.65625v.140625h2.078125v-.140625c-.5-.015625-.640625-.125-.640625-.484375v-2.640625c0-.03125.078125-.125.140625-.1875.234375-.21875.640625-.375.96875-.375.40625 0 .609375.328125.609375.984375v2.03125c0 .53125-.09375.640625-.625.671875v.140625h2.09375v-.140625c-.53125-.015625-.671875-.171875-.671875-.75v-2.359375c.28125-.40625.59375-.578125 1.015625-.578125.53125 0 .703125.25.703125 1.03125v1.984375c0 .53125-.078125.609375-.609375.671875v.140625h2.046875v-.140625l-.25-.015625c-.28125-.015625-.390625-.1875-.390625-.5625v-1.921875c0-1.109375-.375-1.671875-1.09375-1.671875-.546875 0-1.015625.25-1.53125.78125-.171875-.53125-.484375-.78125-.984375-.78125-.421875 0-.6875.125-1.453125.71875v-.703125l-.078125-.015625c-.46875.171875-.796875.28125-1.3125.421875zm0 0"/></g><g id="t"><path d="m5.359375-4.21875v.140625c.3125.0625.40625.125.40625.296875 0 .140625-.0625.359375-.15625.609375l-.84375 2.078125-.796875-2.09375c-.15625-.4375-.15625-.4375-.15625-.546875 0-.21875.109375-.28125.546875-.34375v-.140625h-1.90625v.140625c.34375.03125.46875.140625.65625.640625.0625.1875.125.359375.1875.53125l-.859375 1.859375-.921875-2.4375c-.046875-.09375-.0625-.1875-.0625-.28125 0-.203125.109375-.28125.4375-.3125v-.140625h-1.6875v.140625c.203125.015625.28125.109375.484375.59375l1.265625 3.203125c.125.28125.1875.40625.25.40625.046875 0 .125-.109375.234375-.359375l1.046875-2.25.859375 2.21875c.125.34375.171875.390625.21875.390625.0625 0 .109375-.078125.265625-.453125l1.296875-3.25c.171875-.390625.1875-.4375.375-.5v-.140625zm0 0"/></g><g id="u"><path d="m3.734375-1.46875c-.453125.65625-.796875.890625-1.328125.890625-.84375 0-1.453125-.75-1.453125-1.828125 0-.96875.515625-1.640625 1.28125-1.640625.328125 0 .453125.109375.546875.453125l.0625.203125c.078125.265625.234375.4375.4375.4375.25 0 .453125-.171875.453125-.390625 0-.53125-.65625-.96875-1.453125-.96875-.453125 0-.9375.1875-1.3125.53125-.46875.40625-.734375 1.046875-.734375 1.78125 0 1.21875.734375 2.09375 1.78125 2.09375.421875 0 .796875-.15625 1.140625-.4375.25-.234375.421875-.484375.703125-1.03125zm0 0"/></g><g id="v"><path d="m.0625-5.84375c.125 0 .203125-.015625.296875-.015625.3125 0 .40625.125.40625.578125v4.515625c0 .484375-.03125.515625-.703125.625v.140625h2.203125v-.140625l-.1875-.015625c-.375-.015625-.515625-.140625-.515625-.46875v-1.734375l1.3125 1.765625.015625.03125c.03125.03125.046875.0625.078125.078125.0625.09375.09375.15625.09375.203125 0 .078125-.078125.140625-.1875.140625h-.1875v.140625h2.046875v-.140625c-.40625-.03125-.703125-.203125-1.09375-.6875l-1.4375-1.8125.265625-.25c.671875-.625 1.25-1.0625 1.53125-1.125.140625-.046875.265625-.0625.421875-.0625h.078125v-.140625h-1.90625v.125c.359375.015625.46875.046875.46875.1875 0 .078125-.09375.203125-.21875.3125l-1.28125 1.140625v-3.9375l-.046875-.015625c-.359375.109375-.625.1875-1.171875.34375l-.28125.078125zm0 0"/></g><g id="w"><path d="m.171875-5.84375h.0625c.109375 0 .21875-.015625.296875-.015625.296875 0 .390625.125.390625.578125v4.46875c0 .5-.140625.625-.71875.671875v.140625h2.203125v-.140625c-.59375-.03125-.703125-.125-.703125-.640625v-5.609375l-.03125-.015625c-.484375.15625-.84375.25-1.5.421875zm0 0"/></g><g id="x"><path d="m4.453125-4.21875h-1.265625v.140625c.296875 0 .453125.078125.453125.234375 0 .03125-.015625.09375-.046875.15625l-.90625 2.59375-1.078125-2.375c-.046875-.125-.09375-.25-.09375-.359375 0-.171875.140625-.234375.546875-.25v-.140625h-1.9375v.125c.25.046875.40625.140625.484375.3125l1.0625 2.296875.03125.078125.140625.28125c.265625.46875.421875.8125.421875.953125s-.21875.71875-.375 1c-.140625.25-.34375.421875-.46875.421875-.0625 0-.140625-.015625-.234375-.0625-.1875-.0625-.34375-.09375-.5-.09375-.21875 0-.40625.1875-.40625.40625 0 .3125.296875.546875.6875.546875.640625 0 1.078125-.53125 1.59375-1.875l1.4375-3.828125c.125-.296875.234375-.390625.453125-.421875zm0 0"/></g><g id="y"><path d="m1.953125-3.359375v-1.828125c0-.671875.109375-.78125.828125-.84375v-.171875h-2.609375v.171875c.734375.0625.828125.171875.828125.84375v4.0625c0 .78125-.09375.90625-.828125.953125v.171875h2.609375v-.171875c-.703125-.0625-.828125-.1875-.828125-.84375v-1.9375h2.84375v1.828125c0 .78125-.09375.90625-.828125.953125v.171875h2.609375v-.171875c-.703125-.0625-.828125-.1875-.828125-.84375v-4.171875c0-.671875.109375-.78125.828125-.84375v-.171875h-2.609375v.171875c.734375.0625.828125.171875.828125.84375v1.828125zm0 0"/></g><g id="z"><path d="m2.890625-4.21875h-1.140625v-1.09375c0-.53125.171875-.828125.53125-.828125.1875 0 .328125.09375.5.359375.140625.25.25.34375.421875.34375.203125 0 .390625-.171875.390625-.390625 0-.328125-.421875-.578125-.984375-.578125-.578125 0-1.078125.25-1.3125.6875-.25.40625-.328125.75-.328125 1.5h-.765625v.296875h.765625v2.953125c0 .671875-.109375.796875-.78125.828125v.140625h2.4375v-.140625c-.765625-.03125-.875-.125-.875-.828125v-2.953125h1.140625zm0 0"/></g><g id="A"><path d="m2.734375-6.34375-1.6875.859375v.125c.109375-.046875.203125-.078125.25-.09375.171875-.0625.328125-.109375.421875-.109375.1875 0 .28125.140625.28125.4375v4.25c0 .3125-.078125.53125-.234375.609375-.140625.09375-.265625.109375-.65625.125v.140625h2.578125v-.140625c-.734375-.015625-.890625-.109375-.890625-.546875v-5.625zm0 0"/></g><g id="B"><path d="m2.375-6.3438c-.51562 0-.90625.17188-1.25.5-.54688.51562-.90625 1.5938-.90625 2.6875 0 1.0312.3125 2.125.75 2.6562.35938.40625.82812.625 1.375.625.48438 0 .875-.15625 1.2188-.48438.54688-.51562.90625-1.5938.90625-2.7344 0-1.9219-.85938-3.25-2.0938-3.25zm-.015625.25c.78125 0 1.2031 1.0625 1.2031 3.0156 0 1.9688-.40625 2.9688-1.2188 2.9688s-1.2188-1-1.2188-2.9531c0-1.9844.42188-3.0312 1.2344-3.0312z"/></g><g id="C"><path d="m4.484375-2.171875v-2.171875h-.203125c-.125.75-.28125.890625-1.03125.890625h-1.359375v-2.078125c0-.265625.046875-.3125.296875-.3125h1.265625c1.0625 0 1.265625.140625 1.4375.984375h.234375l-.03125-1.34375h-4.984375v.171875c.703125.0625.8125.1875.8125.84375v4.0625c0 .78125-.09375.90625-.8125.953125v.171875h2.625v-.171875c-.71875-.046875-.84375-.171875-.84375-.84375v-2.046875h1.359375c.75 0 .90625.140625 1.03125.890625zm0 0"/></g><g id="D"><path d="m5.59375-1.578125h-.265625c-.46875 1-.859375 1.234375-2.203125 1.234375h-.25c-.46875 0-.859375-.046875-.921875-.109375-.046875-.03125-.0625-.140625-.0625-.296875v-2.3125h1.4375c.765625 0 .90625.125 1.03125.890625h.21875v-2.171875h-.21875c-.0625.390625-.109375.53125-.203125.65625-.125.15625-.390625.234375-.828125.234375h-1.4375v-2.078125c0-.265625.046875-.3125.296875-.3125h1.265625c1.0625 0 1.265625.140625 1.4375.984375h.234375l-.03125-1.34375h-4.984375v.171875c.703125.0625.8125.1875.8125.84375v4.171875c0 .65625-.125.796875-.8125.84375v.171875h5.0625zm0 0"/></g><g id="E"><path d="m1.4375-6.390625-.046875-.015625c-.390625.140625-.65625.21875-1.09375.34375l-.265625.078125v.140625h.15625c.375 0 .453125.078125.453125.46875v4.875c0 .28125.796875.59375 1.546875.59375 1.25 0 2.203125-1.03125 2.203125-2.375 0-1.15625-.71875-2.03125-1.65625-2.03125-.5625 0-1.109375.34375-1.296875.796875zm0 3.375c0-.375.4375-.703125.921875-.703125.734375 0 1.203125.734375 1.203125 1.875 0 1.03125-.453125 1.640625-1.21875 1.640625-.484375 0-.90625-.21875-.90625-.453125zm0 0"/></g><g id="F"><path d="m.35938-2.4062v.59375h2.3125v-.59375z"/></g><g id="G"><path d="m2.375-5.8125v4.6875c0 .79688-.09375.90625-.875.95312v.17188h2.7344v-.17188c-.76562-.046875-.89062-.17188-.89062-.84375v-4.7969h.5c1.0625 0 1.2812.17188 1.4844 1.2031h.23438l-.0625-1.5938h-5.2812l-.0625 1.5938h.23438c.21875-1.0312.4375-1.2031 1.4844-1.2031z"/></g><g id="H"><path d="m2.7656-6.3438c-.6875.45312-.96875.70312-1.3281 1.125-.65625.82812-.98438 1.7656-.98438 2.8594 0 1.1875.34375 2.1094 1.1719 3.0625.375.45312.625.65625 1.1094.95312l.10938-.14062c-.75-.59375-1-.92188-1.2656-1.625-.21875-.625-.32812-1.3438-.32812-2.2812 0-.98438.125-1.75.375-2.3281.26562-.59375.54688-.92188 1.2188-1.4688z"/></g><g id="I"><path d="m4.4531-1.2812-.125-.046875c-.34375.53125-.46875.60938-.89062.60938h-2.2344l1.5781-1.6406c.82812-.875 1.1875-1.5938 1.1875-2.3125 0-.9375-.75-1.6719-1.7344-1.6719-.51562 0-1 .21875-1.3438.59375-.29688.3125-.4375.60938-.59375 1.2812l.1875.046875c.375-.92188.71875-1.2188 1.3594-1.2188.79688 0 1.3281.53125 1.3281 1.3125 0 .73438-.4375 1.6094-1.2188 2.4375l-1.6719 1.7812v.10938h3.6562z"/></g><g id="J"><path d="m1 1.328125c.65625-.328125 1.046875-.890625 1.046875-1.453125 0-.46875-.328125-.828125-.75-.828125-.328125 0-.546875.203125-.546875.515625s.203125.5.546875.5c.0625 0 .125-.015625.1875-.03125s.0625-.015625.078125-.015625c.0625 0 .125.0625.125.140625 0 .296875-.265625.640625-.765625.984375zm.28125-5.625c-.28125 0-.515625.234375-.515625.53125 0 .265625.234375.5.5.5.296875 0 .53125-.234375.53125-.5 0-.296875-.234375-.53125-.515625-.53125zm0 0"/></g><g id="K"><path d="m1.4375-3.09375c.546875 0 .765625.015625.984375.109375.59375.203125.953125.734375.953125 1.375 0 .796875-.53125 1.40625-1.234375 1.40625-.25 0-.4375-.0625-.78125-.296875-.28125-.171875-.4375-.234375-.59375-.234375-.21875 0-.359375.140625-.359375.328125 0 .328125.40625.53125 1.0625.53125.71875 0 1.453125-.234375 1.890625-.625.453125-.375.6875-.921875.6875-1.546875 0-.484375-.140625-.921875-.421875-1.21875-.1875-.203125-.359375-.3125-.78125-.5.65625-.4375.890625-.78125.890625-1.28125 0-.765625-.609375-1.296875-1.46875-1.296875-.46875 0-.875.171875-1.21875.46875-.28125.25-.421875.5-.625 1.0625l.140625.03125c.390625-.6875.8125-1 1.390625-1 .609375 0 1.03125.421875 1.03125 1.015625 0 .328125-.140625.671875-.375.90625-.28125.28125-.53125.421875-1.171875.640625zm0 0"/></g><g id="L"><path d="m5.375-1.625c-.15625.34375-.296875.5625-.4375.71875-.328125.375-.84375.546875-1.625.546875h-.625c-.6875 0-.796875-.0625-.796875-.390625v-4.4375c0-.65625.125-.796875.859375-.84375v-.171875h-2.640625v.171875c.703125.0625.8125.1875.8125.84375v4.171875c0 .65625-.125.796875-.8125.84375v.171875h5.046875l.453125-1.625zm0 0"/></g><g id="M"><path d="m4.4219-2.1719h-.95312v-4.1719h-.40625l-2.9531 4.1719v.60938h2.6406v1.5625h.71875v-1.5625h.95312zm-1.6875 0h-2.25l2.25-3.2031z"/></g><g id="N"><path d="m.359375 1.65625c.6875-.453125.96875-.6875 1.3125-1.125.671875-.8125 1-1.75 1-2.84375 0-1.203125-.34375-2.109375-1.171875-3.0625-.390625-.453125-.625-.65625-1.109375-.96875l-.125.15625c.75.59375 1.015625.921875 1.265625 1.625.234375.625.328125 1.34375.328125 2.28125 0 .96875-.109375 1.75-.375 2.3125-.25.59375-.53125.9375-1.21875 1.484375zm0 0"/></g><g id="O"><path d="m1.703125-5.46875h1.828125c.15625 0 .1875-.015625.21875-.078125l.359375-.84375-.09375-.0625c-.140625.203125-.234375.25-.421875.25h-1.96875l-1.015625 2.21875c-.015625.015625-.015625.03125-.015625.046875 0 .046875.046875.078125.125.078125.296875 0 .671875.0625 1.046875.1875 1.078125.34375 1.578125.921875 1.578125 1.859375 0 .890625-.5625 1.59375-1.296875 1.59375-.1875 0-.34375-.0625-.625-.265625-.3125-.21875-.515625-.3125-.71875-.3125-.265625 0-.40625.109375-.40625.34375 0 .359375.4375.578125 1.140625.578125.796875 0 1.46875-.25 1.9375-.71875.4375-.421875.625-.96875.625-1.671875 0-.671875-.171875-1.109375-.640625-1.578125-.421875-.40625-.953125-.625-2.0625-.828125zm0 0"/></g><g id="P"><path d="m1.8125-4.28125-.046875-.03125c-.5625.21875-.90625.34375-1.46875.5v.15625l.046875-.015625c.140625-.015625.28125-.015625.375-.015625.21875 0 .296875.15625.296875.5625v3.546875c0 .71875-.015625.953125-.125 1.140625-.0625.09375-.1875.15625-.3125.15625-.140625 0-.234375-.0625-.40625-.25-.15625-.21875-.296875-.3125-.4375-.3125-.21875 0-.390625.171875-.390625.375 0 .296875.375.515625.875.515625 1.03125 0 1.59375-.71875 1.59375-2.046875zm-.484375-2.125c-.25 0-.46875.21875-.46875.484375s.203125.46875.46875.46875c.28125 0 .484375-.203125.484375-.46875s-.203125-.484375-.484375-.484375zm0 0"/></g><g id="Q"><path d="m1.078125-1.015625c0 .703125-.125.8125-.90625.84375v.171875h2.78125v-.171875c-.765625-.03125-.921875-.171875-.921875-.84375v-4.171875c0-.6875.140625-.796875.921875-.84375v-.171875h-2.78125v.171875c.796875.046875.90625.15625.90625.84375zm0 0"/></g><g id="R"><path d="m3.375-3.984375c-.4375-.25-.71875-.34375-1.078125-.34375-1.171875 0-2.078125 1.0625-2.078125 2.40625 0 1.1875.625 2.015625 1.5 2.015625.546875 0 1.0625-.25 1.484375-.6875v1.75c0 .53125-.171875.671875-.84375.71875v.15625h2.21875v-.125c-.515625-.109375-.59375-.1875-.59375-.578125v-5.609375h-.109375zm-.171875 2.796875c0 .21875-.046875.34375-.140625.421875-.203125.171875-.515625.28125-.796875.28125-.296875 0-.546875-.09375-.734375-.28125-.296875-.265625-.5-.875-.5-1.5 0-1.09375.5-1.796875 1.296875-1.796875.578125 0 .875.3125.875.9375zm0 0"/></g><g id="S"><path d="m6.625-.17188c-.42188-.03125-.51562-.125-.84375-.82812l-2.3438-5.3125h-.1875l-1.9531 4.5938c-.59375 1.375-.70312 1.5156-1.1562 1.5469v.17188h1.8594v-.17188c-.45312 0-.64062-.125-.64062-.39062 0-.10938.03125-.25.078125-.35938l.42188-1.1094h2.4688l.375.90625c.10938.25.1875.5.1875.625 0 .23438-.17188.3125-.65625.32812v.17188h2.3906zm-4.5938-2.2344 1.0781-2.5781 1.0781 2.5781z"/></g><g id="T"><path d="m3.9219-1.2656-.17188-.03125c-.09375.46875-.15625.60938-.26562.76562-.14062.17188-.45312.25-.9375.25h-1.2969l2.5312-3.7969v-.14062h-3.25l-.03125 1.1094h.17188c.078125-.6875.21875-.82812.78125-.82812h1.2969l-2.5 3.7969v.14062h3.5312z"/></g><g id="U"><path d="m1.890625-2.734375c.25.03125.40625.03125.65625.03125.71875 0 1.234375-.09375 1.640625-.3125.5625-.296875.890625-.875.890625-1.5 0-.390625-.125-.75-.375-1.015625-.375-.40625-1.203125-.671875-2.078125-.671875h-2.46875v.171875c.6875.078125.78125.171875.78125.84375v4.0625c0 .78125-.078125.875-.78125.953125v.171875h2.625v-.171875c-.75-.03125-.890625-.171875-.890625-.84375zm0-2.8125c0-.25.0625-.3125.328125-.3125 1.265625 0 1.84375.4375 1.84375 1.40625 0 .90625-.5625 1.375-1.640625 1.375-.1875 0-.3125 0-.53125-.03125zm0 0"/></g><g id="V"><path d="m.15625-6.203125v.171875c.796875.046875.90625.15625.90625.84375v4.171875c0 .6875-.125.8125-.90625.84375v.171875h3.140625c.71875 0 1.390625-.203125 1.734375-.515625.34375-.296875.53125-.71875.53125-1.171875 0-.40625-.171875-.78125-.46875-1.0625-.28125-.25-.53125-.359375-1.140625-.515625.484375-.125.6875-.21875.90625-.40625.234375-.203125.375-.5625.375-.9375 0-1.046875-.828125-1.59375-2.453125-1.59375zm1.859375 3.140625c.90625 0 1.34375.046875 1.671875.1875.546875.234375.796875.609375.796875 1.203125 0 .5-.203125.859375-.578125 1.078125-.296875.171875-.6875.25-1.296875.25-.46875 0-.59375-.09375-.59375-.390625zm0-.375v-2.140625c0-.203125.0625-.28125.203125-.28125h.421875c1.078125 0 1.640625.453125 1.640625 1.28125 0 .734375-.5 1.140625-1.375 1.140625zm0 0"/></g><g id="W"><path d="m6.5781 1.4844c-1.0781-.015625-1.8281-.4375-2.5781-1.4219.625-.125.96875-.28125 1.4062-.65625.6875-.60938 1.0469-1.4688 1.0469-2.5156 0-1.875-1.2812-3.2344-3.0625-3.2344-1.7969 0-3.0781 1.3594-3.0781 3.2656 0 .90625.28125 1.6875.84375 2.2812.35938.39062.65625.57812 1.3281.8125l.4375.51562c.64062.73438 1.7812 1.1406 3.2656 1.1406.14062 0 .21875 0 .32812-.015625h.0625zm-3.1719-7.4844c.40625 0 .84375.17188 1.1719.46875.5.45312.79688 1.3438.79688 2.4062 0 .9375-.26562 1.8906-.64062 2.3125-.34375.39062-.82812.60938-1.3438.60938-.45312 0-.875-.15625-1.2031-.46875-.5-.4375-.79688-1.375-.79688-2.4688 0-.90625.26562-1.8125.65625-2.25.375-.40625.82812-.60938 1.3594-.60938z"/></g><g id="X"><path d="m2.7188-3.4844c.92188-.48438 1.25-.89062 1.25-1.5156 0-.78125-.67188-1.3438-1.6094-1.3438-1.0156 0-1.7812.64062-1.7812 1.4844 0 .60938.1875.89062 1.1719 1.75-1.0156.76562-1.2188 1.0625-1.2188 1.6875 0 .92188.73438 1.5469 1.7969 1.5469 1.125 0 1.8438-.60938 1.8438-1.5781 0-.71875-.3125-1.1875-1.4531-2.0312zm-.17188.96875c.6875.48438.90625.82812.90625 1.3594 0 .60938-.42188 1.0312-1.0312 1.0312-.70312 0-1.1875-.54688-1.1875-1.3594 0-.60938.20312-1 .75-1.4375zm-.09375-1.125c-.84375-.54688-1.1719-.98438-1.1719-1.5 0-.54688.42188-.9375 1-.9375.64062 0 1.0469.42188 1.0469 1.0625 0 .53125-.26562.95312-.79688 1.3125-.046875.03125-.046875.03125-.078125.0625z"/></g><g id="Y"><path d="m6.265625-3.484375c-1.046875 0-2.0625 1.109375-2.0625 2.28125 0 .71875.453125 1.203125 1.125 1.203125.421875 0 .78125-.15625 1.109375-.484375.484375-.5.796875-1.265625.796875-1.984375 0-.640625-.359375-1.015625-.96875-1.015625zm.078125.3125c.34375 0 .65625.328125.65625.75 0 .53125-.234375 1.171875-.59375 1.609375-.296875.375-.578125.53125-.90625.53125-.34375 0-.578125-.25-.578125-.59375 0-.5.265625-1.265625.609375-1.765625.25-.375.515625-.53125.8125-.53125zm-.40625-3.171875h-.359375c-.5.484375-.875.640625-1.46875.640625-.375 0-.578125-.0625-.8125-.25-.234375-.203125-.359375-.25-.65625-.25-1.0625 0-2.0625 1.109375-2.0625 2.296875 0 .65625.484375 1.203125 1.09375 1.203125.40625 0 .828125-.1875 1.140625-.515625.484375-.5.78125-1.25.78125-1.921875 0-.140625-.015625-.25-.0625-.421875.171875.0625.34375.09375.609375.09375.421875 0 .65625-.0625 1.03125-.28125l-3.28125 5.875h.4375zm-2.65625.71875c.0625.1875.078125.328125.078125.453125 0 1.0625-.765625 2.140625-1.515625 2.140625-.328125 0-.5625-.234375-.5625-.5625 0-.40625.1875-1.03125.4375-1.5.28125-.515625.640625-.828125.921875-.828125.046875 0 .0625 0 .125.046875.125.125.25.171875.515625.25zm0 0"/></g><g id="Z"><path d="m0-2.3438v.45312h4.6875v-.45312z"/></g><g id="aa"><path d="m5.734375.109375v-4.9375c0-.5625.09375-.90625.28125-1.03125.125-.09375.25-.125.609375-.171875v-.171875h-2.203125v.171875c.359375.03125.484375.0625.625.15625.1875.125.28125.46875.28125 1.046875v3.15625l-3.609375-4.53125h-1.609375v.171875c.40625 0 .53125.078125.90625.515625v4.140625c0 .96875-.125 1.140625-.90625 1.203125v.171875h2.203125v-.171875c-.71875-.046875-.875-.265625-.875-1.203125v-3.671875l4.140625 5.15625zm0 0"/></g><g id="ab"><path d="m.625-5.828125c-.234375 0-.453125.21875-.453125.453125 0 .265625.1875.46875.453125.46875.25 0 .46875-.203125.46875-.453125s-.21875-.46875-.46875-.46875zm1.859375 0c-.234375 0-.453125.21875-.453125.453125 0 .265625.203125.46875.453125.46875.265625 0 .484375-.203125.484375-.453125s-.21875-.46875-.484375-.46875zm0 0"/></g><g id="ac"><path d="m6.59375-6.203125h-2.0625v.171875c.5.015625.65625.09375.65625.3125 0 .09375-.046875.203125-.140625.34375l-1.328125 2.125-1.390625-2.078125c-.109375-.15625-.15625-.3125-.15625-.421875 0-.171875.125-.25.421875-.265625.046875 0 .140625 0 .234375-.015625v-.171875h-2.625v.171875c.453125.015625.578125.15625 1.515625 1.46875l1.234375 1.8125v1.625c0 .8125-.09375.90625-.953125.953125v.171875h2.875v-.171875c-.828125-.03125-.96875-.140625-.96875-.84375v-1.828125l1.390625-2.109375c.578125-.828125.8125-1.03125 1.296875-1.078125zm0 0"/></g><g id="ad"><path d="m1.5625-2.65625h2.03125c.703125 0 1.015625.34375 1.015625 1.109375l-.015625.546875c0 .375.078125.75.1875 1h.953125v-.1875c-.296875-.203125-.359375-.421875-.375-1.25-.015625-1.015625-.171875-1.3125-.84375-1.59375.703125-.34375.984375-.78125.984375-1.46875 0-1.0625-.671875-1.65625-1.875-1.65625h-2.84375v6.15625h.78125zm0-.6875v-2.109375h1.90625c.4375 0 .6875.0625.890625.234375s.3125.453125.3125.828125c0 .71875-.375 1.046875-1.203125 1.046875zm0 0"/></g><g id="ae"><path d="m1.4531-6.1562h-.78125v6.1562h3.8281v-.6875h-3.0469z"/></g><g id="af"><path d="m5.03125-4.34375c-.015625-1.203125-.84375-1.90625-2.25-1.90625-1.359375 0-2.1875.6875-2.1875 1.796875 0 .75.390625 1.234375 1.203125 1.4375l1.53125.40625c.765625.203125 1.125.515625 1.125 1 0 .328125-.171875.671875-.4375.84375-.25.171875-.625.265625-1.125.265625-.671875 0-1.125-.15625-1.421875-.515625-.234375-.265625-.328125-.5625-.328125-.9375h-.734375c0 .5625.109375.9375.359375 1.265625.421875.578125 1.125.875 2.0625.875.734375 0 1.34375-.15625 1.734375-.46875.421875-.328125.671875-.875.671875-1.40625 0-.765625-.46875-1.3125-1.296875-1.546875l-1.546875-.40625c-.75-.203125-1.015625-.4375-1.015625-.921875 0-.625.546875-1.03125 1.375-1.03125.984375 0 1.53125.453125 1.53125 1.25zm0 0"/></g><g id="ag"><path d="m1.5469-2.7969h2.9375v-.70312h-2.9375v-1.9531h3.3438v-.70312h-4.125v6.1562h.78125z"/></g><g id="ah"><path d="m6.1875.015625-.79688-.65625c.57812-.64062.875-1.4375.875-2.4062 0-1.9062-1.2031-3.2031-2.9688-3.2031-1.7812 0-2.9688 1.2969-2.9688 3.2188s1.1875 3.2188 2.9688 3.2188c.59375 0 1.1094-.125 1.6094-.42188l.875.73438zm-2.125-1.75-.39062.48438.625.51562c-.35938.17188-.64062.23438-1.0156.23438-1.3125 0-2.1719-1.0156-2.1719-2.5312s.875-2.5312 2.1875-2.5312c1.2969 0 2.1719 1.0156 2.1719 2.5312 0 .78125-.20312 1.4062-.65625 1.9219z"/></g><g id="ai"><path d="m4-1.8438.625 1.8438h.89062l-2.1719-6.1562h-1l-2.2031 6.1562h.84375l.64062-1.8438zm-.21875-.65625h-1.9531l1-2.8125z"/></g><g id="aj"><path d="m1.5469-2.6094h1.9375c.48438 0 .85938-.14062 1.1875-.4375.375-.34375.53125-.73438.53125-1.2969 0-1.1562-.6875-1.8125-1.8906-1.8125h-2.5469v6.1562h.78125zm0-.6875v-2.1562h1.6406c.75 0 1.2031.40625 1.2031 1.0781s-.45312 1.0781-1.2031 1.0781z"/></g><g id="ak"><path d="m1.6406-6.1562h-.79688v6.1562h.79688z"/></g><g id="al"><path d="m.671875 0h2.765625c.59375 0 1.015625-.15625 1.34375-.515625.3125-.3125.46875-.765625.46875-1.234375 0-.75-.328125-1.1875-1.109375-1.5.546875-.265625.84375-.71875.84375-1.34375 0-.4375-.171875-.84375-.484375-1.125-.328125-.296875-.75-.4375-1.34375-.4375h-2.484375zm.78125-3.5v-1.953125h1.515625c.4375 0 .6875.046875.890625.21875.21875.15625.34375.421875.34375.75s-.125.59375-.34375.765625c-.203125.15625-.453125.21875-.890625.21875zm0 2.8125v-2.125h1.90625c.390625 0 .640625.09375.828125.296875s.28125.46875.28125.765625-.09375.5625-.28125.765625-.4375.296875-.828125.296875zm0 0"/></g><g id="am"><path d="m2.015625-2.578125c.6875-.359375.921875-.65625.921875-1.125 0-.578125-.5-.984375-1.1875-.984375-.765625 0-1.3125.46875-1.3125 1.09375 0 .453125.125.65625.859375 1.296875-.75.5625-.90625.78125-.90625 1.25 0 .671875.546875 1.140625 1.328125 1.140625.828125 0 1.375-.453125 1.375-1.171875 0-.53125-.25-.875-1.078125-1.5zm-.125.71875c.5.359375.671875.609375.671875 1 0 .453125-.3125.765625-.765625.765625-.53125 0-.875-.40625-.875-1.015625 0-.4375.140625-.734375.546875-1.0625zm-.078125-.84375c-.625-.390625-.875-.71875-.875-1.109375 0-.40625.3125-.6875.75-.6875.484375 0 .78125.3125.78125.78125 0 .40625-.203125.71875-.59375.984375-.03125.015625-.03125.015625-.0625.03125zm0 0"/></g><g id="an"><path d="m2.015625-4.6875-1.25.625v.09375c.09375-.03125.15625-.0625.1875-.0625.125-.0625.25-.078125.3125-.078125.15625 0 .21875.09375.21875.328125v3.140625c0 .21875-.0625.390625-.171875.453125s-.203125.078125-.5.078125v.109375h1.921875v-.109375c-.546875 0-.65625-.078125-.65625-.40625v-4.15625zm0 0"/></g><g id="ao"><path d="m1.765625-4.6875c-.390625 0-.671875.109375-.9375.359375-.390625.390625-.65625 1.1875-.65625 2 0 .75.21875 1.5625.546875 1.953125.265625.3125.609375.46875 1.015625.46875.359375 0 .65625-.109375.90625-.359375.390625-.375.65625-1.1875.65625-2.03125 0-1.421875-.625-2.390625-1.53125-2.390625zm-.03125.171875c.59375 0 .90625.796875.90625 2.234375 0 1.453125-.3125 2.203125-.90625 2.203125s-.90625-.75-.90625-2.1875c0-1.46875.3125-2.25.90625-2.25zm0 0"/></g></defs><path d="m146.44 1.9752c-4.1612 2.5958-3.019 8.1021-4.7527 10.279 1.1719-2.0181-7.8281 2.5322-8.0145.63863-3.724 4.0339 3.1862-7.4376-3.3805-3.5244.14806-2.6503-3.611 1.8745-4.7266 3.541-3.4479.84512-1.8533-5.3558-2.8856-2.9202.66199-3.4838-3.3263 5.2464-6.0964 2.9629-3.9547 2.221-5.3964-8.7639-7.3272-6.8375-1.4624-1.9484-2.9611 7.9464-5.1764 7.1532-2.8482 2.2968-4.6807-4.8248-6.5177-1.7379-.78904-3.614-5.8869.30351-8.2828-2.8988-2.1254-1.7569-8.4812 12.674-8.0252 1.0505-6.1689 1.7362-8.4845 6.1585-12.521 2.6222-3.2411-3.3268-6.9474-7.9433-7.2822-4.3446-6.7421-2.0328-6.0038 4.6122-10.371 1.6441-.9714 1.9087-5.0856-4.1711-7.9872-1.8827-2.6088-1.9172-3.4871 5.2115-4.5972 3.0211-3.435 1.2843-4.9678-6.8353-6.6673-5.2219-.60272-1.6668-.63651 5.6898-4.6126 4.3648-2.2374 1.4385-3.8807-5.1818-7.3011-4.5358-1.8016 1.4855-4.3894 5.665-4.9663 6.7556-1.2561-1.4912-.45411-3.4044-3.6974-4.5809-3.8236 3.1969-5.5651 3.3297-6.475 6.6938 1.4707 79.264-7.7823 157.95-.23739 234.76.9099 3.3642 2.8889 6.6672 6.7124 9.8644 3.2434-1.1765 5.4563-2.5152 6.7124-4.0063.57688 1.0906.29582 1.9048 2.0974 3.3902 3.4203.64608 4.4751 2.8765 6.7124 4.315 3.976-1.325 4.9571-2.9567 5.5598-4.6236 1.6995 1.6134 4.43 3.0319 7.865 4.3161 1.1101-2.1904 2.9498-4.2484 5.5586-6.1656 2.9017 2.2884 5.741 4.5644 6.7124 6.473 4.3669-2.9682 8.6181-5.9822 15.361-8.015.33473 3.5986.78703 7.1506 3.2535 9.8656 1.6222-3.1336 3.9148-6.0542 10.171-7.7076 5.8402 2.3965 8.1247 5.4439 11.324 8.3236 2.396-3.2022 4.1951-6.5582 4.9842-10.172 1.8371 3.087 3.8629 6.0249 6.7112 8.3213 2.2152-.79322 3.5195-2.9815 4.9818-4.9299 1.9309 1.9263 4.4883 3.9434 8.443 6.1644 2.7701-2.2834 5.6438-4.5312 4.9818-8.015 1.0759 2.5387 4.3887 4.3233 8.443 5.8569-3.2813-3.6262-4.6103-7.3383-4.8203-11.098 6.5668 3.9132 9.3302 7.9877 13.054 12.021.18636-1.8937-.18841-3.8377-1.3603-5.8558 1.7337 2.1766 4.2792 4.4944 8.4407 7.0903-.20335-2.3953 1.8174-4.0191 4.9841-5.242 1.1674 2.9303 5.4294 5.7618 8.4406 8.6323 2.377-3.0245 5.2419-6.0788 4.9842-8.9385 1.3627 2.264 3.9094 4.188 8.4406 5.5471 3.1299-4.2568 1.6733-9.7292 1.1264-14.959.68306-.008.66396.57721 1.3472.57098 2.5974 4.1881 5.8893 7.7869 10.951 11.923 3.2798-1.5339 6.2693-3.2715 6.7124-6.7829 2.8388.0208 5.9596-.42923 6.7112 3.0852 5.7819-1.6567 8.3891-2.1515 10.74-5.8166 1.453-.0164 2.1152-1.4042 3.5693-1.4209 2.0927 3.5597 3.7031 5.3172 4.8833 9.0846.51624-8.1093 1.074-16.323 1.5312-24.585-4.1462-68.655 5.1528-136.88.005-204.54-.45796-8.2884-1.0194-16.527-1.5372-24.662-1.1801 3.7675-4.0535 11.151-6.4916 3.5244-1.454-.0167-1.0528 7.4973-2.5057 7.4808-3.2329-4.6435-4.3318-12.627-9.8092-3.7962-.75162 3.5144-6.4692 4.2823-7.0958-2.2768-.44311-3.5113-3.4207 5.6873-6.7005 4.1535-5.0616 4.1364-3.1428-8.7828-5.7403-4.5951 4.2789-12.689-5.8876 6.1586-6.57 6.1525.54685-5.2305-1.663-.99954-4.793-5.2563-4.5309 1.3592-3.4125-6.4187-4.7752-4.1547.25779-2.8597-2.327 2.038-4.704-.98645l-2.9615-3.9933c-3.011 2.8706-3.4001-.3628-4.5675 2.5676-3.1667-1.2229-4.7658 6.1671-6.1723-3.1362z" fill="#fffff0" stroke="#c8c8c8"/><g transform="translate(-304.38 -106.73)"><use x="330.02017" xlink:href="#q" y="141.51691"/><use x="338.11862" xlink:href="#a" y="141.51691"/><use x="347.43542" xlink:href="#r" y="141.51691"/><use x="352.64685" xlink:href="#l" y="141.51691"/><use x="357.3334" xlink:href="#c" y="141.51691"/><use x="367.16589" xlink:href="#i" y="141.51691"/><use x="369.77161" xlink:href="#j" y="141.51691"/><use x="374.45816" xlink:href="#e" y="141.51691"/><use x="378.61981" xlink:href="#i" y="141.51691"/><use x="386.38074" xlink:href="#i" y="141.51691"/><use x="388.98645" xlink:href="#j" y="141.51691"/><use x="393.673" xlink:href="#a" y="141.51691"/><use x="402.99011" xlink:href="#C" y="141.51691"/><use x="408.20154" xlink:href="#C" y="141.51691"/><use x="412.71939" xlink:href="#S" y="141.51691"/><use x="419.48676" xlink:href="#F" y="141.51691"/><use x="422.608" xlink:href="#E" y="141.51691"/><use x="427.29453" xlink:href="#e" y="141.51691"/><use x="431.45618" xlink:href="#m" y="141.51691"/><use x="435.10233" xlink:href="#a" y="141.51691"/><use x="439.26398" xlink:href="#c" y="141.51691"/><use x="449.09631" xlink:href="#b" y="141.51691"/><use x="452.21756" xlink:href="#e" y="141.51691"/><use x="456.37921" xlink:href="#l" y="141.51691"/><use x="461.06577" xlink:href="#c" y="141.51691"/><use x="465.75229" xlink:href="#h" y="141.51691"/><use x="470.43884" xlink:href="#s" y="141.51691"/><use x="477.73111" xlink:href="#n" y="141.51691"/><use x="480.33682" xlink:href="#T" y="141.51691"/><use x="484.49847" xlink:href="#a" y="141.51691"/><use x="488.66013" xlink:href="#c" y="141.51691"/><use x="498.5018" xlink:href="#w" y="141.51691"/><use x="501.10751" xlink:href="#h" y="141.51691"/><use x="505.79407" xlink:href="#u" y="141.51691"/><use x="509.95572" xlink:href="#e" y="141.51691"/><use x="514.11737" xlink:href="#w" y="141.51691"/><use x="316.68576" xlink:href="#m" y="152.29581"/><use x="320.33191" xlink:href="#a" y="152.29581"/><use x="324.49356" xlink:href="#e" y="152.29581"/><use x="328.65521" xlink:href="#b" y="152.29581"/><use x="331.77646" xlink:href="#u" y="152.29581"/><use x="335.93811" xlink:href="#j" y="152.29581"/><use x="343.86386" xlink:href="#ag" y="152.29581"/><use x="349.0181" xlink:href="#ad" y="152.29581"/><use x="355.1087" xlink:href="#ae" y="152.29581"/><use x="359.79898" xlink:href="#af" y="152.29581"/><use x="368.66388" xlink:href="#c" y="152.29581"/><use x="373.3504" xlink:href="#h" y="152.29581"/><use x="378.03696" xlink:href="#a" y="152.29581"/><use x="382.19861" xlink:href="#m" y="152.29581"/><use x="389.08807" xlink:href="#l" y="152.29581"/><use x="393.77463" xlink:href="#h" y="152.29581"/><use x="398.46118" xlink:href="#i" y="152.29581"/><use x="404.30057" xlink:href="#P" y="152.29581"/><use x="406.90628" xlink:href="#k" y="152.29581"/><use x="411.59283" xlink:href="#m" y="152.29581"/><use x="415.23898" xlink:href="#i" y="152.29581"/><use x="421.08771" xlink:href="#r" y="152.29581"/><use x="426.29913" xlink:href="#l" y="152.29581"/><use x="430.98569" xlink:href="#c" y="152.29581"/><use x="438.90607" xlink:href="#E" y="152.29581"/><use x="443.59262" xlink:href="#a" y="152.29581"/><use x="447.75427" xlink:href="#i" y="152.29581"/><use x="450.35999" xlink:href="#i" y="152.29581"/><use x="452.9657" xlink:href="#a" y="152.29581"/><use x="457.12735" xlink:href="#b" y="152.29581"/><use x="463.49161" xlink:href="#m" y="152.29581"/><use x="467.13773" xlink:href="#h" y="152.29581"/><use x="471.82428" xlink:href="#w" y="152.29581"/><use x="474.42999" xlink:href="#k" y="152.29581"/><use x="479.11655" xlink:href="#i" y="152.29581"/><use x="481.72226" xlink:href="#n" y="152.29581"/><use x="484.328" xlink:href="#h" y="152.29581"/><use x="489.01453" xlink:href="#l" y="152.29581"/><use x="493.70108" xlink:href="#m" y="152.29581"/><use x="500.58066" xlink:href="#i" y="152.29581"/><use x="503.18637" xlink:href="#j" y="152.29581"/><use x="507.87292" xlink:href="#e" y="152.29581"/><use x="512.03455" xlink:href="#l" y="152.29581"/><use x="316.68576" xlink:href="#i" y="163.07471"/><use x="319.2915" xlink:href="#j" y="163.07471"/><use x="323.97803" xlink:href="#a" y="163.07471"/><use x="331.40179" xlink:href="#h" y="163.07471"/><use x="336.08835" xlink:href="#E" y="163.07471"/><use x="340.77487" xlink:href="#P" y="163.07471"/><use x="343.38062" xlink:href="#a" y="163.07471"/><use x="347.54227" xlink:href="#u" y="163.07471"/><use x="351.70392" xlink:href="#i" y="163.07471"/><use x="354.30963" xlink:href="#n" y="163.07471"/><use x="356.68069" xlink:href="#f" y="163.07471"/><use x="361.22641" xlink:href="#a" y="163.07471"/><use x="365.38806" xlink:href="#F" y="163.07471"/><use x="368.50928" xlink:href="#g" y="163.07471"/><use x="373.19583" xlink:href="#k" y="163.07471"/><use x="377.88239" xlink:href="#n" y="163.07471"/><use x="380.4881" xlink:href="#c" y="163.07471"/><use x="385.17465" xlink:href="#a" y="163.07471"/><use x="389.3363" xlink:href="#c" y="163.07471"/><use x="397.28577" xlink:href="#ad" y="163.07471"/><use x="403.37637" xlink:href="#ae" y="163.07471"/><use x="408.06665" xlink:href="#af" y="163.07471"/><use x="416.95447" xlink:href="#e" y="163.07471"/><use x="421.11612" xlink:href="#w" y="163.07471"/><use x="423.72183" xlink:href="#g" y="163.07471"/><use x="428.40839" xlink:href="#h" y="163.07471"/><use x="433.09494" xlink:href="#b" y="163.07471"/><use x="436.21616" xlink:href="#n" y="163.07471"/><use x="438.8219" xlink:href="#i" y="163.07471"/><use x="441.42761" xlink:href="#j" y="163.07471"/><use x="446.11417" xlink:href="#s" y="163.07471"/><use x="456.66815" xlink:href="#h" y="163.07471"/><use x="461.35468" xlink:href="#l" y="163.07471"/><use x="469.30289" xlink:href="#i" y="163.07471"/><use x="471.9086" xlink:href="#j" y="163.07471"/><use x="476.59515" xlink:href="#a" y="163.07471"/><use x="484.01892" xlink:href="#f" y="163.07471"/><use x="488.47128" xlink:href="#e" y="163.07471"/><use x="492.63293" xlink:href="#m" y="163.07471"/><use x="496.27908" xlink:href="#i" y="163.07471"/><use x="502.14664" xlink:href="#s" y="163.07471"/><use x="509.4389" xlink:href="#e" y="163.07471"/><use x="513.60059" xlink:href="#F" y="163.07471"/><use x="316.68646" xlink:href="#P" y="173.854"/><use x="319.29218" xlink:href="#h" y="173.854"/><use x="323.97873" xlink:href="#b" y="173.854"/><use x="327.09998" xlink:href="#n" y="173.854"/><use x="329.70569" xlink:href="#i" y="173.854"/><use x="332.3114" xlink:href="#x" y="173.854"/><use x="339.69742" xlink:href="#h" y="173.854"/><use x="344.38397" xlink:href="#z" y="173.854"/><use x="350.19507" xlink:href="#i" y="173.854"/><use x="352.80078" xlink:href="#j" y="173.854"/><use x="357.48734" xlink:href="#a" y="173.854"/><use x="364.34976" xlink:href="#ah" y="173.854"/><use x="370.91278" xlink:href="#ai" y="173.854"/><use x="376.53943" xlink:href="#aj" y="173.854"/><use x="382.16605" xlink:href="#ae" y="173.854"/><use x="386.85632" xlink:href="#ak" y="173.854"/><use x="389.20145" xlink:href="#al" y="173.854"/><use x="397.52438" xlink:href="#n" y="173.854"/><use x="400.1301" xlink:href="#l" y="173.854"/><use x="404.81662" xlink:href="#m" y="173.854"/><use x="408.46277" xlink:href="#i" y="173.854"/><use x="411.06848" xlink:href="#e" y="173.854"/><use x="415.23013" xlink:href="#l" y="173.854"/><use x="419.91669" xlink:href="#u" y="173.854"/><use x="424.07834" xlink:href="#a" y="173.854"/><use x="428.23999" xlink:href="#m" y="173.854"/><use x="431.88611" xlink:href="#d" y="173.854"/><use x="437.01343" xlink:href="#n" y="173.854"/><use x="439.61914" xlink:href="#i" y="173.854"/><use x="444.92438" xlink:href="#e" y="173.854"/><use x="449.08603" xlink:href="#w" y="173.854"/><use x="451.69174" xlink:href="#m" y="173.854"/><use x="455.33789" xlink:href="#h" y="173.854"/><use x="462.71423" xlink:href="#v" y="173.854"/><use x="467.30722" xlink:href="#a" y="173.854"/><use x="471.46887" xlink:href="#a" y="173.854"/><use x="475.63052" xlink:href="#o" y="173.854"/><use x="480.31705" xlink:href="#m" y="173.854"/><use x="486.66272" xlink:href="#n" y="173.854"/><use x="489.26843" xlink:href="#s" y="173.854"/><use x="496.5607" xlink:href="#o" y="173.854"/><use x="501.24722" xlink:href="#b" y="173.854"/><use x="504.36847" xlink:href="#h" y="173.854"/><use x="508.91425" xlink:href="#f" y="173.854"/><use x="513.60077" xlink:href="#F" y="173.854"/><use x="316.68646" xlink:href="#n" y="184.6329"/><use x="319.29218" xlink:href="#l" y="184.6329"/><use x="323.97873" xlink:href="#g" y="184.6329"/><use x="330.56812" xlink:href="#n" y="184.6329"/><use x="333.17383" xlink:href="#i" y="184.6329"/><use x="335.77954" xlink:href="#m" y="184.6329"/><use x="341.31891" xlink:href="#u" y="184.6329"/><use x="345.48056" xlink:href="#k" y="184.6329"/><use x="350.16708" xlink:href="#b" y="184.6329"/><use x="353.28833" xlink:href="#b" y="184.6329"/><use x="356.40958" xlink:href="#a" y="184.6329"/><use x="360.57123" xlink:href="#l" y="184.6329"/><use x="365.25775" xlink:href="#i" y="184.6329"/><use x="369.76617" xlink:href="#E" y="184.6329"/><use x="374.4527" xlink:href="#a" y="184.6329"/><use x="378.61435" xlink:href="#m" y="184.6329"/><use x="382.2605" xlink:href="#i" y="184.6329"/><use x="386.76889" xlink:href="#m" y="184.6329"/><use x="390.41504" xlink:href="#h" y="184.6329"/><use x="395.10156" xlink:href="#w" y="184.6329"/><use x="397.70731" xlink:href="#k" y="184.6329"/><use x="402.39383" xlink:href="#i" y="184.6329"/><use x="404.99954" xlink:href="#n" y="184.6329"/><use x="407.60529" xlink:href="#h" y="184.6329"/><use x="412.29181" xlink:href="#l" y="184.6329"/><use x="418.87161" xlink:href="#z" y="184.6329"/><use x="421.99286" xlink:href="#h" y="184.6329"/><use x="426.67941" xlink:href="#b" y="184.6329"/><use x="431.70328" xlink:href="#i" y="184.6329"/><use x="434.30899" xlink:href="#j" y="184.6329"/><use x="438.99554" xlink:href="#a" y="184.6329"/><use x="445.05994" xlink:href="#u" y="184.6329"/><use x="449.22159" xlink:href="#h" y="184.6329"/><use x="453.90814" xlink:href="#s" y="184.6329"/><use x="461.20041" xlink:href="#o" y="184.6329"/><use x="465.88693" xlink:href="#w" y="184.6329"/><use x="468.49268" xlink:href="#a" y="184.6329"/><use x="472.65433" xlink:href="#i" y="184.6329"/><use x="475.26004" xlink:href="#a" y="184.6329"/><use x="481.32437" xlink:href="#u" y="184.6329"/><use x="485.48602" xlink:href="#h" y="184.6329"/><use x="490.17258" xlink:href="#s" y="184.6329"/><use x="497.46481" xlink:href="#o" y="184.6329"/><use x="502.15137" xlink:href="#k" y="184.6329"/><use x="506.83792" xlink:href="#i" y="184.6329"/><use x="509.44363" xlink:href="#e" y="184.6329"/><use x="513.60529" xlink:href="#F" y="184.6329"/><use x="316.68646" xlink:href="#i" y="195.4118"/><use x="319.29218" xlink:href="#n" y="195.4118"/><use x="321.89792" xlink:href="#h" y="195.4118"/><use x="326.58444" xlink:href="#l" y="195.4118"/><use x="331.271" xlink:href="#e" y="195.4118"/><use x="335.43265" xlink:href="#w" y="195.4118"/><use x="340.35327" xlink:href="#E" y="195.4118"/><use x="344.85248" xlink:href="#k" y="195.4118"/><use x="349.53903" xlink:href="#c" y="195.4118"/><use x="354.22556" xlink:href="#g" y="195.4118"/><use x="358.91211" xlink:href="#a" y="195.4118"/><use x="363.07376" xlink:href="#i" y="195.4118"/><use x="367.99466" xlink:href="#h" y="195.4118"/><use x="372.68121" xlink:href="#z" y="195.4118"/><use x="378.11771" xlink:href="#A" y="195.4118"/><use x="382.80426" xlink:href="#B" y="195.4118"/><use x="387.49237" xlink:href="#am" y="192.00948"/><use x="393.74509" xlink:href="#C" y="195.4118"/><use x="398.95654" xlink:href="#D" y="195.4118"/><use x="404.6835" xlink:href="#m" y="195.4118"/><use x="410.64471" xlink:href="#i" y="195.4118"/><use x="413.25043" xlink:href="#j" y="195.4118"/><use x="417.93698" xlink:href="#e" y="195.4118"/><use x="422.09863" xlink:href="#i" y="195.4118"/><use x="427.01935" xlink:href="#t" y="195.4118"/><use x="433.78671" xlink:href="#a" y="195.4118"/><use x="440.26349" xlink:href="#e" y="195.4118"/><use x="444.42514" xlink:href="#m" y="195.4118"/><use x="448.07129" xlink:href="#m" y="195.4118"/><use x="451.71741" xlink:href="#n" y="195.4118"/><use x="454.32315" xlink:href="#g" y="195.4118"/><use x="459.00967" xlink:href="#l" y="195.4118"/><use x="463.69623" xlink:href="#a" y="195.4118"/><use x="467.85788" xlink:href="#c" y="195.4118"/><use x="474.85962" xlink:href="#i" y="195.4118"/><use x="477.46533" xlink:href="#h" y="195.4118"/><use x="484.46701" xlink:href="#i" y="195.4118"/><use x="487.07272" xlink:href="#j" y="195.4118"/><use x="491.75928" xlink:href="#a" y="195.4118"/><use x="498.23615" xlink:href="#b" y="195.4118"/><use x="501.35739" xlink:href="#k" y="195.4118"/><use x="506.04395" xlink:href="#l" y="195.4118"/><use x="510.7305" xlink:href="#m" y="195.4118"/><use x="514.37665" xlink:href="#p" y="195.4118"/><use x="316.68649" xlink:href="#q" y="206.19112"/><use x="325.15994" xlink:href="#n" y="206.19112"/><use x="327.76566" xlink:href="#i" y="206.19112"/><use x="330.37137" xlink:href="#j" y="206.19112"/><use x="337.14822" xlink:href="#i" y="206.19112"/><use x="339.75397" xlink:href="#j" y="206.19112"/><use x="344.44049" xlink:href="#n" y="206.19112"/><use x="347.04623" xlink:href="#m" y="206.19112"/><use x="352.79199" xlink:href="#E" y="206.19112"/><use x="357.2912" xlink:href="#k" y="206.19112"/><use x="361.97775" xlink:href="#c" y="206.19112"/><use x="366.66431" xlink:href="#g" y="206.19112"/><use x="371.35083" xlink:href="#a" y="206.19112"/><use x="375.51248" xlink:href="#i" y="206.19112"/><use x="378.11823" xlink:href="#d" y="206.19112"/><use x="382.6076" xlink:href="#n" y="206.19112"/><use x="385.21332" xlink:href="#i" y="206.19112"/><use x="389.90915" xlink:href="#u" y="206.19112"/><use x="394.0708" xlink:href="#e" y="206.19112"/><use x="398.23245" xlink:href="#l" y="206.19112"/><use x="405.00916" xlink:href="#c" y="206.19112"/><use x="409.69571" xlink:href="#n" y="206.19112"/><use x="412.30142" xlink:href="#m" y="206.19112"/><use x="415.94757" xlink:href="#u" y="206.19112"/><use x="420.10922" xlink:href="#h" y="206.19112"/><use x="424.65527" xlink:href="#f" y="206.19112"/><use x="429.20102" xlink:href="#a" y="206.19112"/><use x="433.36267" xlink:href="#b" y="206.19112"/><use x="438.5834" xlink:href="#i" y="206.19112"/><use x="441.18912" xlink:href="#j" y="206.19112"/><use x="445.87567" xlink:href="#a" y="206.19112"/><use x="452.12717" xlink:href="#h" y="206.19112"/><use x="456.81372" xlink:href="#o" y="206.19112"/><use x="461.50027" xlink:href="#i" y="206.19112"/><use x="464.10599" xlink:href="#n" y="206.19112"/><use x="466.7117" xlink:href="#s" y="206.19112"/><use x="474.00397" xlink:href="#e" y="206.19112"/><use x="478.16562" xlink:href="#w" y="206.19112"/><use x="482.87094" xlink:href="#m" y="206.19112"/><use x="486.51709" xlink:href="#h" y="206.19112"/><use x="491.20361" xlink:href="#w" y="206.19112"/><use x="493.80933" xlink:href="#k" y="206.19112"/><use x="498.49588" xlink:href="#i" y="206.19112"/><use x="501.10159" xlink:href="#n" y="206.19112"/><use x="503.70734" xlink:href="#h" y="206.19112"/><use x="508.39386" xlink:href="#l" y="206.19112"/><use x="513.08038" xlink:href="#m" y="206.19112"/><use x="316.68649" xlink:href="#h" y="216.97002"/><use x="321.37305" xlink:href="#z" y="216.97002"/><use x="328.02789" xlink:href="#h" y="216.97002"/><use x="332.57361" xlink:href="#f" y="216.97002"/><use x="337.11929" xlink:href="#a" y="216.97002"/><use x="341.28094" xlink:href="#b" y="216.97002"/><use x="347.93573" xlink:href="#O" y="216.97002"/><use x="352.62225" xlink:href="#X" y="216.97002"/><use x="357.30881" xlink:href="#Y" y="216.97002"/><use x="368.65015" xlink:href="#h" y="216.97002"/><use x="373.3367" xlink:href="#z" y="216.97002"/><use x="379.99158" xlink:href="#i" y="216.97002"/><use x="382.59729" xlink:href="#j" y="216.97002"/><use x="387.28381" xlink:href="#a" y="216.97002"/><use x="394.98419" xlink:href="#ah" y="216.97002"/><use x="401.54721" xlink:href="#ai" y="216.97002"/><use x="407.17386" xlink:href="#aj" y="216.97002"/><use x="412.80048" xlink:href="#ae" y="216.97002"/><use x="417.49075" xlink:href="#ak" y="216.97002"/><use x="419.83588" xlink:href="#al" y="216.97002"/><use x="428.9971" xlink:href="#n" y="216.97002"/><use x="431.60281" xlink:href="#l" y="216.97002"/><use x="436.28937" xlink:href="#m" y="216.97002"/><use x="439.93549" xlink:href="#i" y="216.97002"/><use x="442.54123" xlink:href="#e" y="216.97002"/><use x="446.70288" xlink:href="#l" y="216.97002"/><use x="451.3894" xlink:href="#u" y="216.97002"/><use x="455.55106" xlink:href="#a" y="216.97002"/><use x="459.71271" xlink:href="#m" y="216.97002"/><use x="463.35886" xlink:href="#p" y="216.97002"/><use x="472.17874" xlink:href="#y" y="216.97002"/><use x="478.94611" xlink:href="#e" y="216.97002"/><use x="483.10776" xlink:href="#c" y="216.97002"/><use x="491.32794" xlink:href="#t" y="216.97002"/><use x="498.09531" xlink:href="#a" y="216.97002"/><use x="505.79047" xlink:href="#e" y="216.97002"/><use x="509.95212" xlink:href="#m" y="216.97002"/><use x="513.59827" xlink:href="#F" y="216.97002"/><use x="316.6861" xlink:href="#m" y="227.74892"/><use x="320.33224" xlink:href="#n" y="227.74892"/><use x="322.93796" xlink:href="#g" y="227.74892"/><use x="327.62448" xlink:href="#l" y="227.74892"/><use x="332.31104" xlink:href="#a" y="227.74892"/><use x="336.47269" xlink:href="#c" y="227.74892"/><use x="344.74939" xlink:href="#e" y="227.74892"/><use x="352.51031" xlink:href="#w" y="227.74892"/><use x="355.11603" xlink:href="#e" y="227.74892"/><use x="359.27768" xlink:href="#b" y="227.74892"/><use x="362.23026" xlink:href="#g" y="227.74892"/><use x="366.91681" xlink:href="#a" y="227.74892"/><use x="371.07846" xlink:href="#b" y="227.74892"/><use x="377.78964" xlink:href="#E" y="227.74892"/><use x="382.28885" xlink:href="#k" y="227.74892"/><use x="386.9754" xlink:href="#c" y="227.74892"/><use x="391.66193" xlink:href="#g" y="227.74892"/><use x="396.34848" xlink:href="#a" y="227.74892"/><use x="400.51013" xlink:href="#i" y="227.74892"/><use x="406.70566" xlink:href="#Z" y="227.74892"/><use x="414.98184" xlink:href="#H" y="227.74892"/><use x="418.10309" xlink:href="#L" y="227.74892"/><use x="423.83005" xlink:href="#n" y="227.74892"/><use x="426.43576" xlink:href="#e" y="227.74892"/><use x="430.59741" xlink:href="#l" y="227.74892"/><use x="435.28397" xlink:href="#g" y="227.74892"/><use x="443.56973" xlink:href="#a" y="227.74892"/><use x="447.73138" xlink:href="#i" y="227.74892"/><use x="453.92715" xlink:href="#e" y="227.74892"/><use x="458.08881" xlink:href="#w" y="227.74892"/><use x="460.69452" xlink:href="#p" y="227.74892"/><use x="463.03778" xlink:href="#d" y="227.74892"/><use x="469.28964" xlink:href="#I" y="227.74892"/><use x="473.9762" xlink:href="#B" y="227.74892"/><use x="478.66275" xlink:href="#I" y="227.74892"/><use x="483.34927" xlink:href="#I" y="227.74892"/><use x="488.03583" xlink:href="#J" y="227.74892"/><use x="494.85959" xlink:href="#L" y="227.74892"/><use x="500.58652" xlink:href="#n" y="227.74892"/><use x="503.19226" xlink:href="#e" y="227.74892"/><use x="507.35391" xlink:href="#l" y="227.74892"/><use x="512.04047" xlink:href="#g" y="227.74892"/><use x="316.6861" xlink:href="#a" y="238.52782"/><use x="320.84775" xlink:href="#i" y="238.52782"/><use x="326.42477" xlink:href="#e" y="238.52782"/><use x="330.58643" xlink:href="#w" y="238.52782"/><use x="333.19214" xlink:href="#p" y="238.52782"/><use x="335.5354" xlink:href="#d" y="238.52782"/><use x="340.99979" xlink:href="#I" y="238.52782"/><use x="345.68631" xlink:href="#B" y="238.52782"/><use x="350.37286" xlink:href="#I" y="238.52782"/><use x="355.05942" xlink:href="#M" y="238.52782"/><use x="359.74594" xlink:href="#J" y="238.52782"/><use x="365.63257" xlink:href="#q" y="238.52782"/><use x="373.73102" xlink:href="#a" y="238.52782"/><use x="377.89267" xlink:href="#n" y="238.52782"/><use x="380.49838" xlink:href="#m" y="238.52782"/><use x="384.14453" xlink:href="#a" y="238.52782"/><use x="391.26813" xlink:href="#a" y="238.52782"/><use x="395.42978" xlink:href="#i" y="238.52782"/><use x="401.00681" xlink:href="#e" y="238.52782"/><use x="405.16846" xlink:href="#w" y="238.52782"/><use x="407.77417" xlink:href="#p" y="238.52782"/><use x="410.11743" xlink:href="#d" y="238.52782"/><use x="415.58182" xlink:href="#I" y="238.52782"/><use x="420.26837" xlink:href="#B" y="238.52782"/><use x="424.9549" xlink:href="#I" y="238.52782"/><use x="429.64145" xlink:href="#A" y="238.52782"/><use x="434.328" xlink:href="#E" y="238.52782"/><use x="439.01453" xlink:href="#J" y="238.52782"/><use x="444.90057" xlink:href="#q" y="238.52782"/><use x="452.99902" xlink:href="#a" y="238.52782"/><use x="457.16068" xlink:href="#n" y="238.52782"/><use x="459.76639" xlink:href="#m" y="238.52782"/><use x="463.41251" xlink:href="#a" y="238.52782"/><use x="470.54514" xlink:href="#a" y="238.52782"/><use x="474.70679" xlink:href="#i" y="238.52782"/><use x="480.27441" xlink:href="#e" y="238.52782"/><use x="484.43607" xlink:href="#w" y="238.52782"/><use x="487.04178" xlink:href="#p" y="238.52782"/><use x="489.38504" xlink:href="#d" y="238.52782"/><use x="494.85919" xlink:href="#I" y="238.52782"/><use x="499.54572" xlink:href="#B" y="238.52782"/><use x="504.23227" xlink:href="#I" y="238.52782"/><use x="508.91882" xlink:href="#K" y="238.52782"/><use x="513.60535" xlink:href="#N" y="238.52782"/><use x="316.6861" xlink:href="#k" y="249.30672"/><use x="321.37265" xlink:href="#m" y="249.30672"/><use x="325.01877" xlink:href="#a" y="249.30672"/><use x="331.72046" xlink:href="#A" y="249.30672"/><use x="336.40701" xlink:href="#B" y="249.30672"/><use x="341.0896" xlink:href="#an" y="245.90437"/><use x="344.55762" xlink:href="#ao" y="245.90437"/><use x="351.03024" xlink:href="#C" y="249.30672"/><use x="356.24167" xlink:href="#D" y="249.30672"/><use x="361.96863" xlink:href="#m" y="249.30672"/><use x="368.15485" xlink:href="#Z" y="249.30672"/><use x="375.37204" xlink:href="#t" y="249.30672"/><use x="382.1394" xlink:href="#a" y="249.30672"/><use x="388.84116" xlink:href="#t" y="249.30672"/><use x="395.51498" xlink:href="#h" y="249.30672"/><use x="400.20154" xlink:href="#k" y="249.30672"/><use x="404.88806" xlink:href="#w" y="249.30672"/><use x="407.49377" xlink:href="#c" y="249.30672"/><use x="414.71109" xlink:href="#w" y="249.30672"/><use x="417.3168" xlink:href="#n" y="249.30672"/><use x="419.92255" xlink:href="#v" y="249.30672"/><use x="424.51538" xlink:href="#a" y="249.30672"/><use x="428.67703" xlink:href="#w" y="249.30672"/><use x="431.28275" xlink:href="#x" y="249.30672"/><use x="438.50952" xlink:href="#j" y="249.30672"/><use x="443.19608" xlink:href="#e" y="249.30672"/><use x="447.17007" xlink:href="#f" y="249.30672"/><use x="451.71582" xlink:href="#a" y="249.30672"/><use x="458.40799" xlink:href="#m" y="249.30672"/><use x="462.05411" xlink:href="#a" y="249.30672"/><use x="466.21576" xlink:href="#a" y="249.30672"/><use x="470.37741" xlink:href="#l" y="249.30672"/><use x="477.6041" xlink:href="#a" y="249.30672"/><use x="481.53143" xlink:href="#f" y="249.30672"/><use x="486.07715" xlink:href="#a" y="249.30672"/><use x="490.2388" xlink:href="#l" y="249.30672"/><use x="497.45605" xlink:href="#s" y="249.30672"/><use x="504.74832" xlink:href="#h" y="249.30672"/><use x="509.43488" xlink:href="#b" y="249.30672"/><use x="512.55609" xlink:href="#a" y="249.30672"/><use x="316.68613" xlink:href="#n" y="260.08521"/><use x="319.29184" xlink:href="#l" y="260.08521"/><use x="323.97839" xlink:href="#m" y="260.08521"/><use x="327.62451" xlink:href="#i" y="260.08521"/><use x="330.23026" xlink:href="#e" y="260.08521"/><use x="334.39191" xlink:href="#l" y="260.08521"/><use x="339.07843" xlink:href="#u" y="260.08521"/><use x="343.24008" xlink:href="#a" y="260.08521"/><use x="347.40173" xlink:href="#m" y="260.08521"/><use x="353.3912" xlink:href="#m" y="260.08521"/><use x="357.03735" xlink:href="#h" y="260.08521"/><use x="361.72391" xlink:href="#w" y="260.08521"/><use x="364.32962" xlink:href="#f" y="260.08521"/><use x="368.87558" xlink:href="#a" y="260.08521"/><use x="373.03723" xlink:href="#c" y="260.08521"/><use x="377.72379" xlink:href="#p" y="260.08521"/><use x="330.02054" xlink:href="#q" y="270.86411"/><use x="338.11896" xlink:href="#a" y="270.86411"/><use x="346.87329" xlink:href="#z" y="270.86411"/><use x="349.99451" xlink:href="#k" y="270.86411"/><use x="354.68106" xlink:href="#b" y="270.86411"/><use x="357.80231" xlink:href="#i" y="270.86411"/><use x="360.40802" xlink:href="#j" y="270.86411"/><use x="365.09457" xlink:href="#a" y="270.86411"/><use x="369.25623" xlink:href="#b" y="270.86411"/><use x="372.37744" xlink:href="#s" y="270.86411"/><use x="379.66971" xlink:href="#h" y="270.86411"/><use x="384.35626" xlink:href="#b" y="270.86411"/><use x="387.47751" xlink:href="#a" y="270.86411"/><use x="396.2229" xlink:href="#u" y="270.86411"/><use x="400.38455" xlink:href="#h" y="270.86411"/><use x="405.07111" xlink:href="#l" y="270.86411"/><use x="409.75763" xlink:href="#r" y="270.86411"/><use x="414.96909" xlink:href="#b" y="270.86411"/><use x="418.0903" xlink:href="#s" y="270.86411"/><use x="429.97525" xlink:href="#i" y="270.86411"/><use x="432.58096" xlink:href="#j" y="270.86411"/><use x="437.26752" xlink:href="#a" y="270.86411"/><use x="446.01276" xlink:href="#b" y="270.86411"/><use x="449.134" xlink:href="#a" y="270.86411"/><use x="453.29565" xlink:href="#s" y="270.86411"/><use x="460.58792" xlink:href="#e" y="270.86411"/><use x="464.74957" xlink:href="#b" y="270.86411"/><use x="467.87082" xlink:href="#v" y="270.86411"/><use x="472.55734" xlink:href="#e" y="270.86411"/><use x="476.71899" xlink:href="#E" y="270.86411"/><use x="481.40555" xlink:href="#w" y="270.86411"/><use x="484.01126" xlink:href="#a" y="270.86411"/><use x="492.7659" xlink:href="#e" y="270.86411"/><use x="496.92755" xlink:href="#E" y="270.86411"/><use x="501.61407" xlink:href="#n" y="270.86411"/><use x="504.21982" xlink:href="#w" y="270.86411"/><use x="506.82553" xlink:href="#n" y="270.86411"/><use x="509.43124" xlink:href="#i" y="270.86411"/><use x="512.03699" xlink:href="#x" y="270.86411"/><use x="316.68613" xlink:href="#h" y="281.6434"/><use x="321.37268" xlink:href="#z" y="281.6434"/><use x="328.59943" xlink:href="#C" y="281.6434"/><use x="333.81085" xlink:href="#C" y="281.6434"/><use x="338.3287" xlink:href="#S" y="281.6434"/><use x="349.20135" xlink:href="#i" y="281.6434"/><use x="351.80707" xlink:href="#h" y="281.6434"/><use x="360.58963" xlink:href="#c" y="281.6434"/><use x="365.27618" xlink:href="#n" y="281.6434"/><use x="367.8819" xlink:href="#m" y="281.6434"/><use x="371.52805" xlink:href="#u" y="281.6434"/><use x="375.6897" xlink:href="#h" y="281.6434"/><use x="380.23572" xlink:href="#f" y="281.6434"/><use x="384.78143" xlink:href="#a" y="281.6434"/><use x="388.94308" xlink:href="#b" y="281.6434"/><use x="396.16971" xlink:href="#f" y="281.6434"/><use x="400.71542" xlink:href="#a" y="281.6434"/><use x="404.87708" xlink:href="#b" y="281.6434"/><use x="407.99829" xlink:href="#x" y="281.6434"/><use x="416.79041" xlink:href="#c" y="281.6434"/><use x="421.47696" xlink:href="#n" y="281.6434"/><use x="423.8486" xlink:href="#f" y="281.6434"/><use x="428.39432" xlink:href="#a" y="281.6434"/><use x="432.55597" xlink:href="#b" y="281.6434"/><use x="435.67722" xlink:href="#m" y="281.6434"/><use x="439.32333" xlink:href="#a" y="281.6434"/><use x="447.59042" xlink:href="#m" y="281.6434"/><use x="451.23654" xlink:href="#h" y="281.6434"/><use x="455.9231" xlink:href="#w" y="281.6434"/><use x="458.52881" xlink:href="#k" y="281.6434"/><use x="463.21536" xlink:href="#i" y="281.6434"/><use x="465.82108" xlink:href="#n" y="281.6434"/><use x="468.42679" xlink:href="#h" y="281.6434"/><use x="473.11334" xlink:href="#l" y="281.6434"/><use x="477.79987" xlink:href="#m" y="281.6434"/><use x="485.55133" xlink:href="#H" y="281.6434"/><use x="488.67258" xlink:href="#e" y="281.6434"/><use x="492.83423" xlink:href="#i" y="281.6434"/><use x="499.54547" xlink:href="#w" y="281.6434"/><use x="502.15118" xlink:href="#a" y="281.6434"/><use x="506.31284" xlink:href="#e" y="281.6434"/><use x="510.47449" xlink:href="#m" y="281.6434"/><use x="514.12061" xlink:href="#i" y="281.6434"/><use x="316.68613" xlink:href="#z" y="292.4223"/><use x="319.80737" xlink:href="#b" y="292.4223"/><use x="322.92862" xlink:href="#h" y="292.4223"/><use x="327.61514" xlink:href="#s" y="292.4223"/><use x="337.93497" xlink:href="#i" y="292.4223"/><use x="340.54068" xlink:href="#j" y="292.4223"/><use x="345.2272" xlink:href="#a" y="292.4223"/><use x="352.40723" xlink:href="#o" y="292.4223"/><use x="357.09378" xlink:href="#a" y="292.4223"/><use x="361.25543" xlink:href="#b" y="292.4223"/><use x="364.37668" xlink:href="#m" y="292.4223"/><use x="368.0228" xlink:href="#o" y="292.4223"/><use x="372.70935" xlink:href="#a" y="292.4223"/><use x="376.871" xlink:href="#u" y="292.4223"/><use x="381.03265" xlink:href="#i" y="292.4223"/><use x="383.63837" xlink:href="#n" y="292.4223"/><use x="386.00955" xlink:href="#f" y="292.4223"/><use x="390.55527" xlink:href="#a" y="292.4223"/><use x="397.74472" xlink:href="#h" y="292.4223"/><use x="402.43127" xlink:href="#z" y="292.4223"/><use x="408.57986" xlink:href="#i" y="292.4223"/><use x="411.18561" xlink:href="#j" y="292.4223"/><use x="415.87213" xlink:href="#a" y="292.4223"/><use x="423.05215" xlink:href="#h" y="292.4223"/><use x="427.73871" xlink:href="#E" y="292.4223"/><use x="432.42523" xlink:href="#P" y="292.4223"/><use x="435.03094" xlink:href="#a" y="292.4223"/><use x="439.1926" xlink:href="#u" y="292.4223"/><use x="443.35425" xlink:href="#i" y="292.4223"/><use x="445.95999" xlink:href="#n" y="292.4223"/><use x="448.33102" xlink:href="#f" y="292.4223"/><use x="452.87677" xlink:href="#a" y="292.4223"/><use x="460.0658" xlink:href="#z" y="292.4223"/><use x="463.18704" xlink:href="#k" y="292.4223"/><use x="467.8736" xlink:href="#l" y="292.4223"/><use x="472.56012" xlink:href="#u" y="292.4223"/><use x="476.72177" xlink:href="#i" y="292.4223"/><use x="479.32751" xlink:href="#n" y="292.4223"/><use x="481.93323" xlink:href="#h" y="292.4223"/><use x="486.61978" xlink:href="#l" y="292.4223"/><use x="491.3063" xlink:href="#N" y="292.4223"/><use x="494.42755" xlink:href="#p" y="292.4223"/><use x="501.72009" xlink:href="#Q" y="292.4223"/><use x="504.84134" xlink:href="#i" y="292.4223"/><use x="510.4744" xlink:href="#n" y="292.4223"/><use x="513.08008" xlink:href="#m" y="292.4223"/><use x="316.68613" xlink:href="#v" y="303.2012"/><use x="321.37268" xlink:href="#l" y="303.2012"/><use x="326.05923" xlink:href="#h" y="303.2012"/><use x="330.51151" xlink:href="#t" y="303.2012"/><use x="337.27887" xlink:href="#l" y="303.2012"/><use x="344.68341" xlink:href="#i" y="303.2012"/><use x="347.28912" xlink:href="#j" y="303.2012"/><use x="351.97568" xlink:href="#e" y="303.2012"/><use x="356.13733" xlink:href="#i" y="303.2012"/><use x="361.46112" xlink:href="#h" y="303.2012"/><use x="366.14767" xlink:href="#l" y="303.2012"/><use x="373.56189" xlink:href="#i" y="303.2012"/><use x="376.16763" xlink:href="#j" y="303.2012"/><use x="380.85416" xlink:href="#a" y="303.2012"/><use x="387.7338" xlink:href="#W" y="303.2012"/><use x="394.50116" xlink:href="#S" y="303.2012"/><use x="401.26852" xlink:href="#U" y="303.2012"/><use x="405.43964" xlink:href="#d" y="303.2012"/><use x="410.50098" xlink:href="#s" y="303.2012"/><use x="417.79324" xlink:href="#e" y="303.2012"/><use x="421.9549" xlink:href="#l" y="303.2012"/><use x="426.50095" xlink:href="#x" y="303.2012"/><use x="433.90567" xlink:href="#m" y="303.2012"/><use x="437.55179" xlink:href="#h" y="303.2012"/><use x="442.23834" xlink:href="#w" y="303.2012"/><use x="444.84406" xlink:href="#k" y="303.2012"/><use x="449.53061" xlink:href="#i" y="303.2012"/><use x="452.13632" xlink:href="#n" y="303.2012"/><use x="454.74203" xlink:href="#h" y="303.2012"/><use x="459.42859" xlink:href="#l" y="303.2012"/><use x="464.11514" xlink:href="#m" y="303.2012"/><use x="470.47949" xlink:href="#i" y="303.2012"/><use x="473.08521" xlink:href="#a" y="303.2012"/><use x="477.24686" xlink:href="#l" y="303.2012"/><use x="481.93341" xlink:href="#c" y="303.2012"/><use x="489.33807" xlink:href="#i" y="303.2012"/><use x="491.94379" xlink:href="#h" y="303.2012"/><use x="499.35757" xlink:href="#j" y="303.2012"/><use x="504.04413" xlink:href="#e" y="303.2012"/><use x="508.01813" xlink:href="#f" y="303.2012"/><use x="512.56384" xlink:href="#a" y="303.2012"/><use x="316.68613" xlink:href="#i" y="313.9801"/><use x="319.29184" xlink:href="#j" y="313.9801"/><use x="323.97839" xlink:href="#a" y="313.9801"/><use x="331.89865" xlink:href="#m" y="313.9801"/><use x="335.54477" xlink:href="#e" y="313.9801"/><use x="339.70642" xlink:href="#s" y="313.9801"/><use x="346.99869" xlink:href="#a" y="313.9801"/><use x="354.92831" xlink:href="#h" y="313.9801"/><use x="359.61487" xlink:href="#E" y="313.9801"/><use x="364.30142" xlink:href="#P" y="313.9801"/><use x="366.90714" xlink:href="#a" y="313.9801"/><use x="371.06879" xlink:href="#u" y="313.9801"/><use x="375.23044" xlink:href="#i" y="313.9801"/><use x="377.83615" xlink:href="#n" y="313.9801"/><use x="380.20724" xlink:href="#f" y="313.9801"/><use x="384.75293" xlink:href="#a" y="313.9801"/><use x="392.67325" xlink:href="#f" y="313.9801"/><use x="397.12558" xlink:href="#e" y="313.9801"/><use x="401.28723" xlink:href="#w" y="313.9801"/><use x="403.89297" xlink:href="#k" y="313.9801"/><use x="408.5795" xlink:href="#a" y="313.9801"/><use x="412.74115" xlink:href="#m" y="313.9801"/><use x="420.15527" xlink:href="#H" y="313.9801"/><use x="423.27652" xlink:href="#G" y="313.9801"/><use x="428.25369" xlink:href="#e" y="313.9801"/><use x="432.41534" xlink:href="#x" y="313.9801"/><use x="437.1019" xlink:href="#e" y="313.9801"/><use x="441.26355" xlink:href="#b" y="313.9801"/><use x="444.3848" xlink:href="#e" y="313.9801"/><use x="448.54645" xlink:href="#l" y="313.9801"/><use x="453.233" xlink:href="#n" y="313.9801"/><use x="455.83871" xlink:href="#F" y="313.9801"/><use x="458.95996" xlink:href="#aa" y="313.9801"/><use x="465.72733" xlink:href="#p" y="313.9801"/><use x="471.8291" xlink:href="#e" y="313.9801"/><use x="475.99075" xlink:href="#l" y="313.9801"/><use x="480.67728" xlink:href="#c" y="313.9801"/><use x="489.13187" xlink:href="#U" y="313.9801"/><use x="494.34329" xlink:href="#b" y="313.9801"/><use x="498.24313" xlink:href="#ab" y="313.93362"/><use x="497.46033" xlink:href="#k" y="313.9801"/><use x="502.14685" xlink:href="#g" y="313.9801"/><use x="506.8334" xlink:href="#a" y="313.9801"/><use x="510.99506" xlink:href="#w" y="313.9801"/><use x="513.60077" xlink:href="#F" y="313.9801"/><use x="316.68533" xlink:href="#V" y="324.759"/><use x="322.93716" xlink:href="#a" y="324.759"/><use x="327.09882" xlink:href="#l" y="324.759"/><use x="331.78537" xlink:href="#l" y="324.759"/><use x="336.47192" xlink:href="#a" y="324.759"/><use x="340.63358" xlink:href="#i" y="324.759"/><use x="343.23929" xlink:href="#i" y="324.759"/><use x="345.845" xlink:href="#d" y="324.759"/><use x="351.19705" xlink:href="#I" y="324.759"/><use x="355.88358" xlink:href="#B" y="324.759"/><use x="360.57013" xlink:href="#A" y="324.759"/><use x="365.25668" xlink:href="#O" y="324.759"/><use x="369.94321" xlink:href="#N" y="324.759"/><use x="373.06445" xlink:href="#p" y="324.759"/><use x="379.89743" xlink:href="#ac" y="324.759"/><use x="385.72748" xlink:href="#a" y="324.759"/><use x="389.88913" xlink:href="#i" y="324.759"/><use x="392.49487" xlink:href="#d" y="324.759"/><use x="397.83813" xlink:href="#h" y="324.759"/><use x="402.52469" xlink:href="#l" y="324.759"/><use x="410.0889" xlink:href="#m" y="324.759"/><use x="413.73505" xlink:href="#h" y="324.759"/><use x="418.4216" xlink:href="#s" y="324.759"/><use x="425.71387" xlink:href="#a" y="324.759"/><use x="432.74362" xlink:href="#h" y="324.759"/><use x="437.43018" xlink:href="#z" y="324.759"/><use x="443.4288" xlink:href="#i" y="324.759"/><use x="446.03452" xlink:href="#j" y="324.759"/><use x="450.72107" xlink:href="#a" y="324.759"/><use x="457.75067" xlink:href="#n" y="324.759"/><use x="460.35641" xlink:href="#l" y="324.759"/><use x="465.04294" xlink:href="#m" y="324.759"/><use x="468.68909" xlink:href="#i" y="324.759"/><use x="471.2948" xlink:href="#e" y="324.759"/><use x="475.45645" xlink:href="#l" y="324.759"/><use x="480.14301" xlink:href="#u" y="324.759"/><use x="484.30466" xlink:href="#a" y="324.759"/><use x="488.46631" xlink:href="#m" y="324.759"/><use x="492.11243" xlink:href="#d" y="324.759"/><use x="497.46436" xlink:href="#s" y="324.759"/><use x="504.75659" xlink:href="#h" y="324.759"/><use x="509.44315" xlink:href="#b" y="324.759"/><use x="512.56439" xlink:href="#a" y="324.759"/><use x="316.68533" xlink:href="#i" y="335.5379"/><use x="319.29105" xlink:href="#j" y="335.5379"/><use x="323.97757" xlink:href="#e" y="335.5379"/><use x="328.13922" xlink:href="#l" y="335.5379"/><use x="335.45993" xlink:href="#j" y="335.5379"/><use x="340.14648" xlink:href="#e" y="335.5379"/><use x="344.30814" xlink:href="#w" y="335.5379"/><use x="346.91385" xlink:href="#z" y="335.5379"/><use x="352.67831" xlink:href="#h" y="335.5379"/><use x="357.36484" xlink:href="#z" y="335.5379"/><use x="363.11972" xlink:href="#i" y="335.5379"/><use x="365.72543" xlink:href="#j" y="335.5379"/><use x="370.41199" xlink:href="#a" y="335.5379"/><use x="377.21658" xlink:href="#h" y="335.5379"/><use x="381.90314" xlink:href="#E" y="335.5379"/><use x="386.58969" xlink:href="#P" y="335.5379"/><use x="389.1954" xlink:href="#a" y="335.5379"/><use x="393.35706" xlink:href="#u" y="335.5379"/><use x="397.51871" xlink:href="#i" y="335.5379"/><use x="400.12442" xlink:href="#n" y="335.5379"/><use x="402.49551" xlink:href="#f" y="335.5379"/><use x="407.0412" xlink:href="#a" y="335.5379"/><use x="413.83688" xlink:href="#f" y="335.5379"/><use x="418.28925" xlink:href="#e" y="335.5379"/><use x="422.4509" xlink:href="#w" y="335.5379"/><use x="425.05664" xlink:href="#k" y="335.5379"/><use x="429.74316" xlink:href="#a" y="335.5379"/><use x="433.90482" xlink:href="#m" y="335.5379"/><use x="440.18494" xlink:href="#c" y="335.5379"/><use x="444.87149" xlink:href="#n" y="335.5379"/><use x="447.4772" xlink:href="#m" y="335.5379"/><use x="451.12335" xlink:href="#u" y="335.5379"/><use x="455.285" xlink:href="#h" y="335.5379"/><use x="459.83105" xlink:href="#f" y="335.5379"/><use x="464.37677" xlink:href="#a" y="335.5379"/><use x="468.53842" xlink:href="#b" y="335.5379"/><use x="471.65967" xlink:href="#a" y="335.5379"/><use x="475.82132" xlink:href="#c" y="335.5379"/><use x="483.15137" xlink:href="#E" y="335.5379"/><use x="487.83792" xlink:href="#x" y="335.5379"/><use x="495.16031" xlink:href="#ag" y="335.5379"/><use x="500.31454" xlink:href="#ad" y="335.5379"/><use x="506.40515" xlink:href="#ae" y="335.5379"/><use x="511.09543" xlink:href="#af" y="335.5379"/><use x="316.68533" xlink:href="#t" y="346.31641"/><use x="323.4527" xlink:href="#a" y="346.31641"/><use x="327.61435" xlink:href="#b" y="346.31641"/><use x="330.7356" xlink:href="#a" y="346.31641"/><use x="337.24078" xlink:href="#k" y="346.31641"/><use x="341.92734" xlink:href="#l" y="346.31641"/><use x="346.61389" xlink:href="#n" y="346.31641"/><use x="349.2196" xlink:href="#R" y="346.31641"/><use x="353.90613" xlink:href="#k" y="346.31641"/><use x="358.59268" xlink:href="#a" y="346.31641"/><use x="362.75433" xlink:href="#p" y="346.31641"/></g></svg>