<svg height="332pt" viewBox="0 0 276 332" width="276pt" xmlns="http://www.w3.org/2000/svg" xmlns:xlink="http://www.w3.org/1999/xlink"><defs><g id="a"><path d="m2.859375-1.21875c0 .296875-.03125.40625-.34375.5625-.078125.046875-.390625.171875-.609375.171875-.375 0-.65625-.296875-.65625-.765625v-.03125c0-.328125.109375-.890625 1.609375-1.390625zm1.546875.5625c-.109375.09375-.234375.1875-.453125.1875-.28125 0-.28125-.28125-.28125-.578125v-1.9375c0-.609375 0-1.59375-1.484375-1.59375-1.15625 0-1.625.703125-1.625 1.09375 0 .171875.109375.4375.421875.4375.265625 0 .453125-.21875.453125-.421875 0-.09375-.046875-.234375-.046875-.390625 0-.3125.375-.484375.703125-.484375.296875 0 .765625.109375.765625.828125v.609375c-1.625.640625-2.484375.96875-2.484375 1.96875 0 .671875.515625 1.03125 1.046875 1.03125.546875 0 1.078125-.390625 1.453125-.71875.046875.71875.46875.71875.640625.71875.15625 0 .46875 0 .890625-.5zm0 0"/></g><g id="b"><path d="m.203125 0h2.359375v-.15625c-.578125-.015625-.75-.109375-.75-.6875v-5.9375l-.03125-.03125c-.53125.171875-1.0625.3125-1.59375.4375v.171875c.125-.015625.21875-.03125.34375-.03125.390625 0 .453125.15625.453125.609375v4.75c0 .5625-.1875.6875-.78125.71875zm0 0"/></g><g id="c"><path d="m3.140625-3.125-.046875-1.375h-.109375c-.03125.046875-.078125.109375-.15625.109375-.171875 0-.484375-.1875-.921875-.1875-.96875 0-1.390625.65625-1.390625 1.203125 0 .75.546875 1.109375 1.15625 1.46875l.578125.328125c.328125.171875.515625.40625.515625.734375 0 .5625-.46875.71875-.796875.71875-.984375 0-1.171875-.859375-1.296875-1.390625h-.15625v1.5625h.125c.0625-.09375.109375-.125.234375-.125.265625-.015625.703125.171875 1.15625.171875.625 0 1.4375-.40625 1.4375-1.28125 0-.59375-.34375-.875-.84375-1.171875l-1.0625-.640625c-.375-.21875-.4375-.515625-.4375-.703125 0-.265625.203125-.65625.765625-.65625.4375 0 .875.21875 1.09375 1.234375zm0 0"/></g><g id="d"><path d="m2.546875-4.484375h-1.015625v-1.15625c0-.078125 0-.125-.0625-.125-.375.515625-.515625.734375-.90625 1.125-.21875.21875-.4375.28125-.4375.40625 0 .03125.03125.0625.046875.0625h.53125v3c0 1 .40625 1.265625.90625 1.265625.46875 0 .9375-.328125 1.171875-.75l-.125-.109375c-.109375.125-.296875.34375-.609375.34375-.515625 0-.515625-.578125-.515625-.890625v-2.859375h1.015625zm0 0"/></g><g id="e"><path d="m4.78125-.5c-.609375.015625-.625-.203125-.625-.5625v-3.421875h-1.578125v.171875c.703125.015625.734375.21875.734375.625v2.34375c0 .328125-.0625.421875-.15625.5-.265625.21875-.5625.359375-.859375.359375-.65625 0-.75-.609375-.75-.75v-3.25h-1.453125v.140625c.296875.015625.609375.03125.609375.640625v2.5c0 1.0625.78125 1.296875 1.1875 1.296875.1875 0 .65625-.03125 1.046875-.421875l.4375-.421875v.8125l.015625.03125c.46875-.171875.84375-.3125 1.390625-.453125zm0 0"/></g><g id="f"><path d="m3.390625-1.015625c-.078125.359375-.46875.59375-.890625.59375-.65625 0-1.375-.5625-1.375-2.046875 0-1.34375.671875-1.84375 1.234375-1.84375.46875 0 .953125.328125 1.03125 1zm1.5.4375c-.65625.046875-.65625-.15625-.65625-.5625v-5.640625l-.0625-.03125c-.46875.171875-.96875.3125-1.453125.4375v.171875c.078125-.015625.171875-.015625.234375-.015625.4375 0 .4375.203125.4375.5v1.5625c-.328125-.296875-.625-.421875-1.0625-.421875-1.109375 0-2.0625 1.140625-2.0625 2.4375 0 2.046875 1.421875 2.234375 1.8125 2.234375.75 0 1.109375-.359375 1.296875-.625h.015625v.59375l.03125.03125c.53125-.1875 1-.34375 1.46875-.515625zm0 0"/></g><g id="g"><path d="m.15625 0h2.359375v-.15625c-.6875-.03125-.734375-.203125-.734375-.859375v-3.546875l-.03125-.015625c-.53125.1875-1.03125.375-1.546875.546875v.140625c.125-.015625.25-.03125.390625-.03125.15625 0 .359375 0 .359375.59375v2.3125c0 .78125-.171875.84375-.796875.859375zm.625-6.296875c0 .1875.140625.5.5.5.296875 0 .515625-.21875.515625-.5s-.21875-.515625-.515625-.515625c-.359375 0-.5.328125-.5.515625zm0 0"/></g><g id="h"><path d="m4.0625-1.6406c-.21875.375-.65625 1.0469-1.5469 1.0469-.65625 0-1.4531-.40625-1.5781-2.1719h3.0938c-.10938-1.2969-.8125-1.8125-1.75-1.8125-.79688 0-2.0312.59375-2.0312 2.4375 0 1.4219.75 2.2344 1.8594 2.2344 1.4375 0 2.0156-1.3438 2.125-1.6562zm-3.0938-1.4375c.15625-.875.54688-1.1562 1.0938-1.1562.78125 0 .89062.67188.95312 1.1562z"/></g><g id="i"><path d="m.984375.890625c0-.296875.171875-.5.484375-.875.46875.109375.6875.109375 1.625.140625.734375.015625 1.21875.03125 1.21875.484375 0 .53125-.671875.96875-1.84375.96875-1.140625 0-1.484375-.40625-1.484375-.71875zm.53125-4.296875c0-.671875.390625-.90625.75-.90625.859375 0 1.015625 1.34375 1.015625 1.625 0 .21875-.046875.953125-.734375.953125-.765625 0-1.03125-.890625-1.03125-1.671875zm3.171875-.46875v-.375h-.765625c-.15625 0-.34375-.03125-.546875-.109375-.40625-.140625-.625-.21875-.96875-.21875-.765625 0-1.71875.46875-1.71875 1.65625 0 .578125.34375 1.03125.921875 1.296875-.875.78125-.875.921875-.875 1.09375 0 .265625.25.390625.515625.515625-.5.359375-.96875.765625-.96875 1.21875 0 .53125.75.96875 1.765625.96875.890625 0 2.546875-.5625 2.546875-1.6875 0-.28125-.140625-1.015625-1.203125-1.0625l-1.28125-.0625c-.3125 0-.78125-.03125-.78125-.265625 0-.203125.390625-.609375.59375-.625.0625 0 .421875.046875.546875.046875.546875 0 1.578125-.390625 1.578125-1.46875 0-.5-.09375-.6875-.1875-.921875zm0 0"/></g><g id="j"><path d="m2.4375-4.5781c-1.3281 0-2.1406 1.0781-2.1406 2.3125 0 1.3438.89062 2.3594 2.1719 2.3594 1.5156 0 2.2188-1.375 2.2188-2.3594 0-1.4531-.9375-2.3125-2.25-2.3125zm.17188 4.4062c-1.1875 0-1.4219-1.8438-1.4219-2.5781 0-1.0312.54688-1.5625 1.1719-1.5625.92188 0 1.4219 1.0938 1.4219 2.3281 0 1.4219-.65625 1.8125-1.1719 1.8125z"/></g><g id="k"><path d="m.75-.84375c0 .5625-.15625.59375-.703125.6875v.15625h2.390625v-.15625c-.5-.015625-.84375-.046875-.84375-.734375v-2.25c0-.3125.4375-.8125.671875-.8125.25 0 .34375.34375.6875.34375.25 0 .390625-.1875.390625-.4375 0-.328125-.203125-.53125-.546875-.53125-.375 0-.71875.1875-1.1875.90625h-.015625v-.890625l-.046875-.015625c-.484375.1875-.984375.375-1.484375.53125v.15625c.09375-.015625.203125-.03125.34375-.03125.15625 0 .34375 0 .34375.59375zm0 0"/></g><g id="l"><path d="m4.859375-.15625c-.5-.078125-.609375-.140625-.609375-.859375v-1.984375c0-.40625 0-1.578125-1.234375-1.578125-.59375 0-1.078125.3125-1.4375.8125h-.015625v-3.015625l-.046875-.03125c-.484375.171875-.96875.3125-1.421875.4375v.171875c.03125-.015625.140625-.015625.203125-.015625.4375 0 .4375.203125.4375.5v4.703125c0 .71875-.109375.796875-.640625.859375v.15625h2.15625v-.15625c-.5-.046875-.6875-.09375-.6875-.859375v-2.40625c.40625-.46875.796875-.625 1.09375-.625.546875 0 .765625.390625.765625 1.0625v1.96875c0 .765625-.1875.8125-.6875.859375v.15625h2.125zm0 0"/></g><g id="m"><path d="m.859375-.84375c0 .671875-.296875.6875-.703125.6875v.15625h2.21875v-.15625c-.34375 0-.6875-.015625-.6875-.515625v-2.8125c0-.046875.46875-.578125 1.15625-.578125.515625 0 .6875.390625.6875 1.046875v2.15625c0 .65625-.234375.6875-.6875.703125v.15625h2.234375v-.15625c-.40625 0-.71875-.03125-.71875-.796875v-2.5c.21875-.34375.5625-.609375 1.109375-.609375.71875 0 .734375.578125.734375 1.09375v2.09375c0 .640625-.15625.671875-.65625.71875v.15625h2.171875v-.15625l-.25-.015625c-.4375-.0625-.4375-.359375-.4375-.578125v-2.0625c0-.734375-.140625-1.765625-1.171875-1.765625-.78125 0-1.390625.59375-1.609375.828125-.109375-.421875-.40625-.828125-1.0625-.828125-.53125 0-.9375.3125-1.53125.765625v-.75l-.078125-.015625c-.453125.15625-.921875.3125-1.390625.4375v.171875c.078125-.015625.1875-.03125.328125-.03125.15625 0 .34375 0 .34375.625zm0 0"/></g><g id="n"><path d="m3.96875-1.5625c-.34375.515625-.703125.9375-1.421875.9375-.84375 0-1.53125-.75-1.53125-1.890625 0-1.46875.921875-1.78125 1.28125-1.78125.53125 0 .578125.1875.65625.484375l.0625.21875c.0625.21875.234375.46875.5.453125.296875-.015625.453125-.203125.453125-.4375 0-.1875-.125-.484375-.4375-.703125-.234375-.15625-.6875-.296875-1.046875-.296875-1.078125 0-2.234375.8125-2.234375 2.453125 0 1.578125 1.0625 2.21875 1.859375 2.21875.8125 0 1.453125-.421875 2-1.5625zm0 0"/></g><g id="o"><path d="m3.078125-4.484375h-1.21875v-1.15625c0-.375.046875-.890625.59375-.890625.46875 0 .515625.75.9375.75.203125 0 .421875-.125.421875-.421875 0-.34375-.4375-.609375-.984375-.609375-1.796875 0-1.796875 1.765625-1.796875 2.328125h-.828125v.3125h.828125v3.140625c0 .765625-.171875.859375-.828125.875v.15625h2.59375v-.15625c-.921875-.015625-.9375-.265625-.9375-.875v-3.140625h1.21875zm0 0"/></g><g id="p"><path d="m.796875-.890625c0 .578125-.15625.71875-.625.734375v.15625h2.125v-.15625c-.515625-.015625-.65625-.1875-.65625-.515625v-2.796875c.375-.375.6875-.5625.984375-.5625.578125 0 .765625.359375.765625.953125v2.09375c0 .75-.265625.8125-.625.828125v.15625h2.0625v-.15625c-.484375-.03125-.59375-.1875-.59375-.65625v-2.28125c0-1.21875-.71875-1.484375-1.171875-1.484375-.59375 0-.96875.34375-1.453125.796875v-.78125l-.078125-.015625c-.453125.15625-.921875.3125-1.375.4375v.171875c.046875-.015625.15625-.03125.296875-.03125.15625 0 .34375 0 .34375.625zm0 0"/></g><g id="q"><path d="m.3125-4.171875h.671875v3.234375c0 .703125-.171875.78125-.671875.78125v.15625h2.203125v-.15625c-.671875-.015625-.6875-.328125-.6875-.71875v-3.296875c.203125 0 1.375.03125 1.5.03125.328125.046875.359375.15625.359375.546875v2.625c0 .59375-.015625.78125-.6875.8125v.15625h2.1875v-.15625c-.5-.03125-.65625-.140625-.65625-.8125v-2.609375c0-.25 0-.65625.015625-.984375l-.046875-.015625c-.328125.046875-.75.09375-1.125.09375h-1.5625c-.015625-.671875-.015625-1.140625.109375-1.4375.125-.28125.453125-.640625.921875-.640625.75 0 .703125.84375 1.234375.84375.1875 0 .34375-.171875.34375-.375 0-.515625-.609375-.71875-1.25-.71875-1.390625 0-2.125.84375-2.171875 2.328125h-.6875zm0 0"/></g><g id="r"><path d="m.75 1.3125c0 .421875-.046875.625-.703125.6875v.15625h2.421875v-.171875c-.71875 0-.890625-.109375-.890625-.75v-1.5625c.328125.3125.609375.421875 1.015625.421875 1.390625 0 2.09375-1.390625 2.09375-2.53125 0-1.328125-.765625-2.140625-1.640625-2.140625-.78125 0-1.234375.484375-1.4375.765625l-.03125-.03125v-.71875l-.046875-.015625c-.484375.1875-.96875.34375-1.4375.5v.15625h.28125c.34375 0 .375.15625.375.5625zm.828125-4.640625c.0625-.375.625-.65625.984375-.65625 1.21875 0 1.265625 1.609375 1.265625 1.84375 0 1.734375-.890625 1.921875-1.21875 1.921875-.5625 0-1.03125-.421875-1.03125-.65625zm0 0"/></g><g id="s"><path d="m.828125 1.40625c.296875-.09375 1.109375-.765625 1.109375-1.46875 0-.828125-.578125-.953125-.796875-.953125-.25 0-.578125.140625-.578125.578125 0 .390625.359375.5.609375.5.078125 0 .125-.015625.15625-.015625.03125-.015625.0625-.03125.09375-.03125.0625 0 .140625.046875.140625.140625 0 .1875-.171875.640625-.828125 1.0625zm0 0"/></g><g id="t"><path d="m5.6875-4.484375v.140625c.25.0625.4375.09375.4375.34375 0 .109375-.046875.375-.15625.625l-.90625 2.21875-.796875-2.140625c-.15625-.375-.203125-.484375-.203125-.671875 0-.28125.25-.3125.578125-.375v-.140625h-2.03125v.140625c.40625.0625.515625.125.890625 1.25l-.90625 1.984375c-.453125-1.265625-1.046875-2.546875-1.046875-2.890625 0-.28125.234375-.3125.453125-.34375v-.140625h-1.796875v.140625c.25.03125.328125.15625.53125.640625l1.34375 3.40625c.140625.34375.1875.4375.265625.4375.0625 0 .109375-.109375.25-.390625l1.109375-2.390625.90625 2.34375c.140625.359375.171875.4375.25.4375s.109375-.09375.28125-.484375l1.375-3.453125c.140625-.375.1875-.46875.40625-.546875v-.140625zm0 0"/></g><g id="u"><path d="m4.75-4.484375h-1.375v.140625c.25.015625.46875.109375.46875.34375 0 .34375-.71875 1.90625-1.046875 2.859375l-1.015625-2.546875c-.03125-.078125-.09375-.234375-.09375-.34375 0-.25.21875-.28125.453125-.3125v-.140625h-1.953125v.140625c.203125.015625.40625.078125.546875.375.359375.703125 1.3125 3.015625 1.5625 3.640625.15625.421875.171875.46875.265625.46875.0625 0 .15625-.234375.265625-.5l1.28125-3.203125c.234375-.578125.3125-.75.640625-.78125zm0 0"/></g><g id="v"><path d="m1.53125-3.203125c.03125-.578125.671875-.75.984375-.75.90625 0 1.265625 1.015625 1.265625 1.953125 0 .65625-.15625 1.78125-1.296875 1.78125-.25 0-.953125-.125-.953125-.484375zm-.84375 2.671875c0 .359375 1.046875.625 1.546875.625 1.84375 0 2.4375-1.5625 2.4375-2.46875 0-1.0625-.578125-2.203125-1.78125-2.203125-.75 0-1.28125.578125-1.34375.796875h-.015625v-3l-.0625-.03125c-.46875.171875-.953125.3125-1.4375.4375v.171875c.0625-.015625.15625-.015625.21875-.015625.4375 0 .4375.203125.4375.5zm0 0"/></g><g id="w"><path d="m3.015625-.734375c.03125.0625.15625.171875.15625.328125 0 .203125-.09375.25-.40625.25v.15625h2.015625v-.15625c-.171875 0-.4375-.015625-.828125-.59375l-1.265625-1.953125.828125-1.1875c.078125-.140625.375-.4375.796875-.453125v-.140625h-1.578125v.140625c.171875.015625.40625.03125.40625.234375 0 .109375-.0625.203125-.671875 1.078125-.1875-.28125-.59375-.890625-.59375-1.078125 0-.203125.25-.234375.421875-.234375v-.140625h-2.0625v.140625c.328125 0 .453125 0 .859375.609375l.9375 1.4375-1.140625 1.640625c-.3125.453125-.453125.484375-.71875.5v.15625h1.4375v-.15625c-.15625 0-.375 0-.390625-.171875 0-.109375.140625-.3125.203125-.40625l.78125-1.234375zm0 0"/></g><g id="x"><path d="m3.59375-4.234375c-.390625-.21875-.625-.34375-1.125-.34375-1.25 0-2.234375 1.09375-2.234375 2.46875 0 1.5.75 2.203125 1.640625 2.203125.609375 0 1.3125-.40625 1.46875-.71875h.0625v1.859375c0 .5-.140625.734375-.890625.765625v.15625h2.34375v-.125c-.4375-.109375-.625-.140625-.625-.625v-5.953125l-.03125-.03125-.078125.015625zm-.1875 2.96875c-.015625.3125-.015625.484375-.53125.671875-.1875.0625-.359375.078125-.5.078125-.890625 0-1.28125-.9375-1.28125-1.859375 0-1.203125.546875-1.9375 1.34375-1.9375.953125 0 .96875.71875.96875 1zm0 0"/></g><g id="y"><path d="m4.734375-4.484375h-1.34375v.140625c.3125 0 .484375.09375.484375.28125 0 .09375-.140625.40625-.234375.6875l-.78125 2.203125-1.140625-2.515625c-.03125-.078125-.109375-.234375-.109375-.359375 0-.265625.359375-.28125.578125-.296875v-.140625h-2.046875v.140625c.125.015625.390625.0625.5.3125l1.140625 2.453125c.140625.3125.625 1.234375.625 1.375 0 .15625-.40625 1.53125-.921875 1.53125-.125 0-.4375-.171875-.703125-.171875-.46875 0-.484375.375-.484375.4375 0 .265625.234375.578125.734375.578125.75 0 1.1875-.65625 1.6875-2l1.53125-4.0625c.15625-.40625.359375-.421875.484375-.453125zm0 0"/></g><g id="z"><path d="m1.25.109375c.203125 0 .546875-.171875.546875-.53125 0-.3125-.25-.578125-.546875-.578125s-.546875.25-.546875.578125c0 .375.328125.53125.546875.53125zm0 0"/></g><g id="A"><path d="m4.5-.1875c-.82812-.03125-.95312-.21875-.95312-.90625v-5.0938h.54688c1.0938 0 1.375.1875 1.5781 1.2812h.23438l-.046875-1.6875h-5.625l-.0625 1.6875h.23438c.21875-1.0781.48438-1.2812 1.5938-1.2812h.53125v4.9844c0 .75-.03125.96875-.9375 1.0156v.1875h2.9062z"/></g><g id="B"><path d="m4.4531-6.7344h-.20312c-.015625.10938-.078125.32812-.35938.32812-.23438 0-.78125-.32812-1.375-.32812-.90625 0-1.8125.54688-1.8125 1.6875 0 .98438.64062 1.4219 1.5625 1.9531 1.4688.85938 1.625 1.2031 1.625 1.7656 0 .54688-.40625 1.1094-1.2031 1.1094-1.3438 0-1.8438-1.2969-2.0469-1.7656h-.21875l.29688 2.1094h.21875c0-.15625.09375-.32812.3125-.32812.29688 0 .78125.34375 1.5469.34375 1.4219 0 2.0938-.95312 2.0938-1.8125 0-2.0312-3.3281-2.2344-3.3281-3.7344 0-.60938.51562-.92188 1.0156-.92188 1.0469 0 1.6719.89062 1.8438 1.7188h.25z"/></g><g id="C"><path d="m.15625-6.4062c.73438.0625.84375.1875.84375.89062v4.3125c0 .71875 0 .95312-.84375 1.0156v.1875h2.7969v-.1875c-.76562-.015625-.9375-.17188-.9375-.90625v-1.8125c.23438.03125.42188.03125.67188.03125 1.0469 0 1.6719-.17188 2.1094-.57812.17188-.17188.60938-.57812.60938-1.3594 0-1.2656-1.2344-1.7812-2.6094-1.7812h-2.6406zm1.8594.51562c0-.32812.10938-.34375.40625-.34375.4375 0 1.8906.03125 1.8906 1.4531 0 1.5156-1.3281 1.5156-1.7031 1.5156-.20312 0-.40625-.015625-.59375-.03125z"/></g><g id="D"><path d="m2.9375-6.7344c-1.5469.90625-2.4531 2.4062-2.4531 4.125 0 1.375.32812 2.0938.8125 2.8125.375.54688 1.0312 1.25 1.6094 1.5625l.125-.15625c-1.7031-1.0938-1.7031-3.2812-1.7031-4.2969 0-2.5312.96875-3.2969 1.7031-3.8906z"/></g><g id="E"><path d="m.375 1.7656c1.5469-.92188 2.4688-2.4062 2.4688-4.125 0-1.375-.32812-2.0938-.8125-2.8125-.39062-.5625-1.0469-1.2656-1.625-1.5625l-.10938.15625c1.6875 1.0781 1.6875 3.2656 1.6875 4.2812 0 2.5312-.95312 3.3125-1.6875 3.9062z"/></g><g id="F"><path d="m.39062-2.5625v.625h2.4531v-.625z"/></g><g id="G"><path d="m4.1719-1.3438-.1875-.046875c-.15625.78125-.21875 1.0938-1.2656 1.0938h-1.3906l2.6875-4.0469v-.14062h-3.4531l-.03125 1.1719h.17188c.078125-.53125.10938-.875.84375-.875h1.375l-2.6562 4.0312v.15625h3.7656z"/></g><g id="H"><path d="m4.78125-2.296875v-2.3125h-.234375c-.09375.734375-.28125.9375-1.09375.9375h-1.453125v-2.203125c0-.3125.078125-.34375.328125-.34375h1.34375c1.109375 0 1.375.15625 1.515625 1.046875h.25l-.03125-1.421875h-5.28125v.1875c.625.046875.859375.109375.859375.890625v4.3125c0 .828125-.109375.96875-.859375 1.015625v.1875h2.78125v-.1875c-.703125-.03125-.90625-.15625-.90625-.90625v-2.171875l1.453125.015625c.75.015625.984375.109375 1.09375.953125zm0 0"/></g><g id="I"><path d="m7.03125-.1875c-.4375-.03125-.578125-.140625-.890625-.875l-2.484375-5.65625h-.203125l-2.0625 4.890625c-.1875.4375-.5 1.171875-.734375 1.421875-.171875.1875-.34375.203125-.5.21875v.1875h1.96875v-.1875c-.21875 0-.671875 0-.671875-.421875 0-.109375.015625-.25.078125-.375l.453125-1.171875h2.609375l.40625.953125c.0625.140625.1875.46875.1875.640625 0 .359375-.328125.375-.6875.375v.1875h2.53125zm-4.875-2.375 1.140625-2.734375 1.15625 2.734375zm0 0"/></g><g id="J"><path d="m1.09375.453125c0 .8125 0 1.375-.5 1.375-.359375 0-.46875-.59375-.890625-.59375-.1875 0-.40625.15625-.40625.375 0 .375.46875.5625.9375.5625 1.28125 0 1.6875-1 1.6875-2.171875v-4.5625l-.046875-.015625c-.515625.1875-1.03125.375-1.5625.53125v.15625c.15625-.015625.28125-.03125.421875-.03125.15625 0 .359375 0 .359375.59375zm-.171875-6.75c0 .1875.140625.5.5.5.296875 0 .515625-.21875.515625-.5s-.21875-.515625-.515625-.515625c-.359375 0-.5.328125-.5.515625zm0 0"/></g><g id="K"><path d="m.0625 0h2.34375v-.15625h-.203125c-.328125-.015625-.546875-.109375-.546875-.515625v-1.796875h.015625l1.375 1.828125c.125.171875.21875.265625.21875.328125 0 .140625-.140625.15625-.21875.15625h-.1875v.15625h2.171875v-.15625c-.265625-.015625-.65625-.078125-1.15625-.71875l-1.53125-1.9375.28125-.265625c1.359375-1.265625 1.625-1.265625 2.15625-1.265625v-.140625h-2.03125v.140625c.421875 0 .5.078125.5.1875 0 .09375-.078125.203125-.234375.34375-.390625.328125-.984375.875-1.34375 1.1875l-.015625-.015625v-4.140625l-.046875-.03125c-.515625.171875-1.046875.3125-1.546875.4375v.171875c.09375-.015625.171875-.03125.3125-.03125.375 0 .4375.15625.4375.609375v4.8125c0 .53125-.078125.546875-.75.65625zm0 0"/></g><g id="L"><path d="m9.296875-6.59375h-1.984375v.1875c.34375.03125.6875.0625.6875.453125 0 .21875-.078125.515625-.15625.71875l-1.25 3.375-1.3125-3.390625c-.140625-.390625-.265625-.609375-.265625-.78125 0-.359375.453125-.375.765625-.375v-.1875h-2.65625v.1875c.53125 0 .671875.0625 1 .890625l.328125.828125-1.0625 2.796875-1.4375-3.734375c-.046875-.140625-.109375-.3125-.109375-.453125 0-.25.203125-.3125.65625-.328125v-.1875h-2.453125v.1875c.578125.046875.703125.328125 1.03125 1.15625.375 1 1.421875 3.828125 1.921875 5.359375h.15625l1.53125-4.21875c.421875 1.09375 1.25 3.1875 1.59375 4.21875h.15625c.578125-1.921875 1.375-4.0625 2.0625-5.90625.140625-.390625.296875-.53125.796875-.609375zm0 0"/></g><g id="M"><path d="m4.7344-1.3594-.125-.0625c-.39062.64062-.57812.67188-.95312.67188h-2.375l1.6719-1.7656c.4375-.46875 1.2812-1.375 1.2812-2.4219 0-1.125-.90625-1.7969-1.8125-1.7969-.875 0-1.8125.46875-2.1094 1.9844l.20312.046875c.21875-.54688.51562-1.2969 1.4219-1.2969 1.1875 0 1.4375.92188 1.4375 1.4219 0 .75-.4375 1.6406-1.2969 2.5781l-1.7812 1.875v.125h3.8906z"/></g><g id="N"><path d="m1.171875 0h2.75v-.15625c-.734375 0-.9375-.109375-.9375-.578125v-5.984375l-.078125-.015625-1.796875.90625v.140625c.5625-.21875.5625-.21875.671875-.21875.34375 0 .34375.25.34375.46875v4.515625c0 .734375-.375.75-.953125.765625zm0 0"/></g><g id="O"><path d="m.171875 0h2.96875v-.1875c-.734375-.015625-.984375-.125-.984375-.90625v-4.421875c0-.796875.25-.859375.984375-.890625v-.1875h-2.96875v.1875c.828125.03125.96875.15625.96875.890625v4.421875c0 .71875-.109375.890625-.96875.90625zm0 0"/></g><g id="P"><path d="m1.7969-5.8125h1.9688c.10938 0 .1875 0 .21875-.09375l.375-.875-.078125-.078125c-.10938.15625-.20312.26562-.46875.26562h-2.0781l-1.0938 2.3594c-.015625.0625 0 .125.0625.125 1.0781.046875 2.8438.51562 2.8438 2.1094 0 1.2188-.73438 1.7656-1.3906 1.7656-.53125 0-.79688-.60938-1.4375-.60938-.40625 0-.40625.28125-.40625.39062 0 .35938.46875.59375 1.2656.59375 1.5781 0 2.6719-1.0625 2.6719-2.3906 0-.875-.10938-1.1719-.54688-1.6875-.57812-.71875-1.5156-.89062-2.3125-1.0312z"/></g><g id="Q"><path d="m4.4531-6.8125c-2.4219.078125-4.1094 1.8906-4.1094 3.9062 0 2.0938 1.0156 3.0469 2.1875 3.0469 1.7812 0 2.1406-1.5938 2.1406-2.3125 0-1.3438-.78125-2.0938-1.8438-2.0938-.5625 0-.76562.125-1.3125.45312.1875-1.2188 1.1719-2.5625 2.9531-2.8438zm-2.0469 3c1.0625 0 1.3594 1 1.3594 2.0312 0 1.125-.45312 1.6406-1.0781 1.6406-.75 0-1.4219-.73438-1.4219-2.4062 0-.60938.09375-.84375.20312-.9375.25-.25.60938-.32812.9375-.32812z"/></g><g id="R"><path d="m2.9375-6.5938h-2.8125v.1875c.625.046875.85938.10938.85938.89062v4.4219c0 .78125-.23438.85938-.85938.90625v.1875h5.3594l.48438-1.7344h-.25c-.57812 1.3125-1.2188 1.3438-2.7031 1.3438-.82812 0-1.0156-.015625-1.0156-.40625v-4.7188c0-.78125.25-.85938.9375-.89062z"/></g><g id="S"><path d="m6.5625-.1875c-.40625-.015625-.64062-.20312-.85938-.46875l-2.0469-2.5312c.5-.09375 1.7969-.32812 1.7969-1.6719 0-1.5312-1.6406-1.7344-2.5312-1.7344h-2.75v.1875c.70312.0625.84375.15625.84375.89062v4.3125c0 .75-.03125.96875-.84375 1.0156v.1875h2.7656v-.1875c-.79688-.046875-.90625-.23438-.90625-.90625v-1.9531l.5625-.03125 2.375 3.0781h1.5938zm-4.5312-5.6875c0-.28125.09375-.35938.625-.35938.40625 0 1.7031.03125 1.7031 1.3594 0 1.4219-1.4844 1.4531-2.3281 1.4531z"/></g><g id="T"><path d="m.59375.21875c2.5312-.15625 3.9844-2.0469 3.9844-4.1719 0-1.6562-.95312-2.7812-2.1875-2.7812-1.2969 0-2.0938 1.0781-2.0938 2.3906 0 .82812.45312 1.9844 1.7969 1.9844.5 0 1.0312-.1875 1.4688-.54688l.015625.015625c-.0625.25-.60938 2.5156-3.0156 2.9062zm3.0156-3.75c0 .17188-.03125.29688-.15625.39062-.21875.17188-.625.34375-.95312.34375-1.0625 0-1.2812-1.1562-1.2812-1.9219 0-.8125.23438-1.7344 1.0625-1.7344 1.3281 0 1.3281 1.9375 1.3281 2.5312z"/></g><g id="U"><path d="m4.4688-6.5938h-3.6875l-.15625.4375-.42188 1.0156.17188.09375c.32812-.53125.5-.8125 1.1562-.8125h2.1562l-1.9688 5.9375h.64062l2.1094-6.5156z"/></g><g id="V"><path d="m.17188-6.4062c.8125.03125.95312.15625.95312.89062v4.4219c0 .71875-.125.89062-.95312.90625v.1875h3.3281c2.2188 0 2.4062-1.375 2.4062-1.75 0-1.0469-.79688-1.5312-1.6562-1.7031v-.03125c.4375-.10938 1.3281-.32812 1.3281-1.4375 0-1.5312-1.75-1.6719-2.625-1.6719h-2.7812zm1.9688 3.1562c.95312 0 1.2812.046875 1.625.15625.51562.15625 1 .48438 1 1.2969 0 1.3438-1.2031 1.4219-1.8594 1.4219-.57812 0-.76562-.03125-.76562-.40625zm0-2.6875c0-.14062.015625-.28125.21875-.28125.10938 0 .25-.015625.45312-.015625.70312 0 1.75.1875 1.75 1.375s-1.1875 1.2031-1.4688 1.2031l-.95312.015625z"/></g><g id="W"><path d="m.42188-.34375c.35938.25 1.0625.4375 1.7188.4375 1.5781 0 2.3281-.90625 2.3281-1.9219 0-1-.5625-1.5312-1.7031-1.9844-.92188-.35938-1.3281-.65625-1.3281-1.2812 0-.45312.34375-1 1.2656-1 .60938 0 1.0625.1875 1.2656.3125l.23438-.71875c-.28125-.15625-.79688-.3125-1.4688-.3125-1.3125 0-2.1719.76562-2.1719 1.8125 0 .9375.67188 1.5156 1.7656 1.9062.90625.32812 1.2656.70312 1.2656 1.3281 0 .67188-.51562 1.1406-1.4062 1.1406-.59375 0-1.1562-.1875-1.5469-.4375z"/></g><g id="X"><path d="m4.2344-2.1094.70312 2.1094h.9375l-2.2969-6.7188h-1.0469l-2.2812 6.7188h.89062l.70312-2.1094zm-2.2031-.6875.65625-1.9375c.125-.40625.23438-.82812.32812-1.2188h.03125c.09375.39062.1875.79688.32812 1.2344l.67188 1.9219z"/></g><g id="Y"><path d="m.75 0h.875v-3.0469h2.5312v-.71875h-2.5312v-2.2188h2.7344v-.73438h-3.6094z"/></g><g id="Z"><path d="m4.2344-3.875h-2.6094v-2.1094h2.7656v-.73438h-3.6406v6.7188h3.7812v-.73438h-2.9062v-2.4219h2.6094z"/></g><g id="aa"><path d="m4.28125-.125c-.453125-.03125-.484375-.125-.578125-.640625l-.71875-4.296875h-.203125l-2.1875 3.796875c-.625 1.046875-.6875 1.078125-.984375 1.140625v.125h1.421875v-.125c-.34375-.03125-.453125-.0625-.453125-.265625 0-.15625.046875-.265625.15625-.46875l.4375-.859375h1.65625l.15625 1c.015625.109375.015625.21875.015625.21875 0 .296875-.203125.34375-.59375.375v.125h1.875zm-2.953125-1.859375 1.125-1.96875h.015625l.328125 1.96875zm0 0"/></g></defs><path d="m180.5 1.8739c-5.1353 3.2033-3.7257 9.9981-5.8652 12.684 1.4462-2.4904-9.6606 3.1248-9.8906.78808-4.5957 4.9779 3.9321-9.1781-4.1719-4.3491.18272-3.2705-4.4563 2.3132-5.833 4.3696-4.255 1.0429-2.2871-6.6091-3.561-3.6035.81695-4.299-4.1049 6.4741-7.5234 3.6562-4.8805 2.7408-6.6596-10.815-9.0425-8.4375-1.8047-2.4043-3.6543 9.8059-6.3882 8.8272-3.515 2.8343-5.7764-5.9538-8.0435-2.1445-.97373-4.4598-7.265.37452-10.222-3.5771-2.623-2.168-10.467 15.64-9.9038 1.2964-7.613 2.1425-10.471 7.5996-15.453 3.2358-3.9998-4.1053-8.5737-9.8021-8.9868-5.3613-8.3204-2.5085-7.4092 5.6915-12.798 2.0288-1.1988 2.3553-6.276-5.1471-9.8569-2.3232-3.2195-2.3659-4.3033 6.431-5.6733 3.728-4.2391 1.5848-6.1307-8.4348-8.228-6.4438-.7438-2.0569-.7855 7.0213-5.6924 5.3862-2.7611 1.7751-4.7892-6.3945-9.0103-5.5972-2.2233 1.8331-5.4169 6.9907-6.1289 8.3364-1.5501-1.8401-.5604-4.201-4.563-5.6528-4.7186 3.945-6.8678 4.1088-7.9907 8.2602 1.815 97.813-9.6041 194.92-.29297 289.7 1.1229 4.1515 3.5652 8.2274 8.2837 12.173 4.0026-1.4518 6.7336-3.1038 8.2837-4.9438.71192 1.3458.36508 2.3505 2.5884 4.1836 4.221.79727 5.5227 3.5496 8.2837 5.3247 4.9068-1.6351 6.1175-3.6487 6.8613-5.7056 2.0973 1.9909 5.467 3.7414 9.7061 5.3262 1.37-2.703 3.6404-5.2426 6.8599-7.6084 3.581 2.8239 7.0849 5.6325 8.2837 7.9878 5.3891-3.6628 10.636-7.3821 18.957-9.8906.41309 4.4408.97126 8.8239 4.0151 12.174 2.0019-3.8669 4.8312-7.4709 12.552-9.5112 7.2074 2.9573 10.027 6.7179 13.975 10.271 2.9569-3.9516 5.1772-8.0928 6.1509-12.552 2.2671 3.8094 4.7672 7.4348 8.2822 10.269 2.7338-.97884 4.3434-3.6792 6.148-6.0835 2.3829 2.3771 5.5389 4.8661 10.419 7.6069 3.4185-2.8178 6.965-5.5915 6.148-9.8906 1.3278 3.1328 5.416 5.335 10.419 7.2275-4.0494-4.4748-5.6895-9.0555-5.9487-13.695 8.104 4.829 11.514 9.857 16.11 14.834.22999-2.3368-.23252-4.7358-1.6787-7.2261 2.1395 2.686 5.2809 5.5462 10.417 8.7495-.25094-2.9558 2.2429-4.9597 6.1509-6.4688 1.4407 3.6161 6.7003 7.1101 10.416 10.652 2.9334-3.7323 6.469-7.5014 6.1509-11.03 1.6817 2.7938 4.8245 5.168 10.416 6.8452 3.8626-5.253 2.065-12.006 1.3901-18.46.84295-.009.81938.71229 1.6626.70459 3.2055 5.1682 7.268 9.6092 13.515 14.713 4.0476-1.8928 7.7369-4.0371 8.2837-8.3701 3.5034.0256 7.3547-.52968 8.2822 3.8071 7.1354-2.0444 10.353-2.655 13.254-7.1777 1.7931-.0203 2.6104-1.7328 4.4048-1.7534 2.5826 4.3927 4.57 6.5614 6.0264 11.21.63709-10.007 1.3254-20.142 1.8896-30.338-5.1168-84.721 6.359-168.91.006-252.4-.56516-10.228-1.258-20.395-1.897-30.434-1.4563 4.6492-5.0023 13.76-8.0112 4.3491-1.7944-.0206-1.2992 9.2518-3.0923 9.2314-3.9897-5.7301-5.3459-15.582-12.105-4.6846-.92757 4.3368-7.9835 5.2844-8.7568-2.8096-.54684-4.333-4.2214 7.0182-8.269 5.1255-6.2465 5.1044-3.8785-10.838-7.084-5.6704 5.2805-15.658-7.2658 7.5998-8.1079 7.5923.67487-6.4545-2.0523-1.2334-5.915-6.4863-5.5916 1.6772-4.2114-7.9208-5.8931-5.127.31813-3.5289-2.8718 2.5149-5.8052-1.2173l-3.6548-4.9277c-3.7159 3.5424-4.196-.44771-5.6367 3.1684-3.908-1.5091-5.8815 7.6103-7.6172-3.8701z" fill="#fffff0" stroke="#c8c8c8"/><g transform="translate(-32.031 -275.6)"><use x="62.1791" xlink:href="#O" y="315.25339"/><use x="65.498436" xlink:href="#p" y="315.25339"/><use x="72.866974" xlink:href="#d" y="315.25339"/><use x="75.637909" xlink:href="#l" y="315.25339"/><use x="80.622391" xlink:href="#g" y="315.25339"/><use x="83.393318" xlink:href="#c" y="315.25339"/><use x="89.663055" xlink:href="#t" y="315.25339"/><use x="96.76149" xlink:href="#j" y="315.25339"/><use x="101.74313" xlink:href="#k" y="315.25339"/><use x="105.06246" xlink:href="#K" y="315.25339"/><use x="110.04694" xlink:href="#s" y="315.25339"/><use x="114.92867" xlink:href="#t" y="315.25339"/><use x="122.12553" xlink:href="#h" y="315.25339"/><use x="128.94469" xlink:href="#h" y="315.25339"/><use x="133.21422" xlink:href="#w" y="315.25339"/><use x="138.1987" xlink:href="#r" y="315.25339"/><use x="143.18318" xlink:href="#b" y="315.25339"/><use x="145.95412" xlink:href="#j" y="315.25339"/><use x="150.9386" xlink:href="#k" y="315.25339"/><use x="154.25793" xlink:href="#h" y="315.25339"/><use x="158.68404" xlink:href="#f" y="315.25339"/><use x="166.07043" xlink:href="#v" y="315.25339"/><use x="171.05493" xlink:href="#j" y="315.25339"/><use x="176.03941" xlink:href="#d" y="315.25339"/><use x="178.81035" xlink:href="#l" y="315.25339"/><use x="186.19698" xlink:href="#d" y="315.25339"/><use x="188.97081" xlink:href="#l" y="315.25339"/><use x="193.95529" xlink:href="#h" y="315.25339"/><use x="200.7621" xlink:href="#Z" y="315.25339"/><use x="205.67081" xlink:href="#X" y="315.25339"/><use x="214.2289" xlink:href="#a" y="315.25339"/><use x="218.65202" xlink:href="#p" y="315.25339"/><use x="223.63351" xlink:href="#f" y="315.25339"/><use x="231.0098" xlink:href="#W" y="315.25339"/><use x="235.92747" xlink:href="#X" y="315.25339"/><use x="244.4856" xlink:href="#j" y="315.25339"/><use x="249.46809" xlink:href="#p" y="315.25339"/><use x="256.84576" xlink:href="#P" y="315.25339"/><use x="261.82825" xlink:href="#Q" y="315.25339"/><use x="269.2059" xlink:href="#c" y="315.25339"/><use x="273.08163" xlink:href="#y" y="315.25339"/><use x="278.06412" xlink:href="#m" y="315.25339"/><use x="285.81854" xlink:href="#F" y="315.25339"/><use x="50.830601" xlink:href="#m" y="327.72021"/><use x="58.587013" xlink:href="#h" y="327.72021"/><use x="63.013126" xlink:href="#d" y="327.72021"/><use x="65.784058" xlink:href="#k" y="327.72021"/><use x="69.103386" xlink:href="#g" y="327.72021"/><use x="71.874321" xlink:href="#n" y="327.72021"/><use x="80.044647" xlink:href="#g" y="327.72021"/><use x="82.815575" xlink:href="#p" y="327.72021"/><use x="87.800064" xlink:href="#c" y="327.72021"/><use x="91.677773" xlink:href="#d" y="327.72021"/><use x="94.4487" xlink:href="#a" y="327.72021"/><use x="98.874809" xlink:href="#p" y="327.72021"/><use x="103.8593" xlink:href="#n" y="327.72021"/><use x="108.28541" xlink:href="#h" y="327.72021"/><use x="112.71152" xlink:href="#c" y="327.72021"/><use x="120.3411" xlink:href="#o" y="327.72021"/><use x="123.66043" xlink:href="#k" y="327.72021"/><use x="126.97977" xlink:href="#j" y="327.72021"/><use x="131.96425" xlink:href="#m" y="327.72021"/><use x="143.45789" xlink:href="#d" y="327.72021"/><use x="146.22882" xlink:href="#l" y="327.72021"/><use x="151.2133" xlink:href="#h" y="327.72021"/><use x="159.38365" xlink:href="#v" y="327.72021"/><use x="164.36815" xlink:href="#h" y="327.72021"/><use x="168.79425" xlink:href="#p" y="327.72021"/><use x="173.77875" xlink:href="#n" y="327.72021"/><use x="178.20485" xlink:href="#l" y="327.72021"/><use x="183.18933" xlink:href="#m" y="327.72021"/><use x="190.94576" xlink:href="#a" y="327.72021"/><use x="195.37186" xlink:href="#k" y="327.72021"/><use x="198.69119" xlink:href="#K" y="327.72021"/><use x="207.43755" xlink:href="#c" y="327.72021"/><use x="211.32036" xlink:href="#h" y="327.72021"/><use x="215.74646" xlink:href="#d" y="327.72021"/><use x="222.25864" xlink:href="#A" y="327.72021"/><use x="228.3499" xlink:href="#B" y="327.72021"/><use x="233.89276" xlink:href="#C" y="327.72021"/><use x="239.43561" xlink:href="#R" y="327.72021"/><use x="245.52687" xlink:href="#g" y="327.72021"/><use x="248.29781" xlink:href="#v" y="327.72021"/><use x="257.03519" xlink:href="#D" y="327.72021"/><use x="260.35452" xlink:href="#S" y="327.72021"/><use x="267.00415" xlink:href="#h" y="327.72021"/><use x="271.43027" xlink:href="#g" y="327.72021"/><use x="274.20117" xlink:href="#p" y="327.72021"/><use x="279.18567" xlink:href="#h" y="327.72021"/><use x="283.61179" xlink:href="#b" y="327.72021"/><use x="286.38272" xlink:href="#d" y="327.72021"/><g fill="#00f"><use x="50.830898" xlink:href="#N" y="340.18701"/><use x="55.812393" xlink:href="#T" y="340.18701"/><use x="60.793892" xlink:href="#T" y="340.18701"/><use x="65.775383" xlink:href="#N" y="340.18701"/></g><use x="70.755898" xlink:href="#s" y="340.18701"/><g fill="#00f"><use x="77.484398" xlink:href="#N" y="340.18701"/><use x="82.465897" xlink:href="#T" y="340.18701"/><use x="87.447388" xlink:href="#T" y="340.18701"/><use x="92.428886" xlink:href="#P" y="340.18701"/></g><use x="97.409401" xlink:href="#E" y="340.18701"/><use x="100.72974" xlink:href="#z" y="340.18701"/><use x="106.15198" xlink:href="#A" y="340.18701"/><use x="112.24424" xlink:href="#l" y="340.18701"/><use x="117.22972" xlink:href="#h" y="340.18701"/><use x="124.5852" xlink:href="#Z" y="340.18701"/><use x="129.49391" xlink:href="#X" y="340.18701"/><use x="138.58321" xlink:href="#g" y="340.18701"/><use x="141.35413" xlink:href="#c" y="340.18701"/><use x="148.15546" xlink:href="#e" y="340.18701"/><use x="153.13994" xlink:href="#p" y="340.18701"/><use x="158.12442" xlink:href="#c" y="340.18701"/><use x="162.00214" xlink:href="#e" y="340.18701"/><use x="166.98662" xlink:href="#g" y="340.18701"/><use x="169.75755" xlink:href="#d" y="340.18701"/><use x="172.52847" xlink:href="#a" y="340.18701"/><use x="176.95459" xlink:href="#v" y="340.18701"/><use x="181.93907" xlink:href="#b" y="340.18701"/><use x="184.71001" xlink:href="#h" y="340.18701"/><use x="192.06949" xlink:href="#o" y="340.18701"/><use x="195.39291" xlink:href="#j" y="340.18701"/><use x="200.3774" xlink:href="#k" y="340.18701"/><use x="206.61908" xlink:href="#d" y="340.18701"/><use x="209.39001" xlink:href="#l" y="340.18701"/><use x="214.3745" xlink:href="#g" y="340.18701"/><use x="217.14543" xlink:href="#c" y="340.18701"/><use x="223.94682" xlink:href="#r" y="340.18701"/><use x="228.9313" xlink:href="#k" y="340.18701"/><use x="232.25064" xlink:href="#j" y="340.18701"/><use x="237.23512" xlink:href="#v" y="340.18701"/><use x="242.2196" xlink:href="#b" y="340.18701"/><use x="244.99054" xlink:href="#h" y="340.18701"/><use x="249.41664" xlink:href="#m" y="340.18701"/><use x="257.17307" xlink:href="#s" y="340.18701"/><use x="262.59521" xlink:href="#v" y="340.18701"/><use x="267.37842" xlink:href="#e" y="340.18701"/><use x="272.36288" xlink:href="#d" y="340.18701"/><use x="278.05719" xlink:href="#W" y="340.18701"/><use x="282.97488" xlink:href="#X" y="340.18701"/><use x="50.832199" xlink:href="#n" y="352.65381"/><use x="55.25732" xlink:href="#a" y="352.65381"/><use x="59.682442" xlink:href="#p" y="352.65381"/><use x="66.267372" xlink:href="#q" y="352.65381"/><use x="71.809242" xlink:href="#p" y="352.65381"/><use x="76.79274" xlink:href="#f" y="352.65381"/><use x="83.377541" xlink:href="#d" y="352.65381"/><use x="86.147484" xlink:href="#l" y="352.65381"/><use x="91.130974" xlink:href="#h" y="352.65381"/><use x="97.157242" xlink:href="#j" y="352.65381"/><use x="102.14074" xlink:href="#r" y="352.65381"/><use x="107.12424" xlink:href="#d" y="352.65381"/><use x="109.89417" xlink:href="#g" y="352.65381"/><use x="112.66412" xlink:href="#m" y="352.65381"/><use x="120.41954" xlink:href="#e" y="352.65381"/><use x="125.40303" xlink:href="#m" y="352.65381"/><use x="134.76196" xlink:href="#j" y="352.65381"/><use x="139.74545" xlink:href="#p" y="352.65381"/><use x="146.33032" xlink:href="#m" y="352.65381"/><use x="154.08575" xlink:href="#a" y="352.65381"/><use x="158.51088" xlink:href="#p" y="352.65381"/><use x="163.33893" xlink:href="#y" y="352.65381"/><use x="169.92369" xlink:href="#c" y="352.65381"/><use x="173.80042" xlink:href="#m" y="352.65381"/><use x="181.55585" xlink:href="#a" y="352.65381"/><use x="185.98096" xlink:href="#b" y="352.65381"/><use x="188.7509" xlink:href="#b" y="352.65381"/><use x="193.12802" xlink:href="#a" y="352.65381"/><use x="197.55315" xlink:href="#p" y="352.65381"/><use x="202.53664" xlink:href="#f" y="352.65381"/><use x="209.1214" xlink:href="#m" y="352.65381"/><use x="216.87683" xlink:href="#g" y="352.65381"/><use x="219.64676" xlink:href="#f" y="352.65381"/><use x="224.63026" xlink:href="#F" y="352.65381"/><use x="227.94861" xlink:href="#c" y="352.65381"/><use x="231.82532" xlink:href="#g" y="352.65381"/><use x="234.59526" xlink:href="#G" y="352.65381"/><use x="239.02039" xlink:href="#h" y="352.65381"/><use x="243.4455" xlink:href="#f" y="352.65381"/><use x="250.03041" xlink:href="#g" y="352.65381"/><use x="252.80035" xlink:href="#p" y="352.65381"/><use x="257.78384" xlink:href="#c" y="352.65381"/><use x="261.66055" xlink:href="#d" y="352.65381"/><use x="264.43051" xlink:href="#a" y="352.65381"/><use x="268.85562" xlink:href="#p" y="352.65381"/><use x="273.83911" xlink:href="#n" y="352.65381"/><use x="278.26425" xlink:href="#h" y="352.65381"/><use x="282.68936" xlink:href="#c" y="352.65381"/><use x="286.56607" xlink:href="#z" y="352.65381"/><use x="50.832199" xlink:href="#L" y="365.1116"/><use x="59.443142" xlink:href="#h" y="365.1116"/><use x="66.820488" xlink:href="#d" y="365.1116"/><use x="69.590424" xlink:href="#l" y="365.1116"/><use x="74.573921" xlink:href="#h" y="365.1116"/><use x="78.999046" xlink:href="#p" y="365.1116"/><use x="86.943939" xlink:href="#r" y="365.1116"/><use x="91.927429" xlink:href="#b" y="365.1116"/><use x="94.697372" xlink:href="#e" y="365.1116"/><use x="99.680862" xlink:href="#i" y="365.1116"/><use x="107.61661" xlink:href="#H" y="365.1116"/><use x="113.15848" xlink:href="#H" y="365.1116"/><use x="117.95959" xlink:href="#I" y="365.1116"/><use x="128.12013" xlink:href="#g" y="365.1116"/><use x="130.89397" xlink:href="#p" y="365.1116"/><use x="135.87747" xlink:href="#d" y="365.1116"/><use x="138.6474" xlink:href="#j" y="365.1116"/><use x="146.57445" xlink:href="#v" y="365.1116"/><use x="151.55794" xlink:href="#j" y="365.1116"/><use x="156.54144" xlink:href="#d" y="365.1116"/><use x="159.31139" xlink:href="#l" y="365.1116"/><use x="167.2561" xlink:href="#a" y="365.1116"/><use x="171.67915" xlink:href="#b" y="365.1116"/><use x="174.44908" xlink:href="#i" y="365.1116"/><use x="179.43259" xlink:href="#j" y="365.1116"/><use x="184.41608" xlink:href="#k" y="365.1116"/><use x="187.73442" xlink:href="#g" y="365.1116"/><use x="190.50436" xlink:href="#d" y="365.1116"/><use x="193.27431" xlink:href="#l" y="365.1116"/><use x="198.2578" xlink:href="#m" y="365.1116"/><use x="206.01321" xlink:href="#c" y="365.1116"/><use x="212.8503" xlink:href="#a" y="365.1116"/><use x="217.27541" xlink:href="#p" y="365.1116"/><use x="222.25891" xlink:href="#f" y="365.1116"/><use x="230.19484" xlink:href="#j" y="365.1116"/><use x="235.17834" xlink:href="#v" y="365.1116"/><use x="240.16183" xlink:href="#d" y="365.1116"/><use x="242.93178" xlink:href="#a" y="365.1116"/><use x="247.35689" xlink:href="#g" y="365.1116"/><use x="250.12683" xlink:href="#p" y="365.1116"/><use x="258.07184" xlink:href="#d" y="365.1116"/><use x="260.84564" xlink:href="#l" y="365.1116"/><use x="265.82913" xlink:href="#h" y="365.1116"/><use x="273.21219" xlink:href="#Y" y="365.1116"/><use x="278.06906" xlink:href="#Z" y="365.1116"/><use x="282.97577" xlink:href="#X" y="365.1116"/><use x="50.832199" xlink:href="#a" y="377.5784"/><use x="55.256321" xlink:href="#p" y="377.5784"/><use x="60.238815" xlink:href="#f" y="377.5784"/><use x="68.831818" xlink:href="#d" y="377.5784"/><use x="71.600761" xlink:href="#l" y="377.5784"/><use x="76.583252" xlink:href="#h" y="377.5784"/><use x="84.6017" xlink:href="#Y" y="377.5784"/><use x="89.458565" xlink:href="#W" y="377.5784"/><use x="94.375252" xlink:href="#X" y="377.5784"/><use x="100.5454" xlink:href="#s" y="377.5784"/><use x="106.63485" xlink:href="#k" y="377.5784"/><use x="109.95828" xlink:href="#h" y="377.5784"/><use x="114.38439" xlink:href="#c" y="377.5784"/><use x="118.2621" xlink:href="#r" y="377.5784"/><use x="123.24659" xlink:href="#h" y="377.5784"/><use x="127.6727" xlink:href="#n" y="377.5784"/><use x="132.0988" xlink:href="#d" y="377.5784"/><use x="134.86974" xlink:href="#g" y="377.5784"/><use x="137.39146" xlink:href="#u" y="377.5784"/><use x="142.21959" xlink:href="#h" y="377.5784"/><use x="146.64569" xlink:href="#b" y="377.5784"/><use x="149.41663" xlink:href="#y" y="377.5784"/><use x="153.74887" xlink:href="#s" y="377.5784"/><use x="159.8559" xlink:href="#t" y="377.5784"/><use x="167.05394" xlink:href="#l" y="377.5784"/><use x="172.03842" xlink:href="#g" y="377.5784"/><use x="174.80936" xlink:href="#n" y="377.5784"/><use x="179.23547" xlink:href="#l" y="377.5784"/><use x="187.82855" xlink:href="#v" y="377.5784"/><use x="192.81303" xlink:href="#j" y="377.5784"/><use x="197.79752" xlink:href="#d" y="377.5784"/><use x="200.56845" xlink:href="#l" y="377.5784"/><use x="209.15237" xlink:href="#h" y="377.5784"/><use x="213.42189" xlink:href="#w" y="377.5784"/><use x="218.40637" xlink:href="#l" y="377.5784"/><use x="223.39085" xlink:href="#g" y="377.5784"/><use x="226.16179" xlink:href="#v" y="377.5784"/><use x="231.14627" xlink:href="#g" y="377.5784"/><use x="233.91721" xlink:href="#d" y="377.5784"/><use x="240.29454" xlink:href="#u" y="377.5784"/><use x="245.12265" xlink:href="#h" y="377.5784"/><use x="249.54875" xlink:href="#k" y="377.5784"/><use x="252.86809" xlink:href="#y" y="377.5784"/><use x="261.46091" xlink:href="#c" y="377.5784"/><use x="265.34372" xlink:href="#g" y="377.5784"/><use x="268.11465" xlink:href="#m" y="377.5784"/><use x="275.87106" xlink:href="#g" y="377.5784"/><use x="278.642" xlink:href="#b" y="377.5784"/><use x="281.41293" xlink:href="#a" y="377.5784"/><use x="285.83905" xlink:href="#k" y="377.5784"/><use x="50.8321" xlink:href="#r" y="390.0448"/><use x="55.815594" xlink:href="#h" y="390.0448"/><use x="60.240715" xlink:href="#k" y="390.0448"/><use x="63.559059" xlink:href="#o" y="390.0448"/><use x="66.877403" xlink:href="#j" y="390.0448"/><use x="71.860893" xlink:href="#k" y="390.0448"/><use x="75.179237" xlink:href="#m" y="390.0448"/><use x="82.934662" xlink:href="#a" y="390.0448"/><use x="87.359787" xlink:href="#p" y="390.0448"/><use x="92.343277" xlink:href="#n" y="390.0448"/><use x="96.768402" xlink:href="#h" y="390.0448"/><use x="101.19352" xlink:href="#z" y="390.0448"/><use x="106.13918" xlink:href="#A" y="390.0448"/><use x="112.22945" xlink:href="#l" y="390.0448"/><use x="117.21294" xlink:href="#h" y="390.0448"/><use x="124.0817" xlink:href="#Y" y="390.0448"/><use x="128.93857" xlink:href="#Z" y="390.0448"/><use x="133.84528" xlink:href="#X" y="390.0448"/><use x="142.4481" xlink:href="#c" y="390.0448"/><use x="146.32581" xlink:href="#j" y="390.0448"/><use x="151.31029" xlink:href="#b" y="390.0448"/><use x="154.08122" xlink:href="#u" y="390.0448"/><use x="158.90903" xlink:href="#h" y="390.0448"/><use x="163.33514" xlink:href="#c" y="390.0448"/><use x="169.64966" xlink:href="#M" y="390.0448"/><use x="174.63414" xlink:href="#U" y="390.0448"/><use x="182.05667" xlink:href="#j" y="390.0448"/><use x="187.04115" xlink:href="#o" y="390.0448"/><use x="192.7973" xlink:href="#d" y="390.0448"/><use x="195.56822" xlink:href="#l" y="390.0448"/><use x="200.55272" xlink:href="#h" y="390.0448"/><use x="207.41681" xlink:href="#g" y="390.0448"/><use x="210.19066" xlink:href="#p" y="390.0448"/><use x="215.17514" xlink:href="#c" y="390.0448"/><use x="219.05284" xlink:href="#d" y="390.0448"/><use x="221.82378" xlink:href="#a" y="390.0448"/><use x="226.24988" xlink:href="#p" y="390.0448"/><use x="231.23438" xlink:href="#n" y="390.0448"/><use x="235.66048" xlink:href="#h" y="390.0448"/><use x="240.08659" xlink:href="#c" y="390.0448"/><use x="246.41014" xlink:href="#g" y="390.0448"/><use x="249.18108" xlink:href="#p" y="390.0448"/><use x="256.59451" xlink:href="#a" y="390.0448"/><use x="261.02063" xlink:href="#b" y="390.0448"/><use x="263.79156" xlink:href="#b" y="390.0448"/><use x="268.99841" xlink:href="#j" y="390.0448"/><use x="273.98004" xlink:href="#o" y="390.0448"/><use x="279.7363" xlink:href="#g" y="390.0448"/><use x="282.50723" xlink:href="#d" y="390.0448"/><use x="285.27817" xlink:href="#c" y="390.0448"/><use x="50.8321" xlink:href="#k" y="402.50259"/><use x="54.151432" xlink:href="#e" y="402.50259"/><use x="59.135918" xlink:href="#p" y="402.50259"/><use x="64.120399" xlink:href="#c" y="402.50259"/><use x="67.998108" xlink:href="#s" y="402.50259"/><use x="73.267624" xlink:href="#t" y="402.50259"/><use x="80.4645" xlink:href="#l" y="402.50259"/><use x="85.448982" xlink:href="#g" y="402.50259"/><use x="88.219917" xlink:href="#n" y="402.50259"/><use x="92.646027" xlink:href="#l" y="402.50259"/><use x="100.4005" xlink:href="#W" y="402.50259"/><use x="105.31818" xlink:href="#X" y="402.50259"/><use x="114.2544" xlink:href="#n" y="402.50259"/><use x="118.67952" xlink:href="#a" y="402.50259"/><use x="123.10464" xlink:href="#p" y="402.50259"/><use x="130.86887" xlink:href="#j" y="402.50259"/><use x="135.85236" xlink:href="#p" y="402.50259"/><use x="140.83585" xlink:href="#b" y="402.50259"/><use x="143.60579" xlink:href="#y" y="402.50259"/><use x="151.37006" xlink:href="#a" y="402.50259"/><use x="155.79517" xlink:href="#n" y="402.50259"/><use x="160.22029" xlink:href="#l" y="402.50259"/><use x="165.20378" xlink:href="#g" y="402.50259"/><use x="167.97372" xlink:href="#h" y="402.50259"/><use x="172.14468" xlink:href="#u" y="402.50259"/><use x="176.97281" xlink:href="#h" y="402.50259"/><use x="184.18765" xlink:href="#o" y="402.50259"/><use x="187.51187" xlink:href="#j" y="402.50259"/><use x="192.49536" xlink:href="#k" y="402.50259"/><use x="198.58453" xlink:href="#N" y="402.50259"/><use x="203.56802" xlink:href="#T" y="402.50259"/><use x="211.33258" xlink:href="#g" y="402.50259"/><use x="214.10251" xlink:href="#p" y="402.50259"/><use x="219.08601" xlink:href="#c" y="402.50259"/><use x="222.96272" xlink:href="#d" y="402.50259"/><use x="225.73267" xlink:href="#a" y="402.50259"/><use x="230.15779" xlink:href="#p" y="402.50259"/><use x="235.14128" xlink:href="#n" y="402.50259"/><use x="239.56641" xlink:href="#h" y="402.50259"/><use x="243.99153" xlink:href="#c" y="402.50259"/><use x="247.86824" xlink:href="#z" y="402.50259"/><use x="253.13809" xlink:href="#C" y="402.50259"/><use x="258.67795" xlink:href="#b" y="402.50259"/><use x="261.44788" xlink:href="#e" y="402.50259"/><use x="266.43137" xlink:href="#i" y="402.50259"/><use x="271.41486" xlink:href="#i" y="402.50259"/><use x="276.39835" xlink:href="#g" y="402.50259"/><use x="279.1683" xlink:href="#p" y="402.50259"/><use x="284.15179" xlink:href="#i" y="402.50259"/><use x="50.8321" xlink:href="#H" y="414.96939"/><use x="56.37397" xlink:href="#H" y="414.96939"/><use x="61.175079" xlink:href="#I" y="414.96939"/><use x="70.660629" xlink:href="#g" y="414.96939"/><use x="73.434464" xlink:href="#p" y="414.96939"/><use x="78.417953" xlink:href="#d" y="414.96939"/><use x="81.187897" xlink:href="#j" y="414.96939"/><use x="88.447754" xlink:href="#h" y="414.96939"/><use x="92.870804" xlink:href="#g" y="414.96939"/><use x="95.640747" xlink:href="#d" y="414.96939"/><use x="98.410683" xlink:href="#l" y="414.96939"/><use x="103.39418" xlink:href="#h" y="414.96939"/><use x="107.8193" xlink:href="#k" y="414.96939"/><use x="113.42199" xlink:href="#d" y="414.96939"/><use x="116.19193" xlink:href="#l" y="414.96939"/><use x="121.17542" xlink:href="#h" y="414.96939"/><use x="127.8837" xlink:href="#Z" y="414.96939"/><use x="132.7924" xlink:href="#X" y="414.96939"/><use x="141.2419" xlink:href="#j" y="414.96939"/><use x="146.22339" xlink:href="#k" y="414.96939"/><use x="151.81689" xlink:href="#W" y="414.96939"/><use x="156.73457" xlink:href="#X" y="414.96939"/><use x="165.1841" xlink:href="#d" y="414.96939"/><use x="167.95503" xlink:href="#l" y="414.96939"/><use x="172.93951" xlink:href="#e" y="414.96939"/><use x="177.924" xlink:href="#c" y="414.96939"/><use x="184.08487" xlink:href="#c" y="414.96939"/><use x="187.96257" xlink:href="#e" y="414.96939"/><use x="192.94707" xlink:href="#v" y="414.96939"/><use x="197.93155" xlink:href="#c" y="414.96939"/><use x="201.80925" xlink:href="#d" y="414.96939"/><use x="204.58018" xlink:href="#a" y="414.96939"/><use x="209.0063" xlink:href="#p" y="414.96939"/><use x="213.99078" xlink:href="#d" y="414.96939"/><use x="216.7617" xlink:href="#g" y="414.96939"/><use x="219.53264" xlink:href="#a" y="414.96939"/><use x="223.95876" xlink:href="#b" y="414.96939"/><use x="226.72968" xlink:href="#b" y="414.96939"/><use x="229.50061" xlink:href="#y" y="414.96939"/><use x="236.7606" xlink:href="#g" y="414.96939"/><use x="239.53154" xlink:href="#m" y="414.96939"/><use x="247.28795" xlink:href="#r" y="414.96939"/><use x="252.27243" xlink:href="#k" y="414.96939"/><use x="255.59177" xlink:href="#j" y="414.96939"/><use x="260.41956" xlink:href="#u" y="414.96939"/><use x="265.24768" xlink:href="#h" y="414.96939"/><use x="269.67072" xlink:href="#f" y="414.96939"/><use x="276.94843" xlink:href="#d" y="414.96939"/><use x="279.72226" xlink:href="#l" y="414.96939"/><use x="284.70676" xlink:href="#h" y="414.96939"/><use x="50.8321" xlink:href="#p" y="427.43619"/><use x="55.815594" xlink:href="#e" y="427.43619"/><use x="60.799091" xlink:href="#m" y="427.43619"/><use x="68.554512" xlink:href="#v" y="427.43619"/><use x="73.53801" xlink:href="#h" y="427.43619"/><use x="77.963127" xlink:href="#k" y="427.43619"/><use x="82.827042" xlink:href="#j" y="427.43619"/><use x="87.810539" xlink:href="#o" y="427.43619"/><use x="92.674309" xlink:href="#k" y="427.43619"/><use x="95.992653" xlink:href="#e" y="427.43619"/><use x="100.97615" xlink:href="#p" y="427.43619"/><use x="105.95965" xlink:href="#c" y="427.43619"/><use x="111.38175" xlink:href="#g" y="427.43619"/><use x="114.1517" xlink:href="#p" y="427.43619"/><use x="120.67277" xlink:href="#t" y="427.43619"/><use x="127.86982" xlink:href="#l" y="427.43619"/><use x="132.85332" xlink:href="#g" y="427.43619"/><use x="135.62326" xlink:href="#n" y="427.43619"/><use x="140.04837" xlink:href="#l" y="427.43619"/><use x="146.56927" xlink:href="#d" y="427.43619"/><use x="149.34311" xlink:href="#l" y="427.43619"/><use x="154.3266" xlink:href="#h" y="427.43619"/><use x="160.28922" xlink:href="#a" y="427.43619"/><use x="164.71432" xlink:href="#b" y="427.43619"/><use x="167.48427" xlink:href="#i" y="427.43619"/><use x="172.46776" xlink:href="#j" y="427.43619"/><use x="177.45126" xlink:href="#k" y="427.43619"/><use x="180.76961" xlink:href="#g" y="427.43619"/><use x="183.53954" xlink:href="#d" y="427.43619"/><use x="186.30948" xlink:href="#l" y="427.43619"/><use x="191.29297" xlink:href="#m" y="427.43619"/><use x="199.0484" xlink:href="#c" y="427.43619"/><use x="204.4705" xlink:href="#n" y="427.43619"/><use x="208.89563" xlink:href="#a" y="427.43619"/><use x="213.32076" xlink:href="#p" y="427.43619"/><use x="219.84161" xlink:href="#q" y="427.43619"/><use x="225.38348" xlink:href="#p" y="427.43619"/><use x="230.36699" xlink:href="#f" y="427.43619"/><use x="236.88812" xlink:href="#d" y="427.43619"/><use x="239.65807" xlink:href="#l" y="427.43619"/><use x="244.64156" xlink:href="#h" y="427.43619"/><use x="250.60416" xlink:href="#j" y="427.43619"/><use x="255.58765" xlink:href="#r" y="427.43619"/><use x="260.57114" xlink:href="#d" y="427.43619"/><use x="263.34109" xlink:href="#g" y="427.43619"/><use x="266.11102" xlink:href="#m" y="427.43619"/><use x="273.86646" xlink:href="#e" y="427.43619"/><use x="278.84995" xlink:href="#m" y="427.43619"/><use x="286.60538" xlink:href="#s" y="427.43619"/><use x="50.8321" xlink:href="#l" y="439.89401"/><use x="55.815594" xlink:href="#j" y="439.89401"/><use x="60.545002" xlink:href="#t" y="439.89401"/><use x="67.74205" xlink:href="#h" y="439.89401"/><use x="71.912979" xlink:href="#u" y="439.89401"/><use x="76.741112" xlink:href="#h" y="439.89401"/><use x="81.164162" xlink:href="#k" y="439.89401"/><use x="84.091507" xlink:href="#s" y="439.89401"/><use x="89.856743" xlink:href="#v" y="439.89401"/><use x="94.84024" xlink:href="#j" y="439.89401"/><use x="99.823738" xlink:href="#d" y="439.89401"/><use x="102.59367" xlink:href="#l" y="439.89401"/><use x="110.8177" xlink:href="#H" y="439.89401"/><use x="116.35754" xlink:href="#H" y="439.89401"/><use x="121.15871" xlink:href="#I" y="439.89401"/><use x="128.35576" xlink:href="#F" y="439.89401"/><use x="131.6741" xlink:href="#v" y="439.89401"/><use x="136.65759" xlink:href="#a" y="439.89401"/><use x="141.08272" xlink:href="#c" y="439.89401"/><use x="144.95944" xlink:href="#h" y="439.89401"/><use x="149.38455" xlink:href="#f" y="439.89401"/><use x="157.62631" xlink:href="#u" y="439.89401"/><use x="162.35561" xlink:href="#a" y="439.89401"/><use x="166.77866" xlink:href="#k" y="439.89401"/><use x="170.097" xlink:href="#g" y="439.89401"/><use x="172.86694" xlink:href="#a" y="439.89401"/><use x="177.29205" xlink:href="#p" y="439.89401"/><use x="182.27556" xlink:href="#d" y="439.89401"/><use x="185.04549" xlink:href="#c" y="439.89401"/><use x="192.17986" xlink:href="#c" y="439.89401"/><use x="196.06268" xlink:href="#e" y="439.89401"/><use x="201.04617" xlink:href="#o" y="439.89401"/><use x="204.11815" xlink:href="#o" y="439.89401"/><use x="207.43649" xlink:href="#h" y="439.89401"/><use x="211.86162" xlink:href="#k" y="439.89401"/><use x="218.41934" xlink:href="#t" y="439.89401"/><use x="225.61639" xlink:href="#l" y="439.89401"/><use x="230.59988" xlink:href="#h" y="439.89401"/><use x="235.02501" xlink:href="#p" y="439.89401"/><use x="243.25804" xlink:href="#d" y="439.89401"/><use x="246.02798" xlink:href="#l" y="439.89401"/><use x="251.01147" xlink:href="#h" y="439.89401"/><use x="258.67719" xlink:href="#p" y="439.89401"/><use x="263.66071" xlink:href="#e" y="439.89401"/><use x="268.6442" xlink:href="#m" y="439.89401"/><use x="276.39963" xlink:href="#v" y="439.89401"/><use x="281.38312" xlink:href="#h" y="439.89401"/><use x="285.80823" xlink:href="#k" y="439.89401"/><use x="50.8321" xlink:href="#j" y="452.36081"/><use x="55.815594" xlink:href="#o" y="452.36081"/><use x="61.634838" xlink:href="#e" y="452.36081"/><use x="66.618332" xlink:href="#p" y="452.36081"/><use x="71.60183" xlink:href="#g" y="452.36081"/><use x="74.371765" xlink:href="#x" y="452.36081"/><use x="79.355263" xlink:href="#e" y="452.36081"/><use x="84.338753" xlink:href="#h" y="452.36081"/><use x="91.274704" xlink:href="#j" y="452.36081"/><use x="96.258202" xlink:href="#v" y="452.36081"/><use x="101.2417" xlink:href="#J" y="452.36081"/><use x="104.01163" xlink:href="#h" y="452.36081"/><use x="108.43676" xlink:href="#n" y="452.36081"/><use x="112.86188" xlink:href="#d" y="452.36081"/><use x="115.63182" xlink:href="#g" y="452.36081"/><use x="118.15364" xlink:href="#u" y="452.36081"/><use x="122.98176" xlink:href="#h" y="452.36081"/><use x="129.92668" xlink:href="#u" y="452.36081"/><use x="134.65598" xlink:href="#a" y="452.36081"/><use x="139.0811" xlink:href="#b" y="452.36081"/><use x="141.85104" xlink:href="#e" y="452.36081"/><use x="146.83453" xlink:href="#h" y="452.36081"/><use x="151.25966" xlink:href="#c" y="452.36081"/><use x="157.64624" xlink:href="#g" y="452.36081"/><use x="160.41618" xlink:href="#c" y="452.36081"/><use x="166.78453" xlink:href="#l" y="452.36081"/><use x="171.76802" xlink:href="#g" y="452.36081"/><use x="174.53796" xlink:href="#i" y="452.36081"/><use x="179.52145" xlink:href="#l" y="452.36081"/><use x="184.50496" xlink:href="#z" y="452.36081"/></g><g transform="translate(-32.031 -404.6)"><use x="62.181709" xlink:href="#V" y="626.85919"/><use x="68.83036" xlink:href="#j" y="626.85919"/><use x="73.81385" xlink:href="#d" y="626.85919"/><use x="76.583794" xlink:href="#l" y="626.85919"/><use x="83.07782" xlink:href="#d" y="626.85919"/><use x="85.847755" xlink:href="#y" y="626.85919"/><use x="90.831253" xlink:href="#r" y="626.85919"/><use x="95.814751" xlink:href="#h" y="626.85919"/><use x="100.23987" xlink:href="#c" y="626.85919"/><use x="105.63526" xlink:href="#j" y="626.85919"/><use x="110.61876" xlink:href="#o" y="626.85919"/><use x="115.45558" xlink:href="#l" y="626.85919"/><use x="120.38332" xlink:href="#y" y="626.85919"/><use x="125.36681" xlink:href="#v" y="626.85919"/><use x="130.35031" xlink:href="#k" y="626.85919"/><use x="133.66866" xlink:href="#g" y="626.85919"/><use x="136.43858" xlink:href="#f" y="626.85919"/><use x="141.42209" xlink:href="#g" y="626.85919"/><use x="144.19202" xlink:href="#G" y="626.85919"/><use x="148.61714" xlink:href="#a" y="626.85919"/><use x="153.04227" xlink:href="#d" y="626.85919"/><use x="155.81221" xlink:href="#g" y="626.85919"/><use x="158.58214" xlink:href="#j" y="626.85919"/><use x="163.56564" xlink:href="#p" y="626.85919"/><use x="170.05954" xlink:href="#m" y="626.85919"/><use x="177.81496" xlink:href="#h" y="626.85919"/><use x="182.24008" xlink:href="#d" y="626.85919"/><use x="185.01003" xlink:href="#l" y="626.85919"/><use x="189.99352" xlink:href="#j" y="626.85919"/><use x="194.97701" xlink:href="#f" y="626.85919"/><use x="199.96051" xlink:href="#c" y="626.85919"/><use x="205.35565" xlink:href="#c" y="626.85919"/><use x="209.23238" xlink:href="#g" y="626.85919"/><use x="212.0023" xlink:href="#i" y="626.85919"/><use x="216.98581" xlink:href="#p" y="626.85919"/><use x="221.9693" xlink:href="#g" y="626.85919"/><use x="224.73924" xlink:href="#q" y="626.85919"/><use x="230.28111" xlink:href="#n" y="626.85919"/><use x="234.70622" xlink:href="#a" y="626.85919"/><use x="239.13135" xlink:href="#p" y="626.85919"/><use x="244.11484" xlink:href="#d" y="626.85919"/><use x="246.88478" xlink:href="#b" y="626.85919"/><use x="249.65472" xlink:href="#y" y="626.85919"/><use x="256.14868" xlink:href="#g" y="626.85919"/><use x="258.91861" xlink:href="#m" y="626.85919"/><use x="266.67404" xlink:href="#r" y="626.85919"/><use x="271.65753" xlink:href="#k" y="626.85919"/><use x="274.97586" xlink:href="#j" y="626.85919"/><use x="279.80377" xlink:href="#u" y="626.85919"/><use x="284.6319" xlink:href="#h" y="626.85919"/><use x="50.831711" xlink:href="#d" y="639.32599"/><use x="53.602638" xlink:href="#l" y="639.32599"/><use x="58.587124" xlink:href="#h" y="639.32599"/><use x="66.666466" xlink:href="#a" y="639.32599"/><use x="70.891075" xlink:href="#u" y="639.32599"/><use x="75.7192" xlink:href="#h" y="639.32599"/><use x="80.142242" xlink:href="#k" y="639.32599"/><use x="83.461578" xlink:href="#a" y="639.32599"/><use x="87.887688" xlink:href="#i" y="639.32599"/><use x="92.872169" xlink:href="#h" y="639.32599"/><use x="100.96059" xlink:href="#k" y="639.32599"/><use x="104.27992" xlink:href="#h" y="639.32599"/><use x="108.70603" xlink:href="#c" y="639.32599"/><use x="112.58374" xlink:href="#e" y="639.32599"/><use x="117.56823" xlink:href="#b" y="639.32599"/><use x="120.33916" xlink:href="#d" y="639.32599"/><use x="126.75237" xlink:href="#x" y="639.32599"/><use x="131.73686" xlink:href="#e" y="639.32599"/><use x="136.72134" xlink:href="#a" y="639.32599"/><use x="141.14745" xlink:href="#b" y="639.32599"/><use x="143.91838" xlink:href="#g" y="639.32599"/><use x="146.68932" xlink:href="#d" y="639.32599"/><use x="149.46024" xlink:href="#y" y="639.32599"/><use x="158.09805" xlink:href="#n" y="639.32599"/><use x="162.52417" xlink:href="#j" y="639.32599"/><use x="167.50865" xlink:href="#m" y="639.32599"/><use x="175.26508" xlink:href="#r" y="639.32599"/><use x="180.24956" xlink:href="#a" y="639.32599"/><use x="184.67566" xlink:href="#k" y="639.32599"/><use x="187.995" xlink:href="#h" y="639.32599"/><use x="192.42111" xlink:href="#f" y="639.32599"/><use x="201.07773" xlink:href="#d" y="639.32599"/><use x="203.84865" xlink:href="#j" y="639.32599"/><use x="212.46873" xlink:href="#v" y="639.32599"/><use x="217.45322" xlink:href="#j" y="639.32599"/><use x="222.4377" xlink:href="#d" y="639.32599"/><use x="225.20863" xlink:href="#l" y="639.32599"/><use x="233.84647" xlink:href="#d" y="639.32599"/><use x="236.6203" xlink:href="#l" y="639.32599"/><use x="241.60478" xlink:href="#h" y="639.32599"/><use x="249.68436" xlink:href="#j" y="639.32599"/><use x="254.66884" xlink:href="#v" y="639.32599"/><use x="259.65332" xlink:href="#J" y="639.32599"/><use x="262.42426" xlink:href="#h" y="639.32599"/><use x="266.85037" xlink:href="#n" y="639.32599"/><use x="271.27649" xlink:href="#d" y="639.32599"/><use x="274.04739" xlink:href="#g" y="639.32599"/><use x="276.56989" xlink:href="#u" y="639.32599"/><use x="281.39798" xlink:href="#h" y="639.32599"/><use x="285.8241" xlink:href="#F" y="639.32599"/><use x="50.831711" xlink:href="#i" y="651.78381"/><use x="55.814205" xlink:href="#e" y="651.78381"/><use x="60.7967" xlink:href="#g" y="651.78381"/><use x="63.565639" xlink:href="#f" y="651.78381"/><use x="68.548134" xlink:href="#h" y="651.78381"/><use x="72.972252" xlink:href="#f" y="651.78381"/><use x="80.502426" xlink:href="#a" y="651.78381"/><use x="84.926544" xlink:href="#p" y="651.78381"/><use x="89.909042" xlink:href="#f" y="651.78381"/><use x="97.421181" xlink:href="#H" y="651.78381"/><use x="102.96205" xlink:href="#H" y="651.78381"/><use x="107.76298" xlink:href="#I" y="651.78381"/><use x="114.95902" xlink:href="#F" y="651.78381"/><use x="118.27637" xlink:href="#v" y="651.78381"/><use x="123.25887" xlink:href="#a" y="651.78381"/><use x="127.68298" xlink:href="#c" y="651.78381"/><use x="131.5587" xlink:href="#h" y="651.78381"/><use x="135.98282" xlink:href="#f" y="651.78381"/><use x="143.52" xlink:href="#Y" y="651.78381"/><use x="148.37688" xlink:href="#Z" y="651.78381"/><use x="153.28358" xlink:href="#X" y="651.78381"/><use x="161.97661" xlink:href="#u" y="651.78381"/><use x="166.7059" xlink:href="#a" y="651.78381"/><use x="171.12895" xlink:href="#k" y="651.78381"/><use x="174.44928" xlink:href="#g" y="651.78381"/><use x="177.22121" xlink:href="#a" y="651.78381"/><use x="181.64833" xlink:href="#p" y="651.78381"/><use x="186.6338" xlink:href="#d" y="651.78381"/><use x="189.40575" xlink:href="#c" y="651.78381"/><use x="193.28445" xlink:href="#z" y="651.78381"/><use x="198.31099" xlink:href="#A" y="651.78381"/><use x="204.40324" xlink:href="#l" y="651.78381"/><use x="209.38873" xlink:href="#h" y="651.78381"/><use x="216.3457" xlink:href="#W" y="651.78381"/><use x="221.2614" xlink:href="#X" y="651.78381"/><use x="227.36363" xlink:href="#Y" y="651.78381"/><use x="232.2195" xlink:href="#Z" y="651.78381"/><use x="237.12521" xlink:href="#X" y="651.78381"/><use x="243.96991" xlink:href="#aa" y="653.26971"/><use x="251.7793" xlink:href="#f" y="651.77441"/><use x="256.76093" xlink:href="#g" y="651.77441"/><use x="259.53476" xlink:href="#c" y="651.77441"/><use x="263.41757" xlink:href="#n" y="651.77441"/><use x="267.84061" xlink:href="#j" y="651.77441"/><use x="272.66855" xlink:href="#u" y="651.77441"/><use x="277.49649" xlink:href="#h" y="651.77441"/><use x="281.91953" xlink:href="#k" y="651.77441"/><use x="285.24295" xlink:href="#c" y="651.77441"/><use x="50.830292" xlink:href="#d" y="664.24121"/><use x="53.601219" xlink:href="#l" y="664.24121"/><use x="58.585705" xlink:href="#h" y="664.24121"/><use x="65.629105" xlink:href="#j" y="664.24121"/><use x="70.613586" xlink:href="#r" y="664.24121"/><use x="75.598076" xlink:href="#d" y="664.24121"/><use x="78.369003" xlink:href="#g" y="664.24121"/><use x="81.139938" xlink:href="#m" y="664.24121"/><use x="88.896347" xlink:href="#a" y="664.24121"/><use x="93.322456" xlink:href="#b" y="664.24121"/><use x="98.717758" xlink:href="#c" y="664.24121"/><use x="102.59547" xlink:href="#j" y="664.24121"/><use x="107.57995" xlink:href="#b" y="664.24121"/><use x="110.35088" xlink:href="#e" y="664.24121"/><use x="115.33537" xlink:href="#d" y="664.24121"/><use x="118.10629" xlink:href="#g" y="664.24121"/><use x="120.87723" xlink:href="#j" y="664.24121"/><use x="125.86171" xlink:href="#p" y="664.24121"/><use x="130.84619" xlink:href="#c" y="664.24121"/><use x="137.34938" xlink:href="#g" y="664.24121"/><use x="140.12032" xlink:href="#p" y="664.24121"/><use x="147.72321" xlink:href="#m" y="664.24121"/><use x="155.47961" xlink:href="#j" y="664.24121"/><use x="160.4641" xlink:href="#k" y="664.24121"/><use x="163.78343" xlink:href="#h" y="664.24121"/><use x="170.82709" xlink:href="#k" y="664.24121"/><use x="174.14642" xlink:href="#e" y="664.24121"/><use x="179.13091" xlink:href="#p" y="664.24121"/><use x="184.1154" xlink:href="#c" y="664.24121"/><use x="190.6095" xlink:href="#d" y="664.24121"/><use x="193.38043" xlink:href="#l" y="664.24121"/><use x="198.36491" xlink:href="#a" y="664.24121"/><use x="202.79102" xlink:href="#p" y="664.24121"/><use x="210.40285" xlink:href="#a" y="664.24121"/><use x="214.82896" xlink:href="#p" y="664.24121"/><use x="219.65675" xlink:href="#y" y="664.24121"/><use x="227.26846" xlink:href="#j" y="664.24121"/><use x="232.25009" xlink:href="#d" y="664.24121"/><use x="235.02101" xlink:href="#l" y="664.24121"/><use x="240.00551" xlink:href="#h" y="664.24121"/><use x="244.43161" xlink:href="#k" y="664.24121"/><use x="250.37624" xlink:href="#a" y="664.24121"/><use x="254.80235" xlink:href="#b" y="664.24121"/><use x="257.57327" xlink:href="#i" y="664.24121"/><use x="262.55777" xlink:href="#j" y="664.24121"/><use x="267.54227" xlink:href="#k" y="664.24121"/><use x="270.86157" xlink:href="#g" y="664.24121"/><use x="273.63251" xlink:href="#d" y="664.24121"/><use x="276.40344" xlink:href="#l" y="664.24121"/><use x="281.38794" xlink:href="#m" y="664.24121"/><use x="50.830292" xlink:href="#c" y="676.70801"/><use x="54.707996" xlink:href="#h" y="676.70801"/><use x="59.134109" xlink:href="#d" y="676.70801"/><use x="61.905037" xlink:href="#e" y="676.70801"/><use x="66.889526" xlink:href="#r" y="676.70801"/><use x="75.095505" xlink:href="#g" y="676.70801"/><use x="77.869331" xlink:href="#p" y="676.70801"/><use x="86.066589" xlink:href="#j" y="676.70801"/><use x="91.051079" xlink:href="#e" y="676.70801"/><use x="96.035561" xlink:href="#k" y="676.70801"/><use x="102.58455" xlink:href="#c" y="676.70801"/><use x="106.46226" xlink:href="#d" y="676.70801"/><use x="109.23319" xlink:href="#e" y="676.70801"/><use x="114.21767" xlink:href="#f" y="676.70801"/><use x="119.20216" xlink:href="#y" y="676.70801"/><use x="123.53453" xlink:href="#z" y="676.70801"/><use x="129.24507" xlink:href="#O" y="676.70801"/><use x="132.56851" xlink:href="#d" y="676.70801"/><use x="138.55795" xlink:href="#a" y="676.70801"/><use x="142.981" xlink:href="#b" y="676.70801"/><use x="145.75194" xlink:href="#c" y="676.70801"/><use x="149.62964" xlink:href="#j" y="676.70801"/><use x="157.82671" xlink:href="#q" y="676.70801"/><use x="163.36957" xlink:href="#p" y="676.70801"/><use x="168.35405" xlink:href="#f" y="676.70801"/><use x="173.33853" xlink:href="#c" y="676.70801"/><use x="180.44583" xlink:href="#d" y="676.70801"/><use x="183.21675" xlink:href="#l" y="676.70801"/><use x="188.20125" xlink:href="#h" y="676.70801"/><use x="195.84894" xlink:href="#j" y="676.70801"/><use x="200.83344" xlink:href="#r" y="676.70801"/><use x="205.81792" xlink:href="#d" y="676.70801"/><use x="208.58884" xlink:href="#g" y="676.70801"/><use x="211.35977" xlink:href="#m" y="676.70801"/><use x="219.11618" xlink:href="#e" y="676.70801"/><use x="224.10068" xlink:href="#m" y="676.70801"/><use x="235.08057" xlink:href="#m" y="676.70801"/><use x="242.83699" xlink:href="#j" y="676.70801"/><use x="247.82147" xlink:href="#c" y="676.70801"/><use x="251.69917" xlink:href="#d" y="676.70801"/><use x="257.68875" xlink:href="#j" y="676.70801"/><use x="262.67325" xlink:href="#o" y="676.70801"/><use x="265.99258" xlink:href="#d" y="676.70801"/><use x="268.76352" xlink:href="#h" y="676.70801"/><use x="273.18961" xlink:href="#p" y="676.70801"/><use x="281.39578" xlink:href="#g" y="676.70801"/><use x="284.16962" xlink:href="#p" y="676.70801"/><use x="50.830292" xlink:href="#m" y="689.16583"/><use x="58.585716" xlink:href="#j" y="689.16583"/><use x="63.56921" xlink:href="#c" y="689.16583"/><use x="67.44593" xlink:href="#d" y="689.16583"/><use x="74.489296" xlink:href="#g" y="689.16583"/><use x="77.259232" xlink:href="#p" y="689.16583"/><use x="82.242729" xlink:href="#c" y="689.16583"/><use x="86.119446" xlink:href="#d" y="689.16583"/><use x="88.889389" xlink:href="#a" y="689.16583"/><use x="93.314507" xlink:href="#p" y="689.16583"/><use x="98.298004" xlink:href="#n" y="689.16583"/><use x="102.72312" xlink:href="#h" y="689.16583"/><use x="107.14825" xlink:href="#c" y="689.16583"/><use x="115.31863" xlink:href="#a" y="689.16583"/><use x="119.74375" xlink:href="#p" y="689.16583"/><use x="124.72725" xlink:href="#f" y="689.16583"/><use x="133.9874" xlink:href="#f" y="689.16583"/><use x="138.97089" xlink:href="#h" y="689.16583"/><use x="143.39601" xlink:href="#b" y="689.16583"/><use x="146.16594" xlink:href="#g" y="689.16583"/><use x="148.68781" xlink:href="#u" y="689.16583"/><use x="153.51593" xlink:href="#h" y="689.16583"/><use x="157.94104" xlink:href="#k" y="689.16583"/><use x="161.25938" xlink:href="#c" y="689.16583"/><use x="169.42961" xlink:href="#d" y="689.16583"/><use x="172.20345" xlink:href="#l" y="689.16583"/><use x="177.18695" xlink:href="#h" y="689.16583"/><use x="185.88861" xlink:href="#v" y="689.16583"/><use x="190.87212" xlink:href="#h" y="689.16583"/><use x="195.29723" xlink:href="#c" y="689.16583"/><use x="199.17395" xlink:href="#d" y="689.16583"/><use x="206.21753" xlink:href="#a" y="689.16583"/><use x="210.64265" xlink:href="#r" y="689.16583"/><use x="215.62614" xlink:href="#r" y="689.16583"/><use x="220.60965" xlink:href="#k" y="689.16583"/><use x="223.92799" xlink:href="#j" y="689.16583"/><use x="228.91148" xlink:href="#w" y="689.16583"/><use x="233.89497" xlink:href="#g" y="689.16583"/><use x="236.66492" xlink:href="#m" y="689.16583"/><use x="244.42035" xlink:href="#a" y="689.16583"/><use x="248.84546" xlink:href="#d" y="689.16583"/><use x="251.6154" xlink:href="#g" y="689.16583"/><use x="254.38535" xlink:href="#j" y="689.16583"/><use x="259.36884" xlink:href="#p" y="689.16583"/><use x="268.64688" xlink:href="#x" y="689.16583"/><use x="273.63037" xlink:href="#e" y="689.16583"/><use x="278.61389" xlink:href="#a" y="689.16583"/><use x="283.039" xlink:href="#b" y="689.16583"/><use x="285.80893" xlink:href="#F" y="689.16583"/><use x="50.830292" xlink:href="#g" y="701.6322"/><use x="53.601219" xlink:href="#d" y="701.6322"/><use x="56.37215" xlink:href="#y" y="701.6322"/><use x="65.668175" xlink:href="#j" y="701.6322"/><use x="70.652657" xlink:href="#p" y="701.6322"/><use x="79.948639" xlink:href="#m" y="701.6322"/><use x="87.705055" xlink:href="#j" y="701.6322"/><use x="92.689537" xlink:href="#c" y="701.6322"/><use x="96.567245" xlink:href="#d" y="701.6322"/><use x="103.64745" xlink:href="#g" y="701.6322"/><use x="106.41838" xlink:href="#p" y="701.6322"/><use x="111.40286" xlink:href="#c" y="701.6322"/><use x="115.28057" xlink:href="#d" y="701.6322"/><use x="118.0515" xlink:href="#a" y="701.6322"/><use x="122.47762" xlink:href="#p" y="701.6322"/><use x="127.4621" xlink:href="#n" y="701.6322"/><use x="131.88821" xlink:href="#h" y="701.6322"/><use x="136.31432" xlink:href="#c" y="701.6322"/><use x="140.19203" xlink:href="#s" y="701.6322"/><use x="147.01109" xlink:href="#n" y="701.6322"/><use x="151.43719" xlink:href="#j" y="701.6322"/><use x="156.42169" xlink:href="#m" y="701.6322"/><use x="164.1781" xlink:href="#r" y="701.6322"/><use x="169.16258" xlink:href="#a" y="701.6322"/><use x="173.5887" xlink:href="#k" y="701.6322"/><use x="176.90804" xlink:href="#h" y="701.6322"/><use x="181.33414" xlink:href="#f" y="701.6322"/><use x="190.64818" xlink:href="#d" y="701.6322"/><use x="193.41911" xlink:href="#j" y="701.6322"/><use x="202.70599" xlink:href="#d" y="701.6322"/><use x="205.47691" xlink:href="#l" y="701.6322"/><use x="210.4614" xlink:href="#h" y="701.6322"/><use x="219.19894" xlink:href="#j" y="701.6322"/><use x="224.18057" xlink:href="#d" y="701.6322"/><use x="226.95149" xlink:href="#l" y="701.6322"/><use x="231.93599" xlink:href="#h" y="701.6322"/><use x="236.36209" xlink:href="#k" y="701.6322"/><use x="244.00984" xlink:href="#a" y="701.6322"/><use x="248.43596" xlink:href="#b" y="701.6322"/><use x="251.20688" xlink:href="#i" y="701.6322"/><use x="256.19138" xlink:href="#j" y="701.6322"/><use x="261.17584" xlink:href="#k" y="701.6322"/><use x="264.49518" xlink:href="#g" y="701.6322"/><use x="267.26611" xlink:href="#d" y="701.6322"/><use x="270.03705" xlink:href="#l" y="701.6322"/><use x="275.02155" xlink:href="#m" y="701.6322"/><use x="282.77795" xlink:href="#c" y="701.6322"/><use x="286.65564" xlink:href="#z" y="701.6322"/></g><g stroke-linecap="round" stroke-linejoin="round" stroke-width=".3"><circle cx="111.34" cy="197.19" opacity=".9" r="2.5"/><circle cx="138" cy="197.19" opacity=".9" r="2.5"/><circle cx="164.66" cy="197.19" opacity=".9" r="2.5"/></g></svg>