<svg height="139pt" viewBox="0 0 273 139" width="273pt" xmlns="http://www.w3.org/2000/svg" xmlns:xlink="http://www.w3.org/1999/xlink"><defs><g id="a"><path d="m5.953125-1.6875h-.28125c-.4375 1.015625-.9375 1.3125-2.1875 1.3125-1.484375 0-1.484375-.015625-1.484375-.421875v-2.46875l1.53125.015625c.828125.015625.984375.15625 1.109375.953125h.21875v-2.3125h-.21875c-.109375.703125-.21875.9375-1.109375.9375h-1.53125v-2.203125c0-.34375.125-.34375.328125-.34375h1.34375c1.109375 0 1.375.15625 1.515625 1.046875h.25l-.03125-1.421875h-5.28125v.1875c.625.046875.859375.109375.859375.890625v4.421875c0 .78125-.234375.859375-.859375.90625v.1875h5.375zm0 0"/></g><g id="b"><path d="m.75 1.3125c0 .421875-.046875.625-.703125.6875v.15625h2.421875v-.171875c-.71875 0-.890625-.109375-.890625-.75v-1.5625c.328125.3125.609375.421875 1.015625.421875 1.390625 0 2.09375-1.390625 2.09375-2.53125 0-1.328125-.765625-2.140625-1.640625-2.140625-.78125 0-1.234375.484375-1.4375.765625l-.03125-.03125v-.71875l-.046875-.015625c-.484375.1875-.96875.34375-1.4375.5v.15625h.28125c.34375 0 .375.15625.375.5625zm.828125-4.640625c.0625-.375.625-.65625.984375-.65625 1.21875 0 1.265625 1.609375 1.265625 1.84375 0 1.734375-.890625 1.921875-1.21875 1.921875-.5625 0-1.03125-.421875-1.03125-.65625zm0 0"/></g><g id="c"><path d="m2.859375-1.21875c0 .296875-.03125.40625-.34375.5625-.078125.046875-.390625.171875-.609375.171875-.375 0-.65625-.296875-.65625-.765625v-.03125c0-.328125.109375-.890625 1.609375-1.390625zm1.546875.5625c-.109375.09375-.234375.1875-.453125.1875-.28125 0-.28125-.28125-.28125-.578125v-1.9375c0-.609375 0-1.59375-1.484375-1.59375-1.15625 0-1.625.703125-1.625 1.09375 0 .171875.109375.4375.421875.4375.265625 0 .453125-.21875.453125-.421875 0-.09375-.046875-.234375-.046875-.390625 0-.3125.375-.484375.703125-.484375.296875 0 .765625.109375.765625.828125v.609375c-1.625.640625-2.484375.96875-2.484375 1.96875 0 .671875.515625 1.03125 1.046875 1.03125.546875 0 1.078125-.390625 1.453125-.71875.046875.71875.46875.71875.640625.71875.15625 0 .46875 0 .890625-.5zm0 0"/></g><g id="d"><path d="m.796875-.890625c0 .578125-.15625.71875-.625.734375v.15625h2.125v-.15625c-.515625-.015625-.65625-.1875-.65625-.515625v-2.796875c.375-.375.6875-.5625.984375-.5625.578125 0 .765625.359375.765625.953125v2.09375c0 .75-.265625.8125-.625.828125v.15625h2.0625v-.15625c-.484375-.03125-.59375-.1875-.59375-.65625v-2.28125c0-1.21875-.71875-1.484375-1.171875-1.484375-.59375 0-.96875.34375-1.453125.796875v-.78125l-.078125-.015625c-.453125.15625-.921875.3125-1.375.4375v.171875c.046875-.015625.15625-.03125.296875-.03125.15625 0 .34375 0 .34375.625zm0 0"/></g><g id="e"><path d="m3.390625-1.015625c-.078125.359375-.46875.59375-.890625.59375-.65625 0-1.375-.5625-1.375-2.046875 0-1.34375.671875-1.84375 1.234375-1.84375.46875 0 .953125.328125 1.03125 1zm1.5.4375c-.65625.046875-.65625-.15625-.65625-.5625v-5.640625l-.0625-.03125c-.46875.171875-.96875.3125-1.453125.4375v.171875c.078125-.015625.171875-.015625.234375-.015625.4375 0 .4375.203125.4375.5v1.5625c-.328125-.296875-.625-.421875-1.0625-.421875-1.109375 0-2.0625 1.140625-2.0625 2.4375 0 2.046875 1.421875 2.234375 1.8125 2.234375.75 0 1.109375-.359375 1.296875-.625h.015625v.59375l.03125.03125c.53125-.1875 1-.34375 1.46875-.515625zm0 0"/></g><g id="f"><path d="m.15625 0h2.359375v-.15625c-.6875-.03125-.734375-.203125-.734375-.859375v-3.546875l-.03125-.015625c-.53125.1875-1.03125.375-1.546875.546875v.140625c.125-.015625.25-.03125.390625-.03125.15625 0 .359375 0 .359375.59375v2.3125c0 .78125-.171875.84375-.796875.859375zm.625-6.296875c0 .1875.140625.5.5.5.296875 0 .515625-.21875.515625-.5s-.21875-.515625-.515625-.515625c-.359375 0-.5.328125-.5.515625zm0 0"/></g><g id="g"><path d="m.984375.890625c0-.296875.171875-.5.484375-.875.46875.109375.6875.109375 1.625.140625.734375.015625 1.21875.03125 1.21875.484375 0 .53125-.671875.96875-1.84375.96875-1.140625 0-1.484375-.40625-1.484375-.71875zm.53125-4.296875c0-.671875.390625-.90625.75-.90625.859375 0 1.015625 1.34375 1.015625 1.625 0 .21875-.046875.953125-.734375.953125-.765625 0-1.03125-.890625-1.03125-1.671875zm3.171875-.46875v-.375h-.765625c-.15625 0-.34375-.03125-.546875-.109375-.40625-.140625-.625-.21875-.96875-.21875-.765625 0-1.71875.46875-1.71875 1.65625 0 .578125.34375 1.03125.921875 1.296875-.875.78125-.875.921875-.875 1.09375 0 .265625.25.390625.515625.515625-.5.359375-.96875.765625-.96875 1.21875 0 .53125.75.96875 1.765625.96875.890625 0 2.546875-.5625 2.546875-1.6875 0-.28125-.140625-1.015625-1.203125-1.0625l-1.28125-.0625c-.3125 0-.78125-.03125-.78125-.265625 0-.203125.390625-.609375.59375-.625.0625 0 .421875.046875.546875.046875.546875 0 1.578125-.390625 1.578125-1.46875 0-.5-.09375-.6875-.1875-.921875zm0 0"/></g><g id="h"><path d="m2.4375-4.5781c-1.3281 0-2.1406 1.0781-2.1406 2.3125 0 1.3438.89062 2.3594 2.1719 2.3594 1.5156 0 2.2188-1.375 2.2188-2.3594 0-1.4531-.9375-2.3125-2.25-2.3125zm.17188 4.4062c-1.1875 0-1.4219-1.8438-1.4219-2.5781 0-1.0312.54688-1.5625 1.1719-1.5625.92188 0 1.4219 1.0938 1.4219 2.3281 0 1.4219-.65625 1.8125-1.1719 1.8125z"/></g><g id="i"><path d="m2.546875-4.484375h-1.015625v-1.15625c0-.078125 0-.125-.0625-.125-.375.515625-.515625.734375-.90625 1.125-.21875.21875-.4375.28125-.4375.40625 0 .03125.03125.0625.046875.0625h.53125v3c0 1 .40625 1.265625.90625 1.265625.46875 0 .9375-.328125 1.171875-.75l-.125-.109375c-.109375.125-.296875.34375-.609375.34375-.515625 0-.515625-.578125-.515625-.890625v-2.859375h1.015625zm0 0"/></g><g id="j"><path d="m4.859375-.15625c-.5-.078125-.609375-.140625-.609375-.859375v-1.984375c0-.40625 0-1.578125-1.234375-1.578125-.59375 0-1.078125.3125-1.4375.8125h-.015625v-3.015625l-.046875-.03125c-.484375.171875-.96875.3125-1.421875.4375v.171875c.03125-.015625.140625-.015625.203125-.015625.4375 0 .4375.203125.4375.5v4.703125c0 .71875-.109375.796875-.640625.859375v.15625h2.15625v-.15625c-.5-.046875-.6875-.09375-.6875-.859375v-2.40625c.40625-.46875.796875-.625 1.09375-.625.546875 0 .765625.390625.765625 1.0625v1.96875c0 .765625-.1875.8125-.6875.859375v.15625h2.125zm0 0"/></g><g id="k"><path d="m3.140625-3.125-.046875-1.375h-.109375c-.03125.046875-.078125.109375-.15625.109375-.171875 0-.484375-.1875-.921875-.1875-.96875 0-1.390625.65625-1.390625 1.203125 0 .75.546875 1.109375 1.15625 1.46875l.578125.328125c.328125.171875.515625.40625.515625.734375 0 .5625-.46875.71875-.796875.71875-.984375 0-1.171875-.859375-1.296875-1.390625h-.15625v1.5625h.125c.0625-.09375.109375-.125.234375-.125.265625-.015625.703125.171875 1.15625.171875.625 0 1.4375-.40625 1.4375-1.28125 0-.59375-.34375-.875-.84375-1.171875l-1.0625-.640625c-.375-.21875-.4375-.515625-.4375-.703125 0-.265625.203125-.65625.765625-.65625.4375 0 .875.21875 1.09375 1.234375zm0 0"/></g><g id="l"><path d="m.75-.84375c0 .5625-.15625.59375-.703125.6875v.15625h2.390625v-.15625c-.5-.015625-.84375-.046875-.84375-.734375v-2.25c0-.3125.4375-.8125.671875-.8125.25 0 .34375.34375.6875.34375.25 0 .390625-.1875.390625-.4375 0-.328125-.203125-.53125-.546875-.53125-.375 0-.71875.1875-1.1875.90625h-.015625v-.890625l-.046875-.015625c-.484375.1875-.984375.375-1.484375.53125v.15625c.09375-.015625.203125-.03125.34375-.03125.15625 0 .34375 0 .34375.59375zm0 0"/></g><g id="m"><path d="m.3125-4.171875h.671875v3.234375c0 .703125-.171875.78125-.671875.78125v.15625h2.203125v-.15625c-.671875-.015625-.6875-.328125-.6875-.71875v-3.296875c.203125 0 1.375.03125 1.5.03125.328125.046875.359375.15625.359375.546875v2.625c0 .59375-.015625.78125-.6875.8125v.15625h2.1875v-.15625c-.5-.03125-.65625-.140625-.65625-.8125v-2.609375c0-.25 0-.65625.015625-.984375l-.046875-.015625c-.328125.046875-.75.09375-1.125.09375h-1.5625c-.015625-.671875-.015625-1.140625.109375-1.4375.125-.28125.453125-.640625.921875-.640625.75 0 .703125.84375 1.234375.84375.1875 0 .34375-.171875.34375-.375 0-.515625-.609375-.71875-1.25-.71875-1.390625 0-2.125.84375-2.171875 2.328125h-.6875zm0 0"/></g><g id="n"><path d="m.828125 1.40625c.296875-.09375 1.109375-.765625 1.109375-1.46875 0-.828125-.578125-.953125-.796875-.953125-.25 0-.578125.140625-.578125.578125 0 .390625.359375.5.609375.5.078125 0 .125-.015625.15625-.015625.03125-.015625.0625-.03125.09375-.03125.0625 0 .140625.046875.140625.140625 0 .1875-.171875.640625-.828125 1.0625zm0 0"/></g><g id="o"><path d="m5.6875-4.484375v.140625c.25.0625.4375.09375.4375.34375 0 .109375-.046875.375-.15625.625l-.90625 2.21875-.796875-2.140625c-.15625-.375-.203125-.484375-.203125-.671875 0-.28125.25-.3125.578125-.375v-.140625h-2.03125v.140625c.40625.0625.515625.125.890625 1.25l-.90625 1.984375c-.453125-1.265625-1.046875-2.546875-1.046875-2.890625 0-.28125.234375-.3125.453125-.34375v-.140625h-1.796875v.140625c.25.03125.328125.15625.53125.640625l1.34375 3.40625c.140625.34375.1875.4375.265625.4375.0625 0 .109375-.109375.25-.390625l1.109375-2.390625.90625 2.34375c.140625.359375.171875.4375.25.4375s.109375-.09375.28125-.484375l1.375-3.453125c.140625-.375.1875-.46875.40625-.546875v-.140625zm0 0"/></g><g id="p"><path d="m4.0625-1.6406c-.21875.375-.65625 1.0469-1.5469 1.0469-.65625 0-1.4531-.40625-1.5781-2.1719h3.0938c-.10938-1.2969-.8125-1.8125-1.75-1.8125-.79688 0-2.0312.59375-2.0312 2.4375 0 1.4219.75 2.2344 1.8594 2.2344 1.4375 0 2.0156-1.3438 2.125-1.6562zm-3.0938-1.4375c.15625-.875.54688-1.1562 1.0938-1.1562.78125 0 .89062.67188.95312 1.1562z"/></g><g id="q"><path d="m3.96875-1.5625c-.34375.515625-.703125.9375-1.421875.9375-.84375 0-1.53125-.75-1.53125-1.890625 0-1.46875.921875-1.78125 1.28125-1.78125.53125 0 .578125.1875.65625.484375l.0625.21875c.0625.21875.234375.46875.5.453125.296875-.015625.453125-.203125.453125-.4375 0-.1875-.125-.484375-.4375-.703125-.234375-.15625-.6875-.296875-1.046875-.296875-1.078125 0-2.234375.8125-2.234375 2.453125 0 1.578125 1.0625 2.21875 1.859375 2.21875.8125 0 1.453125-.421875 2-1.5625zm0 0"/></g><g id="r"><path d="m3.078125-4.484375h-1.21875v-1.15625c0-.375.046875-.890625.59375-.890625.46875 0 .515625.75.9375.75.203125 0 .421875-.125.421875-.421875 0-.34375-.4375-.609375-.984375-.609375-1.796875 0-1.796875 1.765625-1.796875 2.328125h-.828125v.3125h.828125v3.140625c0 .765625-.171875.859375-.828125.875v.15625h2.59375v-.15625c-.921875-.015625-.9375-.265625-.9375-.875v-3.140625h1.21875zm0 0"/></g><g id="s"><path d="m.859375-.84375c0 .671875-.296875.6875-.703125.6875v.15625h2.21875v-.15625c-.34375 0-.6875-.015625-.6875-.515625v-2.8125c0-.046875.46875-.578125 1.15625-.578125.515625 0 .6875.390625.6875 1.046875v2.15625c0 .65625-.234375.6875-.6875.703125v.15625h2.234375v-.15625c-.40625 0-.71875-.03125-.71875-.796875v-2.5c.21875-.34375.5625-.609375 1.109375-.609375.71875 0 .734375.578125.734375 1.09375v2.09375c0 .640625-.15625.671875-.65625.71875v.15625h2.171875v-.15625l-.25-.015625c-.4375-.0625-.4375-.359375-.4375-.578125v-2.0625c0-.734375-.140625-1.765625-1.171875-1.765625-.78125 0-1.390625.59375-1.609375.828125-.109375-.421875-.40625-.828125-1.0625-.828125-.53125 0-.9375.3125-1.53125.765625v-.75l-.078125-.015625c-.453125.15625-.921875.3125-1.390625.4375v.171875c.078125-.015625.1875-.03125.328125-.03125.15625 0 .34375 0 .34375.625zm0 0"/></g><g id="t"><path d="m4.78125-2.296875v-2.3125h-.234375c-.09375.734375-.28125.9375-1.09375.9375h-1.453125v-2.203125c0-.3125.078125-.34375.328125-.34375h1.34375c1.109375 0 1.375.15625 1.515625 1.046875h.25l-.03125-1.421875h-5.28125v.1875c.625.046875.859375.109375.859375.890625v4.3125c0 .828125-.109375.96875-.859375 1.015625v.1875h2.78125v-.1875c-.703125-.03125-.90625-.15625-.90625-.90625v-2.171875l1.453125.015625c.75.015625.984375.109375 1.09375.953125zm0 0"/></g><g id="u"><path d="m1.25.109375c.203125 0 .546875-.171875.546875-.53125 0-.3125-.25-.578125-.546875-.578125s-.546875.25-.546875.578125c0 .375.328125.53125.546875.53125zm0 0"/></g><g id="v"><path d="m1.7969-5.8125h1.9688c.10938 0 .1875 0 .21875-.09375l.375-.875-.078125-.078125c-.10938.15625-.20312.26562-.46875.26562h-2.0781l-1.0938 2.3594c-.015625.0625 0 .125.0625.125 1.0781.046875 2.8438.51562 2.8438 2.1094 0 1.2188-.73438 1.7656-1.3906 1.7656-.53125 0-.79688-.60938-1.4375-.60938-.40625 0-.40625.28125-.40625.39062 0 .35938.46875.59375 1.2656.59375 1.5781 0 2.6719-1.0625 2.6719-2.3906 0-.875-.10938-1.1719-.54688-1.6875-.57812-.71875-1.5156-.89062-2.3125-1.0312z"/></g><g id="w"><path d="m7.03125-.1875c-.4375-.03125-.578125-.140625-.890625-.875l-2.484375-5.65625h-.203125l-2.0625 4.890625c-.1875.4375-.5 1.171875-.734375 1.421875-.171875.1875-.34375.203125-.5.21875v.1875h1.96875v-.1875c-.21875 0-.671875 0-.671875-.421875 0-.109375.015625-.25.078125-.375l.453125-1.171875h2.609375l.40625.953125c.0625.140625.1875.46875.1875.640625 0 .359375-.328125.375-.6875.375v.1875h2.53125zm-4.875-2.375 1.140625-2.734375 1.15625 2.734375zm0 0"/></g><g id="x"><path d="m4.75-4.484375h-1.375v.140625c.25.015625.46875.109375.46875.34375 0 .34375-.71875 1.90625-1.046875 2.859375l-1.015625-2.546875c-.03125-.078125-.09375-.234375-.09375-.34375 0-.25.21875-.28125.453125-.3125v-.140625h-1.953125v.140625c.203125.015625.40625.078125.546875.375.359375.703125 1.3125 3.015625 1.5625 3.640625.15625.421875.171875.46875.265625.46875.0625 0 .15625-.234375.265625-.5l1.28125-3.203125c.234375-.578125.3125-.75.640625-.78125zm0 0"/></g><g id="y"><path d="m2.5-6.4844c1.2656 0 1.2812 2.5 1.2812 3.1875 0 .78125-.015625 3.1719-1.2812 3.1719-1.2812 0-1.2969-2.375-1.2969-3.1719 0-.6875.015625-3.1875 1.2969-3.1875zm0-.25c-1.8438 0-2.2656 2.2656-2.2656 3.4375 0 1.2031.42188 3.4375 2.2656 3.4375 1.8281 0 2.25-2.2344 2.25-3.4375 0-1.1719-.42188-3.4375-2.25-3.4375z"/></g><g id="z"><path d="m4.78125-.5c-.609375.015625-.625-.203125-.625-.5625v-3.421875h-1.578125v.171875c.703125.015625.734375.21875.734375.625v2.34375c0 .328125-.0625.421875-.15625.5-.265625.21875-.5625.359375-.859375.359375-.65625 0-.75-.609375-.75-.75v-3.25h-1.453125v.140625c.296875.015625.609375.03125.609375.640625v2.5c0 1.0625.78125 1.296875 1.1875 1.296875.1875 0 .65625-.03125 1.046875-.421875l.4375-.421875v.8125l.015625.03125c.46875-.171875.84375-.3125 1.390625-.453125zm0 0"/></g><g id="A"><path d="m.203125 0h2.359375v-.15625c-.578125-.015625-.75-.109375-.75-.6875v-5.9375l-.03125-.03125c-.53125.171875-1.0625.3125-1.59375.4375v.171875c.125-.015625.21875-.03125.34375-.03125.390625 0 .453125.15625.453125.609375v4.75c0 .5625-.1875.6875-.78125.71875zm0 0"/></g><g id="B"><path d="m.39062-2.5625v.625h2.4531v-.625z"/></g><g id="C"><path d="m4.5-.1875c-.82812-.03125-.95312-.21875-.95312-.90625v-5.0938h.54688c1.0938 0 1.375.1875 1.5781 1.2812h.23438l-.046875-1.6875h-5.625l-.0625 1.6875h.23438c.21875-1.0781.48438-1.2812 1.5938-1.2812h.53125v4.9844c0 .75-.03125.96875-.9375 1.0156v.1875h2.9062z"/></g><g id="D"><path d="m.171875 0h2.96875v-.1875c-.734375-.015625-.984375-.125-.984375-.90625v-4.421875c0-.796875.25-.859375.984375-.890625v-.1875h-2.96875v.1875c.828125.03125.96875.15625.96875.890625v4.421875c0 .71875-.109375.890625-.96875.90625zm0 0"/></g><g id="E"><path d="m6.5625-.1875c-.40625-.015625-.64062-.20312-.85938-.46875l-2.0469-2.5312c.5-.09375 1.7969-.32812 1.7969-1.6719 0-1.5312-1.6406-1.7344-2.5312-1.7344h-2.75v.1875c.70312.0625.84375.15625.84375.89062v4.3125c0 .75-.03125.96875-.84375 1.0156v.1875h2.7656v-.1875c-.79688-.046875-.90625-.23438-.90625-.90625v-1.9531l.5625-.03125 2.375 3.0781h1.5938zm-4.5312-5.6875c0-.28125.09375-.35938.625-.35938.40625 0 1.7031.03125 1.7031 1.3594 0 1.4219-1.4844 1.4531-2.3281 1.4531z"/></g><g id="F"><path d="m1.53125-3.203125c.03125-.578125.671875-.75.984375-.75.90625 0 1.265625 1.015625 1.265625 1.953125 0 .65625-.15625 1.78125-1.296875 1.78125-.25 0-.953125-.125-.953125-.484375zm-.84375 2.671875c0 .359375 1.046875.625 1.546875.625 1.84375 0 2.4375-1.5625 2.4375-2.46875 0-1.0625-.578125-2.203125-1.78125-2.203125-.75 0-1.28125.578125-1.34375.796875h-.015625v-3l-.0625-.03125c-.46875.171875-.953125.3125-1.4375.4375v.171875c.0625-.015625.15625-.015625.21875-.015625.4375 0 .4375.203125.4375.5zm0 0"/></g><g id="G"><path d="m4.7344-1.3594-.125-.0625c-.39062.64062-.57812.67188-.95312.67188h-2.375l1.6719-1.7656c.4375-.46875 1.2812-1.375 1.2812-2.4219 0-1.125-.90625-1.7969-1.8125-1.7969-.875 0-1.8125.46875-2.1094 1.9844l.20312.046875c.21875-.54688.51562-1.2969 1.4219-1.2969 1.1875 0 1.4375.92188 1.4375 1.4219 0 .75-.4375 1.6406-1.2969 2.5781l-1.7812 1.875v.125h3.8906z"/></g><g id="H"><path d="m4.4688-6.5938h-3.6875l-.15625.4375-.42188 1.0156.17188.09375c.32812-.53125.5-.8125 1.1562-.8125h2.1562l-1.9688 5.9375h.64062l2.1094-6.5156z"/></g><g id="I"><path d="m3.5938.14062c1.8125 0 3.2656-1.3125 3.2656-3.4375 0-2.2812-1.625-3.4375-3.2656-3.4375-1.625 0-3.25 1.1562-3.25 3.4375 0 2.125 1.4531 3.4375 3.25 3.4375zm0-.35938c-1.0938 0-2.125-.89062-2.125-3.0781 0-2.2812 1.1094-3.0781 2.125-3.0781s2.125.79688 2.125 3.0781c0 2.1875-1.0156 3.0781-2.125 3.0781z"/></g><g id="J"><path d="m7.2188-3.0625v-.5625h-6.6562v.5625zm0 2.0156v-.5625h-6.6562v.5625z"/></g><g id="K"><path d="m6.6719 1.3281v-.5h-5.8281v.5zm-4.6719-4.5625 4.6719-1.7812v-.48438l-5.8281 2.2344v.0625l5.8281 2.2344v-.45312z"/></g><g id="L"><path d="m.359375-1.453125-.203125 1.578125h.15625c.0625-.109375.109375-.203125.25-.203125.28125 0 .6875.1875.984375.1875.5625 0 1.484375-.25 1.484375-1.328125 0-.859375-1.21875-1.734375-1.21875-2.375 0-.484375.328125-.578125.546875-.578125.640625 0 .875.578125.9375 1.15625h.15625l.203125-1.390625h-.140625c-.0625.078125-.109375.171875-.28125.171875-.296875 0-.5-.15625-.953125-.15625-1.0625 0-1.1875.796875-1.1875 1.09375 0 .78125 1.171875 1.734375 1.171875 2.390625 0 .328125-.15625.8125-.703125.8125-.8125 0-.96875-.921875-1.046875-1.359375zm0 0"/></g><g id="M"><path d="m4.625-1.09375c-.453125.4375-.640625.6875-.796875.6875-.078125 0-.140625-.0625-.140625-.125 0-.3125.921875-3.71875.953125-3.828125l-.078125-.03125-.609375.0625-.03125.03125-.09375.4375h-.015625c-.03125-.28125-.359375-.53125-.796875-.53125-1.328125 0-2.84375 1.859375-2.84375 3.328125 0 .28125.03125 1.171875 1.03125 1.171875.59375 0 1.125-.296875 1.953125-1.515625l.015625.015625c-.15625.609375-.21875.828125-.21875 1.0625 0 .171875 0 .421875.421875.421875.4375 0 .765625-.359375 1.375-1.09375zm-3.625 0c0-.890625.90625-3.078125 2.078125-3.078125.28125 0 .5625.1875.5625.65625 0 .984375-.984375 3.140625-2.03125 3.140625-.28125 0-.609375-.1875-.609375-.71875zm0 0"/></g><g id="N"><path d="m4.578125-1.171875c-.359375.46875-.609375.796875-.8125.796875-.015625 0-.15625-.03125-.15625-.171875 0-.296875.796875-2.765625.796875-3.1875s-.234375-.65625-.6875-.65625c-.828125 0-1.75 1.375-2.21875 2.125l-.015625-.03125.640625-2.078125-.03125-.015625c-.53125.109375-1.078125.203125-1.609375.296875v.171875c.53125 0 .625.109375.625.25 0 .21875-.65625 2.546875-.96875 3.671875h.75c.40625-1.359375.53125-1.78125 1-2.46875.359375-.5625.984375-1.421875 1.453125-1.421875.1875 0 .25.140625.25.328125 0 .390625-.734375 2.828125-.734375 3.0625 0 .296875.015625.59375.484375.59375.53125 0 .890625-.46875 1.375-1.125zm0 0"/></g><g id="O"><path d="m.15625-3.984375c.109375-.03125.1875-.046875.328125-.046875.578125 0 .703125.4375.96875 1.34375.171875.53125.59375 2.28125.59375 2.65625 0 .265625-.421875.765625-.671875 1.046875-.34375.40625-.46875.484375-.625.484375-.1875 0-.3125-.28125-.609375-.28125-.203125 0-.375.171875-.375.390625 0 .421875.421875.4375.5.4375 1.1875 0 3.984375-4.640625 3.984375-5.828125 0-.359375-.203125-.609375-.578125-.609375-.25 0-.359375.203125-.359375.34375 0 .453125.53125.34375.53125.75 0 .53125-.78125 1.875-1.21875 2.578125l-.1875-1.15625c-.140625-.75-.71875-2.53125-.859375-2.515625-.171875 0-.953125.15625-1.421875.234375zm0 0"/></g></defs><path d="m191.94 2.1417c-3.7159 3.5424-4.196-.44797-5.6367 3.1682-3.908-1.5091-5.881 7.6096-7.6167-3.8708-5.1353 3.2033-3.7259 9.999-5.8654 12.685 1.4462-2.4904-9.6599 3.1244-9.8899.78765-4.5957 4.9779 3.9318-9.1782-4.1722-4.3492.25921-4.6396-9.3259 8.6883-5.2765 4.2136-5.0034 1.8925-2.7892-6.5803-4.117-3.4475.81695-4.299-4.1052 6.4735-7.5237 3.6556-4.8805 2.7408-6.6603-10.814-9.0432-8.4367-1.8047-2.4043-3.6545 9.8058-6.3884 8.827-3.515 2.8343-5.7758-5.9536-8.0429-2.1443-.97373-4.4598-7.2653.37407-10.222-3.5776-2.623-2.168-10.466 15.641-9.9032 1.297-7.613 2.1425-10.471 7.5992-15.453 3.2354-3.9998-4.1053-8.5734-9.8018-8.9865-5.361-8.3204-2.5085-7.4088 5.6913-12.798 2.0286-1.1988 2.3553-6.2764-5.1473-9.8573-2.3234-3.2195-2.3659-4.3034 6.4313-5.6734 3.7283-4.2391 1.5848-6.1315-8.4352-8.2288-6.4442-.7438-2.0569-.78551 7.0214-5.6924 5.3863-2.7611 1.7751-4.7881-6.3944-9.0092-5.5971-2.2233 1.8331-5.4168 6.9905-6.1288 8.3362-1.5501-1.8401-.56091-4.2015-4.5635-5.6533-4.7186 3.945-6.8683 4.1097-7.9912 8.2611-2.9604 33.135-3.4206 67.109-.29221 97.81 1.1229 4.1515 3.5649 8.2275 8.2834 12.173 4.0026-1.4518 6.7333-3.1047 8.2834-4.9448.71192 1.3458.366 2.3515 2.5893 4.1846 4.221.79727 5.5224 3.5486 8.2834 5.3237 4.9068-1.6351 6.1167-3.6481 6.8605-5.705 2.0973 1.9909 5.4673 3.7413 9.7064 5.3261 1.37-2.703 3.641-5.2432 6.8605-7.609 3.581 2.8239 7.0846 5.6326 8.2834 7.9879 5.3891-3.6628 10.636-7.3811 18.957-9.8896.41309 4.4408.97072 8.8226 4.0146 12.173 2.0019-3.8669 4.831-7.4704 12.552-9.5107 7.2074 2.9573 10.027 6.7174 13.975 10.271 2.9569-3.9516 5.1765-8.0916 6.1502-12.551 2.2671 3.8094 4.7684 7.4342 8.2834 10.268 2.7338-.97884 4.3432-3.6795 6.1478-6.0838 2.3829 2.3771 5.5385 4.8658 10.419 7.6066 3.4185-2.8178 6.9648-5.5905 6.1478-9.8896 1.3278 3.1328 5.4156 5.3352 10.419 7.2277-4.0494-4.4748-5.6891-9.0557-5.9483-13.695 8.104 4.829 11.515 9.8565 16.111 14.834.22999-2.3368-.23331-4.735-1.6795-7.2253 2.1395 2.686 5.2814 5.5448 10.417 8.7481-.25094-2.9558 2.2422-4.9584 6.1502-6.4675 1.4407 3.6161 6.7008 7.1098 10.417 10.652 2.9334-3.7323 6.4683-7.5021 6.1502-11.031 1.6817 2.7938 4.825 5.1692 10.417 6.8464 3.8626-5.253 2.0646-12.006 1.3897-18.46.84295-.009.81918.71138 1.6624.70368 3.2055 5.1682 7.2683 9.6093 13.515 14.713 4.0476-1.8928 7.7366-4.0362 8.2834-8.3692 3.5034.0256 7.3559-.53112 8.2834 3.8057 7.1354-2.0444 10.353-2.6548 13.254-7.1775 1.7931-.0203 2.6098-1.733 4.4042-1.7536 2.5826 4.3927 4.5692 6.562 6.0256 11.211.63709-10.007 1.3266-20.142 1.8909-30.338 1.2683-20.737 1.5427-41.26.006-60.512-.56516-10.228-1.259-20.395-1.898-30.434-1.4563 4.6492-5.0025 13.76-8.0114 4.3492-1.7944-.0206-1.2987 9.2513-3.0918 9.231-3.9897-5.7301-5.3454-15.581-12.105-4.6834-.92757 4.3368-7.9839 5.2835-8.7572-2.8105-.54684-4.333-4.2216 7.019-8.2692 5.1263-6.2465 5.1044-3.8788-10.839-7.0843-5.6713 5.2805-15.658-7.2651 7.6003-8.1072 7.5928.67487-6.4545-2.0527-1.2339-5.9154-6.4868-5.5916 1.6772-4.2116-7.9207-5.8933-5.1269.31813-3.5289-2.8712 2.5146-5.8046-1.2176z" fill="#fffff0" stroke="#c8c8c8" stroke-linecap="round" stroke-linejoin="round" stroke-width=".5"/><g transform="translate(-301.09 -507.09)"><use x="321.94543" xlink:href="#t" y="537.04504"/><use x="327.48526" xlink:href="#l" y="537.04504"/><use x="330.80237" xlink:href="#h" y="537.04504"/><use x="335.78403" xlink:href="#s" y="537.04504"/><use x="346.85052" xlink:href="#C" y="537.04504"/><use x="352.13608" xlink:href="#c" y="537.04504"/><use x="356.55954" xlink:href="#F" y="537.04504"/><use x="361.5412" xlink:href="#A" y="537.04504"/><use x="364.31012" xlink:href="#p" y="537.04504"/><use fill="#00f" x="372.064" xlink:href="#D" y="537.04602"/><use x="375.38599" xlink:href="#n" y="537.04602"/><use x="381.19382" xlink:href="#o" y="537.04602"/><use x="388.38821" xlink:href="#p" y="537.04602"/><use x="396.12314" xlink:href="#q" y="537.04602"/><use x="400.5466" xlink:href="#c" y="537.04602"/><use x="404.97009" xlink:href="#d" y="537.04602"/><use x="413.28094" xlink:href="#k" y="537.04602"/><use x="417.15622" xlink:href="#p" y="537.04602"/><use x="421.57971" xlink:href="#p" y="537.04602"/><use x="429.31412" xlink:href="#i" y="537.04602"/><use x="432.08719" xlink:href="#j" y="537.04602"/><use x="437.06885" xlink:href="#c" y="537.04602"/><use x="441.49234" xlink:href="#i" y="537.04602"/><g fill="#f00" stroke="#f00" stroke-linecap="round" stroke-linejoin="round" stroke-width=".5"><use x="447.57941" xlink:href="#i" y="537.04602"/><use x="450.34833" xlink:href="#j" y="537.04602"/><use x="455.32996" xlink:href="#p" y="537.04602"/><use x="463.07358" xlink:href="#j" y="537.04602"/><use x="468.05328" xlink:href="#f" y="537.04602"/><use x="470.82217" xlink:href="#g" y="537.04602"/><use x="475.80383" xlink:href="#j" y="537.04602"/><use x="480.78549" xlink:href="#p" y="537.04602"/><use x="485.20895" xlink:href="#k" y="537.04602"/><use x="489.08426" xlink:href="#i" y="537.04602"/><use x="495.18021" xlink:href="#d" y="537.04602"/><use x="500.16187" xlink:href="#z" y="537.04602"/><use x="505.14352" xlink:href="#s" y="537.04602"/><use x="512.89606" xlink:href="#F" y="537.04602"/><use x="517.87769" xlink:href="#p" y="537.04602"/><use x="522.30121" xlink:href="#l" y="537.04602"/><use x="528.9552" xlink:href="#h" y="537.04602"/><use x="533.93689" xlink:href="#r" y="537.04602"/><use x="540.57318" xlink:href="#r" y="537.04602"/><use x="543.79657" xlink:href="#c" y="537.04602"/><use x="548.21808" xlink:href="#f" y="537.04602"/><use x="550.987" xlink:href="#A" y="537.04602"/><use x="553.75592" xlink:href="#p" y="537.04602"/><use x="558.17938" xlink:href="#e" y="537.04602"/><use x="311.97821" xlink:href="#l" y="549.00378"/><use x="315.29532" xlink:href="#z" y="549.00378"/><use x="320.27698" xlink:href="#d" y="549.00378"/><use x="325.25861" xlink:href="#k" y="549.00378"/><use x="333.37119" xlink:href="#c" y="549.00378"/><use x="337.79465" xlink:href="#i" y="549.00378"/><use x="344.79968" xlink:href="#k" y="549.00378"/><use x="348.67496" xlink:href="#q" y="549.00378"/><use x="353.09845" xlink:href="#c" y="549.00378"/><use x="357.52191" xlink:href="#A" y="549.00378"/><use x="360.29083" xlink:href="#p" y="549.00378"/><use x="368.95709" xlink:href="#L" y="549.00378"/><use x="376.97076" xlink:href="#J" y="549.00378"/><use x="388.89267" xlink:href="#G" y="549.00378"/><use x="393.87231" xlink:href="#v" y="549.00378"/><use x="398.85196" xlink:href="#y" y="549.00378"/><use x="408.07275" xlink:href="#h" y="549.00378"/><use x="413.0524" xlink:href="#r" y="549.00378"/><use x="420.60556" xlink:href="#M" y="549.00378"/><use x="425.58521" xlink:href="#N" y="549.00378"/><use x="430.56488" xlink:href="#O" y="549.00378"/><use x="439.23566" xlink:href="#c" y="549.00378"/><use x="443.65915" xlink:href="#A" y="549.00378"/><use x="446.42807" xlink:href="#g" y="549.00378"/><use x="451.40973" xlink:href="#h" y="549.00378"/><use x="456.39136" xlink:href="#l" y="549.00378"/><use x="459.70847" xlink:href="#f" y="549.00378"/><use x="462.47739" xlink:href="#i" y="549.00378"/><use x="465.24631" xlink:href="#j" y="549.00378"/><use x="470.22797" xlink:href="#s" y="549.00378"/><use x="482.21265" xlink:href="#z" y="549.00378"/><use x="487.19232" xlink:href="#k" y="549.00378"/><use x="491.06763" xlink:href="#f" y="549.00378"/><use x="493.83652" xlink:href="#d" y="549.00378"/><use x="498.81818" xlink:href="#g" y="549.00378"/><use x="508.03879" xlink:href="#t" y="549.00378"/><use x="513.57861" xlink:href="#t" y="549.00378"/><use x="518.37787" xlink:href="#w" y="549.00378"/><use x="529.81342" xlink:href="#f" y="549.00378"/><use x="532.58649" xlink:href="#k" y="549.00378"/><use x="540.68994" xlink:href="#A" y="549.00378"/><use x="543.46301" xlink:href="#h" y="549.00378"/><use x="548.19037" xlink:href="#o" y="549.00378"/><use x="555.38477" xlink:href="#p" y="549.00378"/><use x="559.80823" xlink:href="#l" y="549.00378"/><use x="311.97867" xlink:href="#i" y="560.97058"/><use x="314.74658" xlink:href="#j" y="560.97058"/><use x="319.72723" xlink:href="#c" y="560.97058"/><use x="324.14972" xlink:href="#d" y="560.97058"/><use x="332.97357" xlink:href="#i" y="560.97058"/><use x="335.74149" xlink:href="#j" y="560.97058"/><use x="340.72214" xlink:href="#p" y="560.97058"/><use x="348.98804" xlink:href="#A" y="560.97058"/><use x="351.76108" xlink:href="#h" y="560.97058"/><use x="356.48843" xlink:href="#o" y="560.97058"/><use x="363.68295" xlink:href="#p" y="560.97058"/><use x="368.10544" xlink:href="#k" y="560.97058"/><use x="371.97974" xlink:href="#i" y="560.97058"/><use x="378.59821" xlink:href="#d" y="560.97058"/><use x="383.57886" xlink:href="#z" y="560.97058"/><use x="388.55951" xlink:href="#s" y="560.97058"/><use x="396.31107" xlink:href="#F" y="560.97058"/><use x="401.29172" xlink:href="#p" y="560.97058"/><use x="405.7142" xlink:href="#l" y="560.97058"/><use x="412.89078" xlink:href="#h" y="560.97058"/><use x="417.87143" xlink:href="#r" y="560.97058"/><use x="425.02985" xlink:href="#r" y="560.97058"/><use x="428.25327" xlink:href="#c" y="560.97058"/><use x="432.67477" xlink:href="#f" y="560.97058"/><use x="435.44269" xlink:href="#A" y="560.97058"/><use x="438.2106" xlink:href="#p" y="560.97058"/><use x="442.63309" xlink:href="#e" y="560.97058"/><use x="451.45718" xlink:href="#l" y="560.97058"/><use x="454.78024" xlink:href="#z" y="560.97058"/><use x="459.76089" xlink:href="#d" y="560.97058"/><use x="464.74155" xlink:href="#k" y="560.97058"/><use x="472.45834" xlink:href="#h" y="560.97058"/><use x="477.439" xlink:href="#r" y="560.97058"/><use x="484.60867" xlink:href="#M" y="560.97058"/><use x="489.58932" xlink:href="#N" y="560.97058"/><use x="494.56998" xlink:href="#O" y="560.97058"/><use x="502.84268" xlink:href="#b" y="560.97058"/><use x="507.82532" xlink:href="#z" y="560.97058"/><use x="512.80792" xlink:href="#l" y="560.97058"/><use x="516.12604" xlink:href="#p" y="560.97058"/><use x="524.39191" xlink:href="#c" y="560.97058"/><use x="528.81335" xlink:href="#A" y="560.97058"/><use x="531.58331" xlink:href="#g" y="560.97058"/><use x="536.56592" xlink:href="#h" y="560.97058"/><use x="541.54858" xlink:href="#l" y="560.97058"/><use x="544.86664" xlink:href="#f" y="560.97058"/><use x="547.6366" xlink:href="#i" y="560.97058"/><use x="550.40649" xlink:href="#j" y="560.97058"/><use x="555.3891" xlink:href="#s" y="560.97058"/><use x="311.97968" xlink:href="#c" y="572.92841"/><use x="316.40115" xlink:href="#i" y="572.92841"/><use x="323.73007" xlink:href="#L" y="572.92841"/><use x="330.38397" xlink:href="#J" y="572.92841"/><use x="340.91949" xlink:href="#v" y="572.92841"/><use x="345.90213" xlink:href="#y" y="572.92841"/><use x="350.88477" xlink:href="#u" y="572.92841"/></g><use x="357.9437" xlink:href="#t" y="572.92841"/><use x="363.4816" xlink:href="#l" y="572.92841"/><use x="366.79971" xlink:href="#h" y="572.92841"/><use x="371.78235" xlink:href="#s" y="572.92841"/><use x="384.09995" xlink:href="#C" y="572.92841"/><use x="389.3855" xlink:href="#c" y="572.92841"/><use x="393.80997" xlink:href="#F" y="572.92841"/><use x="398.7926" xlink:href="#A" y="572.92841"/><use x="401.5625" xlink:href="#p" y="572.92841"/><use fill="#00f" x="410.56699" xlink:href="#D" y="572.92798"/><use fill="#00f" x="413.8891" xlink:href="#D" y="572.92798"/><use x="417.203" xlink:href="#n" y="572.92798"/><use x="424.25302" xlink:href="#o" y="572.92798"/><use x="431.44751" xlink:href="#p" y="572.92798"/><use x="440.44284" xlink:href="#m" y="572.92798"/><use x="445.98166" xlink:href="#d" y="572.92798"/><use x="450.96231" xlink:href="#e" y="572.92798"/><use x="460.5159" xlink:href="#i" y="572.92798"/><use x="463.28381" xlink:href="#j" y="572.92798"/><use x="468.26447" xlink:href="#c" y="572.92798"/><use x="472.68695" xlink:href="#i" y="572.92798"/><use x="480.02567" xlink:href="#d" y="572.92798"/><use x="485.00632" xlink:href="#h" y="572.92798"/><use x="494.55109" xlink:href="#t" y="572.92798"/><use x="500.0899" xlink:href="#t" y="572.92798"/><use x="504.88898" xlink:href="#w" y="572.92798"/><use x="512.08234" xlink:href="#B" y="572.92798"/><use x="515.3985" xlink:href="#F" y="572.92798"/><use x="520.37915" xlink:href="#c" y="572.92798"/><use x="524.80164" xlink:href="#k" y="572.92798"/><use x="528.6759" xlink:href="#p" y="572.92798"/><use x="533.09839" xlink:href="#e" y="572.92798"/><use x="542.66089" xlink:href="#c" y="572.92798"/><use x="547.08331" xlink:href="#A" y="572.92798"/><use x="549.85126" xlink:href="#g" y="572.92798"/><use x="554.83191" xlink:href="#h" y="572.92798"/><use x="559.81256" xlink:href="#B" y="572.92798"/><use x="311.98001" xlink:href="#l" y="584.88538"/><use x="315.29712" xlink:href="#f" y="584.88538"/><use x="318.06604" xlink:href="#i" y="584.88538"/><use x="320.83493" xlink:href="#j" y="584.88538"/><use x="325.81659" xlink:href="#s" y="584.88538"/><use x="336.94604" xlink:href="#j" y="584.88538"/><use x="341.92767" xlink:href="#c" y="584.88538"/><use x="346.35117" xlink:href="#k" y="584.88538"/><use x="353.61713" xlink:href="#c" y="584.88538"/><use x="361.42337" xlink:href="#j" y="584.88538"/><use x="366.40305" xlink:href="#f" y="584.88538"/><use x="369.17197" xlink:href="#g" y="584.88538"/><use x="374.15363" xlink:href="#j" y="584.88538"/><use x="379.13528" xlink:href="#p" y="584.88538"/><use x="383.55875" xlink:href="#l" y="584.88538"/><use x="390.26672" xlink:href="#a" y="584.88538"/><use x="396.35477" xlink:href="#E" y="584.88538"/><use x="402.40579" xlink:href="#C" y="584.88538"/><use x="411.88785" xlink:href="#c" y="584.88538"/><use x="416.30933" xlink:href="#i" y="584.88538"/><use x="422.45932" xlink:href="#k" y="584.88538"/><use x="426.34058" xlink:href="#q" y="584.88538"/><use x="430.76404" xlink:href="#c" y="584.88538"/><use x="435.18753" xlink:href="#A" y="584.88538"/><use x="437.95645" xlink:href="#p" y="584.88538"/><use x="445.76599" xlink:href="#L" y="584.88538"/><use x="452.41132" xlink:href="#J" y="584.88538"/><use x="462.95541" xlink:href="#G" y="584.88538"/><use x="467.93707" xlink:href="#v" y="584.88538"/><use x="472.9187" xlink:href="#y" y="584.88538"/><use x="481.29211" xlink:href="#i" y="584.88538"/><use x="484.06104" xlink:href="#j" y="584.88538"/><use x="489.04266" xlink:href="#c" y="584.88538"/><use x="493.46616" xlink:href="#d" y="584.88538"/><use x="501.83975" xlink:href="#f" y="584.88538"/><use x="504.60867" xlink:href="#i" y="584.88538"/><use x="507.37756" xlink:href="#k" y="584.88538"/><use x="514.62573" xlink:href="#b" y="584.88538"/><use x="519.60736" xlink:href="#z" y="584.88538"/><use x="524.58899" xlink:href="#l" y="584.88538"/><use x="527.90613" xlink:href="#p" y="584.88538"/><use x="535.72137" xlink:href="#x" y="584.88538"/><use x="540.44873" xlink:href="#c" y="584.88538"/><use x="544.87225" xlink:href="#l" y="584.88538"/><use x="548.18933" xlink:href="#f" y="584.88538"/><use x="550.95825" xlink:href="#c" y="584.88538"/><use x="555.38171" xlink:href="#d" y="584.88538"/><use x="560.3634" xlink:href="#i" y="584.88538"/><use x="311.98141" xlink:href="#h" y="596.85217"/><use x="316.96106" xlink:href="#d" y="596.85217"/><use x="325.93802" xlink:href="#L" y="596.85217"/><use x="333.50989" xlink:href="#J" y="596.85217"/><use x="344.98138" xlink:href="#v" y="596.85217"/><use x="349.96204" xlink:href="#y" y="596.85217"/><use x="354.94269" xlink:href="#u" y="596.85217"/><use x="361.43451" xlink:href="#I" y="596.85217"/><use x="368.6279" xlink:href="#d" y="596.85217"/><use x="377.60559" xlink:href="#i" y="596.85217"/><use x="380.3735" xlink:href="#j" y="596.85217"/><use x="385.35416" xlink:href="#p" y="596.85217"/><use x="393.76459" xlink:href="#k" y="596.85217"/><use x="397.64584" xlink:href="#q" y="596.85217"/><use x="402.0683" xlink:href="#c" y="596.85217"/><use x="406.49078" xlink:href="#A" y="596.85217"/><use x="409.2587" xlink:href="#p" y="596.85217"/><use x="413.68118" xlink:href="#k" y="596.85217"/><use x="421.56299" xlink:href="#L" y="596.85217"/><use x="429.13525" xlink:href="#K" y="596.85217"/><use x="440.34546" xlink:href="#H" y="596.85217"/><use x="445.32712" xlink:href="#v" y="596.85217"/><use x="450.30875" xlink:href="#n" y="596.85217"/><use x="456.80054" xlink:href="#i" y="596.85217"/><use x="459.56946" xlink:href="#j" y="596.85217"/><use x="464.55112" xlink:href="#p" y="596.85217"/><use x="472.97049" xlink:href="#t" y="596.85217"/><use x="478.50839" xlink:href="#t" y="596.85217"/><use x="483.30765" xlink:href="#w" y="596.85217"/><use x="490.50204" xlink:href="#B" y="596.85217"/><use x="493.81915" xlink:href="#F" y="596.85217"/><use x="498.80081" xlink:href="#c" y="596.85217"/><use x="503.22427" xlink:href="#k" y="596.85217"/><use x="507.09955" xlink:href="#p" y="596.85217"/><use x="511.52304" xlink:href="#e" y="596.85217"/><use x="520.51855" xlink:href="#c" y="596.85217"/><use x="524.94202" xlink:href="#A" y="596.85217"/><use x="527.71094" xlink:href="#g" y="596.85217"/><use x="532.69263" xlink:href="#h" y="596.85217"/><use x="537.67426" xlink:href="#l" y="596.85217"/><use x="540.99139" xlink:href="#f" y="596.85217"/><use x="543.76025" xlink:href="#i" y="596.85217"/><use x="546.52917" xlink:href="#j" y="596.85217"/><use x="551.51086" xlink:href="#s" y="596.85217"/><use x="559.26343" xlink:href="#k" y="596.85217"/><use x="311.98047" xlink:href="#j" y="608.81"/><use x="316.9621" xlink:href="#c" y="608.81"/><use x="321.18515" xlink:href="#x" y="608.81"/><use x="326.01132" xlink:href="#p" y="608.81"/><use x="334.01602" xlink:href="#c" y="608.81"/><use x="342.00275" xlink:href="#s" y="608.81"/><use x="349.75528" xlink:href="#p" y="608.81"/><use x="354.17877" xlink:href="#c" y="608.81"/><use x="358.60226" xlink:href="#d" y="608.81"/><use x="367.15585" xlink:href="#l" y="608.81"/><use x="370.47296" xlink:href="#z" y="608.81"/><use x="375.45462" xlink:href="#d" y="608.81"/><use x="380.43625" xlink:href="#i" y="608.81"/><use x="383.20517" xlink:href="#f" y="608.81"/><use x="385.97409" xlink:href="#s" y="608.81"/><use x="393.72665" xlink:href="#p" y="608.81"/><use x="401.72226" xlink:href="#o" y="608.81"/><use x="408.91663" xlink:href="#j" y="608.81"/><use x="413.89828" xlink:href="#f" y="608.81"/><use x="416.66721" xlink:href="#q" y="608.81"/><use x="421.0907" xlink:href="#j" y="608.81"/><use x="429.6449" xlink:href="#f" y="608.81"/><use x="432.41382" xlink:href="#k" y="608.81"/><use x="439.85153" xlink:href="#F" y="608.81"/><use x="444.83319" xlink:href="#p" y="608.81"/><use x="449.25668" xlink:href="#i" y="608.81"/><use x="452.0256" xlink:href="#o" y="608.81"/><use x="459.21997" xlink:href="#p" y="608.81"/><use x="463.64346" xlink:href="#p" y="608.81"/><use x="468.06696" xlink:href="#d" y="608.81"/><use x="476.62964" xlink:href="#i" y="608.81"/><use x="479.39856" xlink:href="#j" y="608.81"/><use x="484.38022" xlink:href="#l" y="608.81"/><use x="487.69733" xlink:href="#p" y="608.81"/><use x="492.12082" xlink:href="#p" y="608.81"/><use x="500.11636" xlink:href="#c" y="608.81"/><use x="504.53986" xlink:href="#d" y="608.81"/><use x="509.52148" xlink:href="#e" y="608.81"/><use x="518.07538" xlink:href="#r" y="608.81"/><use x="521.39246" xlink:href="#h" y="608.81"/><use x="526.37415" xlink:href="#z" y="608.81"/><use x="531.35577" xlink:href="#l" y="608.81"/><use x="538.24414" xlink:href="#h" y="608.81"/><use x="543.22577" xlink:href="#l" y="608.81"/><use x="546.54291" xlink:href="#e" y="608.81"/><use x="551.52454" xlink:href="#p" y="608.81"/><use x="555.948" xlink:href="#l" y="608.81"/><use x="559.26514" xlink:href="#k" y="608.81"/><use x="311.98047" xlink:href="#h" y="620.7666"/><use x="316.9621" xlink:href="#r" y="620.7666"/><use x="325.02969" xlink:href="#s" y="620.7666"/><use x="332.78226" xlink:href="#c" y="620.7666"/><use x="337.20572" xlink:href="#g" y="620.7666"/><use x="342.18738" xlink:href="#d" y="620.7666"/><use x="347.16904" xlink:href="#f" y="620.7666"/><use x="349.93793" xlink:href="#i" y="620.7666"/><use x="352.70685" xlink:href="#z" y="620.7666"/><use x="357.68851" xlink:href="#e" y="620.7666"/><use x="362.67017" xlink:href="#p" y="620.7666"/><use x="371.87305" xlink:href="#k" y="620.7666"/><use x="375.74835" xlink:href="#s" y="620.7666"/><use x="383.50089" xlink:href="#c" y="620.7666"/><use x="387.92438" xlink:href="#A" y="620.7666"/><use x="390.6933" xlink:href="#A" y="620.7666"/><use x="393.46219" xlink:href="#p" y="620.7666"/><use x="397.88568" xlink:href="#l" y="620.7666"/><use x="405.95316" xlink:href="#i" y="620.7666"/><use x="408.7262" xlink:href="#j" y="620.7666"/><use x="413.70782" xlink:href="#c" y="620.7666"/><use x="418.13132" xlink:href="#i" y="620.7666"/><use x="425.65863" xlink:href="#i" y="620.7666"/><use x="428.42755" xlink:href="#j" y="620.7666"/><use x="433.40918" xlink:href="#p" y="620.7666"/><use x="442.59302" xlink:href="#a" y="620.7666"/><use x="448.68011" xlink:href="#E" y="620.7666"/><use x="454.73129" xlink:href="#C" y="620.7666"/><use x="465.57266" xlink:href="#h" y="620.7666"/><use x="470.55432" xlink:href="#r" y="620.7666"/><use x="478.63086" xlink:href="#i" y="620.7666"/><use x="481.39978" xlink:href="#j" y="620.7666"/><use x="486.38141" xlink:href="#p" y="620.7666"/><use x="495.55627" xlink:href="#b" y="620.7666"/><use x="500.5379" xlink:href="#z" y="620.7666"/><use x="505.51956" xlink:href="#l" y="620.7666"/><use x="508.83667" xlink:href="#p" y="620.7666"/><use x="518.02069" xlink:href="#c" y="620.7666"/><use x="522.4422" xlink:href="#A" y="620.7666"/><use x="525.21112" xlink:href="#g" y="620.7666"/><use x="530.19275" xlink:href="#h" y="620.7666"/><use x="535.17438" xlink:href="#l" y="620.7666"/><use x="538.49152" xlink:href="#f" y="620.7666"/><use x="541.26044" xlink:href="#i" y="620.7666"/><use x="544.02936" xlink:href="#j" y="620.7666"/><use x="549.01099" xlink:href="#s" y="620.7666"/><use x="556.76355" xlink:href="#k" y="620.7666"/><use x="560.63885" xlink:href="#u" y="620.7666"/></g></svg>