<svg height="23pt" viewBox="0 0 97 23" width="97pt" xmlns="http://www.w3.org/2000/svg"><path d="m67.8513 1.05c-1.2971.54933-1.4647-.0695-1.9676.49131-1.3642-.23403-2.0529 1.1801-2.6588-.60026-1.7926.49676-1.3006 1.5506-2.0475 1.9672.50481-.38621-3.372.48452-3.4523.12215-1.6043.77194 1.3725-1.4233-1.4564-.67448.09048-.71948-3.2554 1.3474-1.8419.65345-1.7466.29348-.97363-1.0205-1.4371-.53462.28518-.66667-1.433 1.0039-2.6263.56691-1.7037.42504-2.3249-1.677-3.1568-1.3083-.62996-.37284-1.2757 1.5206-2.23 1.3688-1.227.43955-2.0162-.92326-2.8076-.33252-.3399-.69161-2.5361.058-3.5682-.5548-.91563-.3362-3.6534 2.4255-3.457.20113-2.6575.33226-3.6552 1.1785-5.3944.50173-1.3962-.63664-2.9928-1.52-3.137-.83136-2.9044-.38901-2.5862.88258-4.4673.31459-.41847.36525-2.1909-.79822-3.4409-.3603-1.1239-.3669-1.5022.99734-1.9804.57815-1.4798.24579-2.1404-1.3081-2.8725-.99935-.25964-.31897-.2742 1.0889-1.9871.8353-.96383.27528-1.6714-.99162-3.1449-.86799-.77609.28428-1.8909 1.0841-2.1394 1.2928-.5411-.28537-.1958-.65156-1.593-.87669-1.6471.61177-2.3975.63732-2.7895 1.2811-1.0334 5.1384-1.194 10.407-.102 15.168.39198.6438 1.2444 1.2759 2.8915 1.8877 1.3972-.22513 2.3504-.48145 2.8915-.76682.24851.20869.12776.36466.90386.64892 1.4735.12363 1.9277.55031 2.8915.82558 1.7128-.25357 2.1352-.56574 2.3948-.88471.7321.30874 1.9085.58018 3.3883.82594.47825-.41917 1.271-.81311 2.3948-1.18 1.25.43792 2.4731.87347 2.8915 1.2387 1.8812-.56802 3.7127-1.1446 6.6174-1.5336.1442.68865.33886 1.3682 1.4014 1.8877.69881-.59965 1.6864-1.1585 4.3815-1.4749 2.5159.45861 3.5002 1.0417 4.8783 1.5928 1.0322-.6128 1.807-1.2548 2.1469-1.9464.7914.59074 1.6645 1.1529 2.8915 1.5923.95428-.15179 1.5161-.57061 2.1461-.94346.8318.36863 1.9334.75458 3.637 1.1796 1.1933-.43698 2.4312-.86695 2.146-1.5336.46349.48582 1.8904.82737 3.637 1.1208-1.4135-.69393-1.9859-1.4043-2.0764-2.1237 2.8289.74886 4.0197 1.5285 5.6241 2.3004.08028-.36238-.08144-.73428-.58627-1.1205.74682.41655 1.8436.85988 3.6363 1.3566-.0876-.45837.78271-.76893 2.1469-1.003.50289.56077 2.3391 1.1026 3.6363 1.6519 1.024-.5788 2.2579-1.1634 2.1469-1.7107.58705.43324 1.6843.8016 3.6363 1.0617 1.3483-.81461.72071-1.8618.4851-2.8627.29426-.00083.28596.11032.58032.10912 1.1189.80146 2.5372 1.4902 4.7178 2.2817 1.4129-.29354 2.7006-.62593 2.8915-1.2979 1.223.005 2.5678-.0823 2.8915.59018 2.4908-.31704 3.614-.41169 4.6268-1.113.62593-.004.911-.26876 1.5374-.27194.90153.68122 1.595 1.0176 2.1034 1.7386.22238-1.5519.46308-3.1236.66008-4.7048.44272-3.2158.53851-6.3984.002-9.384-.19727-1.5861-.43948-3.1628-.66255-4.7196-.50836.72098-1.7462 2.1339-2.7966.67447-.62638-.004-.45336 1.4346-1.0793 1.4315-1.3927-.8886-1.866-2.4163-4.2254-.72627-.32379.67253-2.787.81934-3.0569-.43584-.19088-.67195-1.4737 1.0885-2.8866.79496-2.1805.79157-1.354-1.6809-2.4729-.87947 1.8433-2.4282-2.536 1.1786-2.83 1.1775.23558-1.0009-.71656-.19135-2.0649-1.006-1.9519.2601-1.4702-1.2283-2.0572-.79506.11105-.54725-1.0023.38996-2.0262-.18883z" fill="#fffff0" stroke="#c8c8c8" stroke-linecap="round" stroke-linejoin="round" stroke-width=".17639"/><g stroke-width=".35278"><path d="m10.421 7.2797v-.8158h-.08268c-.0441.28112-.10473.33073-.38585.33073h-.51264v-.77722c0-.099219.016537-.12127.11576-.12127h.47405c.40239 0 .47956.04961.53468.36932h.08819l-.01102-.50161h-1.8631v.066146c.25907.022049.30317.071658.30317.31419v1.5214c0 .29215-.038585.34176-.30317.35829v.066146h.98117v-.066146c-.2701-.016537-.31971-.066146-.31971-.31971v-.76619h.51263c.28112 0 .34176.055122.38585.34176z"/><path d="m11.521 6.4749c-.45752 0-.77721.33624-.77721.82131 0 .47407.32522.82685.7662.82685.44648 0 .78275-.36933.78275-.8544 0-.46302-.32522-.79376-.77171-.79376zm-.04961.093705c.29766 0 .50162.34176.50162.82131 0 .39688-.15434.63941-.41893.63941-.1378 0-.2701-.088195-.34176-.226-.09922-.1819-.15434-.42997-.15434-.67801 0-.33624.16536-.55672.41342-.55672z"/><path d="m14.105029 7.91361h-.02205c-.159854 0-.198439-.038585-.198439-.1984388v-1.207169h-.556731v.060634c.220487.011024.259073.044097.259073.2204875v.8268282c0 .099219-.01654.148829-.06615.1874143-.09371.077171-.203951.115756-.308683.115756-.137805 0-.248048-.115756-.248048-.264585v-1.146535h-.512634v.04961c.165366.011024.214975.060634.214975.2259997v.88195c0 .2811215.170878.4575115.424439.4575115.132292 0 .270097-.055122.363804-.148829l.154348-.1488294v.2866338l.01102.011024c.17639-.071658.30317-.1102437.485072-.1598534zm0 0"/><path d="m14.218349 6.7174653c.04961-.011024.08268-.011024.12678-.011024.0882 0 .115756.055122.115756.2094632v.8764378c0 .17639-.02205.2039509-.248048.2425362v.0551215h.843364v-.055122c-.237024-.00551-.297658-.060634-.297658-.2590728v-.793755c0-.1102437.154341-.2866337.248049-.2866337.02205 0 .04961.016536.0882.04961.06063.04961.09922.071658.143316.071658.08268 0 .137805-.060634.137805-.1598535 0-.1157559-.07717-.1819021-.192926-.1819021-.148829 0-.253561.077171-.424439.325219v-.3197067l-.01654-.00551c-.187415.077171-.314195.1212681-.523658.1874143zm0 0"/><path d="m16.279787 6.5080022h-.358293v-.4079019c0-.033073 0-.044098-.02205-.044098-.02756.027561-.04961.060634-.07166.093707-.132292.1984387-.286634.3638044-.341755.3803409-.03859.022049-.06063.04961-.06063.066146 0 .011024.0055.016536.01654.022049h.187414v1.05834c0 .2976582.104732.4464872.308683.4464872.17639 0 .308682-.082683.424438-.264585l-.0441-.038585c-.07717.088195-.137805.1212681-.214975.1212681-.126781 0-.181903-.093707-.181903-.3141947v-1.0087299h.358293zm0 0"/><path d="m16.905519 6.8828309c.148829-.1598534.25356-.2204875.391365-.2204875.17639 0 .264585.1267803.264585.3748288v.6945356c0 .2370241-.03858.2866338-.242536.3031703v.0551219h.749657v-.0551219c-.192926-.0330731-.214975-.060634-.214975-.3031703v-.7000478c0-.3693166-.143317-.5567309-.429951-.5567309-.209463 0-.35278.082683-.518145.2921459v-1.0693644l-.01654-.011024c-.121268.044098-.209463.071659-.40239.1267804l-.09922.027561v.060634c.01654-.00551.02756-.00551.0441-.00551.148829 0 .181902.027561.181902.17639v1.6591684c0 .2480484-.02205.2756094-.226.3031703v.0551193h.760682v-.0551219c-.203949-.0165365-.242534-.060634-.242534-.3031703zm0 0"/><path d="m18.425446 8.5860969c.237024-.115756.391365-.3307313.391365-.5401944 0-.17639-.121268-.3141947-.281121-.3141947-.121268 0-.203951.082683-.203951.1984388 0 .1157559.07717.1819022.203951.1819022.02205 0 .04961-.00551.06615-.00551.02756-.011024.02756-.011024.03307-.011024.02756 0 .04961.022049.04961.04961 0 .1157559-.09922.2425362-.292146.3748287zm0 0"/><path d="m22.466736 6.5080022v.04961c.121268.027561.154341.04961.154341.1102437 0 .055122-.01654.1378047-.05512.2315119l-.319708.7827303-.292146-.7882428c-.06063-.1598534-.06063-.1598534-.06063-.2094631 0-.077171.03859-.099219.203951-.1267803v-.04961h-.716585v.04961c.132293.016536.170878.055122.242537.2425362.02756.071658.04961.1378047.07166.1984388l-.319713.7000478-.347268-.9150231c-.01654-.038585-.02205-.071659-.02205-.1047316 0-.077171.0441-.1047316.159853-.1212681v-.04961h-.633902v.04961c.08268.011024.110244.044097.187415.2259997l.474048 1.2016568c.0441.1047316.07166.1543413.09371.1543413.01654 0 .0441-.044097.0882-.1378047l.391365-.8433647.319707.8268281c.04961.1322925.06615.1543413.08819.1543413.02205 0 .03859-.033073.09922-.1708778l.485072-1.2181935c.06063-.148829.07166-.1653656.143317-.1929265v-.04961zm0 0"/><path d="m24.434 7.5112c-.16537.2701-.31971.36933-.54572.36933-.19844 0-.34727-.099219-.45198-.30317-.06064-.13229-.0882-.24805-.09371-.46302h1.0804c-.027557-.226-.060632-.33073-.14883-.44098-.10473-.12678-.2701-.19844-.45198-.19844-.17639 0-.34176.060636-.47406.1819-.16537.14332-.25908.39137-.25908.67801 0 .49058.25356.78825.65596.78825.33624 0 .60082-.20395.74966-.58427zm-1.0859-.50712c.03859-.27561.15985-.40788.37483-.40788s.29766.099219.34176.40788z"/><path d="m28.096736 6.5080022v.04961c.121268.027561.154341.04961.154341.1102437 0 .055122-.01654.1378047-.05512.2315119l-.319708.7827303-.292146-.7882428c-.06063-.1598534-.06063-.1598534-.06063-.2094631 0-.077171.03859-.099219.203951-.1267803v-.04961h-.716585v.04961c.132293.016536.170878.055122.242537.2425362.02756.071658.04961.1378047.07166.1984388l-.319713.7000478-.347268-.9150231c-.01654-.038585-.02205-.071659-.02205-.1047316 0-.077171.0441-.1047316.159853-.1212681v-.04961h-.633902v.04961c.08268.011024.110244.044097.187415.2259997l.474048 1.2016568c.0441.1047316.07166.1543413.09371.1543413.01654 0 .0441-.044097.08819-.1378047l.391365-.8433647.319707.8268281c.04961.1322925.06615.1543413.0882.1543413s.03859-.033073.09922-.1708778l.485072-1.2181935c.06063-.148829.07166-.1653656.143317-.1929265v-.04961zm0 0"/><path d="m30.064 7.5112c-.16537.2701-.31971.36933-.54572.36933-.19844 0-.34727-.099219-.45198-.30317-.06064-.13229-.08819-.24805-.09371-.46302h1.0804c-.027557-.226-.060632-.33073-.14883-.44098-.10473-.12678-.2701-.19844-.45198-.19844-.17639 0-.34176.060636-.47406.1819-.16537.14332-.25908.39137-.25908.67801 0 .49058.25356.78825.65596.78825.33624 0 .60082-.20395.74966-.58427zm-1.0859-.50712c.03859-.27561.15985-.40788.37483-.40788s.29766.099219.34176.40788z"/><path d="m30.221349 6.7174653c.04961-.011024.08268-.011024.12678-.011024.08819 0 .115756.055122.115756.2094632v.8764378c0 .17639-.02205.2039509-.248048.2425362v.0551215h.843364v-.055122c-.237024-.00551-.297658-.060634-.297658-.2590728v-.793755c0-.1102437.154341-.2866337.248049-.2866337.02205 0 .04961.016536.08819.04961.06063.04961.09922.071658.143316.071658.08268 0 .137805-.060634.137805-.1598535 0-.1157559-.07717-.1819021-.192926-.1819021-.14883 0-.253561.077171-.424439.325219v-.3197067l-.01654-.00551c-.187415.077171-.314195.1212681-.523658.1874143zm0 0"/><path d="m32.816 7.5112c-.16537.2701-.31971.36933-.54572.36933-.19844 0-.34727-.099219-.45198-.30317-.06064-.13229-.08819-.24805-.09371-.46302h1.0804c-.027557-.226-.060632-.33073-.14883-.44098-.10473-.12678-.2701-.19844-.45198-.19844-.17639 0-.34176.060636-.47406.1819-.16537.14332-.25908.39137-.25908.67801 0 .49058.25356.78825.65596.78825.33624 0 .60082-.20395.74966-.58427zm-1.0859-.50712c.03859-.27561.15985-.40788.37483-.40788s.29766.099219.34176.40788z"/><path d="m36.027737 7.8584881c-.06063.04961-.104732.066146-.154341.066146-.08268 0-.104732-.04961-.104732-.203951v-.6835109c0-.1874144-.01654-.2866338-.07166-.3693166-.07717-.1267803-.226-.1929265-.435463-.1929265-.330731 0-.589804.1708778-.589804.3913653 0 .082683.06615.148829.148829.148829.08268 0 .159853-.066146.159853-.1433168 0-.016537-.0055-.033073-.0055-.060634-.01102-.027561-.01102-.055122-.01102-.082683 0-.093707.110243-.1708778.25356-.1708778.170878 0 .264585.099219.264585.2921459v.2149753c-.540194.2149753-.600828.2425363-.749657.380341-.07717.066146-.126781.1874143-.126781.3031703 0 .2204875.154342.3748287.369317.3748287.154341 0 .297658-.071658.512634-.2535606.01654.1819022.07717.2535606.225999.2535606.115756 0 .192927-.038585.314195-.17639zm-.545707-.1984387c0 .1047315-.01654.1378047-.08819.1819022-.0882.04961-.187414.077171-.259073.077171-.121268 0-.220487-.115756-.220487-.2700972v-.011024c0-.2094631.143317-.3362434.567755-.4905847zm0 0"/><path d="m36.580494 5.6977106-.02205-.011024c-.143317.055122-.242537.082683-.407902.1267804l-.09922.027561v.060634c.02205-.00551.03307-.00551.06063-.00551.137805 0 .170878.033073.170878.17639v1.8300462c0 .1047316.297658.2204875.57878.2204875.468536 0 .826828-.3858531.826828-.8874622 0-.4354628-.270097-.7606818-.622877-.7606818-.214975 0-.418926.1212681-.485073.2976581zm0 1.262291c0-.1378047.165366-.264585.347268-.264585.27561 0 .446487.2700971.446487.7000478 0 .3913653-.165365.617365-.451999.617365-.187414 0-.341756-.082683-.341756-.1708778zm0 0"/><path d="m37.885446 5.9016616h.02205c.03859-.00551.08268-.011024.110244-.011024.110244 0 .148829.04961.148829.2149753v1.675705c0 .1929266-.04961.2370241-.27561.2535606v.0551215h.832341v-.0551219c-.220489-.0110243-.264586-.0496097-.264586-.2425362v-2.0946313l-.01103-.011024c-.187414.060634-.319706.093707-.562243.1543413zm0 0"/><path d="m40.225 7.5112c-.16537.2701-.31971.36933-.54572.36933-.19844 0-.34727-.099219-.45198-.30317-.06064-.13229-.08819-.24805-.09371-.46302h1.0804c-.027557-.226-.060632-.33073-.14883-.44098-.10473-.12678-.2701-.19844-.45198-.19844-.17639 0-.34176.060636-.47406.1819-.16537.14332-.25908.39137-.25908.67801 0 .49058.25356.78825.65596.78825.33624 0 .60082-.20395.74966-.58427zm-1.0859-.50712c.03859-.27561.15985-.40788.37483-.40788s.29766.099219.34176.40788z"/><path d="m42.737787 6.5080022h-.358293v-.4079019c0-.033073 0-.044098-.02205-.044098-.02756.027561-.04961.060634-.07166.093707-.132292.1984387-.286634.3638044-.341755.3803409-.03859.022049-.06063.04961-.06063.066146 0 .011024.0055.016536.01654.022049h.187414v1.05834c0 .2976582.104732.4464872.308683.4464872.17639 0 .308682-.082683.424438-.264585l-.0441-.038585c-.07717.088195-.137805.1212681-.214975.1212681-.126781 0-.181903-.093707-.181903-.3141947v-1.0087299h.358293zm0 0"/><path d="m43.695 6.4749c-.45752 0-.77721.33624-.77721.82131 0 .47407.32522.82685.7662.82685.44648 0 .78275-.36933.78275-.8544 0-.46302-.32522-.79376-.77171-.79376zm-.04961.093705c.29766 0 .50162.34176.50162.82131 0 .39688-.15434.63941-.41893.63941-.1378 0-.2701-.088195-.34176-.226-.09922-.1819-.15434-.42997-.15434-.67801 0-.33624.16536-.55672.41342-.55672z"/><path d="m47.517396 7.5387812c-.170878.2480485-.297659.3307313-.496097.3307313-.319707 0-.545707-.2811216-.545707-.6835112 0-.3638044.192927-.6118529.47956-.6118529.126781 0 .170878.038585.203951.1708779l.02205.077171c.02756.099219.09371.1598534.165366.1598534.09371 0 .170878-.066146.170878-.1488291 0-.1929265-.248049-.3582921-.540195-.3582921-.17639 0-.35278.066146-.496097.1929265-.17639.1543413-.275609.3968775-.275609.6724869 0 .4575116.275609.7827306.666975.7827306.159853 0 .297658-.055122.424438-.1653656.09922-.082683.165366-.17639.270097-.3858531zm0 0"/><path d="m48.566 6.4749c-.45752 0-.77721.33624-.77721.82131 0 .47407.32522.82685.7662.82685.44648 0 .78275-.36933.78275-.8544 0-.46302-.32522-.79376-.77171-.79376zm-.04961.093705c.29766 0 .50162.34176.50162.82131 0 .39688-.15434.63941-.41893.63941-.1378 0-.2701-.088195-.34176-.226-.09922-.1819-.15434-.42997-.15434-.67801 0-.33624.16536-.55672.41342-.55672z"/><path d="m49.518422 6.6899044c.02205-.011024.05512-.011024.09371-.011024.09922 0 .132293.04961.132293.2204875v.8764378c0 .1984388-.03859.2480485-.220488.2590728v.0551215h.749658v-.0551219c-.181906-.0110243-.231515-.0551219-.231515-.1819022v-.9866815c.165365-.1598535.242536-.1984388.358292-.1984388.17639 0 .259073.1047316.259073.3362435v.7386331c0 .2204875-.0441.2811216-.220488.2921459v.0551219h.727609v-.0551219c-.170878-.0165365-.209463-.0551219-.209463-.2315119v-.8047793c0-.3307313-.159854-.5236578-.418926-.5236578-.159854 0-.270098.055122-.507122.2811215v-.2756094l-.02756-.00551c-.170877.060634-.292146.099219-.485072.1543412zm0 0"/><path d="m51.351544 6.6237581h.237024v1.1355106c0 .2259997-.03859.2700972-.237024.2756094v.0551219h.777218v-.0551219c-.198439-.0110243-.242536-.060634-.242536-.2535606v-1.1575594h.30317c.336244 0 .35278.011024.35278.1984388v.9260475c0 .237024-.02205.2700972-.242536.2866337v.0551219h.771706v-.0551219c-.192926-.0165365-.231512-.060634-.231512-.2866337v-.9205353c0-.077171 0-.1598535.0055-.3472679l-.01654-.00551c-.154341.022049-.253561.033073-.396877.033073h-.551203v-.1543433c0-.1543412.01102-.2590728.02756-.3197068.04961-.1543413.187414-.2590729.347268-.2590729.09922 0 .165365.044097.248048.1653657.06615.093707.110244.1322925.170878.1322925.07717 0 .12678-.060634.12678-.1378047 0-.1488291-.17639-.2480485-.446487-.2480485-.264585 0-.468536.093707-.595316.264585-.104732.1433169-.143317.2756094-.165366.556731h-.242536zm0 0"/><path d="m53.211349 6.7174653c.04961-.011024.08268-.011024.12678-.011024.08819 0 .115756.055122.115756.2094632v.8764378c0 .17639-.02205.2039509-.248048.2425362v.0551215h.843364v-.055122c-.237024-.00551-.297658-.060634-.297658-.2590728v-.793755c0-.1102437.154341-.2866337.248049-.2866337.02205 0 .04961.016536.08819.04961.06063.04961.09922.071658.143316.071658.08268 0 .137805-.060634.137805-.1598535 0-.1157559-.07717-.1819021-.192926-.1819021-.14883 0-.253561.077171-.424439.325219v-.3197067l-.01654-.00551c-.187415.077171-.314195.1212681-.523658.1874143zm0 0"/><path d="m54.439446 6.6899044c.0441-.011024.07717-.011024.115756-.011024.08819 0 .121268.055122.121268.2204875v.8929744c0 .1874143-.04961.2425362-.248048.2425362v.0551215h.78273v-.0551219c-.187414-.0055122-.242536-.0440975-.242536-.1819022v-.9921937c0-.00551.03307-.038585.05512-.066146.08819-.077171.237024-.1378047.363805-.1378047.154341 0 .231511.1212682.231511.3693166v.7606819c0 .1984387-.03858.2370241-.242536.2480484v.0551216h.788243v-.055122c-.198439 0-.253561-.060634-.253561-.2811215v-.88195c.110244-.1543413.226-.2149754.385853-.2149754.198439 0 .264585.093707.264585.3858532v.7386331c0 .2039509-.02756.2315119-.231511.2535606v.055122h.766194v-.055122l-.0882-.00551c-.104725-.0055142-.154335-.0716605-.154335-.203953v-.7276088c0-.413414-.132292-.6228771-.407901-.6228771-.203951 0-.380341.088195-.573268.2921459-.06063-.1984388-.181902-.2921459-.369317-.2921459-.154341 0-.25356.044098-.545706.2700972v-.2645851l-.02756-.00551c-.17639.066146-.297658.1047315-.490585.1543412zm0 0"/><path d="m60.614736 6.5080022v.04961c.121268.027561.154342.04961.154342.1102437 0 .055122-.01654.1378047-.05512.2315119l-.319709.7827303-.292146-.7882428c-.06063-.1598534-.06063-.1598534-.06063-.2094631 0-.077171.03858-.099219.203951-.1267803v-.04961h-.716585v.04961c.132293.016536.170878.055122.242537.2425362.02756.071658.04961.1378047.07166.1984388l-.319713.7000478-.347268-.9150231c-.01654-.038585-.02205-.071659-.02205-.1047316 0-.077171.0441-.1047316.159853-.1212681v-.04961h-.633902v.04961c.08268.011024.110244.044097.187415.2259997l.474048 1.2016568c.0441.1047316.07166.1543413.09371.1543413.01654 0 .0441-.044097.08819-.1378047l.391365-.8433647.319707.8268281c.04961.1322925.06615.1543413.08819.1543413.02205 0 .03859-.033073.09922-.1708778l.485072-1.2181935c.06063-.148829.07166-.1653656.143317-.1929265v-.04961zm0 0"/><path d="m61.766665 6.4749291-.545707.1929265v.04961h.02756c.0441-.011024.08819-.011024.121268-.011024.08268 0 .115756.055122.115756.2094632v.8158037c0 .2535606-.03858.292146-.281121.3031703v.0551212h.83234v-.0551219c-.231511-.0165365-.259072-.0496097-.259072-.3031703v-1.2512666zm-.165366-.7882429c-.09922 0-.17639.082683-.17639.1819022 0 .099219.07717.17639.17639.17639s.181903-.077171.181903-.17639-.08268-.1819022-.181903-.1819022zm0 0"/><path d="m63.021787 6.5080022h-.358293v-.4079019c0-.033073 0-.044098-.02205-.044098-.02756.027561-.04961.060634-.07166.093707-.132292.1984387-.286634.3638044-.341755.3803409-.03859.022049-.06063.04961-.06063.066146 0 .011024.0055.016536.01654.022049h.187414v1.05834c0 .2976582.104732.4464872.308683.4464872.17639 0 .308682-.082683.424438-.264585l-.0441-.038585c-.07717.088195-.137805.1212681-.214975.1212681-.126781 0-.181903-.093707-.181903-.3141947v-1.0087299h.358293zm0 0"/><path d="m63.648519 6.8828309c.148829-.1598534.25356-.2204875.391365-.2204875.17639 0 .264585.1267803.264585.3748288v.6945356c0 .2370241-.03858.2866338-.242536.3031703v.0551219h.749657v-.0551219c-.192926-.0330731-.214975-.060634-.214975-.3031703v-.7000478c0-.3693166-.143317-.5567309-.429951-.5567309-.209463 0-.35278.082683-.518145.2921459v-1.0693644l-.01654-.011024c-.121268.044098-.209463.071659-.40239.1267804l-.09922.027561v.060634c.01654-.00551.02756-.00551.0441-.00551.148829 0 .181902.027561.181902.17639v1.6591684c0 .2480484-.02205.2756094-.226.3031703v.0551193h.760682v-.0551219c-.203949-.0165365-.242534-.060634-.242534-.3031703zm0 0"/><path d="m68.053956 6.7229775v-.1322925h-.270097c-.07166 0-.12678-.011024-.192926-.038585l-.07717-.027561c-.09922-.033073-.192927-.04961-.281122-.04961-.330731 0-.589804.2480484-.589804.5732675 0 .2204875.09371.35278.325219.4685359-.06615.060634-.12678.1212681-.148829.1433169-.115756.099219-.159853.1708778-.159853.2425362 0 .071658.03858.115756.181902.1819022-.248048.1874144-.341756.3031703-.341756.4299506 0 .1874144.27561.3417557.606341.3417557.264585 0 .540194-.093707.722097-.2370241.132292-.1102437.192926-.2204875.192926-.3582922 0-.2149753-.165365-.3638044-.424438-.3748287l-.452-.022049c-.187414-.00551-.275609-.038585-.275609-.093707 0-.071658.115756-.1929265.209463-.2204875.03307 0 .05512.00551.06615.00551.06615.00551.115756.011024.137805.011024.12678 0 .270097-.055122.374829-.1488291.115756-.099219.170878-.2204875.170878-.3968775 0-.099219-.01654-.1819022-.06615-.2976581zm-1.13551 1.3725347c.115756.027561.396877.04961.567755.04961.319707 0 .435463.044098.435463.1708778 0 .2039509-.264585.3417556-.661463.3417556-.308682 0-.512633-.1047315-.512633-.2590728 0-.082683.02205-.1267803.170878-.3031706zm.01654-1.1961447c0-.2039509.09922-.3307313.259073-.3307313.110244 0 .203951.060634.259073.1653657.06063.1267803.104731.2866337.104731.4244384 0 .1984388-.104731.3197069-.264585.3197069-.209463 0-.358292-.2259997-.358292-.5677553zm0 0"/><path d="m68.201349 6.7174653c.04961-.011024.08268-.011024.12678-.011024.08819 0 .115756.055122.115756.2094632v.8764378c0 .17639-.02205.2039509-.248048.2425362v.0551215h.843364v-.055122c-.237024-.00551-.297658-.060634-.297658-.2590728v-.793755c0-.1102437.154341-.2866337.248049-.2866337.02205 0 .04961.016536.08819.04961.06063.04961.09922.071658.143316.071658.08268 0 .137805-.060634.137805-.1598535 0-.1157559-.07717-.1819021-.192926-.1819021-.14883 0-.253561.077171-.424439.325219v-.3197067l-.01654-.00551c-.187415.077171-.314195.1212681-.523658.1874143zm0 0"/><path d="m70.796 7.5112c-.16537.2701-.31971.36933-.54572.36933-.19844 0-.34727-.099219-.45198-.30317-.06064-.13229-.08819-.24805-.09371-.46302h1.0804c-.027557-.226-.060632-.33073-.14883-.44098-.10473-.12678-.2701-.19844-.45198-.19844-.17639 0-.34176.060636-.47406.1819-.16537.14332-.25908.39137-.25908.67801 0 .49058.25356.78825.65596.78825.33624 0 .60082-.20395.74966-.58427zm-1.0859-.50712c.03859-.27561.15985-.40788.37483-.40788s.29766.099219.34176.40788z"/><path d="m72.485737 7.8584881c-.06063.04961-.104732.066146-.154341.066146-.08268 0-.104732-.04961-.104732-.203951v-.6835109c0-.1874144-.01654-.2866338-.07166-.3693166-.07717-.1267803-.226-.1929265-.435463-.1929265-.330731 0-.589804.1708778-.589804.3913653 0 .082683.06615.148829.148829.148829.08268 0 .159853-.066146.159853-.1433168 0-.016537-.0055-.033073-.0055-.060634-.01102-.027561-.01102-.055122-.01102-.082683 0-.093707.110243-.1708778.25356-.1708778.170878 0 .264585.099219.264585.2921459v.2149753c-.540194.2149753-.600828.2425363-.749657.380341-.07717.066146-.126781.1874143-.126781.3031703 0 .2204875.154342.3748287.369317.3748287.154341 0 .297658-.071658.512633-.2535606.01654.1819022.07717.2535606.226.2535606.115756 0 .192927-.038585.314195-.17639zm-.545707-.1984387c0 .1047315-.01654.1378047-.08819.1819022-.08819.04961-.187414.077171-.259073.077171-.121268 0-.220487-.115756-.220487-.2700972v-.011024c0-.2094631.143317-.3362434.567755-.4905847zm0 0"/><path d="m73.396787 6.5080022h-.358293v-.4079019c0-.033073 0-.044098-.02205-.044098-.02756.027561-.04961.060634-.07166.093707-.132292.1984387-.286634.3638044-.341755.3803409-.03859.022049-.06063.04961-.06063.066146 0 .011024.0055.016536.01654.022049h.187414v1.05834c0 .2976582.104732.4464872.308683.4464872.17639 0 .308682-.082683.424438-.264585l-.0441-.038585c-.07717.088195-.137805.1212681-.214975.1212681-.126781 0-.181903-.093707-.181903-.3141947v-1.0087299h.358293zm0 0"/><path d="m76.06325 6.9875625-.01654-.4795603h-.03858l-.0055.00551c-.03307.027561-.03307.027561-.04961.027561-.02205 0-.05512-.00551-.09371-.022049-.07717-.027561-.154342-.044098-.248049-.044098-.275609 0-.474048.1819021-.474048.4354628 0 .1929265.110244.3362434.407902.5071212l.203951.115756c.12678.066146.181902.1543412.181902.2590728 0 .1543412-.110244.2535606-.292146.2535606-.115756 0-.225999-.044098-.292146-.1212681-.07717-.088195-.104731-.1708778-.154341-.3693166h-.05512v.5512188h.0441c.02756-.038585.03859-.044097.08268-.044097.03307 0 .08268.00551.159854.027561.09922.022049.198439.033073.259073.033073.270097 0 .496097-.2039509.496097-.4464872 0-.17639-.08268-.2921459-.297659-.4189262l-.374841-.2259973c-.09922-.055122-.154342-.1433169-.154342-.2370241 0-.1433168.110244-.2425362.270098-.2425362.203951 0 .308682.1212681.385853.4354628zm0 0"/><path d="m76.925665 6.4749291-.545707.1929265v.04961h.02756c.0441-.011024.0882-.011024.121269-.011024.08268 0 .115755.055122.115755.2094632v.8158037c0 .2535606-.03858.292146-.281121.3031703v.0551212h.83234v-.0551219c-.231511-.0165365-.259072-.0496097-.259072-.3031703v-1.2512666zm-.165366-.7882429c-.09922 0-.17639.082683-.17639.1819022 0 .099219.07717.17639.17639.17639s.181903-.077171.181903-.17639-.08268-.1819022-.181903-.1819022zm0 0"/><path d="m78.935956 6.7229775v-.1322925h-.270097c-.07166 0-.12678-.011024-.192926-.038585l-.07717-.027561c-.09922-.033073-.192927-.04961-.281122-.04961-.330731 0-.589804.2480484-.589804.5732675 0 .2204875.09371.35278.325219.4685359-.06615.060634-.12678.1212681-.148829.1433169-.115756.099219-.159853.1708778-.159853.2425362 0 .071658.03859.115756.181902.1819022-.248048.1874144-.341756.3031703-.341756.4299506 0 .1874144.27561.3417557.606341.3417557.264585 0 .540194-.093707.722097-.2370241.132292-.1102437.192926-.2204875.192926-.3582922 0-.2149753-.165365-.3638044-.424438-.3748287l-.452-.022049c-.187414-.00551-.275609-.038585-.275609-.093707 0-.071658.115756-.1929265.209463-.2204875.03307 0 .05512.00551.06615.00551.06615.00551.115756.011024.137805.011024.12678 0 .270097-.055122.374829-.1488291.115756-.099219.170878-.2204875.170878-.3968775 0-.099219-.01654-.1819022-.06615-.2976581zm-1.13551 1.3725347c.115756.027561.396877.04961.567755.04961.319707 0 .435463.044098.435463.1708778 0 .2039509-.264585.3417556-.661463.3417556-.308682 0-.512633-.1047315-.512633-.2590728 0-.082683.02205-.1267803.170878-.3031706zm.01654-1.1961447c0-.2039509.09922-.3307313.259073-.3307313.110244 0 .203951.060634.259073.1653657.06063.1267803.104731.2866337.104731.4244384 0 .1984388-.104731.3197069-.264585.3197069-.209463 0-.358292-.2259997-.358292-.5677553zm0 0"/><path d="m79.115422 6.6899044c.02205-.011024.05512-.011024.09371-.011024.09922 0 .132293.04961.132293.2204875v.8764378c0 .1984388-.03859.2480485-.220488.2590728v.0551215h.749658v-.0551219c-.181906-.0110243-.231515-.0551219-.231515-.1819022v-.9866815c.165365-.1598535.242536-.1984388.358292-.1984388.17639 0 .259073.1047316.259073.3362435v.7386331c0 .2204875-.0441.2811216-.220488.2921459v.0551219h.727609v-.0551219c-.170878-.0165365-.209463-.0551219-.209463-.2315119v-.8047793c0-.3307313-.159854-.5236578-.418926-.5236578-.159854 0-.270098.055122-.507122.2811215v-.2756094l-.02756-.00551c-.170877.060634-.292146.099219-.485072.1543412zm0 0"/><path d="m81.456665 6.4749291-.545707.1929265v.04961h.02756c.0441-.011024.08819-.011024.121268-.011024.08268 0 .115756.055122.115756.2094632v.8158037c0 .2535606-.03858.292146-.281121.3031703v.0551212h.83234v-.0551219c-.231511-.0165365-.259072-.0496097-.259072-.3031703v-1.2512666zm-.165366-.7882429c-.09922 0-.17639.082683-.17639.1819022 0 .099219.07717.17639.17639.17639s.181903-.077171.181903-.17639-.08268-.1819022-.181903-.1819022zm0 0"/><path d="m81.922544 6.6237581h.237024v1.1355106c0 .2259997-.03859.2700972-.237024.2756094v.0551219h.777218v-.0551219c-.198439-.0110243-.242536-.060634-.242536-.2535606v-1.1575594h.30317c.336244 0 .35278.011024.35278.1984388v.9260475c0 .237024-.02205.2700972-.242536.2866337v.0551219h.771706v-.0551219c-.192926-.0165365-.231512-.060634-.231512-.2866337v-.9205353c0-.077171 0-.1598535.0055-.3472679l-.01654-.00551c-.154341.022049-.253561.033073-.396878.033073h-.551202v-.1543433c0-.1543412.01102-.2590728.02756-.3197068.04961-.1543413.187414-.2590729.347267-.2590729.09922 0 .165366.044097.248049.1653657.06615.093707.110244.1322925.170878.1322925.07717 0 .12678-.060634.12678-.1378047 0-.1488291-.17639-.2480485-.446487-.2480485-.264585 0-.468536.093707-.595316.264585-.104732.1433169-.143317.2756094-.165366.556731h-.242536zm0 0"/><path d="m85.160396 7.5387812c-.170878.2480485-.297659.3307313-.496097.3307313-.319707 0-.545707-.2811216-.545707-.6835112 0-.3638044.192927-.6118529.47956-.6118529.126781 0 .170878.038585.203951.1708779l.02205.077171c.02756.099219.09371.1598534.165366.1598534.09371 0 .170878-.066146.170878-.1488291 0-.1929265-.248049-.3582921-.540195-.3582921-.17639 0-.35278.066146-.496097.1929265-.17639.1543413-.275609.3968775-.275609.6724869 0 .4575116.275609.7827306.666975.7827306.159853 0 .297658-.055122.424438-.1653656.09922-.082683.165366-.17639.270097-.3858531zm0 0"/><path d="m86.881737 7.8584881c-.06063.04961-.104732.066146-.154341.066146-.08268 0-.104732-.04961-.104732-.203951v-.6835109c0-.1874144-.01654-.2866338-.07166-.3693166-.07717-.1267803-.226-.1929265-.435463-.1929265-.330731 0-.589804.1708778-.589804.3913653 0 .082683.06615.148829.148829.148829.08268 0 .159853-.066146.159853-.1433168 0-.016537-.0055-.033073-.0055-.060634-.01102-.027561-.01102-.055122-.01102-.082683 0-.093707.110243-.1708778.25356-.1708778.170878 0 .264585.099219.264585.2921459v.2149753c-.540194.2149753-.600828.2425363-.749657.380341-.07717.066146-.126781.1874143-.126781.3031703 0 .2204875.154342.3748287.369317.3748287.154341 0 .297658-.071658.512633-.2535606.01654.1819022.07717.2535606.226.2535606.115756 0 .192927-.038585.314195-.17639zm-.545707-.1984387c0 .1047315-.01654.1378047-.08819.1819022-.08819.04961-.187414.077171-.259073.077171-.121268 0-.220487-.115756-.220487-.2700972v-.011024c0-.2094631.143317-.3362434.567755-.4905847zm0 0"/><path d="m86.95 6.6899c.02205-.011024.05512-.011024.09371-.011024.09922 0 .13229.04961.13229.22049v.87644c0 .19844-.03859.24805-.22049.25907v.055122h.74966v-.055122c-.18191-.011024-.23152-.055122-.23152-.1819v-.98668c.16536-.15985.24254-.19844.35829-.19844.17639 0 .25907.10473.25907.33624v.73863c0 .22049-.0441.28112-.22049.29215v.055122h.72761v-.055122c-.17088-.016536-.20946-.055122-.20946-.23151v-.80478c0-.33073-.15985-.52366-.41893-.52366-.15985 0-.2701.055122-.50712.28112v-.27561l-.02756-.00551c-.17088.060634-.29215.099219-.48507.15434z"/><path d="m90.073396 7.5387812c-.170878.2480485-.297659.3307313-.496097.3307313-.319707 0-.545707-.2811216-.545707-.6835112 0-.3638044.192927-.6118529.47956-.6118529.126781 0 .170878.038585.203951.1708779l.02205.077171c.02756.099219.09371.1598534.165366.1598534.09371 0 .170878-.066146.170878-.1488291 0-.1929265-.248049-.3582921-.540195-.3582921-.17639 0-.35278.066146-.496097.1929265-.17639.1543413-.275609.3968775-.275609.6724869 0 .4575116.275609.7827306.666975.7827306.159853 0 .297658-.055122.424438-.1653656.09922-.082683.165366-.17639.270097-.3858531zm0 0"/><path d="m91.674 7.5112c-.16537.2701-.31971.36933-.54572.36933-.19844 0-.34727-.099219-.45198-.30317-.06064-.13229-.08819-.24805-.09371-.46302h1.0804c-.027557-.226-.060632-.33073-.14883-.44098-.10473-.12678-.2701-.19844-.45198-.19844-.17639 0-.34176.060636-.47406.1819-.16537.14332-.25908.39137-.25908.67801 0 .49058.25356.78825.65596.78825.33624 0 .60082-.20395.74966-.58427zm-1.0859-.50712c.03859-.27561.15985-.40788.37483-.40788s.29766.099219.34176.40788z"/><path d="m6.1197866 10.738002h-.3582922v-.407902c0-.03307 0-.0441-.022049-.0441-.027561.02756-.04961.06063-.071658.09371-.1322925.198439-.2866338.363804-.3417556.380341-.038585.02205-.060634.04961-.060634.06615 0 .01103.00551.01654.016537.02205h.1874143v1.05834c0 .297658.1047316.446487.3086825.446487.17639 0 .3086825-.08268.4244385-.264585l-.044098-.03858c-.077171.08819-.1378047.121268-.2149753.121268-.1267804 0-.1819022-.09371-.1819022-.314195v-1.00873h.3582922zm0 0"/><path d="m6.7455188 11.112831c.148829-.159854.2535606-.220488.3913653-.220488.17639 0 .264585.126781.264585.374829v.694536c0 .237024-.038585.286634-.2425363.30317v.055122h.7496575v-.05512c-.1929266-.033075-.2149753-.060636-.2149753-.303172v-.700048c0-.369317-.1433169-.556731-.4299506-.556731-.2094632 0-.35278.08268-.5181456.292146v-1.0693644l-.0165366-.0110243c-.1212681.0440975-.2094631.0716584-.4023897.1267807l-.099219.02756v.06063c.016537-.0055.027561-.0055.044097-.0055.1488291 0 .1819022.02756.1819022.17639v1.659169c0 .248048-.022049.275609-.2259997.30317v.055114h.760682v-.05512c-.2039509-.01654-.2425362-.06063-.2425362-.30317zm0 0"/><path d="m9.5277369 12.088488c-.060634.04961-.1047316.06615-.1543413.06615-.082683 0-.1047315-.04961-.1047315-.203951v-.683511c0-.187414-.016537-.286634-.071658-.369316-.077171-.126781-.2259997-.192927-.4354628-.192927-.3307312 0-.5898041.170878-.5898041.391365 0 .08268.066146.148829.1488291.148829.082683 0 .1598534-.06615.1598534-.143316 0-.01654-.00551-.03307-.00551-.06063-.011024-.02756-.011024-.05512-.011024-.08268 0-.09371.1102437-.170878.2535606-.170878.1708778 0 .264585.09922.264585.292146v.214975c-.5401944.214975-.6008284.242536-.7496575.380341-.077171.06615-.1267803.187414-.1267803.30317 0 .220488.1543413.374829.3693166.374829.1543412 0 .2976581-.07166.5126334-.253561.016537.181903.077171.253561.2259997.253561.1157559 0 .1929266-.03858.3141947-.17639zm-.5457066-.198439c0 .104732-.016536.137805-.088195.181903-.088195.04961-.1874144.07717-.2590728.07717-.1212681 0-.2204875-.115756-.2204875-.270097v-.01102c0-.209463.1433169-.336244.5677553-.490585zm0 0"/><path d="m10.438787 10.738002h-.358293v-.407902c0-.03307 0-.0441-.02205-.0441-.02756.02756-.04961.06063-.071659.09371-.1322925.198439-.2866338.363804-.3417556.380341-.038585.02205-.060634.04961-.060634.06615 0 .01103.00551.01654.016537.02205h.1874143v1.05834c0 .297658.1047316.446487.3086823.446487.17639 0 .308682-.08268.424438-.264585l-.0441-.03858c-.07717.08819-.137805.121268-.214975.121268-.126781 0-.181903-.09371-.181903-.314195v-1.00873h.358293zm0 0"/></g><g fill="#f00" stroke="#f00" stroke-linecap="round" stroke-linejoin="round" stroke-width=".2"><path d="m12.65808 11.360879h.512633v.159854c0 .06615.02205.09371.07166.09371.0441 0 .07166-.02756.07166-.09371v-.457512c0-.06615-.02756-.09922-.07166-.09922-.04961 0-.07166.03307-.07166.09922v.154342h-.512633v-.733121h1.107949v.341755c0 .06615.02205.09922.06615.09922.04961 0 .07717-.03307.07717-.09922v-.485072h-1.581998c-.06615 0-.09922.02205-.09922.07166 0 .0441.03307.07166.09922.07166h.187415v1.692241h-.187415c-.06615 0-.09922.02205-.09922.07166s.03307.07166.09922.07166h.815804c.06615 0 .09922-.02205.09922-.07166s-.03307-.07166-.09922-.07166h-.485075zm0 0"/><path d="m14.77408 11.360879h.512633v.159854c0 .06615.02205.09371.07166.09371.0441 0 .07166-.02756.07166-.09371v-.457512c0-.06615-.02756-.09922-.07166-.09922-.04961 0-.07166.03307-.07166.09922v.154342h-.512633v-.733121h1.107949v.341755c0 .06615.02205.09922.06615.09922.04961 0 .07717-.03307.07717-.09922v-.485072h-1.581998c-.06615 0-.09922.02205-.09922.07166 0 .0441.03307.07166.09922.07166h.187415v1.692241h-.187415c-.06615 0-.09922.02205-.09922.07166s.03307.07166.09922.07166h.815804c.06615 0 .09922-.02205.09922-.07166s-.03307-.07166-.09922-.07166h-.485075zm0 0"/><path d="m17.815127 11.658538.198439.518145h-.270097c-.06063 0-.09371.02205-.09371.07166s.03307.07166.09371.07166h.551219c.06063 0 .09371-.02205.09371-.07166s-.03307-.07166-.09371-.07166h-.132293l-.689023-1.835558h-.722097c-.06063 0-.09371.02205-.09371.07166 0 .0441.03307.07166.09371.07166h.424438l-.628389 1.692241h-.110244c-.06615 0-.09371.02205-.09371.07166s.02756.07166.09371.07166h.52917c.06615 0 .09922-.02205.09922-.07166s-.03307-.07166-.09922-.07166h-.275609l.187414-.518145zm-.05512-.143317h-.821316l.374829-1.030779h.05512zm0 0"/></g><g stroke-width=".35278"><path d="m20.546519 11.112831c.148829-.159854.25356-.220488.391365-.220488.17639 0 .264585.126781.264585.374829v.694536c0 .237024-.03859.286634-.242536.30317v.055122h.749657v-.05512c-.192926-.03307-.214975-.06063-.214975-.30317v-.70005c0-.369317-.143317-.556731-.429951-.556731-.209463 0-.35278.08268-.518145.292146v-1.0693644l-.01654-.011024c-.121268.044097-.209463.071658-.40239.1267804l-.09922.02756v.06063c.01654-.0055.02756-.0055.0441-.0055.148829 0 .181902.02756.181902.17639v1.659169c0 .248048-.02205.275609-.226.30317v.055114h.760682v-.05512c-.203951-.01654-.242536-.06063-.242536-.30317zm0 0"/><path d="m23.328737 12.088488c-.06063.04961-.104732.06615-.154341.06615-.08268 0-.104732-.04961-.104732-.203951v-.683511c0-.187414-.01654-.286634-.07166-.369316-.07717-.126781-.226-.192927-.435463-.192927-.330731 0-.589804.170878-.589804.391365 0 .08268.06615.148829.148829.148829.08268 0 .159853-.06615.159853-.143316 0-.01654-.0055-.03307-.0055-.06063-.01102-.02756-.01102-.05512-.01102-.08268 0-.09371.110243-.170878.25356-.170878.170878 0 .264585.09922.264585.292146v.214975c-.540194.214975-.600828.242536-.749657.380341-.07717.06615-.126781.187414-.126781.30317 0 .220488.154342.374829.369317.374829.154341 0 .297658-.07166.512633-.253561.01654.181903.07717.253561.226.253561.115756 0 .192927-.03858.314195-.17639zm-.545707-.198439c0 .104732-.01654.137805-.08819.181903-.0882.04961-.187414.07717-.259073.07717-.121268 0-.220487-.115756-.220487-.270097v-.01102c0-.209463.143317-.336244.567755-.490585zm0 0"/><path d="m24.44925 11.217563-.01654-.479561h-.03859l-.0055.0055c-.03307.02756-.03307.02756-.04961.02756-.02205 0-.05512-.0055-.09371-.02205-.07717-.02756-.154341-.0441-.248049-.0441-.275609 0-.474048.181902-.474048.435463 0 .192926.110244.336243.407902.507121l.203951.115756c.12678.06615.181902.154341.181902.259073 0 .154341-.110244.253561-.292146.253561-.115756 0-.225999-.0441-.292146-.121269-.07717-.08819-.104731-.170877-.154341-.369316h-.05512v.551219h.0441c.02756-.03859.03859-.0441.08268-.0441.03307 0 .08268.0055.159854.02756.09922.02205.198439.03307.259073.03307.270097 0 .496097-.203951.496097-.446487 0-.17639-.08268-.292146-.297659-.418926l-.374828-.226c-.09922-.05512-.154342-.143317-.154342-.237024 0-.143317.110244-.242536.270098-.242536.203951 0 .308682.121268.385853.435463zm0 0"/><path d="m27.816737 12.088488c-.06063.04961-.104732.06615-.154341.06615-.08268 0-.104732-.04961-.104732-.203951v-.683511c0-.187414-.01654-.286634-.07166-.369316-.07717-.126781-.226-.192927-.435463-.192927-.330731 0-.589804.170878-.589804.391365 0 .08268.06615.148829.148829.148829.08268 0 .159853-.06615.159853-.143316 0-.01654-.0055-.03307-.0055-.06063-.01102-.02756-.01102-.05512-.01102-.08268 0-.09371.110243-.170878.25356-.170878.170878 0 .264585.09922.264585.292146v.214975c-.540194.214975-.600828.242536-.749657.380341-.07717.06615-.126781.187414-.126781.30317 0 .220488.154342.374829.369317.374829.154341 0 .297658-.07166.512633-.253561.01654.181903.07717.253561.226.253561.115756 0 .192927-.03858.314195-.17639zm-.545707-.198439c0 .104732-.01654.137805-.08819.181903-.0882.04961-.187414.07717-.259073.07717-.121268 0-.220487-.115756-.220487-.270097v-.01102c0-.209463.143317-.336244.567755-.490585zm0 0"/><path d="m30.291787 10.738002h-.358293v-.407902c0-.03307 0-.0441-.02205-.0441-.02756.02756-.04961.06063-.07166.09371-.132292.198439-.286634.363804-.341755.380341-.03859.02205-.06063.04961-.06063.06615 0 .01103.0055.01654.01654.02205h.187414v1.05834c0 .297658.104732.446487.308683.446487.17639 0 .308682-.08268.424438-.264585l-.0441-.03858c-.07717.08819-.137805.121268-.214975.121268-.126781 0-.181903-.09371-.181903-.314195v-1.00873h.358293zm0 0"/><path d="m30.389349 10.947465c.04961-.01102.08268-.01102.12678-.01102.08819 0 .115756.05512.115756.209463v.876438c0 .17639-.02205.203951-.248048.242536v.055118h.843364v-.05512c-.237024-.0055-.297658-.06063-.297658-.259073v-.793757c0-.110243.154341-.286633.248049-.286633.02205 0 .04961.01654.08819.04961.06063.04961.09922.07166.143316.07166.08268 0 .137805-.06063.137805-.159854 0-.115756-.07717-.181902-.192926-.181902-.14883 0-.253561.07717-.424439.325219v-.319707l-.01654-.0055c-.187415.07717-.314195.121268-.523658.187414zm0 0"/><path d="m32.984469 11.741229c-.165366.270096-.319707.369326-.545716.369326-.198438 0-.347269-.09922-.451981-.303173-.06064-.132292-.08819-.248046-.09371-.463023h1.080389c-.02756-.225998-.06064-.330732-.148831-.440975-.104733-.126782-.270095-.198439-.451982-.198439-.17639 0-.341755.06064-.474065.1819-.165366.143317-.259075.391374-.259075.678008 0 .490576.253561.788252.655959.788252.336242 0 .60082-.203949.749658-.584274zm-1.085892-.507121c.03859-.275609.159851-.407884.374828-.407884s.297659.09922.341756.407884z"/><path d="m33.185446 10.919904c.0441-.01102.07717-.01102.115756-.01102.08819 0 .121268.05512.121268.220488v.892974c0 .187414-.04961.242536-.248048.242536v.055118h.78273v-.05512c-.187414-.0055-.242536-.0441-.242536-.181902v-.992194c0-.0055.03307-.03859.05512-.06615.0882-.07717.237024-.137805.363805-.137805.154341 0 .231511.121268.231511.369317v.760682c0 .198438-.03858.237024-.242536.248048v.055124h.788243v-.05512c-.198439 0-.253561-.06063-.253561-.281121v-.88195c.110244-.154342.226-.214976.385853-.214976.198439 0 .264585.09371.264585.385853v.738634c0 .20395-.02756.231511-.231511.25356v.05512h.766194v-.05512l-.08819-.0055c-.104732-.0055-.154342-.07166-.154342-.203951v-.727609c0-.413414-.132292-.622877-.407901-.622877-.203951 0-.380341.0882-.573268.292146-.06063-.198439-.181902-.292146-.369317-.292146-.154341 0-.25356.0441-.545706.270097v-.264585l-.02756-.0055c-.17639.06615-.297658.104732-.490585.154341zm0 0"/><path d="m37.304469 11.741229c-.165366.270096-.319707.369326-.545716.369326-.198438 0-.347269-.09922-.451981-.303173-.06064-.132292-.08819-.248046-.09371-.463023h1.080389c-.02756-.225998-.06064-.330732-.148831-.440975-.104733-.126782-.270095-.198439-.451982-.198439-.17639 0-.341755.06064-.474065.1819-.165366.143317-.259075.391374-.259075.678008 0 .490576.253561.788252.655959.788252.336242 0 .60082-.203949.749658-.584274zm-1.085892-.507121c.03859-.275609.159851-.407884.374828-.407884s.297659.09922.341756.407884z"/><path d="m37.494422 10.919904c.02205-.01102.05512-.01102.09371-.01102.09922 0 .132293.04961.132293.220488v.876437c0 .198439-.03859.248049-.220488.259073v.055118h.749658v-.05512c-.181903-.01102-.231512-.05512-.231512-.181902v-.986682c.165365-.159853.242536-.198438.358292-.198438.17639 0 .259073.104731.259073.336243v.738633c0 .220488-.0441.281122-.220488.292146v.05512h.727609v-.05512c-.170878-.01654-.209463-.05512-.209463-.231512v-.804779c0-.330731-.159854-.523658-.418926-.523658-.159854 0-.270098.05512-.507122.281122v-.27561l-.02756-.0055c-.170877.06063-.292146.09922-.485072.154341zm0 0"/><path d="m40.424469 12.353073.518146-.181902v-.05512c-.06063.0055-.07166.0055-.07717.0055-.12678 0-.154341-.03858-.154341-.203951v-1.9898894l-.02205-.011024c-.165366.060634-.292146.093707-.512633.1543414v.06063c.02756-.0055.0441-.0055.07717-.0055.126781 0 .159854.03307.159854.17639v.551219c-.132293-.110244-.231512-.148829-.369317-.148829-.40239 0-.733121.396878-.733121.892974 0 .452.264585.75517.650438.75517.198439 0 .330732-.06615.452-.231512v.220488zm-.01102-.391365c0 .02205-.02756.06615-.06063.104731-.06063.07166-.148829.104732-.253561.104732-.292146 0-.485072-.281122-.485072-.711072 0-.396878.170877-.661463.440974-.661463.187415 0 .358293.165366.358293.35278zm0 0"/><path d="m41.87825 10.704938c-.45752 0-.77721.336242-.77721.821307 0 .474066.325221.826846.766203.826846.446479 0 .782749-.369326.782749-.854398 0-.463024-.325221-.793755-.771707-.793755zm-.04961.0937c.297658 0 .501618.341756.501618.821307 0 .396878-.154341.639414-.418926.639414-.137803 0-.270096-.08819-.341756-.225998-.09922-.1819-.154341-.429968-.154341-.678008 0-.336241.165365-.556722.413423-.556722z"/><path d="m44.461029 12.14361h-.02205c-.159854 0-.198439-.03859-.198439-.198439v-1.207169h-.556731v.06063c.220487.01103.259073.0441.259073.220488v.826828c0 .09922-.01654.148829-.06615.187414-.09371.07717-.20395.115756-.308682.115756-.137805 0-.248048-.115756-.248048-.264585v-1.146535h-.512634v.04961c.165366.01102.214975.06063.214975.226v.88195c0 .281121.170878.457511.424439.457511.132292 0 .270097-.05512.363804-.148829l.154341-.148829v.286634l.01103.01102c.17639-.07166.30317-.110244.485072-.159853zm0 0"/><path d="m45.66125 11.217563-.01654-.479561h-.03859l-.0055.0055c-.03307.02756-.03307.02756-.04961.02756-.02205 0-.05512-.0055-.09371-.02205-.07717-.02756-.154342-.0441-.248049-.0441-.275609 0-.474048.181902-.474048.435463 0 .192926.110244.336243.407902.507121l.203951.115756c.12678.06615.181902.154341.181902.259073 0 .154341-.110244.253561-.292146.253561-.115756 0-.225999-.0441-.292146-.121269-.07717-.08819-.104731-.170877-.154341-.369316h-.05512v.551219h.0441c.02756-.03859.03858-.0441.08268-.0441.03307 0 .08268.0055.159853.02756.09922.02205.198439.03307.259073.03307.270097 0 .496097-.203951.496097-.446487 0-.17639-.08268-.292146-.297658-.418926l-.374829-.226c-.09922-.05512-.154341-.143317-.154341-.237024 0-.143317.110243-.242536.270097-.242536.203951 0 .308682.121268.385853.435463zm0 0"/><path d="m47.380373 10.936432h.08819c.115754 0 .143317.03307.143317.198439v1.648153c0 .1819-.03859.220487-.248047.242536v.05512h.854398v-.06064c-.264585-.0055-.314193-.0441-.314193-.264585v-.551219c.126782.115754.209463.148831.358284.148831.413423 0 .73865-.391374.73865-.903999 0-.435471-.248046-.744154-.589812-.744154-.192929 0-.34727.08268-.507122.27561v-.270096l-.01654-.0055c-.192929.07166-.314193.115754-.507122.17639zm.523667.209463c0-.104733.198439-.231512.363786-.231512.259075 0 .429969.264585.429969.67247 0 .391374-.17088.655959-.42443.655959-.165365 0-.369325-.126782-.369325-.231512z"/><path d="m50.00725 10.704938c-.45752 0-.77721.336242-.77721.821307 0 .474066.325221.826846.766203.826846.446479 0 .782749-.369326.782749-.854398 0-.463024-.325221-.793755-.771707-.793755zm-.04961.0937c.297658 0 .501618.341756.501618.821307 0 .396878-.154341.639414-.418926.639414-.137803 0-.270096-.08819-.341756-.225998-.09922-.1819-.154341-.429968-.154341-.678008 0-.336241.165365-.556722.413423-.556722z"/><path d="m52.01225 11.217563-.01654-.479561h-.03859l-.0055.0055c-.03307.02756-.03307.02756-.04961.02756-.02205 0-.05512-.0055-.09371-.02205-.07717-.02756-.154342-.0441-.248049-.0441-.275609 0-.474048.181902-.474048.435463 0 .192926.110244.336243.407902.507121l.203951.115756c.12678.06615.181902.154341.181902.259073 0 .154341-.110244.253561-.292146.253561-.115756 0-.225999-.0441-.292146-.121269-.07717-.08819-.104731-.170877-.154341-.369316h-.05512v.551219h.0441c.02756-.03859.03859-.0441.08268-.0441.03307 0 .08268.0055.159853.02756.09922.02205.198439.03307.259073.03307.270097 0 .496097-.203951.496097-.446487 0-.17639-.08268-.292146-.297658-.418926l-.374829-.226c-.09922-.05512-.154341-.143317-.154341-.237024 0-.143317.110243-.242536.270097-.242536.203951 0 .308682.121268.385853.435463zm0 0"/><path d="m52.874665 10.704929-.545707.192927v.04961h.02756c.0441-.01102.08819-.01102.121268-.01102.08268 0 .115756.05512.115756.209463v.815804c0 .25356-.03858.292146-.281121.30317v.055117h.83234v-.05512c-.231512-.01654-.259073-.04961-.259073-.30317v-1.251269zm-.165366-.7882427c-.09922 0-.17639.082683-.17639.1819017 0 .09922.07717.17639.17639.17639s.181903-.07717.181903-.17639c0-.099219-.08268-.1819017-.181903-.1819017zm0 0"/><path d="m54.129787 10.738002h-.358293v-.407902c0-.03307 0-.0441-.02205-.0441-.02756.02756-.04961.06063-.07166.09371-.132292.198439-.286634.363804-.341755.380341-.03859.02205-.06064.04961-.06064.06615 0 .01103.0055.01654.01654.02205h.187414v1.05834c0 .297658.104732.446487.308683.446487.17639 0 .308682-.08268.424438-.264585l-.0441-.03858c-.07717.08819-.137805.121268-.214975.121268-.126781 0-.181903-.09371-.181903-.314195v-1.00873h.358293zm0 0"/><path d="m54.821665 10.704929-.545707.192927v.04961h.02756c.0441-.01102.08819-.01102.121268-.01102.08268 0 .115756.05512.115756.209463v.815804c0 .25356-.03858.292146-.281121.30317v.055117h.83234v-.05512c-.231512-.01654-.259073-.04961-.259073-.30317v-1.251269zm-.165366-.7882427c-.09922 0-.17639.082683-.17639.1819017 0 .09922.07717.17639.17639.17639s.181903-.07717.181903-.17639c0-.099219-.08268-.1819017-.181903-.1819017zm0 0"/><path d="m56.769005 10.738002h-.485073v.04961c.110244.01102.165366.04961.165366.115756 0 .03307-.01102.07166-.02205.104731l-.347267.909511-.358293-.898486c-.02205-.04961-.03307-.09922-.03307-.132293 0-.06063.03859-.0882.159854-.09922v-.04961h-.689024v.04961c.132293.01102.159854.0441.319707.407902l.424439 1.00873c.0055.02205.01654.0441.02756.07166.02205.06615.0441.09371.06064.09371.02205 0 .04961-.0441.09922-.17639l.451999-1.129999c.09922-.237024.121268-.264585.226-.275609zm0 0"/><path d="m58.263469 11.741229c-.165366.270096-.319707.369326-.545716.369326-.198438 0-.347269-.09922-.451981-.303173-.06064-.132292-.08819-.248046-.09371-.463023h1.080389c-.02756-.225998-.06064-.330732-.148831-.440975-.104733-.126782-.270095-.198439-.451982-.198439-.17639 0-.341755.06064-.474065.1819-.165366.143317-.259075.391374-.259075.678008 0 .490576.253561.788252.655959.788252.336242 0 .60082-.203949.749658-.584274zm-1.085892-.507121c.03859-.275609.159851-.407884.374828-.407884s.297659.09922.341756.407884z"/><path d="m60.536665 10.704929-.545707.192927v.04961h.02756c.0441-.01102.08819-.01102.121268-.01102.08268 0 .115756.05512.115756.209463v.815804c0 .25356-.03859.292146-.281121.30317v.055117h.83234v-.05512c-.231512-.01654-.259073-.04961-.259073-.30317v-1.251269zm-.165366-.7882427c-.09922 0-.17639.082683-.17639.1819017 0 .09922.07717.17639.17639.17639s.181903-.07717.181903-.17639c0-.099219-.08268-.1819017-.181903-.1819017zm0 0"/><path d="m60.959446 10.919904c.0441-.01102.07717-.01102.115756-.01102.0882 0 .121268.05512.121268.220488v.892974c0 .187414-.04961.242536-.248048.242536v.055118h.78273v-.05512c-.187414-.0055-.242536-.0441-.242536-.181902v-.992194c0-.0055.03307-.03859.05512-.06615.08819-.07717.237024-.137805.363805-.137805.154341 0 .231511.121268.231511.369317v.760682c0 .198438-.03859.237024-.242536.248048v.055124h.788243v-.05512c-.198439 0-.253561-.06063-.253561-.281121v-.88195c.110244-.154342.226-.214976.385853-.214976.198439 0 .264585.09371.264585.385853v.738634c0 .20395-.02756.231511-.231511.25356v.05512h.766194v-.05512l-.08819-.0055c-.104732-.0055-.154342-.07166-.154342-.203951v-.727609c0-.413414-.132292-.622877-.407901-.622877-.203951 0-.380341.0882-.573268.292146-.06063-.198439-.181902-.292146-.369317-.292146-.154341 0-.25356.0441-.545706.270097v-.264585l-.02756-.0055c-.17639.06615-.297658.104732-.490585.154341zm0 0"/><path d="m63.678373 10.936432h.08819c.115754 0 .143317.03307.143317.198439v1.648153c0 .1819-.03859.220487-.248047.242536v.05512h.854398v-.06064c-.264585-.0055-.314193-.0441-.314193-.264585v-.551219c.126782.115754.209463.148831.358284.148831.413423 0 .73865-.391374.73865-.903999 0-.435471-.248046-.744154-.589812-.744154-.192929 0-.34727.08268-.507122.27561v-.270096l-.01654-.0055c-.192929.07166-.314193.115754-.507122.17639zm.523667.209463c0-.104733.198439-.231512.363786-.231512.259075 0 .429969.264585.429969.67247 0 .391374-.17088.655959-.42443.655959-.165365 0-.369325-.126782-.369325-.231512z"/><path d="m66.977737 12.088488c-.06063.04961-.104732.06615-.154341.06615-.08268 0-.104732-.04961-.104732-.203951v-.683511c0-.187414-.01654-.286634-.07166-.369316-.07717-.126781-.226-.192927-.435463-.192927-.330731 0-.589804.170878-.589804.391365 0 .08268.06615.148829.148829.148829.08268 0 .159853-.06615.159853-.143316 0-.01654-.0055-.03307-.0055-.06063-.01102-.02756-.01102-.05512-.01102-.08268 0-.09371.110243-.170878.25356-.170878.170878 0 .264585.09922.264585.292146v.214975c-.540194.214975-.600828.242536-.749657.380341-.07717.06615-.12678.187414-.12678.30317 0 .220488.154341.374829.369316.374829.154341 0 .297658-.07166.512633-.253561.01654.181903.07717.253561.226.253561.115756 0 .192927-.03858.314195-.17639zm-.545707-.198439c0 .104732-.01654.137805-.08819.181903-.08819.04961-.187414.07717-.259073.07717-.121268 0-.220487-.115756-.220487-.270097v-.01102c0-.209463.143317-.336244.567755-.490585zm0 0"/><path d="m68.391396 11.768781c-.170878.248049-.297659.330731-.496097.330731-.319707 0-.545707-.281121-.545707-.683511 0-.363804.192927-.611853.47956-.611853.126781 0 .170878.03859.203951.170878l.02205.07717c.02756.09922.09371.159853.165366.159853.09371 0 .170878-.06615.170878-.148829 0-.192926-.248049-.358292-.540195-.358292-.17639 0-.35278.06615-.496097.192927-.17639.154341-.275609.396877-.275609.672487 0 .457511.275609.78273.666975.78273.159853 0 .297658-.05512.424438-.165365.09922-.08268.165366-.17639.270097-.385854zm0 0"/><path d="m69.456787 10.738002h-.358293v-.407902c0-.03307 0-.0441-.02205-.0441-.02756.02756-.04961.06063-.07166.09371-.132292.198439-.286634.363804-.341755.380341-.03859.02205-.06063.04961-.06063.06615 0 .01103.0055.01654.01654.02205h.187414v1.05834c0 .297658.104732.446487.308683.446487.17639 0 .308682-.08268.424438-.264585l-.0441-.03858c-.07717.08819-.137805.121268-.214975.121268-.126781 0-.181903-.09371-.181903-.314195v-1.00873h.358293zm0 0"/><path d="m71.98125 10.704938c-.45752 0-.77721.336242-.77721.821307 0 .474066.325221.826846.766203.826846.446479 0 .782749-.369326.782749-.854398 0-.463024-.325221-.793755-.771707-.793755zm-.04961.0937c.297658 0 .501618.341756.501618.821307 0 .396878-.154341.639414-.418926.639414-.137803 0-.270096-.08819-.341756-.225998-.09922-.1819-.154341-.429968-.154341-.678008 0-.336241.165365-.556722.413423-.556722z"/><path d="m72.933422 10.919904c.02205-.01102.05512-.01102.09371-.01102.09922 0 .132293.04961.132293.220488v.876437c0 .198439-.03859.248049-.220488.259073v.055118h.749658v-.05512c-.181903-.01102-.231512-.05512-.231512-.181902v-.986682c.165365-.159853.242536-.198438.358292-.198438.17639 0 .259073.104731.259073.336243v.738633c0 .220488-.0441.281122-.220488.292146v.05512h.727609v-.05512c-.170878-.01654-.209463-.05512-.209463-.231512v-.804779c0-.330731-.159854-.523658-.418926-.523658-.159854 0-.270098.05512-.507122.281122v-.27561l-.02756-.0055c-.170877.06063-.292146.09922-.485072.154341zm0 0"/><path d="m77.080787 10.738002h-.358293v-.407902c0-.03307 0-.0441-.02205-.0441-.02756.02756-.04961.06063-.07166.09371-.132292.198439-.286634.363804-.341755.380341-.03859.02205-.06063.04961-.06063.06615 0 .01103.0055.01654.01654.02205h.187414v1.05834c0 .297658.104732.446487.308683.446487.17639 0 .308682-.08268.424438-.264585l-.0441-.03858c-.07717.08819-.137805.121268-.214975.121268-.126781 0-.181903-.09371-.181903-.314195v-1.00873h.358293zm0 0"/><path d="m77.706519 11.112831c.148829-.159854.25356-.220488.391365-.220488.17639 0 .264585.126781.264585.374829v.694536c0 .237024-.03858.286634-.242536.30317v.055122h.749657v-.05512c-.192926-.03307-.214975-.06063-.214975-.30317v-.70005c0-.369317-.143317-.556731-.429951-.556731-.209463 0-.35278.08268-.518145.292146v-1.0693644l-.01654-.011024c-.121268.044097-.209463.071658-.402389.1267804l-.09922.02756v.06063c.01654-.0055.02756-.0055.0441-.0055.148829 0 .181902.02756.181902.17639v1.659169c0 .248048-.02205.275609-.226.30317v.055114h.760682v-.05512c-.203951-.01654-.242536-.06063-.242536-.30317zm0 0"/><path d="m80.367469 11.741229c-.165366.270096-.319707.369326-.545716.369326-.198438 0-.347269-.09922-.451981-.303173-.06064-.132292-.08819-.248046-.09371-.463023h1.080389c-.02756-.225998-.06064-.330732-.148831-.440975-.104733-.126782-.270095-.198439-.451982-.198439-.17639 0-.341755.06064-.474065.1819-.165366.143317-.259075.391374-.259075.678008 0 .490576.253561.788252.655959.788252.336242 0 .60082-.203949.749658-.584274zm-1.085892-.507121c.03859-.275609.159851-.407884.374828-.407884s.297659.09922.341756.407884z"/><path d="m82.098373 10.936432h.08819c.115754 0 .143317.03307.143317.198439v1.648153c0 .1819-.03859.220487-.248047.242536v.05512h.854398v-.06064c-.264585-.0055-.314193-.0441-.314193-.264585v-.551219c.126782.115754.209463.148831.358284.148831.413423 0 .73865-.391374.73865-.903999 0-.435471-.248046-.744154-.589812-.744154-.192929 0-.34727.08268-.507122.27561v-.270096l-.01654-.0055c-.192929.07166-.314193.115754-.507122.17639zm.523667.209463c0-.104733.198439-.231512.363786-.231512.259075 0 .429969.264585.429969.67247 0 .391374-.17088.655959-.42443.655959-.165365 0-.369325-.126782-.369325-.231512z"/><path d="m85.277469 11.741229c-.165366.270096-.319707.369326-.545716.369326-.198438 0-.347269-.09922-.451981-.303173-.06064-.132292-.08819-.248046-.09371-.463023h1.080389c-.02756-.225998-.06064-.330732-.148831-.440975-.104733-.126782-.270095-.198439-.451982-.198439-.17639 0-.341755.06064-.474065.1819-.165366.143317-.259075.391374-.259075.678008 0 .490576.253561.788252.655959.788252.336242 0 .60082-.203949.749658-.584274zm-1.085892-.507121c.03859-.275609.159851-.407884.374828-.407884s.297659.09922.341756.407884z"/><path d="m85.433349 10.947465c.04961-.01102.08268-.01102.12678-.01102.08819 0 .115756.05512.115756.209463v.876438c0 .17639-.02205.203951-.248048.242536v.055118h.843364v-.05512c-.237024-.0055-.297658-.06063-.297658-.259073v-.793757c0-.110243.154341-.286633.248049-.286633.02205 0 .04961.01654.08819.04961.06063.04961.09922.07166.143316.07166.08268 0 .137805-.06063.137805-.159854 0-.115756-.07717-.181902-.192926-.181902-.14883 0-.253561.07717-.424439.325219v-.319707l-.01654-.0055c-.187415.07717-.314195.121268-.523658.187414zm0 0"/><path d="m87.682201 10.738002h-.429951v-.407902c0-.203951.06615-.314194.198439-.314194.07166 0 .121268.03307.187414.137804.05512.09371.09922.126781.159854.126781.07717 0 .143317-.06615.143317-.143317 0-.126781-.154341-.2204877-.363805-.2204877-.220487 0-.402389.093707-.496097.2590727-.09371.154341-.121268.281122-.121268.562243h-.292146v.110244h.292146v1.10795c0 .25356-.03858.297658-.292146.308682v.055122h.915024v-.05512c-.292146-.0055-.330732-.04961-.330732-.308682v-1.10795h.429951zm0 0"/><path d="m88.66225 10.704938c-.45752 0-.77721.336242-.77721.821307 0 .474066.325221.826846.766203.826846.446479 0 .782749-.369326.782749-.854398 0-.463024-.325221-.793755-.771707-.793755zm-.04961.0937c.297658 0 .501618.341756.501618.821307 0 .396878-.154341.639414-.418926.639414-.137803 0-.270096-.08819-.341756-.225998-.09922-.1819-.154341-.429968-.154341-.678008 0-.336241.165365-.556722.413423-.556722z"/><path d="m89.581349 10.947465c.04961-.01102.08268-.01102.12678-.01102.08819 0 .115756.05512.115756.209463v.876438c0 .17639-.02205.203951-.248048.242536v.055118h.843364v-.05512c-.237024-.0055-.297658-.06063-.297658-.259073v-.793757c0-.110243.154341-.286633.248049-.286633.02205 0 .04961.01654.08819.04961.06063.04961.09922.07166.143316.07166.08268 0 .137805-.06063.137805-.159854 0-.115756-.07717-.181902-.192926-.181902-.14883 0-.253561.07717-.424439.325219v-.319707l-.01654-.0055c-.187415.07717-.314195.121268-.523658.187414zm0 0"/><path d="m90.797 11.416v.22049h.8654v-.22049z"/><path d="m5.2874463 15.149904c.044098-.01102.077171-.01102.1157559-.01102.088195 0 .1212681.05512.1212681.220488v.892974c0 .187414-.04961.242536-.2480484.242536v.055118h.7827306v-.05512c-.1874144-.0055-.2425363-.0441-.2425363-.181902v-.992194c0-.0055.033073-.03858.055122-.06615.088195-.07717.2370241-.137805.3638044-.137805.1543412 0 .2315119.121268.2315119.369317v.760682c0 .198438-.038585.237024-.2425363.248048v.055124h.7882428v-.05512c-.1984387 0-.2535606-.06063-.2535606-.281121v-.88195c.1102437-.154344.2259996-.214978.385853-.214978.1984388 0 .264585.09371.264585.385853v.738633c0 .203951-.027561.231512-.2315118.253561v.055122h.766194v-.05512l-.088195-.0055c-.1047315-.0055-.1543412-.07166-.1543412-.203951v-.727609c0-.413414-.1322925-.622877-.4079019-.622877-.2039509 0-.3803409.08819-.5732675.292146-.060634-.198439-.1819022-.292146-.3693166-.292146-.1543412 0-.2535606.0441-.5457065.270097v-.264585l-.027561-.0055c-.17639.06615-.2976581.104732-.4905846.154341zm0 0"/><path d="m9.5277369 16.318488c-.060634.04961-.1047316.06615-.1543413.06615-.082683 0-.1047315-.04961-.1047315-.203951v-.683511c0-.187414-.016537-.286634-.071658-.369316-.077171-.126781-.2259997-.192927-.4354628-.192927-.3307312 0-.5898041.170878-.5898041.391365 0 .08268.066146.148829.1488291.148829.082683 0 .1598534-.06615.1598534-.143316 0-.01654-.00551-.03307-.00551-.06063-.011024-.02756-.011024-.05512-.011024-.08268 0-.09371.1102437-.170878.2535606-.170878.1708778 0 .264585.09922.264585.292146v.214975c-.5401944.214975-.6008284.242536-.7496575.380341-.077171.06615-.1267803.187414-.1267803.30317 0 .220488.1543413.374829.3693166.374829.1543412 0 .2976581-.07166.5126334-.253561.016537.181903.077171.253561.2259997.253561.1157559 0 .1929266-.03858.3141947-.17639zm-.5457066-.198439c0 .104732-.016536.137805-.088195.181903-.088195.04961-.1874144.07717-.2590728.07717-.1212681 0-.2204875-.115756-.2204875-.270097v-.01102c0-.209463.1433169-.336244.5677553-.490585zm0 0"/><path d="m9.5954219 15.149904c.022049-.01102.055122-.01102.093707-.01102.099219 0 .1322925.04961.1322925.220488v.876437c0 .198439-.038585.248049-.2204875.259073v.055118h.7496581v-.05512c-.181903-.01102-.231512-.05512-.231512-.181902v-.986682c.165365-.159853.242536-.198438.358292-.198438.17639 0 .259073.104731.259073.336243v.738633c0 .220488-.0441.281122-.220488.292146v.05512h.727609v-.05512c-.170878-.01654-.209463-.05512-.209463-.231512v-.804779c0-.330731-.159854-.523658-.418926-.523658-.159854 0-.270098.05512-.507122.281122v-.27561l-.02756-.0055c-.1708776.06063-.2921458.09922-.4850723.154341zm0 0"/><path d="m12.719396 15.998781c-.170878.248049-.297658.330731-.496097.330731-.319707 0-.545707-.281121-.545707-.683511 0-.363804.192927-.611853.479561-.611853.12678 0 .170877.03859.20395.170878l.02205.07717c.02756.09922.09371.159853.165366.159853.09371 0 .170878-.06615.170878-.148829 0-.192926-.248049-.358292-.540195-.358292-.17639 0-.35278.06615-.496097.192927-.17639.154341-.275609.396877-.275609.672487 0 .457511.275609.78273.666975.78273.159853 0 .297658-.05512.424438-.165365.09922-.08268.165366-.176391.270097-.385854zm0 0"/><path d="m14.319469 15.971229c-.165366.270096-.319707.369326-.545716.369326-.198438 0-.347269-.09922-.451981-.303173-.06064-.132292-.08819-.248046-.09371-.463023h1.080389c-.02756-.225998-.06064-.330732-.148831-.440975-.104733-.126782-.270095-.198439-.451982-.198439-.17639 0-.341755.06064-.474065.1819-.165366.143317-.259075.391374-.259075.678008 0 .490576.253561.788252.655959.788252.336242 0 .60082-.203949.749658-.584274zm-1.085892-.507121c.03859-.275609.159851-.407884.374828-.407884s.297659.09922.341756.407884z"/><path d="m16.52025 14.934938c-.45752 0-.77721.336242-.77721.821307 0 .474066.325221.826846.766203.826846.446479 0 .782749-.369326.782749-.854398 0-.463024-.325221-.793755-.771707-.793755zm-.04961.0937c.297658 0 .501618.341756.501618.821307 0 .396878-.154341.639414-.418926.639414-.137803 0-.270096-.08819-.341756-.225998-.09922-.1819-.154341-.429968-.154341-.678008 0-.336241.165365-.556722.413423-.556722z"/><path d="m18.503201 14.968002h-.429951v-.407902c0-.203951.06615-.314194.198439-.314194.07166 0 .121268.03307.187414.137804.05512.09371.09922.126781.159854.126781.07717 0 .143317-.06615.143317-.143317 0-.126781-.154342-.220488-.363805-.220488-.220487 0-.402389.09371-.496096.259073-.09371.154341-.121269.281122-.121269.562243h-.292146v.110244h.292146v1.10795c0 .25356-.03858.297658-.292146.308682v.055122h.915024v-.05512c-.292146-.0055-.330732-.04961-.330732-.308682v-1.10795h.429951zm0 0"/><path d="m22.280809 15.304246h-.892975v.06615c.148829.01102.192927.01654.231512.04961.05512.02756.07717.110243.07717.259072v.573268c0 .110244-.214975.203951-.468536.203951-.573268 0-.926048-.396878-.926048-1.052828 0-.330731.09922-.650438.253561-.821316.154341-.17639.374829-.270097.611853-.270097.198439 0 .369316.06615.507121.192926.104732.09922.159854.192927.248049.407902h.08268l-.02756-.738633h-.07717c-.02205.06615-.08819.115756-.159854.115756-.03307 0-.0882-.01102-.154341-.03859-.159853-.04961-.319707-.07717-.47956-.07717-.700048 0-1.207169.512634-1.207169 1.23473 0 .341756.09922.606341.292146.815804.237024.242536.573267.374829.964633.374829.297658 0 .738633-.121268.88195-.248049v-.711072c0-.209463.03859-.253561.242536-.270097zm0 0"/><path d="m23.041372 15.524733c.0882.01103.148829.01103.242536.01103.27561 0 .463024-.03307.617365-.115756.209464-.115756.336244-.330732.336244-.562244 0-.148829-.04961-.281121-.143317-.38034-.143317-.154342-.446487-.253561-.777218-.253561h-.93156v.06615c.259073.02756.297658.06063.297658.314195v1.521364c0 .297658-.02756.330731-.297658.358292v.066137h.986681v-.06615c-.281121-.01103-.330731-.06063-.330731-.319707zm0-1.052828c0-.09371.02205-.121268.121268-.121268.474048 0 .689024.165366.689024.52917 0 .341756-.203951.518146-.611853.518146-.07166 0-.115756-.0055-.198439-.01103zm0 0"/><path d="m24.190446 17.046097c.237024-.115756.391365-.330731.391365-.540195 0-.17639-.121268-.314194-.281121-.314194-.121268 0-.203951.08268-.203951.198439 0 .115755.07717.181902.203951.181902.02205 0 .04961-.0055.06615-.0055.02756-.01103.02756-.01103.03307-.01103.02756 0 .04961.02205.04961.04961 0 .115756-.09922.242536-.292146.374829zm0 0"/><path d="m27.568737 16.318488c-.06063.04961-.104732.06615-.154341.06615-.08268 0-.104732-.04961-.104732-.203951v-.683511c0-.187414-.01654-.286634-.07166-.369316-.07717-.126781-.226-.192927-.435463-.192927-.330731 0-.589804.170878-.589804.391365 0 .08268.06615.148829.148829.148829.08268 0 .159853-.06615.159853-.143316 0-.01654-.0055-.03307-.0055-.06063-.01102-.02756-.01102-.05512-.01102-.08268 0-.09371.110243-.170878.25356-.170878.170878 0 .264585.09922.264585.292146v.214975c-.540194.214975-.600828.242536-.749657.380341-.07717.06615-.126781.187414-.126781.30317 0 .220488.154342.374829.369317.374829.154341 0 .297658-.07166.512633-.253561.01654.181903.07717.253561.226.253561.115756 0 .192927-.03858.314195-.17639zm-.545707-.198439c0 .104732-.01654.137805-.08819.181903-.08819.04961-.187414.07717-.259073.07717-.121268 0-.220487-.115756-.220487-.270097v-.01102c0-.209463.143317-.336244.567755-.490585zm0 0"/><path d="m28.68925 15.447563-.01654-.479561h-.03859l-.0055.0055c-.03307.02756-.03307.02756-.04961.02756-.02205 0-.05512-.0055-.09371-.02205-.07717-.02756-.154342-.0441-.248049-.0441-.275609 0-.474048.181902-.474048.435463 0 .192926.110244.336243.407902.507121l.203951.115756c.12678.06615.181902.154341.181902.259073 0 .154341-.110244.25356-.292146.25356-.115756 0-.225999-.0441-.292146-.121268-.07717-.08819-.104731-.170877-.154341-.369316h-.05512v.551219h.0441c.02756-.03859.03858-.0441.08268-.0441.03307 0 .08268.0055.159854.02756.09922.02205.198439.03307.259073.03307.270097 0 .496097-.203951.496097-.446487 0-.17639-.08268-.292146-.297659-.418926l-.374828-.226c-.09922-.05512-.154342-.143317-.154342-.237024 0-.143317.110244-.242536.270098-.242536.203951 0 .308682.121268.385853.435463zm0 0"/><path d="m30.782665 14.934929-.545707.192927v.04961h.02756c.0441-.01102.08819-.01102.121268-.01102.08268 0 .115756.05512.115756.209463v.815804c0 .25356-.03859.292146-.281121.30317v.055117h.83234v-.05512c-.231512-.01654-.259073-.04961-.259073-.30317v-1.251267zm-.165366-.788243c-.09922 0-.17639.08268-.17639.181902 0 .09922.07717.17639.17639.17639s.181903-.07717.181903-.17639-.08268-.181902-.181903-.181902zm0 0"/><path d="m32.036787 14.968002h-.358293v-.407902c0-.03307 0-.0441-.02205-.0441-.02756.02756-.04961.06063-.07166.09371-.132292.198439-.286634.363804-.341755.380341-.03859.02205-.06063.04961-.06063.06615 0 .01103.0055.01654.01654.02205h.187414v1.05834c0 .297658.104732.446487.308683.446487.17639 0 .308682-.08268.424438-.264585l-.0441-.03858c-.07717.08819-.137805.121268-.214975.121268-.126781 0-.181903-.09371-.181903-.314195v-1.00873h.358293zm0 0"/></g><g fill="#f00" stroke="#f00" stroke-linecap="round" stroke-linejoin="round" stroke-width=".2"><path d="m34.738396 15.998781c-.170878.248049-.297659.330731-.496097.330731-.319707 0-.545707-.281121-.545707-.683511 0-.363804.192927-.611853.47956-.611853.126781 0 .170878.03859.203951.170878l.02205.07717c.02756.09922.09371.159853.165366.159853.09371 0 .170878-.06615.170878-.148829 0-.192926-.248049-.358292-.540195-.358292-.17639 0-.35278.06615-.496097.192927-.17639.154341-.275609.396877-.275609.672487 0 .457511.275609.78273.666975.78273.159853 0 .297658-.05512.424438-.165365.09922-.08268.165366-.176391.270097-.385854zm0 0"/><path d="m36.460737 16.318488c-.06063.04961-.104732.06615-.154341.06615-.08268 0-.104732-.04961-.104732-.203951v-.683511c0-.187414-.01654-.286634-.07166-.369316-.07717-.126781-.226-.192927-.435463-.192927-.330731 0-.589804.170878-.589804.391365 0 .08268.06615.148829.148829.148829.08268 0 .159853-.06615.159853-.143316 0-.01654-.0055-.03307-.0055-.06063-.01102-.02756-.01102-.05512-.01102-.08268 0-.09371.110243-.170878.25356-.170878.170878 0 .264585.09922.264585.292146v.214975c-.540194.214975-.600828.242536-.749657.380341-.07717.06615-.126781.187414-.126781.30317 0 .220488.154342.374829.369317.374829.154341 0 .297658-.07166.512634-.253561.01654.181903.07717.253561.225999.253561.115756 0 .192927-.03858.314195-.17639zm-.545707-.198439c0 .104732-.01654.137805-.08819.181903-.0882.04961-.187414.07717-.259073.07717-.121268 0-.220487-.115756-.220487-.270097v-.01102c0-.209463.143317-.336244.567755-.490585zm0 0"/><path d="m36.528422 15.149904c.02205-.01102.05512-.01102.09371-.01102.09922 0 .132293.04961.132293.220488v.876437c0 .198439-.03859.248049-.220488.259073v.055118h.749658v-.05512c-.181903-.01102-.231512-.05512-.231512-.181902v-.986682c.165365-.159853.242536-.198438.358292-.198438.17639 0 .259073.104731.259073.336243v.738633c0 .220488-.0441.281122-.220488.292146v.05512h.727609v-.05512c-.170878-.01654-.209463-.05512-.209463-.231512v-.804779c0-.330731-.159854-.523658-.418926-.523658-.159854 0-.270098.05512-.507122.281122v-.27561l-.02756-.0055c-.170877.06063-.292146.09922-.485072.154341zm0 0"/><path d="m40.053665 14.934929-.545707.192927v.04961h.02756c.0441-.01102.08819-.01102.121268-.01102.08268 0 .115756.05512.115756.209463v.815804c0 .25356-.03858.292146-.281121.30317v.055117h.83234v-.05512c-.231512-.01654-.259073-.04961-.259073-.30317v-1.251267zm-.165366-.788243c-.09922 0-.17639.08268-.17639.181902 0 .09922.07717.17639.17639.17639s.181903-.07717.181903-.17639-.08268-.181902-.181903-.181902zm0 0"/><path d="m40.465422 15.149904c.02205-.01102.05512-.01102.09371-.01102.09922 0 .132293.04961.132293.220488v.876437c0 .198439-.03859.248049-.220488.259073v.055118h.749658v-.05512c-.181903-.01102-.231512-.05512-.231512-.181902v-.986682c.165365-.159853.242536-.198438.358292-.198438.17639 0 .259073.104731.259073.336243v.738633c0 .220488-.0441.281122-.220488.292146v.05512h.727609v-.05512c-.170878-.01654-.209463-.05512-.209463-.231512v-.804779c0-.330731-.159854-.523658-.418926-.523658-.159854 0-.270098.05512-.507122.281122v-.27561l-.02756-.0055c-.170877.06063-.292146.09922-.485072.154341zm0 0"/><path d="m43.588396 15.998781c-.170878.248049-.297659.330731-.496097.330731-.319707 0-.545707-.281121-.545707-.683511 0-.363804.192927-.611853.47956-.611853.126781 0 .170878.03859.203951.170878l.02205.07717c.02756.09922.09371.159853.165366.159853.09371 0 .170878-.06615.170878-.148829 0-.192926-.248049-.358292-.540195-.358292-.17639 0-.35278.06615-.496097.192927-.17639.154341-.275609.396877-.275609.672487 0 .457511.275609.78273.666975.78273.159853 0 .297658-.05512.424438-.165365.09922-.08268.165366-.176391.270097-.385854zm0 0"/><path d="m43.778349 15.177465c.04961-.01102.08268-.01102.12678-.01102.08819 0 .115756.05512.115756.209463v.876438c0 .17639-.02205.203951-.248048.242536v.055118h.843364v-.05512c-.237024-.0055-.297658-.06063-.297658-.259073v-.793757c0-.110243.154341-.286633.248049-.286633.02205 0 .04961.01654.08819.04961.06063.04961.09922.07166.143316.07166.08268 0 .137805-.06063.137805-.159854 0-.115756-.07717-.181902-.192926-.181902-.14883 0-.253561.07717-.424439.325219v-.319707l-.01654-.0055c-.187415.07717-.314195.121268-.523658.187414zm0 0"/><path d="m46.373469 15.971229c-.165366.270096-.319707.369326-.545716.369326-.198438 0-.347269-.09922-.451981-.303173-.06064-.132292-.08819-.248046-.09371-.463023h1.080389c-.02756-.225998-.06064-.330732-.148831-.440975-.104733-.126782-.270095-.198439-.451982-.198439-.17639 0-.341755.06064-.474065.1819-.165366.143317-.259075.391374-.259075.678008 0 .490576.253561.788252.655959.788252.336242 0 .60082-.203949.749658-.584274zm-1.085892-.507121c.03859-.275609.159851-.407884.374828-.407884s.297659.09922.341756.407884z"/><path d="m48.062737 16.318488c-.06063.04961-.104732.06615-.154341.06615-.08268 0-.104732-.04961-.104732-.203951v-.683511c0-.187414-.01654-.286634-.07166-.369316-.07717-.126781-.226-.192927-.435463-.192927-.330731 0-.589804.170878-.589804.391365 0 .08268.06615.148829.148829.148829.08268 0 .159853-.06615.159853-.143316 0-.01654-.0055-.03307-.0055-.06063-.01102-.02756-.01102-.05512-.01102-.08268 0-.09371.110243-.170878.25356-.170878.170878 0 .264585.09922.264585.292146v.214975c-.540194.214975-.600828.242536-.749657.380341-.07717.06615-.126781.187414-.126781.30317 0 .220488.154342.374829.369317.374829.154341 0 .297658-.07166.512633-.253561.01654.181903.07717.253561.226.253561.115756 0 .192927-.03858.314195-.17639zm-.545707-.198439c0 .104732-.01654.137805-.08819.181903-.08819.04961-.187414.07717-.259073.07717-.121268 0-.220487-.115756-.220487-.270097v-.01102c0-.209463.143317-.336244.567755-.490585zm0 0"/><path d="m49.18325 15.447563-.01654-.479561h-.03859l-.0055.0055c-.03307.02756-.03307.02756-.04961.02756-.02205 0-.05512-.0055-.09371-.02205-.07717-.02756-.154342-.0441-.248049-.0441-.275609 0-.474048.181902-.474048.435463 0 .192926.110244.336243.407902.507121l.203951.115756c.12678.06615.181902.154341.181902.259073 0 .154341-.110244.25356-.292146.25356-.115756 0-.225999-.0441-.292146-.121268-.07717-.08819-.104731-.170877-.154341-.369316h-.05512v.551219h.0441c.02756-.03859.03859-.0441.08268-.0441.03307 0 .08268.0055.159853.02756.09922.02205.198439.03307.259073.03307.270097 0 .496097-.203951.496097-.446487 0-.17639-.08268-.292146-.297658-.418926l-.374829-.226c-.09922-.05512-.154342-.143317-.154342-.237024 0-.143317.110244-.242536.270098-.242536.203951 0 .308682.121268.385853.435463zm0 0"/><path d="m50.862469 15.971229c-.165366.270096-.319707.369326-.545716.369326-.198438 0-.347269-.09922-.451981-.303173-.06064-.132292-.08819-.248046-.09371-.463023h1.080389c-.02756-.225998-.06064-.330732-.148831-.440975-.104733-.126782-.270095-.198439-.451982-.198439-.17639 0-.341755.06064-.474065.1819-.165366.143317-.259075.391374-.259075.678008 0 .490576.253561.788252.655959.788252.336242 0 .60082-.203949.749658-.584274zm-1.085892-.507121c.03859-.275609.159851-.407884.374828-.407884s.297659.09922.341756.407884z"/><path d="m53.079787 14.968002h-.358293v-.407902c0-.03307 0-.0441-.02205-.0441-.02756.02756-.04961.06063-.07166.09371-.132292.198439-.286634.363804-.341755.380341-.03859.02205-.06063.04961-.06063.06615 0 .01103.0055.01654.01654.02205h.187414v1.05834c0 .297658.104732.446487.308683.446487.17639 0 .308682-.08268.424438-.264585l-.0441-.03858c-.07717.08819-.137805.121268-.214975.121268-.126781 0-.181903-.09371-.181903-.314195v-1.00873h.358293zm0 0"/><path d="m53.705519 15.342831c.148829-.159853.25356-.220488.391365-.220488.17639 0 .264585.126781.264585.374829v.694536c0 .237024-.03858.286634-.242536.30317v.055122h.749657v-.05512c-.192926-.03307-.214975-.06063-.214975-.30317v-.70005c0-.369317-.143317-.556731-.429951-.556731-.209463 0-.35278.08268-.518145.292146v-1.069364l-.01654-.01103c-.121268.0441-.209463.07166-.40239.126781l-.09922.02756v.06063c.01654-.0055.02756-.0055.0441-.0055.148829 0 .181902.02756.181902.17639v1.659169c0 .248048-.02205.275609-.226.30317v.055119h.760682v-.05512c-.203951-.01654-.242536-.06063-.242536-.30317zm0 0"/><path d="m56.366469 15.971229c-.165366.270096-.319707.369326-.545716.369326-.198438 0-.347269-.09922-.451981-.303173-.06064-.132292-.08819-.248046-.09371-.463023h1.080389c-.02756-.225998-.06064-.330732-.148831-.440975-.104733-.126782-.270095-.198439-.451982-.198439-.17639 0-.341755.06064-.474065.1819-.165366.143317-.259075.391374-.259075.678008 0 .490576.253561.788252.655959.788252.336242 0 .60082-.203949.749658-.584274zm-1.085892-.507121c.03859-.275609.159851-.407884.374828-.407884s.297659.09922.341756.407884z"/><path d="m58.83525 15.447563-.01654-.479561h-.03859l-.0055.0055c-.03307.02756-.03307.02756-.04961.02756-.02205 0-.05512-.0055-.09371-.02205-.07717-.02756-.154342-.0441-.248049-.0441-.275609 0-.474048.181902-.474048.435463 0 .192926.110244.336243.407902.507121l.203951.115756c.12678.06615.181902.154341.181902.259073 0 .154341-.110244.25356-.292146.25356-.115756 0-.225999-.0441-.292146-.121268-.07717-.08819-.104731-.170877-.154341-.369316h-.05512v.551219h.0441c.02756-.03859.03859-.0441.08268-.0441.03307 0 .08268.0055.159853.02756.09922.02205.198439.03307.259073.03307.270097 0 .496097-.203951.496097-.446487 0-.17639-.08268-.292146-.297658-.418926l-.374829-.226c-.09922-.05512-.154341-.143317-.154341-.237024 0-.143317.110243-.242536.270097-.242536.203951 0 .308682.121268.385853.435463zm0 0"/><path d="m60.767029 16.37361h-.02205c-.159854 0-.198439-.03858-.198439-.198439v-1.207169h-.556731v.06063c.220487.01103.259073.0441.259073.220488v.826828c0 .09922-.01654.148829-.06615.187414-.09371.07717-.203951.115756-.308683.115756-.137805 0-.248048-.115756-.248048-.264585v-1.146535h-.512634v.04961c.165366.01102.214975.06063.214975.226v.88195c0 .281121.170878.457511.424439.457511.132292 0 .270097-.05512.363804-.148829l.154341-.148829v.286634l.01102.01102c.17639-.07166.30317-.110244.485072-.159853zm0 0"/><path d="m62.259396 15.998781c-.170878.248049-.297659.330731-.496097.330731-.319707 0-.545707-.281121-.545707-.683511 0-.363804.192927-.611853.47956-.611853.126781 0 .170878.03859.203951.170878l.02205.07717c.02756.09922.09371.159853.165366.159853.09371 0 .170878-.06615.170878-.148829 0-.192926-.248049-.358292-.540195-.358292-.17639 0-.35278.06615-.496097.192927-.17639.154341-.275609.396877-.275609.672487 0 .457511.275609.78273.666975.78273.159853 0 .297658-.05512.424438-.165365.09922-.08268.165366-.176391.270097-.385854zm0 0"/><path d="m63.826396 15.998781c-.170878.248049-.297659.330731-.496097.330731-.319707 0-.545707-.281121-.545707-.683511 0-.363804.192927-.611853.47956-.611853.126781 0 .170878.03859.203951.170878l.02205.07717c.02756.09922.09371.159853.165366.159853.09371 0 .170878-.06615.170878-.148829 0-.192926-.248049-.358292-.540195-.358292-.17639 0-.35278.06615-.496097.192927-.17639.154341-.275609.396877-.275609.672487 0 .457511.275609.78273.666975.78273.159853 0 .297658-.05512.424438-.165365.09922-.08268.165366-.176391.270097-.385854zm0 0"/><path d="m65.427469 15.971229c-.165366.270096-.319707.369326-.545716.369326-.198438 0-.347269-.09922-.451981-.303173-.06064-.132292-.08819-.248046-.09371-.463023h1.080389c-.02756-.225998-.06064-.330732-.148831-.440975-.104733-.126782-.270095-.198439-.451982-.198439-.17639 0-.341755.06064-.474065.1819-.165366.143317-.259075.391374-.259075.678008 0 .490576.253561.788252.655959.788252.336242 0 .60082-.203949.749658-.584274zm-1.085892-.507121c.03859-.275609.159851-.407884.374828-.407884s.297659.09922.341756.407884z"/><path d="m66.66925 15.447563-.01654-.479561h-.03859l-.0055.0055c-.03307.02756-.03307.02756-.04961.02756-.02205 0-.05512-.0055-.09371-.02205-.07717-.02756-.154342-.0441-.248049-.0441-.275609 0-.474048.181902-.474048.435463 0 .192926.110244.336243.407902.507121l.203951.115756c.12678.06615.181902.154341.181902.259073 0 .154341-.110244.25356-.292146.25356-.115756 0-.225999-.0441-.292146-.121268-.07717-.08819-.104731-.170877-.154341-.369316h-.05512v.551219h.0441c.02756-.03859.03858-.0441.08268-.0441.03307 0 .08268.0055.159853.02756.09922.02205.198439.03307.259073.03307.270097 0 .496097-.203951.496097-.446487 0-.17639-.08268-.292146-.297659-.418926l-.374828-.226c-.09922-.05512-.154341-.143317-.154341-.237024 0-.143317.110243-.242536.270097-.242536.203951 0 .308682.121268.385853.435463zm0 0"/><path d="m68.02225 15.447563-.01654-.479561h-.03858l-.0055.0055c-.03307.02756-.03307.02756-.04961.02756-.02205 0-.05512-.0055-.09371-.02205-.07717-.02756-.154342-.0441-.248049-.0441-.275609 0-.474048.181902-.474048.435463 0 .192926.110244.336243.407902.507121l.203951.115756c.12678.06615.181902.154341.181902.259073 0 .154341-.110244.25356-.292146.25356-.115756 0-.225999-.0441-.292146-.121268-.07717-.08819-.104731-.170877-.154341-.369316h-.05512v.551219h.0441c.02756-.03859.03858-.0441.08268-.0441.03307 0 .08268.0055.159854.02756.09922.02205.198439.03307.259073.03307.270097 0 .496097-.203951.496097-.446487 0-.17639-.08268-.292146-.297659-.418926l-.374828-.226c-.09922-.05512-.154342-.143317-.154342-.237024 0-.143317.110244-.242536.270098-.242536.203951 0 .308682.121268.385853.435463zm0 0"/><path d="m69.520349 15.177465c.04961-.01102.08268-.01102.12678-.01102.08819 0 .115756.05512.115756.209463v.876438c0 .17639-.02205.203951-.248048.242536v.055118h.843364v-.05512c-.237024-.0055-.297658-.06063-.297658-.259073v-.793757c0-.110243.154341-.286633.248049-.286633.02205 0 .04961.01654.08819.04961.06063.04961.09922.07166.143316.07166.08268 0 .137805-.06063.137805-.159854 0-.115756-.07717-.181902-.192926-.181902-.14883 0-.253561.07717-.424439.325219v-.319707l-.01654-.0055c-.187415.07717-.314195.121268-.523658.187414zm0 0"/><path d="m72.236737 16.318488c-.06063.04961-.104732.06615-.154341.06615-.08268 0-.104732-.04961-.104732-.203951v-.683511c0-.187414-.01654-.286634-.07166-.369316-.07717-.126781-.226-.192927-.435463-.192927-.330731 0-.589804.170878-.589804.391365 0 .08268.06615.148829.148829.148829.08268 0 .159853-.06615.159853-.143316 0-.01654-.0055-.03307-.0055-.06063-.01102-.02756-.01102-.05512-.01102-.08268 0-.09371.110243-.170878.25356-.170878.170878 0 .264585.09922.264585.292146v.214975c-.540194.214975-.600828.242536-.749657.380341-.07717.06615-.12678.187414-.12678.30317 0 .220488.154341.374829.369316.374829.154341 0 .297658-.07166.512633-.253561.01654.181903.07717.253561.226.253561.115756 0 .192927-.03858.314195-.17639zm-.545707-.198439c0 .104732-.01654.137805-.08819.181903-.08819.04961-.187414.07717-.259073.07717-.121268 0-.220487-.115756-.220487-.270097v-.01102c0-.209463.143317-.336244.567755-.490585zm0 0"/><path d="m73.148787 14.968002h-.358293v-.407902c0-.03307 0-.0441-.02205-.0441-.02756.02756-.04961.06063-.07166.09371-.132292.198439-.286634.363804-.341755.380341-.03859.02205-.06063.04961-.06063.06615 0 .01103.0055.01654.01654.02205h.187414v1.05834c0 .297658.104732.446487.308683.446487.17639 0 .308682-.08268.424438-.264585l-.0441-.03858c-.07717.08819-.137805.121268-.214975.121268-.126781 0-.181903-.09371-.181903-.314195v-1.00873h.358293zm0 0"/><path d="m74.656469 15.971229c-.165366.270096-.319707.369326-.545716.369326-.198438 0-.347269-.09922-.451981-.303173-.06064-.132292-.08819-.248046-.09371-.463023h1.080389c-.02756-.225998-.06064-.330732-.148831-.440975-.104733-.126782-.270095-.198439-.451982-.198439-.17639 0-.341755.06064-.474065.1819-.165366.143317-.259075.391374-.259075.678008 0 .490576.253561.788252.655959.788252.336242 0 .60082-.203949.749658-.584274zm-1.085892-.507121c.03859-.275609.159851-.407884.374828-.407884s.297659.09922.341756.407884z"/><path d="m76.558494 14.157711-.02205-.01103c-.143317.05512-.242537.08268-.407902.126781l-.09922.02756v.06063c.02205-.0055.03307-.0055.06063-.0055.137805 0 .170878.03307.170878.17639v1.830047c0 .104731.297658.220487.57878.220487.468536 0 .826828-.385853.826828-.887462 0-.435463-.270097-.760682-.622877-.760682-.214975 0-.418926.121268-.485073.297658zm0 1.262291c0-.137805.165366-.264585.347268-.264585.27561 0 .446487.270097.446487.700047 0 .391366-.165365.617365-.451999.617365-.187414 0-.341756-.08268-.341756-.170877zm0 0"/><path d="m79.466493 14.968002h-.474048v.04961c.110243 0 .170878.03307.170878.0882 0 .01654-.0055.03858-.01654.06063l-.341756.970145-.402389-.887462c-.02205-.04961-.03859-.09371-.03859-.132293 0-.06615.05512-.08819.203951-.09922v-.04961h-.722089v.04961c.09371.01102.148829.04961.17639.110244l.402389.865413.01103.02756.05512.104732c.09922.17639.154341.30317.154341.358292 0 .04961-.08268.275609-.143317.380341-.04961.0882-.12678.154341-.17639.154341-.01654 0-.04961-.0055-.08819-.02205-.06615-.02205-.12678-.03858-.181902-.03858-.08268 0-.154341.07166-.154341.154341 0 .115756.115756.203951.259072.203951.237024 0 .407902-.198439.595317-.70556l.540194-1.433169c.04961-.110243.08819-.148829.170878-.159853zm0 0"/><path d="m82.418 15.74h-.35828v-1.5655h-.15434l-1.1024 1.5655v.22049h.98669v.58981h.2701v-.58981h.35828zm-.63391 0h-.84336l.84336-1.2072z"/><path d="m83.430257 14.174238c-.192929 0-.341756.06064-.468527.181901-.20395.198439-.341756.600819-.341756 1.014242 0 .380332.115754.793755.281123.992194.132293.154341.308683.237026.518164.237026.17639 0 .32522-.06064.451981-.181901.203949-.192928.341756-.600819.341756-1.030787 0-.716567-.319707-1.212682-.782748-1.212682zm-.01103.08819c.297658 0 .451982.396878.451982 1.135529 0 .733112-.154341 1.10794-.451982 1.10794-.303172 0-.45752-.374828-.45752-1.10794 0-.744154.154341-1.135529.45752-1.135529z"/><path d="m86.670004 15.243612c-.396877 0-.777218.413414-.777218.854389 0 .270097.170877.451999.424438.451999.159853 0 .286634-.05512.413414-.181902.181902-.187415.30317-.474048.30317-.744145 0-.242537-.137804-.380341-.363804-.380341zm.02205.115756c.137805 0 .248048.12678.248048.281121 0 .198439-.08819.440975-.220487.600828-.115756.143317-.214976.203951-.341756.203951s-.214975-.09371-.214975-.225999c0-.187415.09922-.474048.225999-.655951.09922-.143316.198439-.20395.303171-.20395zm-.148829-1.185121h-.132293c-.192926.17639-.330731.237024-.551219.237024-.137804 0-.220487-.02205-.30317-.09371-.09371-.07717-.137805-.09371-.248048-.09371-.40239 0-.777219.418926-.777219.865413 0 .242537.187415.446488.413414.446488.154342 0 .308683-.07166.424439-.192927.187414-.187414.297658-.468536.297658-.722097 0-.04961-.0055-.09371-.02205-.154341.06063.02205.121268.03307.226.03307.154341 0 .248048-.02205.385853-.104731l-1.23473 2.199362h.170878zm-.997706.264585c.02205.07166.03307.126781.03307.170878 0 .40239-.286634.804779-.573268.804779-.121268 0-.209463-.08819-.209463-.214975 0-.148829.07166-.385853.165366-.562243.104731-.192927.237024-.308683.347268-.308683.01654 0 .02205 0 .0441.02205.04961.0441.09371.06063.192927.08819zm0 0"/><path d="m87.678275 16.19722c-.104732 0-.192927.09371-.192927.203951 0 .09922.08819.187414.187415.187414.110244 0 .198439-.08819.198439-.187414 0-.110244-.08819-.203951-.192927-.203951zm0 0"/></g></svg>