<svg height="23pt" viewBox="0 0 97 23" width="97pt" xmlns="http://www.w3.org/2000/svg"><g transform="translate(-8.0407 -151.82)"><path d="m75.892 152.87c-1.2971.54933-1.4647-.0695-1.9676.49131-1.3642-.23403-2.0529 1.1801-2.6588-.60026-1.7926.49676-1.3006 1.5506-2.0475 1.9672.50481-.38621-3.372.48452-3.4523.12215-1.6043.77194 1.3725-1.4233-1.4564-.67448.09048-.71948-3.2554 1.3474-1.8419.65345-1.7466.29348-.97363-1.0205-1.4371-.53462.28518-.66667-1.433 1.0039-2.6263.56691-1.7037.42504-2.3249-1.677-3.1568-1.3083-.62996-.37284-1.2757 1.5206-2.23 1.3688-1.227.43955-2.0162-.92326-2.8076-.33252-.3399-.69161-2.5361.058-3.5682-.5548-.91563-.3362-3.6534 2.4255-3.457.20113-2.6575.33226-3.6552 1.1785-5.3944.50173-1.3962-.63664-2.9928-1.52-3.137-.83136-2.9044-.38901-2.5862.88258-4.4673.31459-.41847.36525-2.1909-.79822-3.4409-.3603-1.1239-.3669-1.5022.99734-1.9804.57815-1.4798.24579-2.1404-1.3081-2.8725-.99935-.25964-.31897-.2742 1.0889-1.9871.8353-.96383.27528-1.6714-.99162-3.1449-.86799-.77609.28428-1.8909 1.0841-2.1394 1.2928-.5411-.28537-.1958-.65156-1.593-.87669-1.6471.61177-2.3975.63732-2.7895 1.2811-1.0334 5.1384-1.194 10.407-.102 15.168.39198.6438 1.2444 1.2759 2.8915 1.8877 1.3972-.22513 2.3504-.48145 2.8915-.76682.24851.20869.12776.36466.90386.64892 1.4735.12363 1.9277.55031 2.8915.82558 1.7128-.25357 2.1352-.56574 2.3948-.88471.7321.30874 1.9085.58018 3.3883.82594.47825-.41917 1.271-.81311 2.3948-1.18 1.25.43792 2.4731.87347 2.8915 1.2387 1.8812-.56802 3.7127-1.1446 6.6174-1.5336.1442.68865.33886 1.3682 1.4014 1.8877.69881-.59965 1.6864-1.1585 4.3815-1.4749 2.5159.45861 3.5002 1.0417 4.8783 1.5928 1.0322-.6128 1.807-1.2548 2.1469-1.9464.7914.59074 1.6645 1.1529 2.8915 1.5923.95428-.15179 1.5161-.57061 2.1461-.94346.8318.36863 1.9334.75458 3.637 1.1796 1.1933-.43698 2.4312-.86695 2.146-1.5336.46349.48582 1.8904.82737 3.637 1.1208-1.4135-.69393-1.9859-1.4043-2.0764-2.1237 2.8289.74886 4.0197 1.5285 5.6241 2.3004.08028-.36238-.08144-.73428-.58627-1.1205.74682.41655 1.8436.85988 3.6363 1.3566-.0876-.45837.78271-.76893 2.1469-1.003.50289.56077 2.3391 1.1026 3.6363 1.6519 1.024-.5788 2.2579-1.1634 2.1469-1.7107.58705.43324 1.6843.8016 3.6363 1.0617 1.3483-.81461.72071-1.8618.4851-2.8627.29426-.00083.28596.11032.58032.10912 1.1189.80146 2.5372 1.4902 4.7178 2.2817 1.4129-.29354 2.7006-.62593 2.8915-1.2979 1.223.005 2.5678-.0823 2.8915.59018 2.4908-.31704 3.614-.41169 4.6268-1.113.62593-.004.911-.26876 1.5374-.27194.90153.68122 1.595 1.0176 2.1034 1.7386.22238-1.5519.46308-3.1236.66008-4.7048.44272-3.2158.53851-6.3984.002-9.384-.19727-1.5861-.43948-3.1628-.66255-4.7196-.50836.72098-1.7462 2.1339-2.7966.67447-.62638-.004-.45336 1.4346-1.0793 1.4315-1.3927-.8886-1.866-2.4163-4.2254-.72627-.32379.67253-2.787.81934-3.0569-.43584-.19088-.67195-1.4737 1.0885-2.8866.79496-2.1805.79157-1.354-1.6809-2.4729-.87947 1.8433-2.4282-2.536 1.1786-2.83 1.1775.23558-1.0009-.71656-.19135-2.0649-1.006-1.9519.2601-1.4702-1.2283-2.0572-.79506.11105-.54725-1.0023.38996-2.0262-.18883z" fill="#fffff0" stroke="#c8c8c8" stroke-linecap="round" stroke-linejoin="round" stroke-width=".17639"/><path d="m4.78125-2.296875v-2.3125h-.234375c-.125.796875-.296875.9375-1.09375.9375h-1.453125v-2.203125c0-.28125.046875-.34375.328125-.34375h1.34375c1.140625 0 1.359375.140625 1.515625 1.046875h.25l-.03125-1.421875h-5.28125v.1875c.734375.0625.859375.203125.859375.890625v4.3125c0 .828125-.109375.96875-.859375 1.015625v.1875h2.78125v-.1875c-.765625-.046875-.90625-.1875-.90625-.90625v-2.171875h1.453125c.796875 0 .96875.15625 1.09375.96875zm0 0" transform="matrix(.35278 0 0 .35278 16.775 159.91)"/><path d="m2.5-4.5781c-1.2969 0-2.2031.95312-2.2031 2.3281 0 1.3438.92188 2.3438 2.1719 2.3438 1.2656 0 2.2188-1.0469 2.2188-2.4219 0-1.3125-.92188-2.25-2.1875-2.25zm-.14062.26562c.84375 0 1.4219.96875 1.4219 2.3281 0 1.125-.4375 1.8125-1.1875 1.8125-.39062 0-.76562-.25-.96875-.64062-.28125-.51562-.4375-1.2188-.4375-1.9219 0-.95312.46875-1.5781 1.1719-1.5781z" transform="matrix(.35278 0 0 .35278 18.68 159.91)"/><path d="m4.78125-.5h-.0625c-.453125 0-.5625-.109375-.5625-.5625v-3.421875h-1.578125v.171875c.625.03125.734375.125.734375.625v2.34375c0 .28125-.046875.421875-.1875.53125-.265625.21875-.578125.328125-.875.328125-.390625 0-.703125-.328125-.703125-.75v-3.25h-1.453125v.140625c.46875.03125.609375.171875.609375.640625v2.5c0 .796875.484375 1.296875 1.203125 1.296875.375 0 .765625-.15625 1.03125-.421875l.4375-.421875v.8125l.03125.03125c.5-.203125.859375-.3125 1.375-.453125zm0 0" transform="matrix(.35278 0 0 .35278 20.459 159.91)"/><path d="m.0625-3.890625c.140625-.03125.234375-.03125.359375-.03125.25 0 .328125.15625.328125.59375v2.484375c0 .5-.0625.578125-.703125.6875v.15625h2.390625v-.15625c-.671875-.015625-.84375-.171875-.84375-.734375v-2.25c0-.3125.4375-.8125.703125-.8125.0625 0 .140625.046875.25.140625.171875.140625.28125.203125.40625.203125.234375 0 .390625-.171875.390625-.453125 0-.328125-.21875-.515625-.546875-.515625-.421875 0-.71875.21875-1.203125.921875v-.90625l-.046875-.015625c-.53125.21875-.890625.34375-1.484375.53125zm0 0" transform="matrix(.35278 0 0 .35278 22.237 159.91)"/><path d="m2.546875-4.484375h-1.015625v-1.15625c0-.09375 0-.125-.0625-.125-.078125.078125-.140625.171875-.203125.265625-.375.5625-.8125 1.03125-.96875 1.078125-.109375.0625-.171875.140625-.171875.1875 0 .03125.015625.046875.046875.0625h.53125v3c0 .84375.296875 1.265625.875 1.265625.5 0 .875-.234375 1.203125-.75l-.125-.109375c-.21875.25-.390625.34375-.609375.34375-.359375 0-.515625-.265625-.515625-.890625v-2.859375h1.015625zm0 0" transform="matrix(.35278 0 0 .35278 23.422 159.91)"/><path d="m1.5625-3.421875c.421875-.453125.71875-.625 1.109375-.625.5 0 .75.359375.75 1.0625v1.96875c0 .671875-.109375.8125-.6875.859375v.15625h2.125v-.15625c-.546875-.09375-.609375-.171875-.609375-.859375v-1.984375c0-1.046875-.40625-1.578125-1.21875-1.578125-.59375 0-1 .234375-1.46875.828125v-3.03125l-.046875-.03125c-.34375.125-.59375.203125-1.140625.359375l-.28125.078125v.171875c.046875-.015625.078125-.015625.125-.015625.421875 0 .515625.078125.515625.5v4.703125c0 .703125-.0625.78125-.640625.859375v.15625h2.15625v-.15625c-.578125-.046875-.6875-.171875-.6875-.859375zm0 0" transform="matrix(.35278 0 0 .35278 24.395 159.91)"/><path d="m.828125 1.40625c.671875-.328125 1.109375-.9375 1.109375-1.53125 0-.5-.34375-.890625-.796875-.890625-.34375 0-.578125.234375-.578125.5625s.21875.515625.578125.515625c.0625 0 .140625-.015625.1875-.015625.078125-.03125.078125-.03125.09375-.03125.078125 0 .140625.0625.140625.140625 0 .328125-.28125.6875-.828125 1.0625zm0 0" transform="matrix(.35278 0 0 .35278 26.174 159.91)"/><path d="m5.6875-4.484375v.140625c.34375.078125.4375.140625.4375.3125 0 .15625-.046875.390625-.15625.65625l-.90625 2.21875-.828125-2.234375c-.171875-.453125-.171875-.453125-.171875-.59375 0-.21875.109375-.28125.578125-.359375v-.140625h-2.03125v.140625c.375.046875.484375.15625.6875.6875.078125.203125.140625.390625.203125.5625l-.90625 1.984375-.984375-2.59375c-.046875-.109375-.0625-.203125-.0625-.296875 0-.21875.125-.296875.453125-.34375v-.140625h-1.796875v.140625c.234375.03125.3125.125.53125.640625l1.34375 3.40625c.125.296875.203125.4375.265625.4375.046875 0 .125-.125.25-.390625l1.109375-2.390625.90625 2.34375c.140625.375.1875.4375.25.4375s.109375-.09375.28125-.484375l1.375-3.453125c.171875-.421875.203125-.46875.40625-.546875v-.140625zm0 0" transform="matrix(.35278 0 0 .35278 28.501 159.91)"/><path d="m4.0625-1.6406c-.46875.76562-.90625 1.0469-1.5469 1.0469-.5625 0-.98438-.28125-1.2812-.85938-.17188-.375-.25-.70312-.26562-1.3125h3.0625c-.078125-.64062-.17188-.9375-.42188-1.25-.29688-.35938-.76562-.5625-1.2812-.5625-.5 0-.96875.17188-1.3438.51562-.46875.40625-.73438 1.1094-.73438 1.9219 0 1.3906.71875 2.2344 1.8594 2.2344.95312 0 1.7031-.57812 2.125-1.6562zm-3.0781-1.4375c.10938-.78125.45312-1.1562 1.0625-1.1562s.84375.28125.96875 1.1562z" transform="matrix(.35278 0 0 .35278 31.042 159.91)"/><path d="m5.6875-4.484375v.140625c.34375.078125.4375.140625.4375.3125 0 .15625-.046875.390625-.15625.65625l-.90625 2.21875-.828125-2.234375c-.171875-.453125-.171875-.453125-.171875-.59375 0-.21875.109375-.28125.578125-.359375v-.140625h-2.03125v.140625c.375.046875.484375.15625.6875.6875.078125.203125.140625.390625.203125.5625l-.90625 1.984375-.984375-2.59375c-.046875-.109375-.0625-.203125-.0625-.296875 0-.21875.125-.296875.453125-.34375v-.140625h-1.796875v.140625c.234375.03125.3125.125.53125.640625l1.34375 3.40625c.125.296875.203125.4375.265625.4375.046875 0 .125-.125.25-.390625l1.109375-2.390625.90625 2.34375c.140625.375.1875.4375.25.4375s.109375-.09375.28125-.484375l1.375-3.453125c.171875-.421875.203125-.46875.40625-.546875v-.140625zm0 0" transform="matrix(.35278 0 0 .35278 34.131 159.91)"/><path d="m4.0625-1.6406c-.46875.76562-.90625 1.0469-1.5469 1.0469-.5625 0-.98438-.28125-1.2812-.85938-.17188-.375-.25-.70312-.26562-1.3125h3.0625c-.078125-.64062-.17188-.9375-.42188-1.25-.29688-.35938-.76562-.5625-1.2812-.5625-.5 0-.96875.17188-1.3438.51562-.46875.40625-.73438 1.1094-.73438 1.9219 0 1.3906.71875 2.2344 1.8594 2.2344.95312 0 1.7031-.57812 2.125-1.6562zm-3.0781-1.4375c.10938-.78125.45312-1.1562 1.0625-1.1562s.84375.28125.96875 1.1562z" transform="matrix(.35278 0 0 .35278 36.672 159.91)"/><path d="m.0625-3.890625c.140625-.03125.234375-.03125.359375-.03125.25 0 .328125.15625.328125.59375v2.484375c0 .5-.0625.578125-.703125.6875v.15625h2.390625v-.15625c-.671875-.015625-.84375-.171875-.84375-.734375v-2.25c0-.3125.4375-.8125.703125-.8125.0625 0 .140625.046875.25.140625.171875.140625.28125.203125.40625.203125.234375 0 .390625-.171875.390625-.453125 0-.328125-.21875-.515625-.546875-.515625-.421875 0-.71875.21875-1.203125.921875v-.90625l-.046875-.015625c-.53125.21875-.890625.34375-1.484375.53125zm0 0" transform="matrix(.35278 0 0 .35278 38.24 159.91)"/><path d="m4.0625-1.6406c-.46875.76562-.90625 1.0469-1.5469 1.0469-.5625 0-.98438-.28125-1.2812-.85938-.17188-.375-.25-.70312-.26562-1.3125h3.0625c-.078125-.64062-.17188-.9375-.42188-1.25-.29688-.35938-.76562-.5625-1.2812-.5625-.5 0-.96875.17188-1.3438.51562-.46875.40625-.73438 1.1094-.73438 1.9219 0 1.3906.71875 2.2344 1.8594 2.2344.95312 0 1.7031-.57812 2.125-1.6562zm-3.0781-1.4375c.10938-.78125.45312-1.1562 1.0625-1.1562s.84375.28125.96875 1.1562z" transform="matrix(.35278 0 0 .35278 39.424 159.91)"/><path d="m4.40625-.65625c-.171875.140625-.296875.1875-.4375.1875-.234375 0-.296875-.140625-.296875-.578125v-1.9375c0-.53125-.046875-.8125-.203125-1.046875-.21875-.359375-.640625-.546875-1.234375-.546875-.9375 0-1.671875.484375-1.671875 1.109375 0 .234375.1875.421875.421875.421875s.453125-.1875.453125-.40625c0-.046875-.015625-.09375-.015625-.171875-.03125-.078125-.03125-.15625-.03125-.234375 0-.265625.3125-.484375.71875-.484375.484375 0 .75.28125.75.828125v.609375c-1.53125.609375-1.703125.6875-2.125 1.078125-.21875.1875-.359375.53125-.359375.859375 0 .625.4375 1.0625 1.046875 1.0625.4375 0 .84375-.203125 1.453125-.71875.046875.515625.21875.71875.640625.71875.328125 0 .546875-.109375.890625-.5zm-1.546875-.5625c0 .296875-.046875.390625-.25.515625-.25.140625-.53125.21875-.734375.21875-.34375 0-.625-.328125-.625-.765625v-.03125c0-.59375.40625-.953125 1.609375-1.390625zm0 0" transform="matrix(.35278 0 0 .35278 42.514 159.91)"/><path d="m1.53125-6.78125-.0625-.03125c-.40625.15625-.6875.234375-1.15625.359375l-.28125.078125v.171875c.0625-.015625.09375-.015625.171875-.015625.390625 0 .484375.09375.484375.5v5.1875c0 .296875.84375.625 1.640625.625 1.328125 0 2.34375-1.09375 2.34375-2.515625 0-1.234375-.765625-2.15625-1.765625-2.15625-.609375 0-1.1875.34375-1.375.84375zm0 3.578125c0-.390625.46875-.75.984375-.75.78125 0 1.265625.765625 1.265625 1.984375 0 1.109375-.46875 1.75-1.28125 1.75-.53125 0-.96875-.234375-.96875-.484375zm0 0" transform="matrix(.35278 0 0 .35278 44.081 159.91)"/><path d="m.1875-6.203125h.0625c.109375-.015625.234375-.03125.3125-.03125.3125 0 .421875.140625.421875.609375v4.75c0 .546875-.140625.671875-.78125.71875v.15625h2.359375v-.15625c-.625-.03125-.75-.140625-.75-.6875v-5.9375l-.03125-.03125c-.53125.171875-.90625.265625-1.59375.4375zm0 0" transform="matrix(.35278 0 0 .35278 45.86 159.91)"/><path d="m4.0625-1.6406c-.46875.76562-.90625 1.0469-1.5469 1.0469-.5625 0-.98438-.28125-1.2812-.85938-.17188-.375-.25-.70312-.26562-1.3125h3.0625c-.078125-.64062-.17188-.9375-.42188-1.25-.29688-.35938-.76562-.5625-1.2812-.5625-.5 0-.96875.17188-1.3438.51562-.46875.40625-.73438 1.1094-.73438 1.9219 0 1.3906.71875 2.2344 1.8594 2.2344.95312 0 1.7031-.57812 2.125-1.6562zm-3.0781-1.4375c.10938-.78125.45312-1.1562 1.0625-1.1562s.84375.28125.96875 1.1562z" transform="matrix(.35278 0 0 .35278 46.833 159.91)"/><path d="m2.546875-4.484375h-1.015625v-1.15625c0-.09375 0-.125-.0625-.125-.078125.078125-.140625.171875-.203125.265625-.375.5625-.8125 1.03125-.96875 1.078125-.109375.0625-.171875.140625-.171875.1875 0 .03125.015625.046875.046875.0625h.53125v3c0 .84375.296875 1.265625.875 1.265625.5 0 .875-.234375 1.203125-.75l-.125-.109375c-.21875.25-.390625.34375-.609375.34375-.359375 0-.515625-.265625-.515625-.890625v-2.859375h1.015625zm0 0" transform="matrix(.35278 0 0 .35278 49.88 159.91)"/><path d="m2.5-4.5781c-1.2969 0-2.2031.95312-2.2031 2.3281 0 1.3438.92188 2.3438 2.1719 2.3438 1.2656 0 2.2188-1.0469 2.2188-2.4219 0-1.3125-.92188-2.25-2.1875-2.25zm-.14062.26562c.84375 0 1.4219.96875 1.4219 2.3281 0 1.125-.4375 1.8125-1.1875 1.8125-.39062 0-.76562-.25-.96875-.64062-.28125-.51562-.4375-1.2188-.4375-1.9219 0-.95312.46875-1.5781 1.1719-1.5781z" transform="matrix(.35278 0 0 .35278 50.854 159.91)"/><path d="m3.96875-1.5625c-.484375.703125-.84375.9375-1.40625.9375-.90625 0-1.546875-.796875-1.546875-1.9375 0-1.03125.546875-1.734375 1.359375-1.734375.359375 0 .484375.109375.578125.484375l.0625.21875c.078125.28125.265625.453125.46875.453125.265625 0 .484375-.1875.484375-.421875 0-.546875-.703125-1.015625-1.53125-1.015625-.5 0-1 .1875-1.40625.546875-.5.4375-.78125 1.125-.78125 1.90625 0 1.296875.78125 2.21875 1.890625 2.21875.453125 0 .84375-.15625 1.203125-.46875.28125-.234375.46875-.5.765625-1.09375zm0 0" transform="matrix(.35278 0 0 .35278 54.158 159.91)"/><path d="m2.5-4.5781c-1.2969 0-2.2031.95312-2.2031 2.3281 0 1.3438.92188 2.3438 2.1719 2.3438 1.2656 0 2.2188-1.0469 2.2188-2.4219 0-1.3125-.92188-2.25-2.1875-2.25zm-.14062.26562c.84375 0 1.4219.96875 1.4219 2.3281 0 1.125-.4375 1.8125-1.1875 1.8125-.39062 0-.76562-.25-.96875-.64062-.28125-.51562-.4375-1.2188-.4375-1.9219 0-.95312.46875-1.5781 1.1719-1.5781z" transform="matrix(.35278 0 0 .35278 55.725 159.91)"/><path d="m.15625-3.96875c.0625-.03125.15625-.03125.265625-.03125.28125 0 .375.140625.375.625v2.484375c0 .5625-.109375.703125-.625.734375v.15625h2.125v-.15625c-.515625-.03125-.65625-.15625-.65625-.515625v-2.796875c.46875-.453125.6875-.5625 1.015625-.5625.5 0 .734375.296875.734375.953125v2.09375c0 .625-.125.796875-.625.828125v.15625h2.0625v-.15625c-.484375-.046875-.59375-.15625-.59375-.65625v-2.28125c0-.9375-.453125-1.484375-1.1875-1.484375-.453125 0-.765625.15625-1.4375.796875v-.78125l-.078125-.015625c-.484375.171875-.828125.28125-1.375.4375zm0 0" transform="matrix(.35278 0 0 .35278 57.504 159.91)"/><path d="m.3125-4.15625h.671875v3.21875c0 .640625-.109375.765625-.671875.78125v.15625h2.203125v-.15625c-.5625-.03125-.6875-.171875-.6875-.71875v-3.28125h.859375c.953125 0 1 .03125 1 .5625v2.625c0 .671875-.0625.765625-.6875.8125v.15625h2.1875v-.15625c-.546875-.046875-.65625-.171875-.65625-.8125v-2.609375c0-.21875 0-.453125.015625-.984375l-.046875-.015625c-.4375.0625-.71875.09375-1.125.09375h-1.5625v-.4375c0-.4375.03125-.734375.078125-.90625.140625-.4375.53125-.734375.984375-.734375.28125 0 .46875.125.703125.46875.1875.265625.3125.375.484375.375.21875 0 .359375-.171875.359375-.390625 0-.421875-.5-.703125-1.265625-.703125-.75 0-1.328125.265625-1.6875.75-.296875.40625-.40625.78125-.46875 1.578125h-.6875zm0 0" transform="matrix(.35278 0 0 .35278 59.282 159.91)"/><path d="m.0625-3.890625c.140625-.03125.234375-.03125.359375-.03125.25 0 .328125.15625.328125.59375v2.484375c0 .5-.0625.578125-.703125.6875v.15625h2.390625v-.15625c-.671875-.015625-.84375-.171875-.84375-.734375v-2.25c0-.3125.4375-.8125.703125-.8125.0625 0 .140625.046875.25.140625.171875.140625.28125.203125.40625.203125.234375 0 .390625-.171875.390625-.453125 0-.328125-.21875-.515625-.546875-.515625-.421875 0-.71875.21875-1.203125.921875v-.90625l-.046875-.015625c-.53125.21875-.890625.34375-1.484375.53125zm0 0" transform="matrix(.35278 0 0 .35278 61.23 159.91)"/><path d="m.1875-3.96875c.125-.03125.21875-.03125.328125-.03125.25 0 .34375.15625.34375.625v2.53125c0 .53125-.140625.6875-.703125.6875v.15625h2.21875v-.15625c-.53125-.015625-.6875-.125-.6875-.515625v-2.8125c0-.015625.09375-.109375.15625-.1875.25-.21875.671875-.390625 1.03125-.390625.4375 0 .65625.34375.65625 1.046875v2.15625c0 .5625-.109375.671875-.6875.703125v.15625h2.234375v-.15625c-.5625 0-.71875-.171875-.71875-.796875v-2.5c.3125-.4375.640625-.609375 1.09375-.609375.5625 0 .75.265625.75 1.09375v2.09375c0 .578125-.078125.65625-.65625.71875v.15625h2.171875v-.15625l-.25-.015625c-.296875-.015625-.4375-.203125-.4375-.578125v-2.0625c0-1.171875-.375-1.765625-1.15625-1.765625-.578125 0-1.078125.25-1.625.828125-.171875-.5625-.515625-.828125-1.046875-.828125-.4375 0-.71875.125-1.546875.765625v-.75l-.078125-.015625c-.5.1875-.84375.296875-1.390625.4375zm0 0" transform="matrix(.35278 0 0 .35278 62.414 159.91)"/><path d="m5.6875-4.484375v.140625c.34375.078125.4375.140625.4375.3125 0 .15625-.046875.390625-.15625.65625l-.90625 2.21875-.828125-2.234375c-.171875-.453125-.171875-.453125-.171875-.59375 0-.21875.109375-.28125.578125-.359375v-.140625h-2.03125v.140625c.375.046875.484375.15625.6875.6875.078125.203125.140625.390625.203125.5625l-.90625 1.984375-.984375-2.59375c-.046875-.109375-.0625-.203125-.0625-.296875 0-.21875.125-.296875.453125-.34375v-.140625h-1.796875v.140625c.234375.03125.3125.125.53125.640625l1.34375 3.40625c.125.296875.203125.4375.265625.4375.046875 0 .125-.125.25-.390625l1.109375-2.390625.90625 2.34375c.140625.375.1875.4375.25.4375s.109375-.09375.28125-.484375l1.375-3.453125c.171875-.421875.203125-.46875.40625-.546875v-.140625zm0 0" transform="matrix(.35278 0 0 .35278 66.649 159.91)"/><path d="m1.75-4.578125-1.546875.546875v.140625h.078125c.125-.03125.25-.03125.34375-.03125.234375 0 .328125.15625.328125.59375v2.3125c0 .71875-.109375.828125-.796875.859375v.15625h2.359375v-.15625c-.65625-.046875-.734375-.140625-.734375-.859375v-3.546875zm-.46875-2.234375c-.28125 0-.5.234375-.5.515625s.21875.5.5.5.515625-.21875.515625-.5-.234375-.515625-.515625-.515625zm0 0" transform="matrix(.35278 0 0 .35278 69.19 159.91)"/><path d="m2.546875-4.484375h-1.015625v-1.15625c0-.09375 0-.125-.0625-.125-.078125.078125-.140625.171875-.203125.265625-.375.5625-.8125 1.03125-.96875 1.078125-.109375.0625-.171875.140625-.171875.1875 0 .03125.015625.046875.046875.0625h.53125v3c0 .84375.296875 1.265625.875 1.265625.5 0 .875-.234375 1.203125-.75l-.125-.109375c-.21875.25-.390625.34375-.609375.34375-.359375 0-.515625-.265625-.515625-.890625v-2.859375h1.015625zm0 0" transform="matrix(.35278 0 0 .35278 70.164 159.91)"/><path d="m1.5625-3.421875c.421875-.453125.71875-.625 1.109375-.625.5 0 .75.359375.75 1.0625v1.96875c0 .671875-.109375.8125-.6875.859375v.15625h2.125v-.15625c-.546875-.09375-.609375-.171875-.609375-.859375v-1.984375c0-1.046875-.40625-1.578125-1.21875-1.578125-.59375 0-1 .234375-1.46875.828125v-3.03125l-.046875-.03125c-.34375.125-.59375.203125-1.140625.359375l-.28125.078125v.171875c.046875-.015625.078125-.015625.125-.015625.421875 0 .515625.078125.515625.5v4.703125c0 .703125-.0625.78125-.640625.859375v.15625h2.15625v-.15625c-.578125-.046875-.6875-.171875-.6875-.859375zm0 0" transform="matrix(.35278 0 0 .35278 71.138 159.91)"/><path d="m4.6875-3.875v-.375h-.765625c-.203125 0-.359375-.03125-.546875-.109375l-.21875-.078125c-.28125-.09375-.546875-.140625-.796875-.140625-.9375 0-1.671875.703125-1.671875 1.625 0 .625.265625 1 .921875 1.328125-.1875.171875-.359375.34375-.421875.40625-.328125.28125-.453125.484375-.453125.6875s.109375.328125.515625.515625c-.703125.53125-.96875.859375-.96875 1.21875 0 .53125.78125.96875 1.71875.96875.75 0 1.53125-.265625 2.046875-.671875.375-.3125.546875-.625.546875-1.015625 0-.609375-.46875-1.03125-1.203125-1.0625l-1.28125-.0625c-.53125-.015625-.78125-.109375-.78125-.265625 0-.203125.328125-.546875.59375-.625.09375 0 .15625.015625.1875.015625.1875.015625.328125.03125.390625.03125.359375 0 .765625-.15625 1.0625-.421875.328125-.28125.484375-.625.484375-1.125 0-.28125-.046875-.515625-.1875-.84375zm-3.21875 3.890625c.328125.078125 1.125.140625 1.609375.140625.90625 0 1.234375.125 1.234375.484375 0 .578125-.75.96875-1.875.96875-.875 0-1.453125-.296875-1.453125-.734375 0-.234375.0625-.359375.484375-.859375zm.046875-3.390625c0-.578125.28125-.9375.734375-.9375.3125 0 .578125.171875.734375.46875.171875.359375.296875.8125.296875 1.203125 0 .5625-.296875.90625-.75.90625-.59375 0-1.015625-.640625-1.015625-1.609375zm0 0" transform="matrix(.35278 0 0 .35278 74.441 159.91)"/><path d="m.0625-3.890625c.140625-.03125.234375-.03125.359375-.03125.25 0 .328125.15625.328125.59375v2.484375c0 .5-.0625.578125-.703125.6875v.15625h2.390625v-.15625c-.671875-.015625-.84375-.171875-.84375-.734375v-2.25c0-.3125.4375-.8125.703125-.8125.0625 0 .140625.046875.25.140625.171875.140625.28125.203125.40625.203125.234375 0 .390625-.171875.390625-.453125 0-.328125-.21875-.515625-.546875-.515625-.421875 0-.71875.21875-1.203125.921875v-.90625l-.046875-.015625c-.53125.21875-.890625.34375-1.484375.53125zm0 0" transform="matrix(.35278 0 0 .35278 76.22 159.91)"/><path d="m4.0625-1.6406c-.46875.76562-.90625 1.0469-1.5469 1.0469-.5625 0-.98438-.28125-1.2812-.85938-.17188-.375-.25-.70312-.26562-1.3125h3.0625c-.078125-.64062-.17188-.9375-.42188-1.25-.29688-.35938-.76562-.5625-1.2812-.5625-.5 0-.96875.17188-1.3438.51562-.46875.40625-.73438 1.1094-.73438 1.9219 0 1.3906.71875 2.2344 1.8594 2.2344.95312 0 1.7031-.57812 2.125-1.6562zm-3.0781-1.4375c.10938-.78125.45312-1.1562 1.0625-1.1562s.84375.28125.96875 1.1562z" transform="matrix(.35278 0 0 .35278 77.404 159.91)"/><path d="m4.40625-.65625c-.171875.140625-.296875.1875-.4375.1875-.234375 0-.296875-.140625-.296875-.578125v-1.9375c0-.53125-.046875-.8125-.203125-1.046875-.21875-.359375-.640625-.546875-1.234375-.546875-.9375 0-1.671875.484375-1.671875 1.109375 0 .234375.1875.421875.421875.421875s.453125-.1875.453125-.40625c0-.046875-.015625-.09375-.015625-.171875-.03125-.078125-.03125-.15625-.03125-.234375 0-.265625.3125-.484375.71875-.484375.484375 0 .75.28125.75.828125v.609375c-1.53125.609375-1.703125.6875-2.125 1.078125-.21875.1875-.359375.53125-.359375.859375 0 .625.4375 1.0625 1.046875 1.0625.4375 0 .84375-.203125 1.453125-.71875.046875.515625.21875.71875.640625.71875.328125 0 .546875-.109375.890625-.5zm-1.546875-.5625c0 .296875-.046875.390625-.25.515625-.25.140625-.53125.21875-.734375.21875-.34375 0-.625-.328125-.625-.765625v-.03125c0-.59375.40625-.953125 1.609375-1.390625zm0 0" transform="matrix(.35278 0 0 .35278 78.972 159.91)"/><path d="m2.546875-4.484375h-1.015625v-1.15625c0-.09375 0-.125-.0625-.125-.078125.078125-.140625.171875-.203125.265625-.375.5625-.8125 1.03125-.96875 1.078125-.109375.0625-.171875.140625-.171875.1875 0 .03125.015625.046875.046875.0625h.53125v3c0 .84375.296875 1.265625.875 1.265625.5 0 .875-.234375 1.203125-.75l-.125-.109375c-.21875.25-.390625.34375-.609375.34375-.359375 0-.515625-.265625-.515625-.890625v-2.859375h1.015625zm0 0" transform="matrix(.35278 0 0 .35278 80.539 159.91)"/><path d="m3.140625-3.125-.046875-1.359375h-.109375l-.015625.015625c-.09375.078125-.09375.078125-.140625.078125-.0625 0-.15625-.015625-.265625-.0625-.21875-.078125-.4375-.125-.703125-.125-.78125 0-1.34375.515625-1.34375 1.234375 0 .546875.3125.953125 1.15625 1.4375l.578125.328125c.359375.1875.515625.4375.515625.734375 0 .4375-.3125.71875-.828125.71875-.328125 0-.640625-.125-.828125-.34375-.21875-.25-.296875-.484375-.4375-1.046875h-.15625v1.5625h.125c.078125-.109375.109375-.125.234375-.125.09375 0 .234375.015625.453125.078125.28125.0625.5625.09375.734375.09375.765625 0 1.40625-.578125 1.40625-1.265625 0-.5-.234375-.828125-.84375-1.1875l-1.0625-.640625c-.28125-.15625-.4375-.40625-.4375-.671875 0-.40625.3125-.6875.765625-.6875.578125 0 .875.34375 1.09375 1.234375zm0 0" transform="matrix(.35278 0 0 .35278 82.996 159.91)"/><path d="m1.75-4.578125-1.546875.546875v.140625h.078125c.125-.03125.25-.03125.34375-.03125.234375 0 .328125.15625.328125.59375v2.3125c0 .71875-.109375.828125-.796875.859375v.15625h2.359375v-.15625c-.65625-.046875-.734375-.140625-.734375-.859375v-3.546875zm-.46875-2.234375c-.28125 0-.5.234375-.5.515625s.21875.5.5.5.515625-.21875.515625-.5-.234375-.515625-.515625-.515625zm0 0" transform="matrix(.35278 0 0 .35278 84.349 159.91)"/><path d="m4.6875-3.875v-.375h-.765625c-.203125 0-.359375-.03125-.546875-.109375l-.21875-.078125c-.28125-.09375-.546875-.140625-.796875-.140625-.9375 0-1.671875.703125-1.671875 1.625 0 .625.265625 1 .921875 1.328125-.1875.171875-.359375.34375-.421875.40625-.328125.28125-.453125.484375-.453125.6875s.109375.328125.515625.515625c-.703125.53125-.96875.859375-.96875 1.21875 0 .53125.78125.96875 1.71875.96875.75 0 1.53125-.265625 2.046875-.671875.375-.3125.546875-.625.546875-1.015625 0-.609375-.46875-1.03125-1.203125-1.0625l-1.28125-.0625c-.53125-.015625-.78125-.109375-.78125-.265625 0-.203125.328125-.546875.59375-.625.09375 0 .15625.015625.1875.015625.1875.015625.328125.03125.390625.03125.359375 0 .765625-.15625 1.0625-.421875.328125-.28125.484375-.625.484375-1.125 0-.28125-.046875-.515625-.1875-.84375zm-3.21875 3.890625c.328125.078125 1.125.140625 1.609375.140625.90625 0 1.234375.125 1.234375.484375 0 .578125-.75.96875-1.875.96875-.875 0-1.453125-.296875-1.453125-.734375 0-.234375.0625-.359375.484375-.859375zm.046875-3.390625c0-.578125.28125-.9375.734375-.9375.3125 0 .578125.171875.734375.46875.171875.359375.296875.8125.296875 1.203125 0 .5625-.296875.90625-.75.90625-.59375 0-1.015625-.640625-1.015625-1.609375zm0 0" transform="matrix(.35278 0 0 .35278 85.323 159.91)"/><path d="m.15625-3.96875c.0625-.03125.15625-.03125.265625-.03125.28125 0 .375.140625.375.625v2.484375c0 .5625-.109375.703125-.625.734375v.15625h2.125v-.15625c-.515625-.03125-.65625-.15625-.65625-.515625v-2.796875c.46875-.453125.6875-.5625 1.015625-.5625.5 0 .734375.296875.734375.953125v2.09375c0 .625-.125.796875-.625.828125v.15625h2.0625v-.15625c-.484375-.046875-.59375-.15625-.59375-.65625v-2.28125c0-.9375-.453125-1.484375-1.1875-1.484375-.453125 0-.765625.15625-1.4375.796875v-.78125l-.078125-.015625c-.484375.171875-.828125.28125-1.375.4375zm0 0" transform="matrix(.35278 0 0 .35278 87.101 159.91)"/><path d="m1.75-4.578125-1.546875.546875v.140625h.078125c.125-.03125.25-.03125.34375-.03125.234375 0 .328125.15625.328125.59375v2.3125c0 .71875-.109375.828125-.796875.859375v.15625h2.359375v-.15625c-.65625-.046875-.734375-.140625-.734375-.859375v-3.546875zm-.46875-2.234375c-.28125 0-.5.234375-.5.515625s.21875.5.5.5.515625-.21875.515625-.5-.234375-.515625-.515625-.515625zm0 0" transform="matrix(.35278 0 0 .35278 88.88 159.91)"/><path d="m.3125-4.15625h.671875v3.21875c0 .640625-.109375.765625-.671875.78125v.15625h2.203125v-.15625c-.5625-.03125-.6875-.171875-.6875-.71875v-3.28125h.859375c.953125 0 1 .03125 1 .5625v2.625c0 .671875-.0625.765625-.6875.8125v.15625h2.1875v-.15625c-.546875-.046875-.65625-.171875-.65625-.8125v-2.609375c0-.21875 0-.453125.015625-.984375l-.046875-.015625c-.4375.0625-.71875.09375-1.125.09375h-1.5625v-.4375c0-.4375.03125-.734375.078125-.90625.140625-.4375.53125-.734375.984375-.734375.28125 0 .46875.125.703125.46875.1875.265625.3125.375.484375.375.21875 0 .359375-.171875.359375-.390625 0-.421875-.5-.703125-1.265625-.703125-.75 0-1.328125.265625-1.6875.75-.296875.40625-.40625.78125-.46875 1.578125h-.6875zm0 0" transform="matrix(.35278 0 0 .35278 89.853 159.91)"/><path d="m3.96875-1.5625c-.484375.703125-.84375.9375-1.40625.9375-.90625 0-1.546875-.796875-1.546875-1.9375 0-1.03125.546875-1.734375 1.359375-1.734375.359375 0 .484375.109375.578125.484375l.0625.21875c.078125.28125.265625.453125.46875.453125.265625 0 .484375-.1875.484375-.421875 0-.546875-.703125-1.015625-1.53125-1.015625-.5 0-1 .1875-1.40625.546875-.5.4375-.78125 1.125-.78125 1.90625 0 1.296875.78125 2.21875 1.890625 2.21875.453125 0 .84375-.15625 1.203125-.46875.28125-.234375.46875-.5.765625-1.09375zm0 0" transform="matrix(.35278 0 0 .35278 91.801 159.91)"/><path d="m4.40625-.65625c-.171875.140625-.296875.1875-.4375.1875-.234375 0-.296875-.140625-.296875-.578125v-1.9375c0-.53125-.046875-.8125-.203125-1.046875-.21875-.359375-.640625-.546875-1.234375-.546875-.9375 0-1.671875.484375-1.671875 1.109375 0 .234375.1875.421875.421875.421875s.453125-.1875.453125-.40625c0-.046875-.015625-.09375-.015625-.171875-.03125-.078125-.03125-.15625-.03125-.234375 0-.265625.3125-.484375.71875-.484375.484375 0 .75.28125.75.828125v.609375c-1.53125.609375-1.703125.6875-2.125 1.078125-.21875.1875-.359375.53125-.359375.859375 0 .625.4375 1.0625 1.046875 1.0625.4375 0 .84375-.203125 1.453125-.71875.046875.515625.21875.71875.640625.71875.328125 0 .546875-.109375.890625-.5zm-1.546875-.5625c0 .296875-.046875.390625-.25.515625-.25.140625-.53125.21875-.734375.21875-.34375 0-.625-.328125-.625-.765625v-.03125c0-.59375.40625-.953125 1.609375-1.390625zm0 0" transform="matrix(.35278 0 0 .35278 93.368 159.91)"/><path d="m.15625-3.96875c.0625-.03125.15625-.03125.265625-.03125.28125 0 .375.140625.375.625v2.484375c0 .5625-.109375.703125-.625.734375v.15625h2.125v-.15625c-.515625-.03125-.65625-.15625-.65625-.515625v-2.796875c.46875-.453125.6875-.5625 1.015625-.5625.5 0 .734375.296875.734375.953125v2.09375c0 .625-.125.796875-.625.828125v.15625h2.0625v-.15625c-.484375-.046875-.59375-.15625-.59375-.65625v-2.28125c0-.9375-.453125-1.484375-1.1875-1.484375-.453125 0-.765625.15625-1.4375.796875v-.78125l-.078125-.015625c-.484375.171875-.828125.28125-1.375.4375zm0 0" transform="matrix(.35278 0 0 .35278 94.936 159.91)"/><path d="m3.96875-1.5625c-.484375.703125-.84375.9375-1.40625.9375-.90625 0-1.546875-.796875-1.546875-1.9375 0-1.03125.546875-1.734375 1.359375-1.734375.359375 0 .484375.109375.578125.484375l.0625.21875c.078125.28125.265625.453125.46875.453125.265625 0 .484375-.1875.484375-.421875 0-.546875-.703125-1.015625-1.53125-1.015625-.5 0-1 .1875-1.40625.546875-.5.4375-.78125 1.125-.78125 1.90625 0 1.296875.78125 2.21875 1.890625 2.21875.453125 0 .84375-.15625 1.203125-.46875.28125-.234375.46875-.5.765625-1.09375zm0 0" transform="matrix(.35278 0 0 .35278 96.714 159.91)"/><path d="m4.0625-1.6406c-.46875.76562-.90625 1.0469-1.5469 1.0469-.5625 0-.98438-.28125-1.2812-.85938-.17188-.375-.25-.70312-.26562-1.3125h3.0625c-.078125-.64062-.17188-.9375-.42188-1.25-.29688-.35938-.76562-.5625-1.2812-.5625-.5 0-.96875.17188-1.3438.51562-.46875.40625-.73438 1.1094-.73438 1.9219 0 1.3906.71875 2.2344 1.8594 2.2344.95312 0 1.7031-.57812 2.125-1.6562zm-3.0781-1.4375c.10938-.78125.45312-1.1562 1.0625-1.1562s.84375.28125.96875 1.1562z" transform="matrix(.35278 0 0 .35278 98.282 159.91)"/><path d="m2.546875-4.484375h-1.015625v-1.15625c0-.09375 0-.125-.0625-.125-.078125.078125-.140625.171875-.203125.265625-.375.5625-.8125 1.03125-.96875 1.078125-.109375.0625-.171875.140625-.171875.1875 0 .03125.015625.046875.046875.0625h.53125v3c0 .84375.296875 1.265625.875 1.265625.5 0 .875-.234375 1.203125-.75l-.125-.109375c-.21875.25-.390625.34375-.609375.34375-.359375 0-.515625-.265625-.515625-.890625v-2.859375h1.015625zm0 0" transform="matrix(.35278 0 0 .35278 13.262 164.14)"/><path d="m1.5625-3.421875c.421875-.453125.71875-.625 1.109375-.625.5 0 .75.359375.75 1.0625v1.96875c0 .671875-.109375.8125-.6875.859375v.15625h2.125v-.15625c-.546875-.09375-.609375-.171875-.609375-.859375v-1.984375c0-1.046875-.40625-1.578125-1.21875-1.578125-.59375 0-1 .234375-1.46875.828125v-3.03125l-.046875-.03125c-.34375.125-.59375.203125-1.140625.359375l-.28125.078125v.171875c.046875-.015625.078125-.015625.125-.015625.421875 0 .515625.078125.515625.5v4.703125c0 .703125-.0625.78125-.640625.859375v.15625h2.15625v-.15625c-.578125-.046875-.6875-.171875-.6875-.859375zm0 0" transform="matrix(.35278 0 0 .35278 14.235 164.14)"/><path d="m4.40625-.65625c-.171875.140625-.296875.1875-.4375.1875-.234375 0-.296875-.140625-.296875-.578125v-1.9375c0-.53125-.046875-.8125-.203125-1.046875-.21875-.359375-.640625-.546875-1.234375-.546875-.9375 0-1.671875.484375-1.671875 1.109375 0 .234375.1875.421875.421875.421875s.453125-.1875.453125-.40625c0-.046875-.015625-.09375-.015625-.171875-.03125-.078125-.03125-.15625-.03125-.234375 0-.265625.3125-.484375.71875-.484375.484375 0 .75.28125.75.828125v.609375c-1.53125.609375-1.703125.6875-2.125 1.078125-.21875.1875-.359375.53125-.359375.859375 0 .625.4375 1.0625 1.046875 1.0625.4375 0 .84375-.203125 1.453125-.71875.046875.515625.21875.71875.640625.71875.328125 0 .546875-.109375.890625-.5zm-1.546875-.5625c0 .296875-.046875.390625-.25.515625-.25.140625-.53125.21875-.734375.21875-.34375 0-.625-.328125-.625-.765625v-.03125c0-.59375.40625-.953125 1.609375-1.390625zm0 0" transform="matrix(.35278 0 0 .35278 16.014 164.14)"/><path d="m2.546875-4.484375h-1.015625v-1.15625c0-.09375 0-.125-.0625-.125-.078125.078125-.140625.171875-.203125.265625-.375.5625-.8125 1.03125-.96875 1.078125-.109375.0625-.171875.140625-.171875.1875 0 .03125.015625.046875.046875.0625h.53125v3c0 .84375.296875 1.265625.875 1.265625.5 0 .875-.234375 1.203125-.75l-.125-.109375c-.21875.25-.390625.34375-.609375.34375-.359375 0-.515625-.265625-.515625-.890625v-2.859375h1.015625zm0 0" transform="matrix(.35278 0 0 .35278 17.581 164.14)"/><path d="m1.640625-2.71875h1.453125v.453125c0 .1875.0625.265625.203125.265625.125 0 .203125-.078125.203125-.265625v-1.296875c0-.1875-.078125-.28125-.203125-.28125-.140625 0-.203125.09375-.203125.28125v.4375h-1.453125v-2.078125h3.140625v.96875c0 .1875.0625.28125.1875.28125.140625 0 .21875-.09375.21875-.28125v-1.375h-4.484375c-.1875 0-.28125.0625-.28125.203125 0 .125.09375.203125.28125.203125h.53125v4.796875h-.53125c-.1875 0-.28125.0625-.28125.203125s.09375.203125.28125.203125h2.3125c.1875 0 .28125-.0625.28125-.203125s-.09375-.203125-.28125-.203125h-1.375zm0 0" transform="matrix(.35278 0 0 .35278 20.12 164.14)"/><path d="m1.640625-2.71875h1.453125v.453125c0 .1875.0625.265625.203125.265625.125 0 .203125-.078125.203125-.265625v-1.296875c0-.1875-.078125-.28125-.203125-.28125-.140625 0-.203125.09375-.203125.28125v.4375h-1.453125v-2.078125h3.140625v.96875c0 .1875.0625.28125.1875.28125.140625 0 .21875-.09375.21875-.28125v-1.375h-4.484375c-.1875 0-.28125.0625-.28125.203125 0 .125.09375.203125.28125.203125h.53125v4.796875h-.53125c-.1875 0-.28125.0625-.28125.203125s.09375.203125.28125.203125h2.3125c.1875 0 .28125-.0625.28125-.203125s-.09375-.203125-.28125-.203125h-1.375zm0 0" transform="matrix(.35278 0 0 .35278 22.236 164.14)"/><path d="m4.265625-1.875.5625 1.46875h-.765625c-.171875 0-.265625.0625-.265625.203125s.09375.203125.265625.203125h1.5625c.171875 0 .265625-.0625.265625-.203125s-.09375-.203125-.265625-.203125h-.375l-1.953125-5.203125h-2.046875c-.171875 0-.265625.0625-.265625.203125 0 .125.09375.203125.265625.203125h1.203125l-1.78125 4.796875h-.3125c-.1875 0-.265625.0625-.265625.203125s.078125.203125.265625.203125h1.5c.1875 0 .28125-.0625.28125-.203125s-.09375-.203125-.28125-.203125h-.78125l.53125-1.46875zm-.15625-.40625h-2.328125l1.0625-2.921875h.15625zm0 0" transform="matrix(.35278 0 0 .35278 24.351 164.14)"/><path d="m1.5625-3.421875c.421875-.453125.71875-.625 1.109375-.625.5 0 .75.359375.75 1.0625v1.96875c0 .671875-.109375.8125-.6875.859375v.15625h2.125v-.15625c-.546875-.09375-.609375-.171875-.609375-.859375v-1.984375c0-1.046875-.40625-1.578125-1.21875-1.578125-.59375 0-1 .234375-1.46875.828125v-3.03125l-.046875-.03125c-.34375.125-.59375.203125-1.140625.359375l-.28125.078125v.171875c.046875-.015625.078125-.015625.125-.015625.421875 0 .515625.078125.515625.5v4.703125c0 .703125-.0625.78125-.640625.859375v.15625h2.15625v-.15625c-.578125-.046875-.6875-.171875-.6875-.859375zm0 0" transform="matrix(.35278 0 0 .35278 28.036 164.14)"/><path d="m4.40625-.65625c-.171875.140625-.296875.1875-.4375.1875-.234375 0-.296875-.140625-.296875-.578125v-1.9375c0-.53125-.046875-.8125-.203125-1.046875-.21875-.359375-.640625-.546875-1.234375-.546875-.9375 0-1.671875.484375-1.671875 1.109375 0 .234375.1875.421875.421875.421875s.453125-.1875.453125-.40625c0-.046875-.015625-.09375-.015625-.171875-.03125-.078125-.03125-.15625-.03125-.234375 0-.265625.3125-.484375.71875-.484375.484375 0 .75.28125.75.828125v.609375c-1.53125.609375-1.703125.6875-2.125 1.078125-.21875.1875-.359375.53125-.359375.859375 0 .625.4375 1.0625 1.046875 1.0625.4375 0 .84375-.203125 1.453125-.71875.046875.515625.21875.71875.640625.71875.328125 0 .546875-.109375.890625-.5zm-1.546875-.5625c0 .296875-.046875.390625-.25.515625-.25.140625-.53125.21875-.734375.21875-.34375 0-.625-.328125-.625-.765625v-.03125c0-.59375.40625-.953125 1.609375-1.390625zm0 0" transform="matrix(.35278 0 0 .35278 29.815 164.14)"/><path d="m3.140625-3.125-.046875-1.359375h-.109375l-.015625.015625c-.09375.078125-.09375.078125-.140625.078125-.0625 0-.15625-.015625-.265625-.0625-.21875-.078125-.4375-.125-.703125-.125-.78125 0-1.34375.515625-1.34375 1.234375 0 .546875.3125.953125 1.15625 1.4375l.578125.328125c.359375.1875.515625.4375.515625.734375 0 .4375-.3125.71875-.828125.71875-.328125 0-.640625-.125-.828125-.34375-.21875-.25-.296875-.484375-.4375-1.046875h-.15625v1.5625h.125c.078125-.109375.109375-.125.234375-.125.09375 0 .234375.015625.453125.078125.28125.0625.5625.09375.734375.09375.765625 0 1.40625-.578125 1.40625-1.265625 0-.5-.234375-.828125-.84375-1.1875l-1.0625-.640625c-.28125-.15625-.4375-.40625-.4375-.671875 0-.40625.3125-.6875.765625-.6875.578125 0 .875.34375 1.09375 1.234375zm0 0" transform="matrix(.35278 0 0 .35278 31.382 164.14)"/><path d="m4.40625-.65625c-.171875.140625-.296875.1875-.4375.1875-.234375 0-.296875-.140625-.296875-.578125v-1.9375c0-.53125-.046875-.8125-.203125-1.046875-.21875-.359375-.640625-.546875-1.234375-.546875-.9375 0-1.671875.484375-1.671875 1.109375 0 .234375.1875.421875.421875.421875s.453125-.1875.453125-.40625c0-.046875-.015625-.09375-.015625-.171875-.03125-.078125-.03125-.15625-.03125-.234375 0-.265625.3125-.484375.71875-.484375.484375 0 .75.28125.75.828125v.609375c-1.53125.609375-1.703125.6875-2.125 1.078125-.21875.1875-.359375.53125-.359375.859375 0 .625.4375 1.0625 1.046875 1.0625.4375 0 .84375-.203125 1.453125-.71875.046875.515625.21875.71875.640625.71875.328125 0 .546875-.109375.890625-.5zm-1.546875-.5625c0 .296875-.046875.390625-.25.515625-.25.140625-.53125.21875-.734375.21875-.34375 0-.625-.328125-.625-.765625v-.03125c0-.59375.40625-.953125 1.609375-1.390625zm0 0" transform="matrix(.35278 0 0 .35278 34.303 164.14)"/><path d="m2.546875-4.484375h-1.015625v-1.15625c0-.09375 0-.125-.0625-.125-.078125.078125-.140625.171875-.203125.265625-.375.5625-.8125 1.03125-.96875 1.078125-.109375.0625-.171875.140625-.171875.1875 0 .03125.015625.046875.046875.0625h.53125v3c0 .84375.296875 1.265625.875 1.265625.5 0 .875-.234375 1.203125-.75l-.125-.109375c-.21875.25-.390625.34375-.609375.34375-.359375 0-.515625-.265625-.515625-.890625v-2.859375h1.015625zm0 0" transform="matrix(.35278 0 0 .35278 37.434 164.14)"/><path d="m.0625-3.890625c.140625-.03125.234375-.03125.359375-.03125.25 0 .328125.15625.328125.59375v2.484375c0 .5-.0625.578125-.703125.6875v.15625h2.390625v-.15625c-.671875-.015625-.84375-.171875-.84375-.734375v-2.25c0-.3125.4375-.8125.703125-.8125.0625 0 .140625.046875.25.140625.171875.140625.28125.203125.40625.203125.234375 0 .390625-.171875.390625-.453125 0-.328125-.21875-.515625-.546875-.515625-.421875 0-.71875.21875-1.203125.921875v-.90625l-.046875-.015625c-.53125.21875-.890625.34375-1.484375.53125zm0 0" transform="matrix(.35278 0 0 .35278 38.408 164.14)"/><path d="m4.0625-1.6406c-.46875.76562-.90625 1.0469-1.5469 1.0469-.5625 0-.98438-.28125-1.2812-.85938-.17188-.375-.25-.70312-.26562-1.3125h3.0625c-.078125-.64062-.17188-.9375-.42188-1.25-.29688-.35938-.76562-.5625-1.2812-.5625-.5 0-.96875.17188-1.3438.51562-.46875.40625-.73438 1.1094-.73438 1.9219 0 1.3906.71875 2.2344 1.8594 2.2344.95312 0 1.7031-.57812 2.125-1.6562zm-3.0781-1.4375c.10938-.78125.45312-1.1562 1.0625-1.1562s.84375.28125.96875 1.1562z" transform="matrix(.35278 0 0 .35278 39.592 164.14)"/><path d="m.1875-3.96875c.125-.03125.21875-.03125.328125-.03125.25 0 .34375.15625.34375.625v2.53125c0 .53125-.140625.6875-.703125.6875v.15625h2.21875v-.15625c-.53125-.015625-.6875-.125-.6875-.515625v-2.8125c0-.015625.09375-.109375.15625-.1875.25-.21875.671875-.390625 1.03125-.390625.4375 0 .65625.34375.65625 1.046875v2.15625c0 .5625-.109375.671875-.6875.703125v.15625h2.234375v-.15625c-.5625 0-.71875-.171875-.71875-.796875v-2.5c.3125-.4375.640625-.609375 1.09375-.609375.5625 0 .75.265625.75 1.09375v2.09375c0 .578125-.078125.65625-.65625.71875v.15625h2.171875v-.15625l-.25-.015625c-.296875-.015625-.4375-.203125-.4375-.578125v-2.0625c0-1.171875-.375-1.765625-1.15625-1.765625-.578125 0-1.078125.25-1.625.828125-.171875-.5625-.515625-.828125-1.046875-.828125-.4375 0-.71875.125-1.546875.765625v-.75l-.078125-.015625c-.5.1875-.84375.296875-1.390625.4375zm0 0" transform="matrix(.35278 0 0 .35278 41.16 164.14)"/><path d="m4.0625-1.6406c-.46875.76562-.90625 1.0469-1.5469 1.0469-.5625 0-.98438-.28125-1.2812-.85938-.17188-.375-.25-.70312-.26562-1.3125h3.0625c-.078125-.64062-.17188-.9375-.42188-1.25-.29688-.35938-.76562-.5625-1.2812-.5625-.5 0-.96875.17188-1.3438.51562-.46875.40625-.73438 1.1094-.73438 1.9219 0 1.3906.71875 2.2344 1.8594 2.2344.95312 0 1.7031-.57812 2.125-1.6562zm-3.0781-1.4375c.10938-.78125.45312-1.1562 1.0625-1.1562s.84375.28125.96875 1.1562z" transform="matrix(.35278 0 0 .35278 43.912 164.14)"/><path d="m.15625-3.96875c.0625-.03125.15625-.03125.265625-.03125.28125 0 .375.140625.375.625v2.484375c0 .5625-.109375.703125-.625.734375v.15625h2.125v-.15625c-.515625-.03125-.65625-.15625-.65625-.515625v-2.796875c.46875-.453125.6875-.5625 1.015625-.5625.5 0 .734375.296875.734375.953125v2.09375c0 .625-.125.796875-.625.828125v.15625h2.0625v-.15625c-.484375-.046875-.59375-.15625-.59375-.65625v-2.28125c0-.9375-.453125-1.484375-1.1875-1.484375-.453125 0-.765625.15625-1.4375.796875v-.78125l-.078125-.015625c-.484375.171875-.828125.28125-1.375.4375zm0 0" transform="matrix(.35278 0 0 .35278 45.48 164.14)"/><path d="m3.421875.09375 1.46875-.515625v-.15625c-.171875.015625-.203125.015625-.21875.015625-.359375 0-.4375-.109375-.4375-.578125v-5.640625l-.0625-.03125c-.46875.171875-.828125.265625-1.453125.4375v.171875c.078125-.015625.125-.015625.21875-.015625.359375 0 .453125.09375.453125.5v1.5625c-.375-.3125-.65625-.421875-1.046875-.421875-1.140625 0-2.078125 1.125-2.078125 2.53125 0 1.28125.75 2.140625 1.84375 2.140625.5625 0 .9375-.1875 1.28125-.65625v.625zm-.03125-1.109375c0 .0625-.078125.1875-.171875.296875-.171875.203125-.421875.296875-.71875.296875-.828125 0-1.375-.796875-1.375-2.015625 0-1.125.484375-1.875 1.25-1.875.53125 0 1.015625.46875 1.015625 1zm0 0" transform="matrix(.35278 0 0 .35278 47.258 164.14)"/><path d="m2.5-4.5781c-1.2969 0-2.2031.95312-2.2031 2.3281 0 1.3438.92188 2.3438 2.1719 2.3438 1.2656 0 2.2188-1.0469 2.2188-2.4219 0-1.3125-.92188-2.25-2.1875-2.25zm-.14062.26562c.84375 0 1.4219.96875 1.4219 2.3281 0 1.125-.4375 1.8125-1.1875 1.8125-.39062 0-.76562-.25-.96875-.64062-.28125-.51562-.4375-1.2188-.4375-1.9219 0-.95312.46875-1.5781 1.1719-1.5781z" transform="matrix(.35278 0 0 .35278 49.037 164.14)"/><path d="m4.78125-.5h-.0625c-.453125 0-.5625-.109375-.5625-.5625v-3.421875h-1.578125v.171875c.625.03125.734375.125.734375.625v2.34375c0 .28125-.046875.421875-.1875.53125-.265625.21875-.578125.328125-.875.328125-.390625 0-.703125-.328125-.703125-.75v-3.25h-1.453125v.140625c.46875.03125.609375.171875.609375.640625v2.5c0 .796875.484375 1.296875 1.203125 1.296875.375 0 .765625-.15625 1.03125-.421875l.4375-.421875v.8125l.03125.03125c.5-.203125.859375-.3125 1.375-.453125zm0 0" transform="matrix(.35278 0 0 .35278 50.815 164.14)"/><path d="m3.140625-3.125-.046875-1.359375h-.109375l-.015625.015625c-.09375.078125-.09375.078125-.140625.078125-.0625 0-.15625-.015625-.265625-.0625-.21875-.078125-.4375-.125-.703125-.125-.78125 0-1.34375.515625-1.34375 1.234375 0 .546875.3125.953125 1.15625 1.4375l.578125.328125c.359375.1875.515625.4375.515625.734375 0 .4375-.3125.71875-.828125.71875-.328125 0-.640625-.125-.828125-.34375-.21875-.25-.296875-.484375-.4375-1.046875h-.15625v1.5625h.125c.078125-.109375.109375-.125.234375-.125.09375 0 .234375.015625.453125.078125.28125.0625.5625.09375.734375.09375.765625 0 1.40625-.578125 1.40625-1.265625 0-.5-.234375-.828125-.84375-1.1875l-1.0625-.640625c-.28125-.15625-.4375-.40625-.4375-.671875 0-.40625.3125-.6875.765625-.6875.578125 0 .875.34375 1.09375 1.234375zm0 0" transform="matrix(.35278 0 0 .35278 52.594 164.14)"/><path d="m.09375-3.9219h.25c.32812 0 .40625.09375.40625.5625v4.6719c0 .51562-.10938.625-.70312.6875v.15625h2.4219v-.17188c-.75-.015625-.89062-.125-.89062-.75v-1.5625c.35938.32812.59375.42188 1.0156.42188 1.1719 0 2.0938-1.1094 2.0938-2.5625 0-1.2344-.70312-2.1094-1.6719-2.1094-.54688 0-.98438.23438-1.4375.78125v-.76562l-.046875-.015625c-.54688.20312-.89062.32812-1.4375.5zm1.4844.59375c0-.29688.5625-.65625 1.0312-.65625.73438 0 1.2188.75 1.2188 1.9062 0 1.1094-.48438 1.8594-1.2031 1.8594-.46875 0-1.0469-.35938-1.0469-.65625z" transform="matrix(.35278 0 0 .35278 55.388 164.14)"/><path d="m2.5-4.5781c-1.2969 0-2.2031.95312-2.2031 2.3281 0 1.3438.92188 2.3438 2.1719 2.3438 1.2656 0 2.2188-1.0469 2.2188-2.4219 0-1.3125-.92188-2.25-2.1875-2.25zm-.14062.26562c.84375 0 1.4219.96875 1.4219 2.3281 0 1.125-.4375 1.8125-1.1875 1.8125-.39062 0-.76562-.25-.96875-.64062-.28125-.51562-.4375-1.2188-.4375-1.9219 0-.95312.46875-1.5781 1.1719-1.5781z" transform="matrix(.35278 0 0 .35278 57.166 164.14)"/><path d="m3.140625-3.125-.046875-1.359375h-.109375l-.015625.015625c-.09375.078125-.09375.078125-.140625.078125-.0625 0-.15625-.015625-.265625-.0625-.21875-.078125-.4375-.125-.703125-.125-.78125 0-1.34375.515625-1.34375 1.234375 0 .546875.3125.953125 1.15625 1.4375l.578125.328125c.359375.1875.515625.4375.515625.734375 0 .4375-.3125.71875-.828125.71875-.328125 0-.640625-.125-.828125-.34375-.21875-.25-.296875-.484375-.4375-1.046875h-.15625v1.5625h.125c.078125-.109375.109375-.125.234375-.125.09375 0 .234375.015625.453125.078125.28125.0625.5625.09375.734375.09375.765625 0 1.40625-.578125 1.40625-1.265625 0-.5-.234375-.828125-.84375-1.1875l-1.0625-.640625c-.28125-.15625-.4375-.40625-.4375-.671875 0-.40625.3125-.6875.765625-.6875.578125 0 .875.34375 1.09375 1.234375zm0 0" transform="matrix(.35278 0 0 .35278 58.945 164.14)"/><path d="m1.75-4.578125-1.546875.546875v.140625h.078125c.125-.03125.25-.03125.34375-.03125.234375 0 .328125.15625.328125.59375v2.3125c0 .71875-.109375.828125-.796875.859375v.15625h2.359375v-.15625c-.65625-.046875-.734375-.140625-.734375-.859375v-3.546875zm-.46875-2.234375c-.28125 0-.5.234375-.5.515625s.21875.5.5.5.515625-.21875.515625-.5-.234375-.515625-.515625-.515625zm0 0" transform="matrix(.35278 0 0 .35278 60.298 164.14)"/><path d="m2.546875-4.484375h-1.015625v-1.15625c0-.09375 0-.125-.0625-.125-.078125.078125-.140625.171875-.203125.265625-.375.5625-.8125 1.03125-.96875 1.078125-.109375.0625-.171875.140625-.171875.1875 0 .03125.015625.046875.046875.0625h.53125v3c0 .84375.296875 1.265625.875 1.265625.5 0 .875-.234375 1.203125-.75l-.125-.109375c-.21875.25-.390625.34375-.609375.34375-.359375 0-.515625-.265625-.515625-.890625v-2.859375h1.015625zm0 0" transform="matrix(.35278 0 0 .35278 61.272 164.14)"/><path d="m1.75-4.578125-1.546875.546875v.140625h.078125c.125-.03125.25-.03125.34375-.03125.234375 0 .328125.15625.328125.59375v2.3125c0 .71875-.109375.828125-.796875.859375v.15625h2.359375v-.15625c-.65625-.046875-.734375-.140625-.734375-.859375v-3.546875zm-.46875-2.234375c-.28125 0-.5.234375-.5.515625s.21875.5.5.5.515625-.21875.515625-.5-.234375-.515625-.515625-.515625zm0 0" transform="matrix(.35278 0 0 .35278 62.245 164.14)"/><path d="m4.75-4.484375h-1.375v.140625c.3125.03125.46875.140625.46875.328125 0 .09375-.03125.203125-.0625.296875l-.984375 2.578125-1.015625-2.546875c-.0625-.140625-.09375-.28125-.09375-.375 0-.171875.109375-.25.453125-.28125v-.140625h-1.953125v.140625c.375.03125.453125.125.90625 1.15625l1.203125 2.859375c.015625.0625.046875.125.078125.203125.0625.1875.125.265625.171875.265625.0625 0 .140625-.125.28125-.5l1.28125-3.203125c.28125-.671875.34375-.75.640625-.78125zm0 0" transform="matrix(.35278 0 0 .35278 63.134 164.14)"/><path d="m4.0625-1.6406c-.46875.76562-.90625 1.0469-1.5469 1.0469-.5625 0-.98438-.28125-1.2812-.85938-.17188-.375-.25-.70312-.26562-1.3125h3.0625c-.078125-.64062-.17188-.9375-.42188-1.25-.29688-.35938-.76562-.5625-1.2812-.5625-.5 0-.96875.17188-1.3438.51562-.46875.40625-.73438 1.1094-.73438 1.9219 0 1.3906.71875 2.2344 1.8594 2.2344.95312 0 1.7031-.57812 2.125-1.6562zm-3.0781-1.4375c.10938-.78125.45312-1.1562 1.0625-1.1562s.84375.28125.96875 1.1562z" transform="matrix(.35278 0 0 .35278 64.871 164.14)"/><path d="m1.75-4.578125-1.546875.546875v.140625h.078125c.125-.03125.25-.03125.34375-.03125.234375 0 .328125.15625.328125.59375v2.3125c0 .71875-.109375.828125-.796875.859375v.15625h2.359375v-.15625c-.65625-.046875-.734375-.140625-.734375-.859375v-3.546875zm-.46875-2.234375c-.28125 0-.5.234375-.5.515625s.21875.5.5.5.515625-.21875.515625-.5-.234375-.515625-.515625-.515625zm0 0" transform="matrix(.35278 0 0 .35278 67.96 164.14)"/><path d="m.1875-3.96875c.125-.03125.21875-.03125.328125-.03125.25 0 .34375.15625.34375.625v2.53125c0 .53125-.140625.6875-.703125.6875v.15625h2.21875v-.15625c-.53125-.015625-.6875-.125-.6875-.515625v-2.8125c0-.015625.09375-.109375.15625-.1875.25-.21875.671875-.390625 1.03125-.390625.4375 0 .65625.34375.65625 1.046875v2.15625c0 .5625-.109375.671875-.6875.703125v.15625h2.234375v-.15625c-.5625 0-.71875-.171875-.71875-.796875v-2.5c.3125-.4375.640625-.609375 1.09375-.609375.5625 0 .75.265625.75 1.09375v2.09375c0 .578125-.078125.65625-.65625.71875v.15625h2.171875v-.15625l-.25-.015625c-.296875-.015625-.4375-.203125-.4375-.578125v-2.0625c0-1.171875-.375-1.765625-1.15625-1.765625-.578125 0-1.078125.25-1.625.828125-.171875-.5625-.515625-.828125-1.046875-.828125-.4375 0-.71875.125-1.546875.765625v-.75l-.078125-.015625c-.5.1875-.84375.296875-1.390625.4375zm0 0" transform="matrix(.35278 0 0 .35278 68.934 164.14)"/><path d="m.09375-3.9219h.25c.32812 0 .40625.09375.40625.5625v4.6719c0 .51562-.10938.625-.70312.6875v.15625h2.4219v-.17188c-.75-.015625-.89062-.125-.89062-.75v-1.5625c.35938.32812.59375.42188 1.0156.42188 1.1719 0 2.0938-1.1094 2.0938-2.5625 0-1.2344-.70312-2.1094-1.6719-2.1094-.54688 0-.98438.23438-1.4375.78125v-.76562l-.046875-.015625c-.54688.20312-.89062.32812-1.4375.5zm1.4844.59375c0-.29688.5625-.65625 1.0312-.65625.73438 0 1.2188.75 1.2188 1.9062 0 1.1094-.48438 1.8594-1.2031 1.8594-.46875 0-1.0469-.35938-1.0469-.65625z" transform="matrix(.35278 0 0 .35278 71.686 164.14)"/><path d="m4.40625-.65625c-.171875.140625-.296875.1875-.4375.1875-.234375 0-.296875-.140625-.296875-.578125v-1.9375c0-.53125-.046875-.8125-.203125-1.046875-.21875-.359375-.640625-.546875-1.234375-.546875-.9375 0-1.671875.484375-1.671875 1.109375 0 .234375.1875.421875.421875.421875s.453125-.1875.453125-.40625c0-.046875-.015625-.09375-.015625-.171875-.03125-.078125-.03125-.15625-.03125-.234375 0-.265625.3125-.484375.71875-.484375.484375 0 .75.28125.75.828125v.609375c-1.53125.609375-1.703125.6875-2.125 1.078125-.21875.1875-.359375.53125-.359375.859375 0 .625.4375 1.0625 1.046875 1.0625.4375 0 .84375-.203125 1.453125-.71875.046875.515625.21875.71875.640625.71875.328125 0 .546875-.109375.890625-.5zm-1.546875-.5625c0 .296875-.046875.390625-.25.515625-.25.140625-.53125.21875-.734375.21875-.34375 0-.625-.328125-.625-.765625v-.03125c0-.59375.40625-.953125 1.609375-1.390625zm0 0" transform="matrix(.35278 0 0 .35278 73.464 164.14)"/><path d="m3.96875-1.5625c-.484375.703125-.84375.9375-1.40625.9375-.90625 0-1.546875-.796875-1.546875-1.9375 0-1.03125.546875-1.734375 1.359375-1.734375.359375 0 .484375.109375.578125.484375l.0625.21875c.078125.28125.265625.453125.46875.453125.265625 0 .484375-.1875.484375-.421875 0-.546875-.703125-1.015625-1.53125-1.015625-.5 0-1 .1875-1.40625.546875-.5.4375-.78125 1.125-.78125 1.90625 0 1.296875.78125 2.21875 1.890625 2.21875.453125 0 .84375-.15625 1.203125-.46875.28125-.234375.46875-.5.765625-1.09375zm0 0" transform="matrix(.35278 0 0 .35278 75.032 164.14)"/><path d="m2.546875-4.484375h-1.015625v-1.15625c0-.09375 0-.125-.0625-.125-.078125.078125-.140625.171875-.203125.265625-.375.5625-.8125 1.03125-.96875 1.078125-.109375.0625-.171875.140625-.171875.1875 0 .03125.015625.046875.046875.0625h.53125v3c0 .84375.296875 1.265625.875 1.265625.5 0 .875-.234375 1.203125-.75l-.125-.109375c-.21875.25-.390625.34375-.609375.34375-.359375 0-.515625-.265625-.515625-.890625v-2.859375h1.015625zm0 0" transform="matrix(.35278 0 0 .35278 76.599 164.14)"/><path d="m2.5-4.5781c-1.2969 0-2.2031.95312-2.2031 2.3281 0 1.3438.92188 2.3438 2.1719 2.3438 1.2656 0 2.2188-1.0469 2.2188-2.4219 0-1.3125-.92188-2.25-2.1875-2.25zm-.14062.26562c.84375 0 1.4219.96875 1.4219 2.3281 0 1.125-.4375 1.8125-1.1875 1.8125-.39062 0-.76562-.25-.96875-.64062-.28125-.51562-.4375-1.2188-.4375-1.9219 0-.95312.46875-1.5781 1.1719-1.5781z" transform="matrix(.35278 0 0 .35278 79.14 164.14)"/><path d="m.15625-3.96875c.0625-.03125.15625-.03125.265625-.03125.28125 0 .375.140625.375.625v2.484375c0 .5625-.109375.703125-.625.734375v.15625h2.125v-.15625c-.515625-.03125-.65625-.15625-.65625-.515625v-2.796875c.46875-.453125.6875-.5625 1.015625-.5625.5 0 .734375.296875.734375.953125v2.09375c0 .625-.125.796875-.625.828125v.15625h2.0625v-.15625c-.484375-.046875-.59375-.15625-.59375-.65625v-2.28125c0-.9375-.453125-1.484375-1.1875-1.484375-.453125 0-.765625.15625-1.4375.796875v-.78125l-.078125-.015625c-.484375.171875-.828125.28125-1.375.4375zm0 0" transform="matrix(.35278 0 0 .35278 80.919 164.14)"/><path d="m2.546875-4.484375h-1.015625v-1.15625c0-.09375 0-.125-.0625-.125-.078125.078125-.140625.171875-.203125.265625-.375.5625-.8125 1.03125-.96875 1.078125-.109375.0625-.171875.140625-.171875.1875 0 .03125.015625.046875.046875.0625h.53125v3c0 .84375.296875 1.265625.875 1.265625.5 0 .875-.234375 1.203125-.75l-.125-.109375c-.21875.25-.390625.34375-.609375.34375-.359375 0-.515625-.265625-.515625-.890625v-2.859375h1.015625zm0 0" transform="matrix(.35278 0 0 .35278 84.223 164.14)"/><path d="m1.5625-3.421875c.421875-.453125.71875-.625 1.109375-.625.5 0 .75.359375.75 1.0625v1.96875c0 .671875-.109375.8125-.6875.859375v.15625h2.125v-.15625c-.546875-.09375-.609375-.171875-.609375-.859375v-1.984375c0-1.046875-.40625-1.578125-1.21875-1.578125-.59375 0-1 .234375-1.46875.828125v-3.03125l-.046875-.03125c-.34375.125-.59375.203125-1.140625.359375l-.28125.078125v.171875c.046875-.015625.078125-.015625.125-.015625.421875 0 .515625.078125.515625.5v4.703125c0 .703125-.0625.78125-.640625.859375v.15625h2.15625v-.15625c-.578125-.046875-.6875-.171875-.6875-.859375zm0 0" transform="matrix(.35278 0 0 .35278 85.196 164.14)"/><path d="m4.0625-1.6406c-.46875.76562-.90625 1.0469-1.5469 1.0469-.5625 0-.98438-.28125-1.2812-.85938-.17188-.375-.25-.70312-.26562-1.3125h3.0625c-.078125-.64062-.17188-.9375-.42188-1.25-.29688-.35938-.76562-.5625-1.2812-.5625-.5 0-.96875.17188-1.3438.51562-.46875.40625-.73438 1.1094-.73438 1.9219 0 1.3906.71875 2.2344 1.8594 2.2344.95312 0 1.7031-.57812 2.125-1.6562zm-3.0781-1.4375c.10938-.78125.45312-1.1562 1.0625-1.1562s.84375.28125.96875 1.1562z" transform="matrix(.35278 0 0 .35278 86.975 164.14)"/><path d="m.09375-3.9219h.25c.32812 0 .40625.09375.40625.5625v4.6719c0 .51562-.10938.625-.70312.6875v.15625h2.4219v-.17188c-.75-.015625-.89062-.125-.89062-.75v-1.5625c.35938.32812.59375.42188 1.0156.42188 1.1719 0 2.0938-1.1094 2.0938-2.5625 0-1.2344-.70312-2.1094-1.6719-2.1094-.54688 0-.98438.23438-1.4375.78125v-.76562l-.046875-.015625c-.54688.20312-.89062.32812-1.4375.5zm1.4844.59375c0-.29688.5625-.65625 1.0312-.65625.73438 0 1.2188.75 1.2188 1.9062 0 1.1094-.48438 1.8594-1.2031 1.8594-.46875 0-1.0469-.35938-1.0469-.65625z" transform="matrix(.35278 0 0 .35278 90.106 164.14)"/><path d="m4.0625-1.6406c-.46875.76562-.90625 1.0469-1.5469 1.0469-.5625 0-.98438-.28125-1.2812-.85938-.17188-.375-.25-.70312-.26562-1.3125h3.0625c-.078125-.64062-.17188-.9375-.42188-1.25-.29688-.35938-.76562-.5625-1.2812-.5625-.5 0-.96875.17188-1.3438.51562-.46875.40625-.73438 1.1094-.73438 1.9219 0 1.3906.71875 2.2344 1.8594 2.2344.95312 0 1.7031-.57812 2.125-1.6562zm-3.0781-1.4375c.10938-.78125.45312-1.1562 1.0625-1.1562s.84375.28125.96875 1.1562z" transform="matrix(.35278 0 0 .35278 91.885 164.14)"/><path d="m.0625-3.890625c.140625-.03125.234375-.03125.359375-.03125.25 0 .328125.15625.328125.59375v2.484375c0 .5-.0625.578125-.703125.6875v.15625h2.390625v-.15625c-.671875-.015625-.84375-.171875-.84375-.734375v-2.25c0-.3125.4375-.8125.703125-.8125.0625 0 .140625.046875.25.140625.171875.140625.28125.203125.40625.203125.234375 0 .390625-.171875.390625-.453125 0-.328125-.21875-.515625-.546875-.515625-.421875 0-.71875.21875-1.203125.921875v-.90625l-.046875-.015625c-.53125.21875-.890625.34375-1.484375.53125zm0 0" transform="matrix(.35278 0 0 .35278 93.452 164.14)"/><path d="m3.078125-4.484375h-1.21875v-1.15625c0-.578125.1875-.890625.5625-.890625.203125 0 .34375.09375.53125.390625.15625.265625.28125.359375.453125.359375.21875 0 .40625-.1875.40625-.40625 0-.359375-.4375-.625-1.03125-.625-.625 0-1.140625.265625-1.40625.734375-.265625.4375-.34375.796875-.34375 1.59375h-.828125v.3125h.828125v3.140625c0 .71875-.109375.84375-.828125.875v.15625h2.59375v-.15625c-.828125-.015625-.9375-.140625-.9375-.875v-3.140625h1.21875zm0 0" transform="matrix(.35278 0 0 .35278 94.637 164.14)"/><path d="m2.5-4.5781c-1.2969 0-2.2031.95312-2.2031 2.3281 0 1.3438.92188 2.3438 2.1719 2.3438 1.2656 0 2.2188-1.0469 2.2188-2.4219 0-1.3125-.92188-2.25-2.1875-2.25zm-.14062.26562c.84375 0 1.4219.96875 1.4219 2.3281 0 1.125-.4375 1.8125-1.1875 1.8125-.39062 0-.76562-.25-.96875-.64062-.28125-.51562-.4375-1.2188-.4375-1.9219 0-.95312.46875-1.5781 1.1719-1.5781z" transform="matrix(.35278 0 0 .35278 95.821 164.14)"/><path d="m.0625-3.890625c.140625-.03125.234375-.03125.359375-.03125.25 0 .328125.15625.328125.59375v2.484375c0 .5-.0625.578125-.703125.6875v.15625h2.390625v-.15625c-.671875-.015625-.84375-.171875-.84375-.734375v-2.25c0-.3125.4375-.8125.703125-.8125.0625 0 .140625.046875.25.140625.171875.140625.28125.203125.40625.203125.234375 0 .390625-.171875.390625-.453125 0-.328125-.21875-.515625-.546875-.515625-.421875 0-.71875.21875-1.203125.921875v-.90625l-.046875-.015625c-.53125.21875-.890625.34375-1.484375.53125zm0 0" transform="matrix(.35278 0 0 .35278 97.6 164.14)"/><path d="m.39062-2.5625v.625h2.4531v-.625z" transform="matrix(.35278 0 0 .35278 98.7 164.14)"/><path d="m.1875-3.96875c.125-.03125.21875-.03125.328125-.03125.25 0 .34375.15625.34375.625v2.53125c0 .53125-.140625.6875-.703125.6875v.15625h2.21875v-.15625c-.53125-.015625-.6875-.125-.6875-.515625v-2.8125c0-.015625.09375-.109375.15625-.1875.25-.21875.671875-.390625 1.03125-.390625.4375 0 .65625.34375.65625 1.046875v2.15625c0 .5625-.109375.671875-.6875.703125v.15625h2.234375v-.15625c-.5625 0-.71875-.171875-.71875-.796875v-2.5c.3125-.4375.640625-.609375 1.09375-.609375.5625 0 .75.265625.75 1.09375v2.09375c0 .578125-.078125.65625-.65625.71875v.15625h2.171875v-.15625l-.25-.015625c-.296875-.015625-.4375-.203125-.4375-.578125v-2.0625c0-1.171875-.375-1.765625-1.15625-1.765625-.578125 0-1.078125.25-1.625.828125-.171875-.5625-.515625-.828125-1.046875-.828125-.4375 0-.71875.125-1.546875.765625v-.75l-.078125-.015625c-.5.1875-.84375.296875-1.390625.4375zm0 0" transform="matrix(.35278 0 0 .35278 13.262 168.37)"/><path d="m4.40625-.65625c-.171875.140625-.296875.1875-.4375.1875-.234375 0-.296875-.140625-.296875-.578125v-1.9375c0-.53125-.046875-.8125-.203125-1.046875-.21875-.359375-.640625-.546875-1.234375-.546875-.9375 0-1.671875.484375-1.671875 1.109375 0 .234375.1875.421875.421875.421875s.453125-.1875.453125-.40625c0-.046875-.015625-.09375-.015625-.171875-.03125-.078125-.03125-.15625-.03125-.234375 0-.265625.3125-.484375.71875-.484375.484375 0 .75.28125.75.828125v.609375c-1.53125.609375-1.703125.6875-2.125 1.078125-.21875.1875-.359375.53125-.359375.859375 0 .625.4375 1.0625 1.046875 1.0625.4375 0 .84375-.203125 1.453125-.71875.046875.515625.21875.71875.640625.71875.328125 0 .546875-.109375.890625-.5zm-1.546875-.5625c0 .296875-.046875.390625-.25.515625-.25.140625-.53125.21875-.734375.21875-.34375 0-.625-.328125-.625-.765625v-.03125c0-.59375.40625-.953125 1.609375-1.390625zm0 0" transform="matrix(.35278 0 0 .35278 16.014 168.37)"/><path d="m.15625-3.96875c.0625-.03125.15625-.03125.265625-.03125.28125 0 .375.140625.375.625v2.484375c0 .5625-.109375.703125-.625.734375v.15625h2.125v-.15625c-.515625-.03125-.65625-.15625-.65625-.515625v-2.796875c.46875-.453125.6875-.5625 1.015625-.5625.5 0 .734375.296875.734375.953125v2.09375c0 .625-.125.796875-.625.828125v.15625h2.0625v-.15625c-.484375-.046875-.59375-.15625-.59375-.65625v-2.28125c0-.9375-.453125-1.484375-1.1875-1.484375-.453125 0-.765625.15625-1.4375.796875v-.78125l-.078125-.015625c-.484375.171875-.828125.28125-1.375.4375zm0 0" transform="matrix(.35278 0 0 .35278 17.581 168.37)"/><path d="m3.96875-1.5625c-.484375.703125-.84375.9375-1.40625.9375-.90625 0-1.546875-.796875-1.546875-1.9375 0-1.03125.546875-1.734375 1.359375-1.734375.359375 0 .484375.109375.578125.484375l.0625.21875c.078125.28125.265625.453125.46875.453125.265625 0 .484375-.1875.484375-.421875 0-.546875-.703125-1.015625-1.53125-1.015625-.5 0-1 .1875-1.40625.546875-.5.4375-.78125 1.125-.78125 1.90625 0 1.296875.78125 2.21875 1.890625 2.21875.453125 0 .84375-.15625 1.203125-.46875.28125-.234375.46875-.5.765625-1.09375zm0 0" transform="matrix(.35278 0 0 .35278 19.36 168.37)"/><path d="m4.0625-1.6406c-.46875.76562-.90625 1.0469-1.5469 1.0469-.5625 0-.98438-.28125-1.2812-.85938-.17188-.375-.25-.70312-.26562-1.3125h3.0625c-.078125-.64062-.17188-.9375-.42188-1.25-.29688-.35938-.76562-.5625-1.2812-.5625-.5 0-.96875.17188-1.3438.51562-.46875.40625-.73438 1.1094-.73438 1.9219 0 1.3906.71875 2.2344 1.8594 2.2344.95312 0 1.7031-.57812 2.125-1.6562zm-3.0781-1.4375c.10938-.78125.45312-1.1562 1.0625-1.1562s.84375.28125.96875 1.1562z" transform="matrix(.35278 0 0 .35278 20.927 168.37)"/><path d="m2.5-4.5781c-1.2969 0-2.2031.95312-2.2031 2.3281 0 1.3438.92188 2.3438 2.1719 2.3438 1.2656 0 2.2188-1.0469 2.2188-2.4219 0-1.3125-.92188-2.25-2.1875-2.25zm-.14062.26562c.84375 0 1.4219.96875 1.4219 2.3281 0 1.125-.4375 1.8125-1.1875 1.8125-.39062 0-.76562-.25-.96875-.64062-.28125-.51562-.4375-1.2188-.4375-1.9219 0-.95312.46875-1.5781 1.1719-1.5781z" transform="matrix(.35278 0 0 .35278 23.679 168.37)"/><path d="m3.078125-4.484375h-1.21875v-1.15625c0-.578125.1875-.890625.5625-.890625.203125 0 .34375.09375.53125.390625.15625.265625.28125.359375.453125.359375.21875 0 .40625-.1875.40625-.40625 0-.359375-.4375-.625-1.03125-.625-.625 0-1.140625.265625-1.40625.734375-.265625.4375-.34375.796875-.34375 1.59375h-.828125v.3125h.828125v3.140625c0 .71875-.109375.84375-.828125.875v.15625h2.59375v-.15625c-.828125-.015625-.9375-.140625-.9375-.875v-3.140625h1.21875zm0 0" transform="matrix(.35278 0 0 .35278 25.458 168.37)"/><path d="m7.0625-3.53125h-2.53125v.1875c.421875.03125.546875.046875.65625.140625.15625.078125.21875.3125.21875.734375v1.625c0 .3125-.609375.578125-1.328125.578125-1.625 0-2.625-1.125-2.625-2.984375 0-.9375.28125-1.84375.71875-2.328125.4375-.5 1.0625-.765625 1.734375-.765625.5625 0 1.046875.1875 1.4375.546875.296875.28125.453125.546875.703125 1.15625h.234375l-.078125-2.09375h-.21875c-.0625.1875-.25.328125-.453125.328125-.09375 0-.25-.03125-.4375-.109375-.453125-.140625-.90625-.21875-1.359375-.21875-1.984375 0-3.421875 1.453125-3.421875 3.5 0 .96875.28125 1.71875.828125 2.3125.671875.6875 1.625 1.0625 2.734375 1.0625.84375 0 2.09375-.34375 2.5-.703125v-2.015625c0-.59375.109375-.71875.6875-.765625zm0 0" transform="matrix(.35278 0 0 .35278 27.83 168.37)"/><path d="m2.015625-2.90625c.25.03125.421875.03125.6875.03125.78125 0 1.3125-.09375 1.75-.328125.59375-.328125.953125-.9375.953125-1.59375 0-.421875-.140625-.796875-.40625-1.078125-.40625-.4375-1.265625-.71875-2.203125-.71875h-2.640625v.1875c.734375.078125.84375.171875.84375.890625v4.3125c0 .84375-.078125.9375-.84375 1.015625v.1875h2.796875v-.1875c-.796875-.03125-.9375-.171875-.9375-.90625zm0-2.984375c0-.265625.0625-.34375.34375-.34375 1.34375 0 1.953125.46875 1.953125 1.5 0 .96875-.578125 1.46875-1.734375 1.46875-.203125 0-.328125-.015625-.5625-.03125zm0 0" transform="matrix(.35278 0 0 .35278 30.371 168.37)"/><path d="m.828125 1.40625c.671875-.328125 1.109375-.9375 1.109375-1.53125 0-.5-.34375-.890625-.796875-.890625-.34375 0-.578125.234375-.578125.5625s.21875.515625.578125.515625c.0625 0 .140625-.015625.1875-.015625.078125-.03125.078125-.03125.09375-.03125.078125 0 .140625.0625.140625.140625 0 .328125-.28125.6875-.828125 1.0625zm0 0" transform="matrix(.35278 0 0 .35278 31.939 168.37)"/><path d="m4.40625-.65625c-.171875.140625-.296875.1875-.4375.1875-.234375 0-.296875-.140625-.296875-.578125v-1.9375c0-.53125-.046875-.8125-.203125-1.046875-.21875-.359375-.640625-.546875-1.234375-.546875-.9375 0-1.671875.484375-1.671875 1.109375 0 .234375.1875.421875.421875.421875s.453125-.1875.453125-.40625c0-.046875-.015625-.09375-.015625-.171875-.03125-.078125-.03125-.15625-.03125-.234375 0-.265625.3125-.484375.71875-.484375.484375 0 .75.28125.75.828125v.609375c-1.53125.609375-1.703125.6875-2.125 1.078125-.21875.1875-.359375.53125-.359375.859375 0 .625.4375 1.0625 1.046875 1.0625.4375 0 .84375-.203125 1.453125-.71875.046875.515625.21875.71875.640625.71875.328125 0 .546875-.109375.890625-.5zm-1.546875-.5625c0 .296875-.046875.390625-.25.515625-.25.140625-.53125.21875-.734375.21875-.34375 0-.625-.328125-.625-.765625v-.03125c0-.59375.40625-.953125 1.609375-1.390625zm0 0" transform="matrix(.35278 0 0 .35278 34.055 168.37)"/><path d="m3.140625-3.125-.046875-1.359375h-.109375l-.015625.015625c-.09375.078125-.09375.078125-.140625.078125-.0625 0-.15625-.015625-.265625-.0625-.21875-.078125-.4375-.125-.703125-.125-.78125 0-1.34375.515625-1.34375 1.234375 0 .546875.3125.953125 1.15625 1.4375l.578125.328125c.359375.1875.515625.4375.515625.734375 0 .4375-.3125.71875-.828125.71875-.328125 0-.640625-.125-.828125-.34375-.21875-.25-.296875-.484375-.4375-1.046875h-.15625v1.5625h.125c.078125-.109375.109375-.125.234375-.125.09375 0 .234375.015625.453125.078125.28125.0625.5625.09375.734375.09375.765625 0 1.40625-.578125 1.40625-1.265625 0-.5-.234375-.828125-.84375-1.1875l-1.0625-.640625c-.28125-.15625-.4375-.40625-.4375-.671875 0-.40625.3125-.6875.765625-.6875.578125 0 .875.34375 1.09375 1.234375zm0 0" transform="matrix(.35278 0 0 .35278 35.622 168.37)"/><path d="m1.75-4.578125-1.546875.546875v.140625h.078125c.125-.03125.25-.03125.34375-.03125.234375 0 .328125.15625.328125.59375v2.3125c0 .71875-.109375.828125-.796875.859375v.15625h2.359375v-.15625c-.65625-.046875-.734375-.140625-.734375-.859375v-3.546875zm-.46875-2.234375c-.28125 0-.5.234375-.5.515625s.21875.5.5.5.515625-.21875.515625-.5-.234375-.515625-.515625-.515625zm0 0" transform="matrix(.35278 0 0 .35278 38.206 168.37)"/><path d="m2.546875-4.484375h-1.015625v-1.15625c0-.09375 0-.125-.0625-.125-.078125.078125-.140625.171875-.203125.265625-.375.5625-.8125 1.03125-.96875 1.078125-.109375.0625-.171875.140625-.171875.1875 0 .03125.015625.046875.046875.0625h.53125v3c0 .84375.296875 1.265625.875 1.265625.5 0 .875-.234375 1.203125-.75l-.125-.109375c-.21875.25-.390625.34375-.609375.34375-.359375 0-.515625-.265625-.515625-.890625v-2.859375h1.015625zm0 0" transform="matrix(.35278 0 0 .35278 39.179 168.37)"/><path d="m3.96875-1.5625c-.484375.703125-.84375.9375-1.40625.9375-.90625 0-1.546875-.796875-1.546875-1.9375 0-1.03125.546875-1.734375 1.359375-1.734375.359375 0 .484375.109375.578125.484375l.0625.21875c.078125.28125.265625.453125.46875.453125.265625 0 .484375-.1875.484375-.421875 0-.546875-.703125-1.015625-1.53125-1.015625-.5 0-1 .1875-1.40625.546875-.5.4375-.78125 1.125-.78125 1.90625 0 1.296875.78125 2.21875 1.890625 2.21875.453125 0 .84375-.15625 1.203125-.46875.28125-.234375.46875-.5.765625-1.09375zm0 0" transform="matrix(.35278 0 0 .35278 41.379 168.37)"/><path d="m4.40625-.65625c-.171875.140625-.296875.1875-.4375.1875-.234375 0-.296875-.140625-.296875-.578125v-1.9375c0-.53125-.046875-.8125-.203125-1.046875-.21875-.359375-.640625-.546875-1.234375-.546875-.9375 0-1.671875.484375-1.671875 1.109375 0 .234375.1875.421875.421875.421875s.453125-.1875.453125-.40625c0-.046875-.015625-.09375-.015625-.171875-.03125-.078125-.03125-.15625-.03125-.234375 0-.265625.3125-.484375.71875-.484375.484375 0 .75.28125.75.828125v.609375c-1.53125.609375-1.703125.6875-2.125 1.078125-.21875.1875-.359375.53125-.359375.859375 0 .625.4375 1.0625 1.046875 1.0625.4375 0 .84375-.203125 1.453125-.71875.046875.515625.21875.71875.640625.71875.328125 0 .546875-.109375.890625-.5zm-1.546875-.5625c0 .296875-.046875.390625-.25.515625-.25.140625-.53125.21875-.734375.21875-.34375 0-.625-.328125-.625-.765625v-.03125c0-.59375.40625-.953125 1.609375-1.390625zm0 0" transform="matrix(.35278 0 0 .35278 42.947 168.37)"/><path d="m.15625-3.96875c.0625-.03125.15625-.03125.265625-.03125.28125 0 .375.140625.375.625v2.484375c0 .5625-.109375.703125-.625.734375v.15625h2.125v-.15625c-.515625-.03125-.65625-.15625-.65625-.515625v-2.796875c.46875-.453125.6875-.5625 1.015625-.5625.5 0 .734375.296875.734375.953125v2.09375c0 .625-.125.796875-.625.828125v.15625h2.0625v-.15625c-.484375-.046875-.59375-.15625-.59375-.65625v-2.28125c0-.9375-.453125-1.484375-1.1875-1.484375-.453125 0-.765625.15625-1.4375.796875v-.78125l-.078125-.015625c-.484375.171875-.828125.28125-1.375.4375zm0 0" transform="matrix(.35278 0 0 .35278 44.514 168.37)"/><path d="m1.75-4.578125-1.546875.546875v.140625h.078125c.125-.03125.25-.03125.34375-.03125.234375 0 .328125.15625.328125.59375v2.3125c0 .71875-.109375.828125-.796875.859375v.15625h2.359375v-.15625c-.65625-.046875-.734375-.140625-.734375-.859375v-3.546875zm-.46875-2.234375c-.28125 0-.5.234375-.5.515625s.21875.5.5.5.515625-.21875.515625-.5-.234375-.515625-.515625-.515625zm0 0" transform="matrix(.35278 0 0 .35278 47.477 168.37)"/><path d="m.15625-3.96875c.0625-.03125.15625-.03125.265625-.03125.28125 0 .375.140625.375.625v2.484375c0 .5625-.109375.703125-.625.734375v.15625h2.125v-.15625c-.515625-.03125-.65625-.15625-.65625-.515625v-2.796875c.46875-.453125.6875-.5625 1.015625-.5625.5 0 .734375.296875.734375.953125v2.09375c0 .625-.125.796875-.625.828125v.15625h2.0625v-.15625c-.484375-.046875-.59375-.15625-.59375-.65625v-2.28125c0-.9375-.453125-1.484375-1.1875-1.484375-.453125 0-.765625.15625-1.4375.796875v-.78125l-.078125-.015625c-.484375.171875-.828125.28125-1.375.4375zm0 0" transform="matrix(.35278 0 0 .35278 48.451 168.37)"/><path d="m3.96875-1.5625c-.484375.703125-.84375.9375-1.40625.9375-.90625 0-1.546875-.796875-1.546875-1.9375 0-1.03125.546875-1.734375 1.359375-1.734375.359375 0 .484375.109375.578125.484375l.0625.21875c.078125.28125.265625.453125.46875.453125.265625 0 .484375-.1875.484375-.421875 0-.546875-.703125-1.015625-1.53125-1.015625-.5 0-1 .1875-1.40625.546875-.5.4375-.78125 1.125-.78125 1.90625 0 1.296875.78125 2.21875 1.890625 2.21875.453125 0 .84375-.15625 1.203125-.46875.28125-.234375.46875-.5.765625-1.09375zm0 0" transform="matrix(.35278 0 0 .35278 50.229 168.37)"/><path d="m.0625-3.890625c.140625-.03125.234375-.03125.359375-.03125.25 0 .328125.15625.328125.59375v2.484375c0 .5-.0625.578125-.703125.6875v.15625h2.390625v-.15625c-.671875-.015625-.84375-.171875-.84375-.734375v-2.25c0-.3125.4375-.8125.703125-.8125.0625 0 .140625.046875.25.140625.171875.140625.28125.203125.40625.203125.234375 0 .390625-.171875.390625-.453125 0-.328125-.21875-.515625-.546875-.515625-.421875 0-.71875.21875-1.203125.921875v-.90625l-.046875-.015625c-.53125.21875-.890625.34375-1.484375.53125zm0 0" transform="matrix(.35278 0 0 .35278 51.797 168.37)"/><path d="m4.0625-1.6406c-.46875.76562-.90625 1.0469-1.5469 1.0469-.5625 0-.98438-.28125-1.2812-.85938-.17188-.375-.25-.70312-.26562-1.3125h3.0625c-.078125-.64062-.17188-.9375-.42188-1.25-.29688-.35938-.76562-.5625-1.2812-.5625-.5 0-.96875.17188-1.3438.51562-.46875.40625-.73438 1.1094-.73438 1.9219 0 1.3906.71875 2.2344 1.8594 2.2344.95312 0 1.7031-.57812 2.125-1.6562zm-3.0781-1.4375c.10938-.78125.45312-1.1562 1.0625-1.1562s.84375.28125.96875 1.1562z" transform="matrix(.35278 0 0 .35278 52.981 168.37)"/><path d="m4.40625-.65625c-.171875.140625-.296875.1875-.4375.1875-.234375 0-.296875-.140625-.296875-.578125v-1.9375c0-.53125-.046875-.8125-.203125-1.046875-.21875-.359375-.640625-.546875-1.234375-.546875-.9375 0-1.671875.484375-1.671875 1.109375 0 .234375.1875.421875.421875.421875s.453125-.1875.453125-.40625c0-.046875-.015625-.09375-.015625-.171875-.03125-.078125-.03125-.15625-.03125-.234375 0-.265625.3125-.484375.71875-.484375.484375 0 .75.28125.75.828125v.609375c-1.53125.609375-1.703125.6875-2.125 1.078125-.21875.1875-.359375.53125-.359375.859375 0 .625.4375 1.0625 1.046875 1.0625.4375 0 .84375-.203125 1.453125-.71875.046875.515625.21875.71875.640625.71875.328125 0 .546875-.109375.890625-.5zm-1.546875-.5625c0 .296875-.046875.390625-.25.515625-.25.140625-.53125.21875-.734375.21875-.34375 0-.625-.328125-.625-.765625v-.03125c0-.59375.40625-.953125 1.609375-1.390625zm0 0" transform="matrix(.35278 0 0 .35278 54.549 168.37)"/><path d="m3.140625-3.125-.046875-1.359375h-.109375l-.015625.015625c-.09375.078125-.09375.078125-.140625.078125-.0625 0-.15625-.015625-.265625-.0625-.21875-.078125-.4375-.125-.703125-.125-.78125 0-1.34375.515625-1.34375 1.234375 0 .546875.3125.953125 1.15625 1.4375l.578125.328125c.359375.1875.515625.4375.515625.734375 0 .4375-.3125.71875-.828125.71875-.328125 0-.640625-.125-.828125-.34375-.21875-.25-.296875-.484375-.4375-1.046875h-.15625v1.5625h.125c.078125-.109375.109375-.125.234375-.125.09375 0 .234375.015625.453125.078125.28125.0625.5625.09375.734375.09375.765625 0 1.40625-.578125 1.40625-1.265625 0-.5-.234375-.828125-.84375-1.1875l-1.0625-.640625c-.28125-.15625-.4375-.40625-.4375-.671875 0-.40625.3125-.6875.765625-.6875.578125 0 .875.34375 1.09375 1.234375zm0 0" transform="matrix(.35278 0 0 .35278 56.116 168.37)"/><path d="m4.0625-1.6406c-.46875.76562-.90625 1.0469-1.5469 1.0469-.5625 0-.98438-.28125-1.2812-.85938-.17188-.375-.25-.70312-.26562-1.3125h3.0625c-.078125-.64062-.17188-.9375-.42188-1.25-.29688-.35938-.76562-.5625-1.2812-.5625-.5 0-.96875.17188-1.3438.51562-.46875.40625-.73438 1.1094-.73438 1.9219 0 1.3906.71875 2.2344 1.8594 2.2344.95312 0 1.7031-.57812 2.125-1.6562zm-3.0781-1.4375c.10938-.78125.45312-1.1562 1.0625-1.1562s.84375.28125.96875 1.1562z" transform="matrix(.35278 0 0 .35278 57.47 168.37)"/><path d="m2.546875-4.484375h-1.015625v-1.15625c0-.09375 0-.125-.0625-.125-.078125.078125-.140625.171875-.203125.265625-.375.5625-.8125 1.03125-.96875 1.078125-.109375.0625-.171875.140625-.171875.1875 0 .03125.015625.046875.046875.0625h.53125v3c0 .84375.296875 1.265625.875 1.265625.5 0 .875-.234375 1.203125-.75l-.125-.109375c-.21875.25-.390625.34375-.609375.34375-.359375 0-.515625-.265625-.515625-.890625v-2.859375h1.015625zm0 0" transform="matrix(.35278 0 0 .35278 60.222 168.37)"/><path d="m1.5625-3.421875c.421875-.453125.71875-.625 1.109375-.625.5 0 .75.359375.75 1.0625v1.96875c0 .671875-.109375.8125-.6875.859375v.15625h2.125v-.15625c-.546875-.09375-.609375-.171875-.609375-.859375v-1.984375c0-1.046875-.40625-1.578125-1.21875-1.578125-.59375 0-1 .234375-1.46875.828125v-3.03125l-.046875-.03125c-.34375.125-.59375.203125-1.140625.359375l-.28125.078125v.171875c.046875-.015625.078125-.015625.125-.015625.421875 0 .515625.078125.515625.5v4.703125c0 .703125-.0625.78125-.640625.859375v.15625h2.15625v-.15625c-.578125-.046875-.6875-.171875-.6875-.859375zm0 0" transform="matrix(.35278 0 0 .35278 61.195 168.37)"/><path d="m4.0625-1.6406c-.46875.76562-.90625 1.0469-1.5469 1.0469-.5625 0-.98438-.28125-1.2812-.85938-.17188-.375-.25-.70312-.26562-1.3125h3.0625c-.078125-.64062-.17188-.9375-.42188-1.25-.29688-.35938-.76562-.5625-1.2812-.5625-.5 0-.96875.17188-1.3438.51562-.46875.40625-.73438 1.1094-.73438 1.9219 0 1.3906.71875 2.2344 1.8594 2.2344.95312 0 1.7031-.57812 2.125-1.6562zm-3.0781-1.4375c.10938-.78125.45312-1.1562 1.0625-1.1562s.84375.28125.96875 1.1562z" transform="matrix(.35278 0 0 .35278 62.974 168.37)"/><path d="m3.140625-3.125-.046875-1.359375h-.109375l-.015625.015625c-.09375.078125-.09375.078125-.140625.078125-.0625 0-.15625-.015625-.265625-.0625-.21875-.078125-.4375-.125-.703125-.125-.78125 0-1.34375.515625-1.34375 1.234375 0 .546875.3125.953125 1.15625 1.4375l.578125.328125c.359375.1875.515625.4375.515625.734375 0 .4375-.3125.71875-.828125.71875-.328125 0-.640625-.125-.828125-.34375-.21875-.25-.296875-.484375-.4375-1.046875h-.15625v1.5625h.125c.078125-.109375.109375-.125.234375-.125.09375 0 .234375.015625.453125.078125.28125.0625.5625.09375.734375.09375.765625 0 1.40625-.578125 1.40625-1.265625 0-.5-.234375-.828125-.84375-1.1875l-1.0625-.640625c-.28125-.15625-.4375-.40625-.4375-.671875 0-.40625.3125-.6875.765625-.6875.578125 0 .875.34375 1.09375 1.234375zm0 0" transform="matrix(.35278 0 0 .35278 65.768 168.37)"/><path d="m4.78125-.5h-.0625c-.453125 0-.5625-.109375-.5625-.5625v-3.421875h-1.578125v.171875c.625.03125.734375.125.734375.625v2.34375c0 .28125-.046875.421875-.1875.53125-.265625.21875-.578125.328125-.875.328125-.390625 0-.703125-.328125-.703125-.75v-3.25h-1.453125v.140625c.46875.03125.609375.171875.609375.640625v2.5c0 .796875.484375 1.296875 1.203125 1.296875.375 0 .765625-.15625 1.03125-.421875l.4375-.421875v.8125l.03125.03125c.5-.203125.859375-.3125 1.375-.453125zm0 0" transform="matrix(.35278 0 0 .35278 67.121 168.37)"/><path d="m3.96875-1.5625c-.484375.703125-.84375.9375-1.40625.9375-.90625 0-1.546875-.796875-1.546875-1.9375 0-1.03125.546875-1.734375 1.359375-1.734375.359375 0 .484375.109375.578125.484375l.0625.21875c.078125.28125.265625.453125.46875.453125.265625 0 .484375-.1875.484375-.421875 0-.546875-.703125-1.015625-1.53125-1.015625-.5 0-1 .1875-1.40625.546875-.5.4375-.78125 1.125-.78125 1.90625 0 1.296875.78125 2.21875 1.890625 2.21875.453125 0 .84375-.15625 1.203125-.46875.28125-.234375.46875-.5.765625-1.09375zm0 0" transform="matrix(.35278 0 0 .35278 68.9 168.37)"/><path d="m3.96875-1.5625c-.484375.703125-.84375.9375-1.40625.9375-.90625 0-1.546875-.796875-1.546875-1.9375 0-1.03125.546875-1.734375 1.359375-1.734375.359375 0 .484375.109375.578125.484375l.0625.21875c.078125.28125.265625.453125.46875.453125.265625 0 .484375-.1875.484375-.421875 0-.546875-.703125-1.015625-1.53125-1.015625-.5 0-1 .1875-1.40625.546875-.5.4375-.78125 1.125-.78125 1.90625 0 1.296875.78125 2.21875 1.890625 2.21875.453125 0 .84375-.15625 1.203125-.46875.28125-.234375.46875-.5.765625-1.09375zm0 0" transform="matrix(.35278 0 0 .35278 70.467 168.37)"/><path d="m4.0625-1.6406c-.46875.76562-.90625 1.0469-1.5469 1.0469-.5625 0-.98438-.28125-1.2812-.85938-.17188-.375-.25-.70312-.26562-1.3125h3.0625c-.078125-.64062-.17188-.9375-.42188-1.25-.29688-.35938-.76562-.5625-1.2812-.5625-.5 0-.96875.17188-1.3438.51562-.46875.40625-.73438 1.1094-.73438 1.9219 0 1.3906.71875 2.2344 1.8594 2.2344.95312 0 1.7031-.57812 2.125-1.6562zm-3.0781-1.4375c.10938-.78125.45312-1.1562 1.0625-1.1562s.84375.28125.96875 1.1562z" transform="matrix(.35278 0 0 .35278 72.035 168.37)"/><path d="m3.140625-3.125-.046875-1.359375h-.109375l-.015625.015625c-.09375.078125-.09375.078125-.140625.078125-.0625 0-.15625-.015625-.265625-.0625-.21875-.078125-.4375-.125-.703125-.125-.78125 0-1.34375.515625-1.34375 1.234375 0 .546875.3125.953125 1.15625 1.4375l.578125.328125c.359375.1875.515625.4375.515625.734375 0 .4375-.3125.71875-.828125.71875-.328125 0-.640625-.125-.828125-.34375-.21875-.25-.296875-.484375-.4375-1.046875h-.15625v1.5625h.125c.078125-.109375.109375-.125.234375-.125.09375 0 .234375.015625.453125.078125.28125.0625.5625.09375.734375.09375.765625 0 1.40625-.578125 1.40625-1.265625 0-.5-.234375-.828125-.84375-1.1875l-1.0625-.640625c-.28125-.15625-.4375-.40625-.4375-.671875 0-.40625.3125-.6875.765625-.6875.578125 0 .875.34375 1.09375 1.234375zm0 0" transform="matrix(.35278 0 0 .35278 73.602 168.37)"/><path d="m3.140625-3.125-.046875-1.359375h-.109375l-.015625.015625c-.09375.078125-.09375.078125-.140625.078125-.0625 0-.15625-.015625-.265625-.0625-.21875-.078125-.4375-.125-.703125-.125-.78125 0-1.34375.515625-1.34375 1.234375 0 .546875.3125.953125 1.15625 1.4375l.578125.328125c.359375.1875.515625.4375.515625.734375 0 .4375-.3125.71875-.828125.71875-.328125 0-.640625-.125-.828125-.34375-.21875-.25-.296875-.484375-.4375-1.046875h-.15625v1.5625h.125c.078125-.109375.109375-.125.234375-.125.09375 0 .234375.015625.453125.078125.28125.0625.5625.09375.734375.09375.765625 0 1.40625-.578125 1.40625-1.265625 0-.5-.234375-.828125-.84375-1.1875l-1.0625-.640625c-.28125-.15625-.4375-.40625-.4375-.671875 0-.40625.3125-.6875.765625-.6875.578125 0 .875.34375 1.09375 1.234375zm0 0" transform="matrix(.35278 0 0 .35278 74.955 168.37)"/><path d="m.0625-3.890625c.140625-.03125.234375-.03125.359375-.03125.25 0 .328125.15625.328125.59375v2.484375c0 .5-.0625.578125-.703125.6875v.15625h2.390625v-.15625c-.671875-.015625-.84375-.171875-.84375-.734375v-2.25c0-.3125.4375-.8125.703125-.8125.0625 0 .140625.046875.25.140625.171875.140625.28125.203125.40625.203125.234375 0 .390625-.171875.390625-.453125 0-.328125-.21875-.515625-.546875-.515625-.421875 0-.71875.21875-1.203125.921875v-.90625l-.046875-.015625c-.53125.21875-.890625.34375-1.484375.53125zm0 0" transform="matrix(.35278 0 0 .35278 77.539 168.37)"/><path d="m4.40625-.65625c-.171875.140625-.296875.1875-.4375.1875-.234375 0-.296875-.140625-.296875-.578125v-1.9375c0-.53125-.046875-.8125-.203125-1.046875-.21875-.359375-.640625-.546875-1.234375-.546875-.9375 0-1.671875.484375-1.671875 1.109375 0 .234375.1875.421875.421875.421875s.453125-.1875.453125-.40625c0-.046875-.015625-.09375-.015625-.171875-.03125-.078125-.03125-.15625-.03125-.234375 0-.265625.3125-.484375.71875-.484375.484375 0 .75.28125.75.828125v.609375c-1.53125.609375-1.703125.6875-2.125 1.078125-.21875.1875-.359375.53125-.359375.859375 0 .625.4375 1.0625 1.046875 1.0625.4375 0 .84375-.203125 1.453125-.71875.046875.515625.21875.71875.640625.71875.328125 0 .546875-.109375.890625-.5zm-1.546875-.5625c0 .296875-.046875.390625-.25.515625-.25.140625-.53125.21875-.734375.21875-.34375 0-.625-.328125-.625-.765625v-.03125c0-.59375.40625-.953125 1.609375-1.390625zm0 0" transform="matrix(.35278 0 0 .35278 78.723 168.37)"/><path d="m2.546875-4.484375h-1.015625v-1.15625c0-.09375 0-.125-.0625-.125-.078125.078125-.140625.171875-.203125.265625-.375.5625-.8125 1.03125-.96875 1.078125-.109375.0625-.171875.140625-.171875.1875 0 .03125.015625.046875.046875.0625h.53125v3c0 .84375.296875 1.265625.875 1.265625.5 0 .875-.234375 1.203125-.75l-.125-.109375c-.21875.25-.390625.34375-.609375.34375-.359375 0-.515625-.265625-.515625-.890625v-2.859375h1.015625zm0 0" transform="matrix(.35278 0 0 .35278 80.291 168.37)"/><path d="m4.0625-1.6406c-.46875.76562-.90625 1.0469-1.5469 1.0469-.5625 0-.98438-.28125-1.2812-.85938-.17188-.375-.25-.70312-.26562-1.3125h3.0625c-.078125-.64062-.17188-.9375-.42188-1.25-.29688-.35938-.76562-.5625-1.2812-.5625-.5 0-.96875.17188-1.3438.51562-.46875.40625-.73438 1.1094-.73438 1.9219 0 1.3906.71875 2.2344 1.8594 2.2344.95312 0 1.7031-.57812 2.125-1.6562zm-3.0781-1.4375c.10938-.78125.45312-1.1562 1.0625-1.1562s.84375.28125.96875 1.1562z" transform="matrix(.35278 0 0 .35278 81.264 168.37)"/><path d="m1.53125-6.78125-.0625-.03125c-.40625.15625-.6875.234375-1.15625.359375l-.28125.078125v.171875c.0625-.015625.09375-.015625.171875-.015625.390625 0 .484375.09375.484375.5v5.1875c0 .296875.84375.625 1.640625.625 1.328125 0 2.34375-1.09375 2.34375-2.515625 0-1.234375-.765625-2.15625-1.765625-2.15625-.609375 0-1.1875.34375-1.375.84375zm0 3.578125c0-.390625.46875-.75.984375-.75.78125 0 1.265625.765625 1.265625 1.984375 0 1.109375-.46875 1.75-1.28125 1.75-.53125 0-.96875-.234375-.96875-.484375zm0 0" transform="matrix(.35278 0 0 .35278 84.059 168.37)"/><path d="m4.734375-4.484375h-1.34375v.140625c.3125 0 .484375.09375.484375.25 0 .046875-.015625.109375-.046875.171875l-.96875 2.75-1.140625-2.515625c-.0625-.140625-.109375-.265625-.109375-.375 0-.1875.15625-.25.578125-.28125v-.140625h-2.046875v.140625c.265625.03125.421875.140625.5.3125l1.140625 2.453125.03125.078125.15625.296875c.28125.5.4375.859375.4375 1.015625 0 .140625-.234375.78125-.40625 1.078125-.140625.25-.359375.4375-.5.4375-.046875 0-.140625-.015625-.25-.0625-.1875-.0625-.359375-.109375-.515625-.109375-.234375 0-.4375.203125-.4375.4375 0 .328125.328125.578125.734375.578125.671875 0 1.15625-.5625 1.6875-2l1.53125-4.0625c.140625-.3125.25-.421875.484375-.453125zm0 0" transform="matrix(.35278 0 0 .35278 85.837 168.37)"/><path d="m4.7031-2.2969h-1.0156v-4.4375h-.4375l-3.125 4.4375v.625h2.7969v1.6719h.76562v-1.6719h1.0156zm-1.7969 0h-2.3906l2.3906-3.4219z" transform="matrix(.35278 0 0 .35278 88.8 168.37)"/><path d="m2.5312-6.7344c-.54688 0-.96875.17188-1.3281.51562-.57812.5625-.96875 1.7031-.96875 2.875 0 1.0781.32812 2.25.79688 2.8125.375.4375.875.67188 1.4688.67188.5 0 .92188-.17188 1.2812-.51562.57812-.54688.96875-1.7031.96875-2.9219 0-2.0312-.90625-3.4375-2.2188-3.4375zm-.03125.25c.84375 0 1.2812 1.125 1.2812 3.2188 0 2.0781-.4375 3.1406-1.2812 3.1406-.85938 0-1.2969-1.0625-1.2969-3.1406 0-2.1094.4375-3.2188 1.2969-3.2188z" transform="matrix(.35278 0 0 .35278 90.578 168.37)"/><path d="m6.671875-3.703125c-1.125 0-2.203125 1.171875-2.203125 2.421875 0 .765625.484375 1.28125 1.203125 1.28125.453125 0 .8125-.15625 1.171875-.515625.515625-.53125.859375-1.34375.859375-2.109375 0-.6875-.390625-1.078125-1.03125-1.078125zm.0625.328125c.390625 0 .703125.359375.703125.796875 0 .5625-.25 1.25-.625 1.703125-.328125.40625-.609375.578125-.96875.578125s-.609375-.265625-.609375-.640625c0-.53125.28125-1.34375.640625-1.859375.28125-.40625.5625-.578125.859375-.578125zm-.421875-3.359375h-.375c-.546875.5-.9375.671875-1.5625.671875-.390625 0-.625-.0625-.859375-.265625-.265625-.21875-.390625-.265625-.703125-.265625-1.140625 0-2.203125 1.1875-2.203125 2.453125 0 .6875.53125 1.265625 1.171875 1.265625.4375 0 .875-.203125 1.203125-.546875.53125-.53125.84375-1.328125.84375-2.046875 0-.140625-.015625-.265625-.0625-.4375.171875.0625.34375.09375.640625.09375.4375 0 .703125-.0625 1.09375-.296875l-3.5 6.234375h.484375zm-2.828125.75c.0625.203125.09375.359375.09375.484375 0 1.140625-.8125 2.28125-1.625 2.28125-.34375 0-.59375-.25-.59375-.609375 0-.421875.203125-1.09375.46875-1.59375.296875-.546875.671875-.875.984375-.875.046875 0 .0625 0 .125.0625.140625.125.265625.171875.546875.25zm0 0" transform="matrix(.35278 0 0 .35278 92.357 168.37)"/><path d="m1.25-1c-.296875 0-.546875.265625-.546875.578125 0 .28125.25.53125.53125.53125.3125 0 .5625-.25.5625-.53125 0-.3125-.25-.578125-.546875-.578125zm0 0" transform="matrix(.35278 0 0 .35278 95.278 168.37)"/></g></svg>