<svg height="31pt" preserveAspectRatio="none" viewBox="0 0 31 31" width="31pt" xmlns="http://www.w3.org/2000/svg"><path d="m1 1v6.9999h6.9999v-6.9999zm7.9998 0v1.9998h.99991v-.99991h2.0003v.99991h.99991v-1.9998h-4.0001zm.99991 1.9998v.99991h1.0004v-.99991zm4.0001-1.9998v.99991h1.9998v.99991h1.0004v-1.9998h-3.0002zm4.0001 0v.99991h.99991v-.99991zm.99991.99991v.99991h-.99991v1.9998h.99991v1.0004h.99991v-1.0004h.99991v-.99991h.99991v-1.9998h-.99991v.99991h-.99991v-.99991zm-.99991 2.9997h-.99991v-.99991h-1.0004v2.0003h1.0004v1.9998h.99991v-3.0002zm-.99991 3.0002h-1.0004v3.0002h-1.9998v-1.0004h.99991v-1.9998h-.99991v.99991h-1.9998v.99991h.99991v2.0003h-.99991v-.99991h-2.0003v.99991h1.0004v.99991h-1.0004v.99991h1.0004v.99991h-2.0003v2.0003h-1.9998v.99991h.99991v.99991h.99991v-.99991h2.0003v-2.0003h1.9998v-.99991h-.99991v-1.9998h1.9998v-.99991h.99991v.99991h-.99991v1.9998h1.9998v.99991h1.0004v2.0003h-1.0004v.99991h-1.9998v-.99991h.99991v-2.0003h-.99991v1.0004h-1.9998v.99991h.99991v1.9998h-3.0002v1.9998h1.0004v2.0003h1.9998v-.99991h-.99991v-2.0003h1.9998v-.99991h.99991v.99991h-.99991v2.0003h1.9998v.99991h1.0004v.99991h.99991v-.99991h.99991v.99991h.99991v3.0002h.99991v-2.0003h.99991v2.0003h-.99991v1.9998h.99991v-.99991h1.0004v-3.0002h1.9998v2.0003h.99991v-1.0004h2.0003v-.99991h-1.0004v-.99991h-.99991v-1.9998h2.0003v-1.0004h-1.0004v-.99991h-.99991v-.99991h.99991v-.99991h-1.9998v-1.9998h.99991v-1.0004h-1.9998v-.99991h.99991v-1.9998h1.9998v-.99991h1.0004v-.99991h-3.0002v.99991h-.99991v.99991h-.99991v.99991h-1.0004v1.9998h-.99991v1.0004h-1.9998v.99991h.99991v5h.99991v.99991h-.99991v-.99991h-.99991v-1.0004h-.99991v-.99991h-2.0003v-.99991h1.0004v-.99991h1.9998v-.99991h-.99991v-5.0001h-.99991v.99991h-1.0004v-.99991h1.0004v-1.9998h.99991v-1.0004h-.99991v-1.9998zm.99991 3.0002v.99991h.99991v-.99991zm.99991 0h.99991v.99991h-.99991v.99991h1.9998v.99991h.99991v-.99991h1.0004v-.99991h.99991v-.99991h.99991v-1.0004h.99991v-.99991h-4.0001v-2.9997h-.99991v1.9998h-.99991v1.9998h-.99991zm.99991-3.0002v-.99991h-.99991v.99991zm.99991 6h-.99991v.99991h-.99991v.99991h1.9998v-1.9998zm7.0004-2.9997h.99991v.99991h.99991v-3.0002h-1.9998zm-1.0004 7.9998h2.0003v.99991h.99991v-2.9997h-.99991v.99991h-2.0003zm1.0004 2.9997h.99991v-.99991h-.99991zm.99991 0v2.0003h-.99991v1.9998h.99991v.99991h-.99991v1.0004h1.9998v-6.0005h-.99991zm-3.0002 6.0005v.99991h.99991v-.99991zm0 .99991h-.99991v.99991h.99991zm-2.9997 0v.99991h.99991v-.99991zm-3.0002-.99991h-.99991v1.9998h.99991zm-2.9997-3.0002h-1.0004v1.9998h-1.9998v-.99991h.99991v-1.9998h-.99991v.99991h-2.9997v1.9998h-2.0003v3.0002h.99991v-1.9998h1.0004v.99991h2.9997v-.99991h.99991v.99991h-.99991v.99991h1.9998v-.99991h1.0004v.99991h.99991v-1.9998h-.99991v-1.0004h1.9998v-.99991h-1.9998v-.99991zm-7.0004-3.0002h-.99991v1.0004h.99991zm2.0003-3.9996h-.99991v.99991h.99991zm-4.0001.99991h-1.9998v-.99991h-1.0004v-.99991h2.0003v-1.0004h-.99991v-1.9998h-3.0002v-1.9998h.99991v.99991h.99991v-1.9998h1.0004v-1.0004h-2.0003v1.0004h-.99991v-1.0004h.99991v-.99991h-2.9997v.99991h.99991v1.0004h-.99991v2.9997h.99991v.99991h.99991v.99991h.99991v2.0003h-.99991v-.99991h-.99991v1.9998h-.99991v.99991h1.9998v-.99991h1.9998v.99991h1.0004v.99991h-1.0004v.99991h3.0002v-.99991h-.99991v-.99991h.99991v-.99991zm0 .99991v.99991h.99991v-.99991zm-3.0002.99991v-.99991h-1.9998v.99991h-1.9998v.99991h2.9997v-.99991zm-2.9997-3.9997v-1.0004h-.99991v1.0004zm4.0001-7.0004h1.9998v-.99991h-1.9998zm0 1.0004v2.9997h2.9997v-.99991h-1.9998v-.99991h.99991v-.99991h-1.9998zm.99991 4.9996h.99991v-.99991h-.99991zm6.9999-7.9998v-.99991h.99991v.99991h.99991v-1.9998h-1.9998v-2.0003h-1.9998v2.0003h.99991v1.9998zm-1.9998-1.9998h-2.0003v-1.0004h-.99991v5.0001h2.0003v-1.9998h-1.0004v-.99991h1.0004v.99991h.99991v-1.9998zm1.9998-2.0003h.99991v-.99991h-.99991zm9.0002-2.9997v6.9999h6.9999v-6.9999zm-21 .99991h5.0001v5.0001h-5.0001zm22 0h5.0001v5.0001h-5.0001zm-21 .99991v3.0002h3.0002v-3.0002zm22 0v3.0002h3.0002v-3.0002zm-3.0002 6.9999h1.0004v1.0004h-1.0004zm7.0004 3.0002v.99991h-.99991v.99991h.99991v.99991h.99991v-2.9997h-.99991zm-7.0004 4.0001h1.0004v.99991h-1.0004zm-.99991 1.9998h2.0003v.99991h-1.0004v.99991h-.99991v-1.9998zm3.0002.99991h.99991v.99991h-.99991zm-2.0003 1.9998h3.0002v3.0002h-3.0002zm-21 1.0004v6.9999h6.9999v-6.9999zm22 0v.99991h.99991v-.99991zm-21 .99991h5.0001v5.0001h-5.0001zm6.9999 0v.99991h.99991v-.99991zm-6 .99991v3.0002h3.0002v-3.0002zm9.0002.99991h.99991v2.0003h-.99991zm17 3.0002v.99991h.99991v-.99991z"/></svg>