<svg height="503pt" viewBox="0 0 503 503" width="503pt" xmlns="http://www.w3.org/2000/svg"><path d="m127.96 236.72 25.656 14.501 24.541-14.501-24.541-14.501z" fill="#dee0e5" fill-rule="evenodd"/><path d="m127.96 236.72 25.656 14.501 24.541-14.501-24.541-14.501z" fill="none" stroke="#fff" stroke-linecap="round" stroke-linejoin="round" stroke-width="1.1155"/><path d="m153.62 281.34 24.541-13.386v-31.234l-24.541 14.501z" fill="#a3a8b0" fill-rule="evenodd"/><path d="m153.62 281.34 24.541-13.386v-31.234l-24.541 14.501z" fill="none" stroke="#fff" stroke-linecap="round" stroke-linejoin="round" stroke-width="1.1155"/><path d="m127.96 236.72v31.234l25.656 13.386v-30.118z" fill="#bdbfc6" fill-rule="evenodd"/><path d="m127.96 236.72v31.234l25.656 13.386v-30.118z" fill="none" stroke="#24282b" stroke-linecap="round" stroke-linejoin="round" stroke-width="1.1155"/><path d="m142.46 255.68 7.8084 4.462v-6.6929l-7.8084-5.5774z" fill="#959ca4" fill-rule="evenodd"/><g fill="none" stroke="#24282b" stroke-linecap="round" stroke-linejoin="round"><g stroke-width="1.1155"><path d="m136.88 244.53v7.8084"/><path d="m135.77 243.41v7.8084"/><path d="m133.54 242.3v7.8084"/><path d="m131.31 241.18v7.8084"/><path d="m130.19 240.07v7.8084"/><path d="m135.77 253.45v7.8084"/><path d="m134.65 252.34v7.8084"/><path d="m132.42 251.22v7.8084"/><path d="m131.31 250.11v7.8084"/><path d="m138 254.57v7.8084"/><path d="m136.88 263.49v6.6929"/><path d="m135.77 262.38v6.6929"/><path d="m133.54 261.26v6.6929"/><path d="m131.31 260.15v6.6929"/><path d="m130.19 259.03v6.6929"/><path d="m148.04 270.18v6.6929"/><path d="m146.92 269.07v6.6929"/><path d="m144.69 267.95v6.6929"/><path d="m142.46 266.84v7.8084"/><path d="m150.27 271.3v6.6929"/><path d="m149.15 261.26v7.8084"/><path d="m146.92 260.15v7.8084"/><path d="m145.81 259.03v7.8084"/><path d="m143.58 257.91v7.8084"/><path d="m142.46 256.8v7.8084"/><path d="m142.46 255.68 7.8084 4.462v-6.6929l-7.8084-5.5774z"/></g><path d="m127.96 236.72v31.234l25.656 13.386 24.541-13.386v-31.234l-24.541-14.501z" stroke-width="2.231"/></g><path d="m127.96 138.56 25.656 14.501 24.541-14.501-24.541-14.501z" fill="#dee0e5" fill-rule="evenodd"/><path d="m127.96 138.56 25.656 14.501 24.541-14.501-24.541-14.501z" fill="none" stroke="#fff" stroke-linecap="round" stroke-linejoin="round" stroke-width="1.1155"/><path d="m153.62 184.29 24.541-14.501v-31.234l-24.541 14.501z" fill="#a3a8b0" fill-rule="evenodd"/><path d="m153.62 184.29 24.541-14.501v-31.234l-24.541 14.501z" fill="none" stroke="#fff" stroke-linecap="round" stroke-linejoin="round" stroke-width="1.1155"/><path d="m127.96 138.56v31.234l25.656 14.501v-31.234z" fill="#bdbfc6" fill-rule="evenodd"/><path d="m127.96 138.56v31.234l25.656 14.501v-31.234z" fill="none" stroke="#24282b" stroke-linecap="round" stroke-linejoin="round" stroke-width="1.1155"/><path d="m142.46 157.52 7.8084 4.4619v-6.6929l-7.8084-5.5774z" fill="#959ca4" fill-rule="evenodd"/><g fill="none" stroke="#24282b" stroke-linecap="round" stroke-linejoin="round"><g stroke-width="1.1155"><path d="m136.88 146.37v7.8084"/><path d="m135.77 145.25v7.8084"/><path d="m133.54 144.13v7.8084"/><path d="m131.31 143.02v7.8084"/><path d="m130.19 141.9v7.8084"/><path d="m135.77 155.29v7.8084"/><path d="m134.65 154.17v7.8084"/><path d="m132.42 153.06v7.8084"/><path d="m131.31 151.94v7.8084"/><path d="m138 156.4v7.8084"/><path d="m136.88 165.33v6.6929"/><path d="m135.77 164.21v6.6929"/><path d="m133.54 163.1v7.8084"/><path d="m131.31 161.98v7.8084"/><path d="m130.19 160.87v7.8084"/><path d="m148.04 172.02v7.8084"/><path d="m146.92 170.91v7.8084"/><path d="m144.69 169.79v7.8084"/><path d="m142.46 168.68v7.8084"/><path d="m150.27 173.14v7.8084"/><path d="m149.15 163.1v7.8084"/><path d="m146.92 161.98v7.8084"/><path d="m145.81 160.87v7.8084"/><path d="m143.58 159.75v7.8084"/><path d="m142.46 158.64v7.8084"/><path d="m142.46 157.52 7.8084 4.4619v-6.6929l-7.8084-5.5774z"/></g><path d="m127.96 138.56v31.234l25.656 14.501 24.541-14.501v-31.234l-24.541-14.501z" stroke-width="2.231"/></g><path d="m226.12 333.77 25.656 14.501 24.541-14.501-24.541-13.386z" fill="#dee0e5" fill-rule="evenodd"/><path d="m226.12 333.77 25.656 14.501 24.541-14.501-24.541-13.386z" fill="none" stroke="#fff" stroke-linecap="round" stroke-linejoin="round" stroke-width="1.1155"/><path d="m251.78 379.5 24.541-14.501v-31.234l-24.541 14.501z" fill="#a3a8b0" fill-rule="evenodd"/><path d="m251.78 379.5 24.541-14.501v-31.234l-24.541 14.501z" fill="none" stroke="#fff" stroke-linecap="round" stroke-linejoin="round" stroke-width="1.1155"/><path d="m226.12 333.77v31.234l25.656 14.501v-31.234z" fill="#bdbfc6" fill-rule="evenodd"/><path d="m226.12 333.77v31.234l25.656 14.501v-31.234z" fill="none" stroke="#24282b" stroke-linecap="round" stroke-linejoin="round" stroke-width="1.1155"/><path d="m240.62 353.85 7.8084 4.462v-7.8084l-7.8084-4.462z" fill="#959ca4" fill-rule="evenodd"/><g fill="none" stroke="#24282b" stroke-linecap="round" stroke-linejoin="round"><g stroke-width="1.1155"><path d="m235.05 342.69v6.6929"/><path d="m232.82 341.58v6.6929"/><path d="m231.7 340.46v7.8084"/><path d="m229.47 339.34v7.8084"/><path d="m228.35 338.23v7.8084"/><path d="m233.93 351.61v7.8084"/><path d="m232.82 350.5v7.8084"/><path d="m230.58 349.38v7.8084"/><path d="m228.35 348.27v7.8084"/><path d="m236.16 352.73v7.8084"/><path d="m235.05 361.65v6.6929"/><path d="m232.82 360.54v6.6929"/><path d="m231.7 359.42v6.6929"/><path d="m229.47 358.31v6.6929"/><path d="m228.35 357.19v6.6929"/><path d="m246.2 368.35v6.6929"/><path d="m245.09 367.23v6.6929"/><path d="m242.85 366.12v6.6929"/><path d="m240.62 365v6.6929"/><path d="m248.43 369.46v6.6929"/><path d="m247.32 359.42v7.8084"/><path d="m245.09 358.31v7.8084"/><path d="m243.97 357.19v7.8084"/><path d="m241.74 356.08v7.8084"/><path d="m239.51 354.96v7.8084"/><path d="m240.62 353.85 7.8084 4.462v-7.8084l-7.8084-4.462z"/></g><path d="m226.12 333.77v31.234l25.656 14.501 24.541-14.501v-31.234l-24.541-13.386z" stroke-width="2.231"/></g><path d="m324.29 333.77 25.656 14.501 24.541-14.501-24.541-13.386z" fill="#dee0e5" fill-rule="evenodd"/><path d="m324.29 333.77 25.656 14.501 24.541-14.501-24.541-13.386z" fill="none" stroke="#fff" stroke-linecap="round" stroke-linejoin="round" stroke-width="1.1155"/><path d="m349.94 379.5 24.541-14.501v-31.234l-24.541 14.501z" fill="#a3a8b0" fill-rule="evenodd"/><path d="m349.94 379.5 24.541-14.501v-31.234l-24.541 14.501z" fill="none" stroke="#fff" stroke-linecap="round" stroke-linejoin="round" stroke-width="1.1155"/><path d="m324.29 333.77v31.234l25.656 14.501v-31.234z" fill="#bdbfc6" fill-rule="evenodd"/><path d="m324.29 333.77v31.234l25.656 14.501v-31.234z" fill="none" stroke="#24282b" stroke-linecap="round" stroke-linejoin="round" stroke-width="1.1155"/><path d="m338.79 353.85 7.8084 4.462v-7.8084l-7.8084-4.462z" fill="#959ca4" fill-rule="evenodd"/><g fill="none" stroke="#24282b" stroke-linecap="round" stroke-linejoin="round"><g stroke-width="1.1155"><path d="m333.21 342.69v6.6929"/><path d="m330.98 341.58v6.6929"/><path d="m329.86 340.46v7.8084"/><path d="m327.63 339.34v7.8084"/><path d="m325.4 338.23v7.8084"/><path d="m332.09 351.61v7.8084"/><path d="m330.98 350.5v7.8084"/><path d="m328.75 349.38v7.8084"/><path d="m326.52 348.27v7.8084"/><path d="m334.32 352.73v7.8084"/><path d="m333.21 361.65v6.6929"/><path d="m330.98 360.54v6.6929"/><path d="m329.86 359.42v6.6929"/><path d="m327.63 358.31v6.6929"/><path d="m325.4 357.19v6.6929"/><path d="m344.36 368.35v6.6929"/><path d="m342.13 367.23v6.6929"/><path d="m341.02 366.12v6.6929"/><path d="m338.79 365v6.6929"/><path d="m346.6 369.46v6.6929"/><path d="m345.48 359.42v7.8084"/><path d="m343.25 358.31v7.8084"/><path d="m342.13 357.19v7.8084"/><path d="m339.9 356.08v7.8084"/><path d="m337.67 354.96v7.8084"/><path d="m338.79 353.85 7.8084 4.462v-7.8084l-7.8084-4.462z"/></g><path d="m324.29 333.77v31.234l25.656 14.501 24.541-14.501v-31.234l-24.541-13.386z" stroke-width="2.231"/></g><path d="m226.12 138.56 25.656 14.501 24.541-14.501-24.541-14.501z" fill="#dee0e5" fill-rule="evenodd"/><path d="m226.12 138.56 25.656 14.501 24.541-14.501-24.541-14.501z" fill="none" stroke="#fff" stroke-linecap="round" stroke-linejoin="round" stroke-width="1.1155"/><path d="m251.78 184.29 24.541-14.501v-31.234l-24.541 14.501z" fill="#a3a8b0" fill-rule="evenodd"/><path d="m251.78 184.29 24.541-14.501v-31.234l-24.541 14.501z" fill="none" stroke="#fff" stroke-linecap="round" stroke-linejoin="round" stroke-width="1.1155"/><path d="m226.12 138.56v31.234l25.656 14.501v-31.234z" fill="#bdbfc6" fill-rule="evenodd"/><path d="m226.12 138.56v31.234l25.656 14.501v-31.234z" fill="none" stroke="#24282b" stroke-linecap="round" stroke-linejoin="round" stroke-width="1.1155"/><path d="m240.62 157.52 7.8084 4.4619v-6.6929l-7.8084-5.5774z" fill="#959ca4" fill-rule="evenodd"/><g fill="none" stroke="#24282b" stroke-linecap="round" stroke-linejoin="round"><g stroke-width="1.1155"><path d="m235.05 146.37v7.8084"/><path d="m232.82 145.25v7.8084"/><path d="m231.7 144.13v7.8084"/><path d="m229.47 143.02v7.8084"/><path d="m228.35 141.9v7.8084"/><path d="m233.93 155.29v7.8084"/><path d="m232.82 154.17v7.8084"/><path d="m230.58 153.06v7.8084"/><path d="m228.35 151.94v7.8084"/><path d="m236.16 156.4v7.8084"/><path d="m235.05 165.33v6.6929"/><path d="m232.82 164.21v6.6929"/><path d="m231.7 163.1v7.8084"/><path d="m229.47 161.98v7.8084"/><path d="m228.35 160.87v7.8084"/><path d="m246.2 172.02v7.8084"/><path d="m245.09 170.91v7.8084"/><path d="m242.85 169.79v7.8084"/><path d="m240.62 168.68v7.8084"/><path d="m248.43 173.14v7.8084"/><path d="m247.32 163.1v7.8084"/><path d="m245.09 161.98v7.8084"/><path d="m243.97 160.87v7.8084"/><path d="m241.74 159.75v7.8084"/><path d="m239.51 158.64v7.8084"/><path d="m240.62 157.52 7.8084 4.4619v-6.6929l-7.8084-5.5774z"/></g><path d="m226.12 138.56v31.234l25.656 14.501 24.541-14.501v-31.234l-24.541-14.501z" stroke-width="2.231"/></g><path d="m226.12 236.72 25.656 14.501 24.541-14.501-24.541-14.501z" fill="#dee0e5" fill-rule="evenodd"/><path d="m226.12 236.72 25.656 14.501 24.541-14.501-24.541-14.501z" fill="none" stroke="#fff" stroke-linecap="round" stroke-linejoin="round" stroke-width="1.1155"/><path d="m251.78 281.34 24.541-13.386v-31.234l-24.541 14.501z" fill="#a3a8b0" fill-rule="evenodd"/><path d="m251.78 281.34 24.541-13.386v-31.234l-24.541 14.501z" fill="none" stroke="#fff" stroke-linecap="round" stroke-linejoin="round" stroke-width="1.1155"/><path d="m226.12 236.72v31.234l25.656 13.386v-30.118z" fill="#bdbfc6" fill-rule="evenodd"/><path d="m226.12 236.72v31.234l25.656 13.386v-30.118z" fill="none" stroke="#24282b" stroke-linecap="round" stroke-linejoin="round" stroke-width="1.1155"/><path d="m240.62 255.68 7.8084 4.462v-6.6929l-7.8084-5.5774z" fill="#959ca4" fill-rule="evenodd"/><g fill="none" stroke="#24282b" stroke-linecap="round" stroke-linejoin="round"><g stroke-width="1.1155"><path d="m235.05 244.53v7.8084"/><path d="m232.82 243.41v7.8084"/><path d="m231.7 242.3v7.8084"/><path d="m229.47 241.18v7.8084"/><path d="m228.35 240.07v7.8084"/><path d="m233.93 253.45v7.8084"/><path d="m232.82 252.34v7.8084"/><path d="m230.58 251.22v7.8084"/><path d="m228.35 250.11v7.8084"/><path d="m236.16 254.57v7.8084"/><path d="m235.05 263.49v6.6929"/><path d="m232.82 262.38v6.6929"/><path d="m231.7 261.26v6.6929"/><path d="m229.47 260.15v6.6929"/><path d="m228.35 259.03v6.6929"/><path d="m246.2 270.18v6.6929"/><path d="m245.09 269.07v6.6929"/><path d="m242.85 267.95v6.6929"/><path d="m240.62 266.84v7.8084"/><path d="m248.43 271.3v6.6929"/><path d="m247.32 261.26v7.8084"/><path d="m245.09 260.15v7.8084"/><path d="m243.97 259.03v7.8084"/><path d="m241.74 257.91v7.8084"/><path d="m239.51 256.8v7.8084"/><path d="m240.62 255.68 7.8084 4.462v-6.6929l-7.8084-5.5774z"/></g><path d="m226.12 236.72v31.234l25.656 13.386 24.541-13.386v-31.234l-24.541-14.501z" stroke-width="2.231"/></g><path d="m324.29 236.72 25.656 14.501 24.541-14.501-24.541-14.501z" fill="#dee0e5" fill-rule="evenodd"/><path d="m324.29 236.72 25.656 14.501 24.541-14.501-24.541-14.501z" fill="none" stroke="#fff" stroke-linecap="round" stroke-linejoin="round" stroke-width="1.1155"/><path d="m349.94 281.34 24.541-13.386v-31.234l-24.541 14.501z" fill="#a3a8b0" fill-rule="evenodd"/><path d="m349.94 281.34 24.541-13.386v-31.234l-24.541 14.501z" fill="none" stroke="#fff" stroke-linecap="round" stroke-linejoin="round" stroke-width="1.1155"/><path d="m324.29 236.72v31.234l25.656 13.386v-30.118z" fill="#bdbfc6" fill-rule="evenodd"/><path d="m324.29 236.72v31.234l25.656 13.386v-30.118z" fill="none" stroke="#24282b" stroke-linecap="round" stroke-linejoin="round" stroke-width="1.1155"/><path d="m338.79 255.68 7.8084 4.462v-6.6929l-7.8084-5.5774z" fill="#959ca4" fill-rule="evenodd"/><g fill="none" stroke="#24282b" stroke-linecap="round" stroke-linejoin="round"><g stroke-width="1.1155"><path d="m333.21 244.53v7.8084"/><path d="m330.98 243.41v7.8084"/><path d="m329.86 242.3v7.8084"/><path d="m327.63 241.18v7.8084"/><path d="m325.4 240.07v7.8084"/><path d="m332.09 253.45v7.8084"/><path d="m330.98 252.34v7.8084"/><path d="m328.75 251.22v7.8084"/><path d="m326.52 250.11v7.8084"/><path d="m334.32 254.57v7.8084"/><path d="m333.21 263.49v6.6929"/><path d="m330.98 262.38v6.6929"/><path d="m329.86 261.26v6.6929"/><path d="m327.63 260.15v6.6929"/><path d="m325.4 259.03v6.6929"/><path d="m344.36 270.18v6.6929"/><path d="m342.13 269.07v6.6929"/><path d="m341.02 267.95v6.6929"/><path d="m338.79 266.84v7.8084"/><path d="m346.6 271.3v6.6929"/><path d="m345.48 261.26v7.8084"/><path d="m343.25 260.15v7.8084"/><path d="m342.13 259.03v7.8084"/><path d="m339.9 257.91v7.8084"/><path d="m337.67 256.8v7.8084"/><path d="m338.79 255.68 7.8084 4.462v-6.6929l-7.8084-5.5774z"/></g><path d="m324.29 236.72v31.234l25.656 13.386 24.541-13.386v-31.234l-24.541-14.501z" stroke-width="2.231"/></g><path d="m324.29 138.56 25.656 14.501 24.541-14.501-24.541-14.501z" fill="#ef2f72" fill-rule="evenodd"/><path d="m324.29 138.56 25.656 14.501 24.541-14.501-24.541-14.501z" fill="none" stroke="#fff" stroke-linecap="round" stroke-linejoin="round" stroke-width="1.1155"/><path d="m349.94 184.29 24.541-14.501v-31.234l-24.541 14.501z" fill="#ef2f72" fill-rule="evenodd"/><path d="m349.94 184.29 24.541-14.501v-31.234l-24.541 14.501z" fill="none" stroke="#fff" stroke-linecap="round" stroke-linejoin="round" stroke-width="1.1155"/><path d="m324.29 138.56v31.234l25.656 14.501v-31.234z" fill="#ef2f72" fill-rule="evenodd"/><path d="m324.29 138.56v31.234l25.656 14.501v-31.234z" fill="none" stroke="#24282b" stroke-linecap="round" stroke-linejoin="round" stroke-width="1.1155"/><path d="m338.79 157.52 7.8084 4.4619v-6.6929l-7.8084-5.5774z" fill="#ef2f72" fill-rule="evenodd"/><g fill="none" stroke="#24282b" stroke-linecap="round" stroke-linejoin="round"><g stroke-width="1.1155"><path d="m333.21 146.37v7.8084"/><path d="m330.98 145.25v7.8084"/><path d="m329.86 144.13v7.8084"/><path d="m327.63 143.02v7.8084"/><path d="m325.4 141.9v7.8084"/><path d="m332.09 155.29v7.8084"/><path d="m330.98 154.17v7.8084"/><path d="m328.75 153.06v7.8084"/><path d="m326.52 151.94v7.8084"/><path d="m334.32 156.4v7.8084"/><path d="m333.21 165.33v6.6929"/><path d="m330.98 164.21v6.6929"/><path d="m329.86 163.1v7.8084"/><path d="m327.63 161.98v7.8084"/><path d="m325.4 160.87v7.8084"/><path d="m344.36 172.02v7.8084"/><path d="m342.13 170.91v7.8084"/><path d="m341.02 169.79v7.8084"/><path d="m338.79 168.68v7.8084"/><path d="m346.6 173.14v7.8084"/><path d="m345.48 163.1v7.8084"/><path d="m343.25 161.98v7.8084"/><path d="m342.13 160.87v7.8084"/><path d="m339.9 159.75v7.8084"/><path d="m337.67 158.64v7.8084"/><path d="m338.79 157.52 7.8084 4.4619v-6.6929l-7.8084-5.5774z"/></g><path d="m324.29 138.56v31.234l25.656 14.501 24.541-14.501v-31.234l-24.541-14.501z" stroke-width="2.231"/></g><path d="m127.96 332.65 25.656 14.501 24.541-14.501-24.541-13.386z" fill="#60bff3" fill-rule="evenodd"/><path d="m127.96 332.65 25.656 14.501 24.541-14.501-24.541-13.386z" fill="none" stroke="#fff" stroke-linecap="round" stroke-linejoin="round" stroke-width="1.1155"/><path d="m153.62 378.39 24.541-14.501v-31.234l-24.541 14.501z" fill="#60bff3" fill-rule="evenodd"/><path d="m153.62 378.39 24.541-14.501v-31.234l-24.541 14.501z" fill="none" stroke="#fff" stroke-linecap="round" stroke-linejoin="round" stroke-width="1.1155"/><path d="m127.96 332.65v31.234l25.656 14.501v-31.234z" fill="#60bff3" fill-rule="evenodd"/><path d="m127.96 332.65v31.234l25.656 14.501v-31.234z" fill="none" stroke="#24282b" stroke-linecap="round" stroke-linejoin="round" stroke-width="1.1155"/><path d="m142.46 352.73 7.8084 4.4619v-7.8084l-7.8084-4.4619z" fill="#60bff3" fill-rule="evenodd"/><g stroke-linecap="round" stroke-linejoin="round"><g fill="none" stroke="#24282b"><g stroke-width="1.1155"><path d="m136.88 341.58v6.6929"/><path d="m135.77 340.46v6.6929"/><path d="m133.54 339.34v6.6929"/><path d="m131.31 338.23v7.8084"/><path d="m130.19 337.11v7.8084"/><path d="m135.77 350.5v7.8084"/><path d="m134.65 349.38v7.8084"/><path d="m132.42 348.27v7.8084"/><path d="m131.31 347.15v7.8084"/><path d="m138 351.61v7.8084"/><path d="m136.88 359.42v7.8084"/><path d="m135.77 359.42v6.6929"/><path d="m133.54 358.31v6.6929"/><path d="m131.31 357.19v6.6929"/><path d="m130.19 356.08v6.6929"/><path d="m148.04 367.23v6.6929"/><path d="m146.92 366.12v6.6929"/><path d="m144.69 365v6.6929"/><path d="m142.46 363.89v6.6929"/><path d="m150.27 368.35v6.6929"/><path d="m149.15 358.31v7.8084"/><path d="m146.92 357.19v7.8084"/><path d="m145.81 356.08v7.8084"/><path d="m143.58 354.96v7.8084"/><path d="m142.46 353.85v7.8084"/><path d="m142.46 352.73 7.8084 4.4619v-7.8084l-7.8084-4.4619z"/></g><path d="m127.96 332.65v31.234l25.656 14.501 24.541-14.501v-31.234l-24.541-13.386z" stroke-width="2.231"/></g><g stroke-width="1.1155"><g stroke="#0089e1"><path d="m153.62 196.56c83.661 0 151.71 68.045 151.71 151.71 0 84.777-68.045 152.82-151.71 152.82-83.661 0-151.71-68.045-151.71-152.82 0-83.661 68.045-151.71 151.71-151.71z" fill="#60bff3" fill-opacity=".2" stroke-opacity=".8"/><g fill="none"><path d="m153.62 248.99c54.659 0 99.278 44.619 99.278 99.278 0 55.774-44.619 100.39-99.278 100.39-55.774 0-99.278-44.619-99.278-100.39 0-54.659 43.504-99.278 99.278-99.278z" stroke-opacity=".6"/><path d="m153.62 298.07c27.887 0 50.197 23.425 50.197 50.197 0 27.887-22.31 51.312-50.197 51.312s-50.197-23.425-50.197-51.312c0-26.772 22.31-50.197 50.197-50.197z" stroke-opacity=".8"/></g></g><g stroke="#ef2f72" stroke-opacity=".6"><path d="m349.38 1.9101c83.661 0 151.71 68.045 151.71 151.71 0 84.777-68.045 152.82-151.71 152.82s-151.71-68.045-151.71-152.82c0-83.661 68.045-151.71 151.71-151.71z" fill="#ef2f72" fill-opacity=".2"/><g fill="none"><path d="m349.38 54.338c54.659 0 99.278 44.619 99.278 99.278 0 55.774-44.619 100.39-99.278 100.39-55.774 0-99.278-44.619-99.278-100.39 0-54.659 43.504-99.278 99.278-99.278z"/><path d="m349.38 103.42c27.887 0 50.197 23.425 50.197 50.197 0 27.887-22.31 51.312-50.197 51.312s-50.197-23.425-50.197-51.312c0-26.772 22.31-50.197 50.197-50.197z"/></g></g></g></g></svg>