<svg height="126.21pt" viewBox="0 0 201.53 126.21" width="201.53pt" xmlns="http://www.w3.org/2000/svg" xmlns:xlink="http://www.w3.org/1999/xlink"><symbol id="a" overflow="visible"><path d="m1.484375-2.234375c0-.125.015625-.125.109375-.234375.265625-.265625.625-.3125.765625-.3125.46875 0 .84375.421875.84375 1.265625 0 .953125-.484375 1.3125-.921875 1.3125-.09375 0-.40625 0-.71875-.359375-.078125-.09375-.078125-.109375-.078125-.234375zm0 1.96875c.296875.234375.59375.3125.875.3125 1.015625 0 1.703125-.609375 1.703125-1.5625 0-.90625-.609375-1.53125-1.59375-1.53125-.5 0-.859375.203125-1.015625.328125v-.328125l-1.203125.046875v.328125c.421875 0 .46875 0 .46875.25v3.421875h-.46875v.3125c.1875 0 .59375-.015625.859375-.015625s.65625.015625.84375.015625v-.3125h-.46875zm0 0"/></symbol><symbol id="b" overflow="visible"><path d="m1.375-2.28125v-.765625l-1.125.046875v.328125c.421875 0 .46875 0 .46875.25v2.109375h-.46875v.3125c.234375 0 .546875-.015625.859375-.015625.25 0 .6875 0 .9375.015625v-.3125h-.59375v-1.1875c0-.484375.171875-1.3125.84375-1.3125 0 .015625-.125.125-.125.3125 0 .28125.21875.421875.40625.421875.203125 0 .421875-.140625.421875-.421875 0-.359375-.375-.546875-.71875-.546875-.484375 0-.75.328125-.90625.765625zm0 0"/></symbol><symbol id="c" overflow="visible"><path d="m3.671875-1.484375c0-.90625-.625-1.59375-1.71875-1.59375-1.125 0-1.734375.703125-1.734375 1.59375 0 .84375.59375 1.53125 1.734375 1.53125 1.125 0 1.71875-.6875 1.71875-1.53125zm-1.71875 1.25c-.875 0-.875-.734375-.875-1.3125 0-.3125 0-.65625.125-.890625.125-.25.40625-.390625.75-.390625.28125 0 .5625.109375.71875.34375.140625.234375.140625.609375.140625.9375 0 .578125 0 1.3125-.859375 1.3125zm0 0"/></symbol><symbol id="d" overflow="visible"><path d="m2.4375-2.765625c-.125.109375-.125.25-.125.3125 0 .296875.234375.4375.40625.4375.21875 0 .4375-.140625.4375-.4375 0-.578125-.796875-.625-1.1875-.625-1.203125 0-1.71875.78125-1.71875 1.578125 0 .890625.640625 1.546875 1.6875 1.546875 1.09375 0 1.296875-.796875 1.296875-.84375 0-.09375-.09375-.09375-.15625-.09375-.125 0-.125.015625-.15625.109375-.1875.421875-.5.546875-.859375.546875-.9375 0-.9375-1-.9375-1.3125 0-.375 0-1.25.875-1.25.234375 0 .359375.015625.4375.03125zm0 0"/></symbol><symbol id="e" overflow="visible"><path d="m3.140625-1.484375c.140625 0 .203125 0 .203125-.171875 0-.21875-.03125-.703125-.375-1.046875-.25-.25-.609375-.375-1.078125-.375-1.078125 0-1.671875.703125-1.671875 1.546875 0 .921875.671875 1.578125 1.765625 1.578125 1.078125 0 1.359375-.71875 1.359375-.84375s-.125-.125-.15625-.125c-.109375 0-.125.046875-.171875.15625-.140625.3125-.53125.53125-.96875.53125-.953125 0-.96875-.890625-.96875-1.25zm-2.0625-.21875c.015625-.265625.03125-.546875.171875-.765625.171875-.28125.453125-.359375.640625-.359375.796875 0 .8125.890625.8125 1.125zm0 0"/></symbol><symbol id="f" overflow="visible"><path d="m2.828125-.296875v.34375l1.25-.046875v-.3125c-.421875 0-.46875 0-.46875-.265625v-4.125l-1.203125.046875v.328125c.421875 0 .46875 0 .46875.265625v1.3125c-.34375-.265625-.6875-.296875-.921875-.296875-.984375 0-1.703125.59375-1.703125 1.546875 0 .890625.625 1.546875 1.640625 1.546875.40625 0 .734375-.171875.9375-.34375zm0-2.09375v1.6875c-.078125.125-.359375.5-.875.5-.828125 0-.828125-.828125-.828125-1.296875 0-.328125 0-.6875.171875-.953125.203125-.28125.515625-.359375.734375-.359375.390625 0 .65625.21875.796875.421875zm0 0"/></symbol><symbol id="g" overflow="visible"><path d="m2.96875-.484375v.53125l1.203125-.046875v-.3125c-.421875 0-.46875 0-.46875-.265625v-2.46875l-1.234375.046875v.328125c.40625 0 .453125 0 .453125.25v1.296875c0 .5625-.34375.921875-.828125.921875-.53125 0-.546875-.171875-.546875-.53125v-2.3125l-1.234375.046875v.328125c.40625 0 .453125 0 .453125.25v1.59375c0 .71875.5625.875 1.234375.875.171875 0 .65625 0 .96875-.53125zm0 0"/></symbol><symbol id="h" overflow="visible"><path d="m.796875-3.015625h-.515625v.328125h.515625v2.375h-.46875v.3125c.234375 0 .546875-.015625.859375-.015625.25 0 .6875 0 .921875.015625v-.3125h-.578125v-2.375h.78125v-.328125h-.828125v-.6875c0-.734375.515625-.796875.6875-.796875.03125 0 .0625 0 .109375.015625-.09375.0625-.15625.203125-.15625.328125 0 .296875.234375.421875.421875.421875.203125 0 .421875-.140625.421875-.421875s-.25-.59375-.78125-.59375c-.65625 0-1.390625.28125-1.390625 1.046875zm0 0"/></symbol><symbol id="i" overflow="visible"><path d="m2.5625-4.7031h-.60938l-1.7656 4.7031h.5l.53125-1.3906h1.9688l.51562 1.3906h.625zm.46875 2.9375h-1.6719l.4375-1.2188c.14062-.40625.35938-.98438.40625-1.2344.015625.09375.0625.26562.21875.71875z"/></symbol><symbol id="j" overflow="visible"><path d="m3.15625-4.515625c-.375-.21875-.75-.34375-1.25-.34375-.9375 0-1.53125.671875-1.53125 1.34375 0 .28125.09375.578125.375.859375.28125.296875.578125.390625.984375.484375.578125.140625.640625.15625.828125.328125.140625.109375.28125.34375.28125.625 0 .453125-.375.90625-.984375.90625-.28125 0-.890625-.078125-1.453125-.5625l-.109375.5625c.59375.359375 1.140625.46875 1.5625.46875.90625 0 1.53125-.6875 1.53125-1.4375 0-.4375-.21875-.765625-.359375-.921875-.328125-.34375-.546875-.40625-1.171875-.5625-.390625-.09375-.5-.125-.703125-.296875-.046875-.046875-.234375-.234375-.234375-.53125 0-.40625.359375-.8125.984375-.8125.5625 0 .890625.21875 1.140625.4375zm0 0"/></symbol><symbol id="k" overflow="visible"><path d="m4.0625-2.0312h-1.4219v.42188h.89062v1.1094c-.26562.09375-.59375.14062-.89062.14062-.89062 0-1.5781-.90625-1.5781-2 0-1.0625.67188-1.9844 1.5625-1.9844.5625 0 .9375.15625 1.2812.4375l.09375-.54688c-.375-.23438-.90625-.32812-1.3438-.32812-1.3125 0-2.2031 1.1875-2.2031 2.4219s.89062 2.4375 2.2031 2.4375c.5 0 .95312-.14062 1.4062-.32812z"/></symbol><symbol id="l" overflow="visible"><path d="m2.25 1.625c0-.015625 0-.03125-.125-.140625-.84375-.859375-1.0625-2.140625-1.0625-3.1875 0-1.171875.265625-2.359375 1.09375-3.203125.09375-.078125.09375-.09375.09375-.109375 0-.046875-.03125-.078125-.078125-.078125-.0625 0-.671875.46875-1.078125 1.328125-.34375.75-.421875 1.5-.421875 2.0625 0 .53125.078125 1.359375.453125 2.125.40625.828125.984375 1.28125 1.046875 1.28125.046875 0 .078125-.03125.078125-.078125zm0 0"/></symbol><symbol id="m" overflow="visible"><path d="m1.296875-2.5625c0-.203125-.15625-.359375-.359375-.359375-.1875 0-.359375.15625-.359375.359375s.171875.359375.359375.359375c.203125 0 .359375-.15625.359375-.359375zm0 2.203125c0-.203125-.15625-.359375-.359375-.359375-.1875 0-.359375.15625-.359375.359375s.171875.359375.359375.359375c.203125 0 .359375-.15625.359375-.359375zm0 0"/></symbol><symbol id="n" overflow="visible"><path d="m1.953125-1.703125c0-.515625-.0625-1.34375-.4375-2.109375-.40625-.828125-1-1.28125-1.0625-1.28125-.046875 0-.0625.03125-.0625.078125 0 .015625 0 .03125.125.15625.671875.671875 1.046875 1.75 1.046875 3.15625 0 1.171875-.25 2.359375-1.09375 3.21875-.078125.078125-.078125.09375-.078125.109375 0 .046875.015625.078125.0625.078125.0625 0 .671875-.46875 1.078125-1.328125.34375-.75.421875-1.5.421875-2.078125zm0 0"/></symbol><symbol id="o" overflow="visible"><path d="m3.125-2.171875c0-.546875-.046875-1.078125-.28125-1.578125-.3125-.65625-.859375-.765625-1.140625-.765625-.421875 0-.90625.171875-1.1875.8125-.21875.46875-.25.984375-.25 1.53125 0 .515625.03125 1.125.296875 1.640625.296875.546875.796875.6875 1.125.6875.375 0 .875-.15625 1.1875-.796875.203125-.46875.25-1 .25-1.53125zm-1.4375 2.171875c-.265625 0-.65625-.171875-.78125-.828125-.078125-.40625-.078125-1.015625-.078125-1.421875 0-.4375 0-.890625.046875-1.25.140625-.8125.640625-.859375.8125-.859375.21875 0 .671875.109375.796875.78125.078125.390625.078125.90625.078125 1.328125 0 .5 0 .96875-.078125 1.40625-.109375.640625-.484375.84375-.796875.84375zm0 0"/></symbol><symbol id="p" overflow="visible"><path d="m1.296875-2.5625c0-.203125-.15625-.359375-.359375-.359375-.1875 0-.359375.15625-.359375.359375s.171875.359375.359375.359375c.203125 0 .359375-.15625.359375-.359375zm-.125 2.484375c0 .1875 0 .71875-.4375 1.21875-.046875.0625-.046875.078125-.046875.09375 0 .046875.03125.078125.078125.078125.0625 0 .5625-.546875.5625-1.328125 0-.203125-.015625-.703125-.390625-.703125-.234375 0-.359375.1875-.359375.359375s.125.359375.359375.359375h.0625c.046875-.015625.125-.03125.171875-.078125zm0 0"/></symbol><symbol id="q" overflow="visible"><path d="m1.125-2.25v-.75l-.9375.078125v.203125c.484375 0 .53125.046875.53125.390625v1.8125c0 .3125-.078125.3125-.53125.3125v.203125c.265625 0 .578125-.015625.78125-.015625.265625 0 .578125 0 .859375.015625v-.203125h-.140625c-.5 0-.515625-.078125-.515625-.328125v-1.046875c0-.671875.28125-1.265625.796875-1.265625h.078125c-.03125.015625-.15625.09375-.15625.265625 0 .1875.140625.296875.28125.296875.125 0 .296875-.078125.296875-.296875s-.203125-.421875-.5-.421875c-.5 0-.734375.453125-.84375.75zm0 0"/></symbol><symbol id="r" overflow="visible"><path d="m2.265625-.515625c.015625.265625.203125.5625.515625.5625.140625 0 .5625-.09375.5625-.65625v-.375h-.171875v.375c0 .40625-.171875.4375-.25.4375-.21875 0-.25-.296875-.25-.34375v-1.34375c0-.296875 0-.5625-.234375-.8125-.265625-.25-.609375-.359375-.9375-.359375-.546875 0-1.015625.3125-1.015625.765625 0 .203125.125.3125.3125.3125s.3125-.140625.3125-.3125c0-.078125-.03125-.296875-.34375-.3125.171875-.234375.515625-.3125.71875-.3125.34375 0 .71875.265625.71875.875v.25c-.34375.015625-.8125.03125-1.234375.234375-.515625.234375-.6875.59375-.6875.890625 0 .546875.65625.71875 1.09375.71875s.75-.28125.890625-.59375zm-.0625-1.109375v.671875c0 .640625-.484375.875-.78125.875-.34375 0-.609375-.234375-.609375-.578125 0-.375.28125-.9375 1.390625-.96875zm0 0"/></symbol><symbol id="s" overflow="visible"><path d="m.75-2.328125v1.8125c0 .3125-.078125.3125-.53125.3125v.203125c.234375 0 .578125-.015625.765625-.015625.171875 0 .53125.015625.765625.015625v-.203125c-.46875 0-.53125 0-.53125-.3125v-1.25c0-.703125.484375-1.078125.90625-1.078125.4375 0 .5.359375.5.75v1.578125c0 .3125-.0625.3125-.515625.3125v.203125c.234375 0 .578125-.015625.765625-.015625.171875 0 .515625.015625.75.015625v-.203125c-.34375 0-.515625 0-.53125-.203125v-1.296875c0-.59375 0-.796875-.203125-1.046875-.09375-.109375-.328125-.25-.71875-.25-.484375 0-.8125.296875-1 .71875v-.71875l-.953125.078125v.203125c.46875 0 .53125.046875.53125.390625zm0 0"/></symbol><symbol id="t" overflow="visible"><path d="m2.578125-.375v.453125l1-.078125v-.203125c-.484375 0-.53125-.046875-.53125-.390625v-4.109375l-.984375.078125v.203125c.484375 0 .53125.046875.53125.375v1.46875c-.1875-.25-.484375-.421875-.84375-.421875-.8125 0-1.515625.671875-1.515625 1.546875 0 .859375.65625 1.53125 1.4375 1.53125.4375 0 .734375-.234375.90625-.453125zm0-1.8125v1.390625c0 .125 0 .125-.078125.25-.203125.328125-.5.46875-.796875.46875-.3125 0-.546875-.171875-.71875-.4375s-.1875-.65625-.1875-.9375c0-.25.015625-.65625.203125-.96875.140625-.203125.40625-.421875.765625-.421875.234375 0 .53125.09375.734375.40625.078125.109375.078125.125.078125.25zm0 0"/></symbol><symbol id="u" overflow="visible"><path d="m3.1875-1.453125c0-.859375-.671875-1.578125-1.484375-1.578125-.859375 0-1.515625.734375-1.515625 1.578125 0 .875.703125 1.53125 1.5 1.53125.828125 0 1.5-.671875 1.5-1.53125zm-1.484375 1.359375c-.296875 0-.59375-.140625-.78125-.453125-.171875-.296875-.171875-.71875-.171875-.953125 0-.265625 0-.640625.171875-.9375.171875-.3125.5-.453125.765625-.453125.296875 0 .59375.15625.765625.4375.171875.296875.171875.6875.171875.953125 0 .234375 0 .609375-.140625.90625-.15625.296875-.453125.5-.78125.5zm0 0"/></symbol><symbol id="v" overflow="visible"><path d="m.75-2.328125v1.8125c0 .3125-.078125.3125-.53125.3125v.203125c.234375 0 .578125-.015625.765625-.015625.171875 0 .53125.015625.765625.015625v-.203125c-.46875 0-.53125 0-.53125-.3125v-1.25c0-.703125.484375-1.078125.90625-1.078125.4375 0 .5.359375.5.75v1.578125c0 .3125-.0625.3125-.515625.3125v.203125c.234375 0 .578125-.015625.765625-.015625.171875 0 .515625.015625.75.015625v-.203125c-.453125 0-.53125 0-.53125-.3125v-1.25c0-.703125.484375-1.078125.921875-1.078125.421875 0 .5.359375.5.75v1.578125c0 .3125-.078125.3125-.53125.3125v.203125c.234375 0 .59375-.015625.765625-.015625.1875 0 .53125.015625.765625.015625v-.203125c-.359375 0-.53125 0-.53125-.203125v-1.296875c0-.59375 0-.796875-.203125-1.046875-.109375-.109375-.328125-.25-.71875-.25-.5625 0-.875.40625-.984375.671875-.09375-.59375-.59375-.671875-.90625-.671875-.484375 0-.8125.296875-1 .71875v-.71875l-.953125.078125v.203125c.46875 0 .53125.046875.53125.390625zm0 0"/></symbol><symbol id="w" overflow="visible"><path d="m1.203125-4.703125-.984375.078125v.203125c.484375 0 .53125.046875.53125.375v3.53125c0 .3125-.078125.3125-.53125.3125v.203125c.234375 0 .59375-.015625.75-.015625.171875 0 .515625.015625.765625.015625v-.203125c-.453125 0-.53125 0-.53125-.3125zm0 0"/></symbol><symbol id="x" overflow="visible"><path d="m2.8125-2.28125c.171875-.421875.53125-.4375.625-.4375v-.203125c-.15625.015625-.34375.015625-.5.015625-.125 0-.4375-.015625-.59375-.015625v.203125c.21875.015625.328125.125.328125.296875 0 .0625-.015625.078125-.046875.15625l-.6875 1.671875-.75-1.828125c-.03125-.0625-.046875-.09375-.046875-.109375 0-.1875.25-.1875.390625-.1875v-.203125c-.1875 0-.625.015625-.75.015625-.171875 0-.453125 0-.65625-.015625v.203125c.328125 0 .453125 0 .546875.25l1.03125 2.46875c-.046875.09375-.140625.3125-.171875.40625-.15625.359375-.34375.828125-.78125.828125-.03125 0-.1875 0-.3125-.109375.203125-.03125.265625-.1875.265625-.296875 0-.171875-.140625-.28125-.296875-.28125-.125 0-.28125.09375-.28125.296875 0 .296875.28125.546875.625.546875.4375 0 .703125-.390625.875-.78125zm0 0"/></symbol><symbol id="y" overflow="visible"><path d="m1.40625-1.3125c.15625.03125.703125.125.703125.625 0 .34375-.234375.609375-.765625.609375-.5625 0-.8125-.390625-.9375-.953125-.015625-.09375-.03125-.125-.09375-.125-.09375 0-.09375.046875-.09375.171875v.890625c0 .125 0 .171875.078125.171875.03125 0 .046875-.015625.171875-.140625.015625-.015625.015625-.03125.140625-.15625.296875.28125.59375.296875.734375.296875.78125 0 1.09375-.453125 1.09375-.953125 0-.359375-.203125-.5625-.28125-.640625-.21875-.21875-.484375-.265625-.765625-.328125-.390625-.0625-.84375-.15625-.84375-.546875 0-.234375.171875-.515625.765625-.515625.75 0 .78125.609375.796875.8125 0 .0625.0625.0625.078125.0625.078125 0 .078125-.03125.078125-.15625v-.6875c0-.109375 0-.15625-.0625-.15625-.046875 0-.046875 0-.140625.078125-.015625.03125-.09375.078125-.109375.109375-.265625-.1875-.546875-.1875-.640625-.1875-.828125 0-1.09375.453125-1.09375.828125 0 .234375.109375.421875.296875.578125.21875.171875.40625.21875.890625.3125zm0 0"/></symbol><symbol id="z" overflow="visible"><path d="m1.171875-2.546875v-.453125l-.984375.078125v.203125c.484375 0 .53125.046875.53125.34375v3.171875c0 .3125-.078125.3125-.53125.3125v.203125c.234375 0 .578125-.015625.765625-.015625.171875 0 .53125.015625.765625.015625v-.203125c-.453125 0-.53125 0-.53125-.3125v-1.203125c.03125.109375.3125.484375.828125.484375.8125 0 1.515625-.671875 1.515625-1.546875 0-.859375-.65625-1.53125-1.421875-1.53125-.515625 0-.8125.296875-.9375.453125zm.015625 1.78125v-1.515625c.203125-.34375.53125-.546875.875-.546875.5 0 .90625.59375.90625 1.359375 0 .828125-.46875 1.390625-.96875 1.390625-.28125 0-.53125-.125-.71875-.40625-.09375-.140625-.09375-.15625-.09375-.28125zm0 0"/></symbol><symbol id="A" overflow="visible"><path d="m.765625-1.703125c.03125-1.015625.609375-1.1875.828125-1.1875.703125 0 .765625.921875.765625 1.1875zm-.015625.140625h1.890625c.15625 0 .171875 0 .171875-.140625 0-.671875-.359375-1.328125-1.21875-1.328125-.78125 0-1.40625.6875-1.40625 1.546875 0 .90625.71875 1.5625 1.5 1.5625.828125 0 1.125-.75 1.125-.890625 0-.0625-.046875-.078125-.09375-.078125s-.0625.046875-.078125.09375c-.234375.703125-.84375.703125-.921875.703125-.328125 0-.609375-.203125-.765625-.453125-.203125-.328125-.203125-.78125-.203125-1.015625zm0 0"/></symbol><symbol id="B" overflow="visible"><path d="m1.1875-2.921875v-.78125c0-.609375.328125-.921875.625-.921875.015625 0 .125 0 .21875.046875-.078125.015625-.203125.109375-.203125.28125 0 .15625.109375.296875.296875.296875s.296875-.140625.296875-.3125c0-.25-.25-.46875-.609375-.46875-.484375 0-1.046875.359375-1.046875 1.078125v.78125h-.546875v.203125h.546875v2.203125c0 .3125-.078125.3125-.53125.3125v.203125c.265625 0 .578125-.015625.765625-.015625.28125 0 .59375 0 .859375.015625v-.203125h-.140625c-.5 0-.515625-.078125-.515625-.328125v-2.1875h.78125v-.203125zm0 0"/></symbol><symbol id="C" overflow="visible"><path d="m2.65625-.53125v.609375l.96875-.078125v-.203125c-.46875 0-.53125-.046875-.53125-.390625v-2.40625l-.984375.078125v.203125c.46875 0 .515625.046875.515625.390625v1.203125c0 .59375-.3125 1.046875-.8125 1.046875-.578125 0-.59375-.3125-.59375-.671875v-2.25l-1 .078125v.203125c.53125 0 .53125.03125.53125.625v1.015625c0 .53125 0 1.15625 1.03125 1.15625.375 0 .671875-.1875.875-.609375zm0 0"/></symbol><symbol id="D" overflow="visible"><path d="m1.171875-2.71875h.96875v-.203125h-.96875v-1.25h-.171875c0 .5625-.203125 1.28125-.875 1.3125v.140625h.578125v1.875c0 .84375.625.921875.875.921875.484375 0 .671875-.484375.671875-.921875v-.390625h-.171875v.375c0 .5-.203125.765625-.453125.765625-.453125 0-.453125-.625-.453125-.734375zm0 0"/></symbol><symbol id="E" overflow="visible"><path d="m1.203125-3-.953125.078125v.203125c.4375 0 .5.046875.5.375v1.828125c0 .3125-.078125.3125-.53125.3125v.203125c.21875 0 .59375-.015625.75-.015625.234375 0 .46875.015625.703125.015625v-.203125c-.4375 0-.46875-.046875-.46875-.3125zm.03125-1.171875c0-.21875-.171875-.359375-.359375-.359375-.21875 0-.359375.171875-.359375.359375 0 .171875.140625.359375.359375.359375.1875 0 .359375-.140625.359375-.359375zm0 0"/></symbol><symbol id="F" overflow="visible"><path d="m1.7344 1.7031v-.28125h-.65625v-6.2344h.65625v-.28125h-.9375v6.7969z"/></symbol><symbol id="G" overflow="visible"><path d="m1.0781-5.0938h-.92188v.28125h.65625v6.2344h-.65625v.28125h.92188z"/></symbol><symbol id="H" overflow="visible"><path d="m2-4.34375c0-.15625 0-.171875-.15625-.171875-.421875.4375-1.015625.4375-1.234375.4375v.203125c.125 0 .53125 0 .875-.171875v3.515625c0 .234375-.015625.328125-.625.328125h-.21875v.203125c.234375-.015625.828125-.015625 1.109375-.015625.265625 0 .859375 0 1.09375.015625v-.203125h-.21875c-.609375 0-.625-.078125-.625-.328125zm0 0"/></symbol><symbol id="I" overflow="visible"><path d="m1.375 0c0-.4375-.15625-.71875-.4375-.71875-.234375 0-.359375.1875-.359375.359375s.125.359375.359375.359375c.109375 0 .1875-.046875.265625-.09375l.015625-.015625s.015625 0 .015625.109375c0 .421875-.203125.84375-.5 1.15625-.03125.046875-.046875.046875-.046875.078125 0 .046875.03125.078125.078125.078125.078125 0 .609375-.546875.609375-1.3125zm0 0"/></symbol><symbol id="J" overflow="visible"><path d="m1.84375-3.03125c0-.171875-.109375-.359375-.359375-.359375-.140625 0-.234375.0625-.265625.109375-.015625.015625-.015625.015625-.03125.015625 0 0 0-.09375 0-.125 0-.203125.046875-.703125.46875-1.125.078125-.078125.078125-.09375.078125-.109375 0-.046875-.03125-.078125-.0625-.078125-.078125 0-.640625.515625-.640625 1.3125 0 .40625.15625.71875.453125.71875.234375 0 .359375-.1875.359375-.359375zm1.3125 0c0-.171875-.109375-.359375-.359375-.359375-.125 0-.234375.0625-.265625.109375-.015625.015625-.015625.015625-.015625.015625-.015625 0-.015625-.09375-.015625-.125 0-.203125.046875-.703125.46875-1.125.078125-.078125.078125-.09375.078125-.109375 0-.046875-.03125-.078125-.0625-.078125-.078125 0-.640625.515625-.640625 1.3125 0 .40625.171875.71875.453125.71875.234375 0 .359375-.1875.359375-.359375zm0 0"/></symbol><symbol id="K" overflow="visible"><path d="m1.5-1.171875c-.578125 0-.578125-.671875-.578125-.828125 0-.1875 0-.40625.109375-.5625.046875-.09375.203125-.28125.46875-.28125.59375 0 .59375.6875.59375.84375 0 .171875 0 .390625-.109375.5625-.046875.078125-.203125.265625-.484375.265625zm-.78125.265625c0-.015625 0-.171875.109375-.3125.265625.1875.546875.203125.671875.203125.640625 0 1.109375-.46875 1.109375-.984375 0-.25-.109375-.5-.28125-.65625.234375-.234375.484375-.265625.609375-.265625h.0625c-.078125.03125-.109375.109375-.109375.1875 0 .109375.09375.203125.203125.203125.0625 0 .1875-.046875.1875-.203125 0-.125-.078125-.34375-.34375-.34375-.125 0-.421875.046875-.71875.328125-.28125-.234375-.5625-.25-.71875-.25-.625 0-1.09375.46875-1.09375 1 0 .296875.15625.546875.3125.6875-.078125.109375-.203125.328125-.203125.5625 0 .21875.09375.46875.296875.609375-.40625.109375-.625.40625-.625.671875 0 .5.671875.859375 1.5.859375.796875 0 1.5-.34375 1.5-.875 0-.234375-.09375-.578125-.4375-.765625-.359375-.1875-.75-.1875-1.15625-.1875-.171875 0-.46875 0-.515625-.015625-.21875-.015625-.359375-.234375-.359375-.453125zm.984375 2.140625c-.6875 0-1.15625-.34375-1.15625-.703125 0-.3125.25-.5625.546875-.578125h.40625c.578125 0 1.34375 0 1.34375.578125 0 .375-.484375.703125-1.140625.703125zm0 0"/></symbol><symbol id="L" overflow="visible"><path d="m1.03125-4c0-.40625-.15625-.703125-.453125-.703125-.234375 0-.359375.1875-.359375.359375s.125.359375.359375.359375c.140625 0 .234375-.078125.28125-.109375 0-.015625.015625-.015625.015625-.015625.015625 0 .015625.09375.015625.109375 0 .21875-.046875.71875-.484375 1.125-.078125.09375-.078125.09375-.078125.125 0 .046875.03125.078125.078125.078125.0625 0 .625-.515625.625-1.328125zm1.328125 0c0-.40625-.171875-.703125-.453125-.703125-.25 0-.359375.1875-.359375.359375s.109375.359375.359375.359375c.125 0 .21875-.078125.265625-.109375 0-.015625.015625-.015625.015625-.015625.015625 0 .015625.09375.015625.109375 0 .21875-.046875.71875-.46875 1.125-.09375.09375-.09375.09375-.09375.125 0 .046875.046875.078125.078125.078125.078125 0 .640625-.515625.640625-1.328125zm0 0"/></symbol><symbol id="M" overflow="visible"><path d="m4.203125-2.28125c.109375-.34375.328125-.421875.5625-.4375v-.203125c-.140625.015625-.34375.015625-.5.015625-.1875 0-.5-.015625-.625-.015625v.203125c.25.015625.390625.140625.390625.328125 0 .046875 0 .0625-.03125.140625l-.609375 1.734375-.671875-1.890625c-.03125-.078125-.046875-.09375-.046875-.125 0-.1875.265625-.1875.40625-.1875v-.203125c-.203125 0-.546875.015625-.703125.015625-.203125 0-.40625 0-.609375-.015625v.203125c.25 0 .359375.015625.4375.109375.03125.046875.109375.25.15625.375l-.59375 1.640625-.640625-1.8125c-.03125-.078125-.03125-.09375-.03125-.125 0-.1875.265625-.1875.390625-.1875v-.203125c-.203125 0-.578125.015625-.734375.015625-.03125 0-.390625 0-.625-.015625v.203125c.34375 0 .421875.03125.5.25l.859375 2.390625c.03125.09375.046875.15625.140625.15625.078125 0 .09375-.046875.125-.140625l.6875-1.921875.703125 1.9375c.015625.0625.046875.125.125.125.09375 0 .109375-.0625.140625-.125zm0 0"/></symbol><symbol id="N" overflow="visible"><path d="m1.296875-.359375c0-.203125-.15625-.359375-.359375-.359375-.1875 0-.359375.15625-.359375.359375s.171875.359375.359375.359375c.203125 0 .359375-.15625.359375-.359375zm0 0"/></symbol><symbol id="O" overflow="visible"><path d="m2.828125-2.265625c.046875-.15625.171875-.4375.609375-.453125v-.203125c-.15625.015625-.34375.015625-.5.015625s-.46875-.015625-.59375-.015625v.203125c.25.015625.328125.171875.328125.296875 0 .0625-.015625.09375-.046875.15625l-.6875 1.734375-.75-1.890625c-.046875-.09375-.046875-.09375-.046875-.109375 0-.1875.265625-.1875.390625-.1875v-.203125c-.203125 0-.59375.015625-.75.015625-.171875 0-.453125 0-.65625-.015625v.203125c.4375 0 .453125.046875.546875.25l.96875 2.421875c.046875.09375.0625.125.15625.125.078125 0 .109375-.0625.140625-.125zm0 0"/></symbol><symbol id="P" overflow="visible"><path d="m2.484375-2.71875h.59375c.125 0 .203125 0 .203125-.125 0-.078125-.078125-.078125-.1875-.078125h-.5625l.140625-.78125c.03125-.140625.125-.609375.15625-.703125.0625-.125.1875-.21875.328125-.21875.03125 0 .203125 0 .328125.109375-.296875.03125-.359375.265625-.359375.375 0 .15625.109375.234375.25.234375.171875 0 .375-.15625.375-.40625 0-.3125-.3125-.46875-.59375-.46875-.234375 0-.65625.125-.859375.796875-.046875.140625-.0625.203125-.234375 1.0625h-.46875c-.125 0-.203125 0-.203125.125 0 .078125.0625.078125.203125.078125h.4375l-.5 2.6875c-.125.65625-.25 1.265625-.59375 1.265625-.03125 0-.203125 0-.328125-.109375.3125-.03125.375-.265625.375-.375 0-.15625-.125-.234375-.25-.234375-.171875 0-.375.15625-.375.40625 0 .3125.296875.46875.578125.46875.375 0 .640625-.40625.765625-.65625.21875-.421875.375-1.25.375-1.296875zm0 0"/></symbol><symbol id="Q" overflow="visible"><path d="m2.265625-2.046875c.046875-.171875.203125-.796875.671875-.796875.03125 0 .203125 0 .34375.078125-.203125.046875-.328125.203125-.328125.375 0 .109375.078125.234375.25.234375.15625 0 .375-.125.375-.390625 0-.359375-.40625-.453125-.640625-.453125-.390625 0-.625.359375-.703125.515625-.171875-.4375-.53125-.515625-.734375-.515625-.703125 0-1.09375.875-1.09375 1.046875 0 .0625.0625.0625.078125.0625.0625 0 .078125-.015625.09375-.0625.234375-.71875.671875-.890625.90625-.890625.125 0 .359375.0625.359375.453125 0 .203125-.109375.65625-.359375 1.609375-.109375.421875-.34375.703125-.640625.703125-.046875 0-.203125 0-.34375-.078125.171875-.046875.328125-.1875.328125-.375s-.15625-.234375-.265625-.234375c-.203125 0-.359375.171875-.359375.390625 0 .3125.328125.453125.625.453125.453125 0 .703125-.484375.71875-.515625.078125.25.328125.515625.734375.515625.703125 0 1.078125-.875 1.078125-1.046875 0-.0625-.0625-.0625-.078125-.0625-.0625 0-.078125.015625-.09375.0625-.21875.734375-.671875.890625-.890625.890625-.265625 0-.375-.21875-.375-.4375 0-.15625.03125-.3125.109375-.609375zm0 0"/></symbol><symbol id="R" overflow="visible"><path d="m3.296875-2.578125c.03125-.09375.03125-.109375.03125-.15625 0-.125-.09375-.1875-.203125-.1875-.0625 0-.171875.046875-.234375.140625-.015625.03125-.0625.25-.09375.359375-.046875.1875-.09375.359375-.140625.546875l-.296875 1.21875c-.03125.109375-.328125.578125-.765625.578125-.359375 0-.421875-.296875-.421875-.546875 0-.3125.109375-.734375.34375-1.328125.109375-.28125.125-.359375.125-.484375 0-.3125-.203125-.5625-.546875-.5625-.640625 0-.890625.984375-.890625 1.046875s.0625.0625.078125.0625c.0625 0 .078125-.015625.109375-.109375.171875-.640625.453125-.84375.6875-.84375.046875 0 .15625 0 .15625.21875 0 .15625-.0625.34375-.109375.46875-.265625.71875-.390625 1.109375-.390625 1.421875 0 .609375.421875.8125.828125.8125.265625 0 .5-.125.6875-.3125-.09375.359375-.171875.6875-.453125 1.046875-.171875.234375-.421875.421875-.734375.421875-.09375 0-.40625-.015625-.515625-.28125.109375 0 .1875 0 .28125-.078125.078125-.0625.140625-.15625.140625-.28125 0-.203125-.1875-.234375-.25-.234375-.15625 0-.375.109375-.375.4375 0 .34375.296875.59375.71875.59375.6875 0 1.390625-.625 1.578125-1.390625zm0 0"/></symbol><symbol id="S" overflow="visible"><path d="m.3125.828125c-.0625.234375-.078125.28125-.375.28125-.078125 0-.15625 0-.15625.125 0 .046875.03125.078125.09375.078125.171875 0 .375-.015625.5625-.015625.234375 0 .453125.015625.671875.015625.03125 0 .125 0 .125-.125 0-.078125-.0625-.078125-.15625-.078125-.34375 0-.34375-.046875-.34375-.109375 0-.078125.28125-1.1875.328125-1.359375.09375.203125.28125.4375.625.4375.78125 0 1.640625-1 1.640625-1.984375 0-.640625-.390625-1.09375-.90625-1.09375-.34375 0-.671875.25-.890625.515625-.0625-.375-.359375-.515625-.609375-.515625-.3125 0-.4375.265625-.5.390625-.125.234375-.21875.640625-.21875.65625 0 .0625.078125.0625.09375.0625.0625 0 .0625 0 .109375-.15625.109375-.46875.25-.796875.5-.796875.109375 0 .203125.046875.203125.3125 0 .15625-.015625.21875-.046875.34375zm1.1875-2.9375c.046875-.1875.234375-.375.34375-.484375.25-.203125.4375-.25.5625-.25.265625 0 .421875.234375.421875.640625 0 .390625-.21875 1.171875-.34375 1.4375-.21875.46875-.546875.6875-.796875.6875-.453125 0-.546875-.5625-.546875-.59375 0-.015625 0-.03125.03125-.109375zm0 0"/></symbol><symbol id="T" overflow="visible"><path d="m2.65625-2.53125c-.1875 0-.328125.15625-.328125.296875 0 .09375.0625.203125.203125.203125.15625 0 .3125-.125.3125-.390625 0-.296875-.28125-.578125-.796875-.578125-.90625 0-1.15625.6875-1.15625 1 0 .515625.5.625.703125.671875.359375.0625.703125.140625.703125.5 0 .1875-.15625.75-.96875.75-.09375 0-.609375 0-.765625-.359375.25.03125.421875-.171875.421875-.359375 0-.15625-.109375-.234375-.25-.234375-.171875 0-.375.140625-.375.453125 0 .375.375.65625.96875.65625 1.09375 0 1.359375-.828125 1.359375-1.125 0-.25-.125-.421875-.21875-.5-.171875-.1875-.375-.21875-.671875-.28125-.25-.0625-.515625-.109375-.515625-.40625 0-.203125.15625-.609375.765625-.609375.15625 0 .5.046875.609375.3125zm0 0"/></symbol><symbol id="U" overflow="visible"><path d="m2.6875-2.578125c-.109375 0-.203125 0-.296875.09375-.109375.109375-.125.21875-.125.265625 0 .15625.125.234375.25.234375.203125 0 .375-.15625.375-.4375 0-.328125-.3125-.578125-.796875-.578125-.90625 0-1.8125.96875-1.8125 1.921875 0 .609375.390625 1.15625 1.09375 1.15625.96875 0 1.546875-.71875 1.546875-.796875 0-.046875-.046875-.09375-.09375-.09375-.03125 0-.046875.015625-.078125.0625-.546875.671875-1.28125.671875-1.359375.671875-.421875 0-.609375-.328125-.609375-.734375 0-.28125.140625-.9375.359375-1.359375.21875-.390625.59375-.671875.96875-.671875.21875 0 .484375.078125.578125.265625zm0 0"/></symbol><symbol id="V" overflow="visible"><path d="m.59375-.40625c-.015625.109375-.0625.265625-.0625.296875 0 .125.09375.1875.203125.1875.078125 0 .203125-.0625.25-.1875.015625-.03125.25-.953125.265625-1.078125.0625-.21875.1875-.703125.21875-.875.03125-.09375.21875-.40625.375-.5625.0625-.046875.265625-.21875.546875-.21875.171875 0 .28125.078125.28125.078125-.203125.03125-.34375.203125-.34375.375 0 .109375.078125.234375.25.234375.1875 0 .375-.15625.375-.40625 0-.234375-.21875-.4375-.5625-.4375-.4375 0-.734375.328125-.859375.53125-.0625-.3125-.296875-.53125-.625-.53125-.3125 0-.4375.265625-.5.390625-.125.234375-.203125.640625-.203125.65625 0 .0625.0625.0625.078125.0625.0625 0 .078125 0 .109375-.15625.125-.46875.25-.796875.5-.796875.109375 0 .203125.046875.203125.3125 0 .140625-.015625.21875-.109375.5625zm0 0"/></symbol><symbol id="W" overflow="visible"><path d="m3.09375-1.546875c.109375-.0625.109375-.109375.109375-.15625 0-.03125 0-.078125-.109375-.140625l-2.640625-1.53125c-.09375-.046875-.125-.046875-.140625-.046875-.140625 0-.140625.140625-.140625.234375v2.984375c0 .09375 0 .234375.140625.234375.015625 0 .046875 0 .125-.046875zm-.296875-.15625-2.34375 1.359375v-2.703125zm0 0"/></symbol><symbol id="X" overflow="visible"><path d="m2.6875-4.234375c0-.125-.09375-.25-.25-.25s-.359375.15625-.359375.359375c0 .140625.09375.25.25.25.1875 0 .359375-.1875.359375-.359375zm-1.359375 4.578125c-.125.515625-.453125.890625-.828125.890625-.046875 0-.140625 0-.265625-.046875.203125-.0625.296875-.234375.296875-.359375 0-.109375-.0625-.25-.25-.25-.171875 0-.375.140625-.375.390625 0 .265625.28125.421875.609375.421875.46875 0 1.09375-.359375 1.265625-1.03125l.625-2.484375c.03125-.140625.03125-.234375.03125-.25 0-.390625-.28125-.625-.625-.625-.6875 0-1.078125.984375-1.078125 1.046875s.078125.0625.09375.0625c.046875 0 .0625 0 .109375-.125.171875-.421875.484375-.828125.859375-.828125.09375 0 .21875.015625.21875.3125 0 .15625-.015625.21875-.046875.34375zm0 0"/></symbol><symbol id="Y" overflow="visible"><path d="m1.296875-.359375c0-.203125-.15625-.359375-.359375-.359375-.1875 0-.359375.15625-.359375.359375s.171875.359375.359375.359375c.203125 0 .359375-.15625.359375-.359375zm0 0"/></symbol><symbol id="Z" overflow="visible"><path d="m4.375-4.71875c0-.015625-.015625-.0625-.078125-.0625-.03125 0-.03125 0-.125.109375l-.3125.375c-.1875-.3125-.53125-.484375-.984375-.484375-.859375 0-1.671875.78125-1.671875 1.59375 0 .5625.359375.875.703125.96875l.734375.1875c.25.0625.625.171875.625.71875 0 .609375-.5625 1.25-1.21875 1.25-.4375 0-1.1875-.140625-1.1875-.984375 0-.171875.03125-.328125.03125-.375.015625-.015625.015625-.03125.015625-.046875 0-.0625-.046875-.078125-.078125-.078125s-.046875.015625-.0625.03125c-.03125.03125-.40625 1.578125-.40625 1.59375 0 .046875.03125.078125.0625.078125.046875 0 .046875-.015625.125-.109375l.328125-.390625c.296875.390625.765625.5 1.15625.5.921875 0 1.71875-.90625 1.71875-1.75 0-.46875-.234375-.703125-.328125-.796875-.15625-.15625-.265625-.171875-.859375-.328125-.15625-.046875-.40625-.109375-.453125-.125-.1875-.0625-.421875-.265625-.421875-.625 0-.546875.546875-1.125 1.1875-1.125.5625 0 .984375.296875.984375 1.046875 0 .21875-.03125.34375-.03125.390625 0 0 0 .0625.078125.0625.0625 0 .078125-.015625.09375-.140625zm0 0"/></symbol><symbol id="aa" overflow="visible"><path d="m1.921875-4.234375c0-.140625-.09375-.25-.25-.25-.1875 0-.359375.171875-.359375.359375 0 .125.09375.25.25.25s.359375-.15625.359375-.359375zm-.515625 2.546875c.078125-.203125.078125-.21875.15625-.390625.046875-.140625.078125-.234375.078125-.359375 0-.3125-.203125-.5625-.546875-.5625-.640625 0-.890625.984375-.890625 1.046875s.0625.0625.078125.0625c.0625 0 .078125-.015625.109375-.109375.171875-.640625.453125-.84375.6875-.84375.046875 0 .15625 0 .15625.21875 0 .140625-.046875.28125-.0625.34375-.0625.171875-.359375.96875-.46875 1.25-.078125.1875-.15625.40625-.15625.546875 0 .328125.21875.5625.546875.5625.640625 0 .890625-.984375.890625-1.046875s-.0625-.0625-.078125-.0625c-.0625 0-.0625.015625-.109375.109375-.109375.4375-.34375.84375-.6875.84375-.109375 0-.15625-.0625-.15625-.21875 0-.171875.03125-.265625.1875-.671875zm0 0"/></symbol><symbol id="ab" overflow="visible"><path d="m5.125-3.921875c.0625-.265625.1875-.484375.734375-.5.03125 0 .109375 0 .109375-.140625 0 0 0-.0625-.078125-.0625-.234375 0-.46875.015625-.6875.015625-.234375 0-.46875-.015625-.6875-.015625-.046875 0-.125 0-.125.125 0 .078125.0625.078125.125.078125.375 0 .453125.15625.453125.296875 0 .015625-.015625.125-.015625.140625l-.765625 3.015625-1.5-3.53125c-.046875-.125-.0625-.125-.21875-.125h-.90625c-.125 0-.1875 0-.1875.125 0 .078125.0625.078125.1875.078125.03125 0 .453125 0 .453125.0625l-.90625 3.640625c-.0625.265625-.1875.484375-.734375.515625-.03125 0-.109375 0-.109375.125 0 .046875.03125.078125.09375.078125.203125 0 .453125-.015625.671875-.015625.234375 0 .46875.015625.703125.015625.03125 0 .109375 0 .109375-.140625 0-.0625-.046875-.0625-.125-.0625-.390625-.015625-.453125-.171875-.453125-.3125 0-.046875.015625-.078125.03125-.15625l.890625-3.578125c.03125.046875.03125.0625.0625.125l1.6875 4c.046875.109375.0625.125.125.125.078125 0 .078125-.015625.109375-.140625zm0 0"/></symbol><symbol id="ac" overflow="visible"><path d="m3.125-4.671875c-.125 0-.21875 0-.21875.125 0 .078125.0625.109375.125.125.234375.015625.234375.296875.234375.328125 0 .1875-.078125.28125-.265625.53125-.125.171875-.28125.375-.390625.5-.65625-1.03125-.703125-1.140625-.75-1.296875.109375-.0625.265625-.0625.328125-.0625.046875 0 .171875 0 .171875-.125s-.109375-.125-.234375-.125h-1.75c-.109375 0-.21875 0-.21875.125 0 .015625 0 .09375.109375.125.203125.015625.21875.0625.34375.203125.390625.5 1.359375 1.953125 1.484375 2.15625l-.734375.84375c-.5.578125-.8125.921875-1.09375.984375-.0625.015625-.140625.015625-.140625.109375 0 .125.109375.125.234375.125h1.15625c.125 0 .234375 0 .234375-.125 0-.09375-.09375-.109375-.15625-.109375-.25-.046875-.25-.34375-.25-.34375 0-.1875.109375-.3125.15625-.359375.25-.296875.515625-.59375.765625-.875.75 1.140625.8125 1.328125.875 1.484375-.125.078125-.296875.09375-.421875.09375-.0625 0-.1875 0-.1875.109375 0 .125.109375.125.234375.125h1.8125c.125 0 .21875 0 .21875-.125 0-.0625-.046875-.09375-.109375-.109375-.109375-.03125-.140625-.046875-.15625-.0625-.109375-.09375-.546875-.71875-.8125-1.140625l-.9375-1.359375c.015625-.03125.09375-.125.1875-.234375l.328125-.453125c.34375-.453125.703125-.890625 1.25-.9375.078125-.015625.171875-.015625.171875-.125 0-.125-.109375-.125-.234375-.125zm.75.25c-.125.078125-.234375.1875-.359375.3125 0-.109375-.03125-.21875-.09375-.3125zm-2.765625 3.84375c0 .015625.015625.09375.015625.09375.015625.140625.0625.21875.078125.25h-.4375zm.5-3.84375c0 .125 0 .21875.421875.90625.25.375 1.75 2.65625 2.234375 3.28125h-.90625c.015625-.03125.015625-.046875.015625-.078125 0-.109375-.078125-.28125-.34375-.75-.28125-.453125-1.734375-2.671875-2.28125-3.359375zm0 0"/></symbol><symbol id="ad" overflow="visible"><path d="m1.828125-2.140625h.25l1.015625 1.578125c.0625.109375.234375.375.3125.484375.046875.078125.0625.078125.21875.078125h.9375c.125 0 .234375 0 .234375-.125 0-.046875-.046875-.09375-.109375-.109375-.25-.0625-.59375-.515625-.75-.71875-.046875-.078125-.390625-.53125-.84375-1.265625.609375-.109375 1.1875-.359375 1.1875-1.171875 0-.953125-1-1.28125-1.796875-1.28125h-2.140625c-.125 0-.234375 0-.234375.125s.125.125.1875.125c.390625 0 .421875.046875.421875.375v3.421875c0 .34375-.03125.390625-.421875.390625-.0625 0-.1875 0-.1875.109375 0 .125.109375.125.234375.125h1.859375c.125 0 .234375 0 .234375-.125 0-.109375-.125-.109375-.203125-.109375-.375 0-.40625-.0625-.40625-.390625zm1.3125-.328125c.1875-.25.21875-.625.21875-.921875 0-.328125-.046875-.6875-.265625-.96875.28125.0625.953125.28125.953125.96875 0 .4375-.203125.78125-.90625.921875zm-1.3125-1.59375c0-.140625 0-.359375.421875-.359375.578125 0 .859375.234375.859375 1.03125 0 .890625-.203125 1.015625-1.28125 1.015625zm-.921875 3.828125c.046875-.125.046875-.3125.046875-.375v-3.4375c0-.078125 0-.265625-.046875-.375h.765625c-.078125.109375-.078125.234375-.078125.34375v3.46875c0 .0625 0 .25.046875.375zm1.4375-1.90625c.046875 0 .078125-.015625.140625-.015625.09375 0 .25-.015625.34375-.03125.109375.171875.84375 1.390625 1.40625 1.953125h-.65625zm0 0"/></symbol><symbol id="ae" overflow="visible"><path d="m.640625-1.5625c.046875 0 .1875 0 .1875-.140625 0-.125-.140625-.125-.1875-.125v-.890625c0-.109375 0-.234375-.125-.234375-.140625 0-.140625.125-.140625.234375v2.046875c0 .109375 0 .234375.140625.234375.125 0 .125-.125.125-.234375zm0 0"/></symbol><symbol id="af" overflow="visible"><path d="m5.65625-1.5625c-.375.28125-.5625.5625-.609375.65625-.3125.46875-.359375.890625-.359375.90625 0 .078125.078125.078125.140625.078125.109375 0 .109375-.015625.140625-.140625.15625-.65625.5625-1.234375 1.328125-1.546875.078125-.03125.09375-.03125.09375-.09375 0-.046875-.03125-.0625-.046875-.0625-.296875-.125-1.125-.453125-1.375-1.59375-.03125-.078125-.03125-.109375-.140625-.109375-.0625 0-.140625 0-.140625.078125 0 .015625.0625.453125.34375.90625.140625.203125.328125.4375.625.65625h-5.046875c-.109375 0-.234375 0-.234375.125 0 .140625.125.140625.234375.140625zm0 0"/></symbol><symbol id="ag" overflow="visible"><path d="m6.15625-1.5625c.125 0 .25 0 .25-.140625 0-.125-.125-.125-.25-.125h-5.03125c.359375-.28125.546875-.5625.609375-.65625.296875-.46875.359375-.890625.359375-.90625 0-.078125-.09375-.078125-.140625-.078125-.109375 0-.125.015625-.15625.140625-.15625.65625-.546875 1.21875-1.3125 1.546875-.078125.03125-.109375.03125-.109375.078125 0 .0625.03125.0625.109375.09375.703125.296875 1.15625.828125 1.328125 1.578125.015625.078125.03125.109375.140625.109375.046875 0 .140625 0 .140625-.078125 0-.015625-.0625-.453125-.34375-.90625-.140625-.203125-.34375-.4375-.625-.65625zm0 0"/></symbol><symbol id="ah" overflow="visible"><path d="m3.4375-1.84375c-.359375-.453125-.4375-.5625-.65625-.71875-.375-.3125-.75-.4375-1.09375-.4375-.796875 0-1.3125.75-1.3125 1.546875 0 .78125.5 1.53125 1.28125 1.53125s1.34375-.625 1.671875-1.15625c.375.453125.453125.5625.65625.71875.375.3125.765625.4375 1.109375.4375.796875 0 1.3125-.75 1.3125-1.546875 0-.78125-.5-1.53125-1.28125-1.53125s-1.34375.625-1.6875 1.15625zm.1875.234375c.28125-.484375.78125-1.171875 1.546875-1.171875.71875 0 1.078125.703125 1.078125 1.3125 0 .671875-.453125 1.21875-1.046875 1.21875-.390625 0-.703125-.28125-.84375-.421875-.171875-.1875-.328125-.40625-.734375-.9375zm-.46875.296875c-.28125.484375-.78125 1.171875-1.546875 1.171875-.71875 0-1.09375-.703125-1.09375-1.3125 0-.671875.453125-1.21875 1.0625-1.21875.390625 0 .6875.28125.84375.421875.15625.1875.3125.40625.734375.9375zm0 0"/></symbol><symbol id="ai" overflow="visible"><path d="m3.7188-1.5625c.10938 0 .23438 0 .23438-.14062 0-.125-.125-.125-.23438-.125h-2.875c.078125-.90625.85938-1.5625 1.8125-1.5625h1.0625c.10938 0 .23438 0 .23438-.14062 0-.125-.125-.125-.23438-.125h-1.0781c-1.1562 0-2.0781.875-2.0781 1.9531 0 1.0938.92188 1.9688 2.0781 1.9688h1.0781c.10938 0 .23438 0 .23438-.125 0-.14062-.125-.14062-.23438-.14062h-1.0625c-.95312 0-1.7344-.65625-1.8125-1.5625z"/></symbol><symbol id="aj" overflow="visible"><path d="m1.53125-2.96875c0-.078125-.046875-.1875-.1875-.1875-.125 0-.265625.125-.265625.265625 0 .078125.0625.1875.1875.1875.140625 0 .265625-.140625.265625-.265625zm-.96875 2.40625c-.015625.0625-.03125.125-.03125.203125 0 .21875.1875.40625.453125.40625.46875 0 .671875-.65625.671875-.71875s-.0625-.0625-.0625-.0625c-.078125 0-.078125.015625-.09375.078125-.109375.375-.328125.578125-.5.578125-.109375 0-.125-.0625-.125-.171875s.03125-.203125.078125-.3125c.046875-.125.09375-.25.15625-.375.03125-.109375.203125-.546875.21875-.59375.015625-.0625.03125-.109375.03125-.15625 0-.234375-.1875-.40625-.453125-.40625-.46875 0-.6875.640625-.6875.71875 0 .0625.078125.0625.078125.0625.078125 0 .078125-.015625.09375-.0625.125-.421875.328125-.59375.5-.59375.078125 0 .125.046875.125.171875 0 .109375-.03125.1875-.140625.46875zm0 0"/></symbol><symbol id="ak" overflow="visible"><path d="m.734375-2.71875c-.015625-.203125-.140625-.203125-.265625-.203125h-.21875c-.09375 0-.28125 0-.28125.203125s.140625.203125.390625.203125v2.109375c-.25 0-.390625 0-.390625.203125s.1875.203125.28125.203125h.59375c.109375 0 .28125 0 .28125-.203125s-.140625-.203125-.390625-.203125v-1.21875c0-.609375.28125-.921875.5625-.921875.15625 0 .25.109375.25.546875v1.59375c-.125 0-.296875 0-.296875.203125s.1875.203125.28125.203125h.5c.109375 0 .28125 0 .28125-.203125s-.140625-.203125-.390625-.203125v-1.21875c0-.609375.28125-.921875.5625-.921875.15625 0 .25.109375.25.546875v1.59375c-.125 0-.296875 0-.296875.203125s.1875.203125.28125.203125h.5c.109375 0 .28125 0 .28125-.203125s-.140625-.203125-.390625-.203125v-1.65625c0-.125 0-.90625-.59375-.90625-.203125 0-.484375.09375-.671875.359375-.109375-.234375-.296875-.359375-.515625-.359375s-.421875.09375-.59375.25zm0 0"/></symbol><symbol id="al" overflow="visible"><path d="m3.1719-1.4688c0-.84375-.64062-1.5156-1.3906-1.5156-.76562 0-1.3906.67188-1.3906 1.5156 0 .85938.64062 1.5156 1.3906 1.5156.73438 0 1.3906-.65625 1.3906-1.5156zm-1.3906 1.0938c-.5 0-.92188-.5-.92188-1.1406 0-.60938.4375-1.0469.92188-1.0469s.92188.4375.92188 1.0469c0 .64062-.42188 1.1406-.92188 1.1406z"/></symbol><symbol id="am" overflow="visible"><path d="m2.921875-2.515625h.203125c.09375 0 .265625 0 .265625-.203125s-.15625-.203125-.265625-.203125h-.796875c-.109375 0-.265625 0-.265625.203125s.15625.203125.265625.203125h.1875l-.734375 2.1875-.75-2.1875h.203125c.09375 0 .265625 0 .265625-.203125s-.171875-.203125-.265625-.203125h-.796875c-.109375 0-.28125 0-.28125.203125s.171875.203125.28125.203125h.203125l.78125 2.3125c.078125.234375.21875.234375.359375.234375.125 0 .28125 0 .359375-.234375zm0 0"/></symbol><symbol id="an" overflow="visible"><path d="m2.875-1.296875c.140625 0 .265625 0 .265625-.25 0-.765625-.421875-1.4375-1.3125-1.4375-.796875 0-1.453125.671875-1.453125 1.515625 0 .828125.6875 1.515625 1.5625 1.515625.890625 0 1.203125-.609375 1.203125-.78125 0-.1875-.1875-.1875-.234375-.1875-.125 0-.171875.015625-.21875.140625-.15625.34375-.515625.40625-.703125.40625-.515625 0-1.015625-.34375-1.125-.921875zm-2.015625-.40625c.09375-.5.5-.859375.96875-.859375.359375 0 .78125.15625.84375.859375zm0 0"/></symbol><symbol id="ao" overflow="visible"><path d="m2.203125-1.078125h1.453125c.0625 0 .171875 0 .171875-.109375 0-.125-.109375-.125-.171875-.125h-1.453125v-1.453125c0-.0625 0-.171875-.125-.171875-.109375 0-.109375.109375-.109375.171875v1.453125h-1.453125c-.0625 0-.1875 0-.1875.125 0 .109375.109375.109375.1875.109375h1.453125v1.46875c0 .0625 0 .171875.109375.171875.125 0 .125-.109375.125-.171875zm0 0"/></symbol><symbol id="ap" overflow="visible"><path d="m2.453125-1.515625c0-.515625-.0625-.890625-.28125-1.234375-.140625-.21875-.4375-.40625-.828125-.40625-1.09375 0-1.09375 1.296875-1.09375 1.640625s0 1.609375 1.09375 1.609375c1.109375 0 1.109375-1.265625 1.109375-1.609375zm-1.109375 1.484375c-.21875 0-.5-.140625-.59375-.53125-.078125-.28125-.078125-.65625-.078125-1.015625 0-.34375 0-.703125.078125-.96875.09375-.375.40625-.46875.59375-.46875.265625 0 .515625.15625.59375.421875s.078125.609375.078125 1.015625c0 .359375 0 .703125-.0625 1-.09375.4375-.421875.546875-.609375.546875zm0 0"/></symbol><symbol id="aq" overflow="visible"><path d="m2.640625-4.15625c0-.125-.09375-.234375-.25-.234375s-.359375.15625-.359375.359375c0 .125.09375.234375.25.234375.171875 0 .359375-.171875.359375-.359375zm-1.34375 4.484375c-.125.515625-.4375.890625-.8125.890625-.046875 0-.140625 0-.265625-.0625.203125-.046875.3125-.21875.3125-.359375 0-.09375-.078125-.21875-.265625-.21875-.15625 0-.359375.125-.359375.375 0 .265625.265625.40625.59375.40625.46875 0 1.078125-.34375 1.25-1l.609375-2.4375c.03125-.140625.03125-.21875.03125-.25 0-.375-.28125-.609375-.609375-.609375-.671875 0-1.0625.96875-1.0625 1.03125s.078125.0625.078125.0625c.0625 0 .078125-.015625.125-.140625.171875-.40625.46875-.8125.84375-.8125.09375 0 .203125.03125.203125.3125 0 .15625-.015625.21875-.046875.34375zm0 0"/></symbol><symbol id="ar" overflow="visible"><path d="m1.0469 5.9688h1.2656v-.20312h-1.0625v-5.9688h-.20312z"/></symbol><symbol id="as" overflow="visible"><path d="m1.3906 5.9688v-6.1719h-.20312v5.9688h-1.0781v.20312z"/></symbol><symbol id="at" overflow="visible"><path d="m2.234375-1.796875c.015625-.171875.015625-.359375.015625-.53125 0-.0625-.03125-.28125-.03125-.3125.1875-.3125.375-.59375.6875-.59375.390625 0 .28125.65625.390625.765625.046875.046875.125.078125.1875.078125l-.65625.390625c-.234375.03125-.5.15625-.59375.203125zm-.078125-1.03125c-.125-.328125-.4375-.703125-.796875-.703125-.484375 0-.828125.3125-.953125.4375-.140625.140625-.25.296875-.25.5 0 .28125.203125.46875.359375.6875.03125.046875.078125.09375.078125.140625 0 .171875-.171875.328125-.328125.421875l.0625.046875c.3125-.140625.640625-.359375.640625-.6875 0-.28125-.453125-.5625-.453125-.78125 0-.3125.203125-.453125.5-.453125.234375 0 .46875.171875.609375.375.1875.296875.203125.703125.203125.953125 0 .671875-.046875 1.265625-.59375 1.640625-.125-.125-.3125-.296875-.484375-.296875-.265625 0-.484375.34375-.609375.546875l.0625.078125c.078125-.125.203125-.21875.375-.21875.109375 0 .296875.171875.40625.28125.296875-.234375.578125-.515625.875-.75.203125-.3125.296875-.671875.34375-1.0625.140625-.046875.359375-.09375.484375-.09375.140625 0 .3125.0625.421875.171875.0625.0625.15625.171875.15625.671875 0 .140625-.015625.296875-.015625.453125l.328125.609375.6875-.515625v-.09375c-.109375.046875-.28125.109375-.3125.109375-.125 0-.21875-.28125-.265625-.4375-.046875-.140625-.078125-.671875-.09375-1.015625-.125-.109375-.25-.1875-.515625-.1875.34375-.28125.75-.46875 1.078125-.59375l-.03125-.078125c-.0625.015625-.140625.03125-.203125.03125-.328125 0-.25-.265625-.265625-.40625-.03125-.265625-.125-.484375-.40625-.484375-.46875 0-.796875.328125-1.078125.6875zm0 0"/></symbol><symbol id="au" overflow="visible"><path d="m1.015625-1.625c0-.078125 0-.078125-.09375-.078125-.171875.15625-.453125.15625-.515625.15625h-.046875v.109375h.046875c.0625 0 .234375 0 .375-.0625v1.28125c0 .078125 0 .109375-.265625.109375h-.125v.109375c.140625-.015625.359375-.015625.515625-.015625.140625 0 .375 0 .515625.015625v-.109375h-.125c-.28125 0-.28125-.03125-.28125-.109375zm0 0"/></symbol><symbol id="av" overflow="visible"><path d="m.359375.296875c-.015625.0625-.015625.078125-.140625.078125-.03125 0-.078125 0-.078125.078125 0 .03125.015625.046875.046875.046875s.078125-.015625.125-.015625h.125.15625c.03125 0 .09375.015625.140625.015625.03125 0 .0625-.015625.0625-.078125 0-.046875-.046875-.046875-.078125-.046875-.09375 0-.140625 0-.140625-.03125 0-.015625.03125-.171875.109375-.46875.0625.09375.171875.15625.3125.15625.359375 0 .71875-.359375.71875-.71875 0-.25-.1875-.4375-.453125-.4375-.203125 0-.359375.125-.40625.171875-.046875-.140625-.203125-.171875-.296875-.171875s-.171875.03125-.234375.140625c-.0625.09375-.09375.234375-.09375.25 0 .03125.03125.03125.046875.03125.046875 0 .046875-.015625.0625-.046875.03125-.109375.078125-.296875.203125-.296875.09375 0 .109375.078125.109375.140625 0 .03125 0 .046875-.015625.0625zm.484375-1.0625c.015625-.03125.015625-.046875.0625-.09375.09375-.109375.234375-.1875.359375-.1875.09375 0 .21875.0625.21875.265625 0 .109375-.0625.359375-.125.484375-.109375.1875-.265625.234375-.359375.234375-.21875 0-.265625-.203125-.265625-.21875s0-.03125 0-.046875zm0 0"/></symbol><symbol id="aw" overflow="visible"><path d="m1.296875-.96875c-.09375.03125-.09375.109375-.09375.125 0 .0625.046875.09375.09375.09375.03125 0 .140625-.015625.140625-.15625 0-.171875-.203125-.21875-.40625-.21875-.421875 0-.515625.25-.515625.34375s.0625.15625.109375.1875c.0625.046875.140625.0625.28125.078125.15625.03125.34375.0625.34375.1875 0 0 0 .265625-.46875.265625-.109375 0-.265625 0-.34375-.078125.09375-.03125.125-.09375.125-.15625 0-.078125-.046875-.109375-.109375-.109375-.078125 0-.15625.0625-.15625.1875 0 .25.390625.25.46875.25.53125 0 .625-.3125.625-.40625 0-.234375-.28125-.28125-.421875-.296875-.1875-.03125-.3125-.046875-.3125-.15625 0 0 0-.21875.375-.21875.0625 0 .203125 0 .265625.078125zm0 0"/></symbol><g transform="translate(-53.046 -287.65)"><use height="100%" width="100%" x="53.796101" xlink:href="#a" y="294.04599"/><use height="100%" width="100%" x="58.129982" xlink:href="#b" y="294.04599"/><use height="100%" width="100%" x="61.342564" xlink:href="#c" y="294.04599"/><use height="100%" width="100%" x="65.460175" xlink:href="#d" y="294.04599"/><use height="100%" width="100%" x="68.927139" xlink:href="#e" y="294.04599"/><use height="100%" width="100%" x="72.502632" xlink:href="#f" y="294.04599"/><use height="100%" width="100%" x="76.836517" xlink:href="#g" y="294.04599"/><use height="100%" width="100%" x="81.170395" xlink:href="#b" y="294.04599"/><use height="100%" width="100%" x="84.38298" xlink:href="#e" y="294.04599"/><use height="100%" width="100%" x="90.219101" xlink:href="#j" y="294.04599"/><use height="100%" width="100%" x="93.987923" xlink:href="#k" y="294.04599"/><use height="100%" width="100%" x="98.510376" xlink:href="#i" y="294.04599"/><use height="100%" width="100%" x="103.032" xlink:href="#l" y="294.04599"/><use height="100%" width="100%" x="105.66989" xlink:href="#P" y="294.04599"/><use height="100%" width="100%" x="111.60583" xlink:href="#m" y="294.04599"/><use height="100%" width="100%" x="115.3738" xlink:href="#ac" y="294.04599"/><use height="100%" width="100%" x="122.17575" xlink:href="#ae" y="294.04599"/><use height="100%" width="100%" x="122.17575" xlink:href="#af" y="294.04599"/><use height="100%" width="100%" x="130.84332" xlink:href="#ad" y="294.04599"/><use height="100%" width="100%" x="135.76051" xlink:href="#ao" y="291.58466"/><use height="100%" width="100%" x="140.26404" xlink:href="#I" y="294.04599"/><use height="100%" width="100%" x="144.40974" xlink:href="#S" y="294.04599"/><use height="100%" width="100%" x="147.82245" xlink:href="#T" y="294.04599"/><use height="100%" width="100%" x="151.00192" xlink:href="#I" y="294.04599"/><use height="100%" width="100%" x="155.14725" xlink:href="#U" y="294.04599"/><use height="100%" width="100%" x="158.08307" xlink:href="#V" y="294.04599"/><use height="100%" width="100%" x="161.33162" xlink:href="#n" y="294.04599"/></g><g fill="#00f" stroke="#00f" stroke-linecap="round" stroke-linejoin="round" stroke-width=".5"><path d="m145.71676 4.8519592c.10937-.0625.10937-.109375.10937-.15625 0-.03125 0-.078125-.10937-.140625l-2.64063-1.53125c-.0937-.046875-.125-.046875-.14062-.046875-.14063 0-.14063.140625-.14063.234375v2.984375c0 .09375 0 .234375.14063.234375.0156 0 .0469 0 .125-.046875zm-.29688-.15625-2.34375 1.359375v-2.703125zm0 0"/><path d="m149.46325 3.4769592v-.78125c0-.609375.32812-.921875.625-.921875.0156 0 .125 0 .21875.046875-.0781.015625-.20313.109375-.20313.28125 0 .15625.10938.296875.29688.296875s.29687-.140625.29687-.3125c0-.25-.25-.46875-.60937-.46875-.48438 0-1.04688.359375-1.04688 1.078125v.78125h-.54687v.203125h.54687v2.203125c0 .3125-.0781.3125-.53125.3125v.203125c.26563 0 .57813-.015625.76563-.015625.28125 0 .59375 0 .85937.015625v-.203125h-.14062c-.5 0-.51563-.078125-.51563-.328125v-2.1875h.78125v-.203125zm0 0"/><path d="m153.53624 4.9457092c0-.859375-.67188-1.578125-1.48438-1.578125-.85937 0-1.51562.734375-1.51562 1.578125 0 .875.70312 1.53125 1.5 1.53125.82812 0 1.5-.671875 1.5-1.53125zm-1.48438 1.359375c-.29687 0-.59375-.140625-.78125-.453125-.17187-.296875-.17187-.71875-.17187-.953125 0-.265625 0-.640625.17187-.9375.17188-.3125.5-.453125.76563-.453125.29687 0 .59375.15625.76562.4375.17188.296875.17188.6875.17188.953125 0 .234375 0 .609375-.14063.90625-.15625.296875-.45312.5-.78125.5zm0 0"/><path d="m154.8654 4.1488342v-.75l-.9375.078125v.203125c.48437 0 .53125.046875.53125.390625v1.8125c0 .3125-.0781.3125-.53125.3125v.203125c.26562 0 .57812-.015625.78125-.015625.26562 0 .57812 0 .85937.015625v-.203125h-.14062c-.5 0-.51563-.078125-.51563-.328125v-1.046875c0-.671875.28125-1.265625.79688-1.265625h.0781c-.0312.015625-.15625.09375-.15625.265625 0 .1875.14063.296875.28125.296875.125 0 .29688-.078125.29688-.296875s-.20313-.421875-.5-.421875c-.5 0-.73438.453125-.84375.75zm0 0"/><path d="m159.40622 4.0707092v1.8125c0 .3125-.0781.3125-.53125.3125v.203125c.23437 0 .57812-.015625.76562-.015625.17188 0 .53125.015625.76563.015625v-.203125c-.46875 0-.53125 0-.53125-.3125v-1.25c0-.703125.48437-1.078125.90625-1.078125.4375 0 .5.359375.5.75v1.578125c0 .3125-.0625.3125-.51563.3125v.203125c.23438 0 .57813-.015625.76563-.015625.17187 0 .51562.015625.75.015625v-.203125c-.45313 0-.53125 0-.53125-.3125v-1.25c0-.703125.48437-1.078125.92187-1.078125.42188 0 .5.359375.5.75v1.578125c0 .3125-.0781.3125-.53125.3125v.203125c.23438 0 .59375-.015625.76563-.015625.1875 0 .53125.015625.76562.015625v-.203125c-.35937 0-.53125 0-.53125-.203125v-1.296875c0-.59375 0-.796875-.20312-1.046875-.10938-.109375-.32813-.25-.71875-.25-.5625 0-.875.40625-.98438.671875-.0937-.59375-.59375-.671875-.90625-.671875-.48437 0-.8125.296875-1 .71875v-.71875l-.95312.078125v.203125c.46875 0 .53125.046875.53125.390625zm0 0"/><path d="m166.57441 5.8832092c.0156.265625.20313.5625.51563.5625.14062 0 .5625-.09375.5625-.65625v-.375h-.17188v.375c0 .40625-.17187.4375-.25.4375-.21875 0-.25-.296875-.25-.34375v-1.34375c0-.296875 0-.5625-.23437-.8125-.26563-.25-.60938-.359375-.9375-.359375-.54688 0-1.01563.3125-1.01563.765625 0 .203125.125.3125.3125.3125s.3125-.140625.3125-.3125c0-.078125-.0312-.296875-.34375-.3125.17188-.234375.51563-.3125.71875-.3125.34375 0 .71875.265625.71875.875v.25c-.34375.015625-.8125.03125-1.23437.234375-.51563.234375-.6875.59375-.6875.890625 0 .546875.65625.71875 1.09375.71875s.75-.28125.89062-.59375zm-.0625-1.109375v.671875c0 .640625-.48437.875-.78125.875-.34375 0-.60937-.234375-.60937-.578125 0-.375.28125-.9375 1.39062-.96875zm0 0"/><path d="m169.65357 4.8050842c.20313-.25.45313-.59375.60938-.765625.21875-.25.5-.34375.8125-.359375v-.203125c-.17188.015625-.375.015625-.54688.015625-.20312 0-.5625-.015625-.65625-.015625v.203125c.14063.015625.1875.109375.1875.21875s-.0625.1875-.0937.234375l-.42187.53125-.53125-.6875c-.0625-.0625-.0625-.078125-.0625-.125 0-.09375.10937-.15625.23437-.171875v-.203125c-.17187 0-.60937.015625-.71875.015625-.15625 0-.46875 0-.65625-.015625v.203125c.48438 0 .48438.015625.8125.421875l.67188.875-.64063.8125c-.32812.390625-.73437.40625-.875.40625v.203125c.17188-.015625.39063-.015625.5625-.015625.20313 0 .48438.015625.64063.015625v-.203125c-.14063-.03125-.1875-.109375-.1875-.21875 0-.140625.1875-.375.60937-.859375l.51563.671875c.0469.078125.14062.1875.14062.234375 0 .0625-.0625.15625-.25.171875v.203125c.20313 0 .59375-.015625.73438-.015625.1875 0 .45312 0 .65625.015625v-.203125c-.35938 0-.48438-.015625-.64063-.21875zm0 0"/><path d="m172.48379 3.3988342-.95312.078125v.203125c.4375 0 .5.046875.5.375v1.828125c0 .3125-.0781.3125-.53125.3125v.203125c.21875 0 .59375-.015625.75-.015625.23437 0 .46875.015625.70312.015625v-.203125c-.4375 0-.46875-.046875-.46875-.3125zm.0312-1.171875c0-.21875-.17187-.359375-.35937-.359375-.21875 0-.35938.171875-.35938.359375 0 .171875.14063.359375.35938.359375.1875 0 .35937-.140625.35937-.359375zm0 0"/><path d="m173.9151 4.0707092v1.8125c0 .3125-.0781.3125-.53125.3125v.203125c.23437 0 .57812-.015625.76562-.015625.17188 0 .53125.015625.76563.015625v-.203125c-.46875 0-.53125 0-.53125-.3125v-1.25c0-.703125.48437-1.078125.90625-1.078125.4375 0 .5.359375.5.75v1.578125c0 .3125-.0625.3125-.51563.3125v.203125c.23438 0 .57813-.015625.76563-.015625.17187 0 .51562.015625.75.015625v-.203125c-.45313 0-.53125 0-.53125-.3125v-1.25c0-.703125.48437-1.078125.92187-1.078125.42188 0 .5.359375.5.75v1.578125c0 .3125-.0781.3125-.53125.3125v.203125c.23438 0 .59375-.015625.76563-.015625.1875 0 .53125.015625.76562.015625v-.203125c-.35937 0-.53125 0-.53125-.203125v-1.296875c0-.59375 0-.796875-.20312-1.046875-.10938-.109375-.32813-.25-.71875-.25-.5625 0-.875.40625-.98438.671875-.0937-.59375-.59375-.671875-.90625-.671875-.48437 0-.8125.296875-1 .71875v-.71875l-.95312.078125v.203125c.46875 0 .53125.046875.53125.390625zm0 0"/><path d="m180.02077 3.3988342-.95312.078125v.203125c.4375 0 .5.046875.5.375v1.828125c0 .3125-.0781.3125-.53125.3125v.203125c.21875 0 .59375-.015625.75-.015625.23437 0 .46875.015625.70312.015625v-.203125c-.4375 0-.46875-.046875-.46875-.3125zm.0312-1.171875c0-.21875-.17187-.359375-.35937-.359375-.21875 0-.35938.171875-.35938.359375 0 .171875.14063.359375.35938.359375.1875 0 .35937-.140625.35937-.359375zm0 0"/><path d="m183.3427 3.6800842c.0625-.078125.0625-.09375.0625-.109375 0-.09375-.0469-.09375-.17187-.09375h-2.17188l-.0781 1.09375h.17187c.0469-.6875.17188-.953125.92188-.953125h.76562l-1.89062 2.5625c-.0625.078125-.0625.09375-.0625.125 0 .09375.0469.09375.17187.09375h2.25l.10938-1.265625h-.17188c-.0625.796875-.20312 1.09375-.98437 1.09375h-.79688zm0 0"/><path d="m185.98222 5.8832092c.0156.265625.20313.5625.51563.5625.14062 0 .5625-.09375.5625-.65625v-.375h-.17188v.375c0 .40625-.17187.4375-.25.4375-.21875 0-.25-.296875-.25-.34375v-1.34375c0-.296875 0-.5625-.23437-.8125-.26563-.25-.60938-.359375-.9375-.359375-.54688 0-1.01563.3125-1.01563.765625 0 .203125.125.3125.3125.3125s.3125-.140625.3125-.3125c0-.078125-.0312-.296875-.34375-.3125.17188-.234375.51563-.3125.71875-.3125.34375 0 .71875.265625.71875.875v.25c-.34375.015625-.8125.03125-1.23437.234375-.51563.234375-.6875.59375-.6875.890625 0 .546875.65625.71875 1.09375.71875s.75-.28125.89062-.59375zm-.0625-1.109375v.671875c0 .640625-.48437.875-.78125.875-.34375 0-.60937-.234375-.60937-.578125 0-.375.28125-.9375 1.39062-.96875zm0 0"/><path d="m188.28013 3.6800842h.96875v-.203125h-.96875v-1.25h-.17187c0 .5625-.20313 1.28125-.875 1.3125v.140625h.57812v1.875c0 .84375.625.921875.875.921875.48438 0 .67188-.484375.67188-.921875v-.390625h-.17188v.375c0 .5-.20312.765625-.45312.765625-.45313 0-.45313-.625-.45313-.734375zm0 0"/><path d="m190.94942 3.3988342-.95312.078125v.203125c.4375 0 .5.046875.5.375v1.828125c0 .3125-.0781.3125-.53125.3125v.203125c.21875 0 .59375-.015625.75-.015625.23437 0 .46875.015625.70312.015625v-.203125c-.4375 0-.46875-.046875-.46875-.3125zm.0312-1.171875c0-.21875-.17187-.359375-.35937-.359375-.21875 0-.35938.171875-.35938.359375 0 .171875.14063.359375.35938.359375.1875 0 .35937-.140625.35937-.359375zm0 0"/><path d="m194.8182 4.9457092c0-.859375-.67188-1.578125-1.48438-1.578125-.85937 0-1.51562.734375-1.51562 1.578125 0 .875.70312 1.53125 1.5 1.53125.82812 0 1.5-.671875 1.5-1.53125zm-1.48438 1.359375c-.29687 0-.59375-.140625-.78125-.453125-.17187-.296875-.17187-.71875-.17187-.953125 0-.265625 0-.640625.17187-.9375.17188-.3125.5-.453125.76563-.453125.29687 0 .59375.15625.76562.4375.17188.296875.17188.6875.17188.953125 0 .234375 0 .609375-.14063.90625-.15625.296875-.45312.5-.78125.5zm0 0"/><path d="m195.77238 4.0707092v1.8125c0 .3125-.0781.3125-.53125.3125v.203125c.23437 0 .57812-.015625.76562-.015625.17188 0 .53125.015625.76563.015625v-.203125c-.46875 0-.53125 0-.53125-.3125v-1.25c0-.703125.48437-1.078125.90625-1.078125.4375 0 .5.359375.5.75v1.578125c0 .3125-.0625.3125-.51563.3125v.203125c.23438 0 .57813-.015625.76563-.015625.17187 0 .51562.015625.75.015625v-.203125c-.34375 0-.51563 0-.53125-.203125v-1.296875c0-.59375 0-.796875-.20313-1.046875-.0937-.109375-.32812-.25-.71875-.25-.48437 0-.8125.296875-1 .71875v-.71875l-.95312.078125v.203125c.46875 0 .53125.046875.53125.390625zm0 0"/><path d="m199.82246 4.9769592.26562-3.09375c0-.21875-.17187-.34375-.35937-.34375-.17188 0-.35938.125-.35938.34375l.26563 3.09375c.0156.09375.0156.15625.0937.15625s.0937-.03125.0937-.15625zm.26562 1.0625c0-.203125-.15625-.359375-.35937-.359375-.1875 0-.35938.15625-.35938.359375s.17188.359375.35938.359375c.20312 0 .35937-.15625.35937-.359375zm0 0"/></g><g transform="translate(-53.046 -287.65)"><use height="100%" width="100%" x="63.972118" xlink:href="#h" y="310.38702"/><use height="100%" width="100%" x="66.355789" xlink:href="#c" y="310.38702"/><use height="100%" width="100%" x="70.25621" xlink:href="#b" y="310.38702"/><use height="100%" width="100%" x="75.729919" xlink:href="#X" y="310.38702"/><use height="100%" width="100%" x="80.795937" xlink:href="#ai" y="310.38702"/><use height="100%" width="100%" x="87.202187" xlink:href="#H" y="310.38702"/><use height="100%" width="100%" x="91.724457" xlink:href="#Y" y="310.38702"/><use height="100%" width="100%" x="94.741646" xlink:href="#Y" y="310.38702"/><use height="100%" width="100%" x="97.752197" xlink:href="#Y" y="310.38702"/><use height="100%" width="100%" x="100.76939" xlink:href="#S" y="310.38702"/><use height="100%" width="100%" x="104.18209" xlink:href="#T" y="310.38702"/><use height="100%" width="100%" x="109.62216" xlink:href="#f" y="310.38702"/><use height="100%" width="100%" x="113.95603" xlink:href="#c" y="310.38702"/><g fill="#505050"><use height="100%" width="100%" x="171.73976" xlink:href="#W" y="310.38702"/><use height="100%" width="100%" x="177.39249" xlink:href="#q" y="310.38702"/><use height="100%" width="100%" x="180.04953" xlink:href="#r" y="310.38702"/><use height="100%" width="100%" x="183.44119" xlink:href="#s" y="310.38702"/><use height="100%" width="100%" x="187.21002" xlink:href="#t" y="310.38702"/><use height="100%" width="100%" x="190.97885" xlink:href="#u" y="310.38702"/><use height="100%" width="100%" x="194.37053" xlink:href="#v" y="310.38702"/><use height="100%" width="100%" x="202.28198" xlink:href="#E" y="310.38702"/><use height="100%" width="100%" x="204.16641" xlink:href="#s" y="310.38702"/><use height="100%" width="100%" x="207.93521" xlink:href="#E" y="310.38702"/><use height="100%" width="100%" x="209.81964" xlink:href="#D" y="310.38702"/><use height="100%" width="100%" x="212.45769" xlink:href="#E" y="310.38702"/><use height="100%" width="100%" x="214.34209" xlink:href="#r" y="310.38702"/><use height="100%" width="100%" x="217.73376" xlink:href="#w" y="310.38702"/><use height="100%" width="100%" x="221.88396" xlink:href="#z" y="310.38702"/><use height="100%" width="100%" x="225.83592" xlink:href="#u" y="310.38702"/><use height="100%" width="100%" x="229.22758" xlink:href="#z" y="310.38702"/><use height="100%" width="100%" x="232.99643" xlink:href="#C" y="310.38702"/><use height="100%" width="100%" x="236.76526" xlink:href="#w" y="310.38702"/><use height="100%" width="100%" x="238.64966" xlink:href="#r" y="310.38702"/><use height="100%" width="100%" x="242.04134" xlink:href="#D" y="310.38702"/><use height="100%" width="100%" x="244.67937" xlink:href="#E" y="310.38702"/><use height="100%" width="100%" x="246.56377" xlink:href="#u" y="310.38702"/><use height="100%" width="100%" x="249.95544" xlink:href="#s" y="310.38702"/></g><use height="100%" width="100%" x="74.147491" xlink:href="#q" y="318.55771"/><use height="100%" width="100%" x="76.804527" xlink:href="#r" y="318.55771"/><use height="100%" width="100%" x="80.196198" xlink:href="#s" y="318.55771"/><use height="100%" width="100%" x="83.965019" xlink:href="#t" y="318.55771"/><use height="100%" width="100%" x="87.733841" xlink:href="#u" y="318.55771"/><use height="100%" width="100%" x="91.125511" xlink:href="#v" y="318.55771"/><use height="100%" width="100%" x="96.778061" xlink:href="#w" y="318.55771"/><use height="100%" width="100%" x="98.662476" xlink:href="#x" y="318.55771"/><use height="100%" width="100%" x="104.50141" xlink:href="#y" y="318.55771"/><use height="100%" width="100%" x="107.17676" xlink:href="#r" y="318.55771"/><use height="100%" width="100%" x="110.56843" xlink:href="#v" y="318.55771"/><use height="100%" width="100%" x="116.221" xlink:href="#z" y="318.55771"/><use height="100%" width="100%" x="119.98983" xlink:href="#w" y="318.55771"/><use height="100%" width="100%" x="121.87424" xlink:href="#A" y="318.55771"/><use height="100%" width="100%" x="127.15179" xlink:href="#Z" y="318.55771"/><use height="100%" width="100%" x="131.31116" xlink:href="#ap" y="319.57489"/><use height="100%" width="100%" x="134.21858" xlink:href="#F" y="318.55771"/><use height="100%" width="100%" x="136.10335" xlink:href="#aq" y="318.55771"/><use height="100%" width="100%" x="139.21898" xlink:href="#G" y="318.55771"/><use height="100%" width="100%" x="141.10297" xlink:href="#Y" y="318.55771"/><use height="100%" width="100%" x="142.98738" xlink:href="#Q" y="318.55771"/><use height="100%" width="100%" x="149.12523" xlink:href="#B" y="318.55771"/><use height="100%" width="100%" x="151.19821" xlink:href="#q" y="318.55771"/><use height="100%" width="100%" x="153.85526" xlink:href="#u" y="318.55771"/><use height="100%" width="100%" x="157.24692" xlink:href="#v" y="318.55771"/><use height="100%" width="100%" x="165.16074" xlink:href="#ac" y="318.55771"/><use height="100%" width="100%" x="170.07793" xlink:href="#p" y="318.55771"/><use height="100%" width="100%" x="176.48418" xlink:href="#Z" y="318.55771"/><use height="100%" width="100%" x="180.64394" xlink:href="#ap" y="319.57489"/><use height="100%" width="100%" x="183.55096" xlink:href="#F" y="318.55771"/><use height="100%" width="100%" x="185.43575" xlink:href="#aq" y="318.55771"/><use height="100%" width="100%" x="188.55138" xlink:href="#G" y="318.55771"/><use height="100%" width="100%" x="190.43535" xlink:href="#Y" y="318.55771"/><use height="100%" width="100%" x="192.31976" xlink:href="#R" y="318.55771"/><use height="100%" width="100%" x="197.77324" xlink:href="#ag" y="318.55771"/><use height="100%" width="100%" x="206.44083" xlink:href="#P" y="318.55771"/><use height="100%" width="100%" x="210.49239" xlink:href="#l" y="318.55771"/><use height="100%" width="100%" x="213.12988" xlink:href="#Z" y="318.55771"/><use height="100%" width="100%" x="217.28966" xlink:href="#ap" y="319.57489"/><use height="100%" width="100%" x="220.19669" xlink:href="#F" y="318.55771"/><use height="100%" width="100%" x="222.08145" xlink:href="#aq" y="318.55771"/><use height="100%" width="100%" x="225.19708" xlink:href="#G" y="318.55771"/><use height="100%" width="100%" x="227.08105" xlink:href="#Y" y="318.55771"/><use height="100%" width="100%" x="228.96547" xlink:href="#Q" y="318.55771"/><use height="100%" width="100%" x="232.842" xlink:href="#n" y="318.55771"/><use height="100%" width="100%" x="235.48004" xlink:href="#p" y="318.55771"/><use height="100%" width="100%" x="63.9715" xlink:href="#h" y="336.595"/><use height="100%" width="100%" x="66.355171" xlink:href="#c" y="336.595"/><use height="100%" width="100%" x="70.255592" xlink:href="#b" y="336.595"/><use height="100%" width="100%" x="75.729301" xlink:href="#aa" y="336.595"/><use height="100%" width="100%" x="79.950394" xlink:href="#ai" y="336.595"/><use height="100%" width="100%" x="86.356644" xlink:href="#o" y="336.595"/><use height="100%" width="100%" x="90.878906" xlink:href="#Y" y="336.595"/><use height="100%" width="100%" x="93.896095" xlink:href="#Y" y="336.595"/><use height="100%" width="100%" x="96.906647" xlink:href="#Y" y="336.595"/><use height="100%" width="100%" x="99.92305" xlink:href="#ah" y="336.595"/><use height="100%" width="100%" x="108.96797" xlink:href="#f" y="336.595"/><use height="100%" width="100%" x="113.30184" xlink:href="#c" y="336.595"/><g fill="#505050"><use height="100%" width="100%" x="186.19138" xlink:href="#W" y="336.595"/><use height="100%" width="100%" x="191.8441" xlink:href="#E" y="336.595"/><use height="100%" width="100%" x="193.72852" xlink:href="#D" y="336.595"/><use height="100%" width="100%" x="196.36656" xlink:href="#A" y="336.595"/><use height="100%" width="100%" x="199.38107" xlink:href="#q" y="336.595"/><use height="100%" width="100%" x="202.0381" xlink:href="#r" y="336.595"/><use height="100%" width="100%" x="205.42978" xlink:href="#D" y="336.595"/><use height="100%" width="100%" x="208.06781" xlink:href="#A" y="336.595"/><use height="100%" width="100%" x="213.34099" xlink:href="#J" y="336.595"/><use height="100%" width="100%" x="216.73267" xlink:href="#K" y="336.595"/><use height="100%" width="100%" x="220.12433" xlink:href="#A" y="336.595"/><use height="100%" width="100%" x="223.13884" xlink:href="#s" y="336.595"/><use height="100%" width="100%" x="226.90767" xlink:href="#A" y="336.595"/><use height="100%" width="100%" x="229.9222" xlink:href="#q" y="336.595"/><use height="100%" width="100%" x="232.57921" xlink:href="#r" y="336.595"/><use height="100%" width="100%" x="235.97089" xlink:href="#D" y="336.595"/><use height="100%" width="100%" x="238.60892" xlink:href="#E" y="336.595"/><use height="100%" width="100%" x="240.49335" xlink:href="#u" y="336.595"/><use height="100%" width="100%" x="243.88503" xlink:href="#s" y="336.595"/><use height="100%" width="100%" x="247.65382" xlink:href="#y" y="336.595"/><use height="100%" width="100%" x="250.32918" xlink:href="#L" y="336.595"/></g><use height="100%" width="100%" x="74.146103" xlink:href="#h" y="344.76569"/><use height="100%" width="100%" x="76.52977" xlink:href="#c" y="344.76569"/><use height="100%" width="100%" x="80.430191" xlink:href="#b" y="344.76569"/><use height="100%" width="100%" x="85.904297" xlink:href="#X" y="344.76569"/><use height="100%" width="100%" x="90.969917" xlink:href="#ai" y="344.76569"/><use height="100%" width="100%" x="97.376167" xlink:href="#H" y="344.76569"/><use height="100%" width="100%" x="101.89883" xlink:href="#Y" y="344.76569"/><use height="100%" width="100%" x="104.91602" xlink:href="#Y" y="344.76569"/><use height="100%" width="100%" x="107.92658" xlink:href="#Y" y="344.76569"/><use height="100%" width="100%" x="110.94378" xlink:href="#S" y="344.76569"/><use height="100%" width="100%" x="114.35648" xlink:href="#T" y="344.76569"/><use height="100%" width="100%" x="119.79613" xlink:href="#f" y="344.76569"/><use height="100%" width="100%" x="124.13" xlink:href="#c" y="344.76569"/><g fill="#505050"><use height="100%" width="100%" x="138.66953" xlink:href="#W" y="344.76569"/><use height="100%" width="100%" x="144.32227" xlink:href="#s" y="344.76569"/><use height="100%" width="100%" x="148.09109" xlink:href="#A" y="344.76569"/><use height="100%" width="100%" x="151.10561" xlink:href="#M" y="344.76569"/><use height="100%" width="100%" x="158.26328" xlink:href="#z" y="344.76569"/><use height="100%" width="100%" x="162.22188" xlink:href="#u" y="344.76569"/><use height="100%" width="100%" x="165.61356" xlink:href="#z" y="344.76569"/><use height="100%" width="100%" x="169.38239" xlink:href="#N" y="344.76569"/><use height="100%" width="100%" x="173.52582" xlink:href="#O" y="344.76569"/><use height="100%" width="100%" x="177.10606" xlink:href="#E" y="344.76569"/><use height="100%" width="100%" x="178.99048" xlink:href="#r" y="344.76569"/><use height="100%" width="100%" x="184.64771" xlink:href="#v" y="344.76569"/><use height="100%" width="100%" x="190.11021" xlink:href="#C" y="344.76569"/><use height="100%" width="100%" x="193.87904" xlink:href="#D" y="344.76569"/><use height="100%" width="100%" x="196.51709" xlink:href="#r" y="344.76569"/><use height="100%" width="100%" x="199.90875" xlink:href="#D" y="344.76569"/><use height="100%" width="100%" x="202.5468" xlink:href="#E" y="344.76569"/><use height="100%" width="100%" x="204.43121" xlink:href="#u" y="344.76569"/><use height="100%" width="100%" x="207.82288" xlink:href="#s" y="344.76569"/></g><use height="100%" width="100%" x="98.976738" xlink:href="#ab" y="361.10672"/><use height="100%" width="100%" x="104.42674" xlink:href="#aj" y="362.1239"/><use height="100%" width="100%" x="106.5494" xlink:href="#F" y="361.10672"/><use height="100%" width="100%" x="108.43338" xlink:href="#aq" y="361.10672"/><use height="100%" width="100%" x="111.5494" xlink:href="#G" y="361.10672"/><use height="100%" width="100%" x="113.43378" xlink:href="#Y" y="361.10672"/><use height="100%" width="100%" x="115.3182" xlink:href="#Q" y="361.10672"/><use height="100%" width="100%" x="121.0787" xlink:href="#ag" y="361.10672"/><use height="100%" width="100%" x="129.74628" xlink:href="#ak" y="361.10672"/><use height="100%" width="100%" x="133.30754" xlink:href="#al" y="361.10672"/><use height="100%" width="100%" x="136.86879" xlink:href="#am" y="361.10672"/><use height="100%" width="100%" x="140.43004" xlink:href="#an" y="361.10672"/><use height="100%" width="100%" x="143.99197" xlink:href="#l" y="361.10672"/><use height="100%" width="100%" x="146.62949" xlink:href="#Z" y="361.10672"/><use height="100%" width="100%" x="150.78885" xlink:href="#aj" y="362.1239"/><use height="100%" width="100%" x="152.9119" xlink:href="#F" y="361.10672"/><use height="100%" width="100%" x="154.79588" xlink:href="#ar" y="356.9321"/></g><use height="100%" transform="translate(-53.046 -284.74)" width="100%" x="161.50526" xlink:href="#au" y="359.24109"/><use height="100%" transform="translate(-53.046 -287.65)" width="100%" x="157.2326" xlink:href="#at" y="361.10672"/><use height="100%" transform="translate(-53.046 -291.13)" width="100%" x="161.50526" xlink:href="#av" y="362.37781"/><use height="100%" transform="translate(-53.046 -291.13)" width="100%" x="163.40645" xlink:href="#aw" y="362.37781"/><g transform="translate(-53.046 -287.65)"><use height="100%" width="100%" x="165.38573" xlink:href="#as" y="356.9321"/><use height="100%" width="100%" x="167.82245" xlink:href="#G" y="361.10672"/><use height="100%" width="100%" x="169.70644" xlink:href="#Y" y="361.10672"/><use height="100%" width="100%" x="171.59085" xlink:href="#Q" y="361.10672"/><use height="100%" width="100%" x="175.46738" xlink:href="#n" y="361.10672"/><use height="100%" width="100%" x="178.10541" xlink:href="#p" y="361.10672"/></g></svg>