<svg height="309.33" viewBox="0 0 548.76 309.33" width="548.76" xmlns="http://www.w3.org/2000/svg"><g transform="matrix(1.3333 0 0 -1.3333 0 309.33)"><text font-family="Times New Roman" font-size="10.909" transform="scale(1 -1)" x="29.046499" y="-216.026"><tspan x="29.046499 34.446503" y="-216.026">46</tspan></text><text font-family="Times New Roman" font-size="7.9701" transform="scale(1 -1)" x="180.3665" y="-216.026"><tspan x="180.3665 186.18486 190.138 194.09932 199.25597 202.73097 206.69229 212.69385 217.12523 219.28525 223.24657 225.39851 228.87352 231.02545" y="-216.026">HoosandStützle</tspan></text><path d="m54.445 92.028h146.11" style="fill:none;opacity:.5;stroke:#000;stroke-dasharray:.330555 .66111;stroke-miterlimit:10;stroke-width:.082639"/><path d="m54.445 92.028h2.086m144.02 0h-2.082" fill="none" opacity=".5" stroke="#000" stroke-miterlimit="10" stroke-width=".33056"/><text font-family="Helvetica" font-size="4.6278" opacity=".5" transform="scale(1 -1)" x="43.952301" y="-90.508202"><tspan x="43.952301 46.525341 49.098381" y="-90.508202">100</tspan></text><g fill="none" stroke="#000" stroke-miterlimit="10"><path d="m54.445 98.376h1.0281m145.08 0h-1.024m-145.08 8.3952h1.0281m145.08 0h-1.024m-145.08 4.332h1.0281m145.08 0h-1.024" opacity=".5" stroke-width=".33056"/><path d="m54.445 113.12h146.11" opacity=".5" stroke-dasharray=".330555 .66111" stroke-width=".082639"/><path d="m54.445 113.12h2.086m144.02 0h-2.082" opacity=".5" stroke-width=".33056"/></g><text font-family="Helvetica" font-size="4.6278" opacity=".5" transform="scale(1 -1)" x="41.379299" y="-111.598"><tspan x="41.379299 43.952339 46.525379 49.098419" y="-111.598">1000</tspan></text><g fill="none" stroke="#000" stroke-miterlimit="10"><path d="m54.445 119.5h1.0281m145.08 0h-1.024m-145.08 8.399h1.0281m145.08 0h-1.024m-145.08 4.297h1.0281m145.08 0h-1.024" opacity=".5" stroke-width=".33056"/><path d="m54.445 134.24h146.11" opacity=".5" stroke-dasharray=".330555 .66111" stroke-width=".082639"/><path d="m54.445 134.24h2.086m144.02 0h-2.082" opacity=".5" stroke-width=".33056"/></g><text font-family="Helvetica" font-size="4.6278" opacity=".5" transform="scale(1 -1)" x="38.806301" y="-132.72099"><tspan x="38.806301 41.379341 43.952381 46.525421 49.098461" y="-132.72099">10000</tspan></text><g fill="none" stroke="#000" stroke-miterlimit="10"><path d="m54.445 140.59h1.0281m145.08 0h-1.024m-145.08 8.398h1.0281m145.08 0h-1.024m-145.08 4.297h1.0281m145.08 0h-1.024" opacity=".5" stroke-width=".33056"/><path d="m54.445 155.33h146.11" opacity=".5" stroke-dasharray=".330555 .66111" stroke-width=".082639"/><path d="m54.445 155.33h2.086m144.02 0h-2.082" opacity=".5" stroke-width=".33056"/></g><text font-family="Helvetica" font-size="4.6278" opacity=".5" transform="scale(1 -1)" x="36.234402" y="-153.81"><tspan x="36.234402 38.807442 41.380482 43.953522 46.526562 49.099602" y="-153.81">100000</tspan></text><g fill="none" stroke="#000" stroke-miterlimit="10"><path d="m54.445 161.68h1.0281m145.08 0h-1.024m-145.08 8.398h1.0281m145.08 0h-1.024m-145.08 4.328h1.0281m145.08 0h-1.024" opacity=".5" stroke-width=".33056"/><path d="m54.445 176.45h2.4813m35.402 0h108.22" opacity=".5" stroke-dasharray=".330555 .66111" stroke-width=".082639"/><path d="m54.445 176.45h2.086m144.02 0h-2.082" opacity=".5" stroke-width=".33056"/></g><text font-family="Helvetica" font-size="4.6278" opacity=".5" transform="scale(1 -1)" x="38.676601" y="-174.93201"><tspan x="38.676601 41.249641 43.822681 46.520741 49.093781" y="-174.93201">1e+06</tspan></text><g fill="none" stroke="#000" stroke-miterlimit="10"><path d="m54.445 182.8h1.0281m145.08 0h-1.024m-145.08 8.398h1.0281m145.08 0h-1.024m-145.08 4.297h1.0281m145.08 0h-1.024" opacity=".5" stroke-width=".33056"/><path d="m54.445 197.54h146.11" opacity=".5" stroke-dasharray=".330555 .66111" stroke-width=".082639"/><path d="m54.445 197.54h2.086m144.02 0h-2.082" opacity=".5" stroke-width=".33056"/></g><text font-family="Helvetica" font-size="4.6278" opacity=".5" transform="scale(1 -1)" x="38.676601" y="-196.022"><tspan x="38.676601 41.249641 43.822681 46.520741 49.093781" y="-196.022">1e+07</tspan></text><path d="m54.445 92.028v105.52" style="fill:none;opacity:.5;stroke:#000;stroke-dasharray:.330555 .66111;stroke-miterlimit:10;stroke-width:.082639"/><path d="m54.445 92.028v2.086m0 103.43v-2.082" fill="none" opacity=".5" stroke="#000" stroke-miterlimit="10" stroke-width=".33056"/><text font-family="Helvetica" font-size="4.6278" opacity=".5" transform="scale(1 -1)" x="51.874599" y="-85.881302"><tspan x="51.874599 54.447639" y="-85.881302">50</tspan></text><path d="m90.973 92.028v73.715m0 27.766v4.035" style="fill:none;opacity:.5;stroke:#000;stroke-dasharray:.330555 .66111;stroke-miterlimit:10;stroke-width:.082639"/><path d="m90.973 92.028v2.086m0 103.43v-2.082" fill="none" opacity=".5" stroke="#000" stroke-miterlimit="10" stroke-width=".33056"/><text font-family="Helvetica" font-size="4.6278" opacity=".5" transform="scale(1 -1)" x="87.114502" y="-85.880501"><tspan x="87.114502 89.687538 92.260582" y="-85.880501">100</tspan></text><path d="m127.5 92.028v105.52" style="fill:none;opacity:.5;stroke:#000;stroke-dasharray:.330555 .66111;stroke-miterlimit:10;stroke-width:.082639"/><path d="m127.5 92.028v2.086m0 103.43v-2.082" fill="none" opacity=".5" stroke="#000" stroke-miterlimit="10" stroke-width=".33056"/><text font-family="Helvetica" font-size="4.6278" opacity=".5" transform="scale(1 -1)" x="123.641" y="-85.880501"><tspan x="123.641 126.21404 128.78708" y="-85.880501">150</tspan></text><path d="m164.02 92.028v105.52" style="fill:none;opacity:.5;stroke:#000;stroke-dasharray:.330555 .66111;stroke-miterlimit:10;stroke-width:.082639"/><path d="m164.02 92.028v2.086m0 103.43v-2.082" fill="none" opacity=".5" stroke="#000" stroke-miterlimit="10" stroke-width=".33056"/><text font-family="Helvetica" font-size="4.6278" opacity=".5" transform="scale(1 -1)" x="160.168" y="-85.880501"><tspan x="160.168 162.74104 165.31409" y="-85.880501">200</tspan></text><path d="m200.55 92.028v105.52" style="fill:none;opacity:.5;stroke:#000;stroke-dasharray:.330555 .66111;stroke-miterlimit:10;stroke-width:.082639"/><path d="m200.55 92.028v2.086m0 103.43v-2.082" fill="none" opacity=".5" stroke="#000" stroke-miterlimit="10" stroke-width=".33056"/><text font-family="Helvetica" font-size="4.6278" opacity=".5" transform="scale(1 -1)" x="196.69299" y="-85.880501"><tspan x="196.69299 199.26604 201.83908" y="-85.880501">250</tspan></text><path d="m54.445 92.028h146.1v105.52h-146.1z" fill="none" opacity=".5" stroke="#000" stroke-miterlimit="10" stroke-width=".33056"/><text font-family="Helvetica" font-size="4.6278" opacity=".5" transform="matrix(0 1 1 0 0 0)" x="137.97" y="29.1266"><tspan x="137.97 140.54305 142.85692 144.13876 146.71179 149.28484" y="29.1266">#steps</tspan></text><path d="m54.445 92.028h146.1v105.52h-146.1z" fill="none" opacity=".5" stroke="#000" stroke-miterlimit="10" stroke-width=".33056"/><text font-family="Helvetica" font-size="4.6278" opacity=".5" transform="scale(1 -1)" x="126.213" y="-81.253502"><tspan x="126.213" y="-81.253502">n</tspan><tspan x="58.412601 62.267532 64.840569 67.413612 68.440979 71.014015" y="-189.67549">median</tspan></text><path d="m76.363 191.2h13.188m-35.106-89.812 18.282 9.719 18.246 5.32 18.281 7.242 18.246 1.09 18.277 6.246 18.246 3.238 18.282 1.059 18.246 6.148" fill="none" opacity=".5" stroke="#000" stroke-miterlimit="10" stroke-width=".16528"/><text font-family="Helvetica" font-size="4.6278" opacity=".5" transform="scale(1 -1)" x="65.867599" y="-185.047"><tspan x="65.867599 68.440643 71.01368" y="-185.047">q25</tspan></text><path d="m76.363 186.57h13.188m-35.106-89.941 18.282 8.8562 18.246 6.082 18.281 6.015 18.246 1.621 18.277 5.684 18.246 3.836 18.282-.031 18.246 5.75" style="fill:none;opacity:.5;stroke:#000;stroke-dasharray:1.32222 .66111;stroke-miterlimit:10;stroke-width:.16528"/><text font-family="Helvetica" font-size="4.6278" opacity=".5" transform="scale(1 -1)" x="65.867599" y="-180.41901"><tspan x="65.867599 68.440643 71.01368" y="-180.41901">q75</tspan></text><path d="m76.363 181.94h13.188m-35.106-75.067 18.282 9.387 18.246 6.578 18.281 6.711 18.246 4.328 18.277 5.125 18.246 4.559 18.282.929 18.246 3.5" style="fill:none;opacity:.5;stroke:#000;stroke-dasharray:.66111 .991665;stroke-miterlimit:10;stroke-width:.16528"/><text font-family="Helvetica" font-size="4.6278" opacity=".5" transform="scale(1 -1)" x="65.867599" y="-175.79201"><tspan x="65.867599 68.440643 71.01368" y="-175.79201">q90</tspan></text><path d="m76.363 177.31h13.188m-35.106-65.618 18.282 10.215 18.246 5.817 18.281 5.586 18.246 8.3 18.277 10.707 18.246-1.554 18.282 6.082 18.246 4.066" style="fill:none;opacity:.5;stroke:#000;stroke-dasharray:.330555 .495833;stroke-miterlimit:10;stroke-width:.16528"/><text font-family="Helvetica" font-size="4.6278" opacity=".5" transform="scale(1 -1)" x="65.867599" y="-171.164"><tspan x="65.867599 68.440643 71.01368" y="-171.164">q95</tspan></text><path d="m76.363 172.68h13.188m-35.106-58.211 18.282 10.113 18.246 7.902 18.281 8.196 18.246 7.008 18.277 7.769 18.246 5.719 18.282 1.683 18.246 10.446" style="fill:none;opacity:.5;stroke:#000;stroke-dasharray:1.65278 .66111 .330555 .66111;stroke-miterlimit:10;stroke-width:.16528"/><text font-family="Helvetica" font-size="4.6278" opacity=".5" transform="scale(1 -1)" x="65.867599" y="-166.536"><tspan x="65.867599 68.440643 71.01368" y="-166.536">q98</tspan></text><g fill="none" stroke="#000" stroke-miterlimit="10"><path d="m76.363 168.06h13.188m-35.106-48.789 18.282 8.758 18.246 8.429 18.281 8.43 18.246 7.965 18.277 7.273 18.246 11.039 18.282-3.14 18.246 11.804" opacity=".5" stroke-dasharray="1.32222 .991665 .330555 .991665" stroke-width=".16528"/><path d="m235.77 92.028h146.1" stroke-dasharray=".330555 .66111" stroke-width=".082639"/><path d="m235.77 92.028h2.082m144.02 0h-2.082" stroke-width=".33056"/></g><text font-family="Helvetica" font-size="4.6278" transform="scale(1 -1)" x="225.271" y="-90.508202"><tspan x="225.271 227.84404 230.41708" y="-90.508202">100</tspan></text><g fill="none" stroke="#000" stroke-miterlimit="10"><path d="m235.77 98.376h1.023m145.08 0h-1.023m-145.08 8.3952h1.023m145.08 0h-1.023m-145.08 4.332h1.023m145.08 0h-1.023" stroke-width=".33056"/><path d="m235.77 113.12h146.1" stroke-dasharray=".330555 .66111" stroke-width=".082639"/><path d="m235.77 113.12h2.082m144.02 0h-2.082" stroke-width=".33056"/></g><text font-family="Helvetica" font-size="4.6278" transform="scale(1 -1)" x="222.7" y="-111.598"><tspan x="222.7 225.27304 227.84608 230.41911" y="-111.598">1000</tspan></text><g fill="none" stroke="#000" stroke-miterlimit="10"><path d="m235.77 119.5h1.023m145.08 0h-1.023m-145.08 8.399h1.023m145.08 0h-1.023m-145.08 4.297h1.023m145.08 0h-1.023" stroke-width=".33056"/><path d="m235.77 134.24h146.1" stroke-dasharray=".330555 .66111" stroke-width=".082639"/><path d="m235.77 134.24h2.082m144.02 0h-2.082" stroke-width=".33056"/></g><text font-family="Helvetica" font-size="4.6278" transform="scale(1 -1)" x="220.127" y="-132.72099"><tspan x="220.127 222.70004 225.27309 227.84612 230.41916" y="-132.72099">10000</tspan></text><g fill="none" stroke="#000" stroke-miterlimit="10"><path d="m235.77 140.59h1.023m145.08 0h-1.023m-145.08 8.398h1.023m145.08 0h-1.023m-145.08 4.297h1.023m145.08 0h-1.023" stroke-width=".33056"/><path d="m235.77 155.33h146.1" stroke-dasharray=".330555 .66111" stroke-width=".082639"/><path d="m235.77 155.33h2.082m144.02 0h-2.082" stroke-width=".33056"/></g><text font-family="Helvetica" font-size="4.6278" transform="scale(1 -1)" x="217.554" y="-153.81"><tspan x="217.554 220.12704 222.70007 225.27312 227.84616 230.4192" y="-153.81">100000</tspan></text><g fill="none" stroke="#000" stroke-miterlimit="10"><path d="m235.77 161.68h1.023m145.08 0h-1.023m-145.08 8.398h1.023m145.08 0h-1.023m-145.08 4.328h1.023m145.08 0h-1.023" stroke-width=".33056"/><path d="m273.65 176.45h108.22" stroke-dasharray=".330555 .66111" stroke-width=".082639"/><path d="m235.77 176.45h2.082m144.02 0h-2.082" stroke-width=".33056"/></g><text font-family="Helvetica" font-size="4.6278" transform="scale(1 -1)" x="219.996" y="-174.93201"><tspan x="219.996 222.56905 225.14207 227.84013 230.41318" y="-174.93201">1e+06</tspan></text><g fill="none" stroke="#000" stroke-miterlimit="10"><path d="m235.77 182.8h1.023m145.08 0h-1.023m-145.08 8.398h1.023m145.08 0h-1.023m-145.08 4.297h1.023m145.08 0h-1.023" stroke-width=".33056"/><path d="m235.77 197.54h146.1" stroke-dasharray=".330555 .66111" stroke-width=".082639"/><path d="m235.77 197.54h2.082m144.02 0h-2.082" stroke-width=".33056"/></g><text font-family="Helvetica" font-size="4.6278" transform="scale(1 -1)" x="219.996" y="-196.022"><tspan x="219.996 222.56905 225.14207 227.84013 230.41318" y="-196.022">1e+07</tspan></text><path d="m235.77 92.028v82.969m0 18.512v4.035" fill="none" stroke="#000" stroke-dasharray=".330555 .66111" stroke-miterlimit="10" stroke-width=".082639"/><path d="m235.77 92.028v2.086m0 103.43v-2.082" fill="none" stroke="#000" stroke-miterlimit="10" stroke-width=".33056"/><text font-family="Helvetica" font-size="4.6278" transform="scale(1 -1)" x="233.19501" y="-85.881302"><tspan x="233.19501 235.76804" y="-85.881302">50</tspan></text><path d="m272.29 92.028v82.969m0 18.512v4.035" fill="none" stroke="#000" stroke-dasharray=".330555 .66111" stroke-miterlimit="10" stroke-width=".082639"/><path d="m272.29 92.028v2.086m0 103.43v-2.082" fill="none" stroke="#000" stroke-miterlimit="10" stroke-width=".33056"/><text font-family="Helvetica" font-size="4.6278" transform="scale(1 -1)" x="268.43399" y="-85.880501"><tspan x="268.43399 271.00705 273.58008" y="-85.880501">100</tspan></text><path d="m308.82 92.028v105.52" fill="none" stroke="#000" stroke-dasharray=".330555 .66111" stroke-miterlimit="10" stroke-width=".082639"/><path d="m308.82 92.028v2.086m0 103.43v-2.082" fill="none" stroke="#000" stroke-miterlimit="10" stroke-width=".33056"/><text font-family="Helvetica" font-size="4.6278" transform="scale(1 -1)" x="304.961" y="-85.880501"><tspan x="304.961 307.53403 310.10709" y="-85.880501">150</tspan></text><path d="m345.34 92.028v105.52" fill="none" stroke="#000" stroke-dasharray=".330555 .66111" stroke-miterlimit="10" stroke-width=".082639"/><path d="m345.34 92.028v2.086m0 103.43v-2.082" fill="none" stroke="#000" stroke-miterlimit="10" stroke-width=".33056"/><text font-family="Helvetica" font-size="4.6278" transform="scale(1 -1)" x="341.48599" y="-85.880501"><tspan x="341.48599 344.05905 346.63208" y="-85.880501">200</tspan></text><path d="m381.87 92.028v105.52" fill="none" stroke="#000" stroke-dasharray=".330555 .66111" stroke-miterlimit="10" stroke-width=".082639"/><path d="m381.87 92.028v2.086m0 103.43v-2.082" fill="none" stroke="#000" stroke-miterlimit="10" stroke-width=".33056"/><text font-family="Helvetica" font-size="4.6278" transform="scale(1 -1)" x="378.01401" y="-85.880501"><tspan x="378.01401 380.58704 383.1601" y="-85.880501">250</tspan></text><path d="m235.77 92.028h146.1v105.52h-146.1z" fill="none" stroke="#000" stroke-miterlimit="10" stroke-width=".33056"/><text font-family="Helvetica" font-size="4.6278" transform="matrix(0 1 1 0 0 0)" x="137.97" y="210.44501"><tspan x="137.97 140.54305 142.85692 144.13876 146.71179 149.28484" y="210.44501">#steps</tspan></text><path d="m235.77 92.028h146.1v105.52h-146.1z" fill="none" stroke="#000" stroke-miterlimit="10" stroke-width=".33056"/><text font-family="Helvetica" font-size="4.6278" transform="scale(1 -1)" x="307.534" y="-81.253502"><tspan x="307.534" y="-81.253502">n</tspan><tspan x="239.7336 243.58853 246.16158 248.7346 249.76198 252.33502" y="-189.67549">median</tspan></text><g fill="none" stroke-miterlimit="10"><g stroke="#f00" stroke-width="2"><path d="m235.77 100.34v2.086"/><path d="m234.73 101.38h2.082"/><path d="m254.05 110.06v2.082"/><path d="m253 111.1h2.082"/><path d="m272.29 115.38v2.082"/><path d="m271.25 116.42h2.082"/></g><path d="m290.57 122.62v2.082" stroke="#000" stroke-width=".16528"/><path d="m289.53 123.66h2.082" stroke="#000" stroke-width=".16528"/><g stroke="#f00" stroke-width="2"><path d="m308.82 123.71v2.082"/><path d="m307.78 124.76h2.082"/><path d="m327.1 129.96v2.082"/><path d="m326.06 131h2.082"/><path d="m345.34 133.2v2.082"/><path d="m344.3 134.24h2.082"/><path d="m363.62 134.26v2.082"/><path d="m362.58 135.3h2.086"/><path d="m381.87 140.41v2.082"/><path d="m380.83 141.45h2.082"/><path d="m264.26 190.16v2.082"/><path d="m263.22 191.2h2.082"/></g></g><text font-family="Helvetica" font-size="4.6278" transform="scale(1 -1)" x="239.618" y="-185.047"><tspan x="239.618 242.19104 243.99124 246.30513 248.47556 251.04858 252.33047" y="-185.047">a*x^2.5</tspan></text><path d="m257.68 186.567h13.191m-35.105-83.859 1.488.922 1.453.863 1.488.824 1.485.825 1.457.793 1.488.761 1.484.727 1.453.695 1.489.696 1.457.66 1.484.66 1.488.629 1.454.625 1.488.597 1.488.594 1.453.563 1.489.562 1.484.528 1.457.527 1.484.531 1.489.492 1.453.496 1.488.497 1.488.464 1.453.461 1.489.461 1.453.43 1.488.465 1.484.429 1.458.395 1.484.43 1.488.398 1.457.395 1.485.398 1.488.395 1.453.398 1.488.363 1.485.364 1.457.363 1.488.363 1.484.328 1.453.364 1.489.332 1.457.332 1.484.328 1.488.332 1.454.328 1.488.297 1.488.332 1.453.297 1.489.297 1.484.332 1.457.297 1.484.265 1.489.297 1.453.297 1.488.262 1.453.3 1.488.262 1.489.266 1.453.261 1.488.266 1.484.262 1.458.265 1.484.266 1.488.262 1.457.234 1.485.262 1.488.23 1.453.266 1.488.23 1.485.231 1.457.234 1.488.231 1.453.23 1.484.231 1.489.23 1.457.231 1.484.234 1.488.195 1.454.235 1.488.195 1.488.234 1.453.196 1.489.199 1.484.23 1.457.2 1.484.195 1.489.199 1.453.199 1.488.196 1.453.199 2.977.398 1.453.196 1.488.199 1.484.164 1.457.199 1.485.199" fill="none" stroke="#f00" stroke-dasharray="6 3" stroke-miterlimit="10" stroke-width="1.5"/><text font-family="Helvetica" font-size="4.6278" transform="scale(1 -1)" x="247.188" y="-180.41901"><tspan x="247.188 249.76105 252.33408" y="-180.41901">q98</tspan></text><g fill="none" stroke-miterlimit="10" stroke-width="2"><path d="m234.72 120.31 2.086-2.082" stroke="#0000f5"/><g stroke="#00f"><path d="m234.72 118.23 2.086 2.082"/><path d="m253 129.07 2.082-2.082"/><path d="m253 126.98 2.082 2.082"/><path d="m271.25 137.5 2.082-2.082"/><path d="m271.25 135.42 2.082 2.082"/><path d="m289.53 145.93 2.082-2.082"/><path d="m289.53 143.84 2.082 2.082"/><path d="m307.78 153.89 2.082-2.082"/><path d="m307.78 151.81 2.082 2.082"/><path d="m326.06 161.16 2.082-2.082"/><path d="m326.06 159.08 2.082 2.082"/><path d="m344.3 172.2 2.082-2.082"/><path d="m344.3 170.12 2.082 2.082"/><path d="m362.58 169.06 2.086-2.082"/><path d="m362.58 166.98 2.082 2.082"/><path d="m380.83 180.87 2.082-2.086"/><path d="m380.83 178.78 2.082 2.086"/><path d="m263.22 182.98 2.082-2.082"/><path d="m263.22 180.9 2.082 2.082"/></g></g><text font-family="Helvetica" font-size="4.6278" transform="scale(1 -1)" x="237.677" y="-175.79201"><tspan x="237.677 240.25005 242.05025 244.62328 246.93716 249.51021 251.05125 253.36514" y="-175.79201">b*exp(x)</tspan></text><path d="m257.68 177.314h13.191m-35.105-57.321 1.488.629 1.453.629 1.488.594 1.485.629 1.457.625 1.488.597 1.484.625 1.453.629 1.489.594 1.457.629 1.484.629 1.488.594 1.454.629 1.488.625 1.488.597 1.453.629 1.489.625 1.484.629 1.457.594 1.484.629 1.489.629 1.453.593 1.488.629 1.488.625 1.453.598 1.489.625 1.453.629 1.488.594 1.484.628 1.458.629 1.484.594 1.488.629 1.457.625 1.485.598 1.488.625 1.453.629 1.488.593 1.485.629 1.457.629 1.488.594 1.484.629 1.453.625 1.489.597 1.457.629 1.484.625 1.488.598 1.454.625 1.488.629 1.488.594 1.453.629 1.489.625 1.484.597 1.457.629 1.484.625 1.489.598 1.453.625 1.488.629 1.453.593 2.977 1.258 1.453.594 1.488.629 1.484.625 1.458.598 1.484.625 1.488.628 1.457.594 1.485.629 1.488.629 1.453.594 1.488.629 1.485.625 1.457.597 1.488.629 1.453.625 1.484.594 1.489.629 1.457.629 1.484.594 1.488.628 1.454.629 1.488.594 1.488.629 1.453.625 1.489.598 1.484.625 1.457.629 1.484.593 1.489.629 1.453.629 1.488.594 1.453.629 1.488.625 1.489.597 1.453.629 1.488.625 1.484.594 1.457.629 1.485.629" fill="none" stroke="#00f" stroke-dasharray="2.99999 4.49999" stroke-miterlimit="10" stroke-width="1.5"/><g font-family="Times New Roman" font-size="8.9664" transform="scale(1 -1)"><text font-style="italic" x="29.046499" y="-66.026199"><tspan x="29.046499 34.202362 36.712906 41.151188 45.58947 48.709774 54.457436 58.904697 63.342976 70.05899 75.098045 79.070312 81.553909 84.073441" y="-66.026199">Figure17.<tspan fill-opacity=".5">Left:</tspan></tspan></text><text fill-opacity=".5" x="88.753899" y="-66.026199"><tspan x="88.753899 93.792961 97.765228 101.70116 104.21171 106.72225 111.16952 117.40115 121.84842 126.64529 129.15584 133.59412 137.08205 139.5656 143.53786 147.97614 151.94841 157.80348 162.24176 166.21404 169.10114 173.53941 177.97769 181.94997 185.4109 190.80856 197.2823 199.80191 202.31245 208.42769 212.86597 215.77103 220.20932 224.6476 227.16713 231.11244 239.98901 243.47694 245.96049 249.93277 255.68002 258.66583 263.12219 267.82062 275.61243 279.58469 282.0683 286.52454 291.5636 297.07806 302.59253 306.7261 310.69839 315.11868 319.55698 322.46188 326.90018 331.33844 335.53455 339.98181 344.4201 346.93066 349.44122 356.40802 360.34433 364.65726 369.09552 373.54279 376.05334 379.54126 383.48654" y="-66.026199">ScalingofinstancehardnesswithproblemsizeforWalkSAT,approx.optimalnoise,</tspan><tspan x="29.0459 33.018166 37.438477 41.876759 44.387302 46.906834 50.852146 57.092762 59.60331 65.843925 71.887276 75.832596 80.279854 84.718132 89.15641 96.123207 99.109016 103.54743 106.53324 111.58141 117.10485 124.29587 126.80641 130.77867 134.23962 136.75017 139.73598 143.22391 147.19586 149.67946 153.16739" y="-54.792599">appliedtoRandom-3-SATtest-sets.</tspan></text><text font-style="italic" x="157.08591" y="-55.1059"><tspan x="157.08591 162.55544 165.06598 169.50426 173.95152 176.46207" y="-55.1059">Right:</tspan></text><text x="181.1875" y="-55.1059"><tspan x="181.1875 186.22656 190.66484 195.10312 199.07539 201.55898 204.07851 208.51678 212.96405 216.90936 221.22226 225.19453 229.61484 234.05312 236.95819 241.39647 245.83475 248.35428 255.32109 259.25742 261.76797 264.27853 268.7168 273.16406 278.56171 283 287.79688 294.76367 298.70001 303.13828 305.65781 309.60315 315.84375 319.81601 324.23633 330.60236 335.04062 337.31793 341.75623 347.99683 352.43512 356.40741 359.29449 363.23981 367.2121 371.63239 374.15192 376.66248 379.17303 383.14532" y="-55.1059">Functionalapproximationsof<tspan fill="#f00">median</tspan>and<tspan fill="#00f">0.98percentile</tspan>;</tspan><tspan x="29.045502 31.556046 35.994324 42.351364 49.318161 53.254494 57.692757 60.203323 64.175583 71.240807 74.728737 78.674019 82.619331 89.586128 95.575974 98.086517 104.92792 109.3662 112.27127 116.46736 125.46072 129.90799 134.34627 136.85681 141.29507 145.73337 150.18062 157.14743 159.63101 163.60329 166.08687 168.61539 175.69897 182.17271 184.69232 187.20287" y="-44.186001">the<tspan fill="#f00">medianseemstogrowpolynomiallywith</tspan></tspan></text><text font-style="italic" x="194.1425" y="-44.186001"><tspan fill="#f00" x="194.1425" y="-44.186001">n</tspan></text><text x="201.10031" y="-44.186001"><tspan x="201.10031 207.57405 212.02141 214.53197 217.04253 223.51636 226.0269 230.46518 236.82222 241.2605 243.53784 247.97612 255.05971 259.49799 263.47025 266.34836 270.32065 274.25659 278.69485 281.20541 283.72495 286.2355 292.70935 296.65466 299.17419 303.11951 307.09177 309.97888 312.48944 319.33084 322.81876 327.24802 331.44409 337.91785 344.04175 347.87924 352.31754 356.7558 361.19409 365.63235 369.60464 374.02493 376.54449 379.05505 383.02731" y="-44.186001">whilethe<tspan fill="#00f">0.98percentileclearlyshowsexponential</tspan></tspan><tspan x="29.045317 33.483597 36.388672 40.584763 47.058502 49.578125 54.016403" y="-32.9524"><tspan fill="#00f">growth</tspan>.</tspan></text></g><path d="m1.5 230.5h408.57v-217l-6.382 4.5-6.387-9-6.383 12-6.383-13.5-6.383 9-6.386-6-6.383 9-6.383-6-6.383-9-6.386 3-6.383 10.5-6.383-7.5-6.383 7.5-6.387-6-6.382 7.5-6.383-10.5-6.383 6-6.387 3-6.383-6-6.382-10.5-6.387 7.5-6.383 3-6.383 9-6.383-4.5-6.386-7.5-6.383 4.5-6.383 6-6.383-9-6.386-3-6.383 9-6.383-3-6.383 9-6.387-3-6.382-9-6.383 7.5-6.387-10.5-6.383 6-6.383-10.5-6.382 6-6.387 3-6.383-6-6.383 12-6.383-9-6.386 10.5-6.383-4.5-6.383-10.5-6.383 3-6.386 4.5-6.3832 6-6.3828-3-6.3871-7.5-6.3828 7.5-6.3821-7.5-6.3832 7.5-6.3867 10.5-6.3832-7.5-6.382-4.5-6.3828 7.5-6.3871-6-6.3828-4.5-6.3832 4.5-6.3821 10.5-6.3871-1.5-6.3828-9z" fill="none" stroke="#000" stroke-linecap="round" stroke-linejoin="round"/></g></svg>