<svg height="202.1pt" viewBox="0 0 122.7 71.32" width="348pt" xmlns="http://www.w3.org/2000/svg"><g stroke-width=".3528" transform="scale(1 -1)"><text x="70.166862" y="-8.433134"><tspan stroke-width=".3528" x="70.166862" y="-8.433134"/></text><text x="101.70519" y="-8.433134"><tspan stroke-width=".3528" x="101.70519" y="-8.433134"/></text><text x="111.05381" y="-8.433134"><tspan stroke-width=".3528" x="111.05381" y="-8.433134"/></text><text x="78.457146" y="-12.384241"><tspan stroke-width=".3528" x="78.457146" y="-12.384241"/></text></g><path d="m115.3 59.51.007-.08957.018.04974.007-.0016h.0469l-.01.0081-.0233.01807zm4.543-9.806-.3376-.06216-.1834.1877-.1655.2451-.0289.01516-.1086.12-.1076.1005-.146.1598-.1654.1873-.1845.05539-.102.06311-.2812.229-.0938.1185-.1143-.08435-.0949-.0412.0356-.1571.1337-.2232.0194-.284-.0787-.1253-.1517.04561-.368.412-.1418.1034-.2011.365-.1902.07595-.1986-.0085-.0289-.0053-.1115.3333.008.02082.0868.1623.0303.0222.0483.05112.1556-.0056.1588-.02082.0522.1295-.0208.1474.3418.06202.1284-.1859.1319-.1104.2233.07578.1104.05405.1489-.05116.1679.02759.0469.06876-.0303.1185-.0674.07733-.1394.0013-.339.1721.0236.02646-.0526.06174-.0109.1408-.1214.04547-.0621.02604-.1129.2121-.1542.2759-.0138.0095.0289.146.3306.1502.1503.2135.2134.4851.1902.2318.2399.2135-.3002.01516-.302-.04272.018.02082.1983.06738.2053.09768.0868.05542.0663.2519-.12.07581-.0825.0773-.1736.1242-.12.06876.2699-.0056.3006.08156.0674.1142-.1598.128.0924-.01791.1238.06353-.0452.07154-.003-.01791-.007.02357-.0783-.03461-.0332.08544.0579.1063-.0109.07578.0109.09384.0194.0907-.1171.0744-.0924-.01238-.0152.1133-.1185.05496-.018.1793-.0385.1954-.0787-.0038-.0208-.007.0455.06488-.2078.1735-.054.08682.01.1006-.0127.157.0346.1422-.0194.1086-.1143.04022-.0483.1447-.1182.1749-.0279.09384-.1475.04519-.1171.05401.0303.08819-.2618.2798-.0688.06202-.0677.06174-.0854.08819-.1542.05539.0617.08544-.0977.1389-.2879.05923-.1654.07306-.1845.08971-.0663-.05789-.0977.055-.1034-.0095-.0208.0056.004.01902.0138.06918-.0924-.08142-.0688-.01103-.0825-.05927-.0568.1076-.01.1475.01.0095.0303.03186.0564-.05941-.0152.03997.007.02357-.001.0038-.0384.0016.0593.0853-.0759-.07687-.0564-.043-.1048.06064-.0977-.1446-.0815.2232-.1556.02466-.091.09246-.0829-.02893-.0508-.0013-.0815.03306-.0716.09924-.1514.03168-.2039.03983-.1118.03461-.0882.1101.003.1739-.01.2314-.1394-.08283-.1048-.1404-.0219-.1736.0317-.109.007-.09479-.0787-.06918-.0233-.066-.003.1062-.1916.01654-.1086-.1076-.0692.01516-.0413-.08819-.0522.04699-.0469.07444-.2096-.0099-.1475-.01363-.2494-.1447-.1185-.08393-.0289-.2428-.0455-.183-.1803-.02755-.1559-.02896-.0854-.09521-.1171-.07303-.1792.1517-.1654.1323-.1803.0095-.1739-.05112-.1542.03168-.4054.04547-.1968.0043-.0854.2424.0138.313-.1295.0084-.109-.2194-.2921.06491-.1475-.08544-.0536-.1612-.2688-.2603.0854-.2153-.2039-.2409-.0247-.1119-.0416-.1375-.0152-.1422-.4505.02368.0427-.2356.0222-.1531.0702-.1337.1817-.149.1588-.1513.0811-.09659.0388-.1087.0494-.2441v-.1694l-.0882-.229-.0854-.1929-.003-.1006-.0536-.08103-.0801-.04837-.1432.0222-.0469.05648-.0342.1308-.0759.0386h-.001l-.0261-.02191-.1185-.08544-.2812-.1778-.1242-.03172h-.007l-.5016.2286-.4879.2508h-.0261l-.1143-.01802-.4149-.1446-.0261-.2234-.0871-.2024-.2656-.1063-.1612-.0991-.1891-.09493-.4134.2798-.0674.07549-.0275-.4174-.3362.0016-.1323.01516-.3186-.1902-.194-.06216-.1185.0029-.1199-.1725-.1612-.07444-.007-.1585-.2589-.1778-.0247-.1968-.2607-.1352-.1887-.237-.1902-.2689-.1295-.164-.0233-.02896-.2565.08573-.146-.2304-.2868-.3471-.1044-.06491-.1132-.1432-.0342-.1337.0289-.1201.0138-.128-.007-.2314.1281-.03997.2124.0149-.0702-.3871.0483-.1943.0949-.1447.0289-.04547-.1129-.1943-.0663-.3197.0113-.1393-.3404-.2053-.0744-.1542-.1432-.1047.0494-.2465-.1199-.1902-.2011-.2039-.1048-.05112.1683-.02082.0854-.2078.0825-.3365-.2191-.1694-.084-.1778.0138-.1669.1584-.1472.2798-.1379.229-.08957.2314.06212.0469.128.3306-.1323h.4177l.1432-.06491h.1736l.4314-.09493.212-.1916.1517-.1682.0536-.09208.073-.2854.0222-.3281-.0815-.2865.2646.0016.3845-.0085.2275.1488-.036-.237.2427-.3732.2769-.2152.4011.2205.1612.0043.2604-.5305.4216-.2453.1944-.02896.109.1944.0854.1651.2371.2935.194.116.1697.441.0166.3828-.12.2289.1983.3584.1626.05652.8326.5111.1778.0882.005.09493.0953.3888.1171.2811.0497.0095.2395.02508.714.1348.8004.127.2233.1943.5539.2078.1901.09246.9056-.3252.7923-.05652.2783-.1366.2589-.2822.0427-.422.1351-.3802.321.1212.4135-.1418.2618-.1739.3778-.2053.0607-.2053.2949-.164.2342-.1266.1693-.02466.3309.01516-.2346-.4396-.1044-.08573-.3641-.0303-.2508.02508-.332.08957-.007-.32.2247-.6847.4632-.0081.2286-.1601.018-.1902.1062-.3154.1489-.3831.0854-.3195-.182-.08297.0388-.1432.2769-.2494.0607-.02466.2272-.07055.175-.02617.5789.07867.3404.1172.1252.2191.0688.05923.007.1185.1295.2191.0607.1129.1157.1877.1214.23.1475.2921.3775.02893.2205.02896.3073.1612.0896.1929.0138.1531.1944.08961.3556-.07581.2081-.248.3746-.2343.0413.2343-.0603.3552-.008.1877.0194.1997-.0691.3528-.037.2976-.4604.149-.1626.1542.1902.6092.006.01902-.004.1877-.1626.237.0402.09356-.2371-.2053-.054.09906.007.1764-.0868.01807-.3514.2811-.004.1309-.01.1778zm-1.155 7.975h.003l.003.0024.003.0013h.003l.004.0043.004.0013.006.0081.002.0013v.0013l.001.0029-.001.0056.003.0024.003.0013h.003l.001.0013-.003.0016.001.0028.007.007.008-.0013.007-.0056.001.0028-.002.0016h-.001l-.001.0028.001.0011-.004.0028v.0043l.006.0029.001.0013h.003v.0038l.001.0013h.006l.003.0029.002.0013h.003l.001.0013v.0043l.001.0013-.003.0038h.001l.007-.0066-.003-.0029v-.0028h.001l.001.0028h.001l.001-.0028.003.0013v.0028h.001l.003.0016.003.0028.003-.0028h.002v.0039l.001.0028h.003l.003-.0013h.003l-.003.0029v.0028l.001.0013h.003l.001-.0013.002-.0013.004.0013h.01l.01.0013h.003l.004-.0013.003-.0013h.004v.0028l-.003.0029.003.0028v.0039l-.001.0016-.003.007.001.0038.007.0056v.0013l-.001.0013v.0097l.001.0013.007.0056.006.0013.003-.0013.001-.0016h.004l.001.0016.003.0013.001.0024.001-.0011h.001l.002.0024v.0043h-.002l-.001.0013-.004.0029-.001.0013h-.003l-.001.0024-.005.0013-.003.0013h-.001l-.003.0013-.001.0016h-.001l-.005.0028-.004.0081h-.001l-.003.0013-.001.0029-.002.0013-.004.0028v.0068l-.006.0056h-.001l-.005.007-.003.0024-.003.0043-.001.0013-.003.0057-.002.0067-.001.0028-.001.0043.001.0053-.003.0043v.0056l-.001.02053.003.0013-.001.0028.001.0043.001.0024v.0028l.001.0016.004.0056v.0204l.001.0013v.0056l.006.01378v.0013l.003.0029v.0013l.005.0011.006.0056-.003.0013h-.003v-.0029l-.003-.0013h-.002v.0029l.002.0028v.0013l.003.0016h.003-.003v.0013l.003.0013v.0011h-.003l-.001.0028.001.0029v.0056l.001.0028v.0039l.001.0029-.001.0028h-.003l-.004.0029-.004.0013-.001.0013-.003.0011v.007l.004.0029v.0028l.003.0024.003.0013-.001.0016h-.003l-.007.0028-.007.0056v.0024l-.001.0043-.001.0013-.004.0028-.001.0016-.001.0038-.002.0056v.0028l-.001.0013v.01807l-.003.0039v.0029l-.004.007v.0038l.001.0028v.0072l-.001.0028h-.001l-.001.0024-.004.0029-.003.0055-.001.0082-.001.0016-.001.0041h-.001l-.001.0029h-.001l-.004.0013-.006.0067-.001.0013-.003.0013-.004.0043h-.003l-.003.0024-.006.0084-.001.0043v.0081l.003.007-.001.0081h-.001l-.001.0028-.007.0068-.003.0013-.004.0043-.002.0043v.01654l.001.0024v.0043l.0109.0109v.0029l-.001.0055-.003-.0013v.0029l.001.0013-.003.0013-.001.0039h.003l-.001.0043h-.003l-.001-.0013h-.001l-.003.0013v.0013l-.001.0029-.003.0038.003.0043v.0095l-.001.0113v.0028l-.001.0068v.007l-.004.0067v.007l-.004.0082-.004.0056-.001.0038v.01791l-.001.0099-.006.0067-.001.0013v.0028l-.001.0029v.0024h.001l.001.0043-.001.0013-.001.0028v.0016l-.001.01087-.001.0013v.0013l.001.0016-.001.0013-.003.0013v.0038l-.003.0029v.01945l-.001.0013v.0066l-.001.0043-.001.0013-.001.0029-.003.0024v.0028l-.001.0056v.0056l-.001.0011-.001.0028.001.0016v.007l.003.0038v.0056l-.001.0028-.001.0016h-.004v.0013l.003.0013-.001.0024v.0056l-.001.0043-.005.01378v.0028l-.001.0013-.003.01765-.003.0056v.0081l-.001.0085-.003.0013h-.004l-.003.0013-.001.0052-.003.0029v.0028l-.001.0029-.001.0013v.0054l-.001.0013-.001.0028v.0029l-.002.0095.002.0028-.001.0029-.001.0013h-.003l-.001-.0028-.001.0013.001.0013v.0013l-.004.0024v.01241l.004.0084-.001.0043-.001.0024v.0084l.004.0043-.001.0038h-.006l-.001.0013-.002.0072h-.008l-.003.0028v.0024l-.001.0029v.0028l-.002.0043-.001.0066-.003.0016-.001.0084-.001.0024v.0028h-.001l-.001.0029-.002.0043-.001.0013-.001.0081-.001.0013v.0043l-.006.0053v.0013l-.003.0016-.004.0041v.0043l-.006.01087-.003.0029-.003.0053-.001.0056-.001.0013h-.001l-.004.0043v.0039l-.006-.0013-.001.0013-.005.0016-.008.007-.001.0013v.0013l.003.0054.001.0013h-.003l-.001.0028.001.0016h.001l.001.0028v.0024l.001.0029v.0028l-.004.0028-.001.0016-.002.0013-.001.0109-.003.0029-.004.0024-.003.0013v.0013l-.004.0029-.003.0028-.003.0013-.008.0081h-.003l-.001.0016-.003.0013h-.003l-.001.0013h-.002l-.006.0056-.004.0013v.0024l-.003.0013h-.002l-.001.0029-.006.0013-.001.0013-.003.0043-.001.0038-.001.0029v.0028l-.002.0029v.01365l-.001.0029v.0013l-.003.0039-.006.0043-.001.0029-.002.0013-.001.0013v.0024l-.001.0013v.0029l-.001.0028v.0029l-.001.0013v.0024l-.004.0098v.0029l-.001.0013v.0054l-.002.007v.0028l-.003.0024v.0043l-.001.0013-.001.0057-.001.0011v.0028l-.003.0043v.0013l-.001.0029-.005.01378-.001.0013-.001.0081-.003.0028-.004.01379v.0056l-.001.0013v.0082l.003.0029.001.02328.001.0013v.0028l-.001.0013-.001.0043.001.0011v.0071h-.001l-.001.0013v.0043l.001.0011v.0056l.001.0013-.003.0028v.0016l.001.0013v.0053l.001.0016-.001.0013v.0013h-.003v.0081l.001.0028.003.0029h.003v.0028l-.001.0016-.004.0066v.0029l.001.0028v.01241l.003.0041v.0029l-.006.0024-.001.0057h-.001l-.001.0013-.001.0029v.0013l-.001.0024h-.003v.0013l-.003.0013h-.005v.0029l-.001.0013v.01791l.007.01103v.0056l.003.0028v.0024l-.001.0013h-.003l-.004-.0038v-.0013l-.001-.0028-.001-.0016h-.003v-.0028l-.006-.0057h-.002l-.003-.0011-.001-.0013h-.003v-.0013l-.003-.0016h-.004l-.006-.0041-.001-.0013h-.004l-.003.0041h-.002v.0095l-.004.0043h-.006l-.001-.0028-.001-.0043-.003-.0011-.001-.0013.001-.0043v-.0084l.001-.0039v-.0043l-.003-.0029-.001-.0028-.006-.0038v-.0029l-.001-.0013v-.0028l-.002-.0016v-.0053l.007-.0056-.003-.0013.001-.0029.006-.0053-.001-.0013v-.0056h-.003l-.001-.0029.008-.0024.001-.0013v-.0028l-.001-.0016v-.0056l-.003-.0028v-.0024l-.003-.0029v-.0028l-.001-.0028v-.0029l-.001-.0039v-.0085l-.003-.0066-.001-.0013-.001-.0029v-.0028l.001-.0029-.004-.0053-.001-.0043-.001-.0028-.003-.0029-.007-.0053v-.0016l.001-.0028v-.0029l-.001-.0052-.003-.0043v-.0084l-.01-.01087-.007-.0054v-.0013l-.003-.007-.001-.0029-.0166-.01225h-.001l-.001-.0029-.0148-.0068-.003-.0028-.003-.0013-.001-.0013-.003-.0016-.004-.0013-.002-.0024-.004-.0013-.004-.0043-.008-.0056-.003-.0024.001-.0013v-.0028l-.003-.0029h-.004v-.01378l-.001-.0013.001-.0028v-.0054l.001-.0013v-.0029h-.003l-.001.0016-.001.0039.001.02082v.0013l-.008-.0028-.004-.0043h-.002l-.018-.01376-.001-.0024-.003-.0043h-.003l-.004-.0056h-.008v-.0013l.001-.0013h.003v-.0024l-.006-.0056v-.0013l-.001-.0029h-.003l-.002-.0053-.006-.0084-.003-.0029.001-.0013v-.0024l-.001-.0013v-.0029l-.005-.0056v-.0052l.001-.0056.006-.0057-.004-.0081.006.0056.004-.0043-.007-.0084-.007-.01516-.003-.0011-.001-.0056v-.0028l-.0138-.03048v-.0013l-.003-.0052v-.0029l-.001-.0028v-.0029l.001-.0013v.0013l.003.0016h.003v-.0029l-.003-.0068h-.003l-.001.0016v.0028h-.001v-.0028l-.004-.0099-.001-.0053-.003-.0056.001-.0016v-.01651l-.003-.0024v-.0028l.003.0028h.003l.001-.0013-.004-.0013v-.0016l.003-.0055-.001.0013-.004.0028-.001.0013-.004-.0055-.0124-.01241-.003-.0013-.005-.0067-.006-.0013-.001-.0029h-.001l-.007-.0041v-.0054l-.004.0024-.003.0013v-.0013l-.004-.0039v-.0113h-.002l-.001-.0013v-.0054l-.001-.0013.001-.0043.004-.0028.004-.0038.006-.0013h.001l.004-.0029.001-.0071-.001-.0011-.002-.0013v-.0113h-.004l-.001.0029.001-.0043v-.0039l.008-.01376v-.01132l.001-.0011.003.0011.003-.0054.003-.0028v-.0028l-.001-.0029.001-.0013.005-.0011.003-.0057-.003.0013-.001-.0013-.004-.0013.001-.0029.001-.0013v-.0028h-.001v-.0024l.005-.0099.0109.0029.001.0013-.001-.0029-.001-.0013h-.006l-.001-.0013v-.0081l.004-.0095h.003l.005-.0029.001-.007.001-.0024v-.0041l-.001-.0016-.001.0016-.001-.0016-.001-.0028v-.0029l.001-.0039v-.0028h-.003v-.0029l.004-.0056h-.003l-.002-.0013v-.0024l.001-.0028v-.0029l.001-.0013v-.0029l.001-.0028v-.0024h-.0138l-.001-.0028.001-.01378h.001l.006-.0056.003.0028h.002l.001-.0028h.001l-.007-.0067v-.0057l.001-.0028v-.0029h-.001l-.003-.0013v-.0024l.003-.0028h.002v-.0029l-.002-.0013v-.01516l.004-.01103.001-.0028.001-.0043.003-.0052.001-.0013.001-.0043.003-.0043-.001-.0024-.003-.0013v-.007h.001v-.0043l.003-.0013v-.0039h.005l.001-.0043.001-.0029-.003-.0028v-.0024l.001-.0013.001-.0056v-.0029l.004-.0028.001-.0011h.002v-.0013l.01-.01516h.003v-.0029h.002l.001.0016h.006v-.0016l.001-.0056.001-.0013h.003v-.0013l-.001-.0013v-.0024h.003l.001-.0029.001-.0013.003-.0013h.001v-.0029l.001-.0028.001-.0011.003-.0043v-.0028l.004-.0028.001-.0068.001-.0013.001-.0029v-.0013l.001-.0029.007-.01087v-.0013h-.006v-.0013l.001-.0068.003-.0013h.005l.001-.0043.001-.0013v-.0029l.001-.0028v-.0024l.001-.0043.006-.0043.001-.0028h.001l.004-.0024.003-.0013.001-.0013h.004v-.0029l.001-.0056.003-.0024.001-.0028.004-.0016.003-.0028v-.0028l-.001-.0016v-.0028l.003-.0024v-.0056l.001-.0013v-.0029l.001-.0024.001-.0013v-.0056l-.003-.0013v-.0029h.008l.001-.0013.008-.0109.003-.0013v-.0016l-.001-.0028h.003v-.0024l.001-.0056.003-.0013.005-.0081v-.0056l-.002-.0013-.001-.0029-.003-.0013.004-.0095.001-.0013v.0013l-.001.0028.001.0029h.001l.003-.0016v.0016l.001.0028v-.0013l.001-.0029v-.0013l-.006-.0084.001-.0024.004-.0029v-.0041l.004-.0016.002-.0028.003.0043h.001l.001-.0029v-.0013l-.004-.0024.003.0013.001-.0013v-.007l.007-.0043.001-.0024.004-.0028v-.0016l.003-.0028-.001-.0056.003-.0068.0138-.01789v-.0043l.006-.0013.005-.0038.004-.0056.001-.0029.007-.0095.001-.0043.003-.0028.0138-.04134.003-.0041v-.0011l.003-.0013.004-.0013.005.0052v-.0052l.004-.0016h.003v-.0028h-.003l-.001-.0029.001-.0013.001-.0039.004-.0084h.002l.003-.0029.008-.0013.005-.0024h.004l.006.0024.001.0013h.003l.003-.0013-.001-.0011h-.003l-.002-.0028-.003-.0016v-.0028l.001-.0013.002-.0016.008-.0052v-.0028l.001-.0016.001-.0028v-.0029l.001-.0039.002-.0028.008-.0043.004-.0028v-.0029l.001-.0013-.001-.0011v-.0028l.002-.0043v-.0056l.001-.0013v-.0054l.001-.0013v-.0028h-.003l-.001-.0016.001-.0013-.001-.0039.001-.0013.008-.0099.004-.0039.002-.0043v-.0028l.001-.0016.001-.0038.008-.0113-.001-.0013v-.0024l.008-.01405.007-.0068v-.0013l.007-.007v-.0038l-.001-.0029v-.0028l.004-.0054.001-.0043.0124-.01228.006-.0013.003-.0016.001-.0013h.003l.007-.007h.003l.002-.0024.004-.0013h.003l.018-.0056.003-.0013.004-.0029.006-.0039.003-.0029h.002l.0127-.0041h.002l.001-.0013.006-.0016.003.0016.004.0028h.002l.001-.0013.004-.0029h.018l.001-.0013.007-.0024.007-.0043h.001l.002-.0013.004-.0028.006-.0043.001-.0038.001-.0013h.002l.004.0028.008.0081v.0028l.002.0043.001.0024v.0029l.001.0013h.001l-.001-.01103-.003-.007-.001-.0013-.002-.0013-.001-.0038-.006-.0029h-.003l-.005-.0043v-.0028l.001.0013.002-.0013.004-.0081.004-.0043.001-.0028.001-.0011.001-.0028.001-.0043.001-.0013v-.0029l.001-.0013.006.0013h.001l.004-.01087.002-.0013.001-.0016.006-.0013.003-.0013v-.0024h.001v.0013h.008l.001-.0013v-.0029l.001-.0013.003.0029h.008l.001-.0016zm-.8227-6.474-.1143.06198-.0758.02053.0455-.1072.1143-.03182zm.3845-.1391-.0166.0495v-.0495zm.1408-.0043-.0388-.01791.0455.01378zm-.2992-.0441.0194.01241zm-.4452.4989-.0328-.0222zm-.0384.1076-.0388.02466zm.0247.04794.0289.02082zm-.1171.04561.0593.0441-.0621-.03323zm1.116 3.317.0208.05789.007-.0043-.0466-.03171zm.0991-.02646-.0384-.02191.0247-.01516zm.0332.02371.0318.02893zm.0815.1185-.0166.01378zm-.0635.1651.004.04272zm-.0512-.02755.0455.02082zm-.1196-.1238.0508.03983-.0924.0081-.002-.03979zm-.1379.11-.008.0375-.0141-.0441zm.1764.02759-.1034-.04798.0289.0095.0469.01376zm-.1281.04022.1129.1224-.1337-.03708zm.0935.2135-.0247.03305-.0233.0016.001-.04022.0356-.05514.036.02082zm-.0261.1129-.007.0441.004-.02053zm-.0536.1366.0289.03309zm-.0635.2508.0303.02328zm.0649.08819.0328.06488-.0536-.05539zm-.2565.2673.018-.007-.0621.05112zm-.0744.07867.0208.04519zm.0497.03006.0289-.01765.018.0204zm.0441-1.75.0783.0357zm-4.969 5.323.0332.01945zm.0455.08294v.01516zm-.229.9369.1199-.2413.1171-.1375.146-.05941.1697-.03595.102-.02606.175-.0067.1418.02328.0152.0013.004.1845-.073.07454-.1517.3679-.1902.135-.2162.08255-.339-.2106zm5.297-4.829-.0275-.0028zm-1.546 2.559.018.0084zm.9014-1.246.0522.05923-.0536.08957-.006-.05496-.0204-.08407zm-.1143.2522.066.0222zm.2272-.7592-.12.1072.0981-.1172zm-.1224.1735.0138.0441-.043.01378zm-.8188 1.324-.0289.09098.0208-.03323zm-2.992 1.53.005.1047-.0289-.06353-.055-.04121.0385-.01516.0568-.04561.0152-.0013zm1.609-.55.0441.0028-.0646.01516zm-.0564.02741h.0483zm-.037.04974.005.0441zm.8294.4368.006.0441zm-.8872-.5733.0275-.04946zm2.801-8.514-.084.0013-.0289-.02604zm.0801-.0441-.0374.02082.0194-.02466zm-.01-.07966.0152.04121zm-.0109-.02368-.001.01651zm-.8033-.3542.0204.03034-.0247-.03034zm.9977 5.381-.0318.02368.0275-.0223zm-.2618-1.228.1542.07165-.0536.03708-.1626-.06311-.054-.02082zm-1.34 4.016.0219.01654zm-.1394.157.0138.0441-.0441-.03708zm-2.784 1.645.0635-.03708.01.01765zm1.172-.7759-.007-.04685.007-.01939zm.0868-.07151-.0399-.02371zm-.2452.1361-.0289.08435-.0896-.02508.0797-.04657zm.6089-.2575.0194-.08146.01.03171zm-.332.0635.003-.0013zm2.305-8.007h.0385z" fill="none" stroke="#b6242a" stroke-linecap="round" stroke-linejoin="round" stroke-width=".5868"/><path d="m110.5 58.16 1.826-2.293 1.049-2.205 2.514-2.778 3.157-3.085-.8777 7.095-.9327-.3747-.7913.2605-1.009.7813-.642 1.079.7108 2.766z" fill="none" stroke="#0f0" stroke-linecap="round" stroke-linejoin="round" stroke-width=".5868"/><path d="m119.5 47.82c0 .2272-.175.412-.3916.412-.2162 0-.3912-.1848-.3912-.412 0-.2289.175-.4134.3912-.4134.2166 0 .3916.1845.3916.4134z" fill="#00f"/><path d="m119.5 47.82c0 .2272-.175.412-.3916.412-.2162 0-.3912-.1848-.3912-.412 0-.2289.175-.4134.3912-.4134.2166 0 .3916.1845.3916.4134z" fill="none" stroke="#fff" stroke-linecap="round" stroke-linejoin="round" stroke-width=".1467"/><path d="m118.6 54.88c0 .2275-.175.4134-.3916.4134-.2162 0-.3912-.1859-.3912-.4134 0-.2286.175-.4134.3912-.4134.2166 0 .3916.1848.3916.4134z" fill="#00f"/><path d="m118.6 54.88c0 .2275-.175.4134-.3916.4134-.2162 0-.3912-.1859-.3912-.4134 0-.2286.175-.4134.3912-.4134.2166 0 .3916.1848.3916.4134z" fill="none" stroke="#fff" stroke-linecap="round" stroke-linejoin="round" stroke-width=".1467"/><path d="m117.7 54.54c0 .2289-.175.4134-.3912.4134-.2166 0-.3916-.1845-.3916-.4134 0-.2273.175-.412.3916-.412.2163 0 .3912.1848.3912.412z" fill="#00f"/><path d="m117.7 54.54c0 .2289-.175.4134-.3912.4134-.2166 0-.3916-.1845-.3916-.4134 0-.2273.175-.412.3916-.412.2163 0 .3912.1848.3912.412z" fill="none" stroke="#fff" stroke-linecap="round" stroke-linejoin="round" stroke-width=".1467"/><path d="m116.9 54.8c0 .2289-.175.4134-.3912.4134-.2166 0-.3916-.1845-.3916-.4134 0-.2273.175-.412.3916-.412.2163 0 .3912.1848.3912.412z" fill="#00f"/><path d="m116.9 54.8c0 .2289-.175.4134-.3912.4134-.2166 0-.3916-.1845-.3916-.4134 0-.2273.175-.412.3916-.412.2163 0 .3912.1848.3912.412z" fill="none" stroke="#fff" stroke-linecap="round" stroke-linejoin="round" stroke-width=".1467"/><path d="m115.9 55.57c0 .229-.175.4135-.3912.4135s-.3912-.1845-.3912-.4135c0-.2271.175-.4134.3912-.4134s.3912.1863.3912.4134z" fill="#00f"/><path d="m115.9 55.57c0 .229-.175.4135-.3912.4135s-.3912-.1845-.3912-.4135c0-.2271.175-.4134.3912-.4134s.3912.1863.3912.4134z" fill="none" stroke="#fff" stroke-linecap="round" stroke-linejoin="round" stroke-width=".1467"/><path d="m115.2 56.66c0 .2289-.175.4134-.3916.4134-.2163 0-.3912-.1845-.3912-.4134 0-.2273.175-.412.3912-.412.2166 0 .3916.1848.3916.412z" fill="#00f"/><path d="m115.2 56.66c0 .2289-.175.4134-.3916.4134-.2163 0-.3912-.1845-.3912-.4134 0-.2273.175-.412.3912-.412.2166 0 .3916.1848.3916.412z" fill="none" stroke="#fff" stroke-linecap="round" stroke-linejoin="round" stroke-width=".1467"/><path d="m116 59.41c0 .229-.175.4135-.3912.4135-.2166 0-.3916-.1845-.3916-.4135 0-.2271.175-.4134.3916-.4134.2162 0 .3912.1863.3912.4134z" fill="#00f"/><path d="m116 59.41c0 .229-.175.4135-.3912.4135-.2166 0-.3916-.1845-.3916-.4135 0-.2271.175-.4134.3916-.4134.2162 0 .3912.1863.3912.4134z" fill="none" stroke="#fff" stroke-linecap="round" stroke-linejoin="round" stroke-width=".1467"/><path d="m110.9 58.16c0 .2273-.175.4122-.3912.4122-.2166 0-.3916-.1849-.3916-.4122 0-.2289.175-.4134.3916-.4134.2162 0 .3912.1845.3912.4134z" fill="#00f"/><path d="m110.9 58.16c0 .2273-.175.4122-.3912.4122-.2166 0-.3916-.1849-.3916-.4122 0-.2289.175-.4134.3916-.4134.2162 0 .3912.1845.3912.4134z" fill="none" stroke="#fff" stroke-linecap="round" stroke-linejoin="round" stroke-width=".1467"/><path d="m112.8 55.89c0 .2272-.175.412-.3916.412-.2162 0-.3912-.1848-.3912-.412 0-.2289.175-.4134.3912-.4134.2166 0 .3916.1845.3916.4134z" fill="#00f"/><path d="m112.8 55.89c0 .2272-.175.412-.3916.412-.2162 0-.3912-.1848-.3912-.412 0-.2289.175-.4134.3912-.4134.2166 0 .3916.1845.3916.4134z" fill="none" stroke="#fff" stroke-linecap="round" stroke-linejoin="round" stroke-width=".1467"/><path d="m113.8 53.67c0 .2273-.175.4122-.3916.4122-.2162 0-.3912-.1849-.3912-.4122 0-.2289.175-.4134.3912-.4134.2166 0 .3916.1845.3916.4134z" fill="#00f"/><path d="m113.8 53.67c0 .2273-.175.4122-.3916.4122-.2162 0-.3912-.1849-.3912-.4122 0-.2289.175-.4134.3912-.4134.2166 0 .3916.1845.3916.4134z" fill="none" stroke="#fff" stroke-linecap="round" stroke-linejoin="round" stroke-width=".1467"/><path d="m116.3 50.89c0 .2273-.175.4122-.3916.4122-.2163 0-.3912-.1849-.3912-.4122 0-.2289.175-.4134.3912-.4134.2166 0 .3916.1845.3916.4134z" fill="#00f"/><path d="m116.3 50.89c0 .2273-.175.4122-.3916.4122-.2163 0-.3912-.1849-.3912-.4122 0-.2289.175-.4134.3912-.4134.2166 0 .3916.1845.3916.4134z" fill="none" stroke="#fff" stroke-linecap="round" stroke-linejoin="round" stroke-width=".1467"/><g fill="#00a400" stroke-width=".3528"><path d="m79.56 34.9q0-.3101-.1287-.4806-.1271-.1705-.3581-.1705-.2294 0-.3581.1705-.1271.1705-.1271.4806 0 .3085.1271.479.1287.1705.3581.1705.231 0 .3581-.1705.1287-.1705.1287-.479zm.2853.6728q0 .4434-.1969.6589-.1969.217-.6031.217-.1504 0-.2837-.02325-.1333-.02171-.2589-.06821v-.2775q.1256.06821.248.1008.1225.03256.2496.03256.2806 0 .4201-.1473.1395-.1457.1395-.4418v-.1411q-.08837.1535-.2263.2294-.138.07596-.3302.07596-.3194 0-.5147-.2434-.1953-.2434-.1953-.6449 0-.4031.1953-.6465.1953-.2434.5147-.2434.1922 0 .3302.07596.138.07596.2263.2294v-.2636h.2853z"/><path d="m81.92 34.85v.1395h-1.312q.0186.2946.1767.4496.1597.1535.4434.1535.1643 0 .3178-.04031.155-.04031.307-.1209v.2698q-.1535.06511-.3147.09922-.1612.03411-.3271.03411-.4155 0-.6589-.2418-.2418-.2418-.2418-.6542 0-.4263.2294-.6759.231-.2511.6217-.2511.3504 0 .5535.2263.2046.2248.2046.6124zm-.2853-.08372q-.0031-.2341-.1318-.3736-.1271-.1395-.338-.1395-.2387 0-.3829.1349-.1426.1349-.1643.3798z"/><path d="m82.67 33.56v.493h.5876v.2217h-.5876v.9426q0 .2124.05736.2729.05891.06046.2372.06046h.293v.2387h-.293q-.3302 0-.4558-.1225-.1256-.124-.1256-.4496v-.9426h-.2093v-.2217h.2093v-.493z"/><path d="m83.91 33.56v.493h.5876v.2217h-.5876v.9426q0 .2124.05736.2729.05891.06046.2372.06046h.293v.2387h-.293q-.3302 0-.4558-.1225-.1256-.124-.1256-.4496v-.9426h-.2093v-.2217h.2093v-.493z"/><path d="m84.88 34.06h.2853v1.736h-.2853zm0-.6759h.2853v.3612h-.2853z"/><path d="m87.2 34.74v1.048h-.2853v-1.039q0-.2465-.09612-.369-.09612-.1225-.2884-.1225-.231 0-.3643.1473-.1333.1473-.1333.4015v.9813h-.2868v-1.736h.2868v.2698q.1023-.1566.2403-.2341.1395-.07751.3209-.07751.2992 0 .4527.186.1535.1845.1535.5442z"/><path d="m88.91 34.9q0-.3101-.1287-.4806-.1271-.1705-.3581-.1705-.2294 0-.3581.1705-.1271.1705-.1271.4806 0 .3085.1271.479.1287.1705.3581.1705.231 0 .3581-.1705.1287-.1705.1287-.479zm.2853.6728q0 .4434-.1969.6589-.1969.217-.6031.217-.1504 0-.2837-.02325-.1333-.02171-.2589-.06821v-.2775q.1256.06821.248.1008.1225.03256.2496.03256.2806 0 .4201-.1473.1395-.1457.1395-.4418v-.1411q-.08837.1535-.2263.2294-.138.07596-.3302.07596-.3194 0-.5147-.2434-.1953-.2434-.1953-.6449 0-.4031.1953-.6465.1953-.2434.5147-.2434.1922 0 .3302.07596.138.07596.2263.2294v-.2636h.2853z"/><path d="m91.08 33.56v.493h.5876v.2217h-.5876v.9426q0 .2124.05736.2729.05891.06046.2372.06046h.293v.2387h-.293q-.3302 0-.4558-.1225-.1256-.124-.1256-.4496v-.9426h-.2093v-.2217h.2093v-.493z"/><path d="m93.48 34.74v1.048h-.2853v-1.039q0-.2465-.09612-.369-.09612-.1225-.2884-.1225-.231 0-.3643.1473-.1333.1473-.1333.4015v.9813h-.2868v-2.412h.2868v.9457q.1023-.1566.2403-.2341.1395-.07751.3209-.07751.2992 0 .4527.186.1535.1845.1535.5442z"/><path d="m95.55 34.85v.1395h-1.312q.0186.2946.1767.4496.1597.1535.4434.1535.1643 0 .3178-.04031.155-.04031.307-.1209v.2698q-.1535.06511-.3147.09922-.1612.03411-.3271.03411-.4155 0-.6589-.2418-.2418-.2418-.2418-.6542 0-.4263.2294-.6759.231-.2511.6217-.2511.3504 0 .5535.2263.2046.2248.2046.6124zm-.2853-.08372q-.0031-.2341-.1318-.3736-.1271-.1395-.338-.1395-.2387 0-.3829.1349-.1426.1349-.1643.3798z"/><path d="m97.7 34.26q-.2294 0-.3628.1798-.1333.1783-.1333.4899 0 .3116.1318.4914.1333.1783.3643.1783.2279 0 .3612-.1798.1333-.1798.1333-.4899 0-.3085-.1333-.4883-.1333-.1814-.3612-.1814zm0-.2418q.3721 0 .5845.2418.2124.2418.2124.6697 0 .4263-.2124.6697-.2124.2418-.5845.2418-.3736 0-.586-.2418-.2108-.2434-.2108-.6697 0-.4279.2108-.6697.2124-.2418.586-.2418z"/><path d="m99.25 35.53v.9209h-.2868v-2.397h.2868v.2636q.08992-.155.2263-.2294.138-.07596.3287-.07596.3163 0 .5131.2511.1984.2511.1984.6604 0 .4093-.1984.6604-.1969.2511-.5131.2511-.1907 0-.3287-.07441-.1364-.07597-.2263-.231zm.9705-.6062q0-.3147-.1302-.493-.1287-.1798-.355-.1798-.2263 0-.3566.1798-.1287.1783-.1287.493 0 .3147.1287.4945.1302.1783.3566.1783.2264 0 .355-.1783.1302-.1798.1302-.4945z"/><path d="m101.3 33.56v.493h.5876v.2217h-.5876v.9426q0 .2124.0574.2729.0589.06046.2372.06046h.293v.2387h-.293q-.3302 0-.4558-.1225-.1256-.124-.1256-.4496v-.9426h-.2093v-.2217h.2093v-.493z"/><path d="m102.2 34.06h.2852v1.736h-.2852zm0-.6759h.2852v.3612h-.2852z"/><path d="m104.5 34.39q.107-.1922.2558-.2837.1488-.09147.3504-.09147.2713 0 .4186.1907.1473.1891.1473.5395v1.048h-.2868v-1.039q0-.2496-.0884-.3705-.0884-.1209-.2698-.1209-.2217 0-.3504.1473-.1287.1473-.1287.4015v.9813h-.2868v-1.039q0-.2511-.0884-.3705-.0884-.1209-.2729-.1209-.2186 0-.3473.1488-.1287.1473-.1287.4v.9813h-.2868v-1.736h.2868v.2698q.0977-.1597.2341-.2356.1364-.07596.324-.07596.1891 0 .3209.09612.1333.09612.1969.2791z"/><path d="m107 34.92q-.3457 0-.479.07906-.1333.07906-.1333.2698 0 .1519.0992.2418.1008.08837.2728.08837.2372 0 .3798-.1674.1442-.169.1442-.448v-.06356zm.569-.1178v.9906h-.2852v-.2636q-.0977.1581-.2434.2341-.1457.07441-.3566.07441-.2666 0-.4248-.1488-.1566-.1504-.1566-.4015 0-.293.1953-.4418.1969-.1488.586-.1488h.4v-.0279q0-.1969-.1302-.3039-.1287-.1085-.3628-.1085-.1488 0-.2899.03566-.1411.03566-.2713.107v-.2636q.1566-.06046.3038-.08992.1473-.03101.2868-.03101.3767 0 .5628.1953.186.1953.186.5922z"/><path d="m108.2 33.38h.2852v2.412h-.2852z"/><path d="m111.2 34.11v.2698q-.1209-.06201-.2511-.09302-.1302-.03101-.2698-.03101-.2124 0-.3194.06511-.1054.06511-.1054.1953 0 .09922.076.1566.076.05581.3054.107l.0977.0217q.3038.06511.431.1845.1287.1178.1287.3302 0 .2418-.1922.3829-.1907.1411-.5256.1411-.1395 0-.2915-.02791-.1504-.02635-.3178-.08062v-.2945q.1581.08217.3116.124.1535.04031.3039.04031.2015 0 .3101-.06821.1085-.06976.1085-.1953 0-.1163-.0791-.1783-.0775-.06201-.3426-.1194l-.0992-.02325q-.2651-.05581-.3829-.1705-.1178-.1163-.1178-.3178 0-.2449.1736-.3783.1736-.1333.493-.1333.1581 0 .2977.02325.1395.02325.2573.06976z"/><path d="m112.4 34.26q-.2294 0-.3628.1798-.1333.1783-.1333.4899 0 .3116.1318.4914.1333.1783.3643.1783.2279 0 .3612-.1798.1333-.1798.1333-.4899 0-.3085-.1333-.4883-.1333-.1814-.3612-.1814zm0-.2418q.3721 0 .5845.2418.2124.2418.2124.6697 0 .4263-.2124.6697-.2124.2418-.5845.2418-.3736 0-.586-.2418-.2108-.2434-.2108-.6697 0-.4279.2108-.6697.2124-.2418.586-.2418z"/><path d="m113.6 33.38h.2852v2.412h-.2852z"/><path d="m114.5 35.11v-1.051h.2853v1.04q0 .2465.0961.3705.0961.1225.2884.1225.231 0 .3643-.1473.1349-.1473.1349-.4015v-.9844h.2852v1.736h-.2852v-.2666q-.1039.1581-.2418.2356-.1364.07596-.3178.07596-.2992 0-.4542-.186-.155-.186-.155-.5442z"/><path d="m116.8 33.56v.493h.5876v.2217h-.5876v.9426q0 .2124.0574.2729.0589.06046.2372.06046h.293v.2387h-.293q-.3302 0-.4558-.1225-.1256-.124-.1256-.4496v-.9426h-.2093v-.2217h.2093v-.493z"/><path d="m117.8 34.06h.2853v1.736h-.2853zm0-.6759h.2853v.3612h-.2853z"/><path d="m119.3 34.26q-.2294 0-.3628.1798-.1333.1783-.1333.4899 0 .3116.1318.4914.1333.1783.3643.1783.2279 0 .3612-.1798.1333-.1798.1333-.4899 0-.3085-.1333-.4883-.1333-.1814-.3612-.1814zm0-.2418q.3721 0 .5845.2418.2124.2418.2124.6697 0 .4263-.2124.6697-.2124.2418-.5845.2418-.3736 0-.586-.2418-.2108-.2434-.2108-.6697 0-.4279.2108-.6697.2124-.2418.586-.2418z"/><path d="m122 34.74v1.048h-.2852v-1.039q0-.2465-.0961-.369-.0961-.1225-.2884-.1225-.231 0-.3643.1473-.1333.1473-.1333.4015v.9813h-.2868v-1.736h.2868v.2698q.1023-.1566.2403-.2341.1395-.07751.3209-.07751.2992 0 .4527.186.1535.1845.1535.5442z"/><path d="m79.3 37.79v.2372h-.2729q-.1535 0-.2139.06201-.05891.06201-.05891.2232v.1535h.4697v.2217h-.4697v1.515h-.2868v-1.515h-.2729v-.2217h.2729v-.1209q0-.2899.1349-.4217.1349-.1333.4279-.1333z"/><path d="m80.21 38.67q-.2294 0-.3628.1798-.1333.1783-.1333.4899 0 .3116.1318.4914.1333.1783.3643.1783.2279 0 .3612-.1798.1333-.1798.1333-.4899 0-.3085-.1333-.4883-.1333-.1814-.3612-.1814zm0-.2418q.3721 0 .5845.2418.2124.2418.2124.6697 0 .4263-.2124.6697-.2124.2418-.5845.2418-.3736 0-.586-.2418-.2108-.2434-.2108-.6697 0-.4279.2108-.6697.2124-.2418.586-.2418z"/><path d="m82.48 38.73q-.04806-.02791-.1054-.04031-.05581-.01395-.124-.01395-.2418 0-.3721.1581-.1287.1566-.1287.4511v.9147h-.2868v-1.736h.2868v.2698q.08992-.1581.2341-.2341.1442-.07751.3504-.07751.02945 0 .06511.0047.03566.0031.07906.01085z"/><path d="m84.58 39.33q-.3457 0-.479.07906-.1333.07906-.1333.2698 0 .1519.09922.2418.1008.08837.2729.08837.2372 0 .3798-.1674.1442-.169.1442-.448v-.06356zm.569-.1178v.9906h-.2853v-.2636q-.09767.1581-.2434.2341-.1457.07441-.3566.07441-.2667 0-.4248-.1488-.1566-.1504-.1566-.4015 0-.293.1953-.4418.1969-.1488.586-.1488h.4v-.0279q0-.1969-.1302-.3039-.1287-.1085-.3628-.1085-.1488 0-.2899.03566-.1411.03566-.2713.107v-.2636q.1566-.06046.3039-.08992.1473-.03101.2868-.03101.3767 0 .5628.1953.186.1953.186.5922z"/><path d="m86.44 37.89h1.958v.2636h-.8217v2.051h-.3147v-2.051h-.8217z"/><path d="m90.09 37.96v.3054q-.1783-.08527-.3364-.1271-.1581-.04186-.3054-.04186-.2558 0-.3953.09922-.138.09922-.138.2822 0 .1535.09147.2325.09302.07751.3504.1256l.1891.03876q.3504.06666.5162.2356.1674.1674.1674.4496 0 .3364-.2263.51-.2248.1736-.6604.1736-.1643 0-.3504-.03721-.1845-.03721-.3829-.1101v-.3225q.1907.107.3736.1612.1829.05426.3597.05426.2682 0 .4139-.1054.1457-.1054.1457-.3008 0-.1705-.1054-.2666-.1039-.09612-.3426-.1442l-.1907-.03721q-.3504-.06976-.5069-.2186-.1566-.1488-.1566-.4139 0-.307.2155-.4837.217-.1767.5969-.1767.1628 0 .3318.02946.169.02945.3457.08837z"/><path d="m91.03 38.14v.8697h.3938q.2186 0 .338-.1132.1194-.1132.1194-.3225 0-.2077-.1194-.3209-.1194-.1132-.338-.1132zm-.3132-.2573h.7069q.3891 0 .5876.1767.2.1752.2.5147 0 .3426-.2.5178-.1984.1752-.5876.1752h-.3938v.9302h-.3132z"/><path d="m94.98 38.8q.107-.1922.2558-.2837.1488-.09147.3504-.09147.2713 0 .4186.1907.1473.1891.1473.5395v1.048h-.2868v-1.039q0-.2496-.08837-.3705-.08837-.1209-.2698-.1209-.2217 0-.3504.1473-.1287.1473-.1287.4015v.9813h-.2868v-1.039q0-.2511-.08837-.3705-.08837-.1209-.2729-.1209-.2186 0-.3473.1488-.1287.1473-.1287.4v.9813h-.2868v-1.736h.2868v.2698q.09767-.1597.2341-.2356.1364-.07596.324-.07596.1891 0 .3209.09612.1333.09612.1969.2791z"/><path d="m97.51 39.33q-.3457 0-.479.07906-.1333.07906-.1333.2698 0 .1519.09922.2418.1008.08837.2729.08837.2372 0 .3798-.1674.1442-.169.1442-.448v-.06356zm.569-.1178v.9906h-.2853v-.2636q-.09767.1581-.2434.2341-.1457.07441-.3566.07441-.2666 0-.4248-.1488-.1566-.1504-.1566-.4015 0-.293.1953-.4418.1969-.1488.586-.1488h.4v-.0279q0-.1969-.1302-.3039-.1287-.1085-.3628-.1085-.1488 0-.2899.03566-.1411.03566-.2713.107v-.2636q.1566-.06046.3039-.08992.1473-.03101.2868-.03101.3767 0 .5628.1953.186.1953.186.5922z"/><path d="m99.4 40.36q-.1209.3101-.2356.4046-.1147.09457-.307.09457h-.2279v-.2387h.1674q.1178 0 .1829-.05581.06511-.05581.1442-.2636l.05116-.1302-.7023-1.708h.3023l.5426 1.358.5426-1.358h.3023z"/><path d="m101.9 37.97v.493h.5876v.2217h-.5876v.9426q0 .2124.0574.2729.0589.06046.2372.06046h.293v.2387h-.293q-.3302 0-.4558-.1225-.1256-.124-.1256-.4496v-.9426h-.2093v-.2217h.2093v-.493z"/><path d="m103.6 39.33q-.3457 0-.479.07906-.1333.07906-.1333.2698 0 .1519.0992.2418.1008.08837.2728.08837.2372 0 .3798-.1674.1442-.169.1442-.448v-.06356zm.569-.1178v.9906h-.2852v-.2636q-.0977.1581-.2434.2341-.1457.07441-.3566.07441-.2666 0-.4248-.1488-.1566-.1504-.1566-.4015 0-.293.1953-.4418.1969-.1488.586-.1488h.4v-.0279q0-.1969-.1302-.3039-.1287-.1085-.3628-.1085-.1488 0-.2899.03566-.1411.03566-.2713.107v-.2636q.1566-.06046.3039-.08992.1473-.03101.2868-.03101.3767 0 .5628.1953.186.1953.186.5922z"/><path d="m104.7 37.79h.2868v1.425l.8511-.7488h.3643l-.9209.8124.9596.924h-.3721l-.8821-.848v.848h-.2868z"/><path d="m108 39.26v.1395h-1.312q.0186.2946.1767.4496.1597.1535.4434.1535.1643 0 .3178-.04031.155-.04031.307-.1209v.2698q-.1535.06511-.3147.09922-.1612.03411-.3271.03411-.4155 0-.6589-.2418-.2418-.2418-.2418-.6542 0-.4263.2294-.6759.231-.2511.6217-.2511.3504 0 .5534.2263.2046.2248.2046.6124zm-.2853-.08372q-.003-.2341-.1318-.3736-.1271-.1395-.338-.1395-.2388 0-.3829.1349-.1426.1349-.1643.3798z"/><path d="m109.7 37.97v.493h.5876v.2217h-.5876v.9426q0 .2124.0574.2729.0589.06046.2372.06046h.293v.2387h-.293q-.3302 0-.4558-.1225-.1256-.124-.1256-.4496v-.9426h-.2093v-.2217h.2093v-.493z"/><path d="m111.4 38.67q-.2294 0-.3628.1798-.1333.1783-.1333.4899 0 .3116.1318.4914.1333.1783.3643.1783.2279 0 .3612-.1798.1333-.1798.1333-.4899 0-.3085-.1333-.4883-.1333-.1814-.3612-.1814zm0-.2418q.3721 0 .5845.2418.2124.2418.2124.6697 0 .4263-.2124.6697-.2124.2418-.5845.2418-.3736 0-.586-.2418-.2108-.2434-.2108-.6697 0-.4279.2108-.6697.2124-.2418.586-.2418z"/><path d="m113.3 38.67q-.2294 0-.3628.1798-.1333.1783-.1333.4899 0 .3116.1318.4914.1333.1783.3643.1783.2279 0 .3612-.1798.1333-.1798.1333-.4899 0-.3085-.1333-.4883-.1333-.1814-.3612-.1814zm0-.2418q.3721 0 .5845.2418.2124.2418.2124.6697 0 .4263-.2124.6697-.2124.2418-.5845.2418-.3736 0-.586-.2418-.2108-.2434-.2108-.6697 0-.4279.2108-.6697.2124-.2418.586-.2418z"/><path d="m115.6 37.79h.2852v2.412h-.2852z"/><path d="m117.2 38.67q-.2294 0-.3628.1798-.1333.1783-.1333.4899 0 .3116.1318.4914.1333.1783.3643.1783.2279 0 .3612-.1798.1333-.1798.1333-.4899 0-.3085-.1333-.4883-.1333-.1814-.3612-.1814zm0-.2418q.3721 0 .5845.2418.2124.2418.2124.6697 0 .4263-.2124.6697-.2124.2418-.5845.2418-.3736 0-.586-.2418-.2108-.2434-.2108-.6697 0-.4279.2108-.6697.2124-.2418.586-.2418z"/><path d="m119.9 39.15v1.048h-.2852v-1.039q0-.2465-.0961-.369-.0961-.1225-.2884-.1225-.231 0-.3643.1473-.1333.1473-.1333.4015v.9813h-.2868v-1.736h.2868v.2698q.1023-.1566.2403-.2341.1395-.07751.3209-.07751.2992 0 .4527.186.1535.1845.1535.5442z"/><path d="m121.6 39.31q0-.3101-.1287-.4806-.1271-.1705-.3581-.1705-.2294 0-.3581.1705-.1271.1705-.1271.4806 0 .3085.1271.479.1287.1705.3581.1705.231 0 .3581-.1705.1287-.1705.1287-.479zm.2852.6728q0 .4434-.1969.6589-.1969.217-.6031.217-.1504 0-.2837-.02325-.1333-.0217-.2589-.06821v-.2775q.1256.06821.248.1008.1225.03256.2496.03256.2806 0 .4201-.1473.1395-.1457.1395-.4418v-.1411q-.0884.1535-.2263.2294-.138.07597-.3302.07597-.3194 0-.5147-.2434-.1953-.2434-.1953-.6449 0-.4031.1953-.6465.1953-.2434.5147-.2434.1922 0 .3302.07596.138.07596.2263.2294v-.2636h.2852z"/></g><g font-family="sans-serif" font-size="3.175" letter-spacing="0" stroke-width=".2646" word-spacing="0"><text x="43.600437" y="69.949043"><tspan font-family="sans-serif" font-size="3.175" stroke-width=".2646" x="43.600437" y="69.949043">consumed runtime:</tspan></text><text x="83.704018" y="69.949043"><tspan font-family="sans-serif" font-size="3.175" stroke-width=".2646" x="83.704018" y="69.949043">very much / too (?) long</tspan></text></g></svg>