<svg height="147.26pt" viewBox="0 0 428.83 147.26" width="428.83pt" xmlns="http://www.w3.org/2000/svg" xmlns:xlink="http://www.w3.org/1999/xlink"><symbol id="a" overflow="visible"><path d="m0-2.125h-4v1.3125h-.5625c.011719-.38281-.070312-.69531-.25-.9375-.17578-.25-.44531-.42969-.8125-.54688v-.57812h5.625z"/></symbol><symbol id="b" overflow="visible"><path d="m.15625-2.2188c0 .61719-.25 1.0898-.75 1.4219-.5.33594-1.2109.5-2.1406.5-.92578 0-1.6406-.16406-2.1406-.5-.5-.33203-.75-.80469-.75-1.4219 0-.625.25-1.1016.75-1.4375.5-.33203 1.2148-.5 2.1406-.5.92969 0 1.6406.16797 2.1406.5.5.33594.75.8125.75 1.4375zm-.64062 0c0-.39453-.1875-.69141-.5625-.89062-.375-.19531-.9375-.29688-1.6875-.29688s-1.3125.10156-1.6875.29688c-.38281.19922-.57812.49609-.57812.89062 0 .38672.19531.67969.57812.875.375.19922.9375.29688 1.6875.29688s1.3125-.097656 1.6875-.29688c.375-.19531.5625-.48828.5625-.875z"/></symbol><symbol id="c" overflow="visible"><path d="m-3.9688-4.0625c.41797 0 .76172.10938 1.0312.32812.26172.21094.55469.60547.875 1.1875.34375.63672.66406 1.0703.95312 1.2969.125.10547.26562.1875.42188.25v-3.0625h.6875v3.8594c-.59375 0-1.0781-.14453-1.4531-.4375-.375-.30078-.78516-.85938-1.2344-1.6719-.21875-.38281-.41406-.64844-.59375-.79688-.1875-.14453-.42188-.21875-.70312-.21875-.30078 0-.54688.10938-.73438.32812-.19531.21094-.29688.48047-.29688.8125 0 .35547.12109.63281.35938.82812.24219.19922.57812.30469 1.0156.3125v.6875c-.61328.011719-1.0977-.15625-1.4531-.5-.35156-.34375-.53125-.81641-.53125-1.4219 0-.51953.15625-.94531.46875-1.2812.30469-.33203.69922-.5 1.1875-.5z"/></symbol><symbol id="d" overflow="visible"><path d="m-5.625-2.375c0-.5.13672-.89453.40625-1.1875.26172-.28906.625-.44531 1.0938-.46875v.6875c-.28125.03125-.49219.13281-.64062.29688-.15625.16797-.23438.39062-.23438.67188 0 .42969.21094.76172.625 1 .36719.19922.85547.30859 1.4688.32812-.44531-.34375-.67188-.78516-.67188-1.3281 0-.53125.17188-.95703.51562-1.2812.34375-.32031.79297-.48438 1.3438-.48438.5625 0 1.0156.17969 1.3594.53125.34375.34375.51562.80859.51562 1.3906 0 .61719-.23828 1.0898-.71875 1.4219-.47656.32422-1.1562.48438-2.0312.48438-.96875 0-1.7188-.17578-2.25-.53125-.51953-.36328-.78125-.875-.78125-1.5312zm3.9062 1.25c.36719 0 .66406-.10156.89062-.3125.23047-.21875.34375-.49219.34375-.82812 0-.33203-.11328-.60156-.34375-.8125-.22656-.21875-.52344-.32812-.89062-.32812-.35156 0-.64453.10938-.875.32812-.23828.21094-.35938.48047-.35938.8125 0 .33594.12109.60938.35938.82812.23047.21094.52344.3125.875.3125z"/></symbol><symbol id="e" overflow="visible"><path d="m-2.9844-3.2031c.074219-.14453.16406-.28125.26562-.40625.28125-.35156.65625-.53125 1.125-.53125.52344 0 .94531.17969 1.2656.53125.32422.35547.48438.82031.48438 1.3906 0 .57422-.16016 1.0391-.48438 1.3906-.32031.34375-.74219.51562-1.2656.51562-.46875 0-.84766-.17188-1.1406-.51562-.09375-.125-.17188-.25781-.23438-.40625-.050781.09375-.10938.18359-.17188.26562-.25.3125-.57031.46875-.96875.46875-.45703 0-.82031-.15625-1.0938-.46875-.28125-.32031-.42188-.73828-.42188-1.25 0-.51953.14062-.9375.42188-1.25.27344-.3125.63672-.46875 1.0938-.46875.39844 0 .71875.15625.96875.46875.0625.085938.11719.17188.15625.26562zm-.28125.98438c0-.28906-.078125-.52344-.23438-.70312-.16406-.1875-.375-.28125-.625-.28125-.25781 0-.46875.09375-.625.28125-.16406.17969-.25.41406-.25.70312 0 .28125.085938.51562.25.70312.15625.17969.36719.26562.625.26562.25 0 .45312-.085938.60938-.26562.16797-.1875.25-.42188.25-.70312zm.60938 0c0 .34375.10547.625.3125.84375.19922.21875.46094.32812.78125.32812.3125 0 .57422-.10938.78125-.32812.19922-.21875.29688-.5.29688-.84375s-.097656-.625-.29688-.84375c-.20703-.21875-.46875-.32812-.78125-.32812-.32031 0-.58594.10938-.79688.32812-.19531.21875-.29688.5-.29688.84375z"/></symbol><symbol id="f" overflow="visible"><path d="m2.125 0v-4h-1.3125v-.5625c.38281.011719.69531-.070312.9375-.25.25-.17578.42969-.44531.54688-.8125h.57812v5.625z"/></symbol><symbol id="g" overflow="visible"><path d="m2.2188.15625c-.61719 0-1.0898-.25-1.4219-.75-.33594-.5-.5-1.2109-.5-2.1406 0-.92578.16406-1.6406.5-2.1406.33203-.5.80469-.75 1.4219-.75.625 0 1.1016.25 1.4375.75.33203.5.5 1.2148.5 2.1406 0 .92969-.16797 1.6406-.5 2.1406-.33594.5-.8125.75-1.4375.75zm0-.64062c.39453 0 .69141-.1875.89062-.5625.19531-.375.29688-.9375.29688-1.6875s-.10156-1.3125-.29688-1.6875c-.19922-.38281-.49609-.57812-.89062-.57812-.38672 0-.67969.19531-.875.57812-.19922.375-.29688.9375-.29688 1.6875s.097656 1.3125.29688 1.6875c.19531.375.48828.5625.875.5625z"/></symbol><symbol id="h" overflow="visible"><path d="m.65625 0v-4.3906h.6875v.75c.0625-.11328.12891-.22266.20312-.32812.28125-.36328.625-.54688 1.0312-.54688.070313 0 .14453.011719.21875.03125v.75h-.15625c-.39844 0-.70312.12109-.92188.35938-.21875.24219-.32812.57812-.32812 1.0156v2.3594z"/></symbol><symbol id="i" overflow="visible"><path d="m3.0625-3.125c-.023438-.23828-.12109-.42578-.29688-.5625-.17969-.13281-.41797-.20312-.71875-.20312-.30469 0-.53906.058594-.70312.17188-.15625.10547-.23438.25781-.23438.45312 0 .15625.054687.27734.17188.35938.11328.085938.33594.16406.67188.23438l.76562.1875c.42578.10547.72656.24609.90625.42188.1875.1875.28125.44531.28125.76562 0 .4375-.16406.78906-.48438 1.0469-.3125.25-.73438.375-1.2656.375-.61719 0-1.0781-.12109-1.3906-.35938-.30469-.25-.46875-.64062-.5-1.1719h.71875c.03125.3125.14062.54297.32812.6875.1875.13672.46875.20312.84375.20312.33203 0 .58203-.0625.75-.1875.17578-.125.26562-.30469.26562-.54688 0-.15625-.058594-.27344-.17188-.35938-.11719-.070313-.33984-.14844-.67188-.23438l-.76562-.1875c-.41797-.09375-.71484-.22656-.89062-.40625-.16797-.17578-.25-.42188-.25-.73438 0-.41406.14453-.74219.4375-.98438.28906-.23828.6875-.35938 1.1875-.35938.50781 0 .91406.125 1.2188.375.3125.24219.47266.57812.48438 1.0156z"/></symbol><symbol id="j" overflow="visible"><path d="m1.4688-3.7812v3.7812h-.75v-3.7812h-.59375v-.60938h.59375v-.75c0-.32031.09375-.56641.28125-.73438.19531-.16406.48828-.25.875-.25l.32812.015625v.67188l-.29688-.015625c-.14844 0-.25781.046875-.32812.14062-.074219.085938-.10938.21484-.10938.39062v.53125h.73438v.60938z"/></symbol><symbol id="k" overflow="visible"><path d="m2.1562 0c-.25.03125-.43359.046875-.54688.046875-.32422 0-.55469-.066406-.6875-.20312-.13672-.14453-.20312-.39062-.20312-.73438v-2.8906h-.59375v-.60938h.59375v-1.2344h.75v1.2344h.6875v.60938h-.6875v2.8906c0 .09375.035156.17188.10938.23438.082031.054688.1875.078125.3125.078125h.26562z"/></symbol><symbol id="l" overflow="visible"><path d="m.57812 0v-4.3906h.73438v4.3906zm-.015625-6.0312h.75v.82812h-.75z"/></symbol><symbol id="m" overflow="visible"><path d="m.54688 0v-4.3906h.70312v.65625l.15625-.20312c.32031-.38281.71094-.57812 1.1719-.57812.39453 0 .71094.11719.95312.34375.10156.10547.17969.22656.23438.35938l.125-.15625c.3125-.36328.69141-.54688 1.1406-.54688.45703 0 .8125.125 1.0625.375s.375.60547.375 1.0625v3.0781h-.75v-2.8281c0-.33203-.070312-.58203-.20312-.75-.13672-.17578-.33594-.26562-.59375-.26562-.32422 0-.57812.125-.76562.375-.1875.24219-.28125.57422-.28125 1v2.4688h-.73438v-3.0156c0-.26953-.0625-.47266-.1875-.60938-.125-.14453-.30859-.21875-.54688-.21875-.33594 0-.60547.14062-.8125.42188-.21094.27344-.3125.625-.3125 1.0625v2.3594z"/></symbol><symbol id="n" overflow="visible"><path d="m2.3281.125c-.61719 0-1.1016-.19531-1.4531-.59375-.35547-.39453-.53125-.94141-.53125-1.6406 0-.73828.1875-1.3203.5625-1.75.375-.4375.87891-.65625 1.5156-.65625.57031 0 1.0352.21484 1.3906.64062.35156.41797.53125.97656.53125 1.6719l-.015625.26562h-3.2031c.03125.4375.12891.77344.29688 1 .20703.28125.53516.42188.98438.42188.28125 0 .52344-.078125.73438-.23438.20703-.16406.33594-.36719.39062-.60938h.73438c-.11719.48047-.33984.85156-.67188 1.1094-.32422.25-.74609.375-1.2656.375zm1.2344-2.6562c-.023438-.40625-.12109-.72266-.29688-.95312-.19922-.25-.49219-.375-.875-.375-.39844 0-.71094.14844-.9375.4375-.1875.21875-.29688.51562-.32812.89062z"/></symbol><symbol id="o" overflow="visible"/><symbol id="p" overflow="visible"><path d="m.54688 0v-4.3906h.70312v.64062l.15625-.21875c.32031-.36328.72266-.54688 1.2031-.54688.48828 0 .86328.13281 1.125.39062.25781.26172.39062.63281.39062 1.1094v3.0156h-.73438v-2.7656c0-.38281-.078125-.66016-.23438-.82812-.14844-.16406-.38672-.25-.71875-.25-.35547 0-.63672.13672-.84375.40625-.21094.26172-.3125.62109-.3125 1.0781v2.3594z"/></symbol><symbol id="q" overflow="visible"><path d="m2.8125-1.4219h-2.6094v-.6875l2.7344-3.7969h.625v3.8594h.82812v.625h-.82812v1.4219h-.75zm0-.625v-2.7031l-1.875 2.6406-.046875.0625z"/></symbol><symbol id="r" overflow="visible"><path d="m4.1094-4.3906-1.6719 4.5312c-.26172.67578-.49219 1.1172-.6875 1.3281-.19922.20703-.5.3125-.90625.3125-.125 0-.24609-.015625-.35938-.046875v-.6875c.11328.039063.25391.0625.42188.0625.16406 0 .30469-.070313.42188-.20312.11328-.13672.24219-.39062.39062-.76562v-.0625l-1.625-4.4688h.84375l1.1719 3.625 1.1875-3.625z"/></symbol><marker id="s" orient="auto" overflow="visible"><path d="m0 0 5-5-17.5 5 17.5 5z" fill="#f0f" fill-rule="evenodd" stroke="#f0f" stroke-width="1pt" transform="matrix(-.2 0 0 -.2 -1.2 0)"/></marker><marker id="t" orient="auto" overflow="visible"><path d="m0 0 5-5-17.5 5 17.5 5z" fill="#f0f" fill-rule="evenodd" stroke="#f0f" stroke-width="1pt" transform="matrix(-.2 0 0 -.2 -1.2 0)"/></marker><marker id="u" orient="auto" overflow="visible"><path d="m0 0 5-5-17.5 5 17.5 5z" fill="#f0f" fill-rule="evenodd" stroke="#f0f" stroke-width="1pt" transform="matrix(-.2 0 0 -.2 -1.2 0)"/></marker><marker id="v" orient="auto" overflow="visible"><path d="m0 0 5-5-17.5 5 17.5 5z" fill="#f0f" fill-rule="evenodd" stroke="#f0f" stroke-width="1pt" transform="matrix(-.2 0 0 -.2 -1.2 0)"/></marker><g transform="translate(-2.6094 -468.27)"><use height="100%" width="100%" x="399.49707" xlink:href="#o" y="136.2959"/><use height="100%" width="100%" x="408.36816" xlink:href="#o" y="136.2959"/><use height="100%" width="100%" x="399.49707" xlink:href="#o" y="291.0459"/><use height="100%" width="100%" x="408.36816" xlink:href="#o" y="291.0459"/><use height="100%" width="100%" x="399.49707" xlink:href="#o" y="445.7959"/><use height="100%" width="100%" x="408.36816" xlink:href="#o" y="445.7959"/></g><g style="fill:none;stroke:#000;stroke-linecap:round;stroke-linejoin:round;stroke-miterlimit:10;stroke-width:.75"><path d="m12.75 111.06v-82.84"/><path d="m12.75 111.06h-2.6875"/><path d="m12.75 83.449h-2.6875"/><path d="m12.75 55.836h-2.6875"/><path d="m12.75 28.223h-2.6875"/></g><g transform="translate(-2.6094 -468.27)"><use height="100%" width="100%" x="8.734375" xlink:href="#a" y="588.33203"/><use height="100%" width="100%" x="8.734375" xlink:href="#d" y="583.88281"/><use height="100%" width="100%" x="8.734375" xlink:href="#b" y="579.43359"/><use height="100%" width="100%" x="8.734375" xlink:href="#b" y="574.98438"/><use height="100%" width="100%" x="8.734375" xlink:href="#a" y="560.71875"/><use height="100%" width="100%" x="8.734375" xlink:href="#e" y="556.26953"/><use height="100%" width="100%" x="8.734375" xlink:href="#b" y="551.82031"/><use height="100%" width="100%" x="8.734375" xlink:href="#b" y="547.37109"/><use height="100%" width="100%" x="8.734375" xlink:href="#c" y="533.10547"/><use height="100%" width="100%" x="8.734375" xlink:href="#b" y="528.65625"/><use height="100%" width="100%" x="8.734375" xlink:href="#b" y="524.20703"/><use height="100%" width="100%" x="8.734375" xlink:href="#b" y="519.75781"/><use height="100%" width="100%" x="8.734375" xlink:href="#c" y="505.49219"/><use height="100%" width="100%" x="8.734375" xlink:href="#c" y="501.04297"/><use height="100%" width="100%" x="8.734375" xlink:href="#b" y="496.59375"/><use height="100%" width="100%" x="8.734375" xlink:href="#b" y="492.14453"/></g><g style="fill:none;stroke:#000;stroke-linecap:round;stroke-linejoin:round;stroke-miterlimit:10;stroke-width:.75"><path d="m12.75 135.37h415.2v-134.5h-415.2z"/><path d="m12.75 135.37h395.03"/><path d="m12.75 135.37v2.6875"/><path d="m91.758 135.37v2.6875"/><path d="m170.76 135.37v2.6875"/><path d="m249.77 135.37v2.6875"/><path d="m328.78 135.37v2.6875"/><path d="m407.78 135.37v2.6875"/></g><g transform="translate(-2.6094 -468.27)"><use height="100%" width="100%" x="12.859375" xlink:href="#f" y="614.87109"/><use height="100%" width="100%" x="89.867188" xlink:href="#f" y="614.87109"/><use height="100%" width="100%" x="94.316406" xlink:href="#g" y="614.87109"/><use height="100%" width="100%" x="166.37109" xlink:href="#f" y="614.87109"/><use height="100%" width="100%" x="170.82031" xlink:href="#g" y="614.87109"/><use height="100%" width="100%" x="175.26953" xlink:href="#g" y="614.87109"/><use height="100%" width="100%" x="243.37891" xlink:href="#f" y="614.87109"/><use height="100%" width="100%" x="247.82812" xlink:href="#g" y="614.87109"/><use height="100%" width="100%" x="252.27734" xlink:href="#g" y="614.87109"/><use height="100%" width="100%" x="256.72656" xlink:href="#g" y="614.87109"/><use height="100%" width="100%" x="319.88672" xlink:href="#f" y="614.87109"/><use height="100%" width="100%" x="324.33594" xlink:href="#g" y="614.87109"/><use height="100%" width="100%" x="328.78516" xlink:href="#g" y="614.87109"/><use height="100%" width="100%" x="333.23438" xlink:href="#g" y="614.87109"/><use height="100%" width="100%" x="337.68359" xlink:href="#g" y="614.87109"/><use height="100%" width="100%" x="396.89062" xlink:href="#f" y="614.87109"/><use height="100%" width="100%" x="401.33984" xlink:href="#g" y="614.87109"/><use height="100%" width="100%" x="405.78906" xlink:href="#g" y="614.87109"/><use height="100%" width="100%" x="410.23828" xlink:href="#g" y="614.87109"/><use height="100%" width="100%" x="414.6875" xlink:href="#g" y="614.87109"/><use height="100%" width="100%" x="419.13672" xlink:href="#g" y="614.87109"/></g><g style="fill:none;stroke:#f00;stroke-linecap:round;stroke-linejoin:round;stroke-miterlimit:10;stroke-width:.75"><path d="m91.758 49.625v39.484h6.2539v5.9375h23.785v10.906h36.727v3.7266h49.008v1.9336h24.996v9.3867h165v.14063h17.496v.82812h6.9844v.41406h5.9375"/><path d="m12.75 41.203v50.391h37.695v3.7266h37.695v7.8711h65.664v1.5195h1.1055v7.8672h66.141v3.8672h68.445v.27735h13.328v.13672h16.25v2.0703h53.238v2.0703h4.0274v6.7656h51.609"/><path d="m12.75 80.551v4.832h23.785v.55078h13.91v4.2812h9.8711v4.5547h19.203v.69141h8.6211v.41406h12.617v1.6562h13.023v4.0039h21.926v2.3476h31.059v1.9297h17.449v2.7617h22v3.0391h2.1289v3.3125h37.117v1.5195h58.008v.82813h13.406v1.793h30.32v1.9336h48.652v8.5625h32.102"/><path d="m12.75 40.375v58.676h82.277v3.4492h12.855v1.9336h36.234v4.2812h42.125v.82813h27.605v.27344h26.461v17.121h187.64"/><path d="m12.75 38.301v54.949h23.785v2.4844h73.43v15.051h107.59v.82812h30.926v.96485h16.594v2.9023h13.473v7.4531h149.41"/><path d="m12.75 65.637v20.434h37.695v15.879h23.785v11.184h192.6v5.1055h107.31v5.9375h53.812"/><path d="m12.75 50.312v41.832h23.785v5.1094h47.566v.96875h25.863v3.5859h62.145v10.496h61.969v2.4844h36.93v.55078h11.258v.41407h25.691v7.5938h80.883v1.7969h39.109"/><path d="m12.75 34.574v57.848h23.785v5.5234h66.766v1.2422h10.48v.27734h17.887v3.3125h3.0742v1.6562h40.516v.55079h19.969v.96875h3.9648v.55078h19.734v.82812h15.586v.96875h19.359v7.5938h25.836v2.8984h15.055v2.7617h28.695v.13672h76.348v1.9336h16.867v.69141h11.277"/><path d="m12.75 45.207v42.246h23.785v1.6562h13.91v24.023h9.8711v1.9297h208.38v.96875h8.9141v7.0391h119.08v.82813h31.258"/><path d="m12.75 34.988v44.457h79.008v7.0391h3.2695v5.2461h10.641v.14062h4.2969v1.1016h5.5742v8.1484h15.039v6.4883h41.531v7.1797h46.898v2.3477h87.027v.13672h8.3555v4.0039h34.773v.13672h20.254v4.5586h58.531"/><path d="m12.75 62.879v31.613h23.785v2.7617h51.605v7.5938h46.602v1.5195h71.594v6.4883h24.266v1.2422h22.75v1.7969h50.184v6.3477h62.488v1.3828h35.617v2.6211h5.7422v.14063h20.566"/><path d="m12.75 9.1719v69.996h23.785v4.2812h13.91v9.25h29.074v2.8984h64.598v3.8672h1.4609v2.7617h2.082v3.3125h9.3633v2.207h25.773v3.0391h51.98v8.4219h167.23v2.3477h7.8867v.27344h11.395v3.5898h6.6602"/><path d="m60.316 57.77v38.656h7.6562v4.5547h6.2578v4.2812h96.875v4.2812h10.957v1.793h31.883v.55469h45.969v.27343h24.367v1.3828h21.297v7.4531h91.953v1.6562h2.2461v1.1055h28.172"/><path d="m12.75 64.672v18.5h23.785v10.633h83.801v7.0391h10.242v2.8984h10.418v.6914h2.3672v3.1758h80.934v1.2422h23.277v1.3789h9.8516v1.5195h18.848v2.4844h39.465v.6914h13.871v.41406h1.7969v.96875h.94532v.13672h9.7461v.27735h12.848v3.5898h31.41v.55078h8.9414v3.3125h32.652"/><path d="m12.75 39.543v41.008h23.785v12.562h13.91v4.418h52.855v4.418h13.914v1.9336h31.109v1.5156h13.914v.14062h11.48v6.4883h87.645v1.793h60.082v1.6602h4.7266v3.4492h23.238v4.1406h48.395v.27735h9.7695v1.5195h20.375"/><path d="m12.75 22.562v72.207h23.785v.55078h37.695v5.5234h91.359v8.9727h85.094v8.2852h50.164v.55078h11.371v2.4883h47.594v1.2422h28.668v4.0039h33.336v.13672h6.1328"/><path d="m12.75 42.031v39.348h23.785v8.1445h13.91v1.1055h9.8711v1.1016h7.6562v3.3164h45.809v7.3164h9.4141v.13672h34.336v2.4844h.5v4.6953h103.65v4.9688h31.25v.96875h17.223v4.9688h65.484v.96875h17.156v.13672h35.156"/><path d="m12.75 89.801v1.6562h23.785v6.0742h82.277v3.7266h20.512v7.043h32.785v6.4883h32.859v5.3828h155.41v3.4531h19.777v6.7656h47.793"/><path d="m12.75 86.07v11.461h71.352v5.1094h79.43v2.0703h12.027v3.4492h4.7305v4.0039h96.488v7.8711h101.83v1.5195h8.8555v.13672h29.555v.27734h1.7344v1.1016h.66406v1.3828h1.3281v.6914h7.2031"/><path d="m12.75 50.453v43.211h61.48v.41407h9.8711v1.6562h10.926v2.9023h12.855v6.7617h9.332v.6914h65.094v4.6953h18.352v9.6641h164v.27734h58.746v1.5156h4.5391"/><path d="m12.75 67.848v20.707h23.785v2.7617h23.781v.6914h13.914v7.8711h26.527v.13672h4.9102v4.418h22.621v.96485h53.277v.27734h9.3633v5.9375h60.676v1.9336h41.434v3.3125h21.887v.13671h11.793v.27735h28.785v2.8984h8.75v2.0703h63.695"/><path d="m12.75 41.062v47.91h55.223v1.793h65.773v5.9375h2.9023v1.2422h8.207v1.3789h3.4688v7.043h35.426v4.832h53.734v4.6953h33v2.0703h23.887v3.8633h58.996v1.3828h74.582"/><path d="m12.75 51.004v44.73h85.262v4.6953h15.77v7.5938h102.52v2.207h31.82v3.7305h2.6016v.6875h16.812v2.4883h17.098v2.7617h87.539v2.4844h46.121v4.9688h9.6602"/><path d="m12.75 39.684v47.492h23.785v.27735h37.695v.13671h5.2891v3.0391h15.508v2.8984h10.641v8.1445h28.078v6.4883h85.598v4.2812h26.312v.27734h23.977v.13672h16.086v.55078h5.8594v4.1445h39.383v2.8984h60.039v6.7656h36.949"/><path d="m12.75 56.527v52.738h138.12v.41406h23.785v2.3476h48.695v1.2422h30.066v1.793h36.996v8.9766h128.3v.41407h9.2344"/><path d="m12.75 65.5v16.293h23.785v21.535h89.301v1.1055h26.824v6.7656h30.613v1.6562h64.227v2.7617h47.688v2.4844h63.355v.69141h1.3711v3.3125h30.297v.55078h23.848v.14063h10.059v3.1758h3.832"/><path d="m12.75 76.406v9.3906h23.785v4.2773h31.438v1.9336h11.547v3.5898h30.445v1.5195h10.371v2.0703h5.5v2.0703h2.4531v.41407h27.691v2.7617h.52735v.96485h21.078v.27734h7.3164v.41406h8.4219v2.625h17.457v2.0703h22.863v.55078h3.9375v.27734h10.426v1.5195h8.4453v.6875h4.9609v.27735h10.488v3.1758h56.879v1.3789h29.18v4.832h21.363v.96875h27.082v.41406h21.543"/><path d="m12.75 85.105v4.6953h23.785v9.8008h71.348v2.625h16.66v1.6562h35.891v2.8984h22.117v3.3125h32.73v2.2109h69.445v1.6562h2.7617v1.1016h37.238v2.3477h12.668v.14062h8.5v2.3477h42.371v.96484h9.9492v3.5898h29.734"/><path d="m12.75 58.32v19.742h23.785v5.2461h31.438v1.6602h6.2578v9.6641h20.797v.41407h12.855v7.7305h39.777v8.2852h94.965v2.7578h12.387v8.4219h127.73v2.7617h45.203"/><path d="m12.75 67.297v18.223h23.785v17.672h101.92v5.3828h54.512v8.4219h82.328v1.5195h44.625v1.2422h57.043v.41407h12.746v.55468h5.7891v.82813h15.238v.55078h17.215"/><path d="m12.75 41.617v50.527h23.785v7.5938h23.781v2.4883h88.664v4.5547h25.363v11.598h83.383v.6875h93.738v6.3516h74.316v.55469h2.168"/><path d="m12.75 47.551v46.668h61.48v7.1758h13.91v5.6641h91.887v1.793h.77734v5.1094h100.61v5.6602h74.473v2.207h20.102v1.6562h51.961"/><path d="m50.445 39.82v43.902h47.566v7.7344h29.074v6.7656h29.938v.6875h4.3242v2.2109h.44922v1.1055h2.9844v8.9727h15.766v8.9727h177.7v.96875h24.238v.96484h45.461"/><path d="m12.75 37.336v50.668h23.785v17.258h128.65v7.043h35.613v2.7578h71.012v.14063h4.3008v.41406h12.422v1.5195h64.051v4.6914h33.418v3.3164h41.945"/><path d="m12.75 50.453v51.773h116.7v6.3477h61.094v3.7305h81.625v2.4844h36.531v.96485h23.855v.6914h17.441v4.1406h62.441v2.625h15.508"/><path d="m12.75 35.402v53.57h23.785v1.5156h13.91v4.1445h9.8711v4.5547h58.496v7.3164h27.473v2.0703h59.062v1.1055h.375v4.418h38.551v1.6562h25.145v3.3125h64.93v.27734h49.211v2.0703h15.176v.27735h14.781v1.2422h14.434"/><path d="m12.75 68.812v33.551h119.97v1.5195h23.258v6.9024h57.375v1.5195h2.1133v4.9688h152.09v.13672h7.6914v.96875h10.754v2.0703h4.9375v.27734h16.098v.6875h8.3711v.41407h12.539"/><path d="m12.75 70.609v17.531h23.785v12.84h47.566v.41406h29.68v.14063h5.0312v.96484h1.5234v6.2148h76.371v1.793h21.016v1.5195h3.957v.96485h28.43v8.2852h99.637v1.9336h51.371v.13672h26.832"/><path d="m12.75 62.465v32.027h23.785v5.8008h37.695v4.418h76.637v2.7617h22.852v1.6562h62.465v6.2109h.95312v2.2109h32.262v.41406h100.39v2.7617h17.355v1.6562h18.773v1.3789h22.035"/><path d="m12.75 48.105v39.484h23.785v.41407h51.605v.6914h29.074v.82813h20.348v2.8984h.89063v3.4531h4.1406v.13672h1.5234v4.832h1.4609v10.078h27.824v7.043h101.66v2.4844h131.86v2.3477h.32031v.55078h20.707"/><path d="m12.75 20.078v73.586h23.785v8.5625h66.766v2.0703h52.68v6.7656h91.301v.82813h.72657v.96484h35.215v.96484h34.219v2.625h23.191v1.5195h20.164v.96485h2.1445v1.7969h40.621v.41407h2.2539v2.6211h22.133"/><path d="m12.75 31.262v57.848h23.785v15.602h122.48v.13672h19.68v11.32h60.234v3.8672h137.55v.27734h10.402v3.5859h41.074"/><path d="m12.75 58.047v33.547h23.785v2.0703h23.781v8.8359h27.824v2.625h89.164v7.3164h52.324v.82812h61.199v.41406h2.9492v1.9336h34.711v3.0352h5.168v1.9336h57.73v1.3828h36.562"/><path d="m12.75 48.52v40.453h23.785v11.457h61.477v4.832h51.609v.13672h1.2461v1.2461h24.09v.55078h44.555v4.6953h70.051v1.5156h.0859v.41406h10.305v4.0039h45.473v2.625h31.977v5.3828h43.312v.82813h.76953v.27734h6.4648"/><path d="m12.75 66.465v36.449h23.785v6.6289h88.008v.41406h9.2031v9.6641h215.39v5.3828h78.809"/><path d="m12.75 64.535v23.469h47.566v1.9336h13.914v2.3477h20.797v10.215h39.715v9.3906h12.238v.27343h96.93v2.0703h27.133v3.8672h68.293v1.6562h39.688v.14063h3.8359v7.5898h45.09"/><path d="m12.75 73.508v15.738h37.695v.96875h9.8711v6.7617h66.77v.69141h1.2031v8.4219h67.934v.27735h8.7461v6.3516h38.531v4.2773h73.688v.55469h9.9219v2.0703h53.883v8.6953h46.957"/><path d="m12.75 59.289v34.102h79.008v7.7305h61.477v3.1758h2.7461v2.207h1.5508v3.3125h26.684v1.6602h1.8047v4.6914h66.328v.55469h33.477v.13672h1.5039v6.4883h93.648v.55078h46.973"/><path d="m12.75 63.98v26.922h75.391v12.84h97.215v.6914h3.207v2.7617h1.0078v5.3828h56.586v1.2422h11.105v5.9375h60.062v.69141h40.613v.82812h21.09v1.1055h17.848v5.5195h31.074"/><path d="m12.75 41.891v47.91h37.695v3.8633h9.8711v2.2109h27.824v2.6211h33.656v.41407h31.438v.41406h6.2578v8.9766h30.277v1.3789h16.688v.82812h34.121v.69141h21.246v.27734h9.5859v5.1055h19.801v.69141h13.027v.6914h21.891v.55079h10.207v8.8359h91.613"/><path d="m12.75 77.234v20.02h71.352v.96875h7.6562v5.7969h27.055v5.5234h10.641v1.9336h5.2891v3.8633h178.78v2.7617h4.0781v.82813h36.785v1.1055h7.9688v.27734h3.1445v1.6562h62.449"/><path d="m12.75 28.777v56.051h23.785v2.625h13.91v1.793h9.8711v14.637h88.008v.82813h25.395v.41406h7.0859v2.0703h6.3008v.55078h27.988v1.1055h1.2969v7.8711h116.07v1.9297h14.254v.96875h7.2578v3.3125h56.508v.13672h7.625v3.1758h9.8438"/><path d="m12.75 64.395v25.82h23.785v2.3438h66.766v5.6641h48.773v3.0352h4.4336v.96875h28.848v4.5547h17.258v2.8984h22.957v2.0703h30.285v1.3828h6.6641v.96485h3.2695v.41406h23.934v.96875h26.391v.13672h2.7695v.96484h13.277v4.9727h53.262v4.418h27.992v.27343h14.535"/><path d="m12.75 31.539v61.988h75.391v2.6211h27.398v2.3476h15.039v11.598h127.29v.27734h2.9844v2.3477h6.1055v1.9297h36.883v7.043h102.21v3.3125h21.898"/><path d="m12.75 55.008v24.297h23.785v14.359h13.91v5.1094h66.77v2.8984h14.453v3.3125h5.8945v7.457h106.47v4.418h70.199v.6914h2.4024v6.4883h91.652v.55078h11.465v.41407h8.1992"/><path d="m12.75 38.301v53.43h23.785v4.9727h31.438v5.2461h32.785v1.793h13.023v1.5195h48.895v4.9688h70.855v2.625h27.488v1.3789h7.832v.82812h29.664v.96875h31.113v9.3867h82.359v.41406h15.961"/><path d="m12.75 31.676v65.301h75.391v10.355h9.8711v1.7969h95.668v5.2461h114.95v2.3477h16.816v7.7305h75.168v2.8984h27.336"/><path d="m12.75 44.93v52.047h61.48v1.6602h5.2891v8.1445h49.934v1.793h85.922v2.2109h19.508v4.418h9.832v1.9336h64.605v4.9688h77.285v3.5898h41.344"/><path d="m12.75 40.512v53.016h66.77v2.207h15.508v9.1133h39.715v3.7266h81.828v.55469h7v4.1406h44.809v.13672h17.133v2.7617h2.957v4.6953h55.82v.41406h6.1602v.41407h22.684v.55078h36.812v.55469h18.004"/><path d="m12.75 23.391v78.418h37.695v1.7969h59.52v10.078h199.26v4.1406h23.508v1.7969h31.301v1.5195h1.6484v5.1055h29.367v2.3477h32.902"/><path d="m12.75 51.695v38.242h55.223v.41406h16.129v1.5195h4.0391v5.9375h6.8867v1.9297h25.309v1.1055h18.988v3.7266h19.199v.69141h28.367v4.1406h21.453v6.9062h20.977v.27344h23.09v.55469h39.32v2.3438h46.594v.41797h13.883v.82812h45.391v7.4531h30.352"/><path d="m12.75 60.805v28.582h23.785v7.3164h23.781v1.793h51.609v.55469h3.6133v2.207h27.824v10.77h128.79v1.9336h4.625v2.0703h73.945v2.3477h43.758v.96484h4.2852v2.4844h11.793v2.3476h17.391"/><path d="m79.52 52.523v51.633h37.695v6.6289h77.844v5.5234h84.777v8.2812h114.64v3.8672h33.477"/><path d="m12.75 37.473v49.703h37.695v6.6289h37.695v3.4492h3.6172v14.637h165.64v1.5156h16.766v.55469h16.645v.41406h.33203v.27344h5.9023v8.6992h74.508v3.0391h56.398"/><path d="m12.75 57.906v28.305h37.695v1.6562h33.656v1.5195h7.6562v7.7305h23.781v5.1094h1.6758v3.5859h47.973v.83203h14.312v3.8633h71.516v3.8672h36.391v5.6602h105.45v2.4844h3.125v.55078h2.0703v1.6602h29.898"/><path d="m12.75 46.863v51.91h37.695v5.3828h84.297v4.6953h22.789v2.4844h73.012v.14062h2.8242v.13672h1.9883v5.3828h39.129v.14063h33.703v2.0703h63.723v2.8984h46.121v1.5195h9.918"/><path d="m12.75 68.812v16.57h23.785v14.633h47.566v2.0703h7.6562v.14062h31.438v.82813h36.297v1.9297h44.84v1.3828h6.0195v7.4531h43.367v3.1758h69.949v.14063h24.715v.41406h4.3633v8.0078h75.203"/><path d="m12.75 44.793v47.078h55.223v4.418h43.953v.96485h1.8555v3.1758h3.4336v3.3125h74.656v2.625h9.2148v.55078h15.031v.14062h12.445v.6875h6.0547v1.9336h28.906v.55078h.4336v2.2109h23.805v1.793h12.656v4.1445h2.1602v6.3516h125.37"/><path d="m12.75 50.727v49.426h55.223v.27735h16.129v2.7617h16.656v3.7266h64.023v3.7266h24.988v8.1484h100.79v1.5195h107.54v.13672h5.9961v1.6562h21.727v1.5195h2.1328"/><path d="m12.75 41.891v47.633h23.785v15.738h136.87v.55078h25.641v2.3477h4.6367v5.2461h30.02v1.2422h16.582v2.625h33.402v.13672h13.152v1.6562h29.949v2.2109h47.52v1.3789h48.258v.82813h5.3867"/><path d="m12.75 73.094v17.121h23.785v8.5586h64.223v1.3789h63.613v3.3164h19.613v2.7578h10.902v.41797h15.68v1.5156h7.5039v1.1055h5.7188v3.4531h20.645v1.1016h34.535v3.3164h73.926v.55078h23.344v4.418h1.5742v.27734h5.6562v.41407h28.395v.96484h1.5469v1.1055h14.539"/><path d="m12.75 63.43v21.953h23.785v4.0039h13.91v16.012h143.76v.6914h28.922v.82813h3.2031v3.4531h17.297v3.4492h28.078v1.2422h6.4961v2.0742h40.012v2.4844h45.859v3.5898h63.879"/><path d="m12.75 39.129v51.637h23.785v2.4844h31.438v1.2422h20.168v.14062h15.16v1.1016h18.496v2.0742h10.926v.55079h14.258v.13671h7.9297v.14063h4.582v1.5156h21.055v1.3828h13.48v4.0039h15.887v4.6914h18.648v7.043h80.305v3.8672h15.98v3.0352h77.992v1.6562h25.109"/><path d="m12.75 71.574v23.195h66.77v5.3828h26.148v.14063h33.656v.41406h3.2695v16.289h159.71v1.6562h19.465v4.832h94.852v2.2109h11.328"/><path d="m12.75 69.09v32.582h127.42v3.7266h6.8086v.82812h13.453v2.2109h33.77v3.4531h29.805v1.793h58.414v14.91h138.98v1.6562h6.543"/><path d="m12.75 54.594v43.488h85.262v.55469h15.77v5.5195h6.5547v2.9023h25.949v4.2774h114.91v4.5586h22.199v4.832h103.02v.27344h6.1836v.82813h13.41v.6914h15.023v.82813h1.9531v2.8984h4.9688"/><path d="m12.75 51.832v34.516h37.695v.96484h9.8711v.96875h7.6562v5.1094h45.809v5.7969h1.7578v1.793h21.109v.96875h23.316v.27734h2.7109v7.0391h81.234v.41406h15.047v8.4219h68.676v3.5898h57.012v1.9336h43.305"/><path d="m12.75 87.453h23.785v4.5547h61.477v.13672h2.7461v2.2109h13.023v1.9336h10.762v8.5586h30.906v1.6562h68.703v1.3828h9.8203v6.7617h65.426v4.1445h25.773v1.1055h12.418v2.0703h63.285v.6875h27.074"/><path d="m12.75 15.523v68.891h37.695v8.4219h17.527v11.32h88.008v1.6562h21.324v.96875h16.547v.13672h12.484v5.1094h38.258v1.1055h10.535v8.1445h142.52v1.5195h30.305"/><path d="m12.75 51.141v39.762h37.695v5.6602h23.785v.82813h33.652v2.2109h7.6562v.41407h1.6758v3.0391h43.676v1.5156h12.512v.96875h4.7422v.6875h11.426v.55469h8.8633v5.7969h80.332v4.6953h44.504v2.7617h3.0352v3.0352h28.984v2.0742h72.66"/><path d="m12.75 60.668v26.23h23.785v3.4531h47.566v2.4844h10.926v2.8984h2.9844v3.5898h5.2891v2.4844h8.625v.27735h9.8711v10.078h153.8v3.5898h20.117v.14062h2.0859v3.8633h40.176v1.1055h31.086v5.2461h36.699v1.6562h22.184"/><path d="m12.75 75.719v11.32h23.785v.6875h31.438v1.1055h11.547v4.9727h8.6211v8.1445h62.727v3.8633h20.574v3.1758h46.457v3.0391h31.281v1.1055h7.582v1.3789h30.395v1.9336h42.191v2.6211h45.305v2.0742h53.297"/><path d="m12.75 34.023v67.648h88.008v1.7969h31.965v2.6211h16.898v.96875h9.3906v2.6211h9.6289v1.5195h53.5v2.3477h43.391v1.1016h5.7891v2.9023h87.332v1.1016h8.5273v2.625h32.621v3.0391h28.148"/><path d="m12.75 37.613v58.121h71.352v3.8672h40.441v2.0703h36.805v3.0391h3.8398v2.8984h27.418v6.2109h73.164v.27735h19.168v.27734h.97266v2.7617h69.512v2.8984h5.9883v2.4844h29.883v2.8984h19.516v.82812h17.141"/><path d="m12.75 40.926v52.602h61.48v.13672h26.527v3.8672h4.9102v1.3789h9.8711v4.5586h32.121v2.6211h10.371v2.0703h19.836v6.4883h17.191v1.9336h121.75v1.9336h15.34v.55078h6.0781v1.7969h69.062v4.1406h20.348v1.6562h.30859"/><path d="m12.75 61.91v22.918h23.785v5.8008h13.91v.96484h17.527v9.25h83.504v.96484h30.586v7.457h39.223v.55078h9.0781v4.418h22.016v1.3828h18.812v5.7969h37.965v.55469h83.324v.41406h34.762v.82813h.70703"/><path d="m12.75 40.098v50.391h23.785v2.4844h37.695v4.418h20.797v1.7969h36.641v6.0742h27.344v.69141h11.75v8.8359h65.367v6.625h108.54v2.3477h15.031v.27734h68.25"/><path d="m12.75 55.699v34.652h23.785v4.418h13.91v.13672h9.8711v5.8008h65.52v6.9024h33.176v4.418h83.949v1.793h39.543v3.1758h49.262v.96875h4v4.0039h41.082v2.207h7.6055v2.0703h43.496"/><path d="m12.75 36.094v68.062h153.63v3.1758h33.113v7.043h92.316v.27344h2.1016v2.9023h43.812v.41406h10.285v.13672h2.7344v.55078h3.2031v3.1758h17.641v.55468h.63672v1.1016h55.727"/><path d="m12.75 10.137v78.004h55.223v2.7617h6.2578v.96875h9.8711v2.8984h4.0391v8.2852h15.16v.13672h64.973v2.207h18.832v6.4922h16.18v3.1719h37.695v2.0742h69.945v.96484h54.262v1.5195h1.5352v8.8359h61.227"/><path d="m12.75 36.785v49.977h23.785v13.805h47.566v.14062h10.926v1.9336h35.551v11.871h59.969v1.2422h38.773v2.7617h66.191v4.2812h64.73v.6875h27.473v2.2109h40.234"/><path d="m12.75 59.977v25.406h23.785v5.7969h13.91v7.043h65.094v.82812h3.2734v2.207h48.336v2.8984h7.5039v6.9062h86.492v5.6602h38.02v.41406h53.609v1.6562h18.992v1.6562h8.2461v1.6562h15.008v.69141h32.93"/><path d="m12.75 48.52v45.285h75.391v1.3789h3.6172v5.9375h64.223v2.4844h27.531v3.0391h21.961v.96485h4v3.8672h27.164v4.418h17.57v3.1719h86.535v1.1055h42.441v.55468h1.0195v2.8984h28.152v.96484h1.8242v.41407h5.2305v4.1445h8.5391"/><path d="m12.75 5.8594v89.188h75.391v4.6914h37.695v4.6953h35.961v6.6289h21.238v.55078h48.34v2.207h22.375v1.1055h14.984v1.3828h7.3477v1.5156h24.844v2.4883h44.617v4.5547h82.406"/><path d="m12.75 59.012v46.664h149.93v3.8672h6.6875v2.8984h90.523v2.3476h12.602v.27344h12.938v2.3477h39.496v2.0703h2.8711v1.5195h25.145v1.7969h23.133v1.2422h28.305v.13672h8.3242v.82813h15.25"/><path d="m12.75 40.926v49.562h37.695v11.598h29.074v2.0703h71.348v4.832h53.594v.27735h.25391v5.6602h64.551v.55469h25.285v5.6602h76.82v2.6211h13.168v2.0703h2.75v1.5195h40.66"/><path d="m12.75 65.5v36.035h47.566v5.9375h150.36v.13672h11.699v6.7656h43.137v5.7969h92.422v4.9726h70.02"/><path d="m12.75 35.68v57.848h23.785v6.3516h61.477v4.418h69.891v.55078h.37109v.13672h1.4453v.6914h16.738v.41406h4.6641v.13672h2.3789v2.2109h8.0117v3.1758h45.398v4.9688h73.746v1.7969h44.527v5.3828h39.332v1.9336h23.434"/><path d="m12.75 38.164v52.188h23.785v3.1758h13.91v.82813h9.8711v12.289h131.74v1.1016h18.188v3.4531h48.82v.13672h8.2812v.55469h3.5898v1.9297h24.852v4.418h49.383v.14063h3.543v1.793h34.062v7.043h45.176"/><path d="m12.75 69.367v28.164h75.391v4.5547h27.398v.96875h37.121v1.1016h27.887v3.3164h13.656v1.1016h22.816v3.4531h23.738v4.6953h95.703v5.6602h63.648v.13672h19.41v.69141h8.3359v2.0703h.0937"/><path d="m12.75 60.805v30.375h37.695v2.625h9.8711v4.5547h7.6562v.27734h20.168v4.6914h40.148v3.3164h46.668v4.832h65.801v1.9297h24.73v4.0039h51.812v1.2422h10.137v4.418h85.902v.41407h14.609"/><path d="m385.41 21.707h15.121"/></g><g transform="translate(-2.6094 -468.27)"><use height="100%" width="100%" x="410.70312" xlink:href="#r" y="483.19043"/><use height="100%" width="100%" x="414.90332" xlink:href="#p" y="483.19043"/><use height="100%" width="100%" x="419.57422" xlink:href="#q" y="483.19043"/><g fill="#f00"><use height="100%" width="100%" x="410.70312" xlink:href="#h" y="493.26855"/><use height="100%" width="100%" x="413.5" xlink:href="#i" y="493.26855"/></g></g><use height="100%" transform="translate(-2.6094 -468.27)" width="100%" x="24.804688" xlink:href="#j" y="478.82324"/><path d="m375.73 123.95h48.07v10.078h-48.07zm0 0" style="fill:#fff;fill-opacity:.66667;stroke:#fff;stroke-linecap:round;stroke-linejoin:round;stroke-miterlimit:10;stroke-opacity:.66667;stroke-width:.0075"/><g transform="translate(-2.6094 -468.27)"><use height="100%" width="100%" x="383.62891" xlink:href="#k" y="600.5459"/><use height="100%" width="100%" x="385.96289" xlink:href="#l" y="600.5459"/><use height="100%" width="100%" x="387.8291" xlink:href="#m" y="600.5459"/><use height="100%" width="100%" x="394.82617" xlink:href="#n" y="600.5459"/><use height="100%" width="100%" x="399.49707" xlink:href="#o" y="600.5459"/><use height="100%" width="100%" x="401.83105" xlink:href="#l" y="600.5459"/><use height="100%" width="100%" x="403.69727" xlink:href="#p" y="600.5459"/><use height="100%" width="100%" x="408.36816" xlink:href="#o" y="600.5459"/><use height="100%" width="100%" x="410.70215" xlink:href="#m" y="600.5459"/><use height="100%" width="100%" x="417.69922" xlink:href="#i" y="600.5459"/></g><g fill="none" stroke="#f0f" stroke-linecap="round" stroke-linejoin="round" stroke-width="1.9993"><path d="m138.93 13.549c-50.808-8.5974-60.803-7.5423-86.637 22.557" marker-end="url(#s)"/><path d="m128.98 11.994c-8.7888-1.2046-29.44 6.6328-36.348 32.104" marker-end="url(#t)"/><path d="m110.87 9.5575c-16.806-1.1964-28.314 25.857-31.013 36.583" marker-end="url(#u)"/><path d="m91.889 9.3667c-19.978 4.4011-24.612 21.502-30.696 42.37" marker-end="url(#v)"/></g><text font-family="sans-serif" font-size="8.9967" letter-spacing="0" stroke-width=".74973" word-spacing="0" x="142.09589" xml:space="preserve" y="16.914492"><tspan x="142.09589" y="16.914492"><tspan fill="#f0f">outliers</tspan> in terms of the time needed for the first</tspan><tspan x="142.09589" y="28.160372">function evaluation (FE): Normally, the first FE</tspan><tspan x="142.09589" y="39.40625">completes in less than 1ms, but in very few of</tspan><tspan x="142.09589" y="50.6521">the runs it needs more than 2ms, sometimes even</tspan><tspan x="142.09589" y="61.89801">10ms! This may be because of scheduling or other</tspan><tspan x="142.09589" y="73.14386">OS issues and does not reflect the normal behavior</tspan><tspan x="142.09589" y="84.389771">of the algorithm implementation.</tspan></text></svg>