<svg height="166pt" viewBox="0 0 393.33 221.33" width="295pt" xmlns="http://www.w3.org/2000/svg"><text fill="#231f20" font-family="Arial" font-size="16" stroke-width="1.3333" transform="matrix(.00003527 -1 1 .00003527 0 0)" x="-149.40808" y="12.833453"><tspan stroke-width="1.3333" x="-149.40808" y="12.833453">solution cost</tspan></text><g fill="#231f20" font-family="Arial" font-size="12" stroke-width="1.3333" transform="matrix(.00003527 -1 1 .00003527 0 0)"><text x="-43.795872" y="10.303623"><tspan stroke-width="1.3333" x="-43.795872" y="10.303623">(worse)</tspan></text><text x="-204.67943" y="10.309322"><tspan stroke-width="1.3333" x="-204.67943" y="10.309322">(better)</tspan></text></g><g fill="none" stroke="#231f20" stroke-miterlimit="10"><path d="m19.166 4.2354v200.65" stroke-width="1.3334"/><path d="m22.604 8.4886-3.4374-5.3025-3.4406 5.3025" stroke-width="1.344"/><path d="m16.58 203.29h373.08" stroke-width="1.333"/><path d="m385.41 199.85 5.3025 3.4379-5.3025 3.4406" stroke-width="1.344"/></g><g fill="none" stroke-miterlimit="22.926" stroke-width="1.8893"><path d="m19.166 14.608c13.654-.01733 68.989 31.613 97.968 78.903 34.982 57.085 120.72 84.769 261.07 99.232" stroke="#833184"/><path d="m19.166 42.888c65.209 34.51 38.647 113.8 360.76 124.16" stroke="#0994dc"/></g><g stroke-width="1.3333"><text fill="#833184" font-family="Arial" font-size="16" x="108.01331" y="42.866848"><tspan stroke-width="1.3333" x="108.01331" y="42.866848">Algorithm A</tspan></text><text fill="#0994dc" font-family="Arial" font-size="16" x="278.44025" y="122.94192"><tspan stroke-width="1.3333" x="278.44025" y="122.94192">Algorithm B</tspan></text><path d="m108.18 80.42 36.226-32.843" fill="none" stroke="#833184" stroke-miterlimit="22.926"/><path d="m297.29 162.34 18.413-35.967" fill="none" stroke="#0994dc" stroke-miterlimit="22.926"/><text fill="#231f20" font-family="Arial" font-size="16" x="327.09369" y="219.2057"><tspan stroke-width="1.3333" x="327.09369" y="219.2057">runtime</tspan></text></g></svg>