<svg height="460pt" viewBox="0 0 980 460" width="980pt" xmlns="http://www.w3.org/2000/svg"><g transform="matrix(1.3333 0 0 -1.3333 -159.36 523.2)"><path d="m205.38 313.02v-91.199h-19.38v-3.9617h19.38v-84.719h23.34v3.9595h-19.381v171.96h19.381v3.9584z" fill="#c00000" fill-opacity=".56078" stroke-miterlimit="10"/><text font-family="Calibri" font-size="54" transform="matrix(-.00000004 1 1 .00000004 0 0)" x="78.299988" y="168.42001"><tspan x="78.299988 114.04799 142.18199 160.27199 172.69199 215.83798 228.25798 248.72398 274.21201 292.302 304.72198 333.17999" y="168.42001">Optimization</tspan></text><path d="m228.66 234.54h624.36v153.12h-624.36z" fill="#c00000" fill-opacity=".56078" fill-rule="evenodd"/><path d="m228.66 234.54h624.36v153.12h-624.36z" fill="none" stroke="#fff" stroke-miterlimit="10" stroke-width=".96"/><g font-family="Calibri" transform="scale(1 -1)"><g font-size="30"><text x="243.04001" y="-351.35001"><tspan x="243.04001 260.46402" y="-351.35001">An</tspan></text><text x="291.90002" y="-351.35001"><tspan x="291.90002 307.71002 323.34 333.39001 340.29001 364.14001 371.04001 382.38 396.54001 406.59003 413.49002 429.30002" y="-351.35001">optimization</tspan></text><text x="460.76001" y="-351.35001"><tspan x="460.76001 476.51001 486.32001 502.13 517.88 524.78003 539.60004" y="-351.35001">problem</tspan></text><text x="579.32001" y="-351.35001"><tspan x="579.32001 586.16003" y="-351.35001">is</tspan></text><text x="613.66998" y="-351.35001"><tspan x="613.66998" y="-351.35001">a</tspan></text><text x="643.66998" y="-351.35001"><tspan x="643.66998 655.40002 662.15002 672.20001 687.95001 701.98999 712.04004 718.79004 734.60004" y="-351.35001">situation</tspan></text><text x="766.07001" y="-351.35001"><tspan x="766.07001 787.52002 803.27002 810.16998 822.85999" y="-351.35001">which</tspan></text><text x="243.04001" y="-318.95001"><tspan x="243.04001 253.15001 268.09 283.84 299.59 306.49002 316.51001 331.45001" y="-318.95001">requires</tspan></text><text x="355.38" y="-318.95001"><tspan x="355.38 371.13 385.98001 398.67001 405.57001 421.32001 428.10001 443.85001" y="-318.95001">deciding</tspan></text><text x="470.24002" y="-318.95001"><tspan x="470.24002 478.76001 494.57001" y="-318.95001">for</tspan></text><text x="517.40002" y="-318.95001"><tspan x="517.40002 533.21002 548.96002" y="-318.95001">one</tspan></text><text x="576.08002" y="-318.95001"><tspan x="576.08002 588.67999 604.42999 620.23999 627.14001 639.83002" y="-318.95001">choice</tspan></text><text x="667.07001" y="-318.95001"><tspan x="667.07001 676.22003 686.15002 701.96002" y="-318.95001">from</tspan></text><text x="738.35004" y="-318.95001"><tspan x="738.35004" y="-318.95001">a</tspan></text><text x="764.98999" y="-318.95001"><tspan x="764.98999 776.72003 791.45001" y="-318.95001">set</tspan></text><text x="813.60999" y="-318.95001"><tspan x="813.60999 829.45001" y="-318.95001">of</tspan></text><text x="243.04001" y="-286.54999"><tspan x="243.04001 258.79001 274.60001 286.39001 298.12003 305.02002 320.77002 327.67001" y="-286.54999">possible</tspan></text><text x="368.58002" y="-286.54999"><tspan x="368.58002 382.95001 389.85001 399.54001 414.48001 424.86002 440.61002 454.74002 464.70001 471.60001 484.86002 499.80002" y="-286.54999">alternatives</tspan></text><text x="537.56" y="-286.54999"><tspan x="537.56 544.40002" y="-286.54999">in</tspan></text><text x="585.91998" y="-286.54999"><tspan x="585.91998 601.72998 611.84003 627.59003 642.44" y="-286.54999">order</tspan></text><text x="678.95001" y="-286.54999"><tspan x="678.95001 688.79004" y="-286.54999">to</tspan></text><text x="730.66998" y="-286.54999"><tspan x="730.66998 740.75 755.69 769.91003 782.60004" y="-286.54999">reach</tspan></text><text x="824.29004" y="-286.54999"><tspan x="824.29004" y="-286.54999">a</tspan></text></g><g font-size="30.024"><text x="243.04001" y="-254.14999"><tspan x="243.04001 258.80261 268.89069 283.84262 299.60522 314.1969 323.35422 330.25974 346.02234 360.85419" y="-254.14999">predefined</tspan></text><text x="383.22" y="-254.14999"><tspan x="383.22 399.06006" y="-254.14999">or</tspan></text><text x="416.46002" y="-254.14999"><tspan x="416.46002 426.57809 441.53006 457.29266 473.05524 479.84067 489.95877 504.91071" y="-254.14999">required</tspan></text><text x="527.23999" y="-254.14999"><tspan x="527.23999 543.00262 557.83447 573.59705 588.18872 597.34607 604.1615" y="-254.14999">benefit</tspan></text><text x="620.98999" y="-254.14999"><tspan x="620.98999 635.15051" y="-254.14999">at</tspan></text><text x="651.83002" y="-254.14999"><tspan x="651.83002 675.81921 682.72473 698.39722 705.30273 729.29193 743.6734" y="-254.14999">minimal</tspan></text><text x="757.31" y="-254.14999"><tspan x="757.31 769.79999 785.62262 797.03174 807.08978" y="-254.14999">costs</tspan></text><text x="818.89001" y="-254.14999"><tspan x="818.89001" y="-254.14999">.</tspan></text></g></g><path d="m228.66 52.14h624.36v166.08h-624.36z" fill="#c00000" fill-opacity=".56078" fill-rule="evenodd"/><path d="m228.66 52.14h624.36v166.08h-624.36z" fill="none" stroke="#fff" stroke-miterlimit="10" stroke-width=".96"/><g transform="scale(1 -1)"><g font-family="Calibri"><g font-size="30"><text x="243.04001" y="-175.42999"><tspan x="243.04001 256.81 272.71002 279.61002 293.17001 300.07001 315.82001" y="-175.42999">Solving</tspan></text><text x="337.5" y="-175.42999"><tspan x="337.5 351.78" y="-175.42999">an</tspan></text><text x="375.18002" y="-175.42999"><tspan x="375.18002 390.99002 406.62003 416.67001 423.57001 447.54001 454.44 465.78 479.94 489.99002 496.89001 512.70001" y="-175.42999">optimization</tspan></text><text x="536.12" y="-175.42999"><tspan x="536.12 551.87 561.79999 577.60999 593.35999 600.26001 615.08002" y="-175.42999">problem</tspan></text><text x="646.79004" y="-175.42999"><tspan x="646.79004 656.87 671.81 687.47003 703.22003 710.03003 720.10999 735.04999" y="-175.42999">requires</tspan></text><text x="754.42999" y="-175.42999"><tspan x="754.42999 763.58002 770.39001 786.14001 801.89001 808.79004 824.54004" y="-175.42999">finding</tspan></text></g><g font-size="30.024"><text x="243.04001" y="-142.91"><tspan x="243.04001 257.46402" y="-142.91">an</tspan></text><text x="284.58002" y="-142.91"><tspan x="284.58002 291.48553 307.12802 322.89062 338.65323" y="-142.91">input</tspan></text><text x="359.82001" y="-142.91"><tspan x="359.82001 374.77197 381.52737 396.47931 420.46848 435.30035 450.79272" y="-142.91">element</tspan></text></g></g><text font-family="Cambria Math" font-size="30.024" x="472.04001" y="-142.91"><tspan font-family="cmmi10" x="472.04001" y="-142.91">x</tspan></text><text font-family="Cambria Math" font-size="21.984" x="489.68002" y="-153.95"><tspan x="489.68002" y="-153.95">â‹†</tspan></text><g font-size="30.024"><g font-family="Calibri"><text x="513.67999" y="-142.91"><tspan x="513.67999 535.14716 542.05267 552.11072 567.87335 574.62872" y="-142.91">within</tspan></text><text x="601.66998" y="-142.91"><tspan x="601.66998" y="-142.91">a</tspan></text><text x="627.35004" y="-142.91"><tspan x="627.35004 638.99933 653.77112" y="-142.91">set</tspan></text></g><text font-family="Cambria Math" x="674.87" y="-142.91"><tspan x="674.87" y="-142.91">ğ•</tspan></text><g font-family="Calibri"><text x="706.66998" y="-142.91"><tspan x="706.66998 722.51007" y="-142.91">of</tspan></text><text x="742.91003" y="-142.91"><tspan x="742.91003 757.20142 764.10693 770.8924 786.62494 807.85193 822.80389" y="-142.91">allowed</tspan></text></g></g><g font-size="30"><g font-family="Calibri"><text x="243.04001" y="-110.6"><tspan x="243.04001 257.98001 264.88 279.70001 303.67001 318.61002 334.12003 344.17001" y="-110.6">elements</tspan></text><text x="374.22" y="-110.6"><tspan x="374.22 382.74002 398.55002" y="-110.6">for</tspan></text><text x="427.52002" y="-110.6"><tspan x="427.52002 448.97 464.72 471.62 484.31" y="-110.6">which</tspan></text><text x="518.47998" y="-110.6"><tspan x="518.47998" y="-110.6">a</tspan></text><text x="551.23999" y="-110.6"><tspan x="551.23999 575.21002 589.16003 599.21002 614.96002 629.90002 653.87 667.88 677.92999 684.83002 697.28003 711.65002" y="-110.6">mathematical</tspan></text><text x="736.91003" y="-110.6"><tspan x="736.91003 746.06 761.81 777.47003 790.16003 800.21002 807.10999 822.83002" y="-110.6">function</tspan></text></g><g font-family="Cambria Math"><text x="243.04001" y="-78.084"><tspan font-family="cmmi12" x="243.04001" y="-78.084">f</tspan></text><text x="260.46002" y="-78.084"><tspan font-family="cmmi12" x="260.46002" y="-78.084">:</tspan></text><text x="273.30002" y="-78.084"><tspan x="273.30002" y="-78.084">ğ•</tspan></text><text x="301.98001" y="-78.084"><tspan x="301.98001" y="-78.084">â†¦</tspan></text><text x="336.54001" y="-78.084"><tspan x="336.54001" y="-78.084">â„</tspan></text></g><g font-family="Calibri"><text x="365.58002" y="-78.084"><tspan x="365.58002 375.30002 389.67001 402.42001 417.36002" y="-78.084">takes</tspan></text><text x="435.68002" y="-78.084"><tspan x="435.68002 451.52002" y="-78.084">on</tspan></text><text x="474.08002" y="-78.084"><tspan x="474.08002 484.13 499.88" y="-78.084">the</tspan></text><text x="521.47998" y="-78.084"><tspan x="521.47998 533.21002 557.17999 571.60999 578.51001 585.29004 600.22998 611.57001" y="-78.084">smallest</tspan></text><text x="628.42999" y="-78.084"><tspan x="628.42999 644.17999 659.98999 671.72003 683.45001 690.35004 706.10004 712.91003" y="-78.084">possible</tspan></text><text x="734.63" y="-78.084"><tspan x="734.63 747.71002 762.08002 768.97998 784.72998" y="-78.084">value</tspan></text><text x="799.57001" y="-78.084"><tspan x="799.57001" y="-78.084">.</tspan></text></g></g></g></g></svg>