<svg height="250pt" viewBox="0 0 520 250" width="520pt" xmlns="http://www.w3.org/2000/svg" xmlns:xlink="http://www.w3.org/1999/xlink"><defs><g id="a"><path d="m3.6875-2.53125c0 .4375-.171875.828125-.46875 1.140625-.328125.296875-.703125.46875-1.140625.46875-.453125 0-.828125-.171875-1.140625-.46875-.3125-.3125-.46875-.703125-.46875-1.140625 0-.453125.15625-.828125.46875-1.140625s.6875-.46875 1.140625-.46875c.4375 0 .8125.15625 1.140625.46875.296875.3125.46875.6875.46875 1.140625zm0 0"/></g></defs><path d="m223.23 10.976c17.238 0 31.215 13.98 31.215 31.219 0 17.238-13.977 31.215-31.215 31.215s-31.219-13.977-31.219-31.215 13.98-31.219 31.219-31.219" fill="#e10f00" fill-opacity=".95" fill-rule="evenodd"/><g stroke="#000" stroke-linecap="round" stroke-linejoin="round" stroke-opacity=".85" transform="translate(1.8511 3.0341)"><use x="243.93694" xlink:href="#a" y="6.2359"/><use x="258.17603" xlink:href="#a" y="17.700399"/><use x="269.47644" xlink:href="#a" y="29.164499"/></g><g font-family="DejaVu Sans" stroke-width=".75"><text font-size="11" x="205.5721" y="44.95509"><tspan font-family="Calibri" font-size="11" stroke-width=".75" x="205.5721" y="44.95509">delivery</tspan></text><g font-size="9"><text x="251.95743" y="9.275913"><tspan font-family="Calibri" font-size="9" stroke-width=".75" x="251.95743" y="9.275913">optimized logistics (business-to-customer)</tspan></text><text x="266.20053" y="20.740412"><tspan font-family="Calibri" font-size="9" stroke-width=".75" x="266.20053" y="20.740412">planning and scheduling of maintenance visits</tspan></text><text x="277.50092" y="32.204514"><tspan font-family="Calibri" font-size="9" stroke-width=".75" x="277.50092" y="32.204514">planning and scheduling of supply visits</tspan></text></g></g></svg>