<svg height="250pt" viewBox="0 0 520 250" width="520pt" xmlns="http://www.w3.org/2000/svg" xmlns:xlink="http://www.w3.org/1999/xlink"><defs><g id="a"><path d="m3.6875-2.53125c0 .4375-.171875.828125-.46875 1.140625-.328125.296875-.703125.46875-1.140625.46875-.453125 0-.828125-.171875-1.140625-.46875-.3125-.3125-.46875-.703125-.46875-1.140625 0-.453125.15625-.828125.46875-1.140625s.6875-.46875 1.140625-.46875c.4375 0 .8125.15625 1.140625.46875.296875.3125.46875.6875.46875 1.140625zm0 0"/></g></defs><path d="m251.73 48.089c17.238 0 31.215 13.98 31.215 31.219 0 17.234-13.977 31.215-31.215 31.215s-31.219-13.98-31.219-31.215c0-17.238 13.98-31.219 31.219-31.219" fill="#e51a00" fill-opacity=".94902" fill-rule="evenodd"/><path d="m223.23 10.976c17.238 0 31.215 13.98 31.215 31.219 0 17.238-13.977 31.215-31.215 31.215s-31.219-13.977-31.219-31.215 13.98-31.219 31.219-31.219" fill="#e10f00" fill-opacity=".95" fill-rule="evenodd"/><g stroke="#000" stroke-linecap="round" stroke-linejoin="round" stroke-opacity=".85" transform="translate(1.8511 3.0341)"><use x="243.93694" xlink:href="#a" y="6.2359"/><use x="258.17603" xlink:href="#a" y="17.700399"/><use x="269.47644" xlink:href="#a" y="29.164499"/><use x="281.90732" xlink:href="#a" y="45.314899"/><use x="289.13898" xlink:href="#a" y="56.778999"/><use x="294.33701" xlink:href="#a" y="68.2435"/><use x="298.1796" xlink:href="#a" y="79.707603"/><use x="301.57022" xlink:href="#a" y="91.172096"/><use x="303.60422" xlink:href="#a" y="102.6362"/><use x="304.96045" xlink:href="#a" y="114.1007"/></g><g font-family="DejaVu Sans" stroke-width=".75"><text font-size="11" x="205.5721" y="44.95509"><tspan font-family="Calibri" font-size="11" stroke-width=".75" x="205.5721" y="44.95509">delivery</tspan></text><g font-size="9"><text x="251.95743" y="9.275913"><tspan font-family="Calibri" font-size="9" stroke-width=".75" x="251.95743" y="9.275913">optimized logistics (business-to-customer)</tspan></text><text x="266.20053" y="20.740412"><tspan font-family="Calibri" font-size="9" stroke-width=".75" x="266.20053" y="20.740412">planning and scheduling of maintenance visits</tspan></text><text x="277.50092" y="32.204514"><tspan font-family="Calibri" font-size="9" stroke-width=".75" x="277.50092" y="32.204514">planning and scheduling of supply visits</tspan></text><text x="289.93182" y="48.354912"><tspan font-family="Calibri" font-size="9" stroke-width=".75" x="289.93182" y="48.354912">production planning and scheduling</tspan></text><text x="302.55713" y="71.28791"><tspan font-family="Calibri" font-size="9" stroke-width=".75" x="302.55713" y="71.28791">optimization of production processes</tspan></text><text x="306.19971" y="82.747612"><tspan font-family="Calibri" font-size="9" stroke-width=".75" x="306.19971" y="82.747612">optimization of stock-keeping</tspan></text><text x="309.59073" y="94.212112"><tspan font-family="Calibri" font-size="9" stroke-width=".75" x="309.59073" y="94.212112">optimization of intra-enterprise logistics</tspan></text><text x="311.6243" y="105.68061"><tspan font-family="Calibri" font-size="9" stroke-width=".75" x="311.6243" y="105.68061">optimization of supply chains</tspan></text><text x="312.98056" y="117.14071"><tspan font-family="Calibri" font-size="9" stroke-width=".75" x="312.98056" y="117.14071">optimization of factory layouts and intra-factory logistics</tspan></text><text x="297.15906" y="59.819012"><tspan font-family="Calibri" font-size="9" stroke-width=".75" x="297.15906" y="59.819012">optimized assignment of jobs/orders to machines</tspan></text></g><text font-size="11" x="227.51938" y="82.05629"><tspan font-family="Calibri" font-size="11" stroke-width=".75" x="227.51938" y="82.05629">production</tspan></text></g></svg>