<svg height="399pt" viewBox="0 0 314 399" width="314pt" xmlns="http://www.w3.org/2000/svg"><g transform="matrix(1.3333 0 0 -1.3333 -913.25 567.33)"><path d="m854.42 127.13 65.267 65.277v-65.277z" fill="#aa0078"/><path d="m685.69 295.86v-168.73h168.73z" fill="#008200"/><path d="m685.69 295.86v65.267h65.267z" fill="#aa0078"/><path d="m750.96 361.13h168.73v-168.72z" fill="#008200"/><g fill="#00788c"><path d="m766.03 380.57a1.5002 1.5002 0 0 0 -1.5 1.5v41.041a1.5002 1.5002 0 0 0 1.5 1.5h57a1.5002 1.5002 0 0 0 1.5-1.5v-41.041a1.5002 1.5002 0 0 0 -1.5-1.5zm1.5 3h54v38.041h-54z"/><path d="m703.79 362.32a1.5 1.5 0 0 0 -.008 2.1211l51.68 52.039a1.5002 1.5002 0 0 0 1.0645.44336h4.75a1.5 1.5 0 0 0 1.5-1.5 1.5 1.5 0 0 0 -1.5-1.5h-4.125l-51.24-51.596a1.5 1.5 0 0 0 -2.1211-.008z"/><g transform="scale(1 -1)"><text font-family="Euclid" font-size="60" font-weight="bold" stroke-width=".75" x="779.94434" y="-388.5282"><tspan fill="#00788c" font-family="Calibri" font-size="60" font-weight="bold" stroke-width=".75" x="779.94434" y="-388.5282">x</tspan></text><path d="m685.69-365.8h65.267v4.6657h-65.267z"/></g></g><path d="m750.96 361.13 168.73-168.72-65.267-65.277-168.73 168.73z" fill="#0000a0" fill-rule="evenodd"/></g></svg>