<svg height="242.67" viewBox="0 0 524 242.67" width="524" xmlns="http://www.w3.org/2000/svg"><g transform="matrix(1.3333 0 0 -1.3333 0 242.67)"><g fill="none" stroke="#b4b4b4" stroke-linecap="round" stroke-linejoin="round" stroke-width=".99975"><path d="m356.13 37.664h-337.61"/><path d="m356.13 63.758h-337.61"/><path d="m356.13 89.75h-337.61"/><path d="m356.13 115.84h-337.61"/><path d="m356.13 141.94h-337.61"/><path d="m356.13 167.93h-337.61"/><path d="m52.512 11.57v167.96"/><path d="m86.301 11.57v167.96"/><path d="m120.09 11.57v167.96"/><path d="m153.89 11.57v167.96"/><path d="m187.68 11.57v167.96"/><path d="m221.47 11.57v167.96"/><path d="m255.26 11.57v167.96"/><path d="m289.05 11.57v167.96"/><path d="m322.84 11.57v167.96"/></g><path d="m18.418 11.571h.42188v169.36h-.42188z" fill="#bfbfbf" fill-rule="evenodd"/><path d="m18.617 11.477h338.12v.29297h-338.12z" fill="#bfbfbf" fill-rule="evenodd"/><path d="m356.54 11.57h-337.72" fill="none" stroke="#000" stroke-linecap="round" stroke-linejoin="round" stroke-width="1.9995"/><path d="m18.617 11.871v168.86" fill="none" stroke="#000" stroke-linecap="round" stroke-linejoin="round" stroke-width="1.9995"/><path d="m18.357 6.2114q-.68538 0-1.0325-.67659-.34269-.6722-.34269-2.0254 0-1.3488.34269-2.0254.34708-.6722 1.0325-.6722.68977 0 1.0325.6722.34708.67659.34708 2.0254 0 1.3532-.34708 2.0254-.34269.67659-1.0325.67659zm0 .70295q1.1028 0 1.6827-.87429.58433-.8699.58433-2.5306 0-1.6563-.58433-2.5306-.57993-.8699-1.6827-.8699-1.1028 0-1.6871.8699-.57993.87429-.57993 2.5306 0 1.6607.57993 2.5306.58433.87429 1.6871.87429z"/><path d="m47.692.98321h1.4498v5.0041l-1.5772-.31633v.80839l1.5685.31633h.88747v-5.8125h1.4498v-.74688h-3.7784z"/><path d="m55.158 6.2114q-.68538 0-1.0325-.67659-.34269-.6722-.34269-2.0254 0-1.3488.34269-2.0254.34708-.6722 1.0325-.6722.68977 0 1.0325.6722.34708.67659.34708 2.0254 0 1.3532-.34708 2.0254-.34269.67659-1.0325.67659zm0 .70295q1.1028 0 1.6827-.87429.58433-.8699.58433-2.5306 0-1.6563-.58433-2.5306-.57993-.8699-1.6827-.8699-1.1028 0-1.6871.8699-.57993.87429-.57993 2.5306 0 1.6607.57993 2.5306.58433.87429 1.6871.87429z"/><path d="m82.287.98321h3.0974v-.74688h-4.165v.74688q.50524.52282 1.3751 1.4015.87429.88308 1.0984 1.1379.42616.47888.59311.80839.17134.3339.17134.65462 0 .52282-.36905.85233-.36466.32951-.95338.32951-.41738 0-.88308-.14498-.46131-.14498-.98852-.43934v.89626q.536.21528 1.0017.32511t.85233.10984q1.0193 0 1.6256-.50964t.60629-1.362q0-.4042-.15377-.76885-.14938-.36026-.54918-.85233-.10984-.12741-.69856-.7381-.58872-.60629-1.6607-1.7003z"/><path d="m89.143 6.2114q-.68538 0-1.0325-.67659-.34269-.6722-.34269-2.0254 0-1.3488.34269-2.0254.34708-.6722 1.0325-.6722.68977 0 1.0325.6722.34708.67659.34708 2.0254 0 1.3532-.34708 2.0254-.34269.67659-1.0325.67659zm0 .70295q1.1028 0 1.6827-.87429.58433-.8699.58433-2.5306 0-1.6563-.58433-2.5306-.57993-.8699-1.6827-.8699-1.1028 0-1.6871.8699-.57993.87429-.57993 2.5306 0 1.6607.57993 2.5306.58433.87429 1.6871.87429z"/><path d="m117.95 3.773q.63704-.1362.99291-.56675.36026-.43056.36026-1.0632 0-.97095-.6678-1.5026-.6678-.53161-1.898-.53161-.41298 0-.85233.083475-.43495.079082-.90065.24164v.85672q.36905-.21528.80839-.32511.43934-.10984.91823-.10984.83475 0 1.2697.32951.43934.32951.43934.95777 0 .57993-.40859.90505-.40419.32951-1.1291.32951h-.76446v.72931h.79961q.65462 0 1.0017.25921.34708.26361.34708.75567 0 .50524-.36026.77324-.35587.27239-1.0237.27239-.36465 0-.78203-.079082t-.91823-.24603v.79082q.50525.14059.94459.21088.44374.070295.83475.070295 1.0105 0 1.5992-.46131.58872-.45692.58872-1.2389 0-.54479-.31193-.92262-.31193-.37344-.88747-.51842z"/><path d="m122.88 6.2114q-.68537 0-1.0324-.67659-.34269-.6722-.34269-2.0254 0-1.3488.34269-2.0254.34708-.6722 1.0324-.6722.68977 0 1.0325.6722.34708.67659.34708 2.0254 0 1.3532-.34708 2.0254-.34269.67659-1.0325.67659zm0 .70295q1.1028 0 1.6827-.87429.58432-.8699.58432-2.5306 0-1.6563-.58432-2.5306-.57994-.8699-1.6827-.8699t-1.6871.8699q-.57993.87429-.57993 2.5306 0 1.6607.57993 2.5306.58433.87429 1.6871.87429z"/><path d="m151.65 6.0225-2.2406-3.5016h2.2406zm-.23285.77324h1.1159v-4.2748h.9358v-.7381h-.9358v-1.5465h-.88308v1.5465h-2.9612v.85672z"/><path d="m156.83 6.2114q-.68537 0-1.0324-.67659-.34269-.6722-.34269-2.0254 0-1.3488.34269-2.0254.34708-.6722 1.0324-.6722.68977 0 1.0325.6722.34708.67659.34708 2.0254 0 1.3532-.34708 2.0254-.34269.67659-1.0325.67659zm0 .70295q1.1028 0 1.6827-.87429.58432-.8699.58432-2.5306 0-1.6563-.58432-2.5306-.57994-.8699-1.6827-.8699t-1.6871.8699q-.57993.87429-.57993 2.5306 0 1.6607.57993 2.5306.58433.87429 1.6871.87429z"/><path d="m182.85 6.7957h3.484v-.74688h-2.6712v-1.608q.19331.065901.38662.096656.19331.035147.38662.035147 1.0984 0 1.7398-.6019.64144-.6019.64144-1.63 0-1.0588-.65901-1.6475-.65902-.58433-1.8584-.58433-.41298 0-.84353.070295-.42617.070295-.88308.21088v.89187q.3954-.21528.81717-.32072t.89187-.10544q.76007 0 1.2038.3998.44374.3998.44374 1.0852t-.44374 1.0852q-.44373.3998-1.2038.3998-.35587 0-.71173-.079082-.35148-.079082-.72053-.24603z"/><path d="m190.46 6.2114q-.68537 0-1.0324-.67659-.34269-.6722-.34269-2.0254 0-1.3488.34269-2.0254.34708-.6722 1.0324-.6722.68977 0 1.0325.6722.34708.67659.34708 2.0254 0 1.3532-.34708 2.0254-.34269.67659-1.0325.67659zm0 .70295q1.1028 0 1.6827-.87429.58432-.8699.58432-2.5306 0-1.6563-.58432-2.5306-.57994-.8699-1.6827-.8699t-1.6871.8699q-.57993.87429-.57993 2.5306 0 1.6607.57993 2.5306.58433.87429 1.6871.87429z"/><path d="m218.7 3.8697q-.59751 0-.94898-.40859-.34709-.40859-.34709-1.1203 0-.70734.34709-1.1203.35147-.40859.94898-.40859.5975 0 .94458.40859.35148.41298.35148 1.1203 0 .71174-.35148 1.1203-.34708.40859-.94458.40859zm1.7618 2.781v-.80839q-.3339.15816-.67659.24164-.33829.083475-.67219.083475-.87869 0-1.3444-.59311-.46131-.59311-.52721-1.7925.25921.38223.65023.58433.39101.20649.86111.20649.98852 0 1.5597-.6019.57554-.59751.57554-1.63 0-1.0105-.59751-1.6212-.59751-.61069-1.5904-.61069-1.1379 0-1.7398.8699-.6019.87429-.6019 2.5306 0 1.5553.73809 2.4779.7381.92701 1.9814.92701.3339 0 .6722-.065902.34268-.065901.71173-.1977z"/><path d="m224.32 6.2114q-.68538 0-1.0325-.67659-.34269-.6722-.34269-2.0254 0-1.3488.34269-2.0254.34708-.6722 1.0325-.6722.68976 0 1.0324.6722.34708.67659.34708 2.0254 0 1.3532-.34708 2.0254-.34269.67659-1.0324.67659zm0 .70295q1.1028 0 1.6827-.87429.58433-.8699.58433-2.5306 0-1.6563-.58433-2.5306-.57993-.8699-1.6827-.8699-1.1028 0-1.6871.8699-.57994.87429-.57994 2.5306 0 1.6607.57994 2.5306.58432.87429 1.6871.87429z"/><path d="m250.17 6.7957h4.2177v-.37784l-2.3812-6.1816h-.92702l2.2406 5.8125h-3.1501z"/><path d="m258.01 6.2114q-.68537 0-1.0325-.67659-.34268-.6722-.34268-2.0254 0-1.3488.34268-2.0254.34709-.6722 1.0325-.6722.68977 0 1.0325.6722.34708.67659.34708 2.0254 0 1.3532-.34708 2.0254-.34269.67659-1.0325.67659zm0 .70295q1.1028 0 1.6827-.87429.58432-.8699.58432-2.5306 0-1.6563-.58432-2.5306-.57994-.8699-1.6827-.8699t-1.6871.8699q-.57993.87429-.57993 2.5306 0 1.6607.57993 2.5306.58433.87429 1.6871.87429z"/><path d="m286.18 3.3513q-.63266 0-.99731-.33829-.36026-.33829-.36026-.93141 0-.59311.36026-.93141.36465-.33829.99731-.33829.63265 0 .99731.33829.36465.34269.36465.93141 0 .59311-.36465.93141-.36026.33829-.99731.33829zm-.88748.37784q-.57114.14059-.89186.53161-.31633.39102-.31633.95337 0 .78642.55797 1.2433.56236.45692 1.5377.45692.97973 0 1.5377-.45692t.55797-1.2433q0-.56236-.32072-.95337-.31633-.39102-.88308-.53161.64144-.14938.9973-.58433.36027-.43495.36027-1.0632 0-.95337-.58433-1.463-.57993-.50964-1.6651-.50964t-1.6695.50964q-.57993.50964-.57993 1.463 0 .62826.36026 1.0632.36026.43495 1.0017.58433zm-.32511 1.4015q0-.50964.31633-.79521.32072-.28557.89626-.28557.57114 0 .89187.28557.32511.28557.32511.79521t-.32511.79521q-.32073.28557-.89187.28557-.57554 0-.89626-.28557-.31633-.28557-.31633-.79521z"/><path d="m291.9 6.2114q-.68537 0-1.0324-.67659-.34269-.6722-.34269-2.0254 0-1.3488.34269-2.0254.34708-.6722 1.0324-.6722.68977 0 1.0325.6722.34708.67659.34708 2.0254 0 1.3532-.34708 2.0254-.34269.67659-1.0325.67659zm0 .70295q1.1028 0 1.6827-.87429.58432-.8699.58432-2.5306 0-1.6563-.58432-2.5306-.57994-.8699-1.6827-.8699t-1.6871.8699q-.57993.87429-.57993 2.5306 0 1.6607.57993 2.5306.58433.87429 1.6871.87429z"/><path d="m318.08.37252v.80839q.33391-.15816.67659-.24164.34269-.083475.6722-.083475.87869 0 1.34.58872.4657.59311.5316 1.7969-.25482-.37784-.64583-.57993-.39102-.2021-.86551-.2021-.98413 0-1.5597.59311-.57114.59751-.57114 1.63 0 1.0105.5975 1.6212.59751.61069 1.5904.61069 1.1379 0 1.7354-.87429.6019-.8699.6019-2.5306 0-1.5509-.7381-2.4779-.7337-.92262-1.977-.92262-.3339 0-.67659.065902t-.71174.1977zm1.7662 2.781q.59751 0 .94459.40859.35148.40859.35148 1.1203 0 .70734-.35148 1.1159-.34708.41298-.94459.41298-.5975 0-.94898-.41298-.34708-.40859-.34708-1.1159 0-.71174.34708-1.1203.35148-.40859.94898-.40859z"/><path d="m325.68 6.2114q-.68537 0-1.0324-.67659-.34269-.6722-.34269-2.0254 0-1.3488.34269-2.0254.34708-.6722 1.0324-.6722.68977 0 1.0325.6722.34708.67659.34708 2.0254 0 1.3532-.34708 2.0254-.34269.67659-1.0325.67659zm0 .70295q1.1028 0 1.6827-.87429.58432-.8699.58432-2.5306 0-1.6563-.58432-2.5306-.57994-.8699-1.6827-.8699t-1.6871.8699q-.57993.87429-.57993 2.5306 0 1.6607.57993 2.5306.58433.87429 1.6871.87429z"/><path d="m348.18.98321h1.4498v5.0041l-1.5772-.31633v.80839l1.5685.31633h.88747v-5.8125h1.4498v-.74688h-3.7784z"/><path d="m355.65 6.2114q-.68537 0-1.0325-.67659-.34268-.6722-.34268-2.0254 0-1.3488.34268-2.0254.34709-.6722 1.0325-.6722.68977 0 1.0325.6722.34708.67659.34708 2.0254 0 1.3532-.34708 2.0254-.34269.67659-1.0325.67659zm0 .70295q1.1028 0 1.6827-.87429.58432-.8699.58432-2.5306 0-1.6563-.58432-2.5306-.57994-.8699-1.6827-.8699t-1.6871.8699q-.57993.87429-.57993 2.5306 0 1.6607.57993 2.5306.58433.87429 1.6871.87429z"/><path d="m361.37 6.2114q-.68538 0-1.0325-.67659-.34269-.6722-.34269-2.0254 0-1.3488.34269-2.0254.34708-.6722 1.0325-.6722.68976 0 1.0324.6722.34708.67659.34708 2.0254 0 1.3532-.34708 2.0254-.34269.67659-1.0324.67659zm0 .70295q1.1028 0 1.6827-.87429.58433-.8699.58433-2.5306 0-1.6563-.58433-2.5306-.57993-.8699-1.6827-.8699-1.1028 0-1.6871.8699-.57994.87429-.57994 2.5306 0 1.6607.57994 2.5306.58432.87429 1.6871.87429z"/><path d="m11.141 14.31q-.68538 0-1.0325-.67659-.34269-.6722-.34269-2.0254 0-1.3488.34269-2.0254.34708-.6722 1.0325-.6722.68977 0 1.0325.6722.34708.67659.34708 2.0254 0 1.3532-.34708 2.0254-.34269.67659-1.0325.67659zm0 .70295q1.1028 0 1.6827-.87429.58433-.8699.58433-2.5306 0-1.6563-.58433-2.5306-.57993-.8699-1.6827-.8699-1.1028 0-1.6871.8699-.57993.87429-.57993 2.5306 0 1.6607.57993 2.5306.58433.87429 1.6871.87429z"/><path d="m2.7801 40.345q-.68538 0-1.0325-.67659-.34269-.6722-.34269-2.0254 0-1.3488.34269-2.0254.34708-.6722 1.0325-.6722.68977 0 1.0325.6722.34708.67659.34708 2.0254 0 1.3532-.34708 2.0254-.34269.67659-1.0325.67659zm0 .70295q1.1028 0 1.6827-.87429.58433-.8699.58433-2.5306 0-1.6563-.58433-2.5306-.57993-.8699-1.6827-.8699-1.1028 0-1.6871.8699-.57993.87429-.57993 2.5306 0 1.6607.57993 2.5306.58433.87429 1.6871.87429z"/><path d="m6.6047 35.486h.92701v-1.1159h-.92701z"/><path d="m9.6197 35.117h1.4498v5.0041l-1.5772-.31633v.80839l1.5685.31633h.88747v-5.8125h1.4498v-.74688h-3.7784z"/><path d="m2.8504 66.429q-.68538 0-1.0325-.67659-.34269-.6722-.34269-2.0254 0-1.3488.34269-2.0254.34708-.6722 1.0325-.6722.68977 0 1.0325.6722.34708.67659.34708 2.0254 0 1.3532-.34708 2.0254-.34269.67659-1.0325.67659zm0 .70295q1.1028 0 1.6827-.87429.58433-.8699.58433-2.5306 0-1.6563-.58433-2.5306-.57993-.8699-1.6827-.8699-1.1028 0-1.6871.8699-.57993.87429-.57993 2.5306 0 1.6607.57993 2.5306.58433.87429 1.6871.87429z"/><path d="m6.675 61.569h.92701v-1.1159h-.92701z"/><path d="m10.301 61.2h3.0974v-.74688h-4.165v.74688q.50524.52282 1.3751 1.4015.87429.88308 1.0984 1.1379.42616.47888.59311.80839.17134.3339.17134.65462 0 .52282-.36905.85233-.36466.32951-.95338.32951-.41738 0-.88308-.14498-.46131-.14498-.98852-.43934v.89626q.536.21528 1.0017.32511.4657.10984.85233.10984 1.0193 0 1.6256-.50964.60629-.50964.60629-1.362 0-.4042-.15377-.76885-.14938-.36026-.54918-.85233-.10984-.12741-.69856-.7381-.58872-.60629-1.6607-1.7003z"/><path d="m2.6703 92.464q-.68538 0-1.0325-.67659-.34269-.6722-.34269-2.0254 0-1.3488.34269-2.0254.34708-.6722 1.0325-.6722.68977 0 1.0325.6722.34708.67659.34708 2.0254 0 1.3532-.34708 2.0254-.34269.67659-1.0325.67659zm0 .70295q1.1028 0 1.6827-.87429.58433-.8699.58433-2.5306 0-1.6563-.58433-2.5306-.57993-.8699-1.6827-.8699-1.1028 0-1.6871.8699-.57993.87429-.57993 2.5306 0 1.6607.57993 2.5306.58433.87429 1.6871.87429z"/><path d="m6.4949 87.605h.92701v-1.1159h-.92701z"/><path d="m12.044981 90.025475q.637048-.136196.992916-.566753.360261-.430556.360261-1.06321 0-.970949-.667802-1.502554-.667801-.531606-1.897963-.531606-.412982 0-.8523256.08348-.4349498.07908-.9006537.241638v.85672q.3690484-.215278.8083916-.325114.4393437-.109836.9182277-.109836.834752 0 1.269702.329507.439343.329508.439343.957769 0 .579933-.408589.905047-.404196.329507-1.129112.329507h-.764458v.72931h.799605q.654622 0 1.001703.259213.347081.263606.347081.75567 0 .505245-.360262.773244-.355868.272393-1.023669.272393-.364655 0-.782031-.07908-.4173765-.07908-.9182278-.246032v.790812q.5052448.14059.9445878.210885.443737.0703.834752.0703 1.01049 0 1.59921-.461311.58872-.456917.58872-1.238948 0-.544785-.311934-.922621-.311933-.373441-.887473-.518425z"/><path d="m2.4551 118.55q-.68538 0-1.0325-.67659-.34269-.6722-.34269-2.0254 0-1.3488.34269-2.0254.34708-.67219 1.0325-.67219.68977 0 1.0325.67219.34708.67659.34708 2.0254 0 1.3532-.34708 2.0254-.34269.67659-1.0325.67659zm0 .70294q1.1028 0 1.6827-.87429.58433-.8699.58433-2.5306 0-1.6563-.58433-2.5306-.57993-.8699-1.6827-.8699-1.1028 0-1.6871.8699-.57993.87429-.57993 2.5306 0 1.6607.57993 2.5306.58433.87429 1.6871.87429z"/><path d="m6.2797 113.69h.92701v-1.1159h-.92701z"/><path d="m11.579 118.36-2.2407-3.5016h2.2407zm-.23285.77324h1.1159v-4.2748h.9358v-.73809h-.9358v-1.5465h-.88308v1.5465h-2.9612v.85671z"/><path d="m2.7359 144.63q-.68538 0-1.0325-.67659-.34269-.6722-.34269-2.0254 0-1.3488.34269-2.0254.34708-.67219 1.0325-.67219.68977 0 1.0325.67219.34708.67659.34708 2.0254 0 1.3532-.34708 2.0254-.34269.67659-1.0325.67659zm0 .70295q1.1028 0 1.6827-.8743.58433-.86989.58433-2.5306 0-1.6563-.58433-2.5306-.57993-.8699-1.6827-.8699t-1.6871.8699q-.57993.87429-.57993 2.5306 0 1.6607.57993 2.5306.58433.8743 1.6871.8743z"/><path d="m6.5605 139.77h.92701v-1.1159h-.92701z"/><path d="m9.4306111 145.21536h3.4839919v-.74689h-2.671207v-1.60799q.193311.0659.386622.0967.193311.0351.386622.0351 1.098358 0 1.7398-.6019.641441-.6019.641441-1.62997 0-1.05881-.659015-1.64753-.659015-.58433-1.858422-.58433-.412983 0-.843539.0703-.4261632.0703-.8830802.21088v.89187q.395409-.21528.8171785-.32072.4217697-.10545.8918667-.10545.760064 0 1.203801.39981.443736.3998.443736 1.08517 0 .68538-.443736 1.08518-.443737.3998-1.203801.3998-.355868 0-.711736-.0791-.3514746-.0791-.7205229-.24603z"/><path d="m2.5164 170.67q-.68538 0-1.0325-.67659-.34269-.67219-.34269-2.0254 0-1.3488.34269-2.0254.34708-.6722 1.0325-.6722.68977 0 1.0325.6722.34708.67659.34708 2.0254 0 1.3532-.34708 2.0254-.34269.67659-1.0325.67659zm0 .70295q1.1028 0 1.6827-.87429.58433-.8699.58433-2.5306 0-1.6563-.58433-2.5306-.57993-.8699-1.6827-.8699t-1.6871.8699q-.57993.8743-.57993 2.5306 0 1.6607.57993 2.5306.58433.87429 1.6871.87429z"/><path d="m6.341 165.81h.92701v-1.1159h-.92701z"/><path d="m11.210093 168.32453q-.597507 0-.948982-.40859-.3470808-.40859-.3470808-1.12032 0-.70735.3470808-1.12033.351475-.40859.948982-.40859.597507 0 .944588.40859.351475.41298.351475 1.12033 0 .71173-.351475 1.12032-.347081.40859-.944588.40859zm1.761766 2.78104v-.80839q-.3339.15817-.676588.24164-.338295.0835-.672195.0835-.878687 0-1.344391-.59312-.4613103-.59311-.5272118-1.79252.2592128.38223.6502278.58433.391016.20649.861113.20649.988522 0 1.559669-.6019.575539-.59751.575539-1.62996 0-1.01049-.597506-1.62118-.597507-.61069-1.590423-.61069-1.137899 0-1.7397995.8699-.6019003.8743-.6019003 2.53062 0 1.55527.7380967 2.4779.7380971.92701 1.9814381.92701.333901 0 .672195-.0659.342688-.0659.711736-.19771z"/><path d="m21.7191 14.3711 3.3789 2.5859 6.754 5.0821 6.7531 4.9808 6.7578 4.886 3.3793 2.3953 10.2066 7.0816 10.1371 6.8871 3.3789 2.1992 3.375 2.2457 3.3793 2.1993 3.3789 2.148 3.379 2.2 13.507 8.402 3.375 2 3.45 2.0507 6.753 4.0082 6.758 3.9059 3.379 1.9063 3.375 1.9527 13.508 7.4223 6.758 3.6168 6.754 3.516 3.449 1.7582 3.375 1.7608 3.379 1.708 13.508 6.644 10.136 4.836 10.137 4.688 6.758 3.027 3.445 1.515 13.508 5.864 6.754 2.832 3.379 1.367 3.379 1.418 6.754 2.734 13.507 5.278 3.45 1.269 10.136 3.809 13.508 4.887 13.504 4.687 3.379 1.125 3.379 1.172 3.379 1.121 3.379 1.078 3.445 1.121 10.141 3.227 3.375 1.023 3.379 1.074 10.136 3.079 3.379.976 3.379 1.027 6.754 1.954.492.097.426.145.984.293.493.097.421.149.352.097.141.051h.07c.211.098.492 0 .562-.148.071-.149 0-.293-.21-.391h-.141l-.141-.051-.351-.097-.422-.145-.422-.097-1.477-.442-.425-.098-6.754-1.953-3.379-1.023-3.379-.977-13.504-4.105-13.508-4.297-3.379-1.125-3.379-1.074-3.375-1.125-3.449-1.121-3.379-1.176-3.379-1.121-6.754-2.344-3.378-1.223-3.379-1.171-6.754-2.442-3.379-1.269-3.379-1.223-10.137-3.809-10.137-3.957-3.378-1.367-3.379-1.32-3.375-1.418-6.758-2.734-6.754-2.833-13.508-5.863-10.137-4.543-10.136-4.687-3.379-1.614-3.379-1.562-3.379-1.66-3.375-1.61-6.758-3.324-10.137-5.1291-10.136-5.2731-6.758-3.6168-3.375-1.8558-3.449-1.8551-3.379-1.8562-10.137-5.7149-6.754-3.9101-10.14-6.0079-3.375-2.05-3.379-2.1019-3.3789-2.0512-3.3793-2.148-3.3789-2.102-3.3789-2.148-10.1371-6.5981-6.7539-4.4918-6.7539-4.5898-6.7571-4.691-6.7539-4.7852-6.7543-4.8871-6.7578-4.9809-6.7539-5.082-3.3793-2.5859c-.1398-.0973-.4218-.1481-.6328 0-.1398.098-.1398.2929 0 .391" fill="#00f"/><path d="m21.7191 14.3711 3.3789 2.5859 6.754 5.0821 6.7531 4.9808 6.7578 4.886 3.3793 2.3953 10.2066 7.0816 10.1371 6.8871 3.3789 2.1992 3.375 2.2457 3.3793 2.1993 3.3789 2.148 3.379 2.2 13.507 8.402 3.375 2 3.45 2.0507 6.753 4.0082 6.758 3.9059 3.379 1.9063 3.375 1.9527 13.508 7.4223 6.758 3.6168 6.754 3.516 3.449 1.7582 3.375 1.7608 3.379 1.708 13.508 6.644 10.136 4.836 10.137 4.688 6.758 3.027 3.445 1.515 13.508 5.864 6.754 2.832 3.379 1.367 3.379 1.418 6.754 2.734 13.507 5.278 3.45 1.269 10.136 3.809 13.508 4.887 13.504 4.687 3.379 1.125 3.379 1.172 3.379 1.121 3.379 1.078 3.445 1.121 10.141 3.227 3.375 1.023 3.379 1.074 10.136 3.079 3.379.976 3.379 1.027 6.754 1.954.492.097.426.145.984.293.493.097.421.149.352.097.141.051h.07c.211.098.492 0 .562-.148.071-.149 0-.293-.21-.391h-.141l-.141-.051-.351-.097-.422-.145-.422-.097-1.477-.442-.425-.098-6.754-1.953-3.379-1.023-3.379-.977-13.504-4.105-13.508-4.297-3.379-1.125-3.379-1.074-3.375-1.125-3.449-1.121-3.379-1.176-3.379-1.121-6.754-2.344-3.378-1.223-3.379-1.171-6.754-2.442-3.379-1.269-3.379-1.223-10.137-3.809-10.137-3.957-3.378-1.367-3.379-1.32-3.375-1.418-6.758-2.734-6.754-2.833-13.508-5.863-10.137-4.543-10.136-4.687-3.379-1.614-3.379-1.562-3.379-1.66-3.375-1.61-6.758-3.324-10.137-5.1291-10.136-5.2731-6.758-3.6168-3.375-1.8558-3.449-1.8551-3.379-1.8562-10.137-5.7149-6.754-3.9101-10.14-6.0079-3.375-2.05-3.379-2.1019-3.3789-2.0512-3.3793-2.148-3.3789-2.102-3.3789-2.148-10.1371-6.5981-6.7539-4.4918-6.7539-4.5898-6.7571-4.691-6.7539-4.7852-6.7543-4.8871-6.7578-4.9809-6.7539-5.082-3.3793-2.5859c-.1398-.0973-.4218-.1481-.6328 0-.1398.098-.1398.2929 0 .391" fill="none" stroke="#00f" stroke-width="2.9992"/><path d="m128.66 20.98h1.188l2.906-5.484v5.484h.859v-6.5621h-1.187l-2.906 5.484v-5.484h-.86z" fill="none" stroke="#fff" stroke-linecap="round" stroke-linejoin="round" stroke-width="1.9995"/><text fill="#fff" font-family="DejaVu Sans" font-size="8.9978" transform="scale(1 -1)" x="127.771" y="-14.4188"><tspan x="127.771" y="-14.4188">N</tspan></text><path d="m135.562 15.527h.92187v-1.10898h-.92187zm0 3.5468h.92187v-1.125h-.92187z" fill="none" stroke="#fff" stroke-linecap="round" stroke-linejoin="round" stroke-width="1.9995"/><text fill="#fff" font-family="DejaVu Sans" font-size="8.9978" transform="scale(1 -1)" x="134.50101" y="-14.4188"><tspan x="134.50101 137.53325" y="-14.4188">:</tspan></text><path d="m145.344 17.3871v-2.9691h-.813v2.9371c0 .4687-.09.8168-.265 1.0469-.18.239-.45.3601-.813.3601-.437 0-.789-.141-1.047-.4223-.25-.2808-.375-.6636-.375-1.141v-2.7808h-.812v4.9218h.812v-.766c.196.2891.426.5082.688.6563.258.157.562.2347.906.2347.563 0 .988-.1796 1.281-.5308.289-.3559.438-.8719.438-1.5469z" fill="none" stroke="#fff" stroke-linecap="round" stroke-linejoin="round" stroke-width="1.9995"/><text fill="#fff" font-family="DejaVu Sans" font-size="8.9978" transform="scale(1 -1)" x="140.40601" y="-14.4188"><tspan x="140.40601" y="-14.4188">n</tspan></text><path d="m146.883 16.3551v2.9847h.812v-2.9527c0-.4609.086-.809.266-1.0473.187-.2308.457-.3437.812-.3437.438 0 .782.1328 1.032.4059.257.282.39.6601.39 1.141v2.7968h.813v-4.9218h-.813v.75c-.199-.293-.429-.5121-.687-.6559-.262-.1449-.563-.2191-.906-.2191-.563 0-.993.1718-1.282.516-.293.3512-.437.8672-.437 1.5461z" fill="none" stroke="#fff" stroke-linecap="round" stroke-linejoin="round" stroke-width="1.9995"/><text fill="#fff" font-family="DejaVu Sans" font-size="8.9978" transform="scale(1 -1)" x="146.118" y="-14.4188"><tspan x="146.118" y="-14.4188">u</tspan></text><path d="m156.516 18.402c.195.3519.437.6179.718.7968.282.1762.614.266 1 .266.508 0 .899-.1839 1.172-.5468.282-.3559.422-.8668.422-1.5309v-2.9691h-.812v2.9371c0 .4769-.086.8328-.25 1.0629-.168.2269-.422.3441-.766.3441-.418 0-.75-.141-1-.4223-.242-.2808-.359-.6636-.359-1.141v-2.7808h-.813v2.9371c0 .4769-.086.8328-.25 1.0629-.168.2269-.422.3441-.766.3441-.417 0-.75-.141-1-.4223-.242-.2808-.359-.6636-.359-1.141v-2.7808h-.812v4.9218h.812v-.766c.188.3012.41.5242.672.6723.258.1449.566.2187.922.2187.351 0 .656-.0937.906-.2808.25-.1801.438-.4379.563-.782z" fill="none" stroke="#fff" stroke-linecap="round" stroke-linejoin="round" stroke-width="1.9995"/><text fill="#fff" font-family="DejaVu Sans" font-size="8.9978" transform="scale(1 -1)" x="151.82899" y="-14.4188"><tspan x="151.82899" y="-14.4188">m</tspan></text><path d="m164.973 16.8711c0 .5937-.125 1.0551-.375 1.391-.243.343-.575.5149-1 .5149-.43 0-.766-.1719-1.016-.5149-.242-.3359-.359-.7973-.359-1.391 0-.5941.117-1.0621.359-1.4063.25-.3359.586-.5 1.016-.5.425 0 .757.1641 1 .5.25.3442.375.8122.375 1.4063zm-2.75 1.7187c.175.2891.39.5082.64.6563.258.1449.571.2187.938.2187.594 0 1.078-.2418 1.453-.7187.375-.4801.562-1.1051.562-1.875 0-.7731-.187-1.3981-.562-1.875-.375-.4691-.859-.7031-1.453-.7031-.367 0-.68.0699-.938.2031-.25.1449-.465.3629-.64.6559v-.734h-.813v6.8441h.813z" fill="none" stroke="#fff" stroke-linecap="round" stroke-linejoin="round" stroke-width="1.9995"/><text fill="#fff" font-family="DejaVu Sans" font-size="8.9978" transform="scale(1 -1)" x="160.59801" y="-14.4188"><tspan x="160.59801" y="-14.4188">b</tspan></text><path d="m171.371 17.0738v-.3898h-3.719c.032-.5551.196-.977.5-1.266.301-.293.719-.4379 1.25-.4379.313 0 .614.0359.907.1097.289.0704.582.1872.875.3442v-.766c-.293-.125-.594-.2192-.907-.2809-.304-.0633-.609-.0941-.922-.0941-.781 0-1.402.2269-1.859.6871-.461.4578-.687 1.0711-.687 1.8437 0 .8133.211 1.4532.64 1.9223.438.4769 1.024.7187 1.766.7187.664 0 1.191-.2148 1.578-.641.383-.4289.578-1.0117.578-1.75zm-.812.25c-.012.4383-.137.7852-.375 1.0473-.243.2699-.559.4059-.954.4059-.46 0-.824-.1321-1.093-.3899-.274-.25-.43-.6101-.469-1.0781z" fill="none" stroke="#fff" stroke-linecap="round" stroke-linejoin="round" stroke-width="1.9995"/><text fill="#fff" font-family="DejaVu Sans" font-size="8.9978" transform="scale(1 -1)" x="166.31" y="-14.4188"><tspan x="166.31" y="-14.4188">e</tspan></text><path d="m175.547 18.5898c-.094.0512-.195.0864-.297.109-.105.0203-.227.0313-.359.0313-.461 0-.813-.152-1.063-.4531-.242-.293-.359-.7149-.359-1.2649v-2.5941h-.813v4.9218h.813v-.766c.176.3012.398.5242.672.6723.269.1449.597.2187.984.2187.063 0 .125-.0078.187-.016.071-.0109.149-.0226.235-.0308z" fill="none" stroke="#fff" stroke-linecap="round" stroke-linejoin="round" stroke-width="1.9995"/><text fill="#fff" font-family="DejaVu Sans" font-size="8.9978" transform="scale(1 -1)" x="171.84599" y="-14.4188"><tspan x="171.84599 175.54408" y="-14.4188">r</tspan></text><path d="m181.168 18.777c-.43 0-.773-.1719-1.031-.5149-.25-.3359-.375-.7973-.375-1.391 0-.5859.125-1.0473.375-1.391.25-.3352.593-.5 1.031-.5.437 0 .781.1648 1.031.5.25.3437.375.8051.375 1.391 0 .582-.125 1.0469-.375 1.391-.25.343-.594.5149-1.031.5149zm0 .6878c.707 0 1.258-.2308 1.656-.6878.406-.461.61-1.093.61-1.9059 0-.8051-.204-1.4332-.61-1.891-.398-.4602-.949-.6871-1.656-.6871-.699 0-1.25.2269-1.656.6871-.399.4578-.594 1.0859-.594 1.891 0 .8129.195 1.4449.594 1.9059.406.457.957.6878 1.656.6878z" fill="none" stroke="#fff" stroke-linecap="round" stroke-linejoin="round" stroke-width="1.9995"/><text fill="#fff" font-family="DejaVu Sans" font-size="8.9978" transform="scale(1 -1)" x="178.418" y="-14.4188"><tspan x="178.418" y="-14.4188">o</tspan></text><path d="m187.262 21.2621v-.6723h-.782c-.292 0-.496-.0628-.609-.1878-.105-.1168-.156-.3239-.156-.625v-.4372h1.328v-.625h-1.328v-4.2968h-.813v4.2968h-.781v.625h.781v.3442c0 .55.125.9531.375 1.2031.258.25.664.375 1.219.375z" fill="none" stroke="#fff" stroke-linecap="round" stroke-linejoin="round" stroke-width="1.9995"/><text fill="#fff" font-family="DejaVu Sans" font-size="8.9978" transform="scale(1 -1)" x="183.91901" y="-14.4188"><tspan x="183.91901 187.08621" y="-14.4188">f</tspan></text><path d="m194.336 19.152v-.75c-.231.125-.461.2191-.688.282-.23.0621-.464.093-.703.093-.523 0-.929-.168-1.218-.5-.293-.336-.438-.804-.438-1.4059 0-.5941.145-1.059.438-1.391.289-.3352.695-.5 1.218-.5.239 0 .473.032.703.0937.227.0633.457.1563.688.2813v-.75c-.231-.1051-.465-.1832-.703-.234-.242-.0512-.496-.0781-.766-.0781-.742 0-1.328.2269-1.765.6871-.438.4687-.657 1.098-.657 1.891 0 .8008.219 1.4301.657 1.891.437.468 1.039.7027 1.812.7027.25 0 .492-.0269.734-.0777.239-.0551.469-.1332.688-.2351z" fill="none" stroke="#fff" stroke-linecap="round" stroke-linejoin="round" stroke-width="1.9995"/><text fill="#fff" font-family="DejaVu Sans" font-size="8.9978" transform="scale(1 -1)" x="189.946" y="-14.4188"><tspan x="189.946" y="-14.4188">c</tspan></text><path d="m197.652 18.777c-.429 0-.773-.1719-1.031-.5149-.25-.3359-.375-.7973-.375-1.391 0-.5859.125-1.0473.375-1.391.25-.3352.594-.5 1.031-.5.438 0 .782.1648 1.032.5.25.3437.375.8051.375 1.391 0 .582-.125 1.0469-.375 1.391-.25.343-.594.5149-1.032.5149zm0 .6878c.707 0 1.258-.2308 1.657-.6878.406-.461.609-1.093.609-1.9059 0-.8051-.203-1.4332-.609-1.891-.399-.4602-.95-.6871-1.657-.6871-.699 0-1.25.2269-1.656.6871-.398.4578-.594 1.0859-.594 1.891 0 .8129.196 1.4449.594 1.9059.406.457.957.6878 1.656.6878z" fill="none" stroke="#fff" stroke-linecap="round" stroke-linejoin="round" stroke-width="1.9995"/><text fill="#fff" font-family="DejaVu Sans" font-size="8.9978" transform="scale(1 -1)" x="194.90199" y="-14.4188"><tspan x="194.90199" y="-14.4188">o</tspan></text><path d="m205.09 18.402c.195.3519.437.6179.719.7968.281.1762.613.266 1 .266.507 0 .898-.1839 1.171-.5468.282-.3559.422-.8668.422-1.5309v-2.9691h-.812v2.9371c0 .4769-.086.8328-.25 1.0629-.168.2269-.422.3441-.766.3441-.418 0-.75-.141-1-.4223-.242-.2808-.359-.6636-.359-1.141v-2.7808h-.813v2.9371c0 .4769-.086.8328-.25 1.0629-.168.2269-.422.3441-.765.3441-.418 0-.75-.141-1-.4223-.242-.2808-.36-.6636-.36-1.141v-2.7808h-.812v4.9218h.812v-.766c.188.3012.411.5242.672.6723.258.1449.567.2187.922.2187.352 0 .656-.0937.906-.2808.25-.1801.438-.4379.563-.782z" fill="none" stroke="#fff" stroke-linecap="round" stroke-linejoin="round" stroke-width="1.9995"/><text fill="#fff" font-family="DejaVu Sans" font-size="8.9978" transform="scale(1 -1)" x="200.403" y="-14.4188"><tspan x="200.403" y="-14.4188">m</tspan></text><path d="m210.797 15.152v-2.609h-.813v6.7968h.813v-.75c.176.2891.391.5082.641.6563.257.1449.57.2187.937.2187.594 0 1.078-.2418 1.453-.7187.375-.4801.563-1.1051.563-1.875 0-.7731-.188-1.3981-.563-1.875-.375-.4691-.859-.7031-1.453-.7031-.367 0-.68.0699-.937.2031-.25.1449-.465.3629-.641.6559zm2.75 1.7191c0 .5937-.125 1.0551-.375 1.391-.242.343-.574.5149-1 .5149-.43 0-.766-.1719-1.016-.5149-.242-.3359-.359-.7973-.359-1.391 0-.5941.117-1.0621.359-1.4063.25-.3359.586-.5 1.016-.5.426 0 .758.1641 1 .5.25.3442.375.8122.375 1.4063z" fill="none" stroke="#fff" stroke-linecap="round" stroke-linejoin="round" stroke-width="1.9995"/><text fill="#fff" font-family="DejaVu Sans" font-size="8.9978" transform="scale(1 -1)" x="209.172" y="-14.4188"><tspan x="209.172" y="-14.4188">p</tspan></text><path d="m217.961 16.8871c-.649 0-1.102-.075-1.359-.2191-.25-.1481-.375-.402-.375-.766 0-.2809.093-.511.281-.6872.195-.1679.457-.25.781-.25.445 0 .805.1563 1.078.4692.27.3199.406.75.406 1.2808v.1723zm1.625.343v-2.8121h-.813v.75c-.187-.3051-.421-.527-.703-.6719-.273-.1332-.605-.2031-1-.2031-.5 0-.902.141-1.203.4218-.293.2813-.437.6602-.437 1.1403 0 .5508.179.9687.547 1.25.375.282.925.4219 1.656.4219h1.14v.0781c0 .375-.125.6609-.375.8597-.242.2071-.586.3122-1.031.3122-.281 0-.558-.0391-.828-.109-.262-.0629-.512-.1641-.75-.2969v.75c.289.1129.578.1949.859.25.282.0629.551.0937.813.0937.707 0 1.238-.1878 1.594-.5628.351-.3668.531-.9219.531-1.6719z" fill="none" stroke="#fff" stroke-linecap="round" stroke-linejoin="round" stroke-width="1.9995"/><text fill="#fff" font-family="DejaVu Sans" font-size="8.9978" transform="scale(1 -1)" x="214.884" y="-14.4188"><tspan x="214.884" y="-14.4188">a</tspan></text><path d="m224.105 18.5898c-.093.0512-.195.0864-.296.109-.106.0203-.227.0313-.36.0313-.461 0-.812-.152-1.062-.4531-.242-.293-.36-.7149-.36-1.2649v-2.5941h-.812v4.9218h.812v-.766c.176.3012.399.5242.672.6723.27.1449.598.2187.985.2187.062 0 .125-.0078.187-.016.07-.0109.149-.0226.234-.0308z" fill="none" stroke="#fff" stroke-linecap="round" stroke-linejoin="round" stroke-width="1.9995"/><text fill="#fff" font-family="DejaVu Sans" font-size="8.9978" transform="scale(1 -1)" x="220.40199" y="-14.4188"><tspan x="220.40199" y="-14.4188">r</tspan></text><path d="m224.95 19.34h.81289v-4.9219h-.81289zm0 1.9223h.81289v-1.032h-.81289z" fill="none" stroke="#fff" stroke-linecap="round" stroke-linejoin="round" stroke-width="1.9995"/><text fill="#fff" font-family="DejaVu Sans" font-size="8.9978" transform="scale(1 -1)" x="224.11" y="-14.4188"><tspan x="224.11" y="-14.4188">i</tspan></text><path d="m230.59 19.1988v-.7648c-.231.1129-.469.1949-.719.25-.242.0621-.492.093-.75.093-.406 0-.711-.0622-.906-.1872-.199-.1168-.297-.2968-.297-.5468 0-.1879.066-.336.203-.4379.145-.1051.438-.2102.875-.3121l.266-.0629c.582-.125.992-.3039 1.234-.5313.238-.2187.359-.5269.359-.9218 0-.461-.183-.8239-.546-1.093-.356-.2621-.852-.391-1.485-.391-.273 0-.547.0269-.828.0781-.281.0508-.586.1289-.906.234v.8289c.301-.157.598-.2781.89-.3602.29-.0738.579-.109.86-.109.375 0 .664.0622.875.1872.207.1332.312.321.312.5628 0 .2192-.078.3832-.234.5-.148.125-.469.2383-.969.3442l-.281.0621c-.5.1019-.867.266-1.094.484-.219.2187-.328.5199-.328.907 0 .457.16.8117.484 1.0617.333.2582.801.391 1.407.391.3 0 .582-.0269.843-.0777.27-.043.516-.1062.735-.1883z" fill="none" stroke="#fff" stroke-linecap="round" stroke-linejoin="round" stroke-width="1.9995"/><text fill="#fff" font-family="DejaVu Sans" font-size="8.9978" transform="scale(1 -1)" x="226.605" y="-14.4188"><tspan x="226.605" y="-14.4188">s</tspan></text><path d="m234.047 18.777c-.43 0-.774-.1719-1.031-.5149-.25-.3359-.375-.7973-.375-1.391 0-.5859.125-1.0473.375-1.391.25-.3352.593-.5 1.031-.5.437 0 .781.1648 1.031.5.25.3437.375.8051.375 1.391 0 .582-.125 1.0469-.375 1.391-.25.343-.594.5149-1.031.5149zm0 .6878c.707 0 1.258-.2308 1.656-.6878.406-.461.609-1.093.609-1.9059 0-.8051-.203-1.4332-.609-1.891-.398-.4602-.949-.6871-1.656-.6871-.699 0-1.25.2269-1.656.6871-.399.4578-.594 1.0859-.594 1.891 0 .8129.195 1.4449.594 1.9059.406.457.957.6878 1.656.6878z" fill="none" stroke="#fff" stroke-linecap="round" stroke-linejoin="round" stroke-width="1.9995"/><text fill="#fff" font-family="DejaVu Sans" font-size="8.9978" transform="scale(1 -1)" x="231.298" y="-14.4188"><tspan x="231.298" y="-14.4188">o</tspan></text><path d="m241.734 17.3871v-2.9691h-.812v2.9371c0 .4687-.09.8168-.266 1.0469-.179.239-.449.3601-.812.3601-.438 0-.789-.141-1.047-.4223-.25-.2808-.375-.6636-.375-1.141v-2.7808h-.813v4.9218h.813v-.766c.195.2891.426.5082.687.6563.258.157.563.2347.907.2347.562 0 .988-.1796 1.281-.5308.289-.3559.437-.8719.437-1.5469z" fill="none" stroke="#fff" stroke-linecap="round" stroke-linejoin="round" stroke-width="1.9995"/><text fill="#fff" font-family="DejaVu Sans" font-size="8.9978" transform="scale(1 -1)" x="236.798" y="-14.4188"><tspan x="236.798" y="-14.4188">n</tspan></text><path d="m246.492 19.1988v-.7648c-.23.1129-.469.1949-.719.25-.242.0621-.492.093-.75.093-.406 0-.711-.0622-.906-.1872-.199-.1168-.297-.2968-.297-.5468 0-.1879.067-.336.203-.4379.145-.1051.438-.2102.875-.3121l.266-.0629c.582-.125.992-.3039 1.234-.5313.239-.2187.36-.5269.36-.9218 0-.461-.184-.8239-.547-1.093-.356-.2621-.852-.391-1.484-.391-.274 0-.547.0269-.829.0781-.281.0508-.586.1289-.906.234v.8289c.301-.157.598-.2781.891-.3602.289-.0738.578-.109.859-.109.375 0 .664.0622.875.1872.207.1332.313.321.313.5628 0 .2192-.078.3832-.235.5-.148.125-.468.2383-.968.3442l-.282.0621c-.5.1019-.867.266-1.093.484-.219.2187-.329.5199-.329.907 0 .457.161.8117.485 1.0617.332.2582.801.391 1.406.391.301 0 .582-.0269.844-.0777.269-.043.515-.1062.734-.1883z" fill="none" stroke="#fff" stroke-linecap="round" stroke-linejoin="round" stroke-width="1.9995"/><text fill="#fff" font-family="DejaVu Sans" font-size="8.9978" transform="scale(1 -1)" x="242.509" y="-14.4188"><tspan x="242.509" y="-14.4188">s</tspan></text><path d="m43.2148 163.234h1.1832l-.9289-3.254c-.0589-.203-.157-.527-.2929-.964.1828-.735.3199-1.172.4097-1.313.1719-.262.3871-.394.6481-.394.1922 0 .368.078.532.234.1602.16.2692.402.3199.738h.2852c-.066-.687-.2109-1.16-.4332-1.422-.2231-.265-.477-.394-.766-.394-.2739 0-.5199.113-.7457.344-.2192.226-.4141.718-.5903 1.472-.2109-.414-.4179-.73-.6168-.945-.2812-.293-.5863-.512-.914-.656-.3281-.149-.7031-.223-1.1211-.223-1.0551 0-1.8289.352-2.325 1.051-.4961.703-.7418 1.5-.7418 2.394 0 1.051.2887 1.899.8707 2.547.582.653 1.266.977 2.0473.977.5429 0 1.0199-.164 1.4339-.5.418-.328.793-.942 1.1329-1.844zm-.8668-2.953c-.2582.985-.5902 1.668-.9929 2.051-.4063.391-.816.586-1.2379.586-.4652 0-.8551-.254-1.1641-.77-.3082-.511-.4652-1.324-.4652-2.445 0-.664.0672-1.183.2-1.566.132-.375.3351-.668.6012-.879.273-.203.5589-.305.8589-.305.368 0 .704.168 1.0079.504.414.461.8132 1.398 1.1921 2.824z" fill="none" stroke="#fff" stroke-linecap="round" stroke-linejoin="round" stroke-width="1.9995"/><path d="m43.2148 163.234h1.1832l-.9289-3.254c-.0589-.203-.157-.527-.2929-.964.1828-.735.3199-1.172.4097-1.313.1719-.262.3871-.394.6481-.394.1922 0 .368.078.532.234.1602.16.2692.402.3199.738h.2852c-.066-.687-.2109-1.16-.4332-1.422-.2231-.265-.477-.394-.766-.394-.2739 0-.5199.113-.7457.344-.2192.226-.4141.718-.5903 1.472-.2109-.414-.4179-.73-.6168-.945-.2812-.293-.5863-.512-.914-.656-.3281-.149-.7031-.223-1.1211-.223-1.0551 0-1.8289.352-2.325 1.051-.4961.703-.7418 1.5-.7418 2.394 0 1.051.2887 1.899.8707 2.547.582.653 1.266.977 2.0473.977.5429 0 1.0199-.164 1.4339-.5.418-.328.793-.942 1.1329-1.844zm-.8668-2.953c-.2582.985-.5902 1.668-.9929 2.051-.4063.391-.816.586-1.2379.586-.4652 0-.8551-.254-1.1641-.77-.3082-.511-.4652-1.324-.4652-2.445 0-.664.0672-1.183.2-1.566.132-.375.3351-.668.6012-.879.273-.203.5589-.305.8589-.305.368 0 .704.168 1.0079.504.414.461.8132 1.398 1.1921 2.824z" fill="#fff"/><path d="m47.508 163.02h9.1723v-1.1879h-9.1723zm0-2.907h9.1723v-1.218h-9.1723z" fill="none" stroke="#fff" stroke-linecap="round" stroke-linejoin="round" stroke-width="1.9995"/><text fill="#fff" font-family="DejaVu Sans" font-size="14.636" transform="scale(1 -1)" x="45.959" y="-156.375"><tspan x="45.959" y="-156.375">=</tspan></text><path d="m62.8789 166.094c-.75 0-1.3129-.367-1.6879-1.094-.3672-.73-.5461-1.828-.5461-3.297s.1789-2.57.5461-3.297c.375-.73.9379-1.094 1.6879-1.094s1.3121.364 1.6871 1.094c.375.727.5629 1.828.5629 3.297s-.1879 2.567-.5629 3.297c-.375.727-.9371 1.094-1.6871 1.094zm0 1.14c1.1949 0 2.109-.476 2.734-1.422.6332-.937.9531-2.308.9531-4.109 0-1.805-.3199-3.18-.9531-4.125-.625-.937-1.5391-1.406-2.734-1.406-1.1988 0-2.1168.469-2.75 1.406-.625.945-.9379 2.32-.9379 4.125 0 1.801.3129 3.172.9379 4.109.6332.946 1.5512 1.422 2.75 1.422z" fill="none" stroke="#fff" stroke-linecap="round" stroke-linejoin="round" stroke-width="1.9995"/><text fill="#fff" font-family="DejaVu Sans" font-size="14.636" transform="scale(1 -1)" x="58.222698" y="-156.375"><tspan x="58.222698" y="-156.375">0</tspan></text><path d="m69.105 156.38h1.516v1.8117h-1.516z" fill="none" stroke="#fff" stroke-linecap="round" stroke-linejoin="round" stroke-width="1.9995"/><text fill="#fff" font-family="DejaVu Sans" font-size="14.636" transform="scale(1 -1)" x="67.541801" y="-156.375"><tspan x="67.541801" y="-156.375">.</tspan></text><path d="m76.859 166.094c-.75 0-1.3121-.367-1.6871-1.094-.3668-.73-.5469-1.828-.5469-3.297s.1801-2.57.5469-3.297c.375-.73.9371-1.094 1.6871-1.094s1.3129.364 1.6879 1.094c.375.727.5621 1.828.5621 3.297s-.1871 2.567-.5621 3.297c-.375.727-.9379 1.094-1.6879 1.094zm0 1.14c1.1961 0 2.1101-.476 2.7351-1.422.6329-.937.9528-2.308.9528-4.109 0-1.805-.3199-3.18-.9528-4.125-.625-.937-1.539-1.406-2.7351-1.406-1.1988 0-2.1168.469-2.75 1.406-.625.945-.9371 2.32-.9371 4.125 0 1.801.3121 3.172.9371 4.109.6332.946 1.5512 1.422 2.75 1.422z" fill="none" stroke="#fff" stroke-linecap="round" stroke-linejoin="round" stroke-width="1.9995"/><text fill="#fff" font-family="DejaVu Sans" font-size="14.636" transform="scale(1 -1)" x="72.201599" y="-156.375"><tspan x="72.201599" y="-156.375">0</tspan></text><path d="m83.332 157.594h2.359v8.14l-2.5621-.515v1.312l2.5473.516h1.4527v-9.453h2.359v-1.219h-6.1559z" fill="none" stroke="#fff" stroke-linecap="round" stroke-linejoin="round" stroke-width="1.9995"/><text fill="#fff" font-family="DejaVu Sans" font-size="14.636" transform="scale(1 -1)" x="81.520699" y="-156.375"><tspan x="81.520699" y="-156.375">1</tspan></text><path d="m233.633 111.703v-3.641h1.64c.614 0 1.086.157 1.422.469.332.313.5.766.5 1.36 0 .57-.168 1.015-.5 1.328-.336.32-.808.484-1.422.484zm-1.313 1.078h2.953c1.094 0 1.915-.246 2.469-.734.563-.492.844-1.211.844-2.156 0-.961-.281-1.684-.844-2.172-.554-.492-1.375-.735-2.469-.735h-1.64v-3.906h-1.313z" fill="none" stroke="#fff" stroke-linecap="round" stroke-linejoin="round" stroke-width="1.9995"/><text fill="#fff" font-family="DejaVu Sans" font-size="13.307" transform="scale(1 -1)" x="231.007" y="-103.08"><tspan x="231.007" y="-103.08">P</tspan></text><path d="m240.18 113.188h2.765v-.922h-1.562v-10.016h1.562v-.922h-2.765z" fill="none" stroke="#fff" stroke-linecap="round" stroke-linejoin="round" stroke-width="1.9995"/><text fill="#fff" font-family="DejaVu Sans" font-size="13.307" transform="scale(1 -1)" x="239.037" y="-103.08"><tspan x="239.037" y="-103.08">[</tspan></text><path d="m251.719 107.016v-.578h-5.5c.051-.825.297-1.454.734-1.891.445-.43 1.067-.641 1.859-.641.458 0 .899.051 1.329.156.437.114.867.286 1.297.516v-1.125c-.43-.187-.872-.328-1.329-.422-.449-.093-.902-.14-1.359-.14-1.168 0-2.09.336-2.766 1.015-.679.676-1.015 1.586-1.015 2.735 0 1.195.32 2.144.969 2.843.644.696 1.507 1.047 2.593 1.047.977 0 1.754-.32 2.328-.953.571-.625.86-1.48.86-2.562zm-1.203.359c-.012.645-.196 1.16-.547 1.547-.356.394-.828.594-1.422.594-.668 0-1.203-.188-1.609-.563-.399-.375-.626-.906-.688-1.594z" fill="none" stroke="#fff" stroke-linecap="round" stroke-linejoin="round" stroke-width="1.9995"/><text fill="#fff" font-family="DejaVu Sans" font-size="13.307" transform="scale(1 -1)" x="244.235" y="-103.08"><tspan x="244.235" y="-103.08">e</tspan></text><path d="m257.891 109.234c-.137.082-.282.141-.438.172-.156.039-.328.063-.515.063-.68 0-1.2-.227-1.563-.672-.367-.438-.547-1.07-.547-1.891v-3.828h-1.203v7.281h1.203v-1.125c.25.438.578.758.984.969.407.219.895.328 1.469.328.082 0 .172-.008.266-.015.101-.012.219-.028.344-.047z" fill="none" stroke="#fff" stroke-linecap="round" stroke-linejoin="round" stroke-width="1.9995"/><text fill="#fff" font-family="DejaVu Sans" font-size="13.307" transform="scale(1 -1)" x="252.422" y="-103.08"><tspan x="252.422" y="-103.08">r</tspan></text><path d="m263.141 109.234c-.137.082-.282.141-.438.172-.156.039-.328.063-.515.063-.68 0-1.2-.227-1.563-.672-.367-.438-.547-1.07-.547-1.891v-3.828h-1.203v7.281h1.203v-1.125c.25.438.578.758.984.969.407.219.895.328 1.469.328.082 0 .172-.008.266-.015.101-.012.219-.028.344-.047z" fill="none" stroke="#fff" stroke-linecap="round" stroke-linejoin="round" stroke-width="1.9995"/><text fill="#fff" font-family="DejaVu Sans" font-size="13.307" transform="scale(1 -1)" x="257.672" y="-103.08"><tspan x="257.672" y="-103.08">r</tspan></text><path d="m266.949 109.516c-.648 0-1.156-.25-1.531-.75-.367-.5-.547-1.184-.547-2.047 0-.875.18-1.563.547-2.063.375-.5.883-.75 1.531-.75.633 0 1.141.25 1.516.75s.562 1.188.562 2.063c0 .851-.187 1.531-.562 2.031-.375.508-.883.766-1.516.766zm0 1.015c1.039 0 1.86-.34 2.453-1.015.594-.68.891-1.61.891-2.797 0-1.199-.297-2.137-.891-2.813-.593-.679-1.414-1.015-2.453-1.015-1.043 0-1.859.336-2.453 1.015-.594.676-.891 1.614-.891 2.813 0 1.187.297 2.117.891 2.797.594.675 1.41 1.015 2.453 1.015z" fill="none" stroke="#fff" stroke-linecap="round" stroke-linejoin="round" stroke-width="1.9995"/><text fill="#fff" font-family="DejaVu Sans" font-size="13.307" transform="scale(1 -1)" x="262.87" y="-103.08"><tspan x="262.87" y="-103.08">o</tspan></text><path d="m276.473 109.234c-.137.082-.282.141-.438.172-.156.039-.328.063-.515.063-.68 0-1.2-.227-1.563-.672-.367-.438-.547-1.07-.547-1.891v-3.828h-1.203v7.281h1.203v-1.125c.25.438.578.758.985.969.406.219.894.328 1.468.328.082 0 .172-.008.266-.015.101-.012.219-.028.344-.047z" fill="none" stroke="#fff" stroke-linecap="round" stroke-linejoin="round" stroke-width="1.9995"/><text fill="#fff" font-family="DejaVu Sans" font-size="13.307" transform="scale(1 -1)" x="271.004" y="-103.08"><tspan x="271.004" y="-103.08">r</tspan></text><path d="m278.18 99.938h1.109v13.312h-1.109z" fill="none" stroke="#fff" stroke-linecap="round" stroke-linejoin="round" stroke-width="1.9995"/><text fill="#fff" font-family="DejaVu Sans" font-size="13.307" transform="scale(1 -1)" x="276.48801" y="-103.08"><tspan x="276.48801 280.97235" y="-103.08">|</tspan></text><path d="m293.5 113.19v-11.86h-2.75v.922h1.547v10.016h-1.547v.922z" fill="none" stroke="#fff" stroke-linecap="round" stroke-linejoin="round" stroke-width="1.9995"/><text fill="#fff" font-family="DejaVu Sans" font-size="13.307" transform="scale(1 -1)" x="289.457" y="-103.08"><tspan x="289.457" y="-103.08">]</tspan></text><path d="m287.551 109.848h1.23l-.965-3.371c-.062-.215-.164-.547-.3-1 .187-.762.328-1.219.422-1.368.175-.269.402-.406.671-.406.2 0 .383.082.551.246.168.16.278.418.332.762h.297c-.07-.711-.219-1.203-.453-1.473-.227-.273-.488-.41-.793-.41-.281 0-.535.121-.77.356-.226.238-.433.746-.613 1.527-.219-.43-.43-.754-.637-.977-.293-.308-.609-.535-.949-.683-.344-.153-.73-.231-1.164-.231-1.094 0-1.894.364-2.41 1.09-.512.727-.77 1.555-.77 2.485 0 1.085.301 1.964.903 2.636.605.676 1.312 1.016 2.121 1.016.562 0 1.058-.172 1.488-.52.43-.339.82-.976 1.172-1.91zm-.895-3.063c-.269 1.02-.609 1.727-1.031 2.129-.418.402-.848.606-1.281.606-.485 0-.887-.266-1.207-.801-.321-.528-.481-1.371-.481-2.531 0-.688.067-1.231.207-1.626.137-.39.344-.691.621-.91.282-.211.578-.32.891-.32.379 0 .727.176 1.043.527.43.473.844 1.45 1.238 2.926z" fill="none" stroke="#fff" stroke-linecap="round" stroke-linejoin="round" stroke-width="1.9995"/><path d="m287.551 109.848h1.23l-.965-3.371c-.062-.215-.164-.547-.3-1 .187-.762.328-1.219.422-1.368.175-.269.402-.406.671-.406.2 0 .383.082.551.246.168.16.278.418.332.762h.297c-.07-.711-.219-1.203-.453-1.473-.227-.273-.488-.41-.793-.41-.281 0-.535.121-.77.356-.226.238-.433.746-.613 1.527-.219-.43-.43-.754-.637-.977-.293-.308-.609-.535-.949-.683-.344-.153-.73-.231-1.164-.231-1.094 0-1.894.364-2.41 1.09-.512.727-.77 1.555-.77 2.485 0 1.085.301 1.964.903 2.636.605.676 1.312 1.016 2.121 1.016.562 0 1.058-.172 1.488-.52.43-.339.82-.976 1.172-1.91zm-.895-3.063c-.269 1.02-.609 1.727-1.031 2.129-.418.402-.848.606-1.281.606-.485 0-.887-.266-1.207-.801-.321-.528-.481-1.371-.481-2.531 0-.688.067-1.231.207-1.626.137-.39.344-.691.621-.91.282-.211.578-.32.891-.32.379 0 .727.176 1.043.527.43.473.844 1.45 1.238 2.926z" fill="#fff"/><path d="m205.871 55.2621h1.219l-.953-3.332c-.063-.211-.164-.543-.301-.9922.184-.75.324-1.2.418-1.3481.176-.266.398-.4019.664-.4019.195 0 .379.082.543.2422.168.1597.277.414.332.7539h.293c-.07-.7039-.219-1.1879-.449-1.457-.223-.27-.485-.4032-.782-.4032-.281 0-.535.1172-.761.3524-.227.234-.43.7379-.61 1.5078-.214-.4219-.425-.7461-.629-.9649-.289-.305-.601-.5281-.937-.6761-.34-.1481-.723-.227-1.152-.227-1.078 0-1.871.3602-2.379 1.0789-.508.718-.762 1.5352-.762 2.4531 0 1.0739.297 1.9411.895 2.6051.593.6719 1.292 1.0039 2.093 1.0039.555 0 1.047-.1679 1.473-.5121.422-.3359.809-.9648 1.156-1.8898zm-.887-3.0281c-.261 1.0082-.601 1.707-1.015 2.1019-.414.402-.836.602-1.266.602-.48 0-.879-.2617-1.195-.7899-.317-.523-.477-1.3589-.477-2.5031 0-.6801.071-1.2148.207-1.6058.137-.3871.34-.6871.614-.902.277-.207.57-.3133.878-.3133.375 0 .723.1723 1.036.5203.422.468.832 1.4329 1.222 2.8938z" fill="none" stroke="#fff" stroke-linecap="round" stroke-linejoin="round" stroke-width="1.9995"/><path d="m205.871 55.2621h1.219l-.953-3.332c-.063-.211-.164-.543-.301-.9922.184-.75.324-1.2.418-1.3481.176-.266.398-.4019.664-.4019.195 0 .379.082.543.2422.168.1597.277.414.332.7539h.293c-.07-.7039-.219-1.1879-.449-1.457-.223-.27-.485-.4032-.782-.4032-.281 0-.535.1172-.761.3524-.227.234-.43.7379-.61 1.5078-.214-.4219-.425-.7461-.629-.9649-.289-.305-.601-.5281-.937-.6761-.34-.1481-.723-.227-1.152-.227-1.078 0-1.871.3602-2.379 1.0789-.508.718-.762 1.5352-.762 2.4531 0 1.0739.297 1.9411.895 2.6051.593.6719 1.292 1.0039 2.093 1.0039.555 0 1.047-.1679 1.473-.5121.422-.3359.809-.9648 1.156-1.8898zm-.887-3.0281c-.261 1.0082-.601 1.707-1.015 2.1019-.414.402-.836.602-1.266.602-.48 0-.879-.2617-1.195-.7899-.317-.523-.477-1.3589-.477-2.5031 0-.6801.071-1.2148.207-1.6058.137-.3871.34-.6871.614-.902.277-.207.57-.3133.878-.3133.375 0 .723.1723 1.036.5203.422.468.832 1.4329 1.222 2.8938z" fill="#fff"/><path d="m209.93 55.395h1.2457v4.066h-1.2457z" fill="none" stroke="#fff" stroke-linecap="round" stroke-linejoin="round" stroke-width="1.9995"/><path d="m209.93 55.395h1.2457v4.066h-1.2457z" fill="#fff"/><path d="m227.57 105.85-26.152 14.496" fill="none" stroke="#00f" stroke-width=".74981"/><text font-family="DejaVu Sans" font-size="8.9978" transform="scale(1 -1)" x="127.771" y="-13.9188"><tspan x="127.771 134.50131 137.53355 140.39484 146.09941 151.83098 160.59479 166.30836 171.84198 175.54005 178.40134 183.90796 187.07516 189.93646 194.91209 200.41872 209.18253 214.8961 220.41173 224.1098 226.61118 231.299 236.80562 242.51019" y="-13.9188">k: number of comparisons</tspan></text><path d="m43.2109 162.734h1.1871l-.9289-3.254c-.0589-.203-.157-.527-.2929-.964.1828-.735.3199-1.172.4097-1.313.1719-.262.3871-.394.6481-.394.1922 0 .368.078.532.234.1602.16.2649.402.3199.738h.2852c-.066-.687-.2109-1.16-.4371-1.422-.2192-.261-.4731-.394-.7621-.394-.2739 0-.5199.113-.7457.344-.2192.226-.4141.718-.5903 1.472-.2109-.414-.4179-.73-.6168-.945-.2812-.293-.5863-.512-.914-.656-.3281-.149-.7031-.223-1.1211-.223-1.0551 0-1.8289.352-2.325 1.051-.4961.703-.7418 1.5-.7418 2.394 0 1.051.2887 1.899.8707 2.547.582.653 1.266.977 2.0473.977.5429 0 1.0199-.164 1.4339-.5.418-.328.793-.942 1.1329-1.844zm-.8629-2.953c-.2582.985-.5902 1.668-.9929 2.051-.4063.391-.816.586-1.2379.586-.4652 0-.8551-.254-1.1641-.77-.3082-.511-.4652-1.324-.4652-2.445 0-.664.0672-1.183.2-1.566.132-.375.3351-.668.6012-.879.273-.203.5589-.305.8589-.305.3641 0 .7.168 1.0079.504.414.461.8132 1.398 1.1921 2.824z"/><text font-family="DejaVu Sans" font-size="14.636" transform="scale(1 -1)" x="45.959" y="-155.875"><tspan x="45.959 58.22422 67.532906 72.187248 81.495941" y="-155.875">=0.01</tspan></text><g fill="#00f"><text font-family="DejaVu Sans" font-size="13.307" transform="scale(1 -1)" x="231.006" y="-102.58"><tspan x="231.006 239.02994 244.21956 252.40317 257.65915 262.86209 271.00577 276.47482 280.9592 289.42224" y="-102.58">P[error| ]</tspan></text><path d="m287.551 109.348h1.23l-.965-3.371c-.062-.215-.164-.547-.3-1 .187-.762.328-1.219.422-1.368.175-.269.402-.406.671-.406.2 0 .383.082.551.246.168.16.278.418.332.762h.297c-.07-.711-.219-1.203-.453-1.473-.227-.273-.488-.41-.793-.41-.281 0-.535.121-.77.356-.226.238-.433.746-.613 1.527-.219-.43-.43-.754-.637-.977-.293-.308-.609-.535-.949-.683-.344-.153-.73-.231-1.164-.231-1.094 0-1.894.364-2.41 1.09-.512.727-.77 1.555-.77 2.485 0 1.085.301 1.964.903 2.636.605.676 1.312 1.016 2.121 1.016.562 0 1.058-.172 1.488-.52.43-.339.82-.976 1.172-1.91zm-.895-3.063c-.269 1.02-.609 1.727-1.031 2.129-.418.402-.848.606-1.281.606-.485 0-.887-.266-1.207-.801-.321-.528-.481-1.371-.481-2.531 0-.688.067-1.231.207-1.626.137-.39.344-.691.621-.91.282-.211.578-.32.891-.32.379 0 .727.176 1.043.527.43.473.844 1.45 1.238 2.926z"/></g></g></svg>