<svg height="35pt" preserveAspectRatio="none" viewBox="0 0 35 35" width="35pt" xmlns="http://www.w3.org/2000/svg"><path d="m1 1v7.9665h7.9665v-7.9665zm9.1029 0v3.4139h1.1387v1.1387h-1.1387v1.1387h1.1387v1.1364h1.1387v1.1387h-1.1387v1.1364h-6.8277v1.1387h1.1387v1.1387h1.1387v-1.1387h3.4116v1.1387h-2.2751v1.1364h1.1387v1.1387h1.1364v1.1387h1.1387v-2.2775h1.1387v-1.1364h-1.1387v-1.1387h2.2751v-1.1387h1.1387v1.1387h-1.1387v2.2751h3.4139v1.1387h-2.2751v1.1387h2.2751v2.2751h-1.1364v-1.1387h-1.1387v2.2751h3.4139v-1.1364h3.4139v3.4139h1.1364v1.1364h1.1387v-1.1364h2.2751v-1.1387h-1.1364v-1.1387h-1.1387v1.1387h-1.1387v-2.2751h2.2775v1.1364h1.1364v-1.1364h1.1387v2.2751h1.1364v-3.4139h2.2775v2.2751h1.1364v-2.2751h1.1387v2.2751h1.1387v-5.689h-1.1387v2.2775h-4.5526v-1.1387h-1.1364v-1.1387h-1.1387v-1.1364h-2.2751v1.1364h-1.1387v1.1387h1.1387v2.2751h-1.1387v-1.1364h-1.1364v1.1364h-1.1387v-2.2751h1.1387v-2.2751h-2.2775v-1.1387h2.2775v-1.1387h-2.2775v-1.1364h-1.1364v1.1364h-1.1387v1.1387h1.1387v1.1387h-2.2751v-2.2775h1.1364v-1.1364h-1.1364v-1.1387h-1.1387v1.1387h-1.1387v-1.1387h1.1387v-1.1364h-2.2751v-1.1387h1.1364v-2.2751h2.2775v-1.1387h-1.1387v-1.1387h-2.2751v2.2775h-1.1387v-2.2775h-1.1387zm5.6913 1.1387h1.1364v-1.1387h-1.1364zm1.1364 0v1.1387h-1.1364v2.2751h1.1364v-1.1387h2.2751v4.5526h1.1387v-1.1387h1.1387v2.2751h1.1364v-3.4116h1.1387v-1.1387h1.1387v-1.1387h-1.1387v-2.2751h-1.1387v1.1387h-1.1364v1.1364h1.1364v1.1387h-1.1364v1.1387h-1.1387v-1.1387h1.1387v-1.1387h-1.1387v-2.2751h-1.1387v1.1387h-1.1364v-1.1387zm3.4139 0h1.1387v-1.1387h-1.1387zm3.4139 4.5526v2.2751h1.1387v-2.2751zm-1.1387 3.4116v2.2775h1.1387v-2.2775zm-5.689-4.5503v3.4139h1.1387v-3.4139zm-1.1364 0h-1.1387v1.1387h1.1387zm14.792 13.653h-1.1387v1.1387h1.1387zm0 1.1387v1.1387h2.2751v-1.1387zm2.2751 1.1387v1.1364h1.1387v-1.1364zm-2.2751 0h-1.1387v-1.1387h-1.1387v1.1387h-2.2751v1.1364h-2.2751v1.1387h-1.1387v1.1387h-1.1364v-1.1387h-3.4139v3.4139h1.1364v-2.2751h1.1387v3.4116h1.1387v-1.1364h1.1364v2.2751h1.1387v1.1387h-1.1387v1.1364h2.2775v1.1387h2.2751v-1.1387h-1.1387v-2.2751h4.5526v-1.1387h-1.1387v-1.1364h1.1387v-2.2751h2.2751v-1.1387h-1.1387v-1.1387h-1.1364v-1.1364zm-3.4139 10.239h1.1364v2.2775h2.2775v-1.1387h1.1364v-1.1387h1.1387v1.1387h1.1387v-4.5526h-1.1387v2.2775h-2.2751v1.1364h-1.1387v-1.1364h-2.2751zm5.689-3.4139v-1.1364h-1.1387v1.1364zm-7.9642 4.5526h-3.4139v1.1387h3.4139zm-2.2775-2.2751v-1.1387h-2.2751v-1.1387h-2.2751v1.1387h-1.1387v1.1387h1.1387v1.1364h-1.1387v-1.1364h-1.1364v-1.1387h-1.1387v1.1387h-1.1387v1.1364h1.1387v1.1387h2.2751v1.1387h1.1387v-1.1387h1.1364v-2.2751h1.1387v1.1364h1.1387v-1.1364zm-9.1029 1.1364h-1.1364v-1.1364h-1.1387v2.2751h2.2751zm-2.2751 1.1387h-1.1387v1.1387h1.1387zm0-2.2751v-2.2775h1.1387v-2.2751h-1.1387v-2.2751h1.1387v-1.1387h-1.1387v-1.1364h-4.5503v1.1364h2.2751v1.1387h1.1364v6.8277zm-2.2751-6.8277h-1.1387v1.1387h1.1387zm2.2751-2.2751h1.1387v1.1364h1.1364v1.1387h1.1387v1.1387h-2.2751v1.1364h2.2751v2.2751h1.1387v1.1387h1.1364v-6.8277h2.2751v-2.2751h1.1387v-1.1387h-2.2751v2.2775h-2.2751v1.1364h-1.1387v-1.1364h-1.1387v-1.1387h1.1387v-1.1387h-1.1387v-1.1364h-1.1364v-1.1387h-1.1387v2.2751h-1.1387v-3.4116h-1.1364v1.1364h-1.1387v-1.1364h1.1387v-1.1387h-1.1387v-1.1387h-1.1364v1.1387h-1.1387v2.2751h1.1387v1.1387h2.2751v1.1364h-1.1387v1.1387h3.4139zm-4.5503-3.4139h-2.2775v-3.4139h-2.2751v1.1387h1.1387v2.2751h-1.1387v1.1364h1.1387v2.2775h1.1364v1.1364h1.1387v-2.2751h-1.1387v-1.1387h2.2775zm-3.4139 3.4139h-1.1387v-1.1387h-1.1387v4.5526h2.2775v-3.4139zm-1.1387-5.689h-1.1387v1.1364h1.1387zm10.242 12.514v1.1387h1.1364v-1.1387zm9.1029-4.5503h1.1364v-1.1387h-1.1364zm-6.8277-6.8277v-1.1364h-1.1387v1.1364zm-1.1387-3.4139h-1.1364v1.1387h1.1364zm-7.9642-1.1364h-1.1387v1.1364h1.1387zm5.689-3.4139v-1.1387h-1.1387v1.1387zm14.792-7.9665v7.9665h7.9665v-7.9665zm-23.895 1.1387h5.689v5.689h-5.689zm25.034 0h5.689v5.689h-5.689zm-23.895 1.1387v3.4139h3.4139v-3.4139zm25.031 0v3.4139h3.4139v-3.4139zm-27.309 6.8254v3.4139h2.2775v-1.1364h-1.1387v-2.2775h-1.1387zm23.897 0v1.1387h1.1364v-1.1387zm3.4116 0v1.1387h-1.1364v1.1387h1.1364v1.1364h1.1387v-3.4139h-1.1387zm1.1387 3.4139v1.1387h1.1387v-1.1387zm1.1387 0h1.1364v-1.1364h1.1387v-1.1387h1.1387v-1.1387h-3.4139zm-12.517 0h1.1364v1.1387h-1.1364zm6.8277 1.1387h1.1364v1.1387h-1.1364zm2.2751 7.9642h2.2751v1.1387h-2.2751zm-22.758 1.1387v1.1387h2.2775v-1.1387zm20.483 1.1387h3.4116v3.4116h-3.4116zm-23.897 1.1364v7.9665h7.9665v-7.9665zm25.034 0v1.1387h1.1387v-1.1387zm-23.895 1.1387h5.689v5.689h-5.689zm1.1387 1.1364v3.4139h3.4139v-3.4139z"/></svg>