<svg height="31pt" preserveAspectRatio="none" viewBox="0 0 31 31" width="31pt" xmlns="http://www.w3.org/2000/svg"><path d="m.9991.9991v7.0013h7.0013v-7.0013h-7.0013zm11 0v2.0015h1.0008v-1.0008h1.0008v1.0008h.99873v-2.0015h-3.0003zm2.0015 2.0015h-1.0008v.99873h-1.0008v-.99873h-.99873v1.9995h-2.0015v1.0008h1.0008v.99873h1.0008v1.0008h.99873v-3.0003h2.0015v1.0008h.99873v1.9995h1.0008v-1.0008h.99873v1.0008h1.0008v-1.0008h1.0008v-.99873h.99873v.99873h1.0008v6.0005h-1.0008v1.0008h3.0003v2.9982h-.99873v-.99873h-2.0015v.99873h1.0008v2.0015h1.0008v-1.0008h.99873v1.0008h-.99873v.99873h.99873v1.0008h-1.9995v1.9995h-1.9995v1.0008h-3.0003v1.9995h.99873v1.0008h1.0008v-1.0008h1.0008v-1.0008h.99873v-.99873h1.0008v1.9995h3.0003v3.0003h-1.9995v-1.0008h-3.0003v-.99873h-1.0008v.99873h-1.0008v1.0008h-.99873v1.0008h11v-1.0008h-2.0015v-1.0008h2.0015v-.99873h-1.0008v-2.0015h1.0008v-1.9995h-1.0008v-1.9995h1.0008v-1.0008h-1.0008v-.99873h-1.0008v.99873h-.99873v-3.999h.99873v-1.0008h-.99873v-1.9995h-1.9995v-1.9995h.99873v.99873h1.9995v1.0008h1.0008v-1.9995h-1.9995v-1.0008h-1.9995v-3.999h-1.0008v-1.0008h-1.0008v-1.9995h1.0008v.99873h1.0008v-1.9995h-1.0008v-1.0008h-1.0008v1.0008h-1.9995v1.0008h1.0008v1.9995h-1.0008v1.0008h-1.0008v-1.0008h1.0008v-1.9995h-1.0008v.99873h-.99873v1.0008h-1.0008v-1.0008h-.99873v-.99873zm2.9982 0v-2.0015h-.99873v2.0015zm9.0008 8h1.0008v-1.0008h-1.0008zm0-1.0008v-1.0008h-1.0008v1.0008zm1.0008 1.0008v.99873h.99873v2.0015h1.0008v.99873h-1.0008v3.0003h1.0008v1.0008h-1.0008v1.9995h1.0008v-1.0008h1.0008v-3.0003h-1.0008v-.99873h1.0008v-3.0003h-1.0008v-1.0008h1.0008v-1.9995h-1.0008v1.0008h-1.9995zm1.9995-1.0008v-1.0008h-1.0008v1.0008zm-1.0008 9.0008v-1.0008h-.99873v-4.9998h-1.0008v3.0003h-1.0008v.99873h1.0008v2.0015zm-.99873 3.999h.99873v1.0008h2.0015v-1.9995h-3.0003zm0 4.001h1.9995v.99873h1.0008v-3.0003h-2.0015v1.0008h-.99873zm1.9995.99873h-1.0008v2.0015h2.0015v-1.0008h-1.0008v-1.0008zm-13 1.0008v-1.9995h-1.9995v1.9995zm3.999-12.001h-.99873v-.99873h.99873v-1.0008h-.99873v-1.9995h.99873v-1.0008h-1.9995v-.99873h1.9995v-1.0008h-.99873v-1.9995h-1.0008v.99873h-1.0008v-.99873h-.99873v1.9995h.99873v1.9995h-.99873v-.99873h-1.0008v.99873h-.99873v1.0008h.99873v1.9995h1.0008v-1.9995h1.9995v1.0008h-1.0008v1.9995h1.0008v1.9995h1.9995v-1.0008zm-1.9995 1.0008h-1.0008v1.0008h1.0008zm0 1.0008v.99873h-1.0008v1.0008h-.99873v-1.9995h-1.0008v.99873h-1.9995v-1.9995h-1.9995v1.9995h.99873v1.0008h1.0008v1.0008h-1.0008v-1.0008h-1.9995v-1.0008h-1.0008v-.99873h-1.9995v.99873h1.0008v1.0008h-1.0008v-1.0008h-.99873v2.0015h2.9982v.99873h3.0003v1.0008h1.0008v-1.0008h1.0008v-1.9995h.99873v1.9995h1.0008v-.99873h.99873v.99873h1.0008v-.99873h1.0008v-3.0003h-1.0008zm-3.0003 3.999h-.99873v1.0008h.99873zm-3.0003 1.0008h-.99873v1.9995h.99873zm0 1.9995v1.0008h1.0008v-1.0008zm1.0008 0h1.0008v-1.0008h-1.0008zm-1.9995 0h-1.0008v1.0008h1.0008zm-1.0008 1.0008h-1.0008v.99873h1.0008zm0-1.0008v-1.0008h-1.0008v1.0008zm-1.0008-6.9992h1.0008v-1.0008h-1.0008zm4.001-1.0008h1.0008v-1.9995h-1.0008zm0-1.9995v-1.0008h-1.0008v-.99873h-.99873v.99873h-1.0008v1.9995h1.9995v-.99873zm-1.9995-1.9995v-1.0008h-1.0008v1.0008zm-1.0008-1.0008v-1.0008h1.9995v-.99873h1.0008v-1.0008h1.0008v-3.0003h-1.0008v1.0008h-1.0008v.99873h-.99873v-.99873h-1.0008v1.9995h1.0008v1.0008h-1.0008v-1.0008h-1.0008v1.9995h-.99873v1.0008h-4.001v-1.0008h1.0008v-.99873h-1.9995v1.9995h-1.0008v-1.0008h-1.0008v2.0015h3.0003v.99873h-1.9995v1.0008h-1.0008v1.9995h1.0008v-1.0008h3.0003v-1.9995h1.0008v-.99873h2.9982v-1.0008zm-6.9992-1.9995v-1.0008h-1.0008v-1.0008h-1.0008v2.0015zm0-1.0008h.99873v-1.0008h-.99873zm4.9998 1.9995v-.99873h-1.9995v.99873zm1.9995-3.999v-1.0008h-1.0008v1.0008zm4.001 1.9995v1.0008h.99873v-1.0008zm0 1.0008h-1.0008v.99873h1.0008zm-1.0008.99873h-1.0008v1.0008h1.0008zm0 3.0003h1.0008v-.99873h-1.0008zm1.0008 0v1.0008h.99873v-1.0008zm0 3.0003v1.0008h.99873v-1.0008zm2.9982-1.9995h-.99873v.99873h.99873zm2.0015-8h.99873v-1.0008h-.99873zm-8-4.9998v-1.0008h-2.0015v1.0008zm11.999-2.0015v7.0013h7.0013v-7.0013zm-21 1.0008h4.9998v4.9998h-4.9998zm22.001 0h4.9998v4.9998h-4.9998zm-21 1.0008v3.0003h3.0003v-3.0003zm21.998 0v3.0003h3.0003v-3.0003zm-19.999 5.9985v1.0008h1.0008v-1.0008zm1.9995 0v1.0008h1.0008v-1.0008zm0 6.0005v1.0008h1.0008v.99873h.99873v-1.9995h-1.9995zm1.0008 1.9995h-1.0008v1.0008h1.0008zm-3.0003 1.0008v1.0008h1.0008v-1.0008zm0 1.0008h-1.0008v1.9995h-.99873v1.0008h1.9995v-3.0003zm-1.9995 1.9995v-1.0008h-1.0008v1.0008zm-1.0008 0h-1.0008v1.0008h1.0008zm0-1.0008v-.99873h-1.0008v.99873zm20.001 2.0015h2.9982v2.9982h-2.9982zm-21.002.99873v7.0013h7.0013v-7.0013zm22.001 0v1.0008h1.0008v-1.0008zm-21 1.0008h4.9998v4.9998h-4.9998zm1.0008.99873v3.0003h3.0003v-3.0003zm8.9987 3.0003v1.0008h1.0008v-1.0008zm0 1.0008h-3.0003v1.0008h3.0003z"/></svg>