<svg height="35pt" preserveAspectRatio="none" viewBox="0 0 35 35" width="35pt" xmlns="http://www.w3.org/2000/svg"><path d="m.99934.99934v7h7v-7zm8.0003 0v1.0003h1.0003v2.0006h-1.0003v4.9994h-1.9985v1.0003h1.9985v1.0003h1.0003v-1.0003h1.0003v-1.0003h-1.0003v-1.9985h1.0003v-1.0003h-1.0003v-1.0003h1.0003v-1.0003h1.0003v2.0006h1.0003v-2.0006h1.0003v-1.0003h-1.0003v-1.0003h1.0003v1.0003h.99825v1.0003h1.0003v-2.0006h1.0003v-1.0003h-4.9994v1.0003h-1.0003v-1.0003zm8.0003 1.0003v1.0003h1.0003v-1.0003zm1.0003 1.0003v1.0003h-1.0003v2.0006h2.0006v-2.0006h2.9988v1.0003h1.0003v-1.0003h1.0003v1.0003h-1.0003v1.0003h2.0006v-3.0009h-3.9991v-1.0003h-1.0003v-1.0003h-1.0003v2.0006zm7 3.0009v1.9985h-1.0003v1.0003h1.0003v1.0003h1.0003v1.0003h1.0003v-1.0003h2.9988v2.0006h1.0003v-1.0003h1.0003v2.0006h2.0006v-1.0003h-1.0003v-2.0006h-2.0006v-1.0003h-4.9994v-2.9988zm8.0003 3.9991h1.0003v-1.0003h-1.0003zm-5.9997 1.0003v1.0003h1.0003v-1.0003zm0 1.0003h-1.0003v-1.0003h-1.0003v-1.0003h-1.0003v-1.0003h-1.0003v-1.0003h-1.0003v-.99825h1.0003v-1.0003h-1.9985v1.9985h-1.0003v-1.9985h-1.0003v1.9985h-1.0003v2.0006h-1.0003v-1.0003h-1.0003v2.0006h-1.9985v2.0006h-1.0003v1.0003h1.9985v-2.0006h1.0003v2.0006h2.0006v-2.0006h-1.0003v-1.0003h2.0006v-2.0006h2.0006v1.0003h1.9985v1.0003h-1.0003v1.0003h-1.9985v1.0003h1.0003v1.0003h-2.0006v.99825h-1.0003v1.0003h-1.0003v-1.0003h-1.0003v-.99825h-1.0003v.99825h-.99825v2.0006h.99825v-1.0003h1.0003v1.0003h2.0006v1.0003h1.0003v-2.0006h1.0003v-1.0003h1.9985v-.99825h1.0003v.99825h1.0003v2.0006h-1.0003v-1.0003h-2.9988v1.0003h1.0003v4.0011h-1.0003v-1.0003h-1.0003v-1.0003h-1.0003v-1.0003h-2.0006v1.0003h-1.0003v-1.0003h-.99825v-1.0003h-2.0006v1.0003h-1.0003v1.0003h2.0006v1.0003h1.0003v1.0003h-1.0003v-1.0003h-1.0003v1.0003h-1.0003v.99825h3.9991v-1.9985h3.0009v1.0003h1.0003v.99825h3.9991v1.0003h1.0003v1.0003h1.0003v7h-2.0006v-1.0003h1.0003v-1.9985h-1.0003v-1.0003h-1.9985v1.0003h.99825v.99825h-.99825v-.99825h-1.0003v1.9985h1.9985v4.0011h4.0011v-1.0003h-3.0009v-1.0003h3.0009v-2.0006h1.0003v2.0006h2.9988v-2.0006h1.0003v-1.0003h-1.0003v-.99825h1.0003v-1.0003h-1.0003v-2.0006h-3.9991v-1.0003h1.0003v-2.0006h-1.0003v1.0003h-1.0003v-1.0003h1.0003v-1.9985h1.0003v1.9985h1.0003v-.99825h.99825v-2.0006h-3.9991v-1.0003h1.0003v-1.0003h-1.0003v-1.0003h1.0003v1.0003h1.0003v1.0003h1.0003v-3.0009h-1.0003v-.99825h-1.0003v.99825h-1.0003v-1.9985h2.0006zm0 1.0003v1.0003h1.0003v-1.0003zm1.0003 1.0003v.99825h.99825v-.99825zm.99825 0h1.0003v.99825h1.0003v1.0003h2.0006v-1.0003h-1.0003v-.99825h-1.0003v-1.0003h-2.0006zm1.0003.99825h-1.0003v1.0003h1.0003zm-1.0003 6.0017v.99825h2.0006v-.99825zm2.0006.99825v1.0003h-2.0006v1.0003h3.0009v2.0006h2.0006v-2.0006h-1.0003v-2.0006h1.0003v-1.9985h-1.0003v1.0003h-1.0003v.99825zm2.0006-1.9985v-3.0009h-1.0003v1.0003h-1.0003v-1.0003h-2.0006v1.0003h1.0003v2.0006h1.0003v-1.0003h1.0003v1.0003zm-1.0003 5.9997h-1.0003v1.0003h1.0003zm0 1.0003v1.0003h1.0003v-1.0003zm-3.0009-4.0011v-1.0003h-.99825v1.0003zm2.0006 7v1.0003h1.0003v-1.0003zm1.0003 0h2.0006v-1.0003h-2.0006zm-4.9994 2.0006h-1.0003v1.0003h1.0003zm-7-2.0006h-1.0003v1.0003h-1.0003v1.0003h-1.0003v-1.0003h-1.0003v2.0006h2.0006v1.0003h1.0003v-1.0003h1.0003zm0-1.9985v-1.0003h-1.0003v1.0003zm-1.0003-1.0003v-5.0014h-2.0006v2.0006h1.0003v3.0009zm-1.0003 0h-1.0003v-2.0006h-1.0003v-1.0003h-1.0003v2.0006h1.0003v2.0006h1.0003v1.9985h1.0003zm-1.0003-5.0014v-.99825h-1.0003v.99825zm5.9997 1.0003h-1.9985v1.0003h-1.0003v1.0003h1.0003v1.0003h2.9988v-1.0003h-1.0003zm-11.999-1.0003h-1.0003v-1.9985h1.0003v-1.0003h-3.9991v1.0003h.99825v1.0003h-.99825v.99825h1.9985v2.0006h1.0003v-1.0003h1.0003zm0 1.0003v1.0003h-1.0003v1.0003h-3.9991v-1.0003h-1.0003v1.0003h-4.0011v1.0003h8.0003v2.0006h1.0003v-2.0006h2.0006v2.0006h1.0003v.99825h-1.0003v-.99825h-1.0003v.99825h-2.0006v1.0003h1.0003v1.0003h2.0006v1.0003h2.0006v1.0003h.99825v-3.0009h-.99825v1.0003h-1.0003v-1.0003h1.0003v-1.0003h.99825v-1.9985h-1.9985v-4.0011zm3.9991 5.9997v1.0003h1.0003v-1.0003zm-.99825 4.0011h-2.0006v1.0003h2.0006zm-2.0006 0v-1.0003h-1.0003v1.0003zm-7-9.0005v-1.0003h1.0003v-1.9985h1.0003v-1.0003h-1.0003v-1.0003h-2.0006v-1.0003h-3.0009v2.0006h1.0003v-1.0003h1.0003v1.0003h1.0003v1.0003h-1.0003v.99825h-1.0003v-.99825h-1.0003v1.9985h2.0006v1.0003zm-1.0003-5.9997h2.0006v1.0003h1.0003v-1.0003h1.9985v-2.0006h-1.0003v1.0003h-.99825v-1.0003h.99825v-1.0003h-.99825v-.99825h-1.0003v.99825h-1.0003v1.0003h1.0003v1.0003h-2.0006zm0-1.0003v-2.0006h1.0003v-.99825h-3.0009v1.9985h1.0003v1.0003zm-2.0006-1.0003h-1.0003v1.0003h1.0003zm0-1.9985v-2.0006h-1.0003v2.0006zm3.0009 0h1.0003v-3.0009h-2.0006v1.0003h1.0003zm-1.0003-3.0009v-1.0003h-2.0006v1.0003zm-2.0006-1.0003v-1.0003h-1.0003v1.0003zm4.0011 1.0003h1.0003v-1.0003h-1.0003zm0-1.0003v-1.0003h-1.0003v1.0003zm1.0003 1.0003v1.0003h.99825v-1.0003zm.99825 1.0003v1.0003h1.0003v-1.0003zm0 1.0003h-.99825v1.0003h.99825zm0 1.0003v.99825h3.0009v-.99825zm-1.9985 8.9985v1.0003h1.9985v-1.0003zm4.9994-4.9994v-2.0006h-1.0003v2.0006zm8.0003 1.0003h1.0003v-1.0003h-1.0003zm1.0003-7v-1.0003h-1.0003v1.0003zm-7 2.0006h-1.0003v.99825h1.0003zm2.9988-5.0014v-1.9985h-1.0003v1.9985zm0-1.9985h1.0003v-1.0003h-1.0003zm1.0003 0v.99825h1.0003v-.99825zm3.0009-1.0003h1.0003v-1.0003h-1.0003zm2.9988 1.0003v.99825h1.0003v-.99825zm-9.9988-1.0003v1.9985h1.0003v-1.9985zm0 1.9985h-1.0003v-.99825h-1.0003v1.9985h2.0006zm0 1.0003v1.0003h1.0003v-1.0003zm-3.0009 2.0006v2.0006h1.0003v-2.0006zm11.999-10.001v1.0003h3.0009v-1.0003zm5.0014 0v7h7v-7zm-25.001 1.0003h5.0014v5.0014h-5.0014zm26.001 0h4.9994v5.0014h-4.9994zm-25.001 1.0003v3.0009h3.0009v-3.0009zm25.999 0v3.0009h3.0009v-3.0009zm-16.999 8.0003v1.0003h1.0003v-1.0003zm10.999 7h1.0003v1.0003h-1.0003zm0 2.0006h2.0006v1.0003h-2.0006zm3.0009 5.9997h2.9988v2.9988h-2.9988zm-25.001 1.0003v7h7v-7zm26.001 0v1.0003h1.0003v-1.0003zm-25.001 1.0003h5.0014v4.9994h-5.0014zm1.0003.99825v3.0009h3.0009v-3.0009zm5.9997 4.0011v1.0003h1.0003v-1.0003zm24.001 0v1.0003h1.0003v-1.0003z"/></svg>