<svg height="99pt" viewBox="0 0 168 99" width="168pt" xmlns="http://www.w3.org/2000/svg"><g fill="none" stroke-linecap="round" stroke-miterlimit="10"><g stroke="#000" stroke-width=".99998"><path d="m12.04 88.588h141.81"/><path d="m12.04 88.588v1.7293"/><path d="m35.66 88.588v1.7293"/><path d="m59.3 88.588v1.7293"/><path d="m82.94 88.588v1.7293"/><path d="m106.57 88.588v1.7293"/><path d="m130.21 88.588v1.7293"/><path d="m153.85 88.588v1.7293"/><path d="m12.04 88.588v-81.919"/><path d="m12.04 88.588h-1.7293"/><path d="m12.04 76.886h-1.7293"/><path d="m12.04 65.182h-1.7293"/><path d="m12.04 53.48h-1.7293"/><path d="m12.04 41.777h-1.7293"/><path d="m12.04 30.074h-1.7293"/><path d="m12.04 18.371h-1.7293"/><path d="m12.04 6.6692h-1.7293"/><path d="m12.04 1.9867h151.26v86.602h-151.26z"/></g><g stroke-linejoin="round"><g stroke="#fff" stroke-width="2"><path d="m9.5699 86.244h4.9332"/><path d="m12.04 88.713v-4.9319"/><path d="m14.3 83.906h4.9279"/><path d="m16.76 86.369v-4.9265"/><path d="m19.02 81.567h4.9319"/><path d="m21.49 84.031v-4.9319"/><path d="m23.75 79.224h4.9266"/><path d="m26.21 81.687v-4.9265"/><path d="m28.47 76.886h4.9319"/><path d="m30.94 79.348v-4.9265"/><path d="m33.21 74.542h4.9319"/><path d="m35.66 77.01v-4.9319"/><path d="m37.93 72.203h4.9266"/><path d="m40.39 74.667v-4.9279"/><path d="m42.66 69.865h4.9319"/><path d="m45.11 72.329v-4.9332"/><path d="m47.38 67.521h4.9265"/><path d="m49.85 69.99v-4.9319"/><path d="m52.11 65.182h4.9319"/><path d="m54.58 67.646v-4.9265"/><path d="m56.83 62.838h4.9332"/><path d="m59.3 65.307v-4.9319"/><path d="m61.57 60.501h4.9279"/><path d="m64.03 62.963v-4.9265"/><path d="m66.29 58.162h4.9332"/><path d="m68.75 60.625v-4.9319"/><path d="m71.02 55.818h4.9279"/><path d="m73.49 58.286v-4.9319"/><path d="m75.74 53.48h4.9319"/><path d="m78.21 55.944v-4.9279"/><path d="m80.47 51.141h4.9319"/><path d="m82.94 53.605v-4.9332"/><path d="m85.21 48.797h4.9266"/><path d="m87.66 51.261v-4.9265"/><path d="m89.93 51.141h4.9319"/><path d="m92.39 53.605v-4.9332"/><path d="m94.66 53.48h4.9265"/><path d="m97.11 55.944v-4.9279"/><path d="m99.38 55.818h4.9319"/><path d="m101.85 58.286v-4.9319"/><path d="m104.11 58.162h4.9319"/><path d="m106.57 60.625v-4.9319"/><path d="m108.83 60.501h4.9279"/><path d="m111.3 62.963v-4.9265"/><path d="m113.55 62.838h4.9332"/><path d="m116.03 65.307v-4.9319"/><path d="m118.29 65.182h4.9279"/><path d="m120.75 67.646v-4.9265"/><path d="m123.02 67.521h4.9332"/><path d="m125.49 69.99v-4.9319"/><path d="m127.74 69.865h4.9319"/><path d="m130.21 72.329v-4.9332"/><path d="m132.47 72.203h4.9265"/><path d="m134.94 74.667v-4.9279"/><path d="m137.19 74.542h4.9319"/><path d="m139.66 77.01v-4.9319"/><path d="m141.93 76.886h4.9266"/><path d="m144.39 79.348v-4.9265"/><path d="m146.65 79.224h4.9319"/><path d="m149.11 81.687v-4.9265"/><path d="m151.38 81.567h4.9319"/><path d="m153.85 84.031v-4.9319"/><path d="m156.11 83.906h4.9265"/><path d="m158.56 86.369v-4.9265"/><path d="m160.83 88.588h4.9319"/><path d="m163.3 91.052v-4.9332"/></g><g stroke="#dc6900" stroke-width=".99998"><path d="m9.5699 86.244h4.9332"/><path d="m12.04 88.713v-4.9319"/><path d="m14.3 83.906h4.9279"/><path d="m16.76 86.369v-4.9265"/><path d="m19.02 81.567h4.9319"/><path d="m21.49 84.031v-4.9319"/><path d="m23.75 79.224h4.9266"/><path d="m26.21 81.687v-4.9265"/><path d="m28.47 76.886h4.9319"/><path d="m30.94 79.348v-4.9265"/><path d="m33.21 74.542h4.9319"/><path d="m35.66 77.01v-4.9319"/><path d="m37.93 72.203h4.9266"/><path d="m40.39 74.667v-4.9279"/><path d="m42.66 69.865h4.9319"/><path d="m45.11 72.329v-4.9332"/><path d="m47.38 67.521h4.9265"/><path d="m49.85 69.99v-4.9319"/><path d="m52.11 65.182h4.9319"/><path d="m54.58 67.646v-4.9265"/><path d="m56.83 62.838h4.9332"/><path d="m59.3 65.307v-4.9319"/><path d="m61.57 60.501h4.9279"/><path d="m64.03 62.963v-4.9265"/><path d="m66.29 58.162h4.9332"/><path d="m68.75 60.625v-4.9319"/><path d="m71.02 55.818h4.9279"/><path d="m73.49 58.286v-4.9319"/><path d="m75.74 53.48h4.9319"/><path d="m78.21 55.944v-4.9279"/><path d="m80.47 51.141h4.9319"/><path d="m82.94 53.605v-4.9332"/><path d="m85.21 48.797h4.9266"/><path d="m87.66 51.261v-4.9265"/><path d="m89.93 51.141h4.9319"/><path d="m92.39 53.605v-4.9332"/><path d="m94.66 53.48h4.9265"/><path d="m97.11 55.944v-4.9279"/><path d="m99.38 55.818h4.9319"/><path d="m101.85 58.286v-4.9319"/><path d="m104.11 58.162h4.9319"/><path d="m106.57 60.625v-4.9319"/><path d="m108.83 60.501h4.9279"/><path d="m111.3 62.963v-4.9265"/><path d="m113.55 62.838h4.9332"/><path d="m116.03 65.307v-4.9319"/><path d="m118.29 65.182h4.9279"/><path d="m120.75 67.646v-4.9265"/><path d="m123.02 67.521h4.9332"/><path d="m125.49 69.99v-4.9319"/><path d="m127.74 69.865h4.9319"/><path d="m130.21 72.329v-4.9332"/><path d="m132.47 72.203h4.9265"/><path d="m134.94 74.667v-4.9279"/><path d="m137.19 74.542h4.9319"/><path d="m139.66 77.01v-4.9319"/><path d="m141.93 76.886h4.9266"/><path d="m144.39 79.348v-4.9265"/><path d="m146.65 79.224h4.9319"/><path d="m149.11 81.687v-4.9265"/><path d="m151.38 81.567h4.9319"/><path d="m153.85 84.031v-4.9319"/><path d="m156.11 83.906h4.9265"/><path d="m158.56 86.369v-4.9265"/><path d="m160.83 88.588h4.9319"/><path d="m163.3 91.052v-4.9332"/></g></g></g><g stroke-width="1.3333"><g font-family="Nimbus Sans"><text fill="#dc6900" font-size="7.7459" x="70.316216" y="11.73752"><tspan fill="#dc6900" stroke-width="1.3333" x="70.316216" y="11.73752">TwoMax, n=32</tspan></text><g font-size="9.3331"><text x="41.665901" y="83.793015"><tspan stroke-width="1.3333" x="41.665901" y="83.793015">number of 1 bits = ğœ®x</tspan></text><text x="16.885262" y="10.49276"><tspan stroke-width="1.3333" x="16.885262" y="10.49276">f(x)</tspan></text></g></g><g font-family="'Nimbus Sans'" font-size="7.7459"><text x="10.040219" y="97.335129"><tspan stroke-width="1.3333" x="10.040219 33.672958 55.307255 59.311882 78.947739 82.944626 102.58047 106.57735 126.21439 130.21127 149.84712 153.85176" y="97.335129">051015202530</tspan></text><text transform="rotate(-90)" x="-90.594406" y="6.838477"><tspan stroke-width="1.3333" x="-90.594406 -78.89035 -57.488438 -53.483814 -34.080334 -30.083447 -10.67223 -6.675335" y="6.838477">05152535</tspan></text></g></g><text x="-50.968262" y="6.964992"><tspan x="-50.968262" y="6.964992"/></text></svg>