<svg height="99pt" viewBox="0 0 168 99" width="168pt" xmlns="http://www.w3.org/2000/svg"><g fill="none" stroke="#000" stroke-linecap="round" stroke-miterlimit="10" stroke-width=".99998"><path d="m12.096 88.588h141.81"/><path d="m12.096 88.588v1.7293"/><path d="m35.732 88.588v1.7293"/><path d="m59.366 88.588v1.7293"/><path d="m83.001 88.588v1.7293"/><path d="m106.63 88.588v1.7293"/><path d="m130.27 88.588v1.7293"/><path d="m153.91 88.588v1.7293"/><path d="m12.096 88.588v-81.919"/><path d="m12.096 88.588h-1.7293"/><path d="m12.096 76.886h-1.7293"/><path d="m12.096 65.182h-1.7293"/><path d="m12.096 53.48h-1.7293"/><path d="m12.096 41.777h-1.7293"/><path d="m12.096 30.074h-1.7293"/><path d="m12.096 18.371h-1.7293"/><path d="m12.096 6.6692h-1.7293"/></g><text font-family="'Nimbus Sans'" font-size="7.7459" stroke-width="1.3333" transform="rotate(-90)" x="-90.588409" y="6.895012"><tspan stroke-width="1.3333" x="-90.588409 -78.884354 -57.482441 -53.477802 -34.074337 -30.07745 -10.666225 -6.669338" y="6.895012">05152535</tspan></text><g fill="none" stroke-linecap="round" stroke-miterlimit="10"><path d="m12.096 1.9867h151.26v86.602h-151.26z" stroke="#000" stroke-width=".99998"/><g stroke-linejoin="round"><g stroke="#fff" stroke-width="2"><path d="m13.842 13.689c0 2.3279-3.4852 2.3279-3.4852 0 0-2.3226 3.4852-2.3226 3.4852 0"/><path d="m18.569 16.033c0 2.3226-3.4892 2.3226-3.4892 0s3.4892-2.3226 3.4892 0"/><path d="m23.293 18.371c0 2.3226-3.4839 2.3226-3.4839 0s3.4839-2.3226 3.4839 0"/><path d="m28.022 20.715c0 2.3226-3.4892 2.3226-3.4892 0 0-2.3279 3.4892-2.3279 3.4892 0"/><path d="m32.746 23.054c0 2.3226-3.4839 2.3226-3.4839 0 0-2.3239 3.4839-2.3239 3.4839 0"/><path d="m37.476 25.392c0 2.3279-3.4839 2.3279-3.4839 0 0-2.3239 3.4839-2.3239 3.4839 0"/><path d="m42.205 27.735c0 2.3239-3.4892 2.3239-3.4892 0 0-2.3279 3.4892-2.3279 3.4892 0"/><path d="m46.929 30.074c0 2.3226-3.4839 2.3226-3.4839 0s3.4839-2.3226 3.4839 0"/><path d="m51.658 32.412c0 2.3279-3.4892 2.3279-3.4892 0 0-2.3226 3.4892-2.3226 3.4892 0"/><path d="m56.382 34.756c0 2.3226-3.4839 2.3226-3.4839 0s3.4839-2.3226 3.4839 0"/><path d="m61.111 37.095c0 2.3226-3.4852 2.3226-3.4852 0s3.4852-2.3226 3.4852 0"/><path d="m65.84 39.439c0 2.3226-3.4906 2.3226-3.4906 0 0-2.3279 3.4906-2.3279 3.4906 0"/><path d="m70.564 41.777c0 2.3226-3.4852 2.3226-3.4852 0 0-2.3239 3.4852-2.3239 3.4852 0"/><path d="m75.292 44.116c0 2.3279-3.4892 2.3279-3.4892 0 0-2.3239 3.4892-2.3239 3.4892 0"/><path d="m80.016 46.458c0 2.3239-3.4839 2.3239-3.4839 0 0-2.3226 3.4839-2.3226 3.4839 0"/><path d="m84.745 48.797c0 2.3226-3.4839 2.3226-3.4839 0s3.4839-2.3226 3.4839 0"/><path d="m89.474 51.141c0 2.3226-3.4892 2.3226-3.4892 0 0-2.3279 3.4892-2.3279 3.4892 0"/><path d="m94.198 53.48c0 2.3226-3.4839 2.3226-3.4839 0s3.4839-2.3226 3.4839 0"/><path d="m98.927 55.818c0 2.3279-3.4892 2.3279-3.4892 0 0-2.3226 3.4892-2.3226 3.4892 0"/><path d="m103.65 58.162c0 2.3226-3.4839 2.3226-3.4839 0 0-2.3239 3.4839-2.3239 3.4839 0"/><path d="m108.38 60.501c0 2.3226-3.4839 2.3226-3.4839 0 0-2.3239 3.4839-2.3239 3.4839 0"/><path d="m113.11 62.838c0 2.3293-3.4892 2.3293-3.4892 0 0-2.3226 3.4892-2.3226 3.4892 0"/><path d="m117.83 65.182c0 2.3226-3.4852 2.3226-3.4852 0s3.4852-2.3226 3.4852 0"/><path d="m122.56 67.521c0 2.3226-3.4906 2.3226-3.4906 0s3.4906-2.3226 3.4906 0"/><path d="m127.29 69.865c0 2.3226-3.4852 2.3226-3.4852 0 0-2.3279 3.4852-2.3279 3.4852 0"/><path d="m132.02 72.203c0 2.3226-3.4839 2.3226-3.4839 0s3.4839-2.3226 3.4839 0"/><path d="m136.74 74.542c0 2.3279-3.4892 2.3279-3.4892 0 0-2.3226 3.4892-2.3226 3.4892 0"/><path d="m141.47 76.886c0 2.3226-3.4839 2.3226-3.4839 0 0-2.3239 3.4839-2.3239 3.4839 0"/><path d="m146.2 79.224c0 2.3226-3.4892 2.3226-3.4892 0 0-2.3239 3.4892-2.3239 3.4892 0"/><path d="m150.92 81.567c0 2.3239-3.4839 2.3239-3.4839 0 0-2.3279 3.4839-2.3279 3.4839 0"/><path d="m155.64 83.906c0 2.3226-3.4839 2.3226-3.4839 0s3.4839-2.3226 3.4839 0"/><path d="m160.38 86.244c0 2.3279-3.4892 2.3279-3.4892 0 0-2.3226 3.4892-2.3226 3.4892 0"/><path d="m165.11 88.588c0 2.3226-3.4839 2.3226-3.4839 0s3.4839-2.3226 3.4839 0"/></g><g stroke="#f00" stroke-width=".99998"><path d="m13.842 13.689c0 2.3279-3.4852 2.3279-3.4852 0 0-2.3226 3.4852-2.3226 3.4852 0"/><path d="m18.569 16.033c0 2.3226-3.4892 2.3226-3.4892 0s3.4892-2.3226 3.4892 0"/><path d="m23.293 18.371c0 2.3226-3.4839 2.3226-3.4839 0s3.4839-2.3226 3.4839 0"/><path d="m28.022 20.715c0 2.3226-3.4892 2.3226-3.4892 0 0-2.3279 3.4892-2.3279 3.4892 0"/><path d="m32.746 23.054c0 2.3226-3.4839 2.3226-3.4839 0 0-2.3239 3.4839-2.3239 3.4839 0"/><path d="m37.476 25.392c0 2.3279-3.4839 2.3279-3.4839 0 0-2.3239 3.4839-2.3239 3.4839 0"/><path d="m42.205 27.735c0 2.3239-3.4892 2.3239-3.4892 0 0-2.3279 3.4892-2.3279 3.4892 0"/><path d="m46.929 30.074c0 2.3226-3.4839 2.3226-3.4839 0s3.4839-2.3226 3.4839 0"/><path d="m51.658 32.412c0 2.3279-3.4892 2.3279-3.4892 0 0-2.3226 3.4892-2.3226 3.4892 0"/><path d="m56.382 34.756c0 2.3226-3.4839 2.3226-3.4839 0s3.4839-2.3226 3.4839 0"/><path d="m61.111 37.095c0 2.3226-3.4852 2.3226-3.4852 0s3.4852-2.3226 3.4852 0"/><path d="m65.84 39.439c0 2.3226-3.4906 2.3226-3.4906 0 0-2.3279 3.4906-2.3279 3.4906 0"/><path d="m70.564 41.777c0 2.3226-3.4852 2.3226-3.4852 0 0-2.3239 3.4852-2.3239 3.4852 0"/><path d="m75.292 44.116c0 2.3279-3.4892 2.3279-3.4892 0 0-2.3239 3.4892-2.3239 3.4892 0"/><path d="m80.016 46.458c0 2.3239-3.4839 2.3239-3.4839 0 0-2.3226 3.4839-2.3226 3.4839 0"/><path d="m84.745 48.797c0 2.3226-3.4839 2.3226-3.4839 0s3.4839-2.3226 3.4839 0"/><path d="m89.474 51.141c0 2.3226-3.4892 2.3226-3.4892 0 0-2.3279 3.4892-2.3279 3.4892 0"/><path d="m94.198 53.48c0 2.3226-3.4839 2.3226-3.4839 0s3.4839-2.3226 3.4839 0"/><path d="m98.927 55.818c0 2.3279-3.4892 2.3279-3.4892 0 0-2.3226 3.4892-2.3226 3.4892 0"/><path d="m103.65 58.162c0 2.3226-3.4839 2.3226-3.4839 0 0-2.3239 3.4839-2.3239 3.4839 0"/><path d="m108.38 60.501c0 2.3226-3.4839 2.3226-3.4839 0 0-2.3239 3.4839-2.3239 3.4839 0"/><path d="m113.11 62.838c0 2.3293-3.4892 2.3293-3.4892 0 0-2.3226 3.4892-2.3226 3.4892 0"/><path d="m117.83 65.182c0 2.3226-3.4852 2.3226-3.4852 0s3.4852-2.3226 3.4852 0"/><path d="m122.56 67.521c0 2.3226-3.4906 2.3226-3.4906 0s3.4906-2.3226 3.4906 0"/><path d="m127.29 69.865c0 2.3226-3.4852 2.3226-3.4852 0 0-2.3279 3.4852-2.3279 3.4852 0"/><path d="m132.02 72.203c0 2.3226-3.4839 2.3226-3.4839 0s3.4839-2.3226 3.4839 0"/><path d="m136.74 74.542c0 2.3279-3.4892 2.3279-3.4892 0 0-2.3226 3.4892-2.3226 3.4892 0"/><path d="m141.47 76.886c0 2.3226-3.4839 2.3226-3.4839 0 0-2.3239 3.4839-2.3239 3.4839 0"/><path d="m146.2 79.224c0 2.3226-3.4892 2.3226-3.4892 0 0-2.3239 3.4892-2.3239 3.4892 0"/><path d="m150.92 81.567c0 2.3239-3.4839 2.3239-3.4839 0 0-2.3279 3.4839-2.3279 3.4839 0"/><path d="m155.64 83.906c0 2.3226-3.4839 2.3226-3.4839 0s3.4839-2.3226 3.4839 0"/><path d="m160.38 86.244c0 2.3279-3.4892 2.3279-3.4892 0 0-2.3226 3.4892-2.3226 3.4892 0"/><path d="m165.11 88.588c0 2.3226-3.4839 2.3226-3.4839 0s3.4839-2.3226 3.4839 0"/></g></g></g><g font-family="Nimbus Sans" stroke-width="1.3333"><text fill="#f00" font-size="7.7459" x="69.715057" y="10.81046"><tspan stroke-width="1.3333" x="69.715057" y="10.81046">OneMax, n=32</tspan></text><text font-size="9.3331" x="41.73138" y="83.793015"><tspan stroke-width="1.3333" x="41.73138" y="83.793015">number of 1 bits = ğœ®x</tspan></text><text font-size="9.3331" x="16.950752" y="10.49276"><tspan stroke-width="1.3333" x="16.950752" y="10.49276">f(x)</tspan></text><g font-size="7.7459"><text x="10.096756" y="97.335129"><tspan stroke-width="1.3333" x="10.096756 33.729496 55.363792 59.36842 79.00428 83.001167 102.63702 106.6339 126.27093 130.26781 149.90366 153.90829" y="97.335129">051015202530</tspan></text><text transform="rotate(-90)" x="-90.594406" y="6.895013"><tspan stroke-width="1.3333" x="-90.594406 -78.89035 -57.488438 -53.483814 -34.080334 -30.083447 -10.67223 -6.675335" y="6.895013">05152535</tspan></text></g></g><text x="-50.911724" y="6.964992"><tspan x="-50.911724" y="6.964992"/></text></svg>