<svg height="279pt" viewBox="0 0 462 279" width="462pt" xmlns="http://www.w3.org/2000/svg"><g fill="none" stroke-linecap="round" stroke-linejoin="round"><path d="m384.83 2.2331v262.35" stroke="#f00" stroke-width="2"/><g stroke="#000" stroke-miterlimit="10" stroke-width=".99998"><path d="m19.15 257.6h428.78"/><path d="m19.15 257.6v7.4851"/><path d="m80.404 257.6v7.4851"/><path d="m141.65 257.6v7.4851"/><path d="m202.91 257.6v7.4851"/><path d="m264.17 257.6v7.4851"/><path d="m325.42 257.6v7.4851"/><path d="m386.68 257.6v7.4851"/><path d="m447.93 257.6v7.4851"/><path d="m19.15 257.6h433.56v-255.86h-433.56z"/><path d="m19.15 248.77v-238.21"/><path d="m19.15 248.77h-7.4889"/><path d="m19.15 222.31h-7.4889"/><path d="m19.15 195.84h-7.4889"/><path d="m19.15 169.37h-7.4889"/><path d="m19.15 142.9h-7.4889"/><path d="m19.15 116.43h-7.4889"/><path d="m19.15 89.968h-7.4889"/><path d="m19.15 63.502h-7.4889"/><path d="m19.15 37.023h-7.4889"/><path d="m19.15 10.557h-7.4889"/></g></g><g stroke-width="1.3333"><path d="m19.15 257.59h10.292v-17.645h-10.292z" fill="#9eaea5"/><path d="m29.436 257.6h.48906v-17.645h-.48906z" fill="#99f4dd"/><path d="m29.931 257.6h1.839v-17.645h-1.839z" fill="#53089c"/><path d="m31.764 257.6h2.9426v-17.645h-2.9426z" fill="#5f5c3b"/><path d="m34.707 257.6h7.104v-17.645h-7.104z" fill="#dfe7b0"/><path d="m41.811 257.6h5.7597v-17.645h-5.7597z" fill="#130f85"/><path d="m47.572 257.6h3.9212v-17.645h-3.9212z" fill="#f68ae4"/><path d="m51.493 257.6h2.5729v-17.645h-2.5729z" fill="#c13127"/><path d="m54.061 257.6h2.6931v-17.645h-2.6931z" fill="#cf9fa6"/><path d="m56.758 257.6h4.2863v-17.645h-4.2863z" fill="#082c57"/><path d="m61.045 257.6h1.839v-17.645h-1.839z" fill="#a3814c"/><path d="m62.883 257.6h6.8597v-17.645h-6.8597z" fill="#c84800"/><path d="m69.743 257.6h1.2239v-17.645h-1.2239z" fill="#43a076"/><path d="m70.973 257.6h10.047v-17.645h-10.047z" fill="#6733ad"/><path d="m81.014 257.6h9.5571v-17.645h-9.5571z" fill="#56180c"/><path d="m90.571 257.6h7.9638v-17.645h-7.9638z" fill="#3661e6"/><path d="m98.533 257.6h4.4119v-17.645h-4.4119z" fill="#853b9f"/><path d="m102.95 257.6h7.3493v-17.645h-7.3493z" fill="#4d348a"/><path d="m110.29 257.6h1.8385v-17.645h-1.8385z" fill="#f710ca"/><path d="m112.13 257.6h8.5784v-17.645h-8.5784z" fill="#f1f540"/><path d="m120.71 257.6h2.6937v-17.645h-2.6937z" fill="#30bdb5"/><path d="m123.4 257.6h9.3118v-17.645h-9.3118z" fill="#ac93fa"/><path d="m132.72 257.6h1.1036v-17.645h-1.1036z" fill="#6c2d6d"/><path d="m133.81 257.6h3.552v-17.645h-3.552z" fill="#20df71"/><path d="m137.37 257.6h8.9424v-17.645h-8.9424z" fill="#1c25ba"/><path d="m146.31 257.6h7.104v-17.645h-7.104z" fill="#7df6a5"/><path d="m153.41 257.6h6.2504v-17.645h-6.2504z" fill="#1d8814"/><path d="m159.67 257.6h3.9212v-17.645h-3.9212z" fill="#a7578e"/><path d="m163.59 257.6h4.9015v-17.645h-4.9015z" fill="#693ea2"/><path d="m168.49 257.6h1.9584v-17.645h-1.9584z" fill="#3c5ab3"/><path d="m170.45 257.6h9.1878v-17.645h-9.1878z" fill="#fc6f3f"/><path d="m179.64 257.6h10.656v-17.645h-10.656z" fill="#d2ddb1"/><path d="m190.29 257.6h9.1878v-17.645h-9.1878z" fill="#8d35ed"/><path d="m199.48 257.6h5.516v-17.645h-5.516z" fill="#10f5f0"/><path d="m205 257.6h3.1879v-17.645h-3.1879z" fill="#9ab3a9"/><path d="m208.19 257.6h10.166v-17.645h-10.166z" fill="#0d5032"/><path d="m218.35 257.6h11.27v-17.645h-11.27z" fill="#8b176c"/><path d="m229.63 257.6h5.1457v-17.645h-5.1457z" fill="#5dfd79"/><path d="m234.76 257.6h5.8796v-17.645h-5.8796z" fill="#e0a099"/><path d="m240.64 257.6h12.25v-17.645h-12.25z" fill="#67f019"/><path d="m252.91 257.6h11.515v-17.645h-11.515z" fill="#7051f1"/><path d="m265.03 257.6h.12546v-17.645h-.12546z" fill="#4c3af0"/><path d="m265.15 257.6h11.64v-17.645h-11.64z" fill="#084463"/><path d="m276.78 257.6h4.2858v-17.645h-4.2858z" fill="#7adfd7"/><path d="m281.08 257.6h4.0411v-17.645h-4.0411z" fill="#c92d5a"/><path d="m285.12 257.6h5.1447v-17.645h-5.1447z" fill="#d3b6c7"/><path d="m290.26 257.6h6.4936v-17.645h-6.4936z" fill="#94cd0a"/><path d="m296.76 257.6h5.0212v-17.645h-5.0212z" fill="#a70510"/><path d="m302.88 257.6h4.0411v-17.645h-4.0411z" fill="#b8375f"/><path d="m328.61 257.6h5.3905v-17.645h-5.3905z" fill="#79a307"/><path d="m19.15 231.13h4.4119v-17.645h-4.4119z" fill="#56180c"/><path d="m24.296 231.13h4.1666v-17.645h-4.1666z" fill="#99f4dd"/><path d="m28.458 231.13h7.5935v-17.645h-7.5935z" fill="#c13127"/><path d="m36.056 231.13h7.3493v-17.645h-7.3493z" fill="#1c25ba"/><path d="m43.405 231.13h.2453v-17.645h-.2453z" fill="#5f5c3b"/><path d="m43.649 231.13h2.0827v-17.645h-2.0827z" fill="#9eaea5"/><path d="m45.733 231.13h1.2239v-17.645h-1.2239z" fill="#6733ad"/><path d="m46.957 231.13h7.3493v-17.645h-7.3493z" fill="#dfe7b0"/><path d="m54.31 231.13h4.9009v-17.645h-4.9009z" fill="#f68ae4"/><path d="m59.206 231.13h9.9211v-17.645h-9.9211z" fill="#4d348a"/><path d="m69.134 231.13h2.4478v-17.645h-2.4478z" fill="#a3814c"/><path d="m71.582 231.13h3.9212v-17.645h-3.9212z" fill="#f710ca"/><path d="m75.503 231.13h8.5785v-17.645h-8.5785z" fill="#082c57"/><path d="m84.082 231.13h5.7597v-17.645h-5.7597z" fill="#a7578e"/><path d="m89.836 231.13h7.8383v-17.645h-7.8383z" fill="#ac93fa"/><path d="m97.68 231.13h7.1034v-17.645h-7.1034z" fill="#130f85"/><path d="m104.78 231.13h9.432v-17.645h-9.432z" fill="#cf9fa6"/><path d="m114.22 231.13h2.9426v-17.645h-2.9426z" fill="#53089c"/><path d="m117.16 231.13h5.5155v-17.645h-5.5155z" fill="#c84800"/><path d="m122.67 231.13h3.6775v-17.645h-3.6775z" fill="#1d8814"/><path d="m126.35 231.13h6.1249v-17.645h-6.1249z" fill="#30bdb5"/><path d="m132.47 231.13h5.1452v-17.645h-5.1452z" fill="#f1f540"/><path d="m137.61 231.13h5.1452v-17.645h-5.1452z" fill="#fc6f3f"/><path d="m142.76 231.13h4.6562v-17.645h-4.6562z" fill="#6c2d6d"/><path d="m147.41 231.13h5.2649v-17.645h-5.2649z" fill="#3c5ab3"/><path d="m152.68 231.13h4.9009v-17.645h-4.9009z" fill="#3661e6"/><path d="m157.59 231.13h11.396v-17.645h-11.396z" fill="#9ab3a9"/><path d="m168.97 231.13h6.005v-17.645h-6.005z" fill="#7df6a5"/><path d="m174.97 231.13h7.229v-17.645h-7.229z" fill="#10f5f0"/><path d="m182.21 231.13h10.047v-17.645h-10.047z" fill="#0d5032"/><path d="m192.25 231.13h10.656v-17.645h-10.656z" fill="#d2ddb1"/><path d="m202.91 231.13h11.15v-17.645h-11.15z" fill="#5dfd79"/><path d="m214.07 231.13h.61509v-17.645h-.61509z" fill="#853b9f"/><path d="m214.68 231.13h7.8383v-17.645h-7.8383z" fill="#20df71"/><path d="m222.52 231.13h5.0212v-17.645h-5.0212z" fill="#693ea2"/><path d="m227.53 231.13h9.432v-17.645h-9.432z" fill="#43a076"/><path d="m236.97 231.13h5.3905v-17.645h-5.3905z" fill="#94cd0a"/><path d="m242.36 231.13h12.25v-17.645h-12.25z" fill="#7adfd7"/><path d="m254.61 231.13h10.412v-17.645h-10.412z" fill="#e0a099"/><path d="m265.03 231.13h9.3118v-17.645h-9.3118z" fill="#8b176c"/><path d="m274.33 231.13h5.516v-17.645h-5.516z" fill="#7051f1"/><path d="m279.85 231.13h6.9837v-17.645h-6.9837z" fill="#8d35ed"/><path d="m286.84 231.13h8.3331v-17.645h-8.3331z" fill="#a70510"/><path d="m295.17 231.13h7.7186v-17.645h-7.7186z" fill="#b8375f"/><path d="m302.88 231.13h6.9837v-17.645h-6.9837z" fill="#d3b6c7"/><path d="m309.86 231.13h7.8383v-17.645h-7.8383z" fill="#67f019"/><path d="m317.7 231.13h10.907v-17.645h-10.907z" fill="#79a307"/><path d="m328.61 231.13h9.432v-17.645h-9.432z" fill="#4c3af0"/><path d="m338.05 231.13h9.8024v-17.645h-9.8024z" fill="#c92d5a"/><path d="m347.85 231.13h10.412v-17.645h-10.412z" fill="#084463"/><path d="m19.15 204.66h2.4478v-17.645h-2.4478z" fill="#5f5c3b"/><path d="m21.598 204.66h7.9638v-17.645h-7.9638z" fill="#f68ae4"/><path d="m29.562 204.66h2.8171v-17.645h-2.8171z" fill="#6733ad"/><path d="m34.092 204.66h1.9588v-17.645h-1.9588z" fill="#99f4dd"/><path d="m36.056 204.66h6.005v-17.645h-6.005z" fill="#9eaea5"/><path d="m42.056 204.66h5.0212v-17.645h-5.0212z" fill="#56180c"/><path d="m47.082 204.66h6.6144v-17.645h-6.6144z" fill="#a3814c"/><path d="m53.697 204.66h1.4693v-17.645h-1.4693z" fill="#082c57"/><path d="m55.165 204.66h2.3281v-17.645h-2.3281z" fill="#1c25ba"/><path d="m57.493 204.66h4.2863v-17.645h-4.2863z" fill="#f710ca"/><path d="m61.779 204.66h2.4478v-17.645h-2.4478z" fill="#c13127"/><path d="m64.233 204.66h9.9211v-17.645h-9.9211z" fill="#30bdb5"/><path d="m74.154 204.66h4.9015v-17.645h-4.9015z" fill="#130f85"/><path d="m79.055 204.66h6.1253v-17.645h-6.1253z" fill="#dfe7b0"/><path d="m85.18 204.66h10.166v-17.645h-10.166z" fill="#6c2d6d"/><path d="m95.352 204.66h6.1249v-17.645h-6.1249z" fill="#f1f540"/><path d="m101.48 204.66h1.4693v-17.645h-1.4693z" fill="#3661e6"/><path d="m102.95 204.66h12.005v-17.645h-12.005z" fill="#a7578e"/><path d="m114.95 204.66h1.8385v-17.645h-1.8385z" fill="#c84800"/><path d="m116.79 204.66h5.8801v-17.645h-5.8801z" fill="#20df71"/><path d="m122.67 204.66h3.7972v-17.645h-3.7972z" fill="#53089c"/><path d="m126.47 204.66h3.4316v-17.645h-3.4316z" fill="#7adfd7"/><path d="m129.9 204.66h1.9588v-17.645h-1.9588z" fill="#cf9fa6"/><path d="m132.72 204.66h10.412v-17.645h-10.412z" fill="#ac93fa"/><path d="m143.12 204.66h8.3331v-17.645h-8.3331z" fill="#4d348a"/><path d="m156.12 204.66h4.2868v-17.645h-4.2868z" fill="#fc6f3f"/><path d="m160.4 204.66h10.291v-17.645h-10.291z" fill="#1d8814"/><path d="m170.69 204.66h11.396v-17.645h-11.396z" fill="#4c3af0"/><path d="m182.09 204.66h5.516v-17.645h-5.516z" fill="#7df6a5"/><path d="m187.6 204.66h11.15v-17.645h-11.15z" fill="#3c5ab3"/><path d="m198.75 204.66h3.9212v-17.645h-3.9212z" fill="#853b9f"/><path d="m202.67 204.66h1.9588v-17.645h-1.9588z" fill="#0d5032"/><path d="m204.63 204.66h3.3067v-17.645h-3.3067z" fill="#8d35ed"/><path d="m207.93 204.66h4.5306v-17.645h-4.5306z" fill="#43a076"/><path d="m212.47 204.66h2.2026v-17.645h-2.2026z" fill="#d2ddb1"/><path d="m214.68 204.66h2.4478v-17.645h-2.4478z" fill="#5dfd79"/><path d="m217.12 204.66h11.15v-17.645h-11.15z" fill="#79a307"/><path d="m228.28 204.66h11.64v-17.645h-11.64z" fill="#d3b6c7"/><path d="m239.91 204.66h1.1042v-17.645h-1.1042z" fill="#9ab3a9"/><path d="m241.01 204.66h1.2239v-17.645h-1.2239z" fill="#693ea2"/><path d="m242.36 204.66h11.271v-17.645h-11.271z" fill="#94cd0a"/><path d="m253.64 204.66h12.005v-17.645h-12.005z" fill="#10f5f0"/><path d="m265.64 204.66h11.271v-17.645h-11.271z" fill="#e0a099"/><path d="m276.9 204.66h7.3493v-17.645h-7.3493z" fill="#67f019"/><path d="m284.26 204.66h8.5785v-17.645h-8.5785z" fill="#8b176c"/><path d="m292.84 204.66h11.516v-17.645h-11.516z" fill="#7051f1"/><path d="m306.93 204.66h3.3067v-17.645h-3.3067z" fill="#b8375f"/><path d="m310.72 204.66h2.4478v-17.645h-2.4478z" fill="#a70510"/><path d="m329.34 204.66h2.6931v-17.645h-2.6931z" fill="#c92d5a"/><path d="m332.04 204.66h1.3494v-17.645h-1.3494z" fill="#084463"/><path d="m19.15 178.19h5.1452v-17.645h-5.1452z" fill="#99f4dd"/><path d="m24.296 178.19h2.3275v-17.645h-2.3275z" fill="#a7578e"/><path d="m26.619 178.19h5.0212v-17.645h-5.0212z" fill="#f710ca"/><path d="m31.644 178.19h3.3067v-17.645h-3.3067z" fill="#f68ae4"/><path d="m34.952 178.19h5.0212v-17.645h-5.0212z" fill="#5f5c3b"/><path d="m39.973 178.19h5.7597v-17.645h-5.7597z" fill="#53089c"/><path d="m45.733 178.19h8.4534v-17.645h-8.4534z" fill="#9eaea5"/><path d="m54.186 178.19h10.291v-17.645h-10.291z" fill="#f1f540"/><path d="m64.477 178.19h2.2026v-17.645h-2.2026z" fill="#130f85"/><path d="m66.681 178.19h3.3062v-17.645h-3.3062z" fill="#56180c"/><path d="m69.987 178.19h2.0827v-17.645h-2.0827z" fill="#082c57"/><path d="m72.071 178.19h.97862v-17.645h-.97862z" fill="#c13127"/><path d="m74.034 178.19h3.7972v-17.645h-3.7972z" fill="#dfe7b0"/><path d="m77.831 178.19h7.8383v-17.645h-7.8383z" fill="#a3814c"/><path d="m85.67 178.19h6.9837v-17.645h-6.9837z" fill="#c84800"/><path d="m92.653 178.19h11.396v-17.645h-11.396z" fill="#6733ad"/><path d="m104.05 178.19h9.3118v-17.645h-9.3118z" fill="#1c25ba"/><path d="m113.36 178.19h4.0411v-17.645h-4.0411z" fill="#30bdb5"/><path d="m117.4 178.19h7.8383v-17.645h-7.8383z" fill="#7df6a5"/><path d="m125.24 178.19h3.0625v-17.645h-3.0625z" fill="#cf9fa6"/><path d="m128.31 178.19h7.593v-17.645h-7.593z" fill="#4d348a"/><path d="m136.64 178.19h3.063v-17.645h-3.063z" fill="#1d8814"/><path d="m139.69 178.19h11.396v-17.645h-11.396z" fill="#3661e6"/><path d="m151.09 178.19h5.0212v-17.645h-5.0212z" fill="#fc6f3f"/><path d="m156.12 178.19h7.7186v-17.645h-7.7186z" fill="#853b9f"/><path d="m163.84 178.19h8.9424v-17.645h-8.9424z" fill="#6c2d6d"/><path d="m172.77 178.19h8.3331v-17.645h-8.3331z" fill="#0d5032"/><path d="m181.11 178.19h8.6971v-17.645h-8.6971z" fill="#ac93fa"/><path d="m189.8 178.19h8.8227v-17.645h-8.8227z" fill="#43a076"/><path d="m198.75 178.19h11.76v-17.645h-11.76z" fill="#3c5ab3"/><path d="m214.68 178.19h.48905v-17.645h-.48905z" fill="#d2ddb1"/><path d="m215.17 178.19h9.9211v-17.645h-9.9211z" fill="#9ab3a9"/><path d="m225.09 178.19h5.3905v-17.645h-5.3905z" fill="#10f5f0"/><path d="m230.48 178.19h5.0212v-17.645h-5.0212z" fill="#20df71"/><path d="m235.51 178.19h10.656v-17.645h-10.656z" fill="#5dfd79"/><path d="m246.16 178.19h8.3331v-17.645h-8.3331z" fill="#693ea2"/><path d="m254.49 178.19h1.1036v-17.645h-1.1036z" fill="#8d35ed"/><path d="m255.6 178.19h11.76v-17.645h-11.76z" fill="#94cd0a"/><path d="m267.36 178.19h4.0411v-17.645h-4.0411z" fill="#a70510"/><path d="m271.4 178.19h3.552v-17.645h-3.552z" fill="#67f019"/><path d="m274.96 178.19h7.229v-17.645h-7.229z" fill="#8b176c"/><path d="m282.17 178.19h3.1879v-17.645h-3.1879z" fill="#7adfd7"/><path d="m285.36 178.19h11.64v-17.645h-11.64z" fill="#c92d5a"/><path d="m297 178.19h7.4733v-17.645h-7.4733z" fill="#e0a099"/><path d="m304.48 178.19h9.432v-17.645h-9.432z" fill="#4c3af0"/><path d="m313.9 178.19h5.0212v-17.645h-5.0212z" fill="#b8375f"/><path d="m318.93 178.19h8.2077v-17.645h-8.2077z" fill="#d3b6c7"/><path d="m327.14 178.19h5.3905v-17.645h-5.3905z" fill="#7051f1"/><path d="m333.38 178.19h12.005v-17.645h-12.005z" fill="#084463"/><path d="m345.4 178.19h3.1879v-17.645h-3.1879z" fill="#79a307"/><path d="m19.15 151.73h8.8227v-17.645h-8.8227z" fill="#c84800"/><path d="m29.931 151.73h4.1666v-17.645h-4.1666z" fill="#99f4dd"/><path d="m34.952 151.73h9.068v-17.645h-9.068z" fill="#f68ae4"/><path d="m44.02 151.73h3.0625v-17.645h-3.0625z" fill="#c13127"/><path d="m47.082 151.73h3.6775v-17.645h-3.6775z" fill="#082c57"/><path d="m50.753 151.73h4.1666v-17.645h-4.1666z" fill="#9ab3a9"/><path d="m54.92 151.73h6.74v-17.645h-6.74z" fill="#9eaea5"/><path d="m61.659 151.73h.48905v-17.645h-.48905z" fill="#5f5c3b"/><path d="m62.149 151.73h11.885v-17.645h-11.885z" fill="#dfe7b0"/><path d="m74.034 151.73h4.4119v-17.645h-4.4119z" fill="#56180c"/><path d="m78.44 151.73h3.3067v-17.645h-3.3067z" fill="#cf9fa6"/><path d="m81.752 151.73h2.2026v-17.645h-2.2026z" fill="#f710ca"/><path d="m83.956 151.73h7.5935v-17.645h-7.5935z" fill="#130f85"/><path d="m91.549 151.73h1.5932v-17.645h-1.5932z" fill="#a7578e"/><path d="m93.143 151.73h10.166v-17.645h-10.166z" fill="#a3814c"/><path d="m103.31 151.73h3.552v-17.645h-3.552z" fill="#6c2d6d"/><path d="m106.87 151.73h3.0625v-17.645h-3.0625z" fill="#30bdb5"/><path d="m109.93 151.73h11.026v-17.645h-11.026z" fill="#6733ad"/><path d="m120.96 151.73h2.9426v-17.645h-2.9426z" fill="#f1f540"/><path d="m123.9 151.73h6.4946v-17.645h-6.4946z" fill="#3661e6"/><path d="m130.39 151.73h6.2504v-17.645h-6.2504z" fill="#1d8814"/><path d="m136.64 151.73h5.8801v-17.645h-5.8801z" fill="#4d348a"/><path d="m142.52 151.73h5.0212v-17.645h-5.0212z" fill="#53089c"/><path d="m147.53 151.73h10.412v-17.645h-10.412z" fill="#1c25ba"/><path d="m157.96 151.73h11.396v-17.645h-11.396z" fill="#d2ddb1"/><path d="m169.35 151.73h9.6768v-17.645h-9.6768z" fill="#853b9f"/><path d="m179.03 151.73h10.412v-17.645h-10.412z" fill="#43a076"/><path d="m189.44 151.73h.12493v-17.645h-.12493z" fill="#20df71"/><path d="m189.56 151.73h2.2026v-17.645h-2.2026z" fill="#fc6f3f"/><path d="m191.76 151.73h1.1036v-17.645h-1.1036z" fill="#7df6a5"/><path d="m192.87 151.73h11.885v-17.645h-11.885z" fill="#ac93fa"/><path d="m204.75 151.73h9.8024v-17.645h-9.8024z" fill="#693ea2"/><path d="m214.55 151.73h6.4946v-17.645h-6.4946z" fill="#10f5f0"/><path d="m221.05 151.73h2.9426v-17.645h-2.9426z" fill="#3c5ab3"/><path d="m223.99 151.73h5.3905v-17.645h-5.3905z" fill="#5dfd79"/><path d="m229.37 151.73h11.885v-17.645h-11.885z" fill="#8d35ed"/><path d="m241.27 151.73h.2453v-17.645h-.2453z" fill="#0d5032"/><path d="m241.51 151.73h9.8024v-17.645h-9.8024z" fill="#8b176c"/><path d="m251.31 151.73h8.8222v-17.645h-8.8222z" fill="#b8375f"/><path d="m260.12 151.73h4.901v-17.645h-4.901z" fill="#4c3af0"/><path d="m265.03 151.73h2.4478v-17.645h-2.4478z" fill="#7adfd7"/><path d="m267.48 151.73h9.432v-17.645h-9.432z" fill="#94cd0a"/><path d="m276.9 151.73h11.64v-17.645h-11.64z" fill="#e0a099"/><path d="m288.54 151.73h7.7186v-17.645h-7.7186z" fill="#67f019"/><path d="m296.26 151.73h.61457v-17.645h-.61457z" fill="#d3b6c7"/><path d="m296.88 151.73h5.0212v-17.645h-5.0212z" fill="#084463"/><path d="m301.9 151.73h8.8222v-17.645h-8.8222z" fill="#a70510"/><path d="m310.72 151.73h10.292v-17.645h-10.292z" fill="#7051f1"/><path d="m321.01 151.73h8.3331v-17.645h-8.3331z" fill="#c92d5a"/><path d="m334 151.73h11.15v-17.645h-11.15z" fill="#79a307"/><path d="m59.206 125.26h10.781v-17.645h-10.781z" fill="#f68ae4"/><path d="m78.566 125.26h11.151v-17.645h-11.151z" fill="#c13127"/><path d="m89.836 125.26h1.9588v-17.645h-1.9588z" fill="#5f5c3b"/><path d="m98.044 125.26h7.8389v-17.645h-7.8389z" fill="#dfe7b0"/><path d="m105.89 125.26h8.2077v-17.645h-8.2077z" fill="#99f4dd"/><path d="m114.1 125.26h3.063v-17.645h-3.063z" fill="#56180c"/><path d="m117.16 125.26h4.4119v-17.645h-4.4119z" fill="#130f85"/><path d="m121.56 125.26h10.907v-17.645h-10.907z" fill="#a3814c"/><path d="m132.47 125.26h9.068v-17.645h-9.068z" fill="#30bdb5"/><path d="m141.53 125.26h4.5306v-17.645h-4.5306z" fill="#082c57"/><path d="m146.07 125.26h12.25v-17.645h-12.25z" fill="#f1f540"/><path d="m160.89 125.26h2.6931v-17.645h-2.6931z" fill="#6733ad"/><path d="m163.59 125.26h2.3281v-17.645h-2.3281z" fill="#f710ca"/><path d="m167.88 125.26h7.3493v-17.645h-7.3493z" fill="#3661e6"/><path d="m175.23 125.26h8.4534v-17.645h-8.4534z" fill="#4d348a"/><path d="m183.68 125.26h8.3331v-17.645h-8.3331z" fill="#1c25ba"/><path d="m192.01 125.26h4.9009v-17.645h-4.9009z" fill="#c84800"/><path d="m198.13 125.26h2.2026v-17.645h-2.2026z" fill="#6c2d6d"/><path d="m200.33 125.26h5.516v-17.645h-5.516z" fill="#1d8814"/><path d="m205.85 125.26h11.885v-17.645h-11.885z" fill="#ac93fa"/><path d="m217.75 125.26h6.3692v-17.645h-6.3692z" fill="#53089c"/><path d="m224.11 125.26h1.3494v-17.645h-1.3494z" fill="#3c5ab3"/><path d="m230.48 125.26h8.2077v-17.645h-8.2077z" fill="#d2ddb1"/><path d="m238.69 125.26h8.5784v-17.645h-8.5784z" fill="#43a076"/><path d="m247.27 125.26h2.8171v-17.645h-2.8171z" fill="#20df71"/><path d="m250.08 125.26h3.4316v-17.645h-3.4316z" fill="#9eaea5"/><path d="m253.51 125.26h12.13v-17.645h-12.13z" fill="#7df6a5"/><path d="m265.64 125.26h2.5734v-17.645h-2.5734z" fill="#853b9f"/><path d="m268.21 125.26h4.6556v-17.645h-4.6556z" fill="#5dfd79"/><path d="m272.86 125.26h10.292v-17.645h-10.292z" fill="#10f5f0"/><path d="m283.16 125.26h5.0212v-17.645h-5.0212z" fill="#0d5032"/><path d="m288.18 125.26h2.9426v-17.645h-2.9426z" fill="#7adfd7"/><path d="m291.12 125.26h6.1249v-17.645h-6.1249z" fill="#8d35ed"/><path d="m297.25 125.26h10.536v-17.645h-10.536z" fill="#8b176c"/><path d="m307.78 125.26h4.1666v-17.645h-4.1666z" fill="#a7578e"/><path d="m311.94 125.26h10.292v-17.645h-10.292z" fill="#94cd0a"/><path d="m322.24 125.26h6.3692v-17.645h-6.3692z" fill="#b8375f"/><path d="m328.61 125.26h9.3118v-17.645h-9.3118z" fill="#9ab3a9"/><path d="m338.05 125.26h1.9584v-17.645h-1.9584z" fill="#4c3af0"/><path d="m340 125.26h7.104v-17.645h-7.104z" fill="#e0a099"/><path d="m347.1 125.26h3.677v-17.645h-3.677z" fill="#7051f1"/><path d="m350.78 125.26h3.1874v-17.645h-3.1874z" fill="#67f019"/><path d="m355.2 125.26h2.6931v-17.645h-2.6931z" fill="#79a307"/><path d="m358.26 125.26h7.8389v-17.645h-7.8389z" fill="#084463"/><path d="m367.08 125.26h2.6931v-17.645h-2.6931z" fill="#c92d5a"/><path d="m369.77 125.26h3.0625v-17.645h-3.0625z" fill="#693ea2"/><path d="m372.84 125.26h2.6937v-17.645h-2.6937z" fill="#a70510"/><path d="m375.53 125.26h1.1041v-17.645h-1.1041z" fill="#d3b6c7"/><path d="m376.64 125.26h6.8597v-17.645h-6.8597z" fill="#fc6f3f"/><path d="m36.056 98.781h10.536v-17.645h-10.536z" fill="#99f4dd"/><path d="m73.05 98.781h4.4119v-17.645h-4.4119z" fill="#c13127"/><path d="m77.462 98.781h5.5155v-17.645h-5.5155z" fill="#9eaea5"/><path d="m82.976 98.781h11.271v-17.645h-11.271z" fill="#f68ae4"/><path d="m94.248 98.781h4.7759v-17.645h-4.7759z" fill="#5f5c3b"/><path d="m99.024 98.781h10.781v-17.645h-10.781z" fill="#56180c"/><path d="m109.8 98.781h11.516v-17.645h-11.516z" fill="#082c57"/><path d="m121.32 98.781h10.412v-17.645h-10.412z" fill="#dfe7b0"/><path d="m131.74 98.781h5.0212v-17.645h-5.0212z" fill="#c84800"/><path d="m136.76 98.781h11.15v-17.645h-11.15z" fill="#a3814c"/><path d="m147.91 98.781h3.552v-17.645h-3.552z" fill="#f710ca"/><path d="m151.83 98.781h9.1878v-17.645h-9.1878z" fill="#cf9fa6"/><path d="m161.01 98.781h8.5785v-17.645h-8.5785z" fill="#f1f540"/><path d="m169.59 98.781h10.656v-17.645h-10.656z" fill="#6733ad"/><path d="m180.25 98.781h7.3493v-17.645h-7.3493z" fill="#1d8814"/><path d="m187.6 98.781h6.3692v-17.645h-6.3692z" fill="#a7578e"/><path d="m193.97 98.781h10.166v-17.645h-10.166z" fill="#30bdb5"/><path d="m204.15 98.781h9.6768v-17.645h-9.6768z" fill="#4d348a"/><path d="m214.68 98.781h3.0624v-17.645h-3.0624z" fill="#853b9f"/><path d="m217.75 98.781h10.907v-17.645h-10.907z" fill="#3661e6"/><path d="m228.64 98.781h4.6556v-17.645h-4.6556z" fill="#fc6f3f"/><path d="m233.29 98.781h4.9015v-17.645h-4.9015z" fill="#ac93fa"/><path d="m238.2 98.781h2.6931v-17.645h-2.6931z" fill="#7df6a5"/><path d="m240.89 98.781h9.5571v-17.645h-9.5571z" fill="#1c25ba"/><path d="m250.45 98.781h5.0212v-17.645h-5.0212z" fill="#6c2d6d"/><path d="m255.72 98.781h10.166v-17.645h-10.166z" fill="#43a076"/><path d="m265.88 98.781h1.8385v-17.645h-1.8385z" fill="#5dfd79"/><path d="m267.72 98.781h1.8385v-17.645h-1.8385z" fill="#130f85"/><path d="m269.56 98.781h6.8602v-17.645h-6.8602z" fill="#20df71"/><path d="m276.42 98.781h2.0828v-17.645h-2.0828z" fill="#d2ddb1"/><path d="m278.5 98.781h8.0826v-17.645h-8.0826z" fill="#3c5ab3"/><path d="m286.58 98.781h2.8171v-17.645h-2.8171z" fill="#10f5f0"/><path d="m289.41 98.781h4.7759v-17.645h-4.7759z" fill="#53089c"/><path d="m294.18 98.781h10.047v-17.645h-10.047z" fill="#693ea2"/><path d="m304.24 98.781h5.1452v-17.645h-5.1452z" fill="#7adfd7"/><path d="m309.37 98.781h8.0826v-17.645h-8.0826z" fill="#0d5032"/><path d="m317.46 98.781h8.4529v-17.645h-8.4529z" fill="#a70510"/><path d="m325.92 98.781h9.5571v-17.645h-9.5571z" fill="#8b176c"/><path d="m335.48 98.781h3.677v-17.645h-3.677z" fill="#d3b6c7"/><path d="m339.14 98.781h4.2868v-17.645h-4.2868z" fill="#67f019"/><path d="m343.44 98.781h1.2239v-17.645h-1.2239z" fill="#9ab3a9"/><path d="m344.66 98.781h1.713v-17.645h-1.713z" fill="#94cd0a"/><path d="m346.37 98.781h2.8177v-17.645h-2.8177z" fill="#8d35ed"/><path d="m349.18 98.781h6.005v-17.645h-6.005z" fill="#79a307"/><path d="m355.2 98.781h1.7136v-17.645h-1.7136z" fill="#b8375f"/><path d="m356.9 98.781h6.2504v-17.645h-6.2504z" fill="#4c3af0"/><path d="m363.16 98.781h10.907v-17.645h-10.907z" fill="#e0a099"/><path d="m374.06 98.781h.97862v-17.645h-.97862z" fill="#084463"/><path d="m375.05 98.781h2.3275v-17.645h-2.3275z" fill="#7051f1"/><path d="m377.37 98.781h8.4534v-17.645h-8.4534z" fill="#c92d5a"/><path d="m46.592 72.315h3.0625v-17.645h-3.0625z" fill="#99f4dd"/><path d="m67.539 72.315h9.6774v-17.645h-9.6774z" fill="#5f5c3b"/><path d="m87.633 72.315h2.2026v-17.645h-2.2026z" fill="#082c57"/><path d="m90.571 72.315h7.8383v-17.645h-7.8383z" fill="#56180c"/><path d="m98.415 72.315h10.166v-17.645h-10.166z" fill="#f68ae4"/><path d="m108.58 72.315h.73487v-17.645h-.73487z" fill="#a3814c"/><path d="m109.31 72.315h4.6562v-17.645h-4.6562z" fill="#dfe7b0"/><path d="m121.56 72.315h11.396v-17.645h-11.396z" fill="#130f85"/><path d="m151.45 72.315h3.4316v-17.645h-3.4316z" fill="#4d348a"/><path d="m154.89 72.315h1.1041v-17.645h-1.1041z" fill="#6733ad"/><path d="m157.96 72.315h1.5932v-17.645h-1.5932z" fill="#1c25ba"/><path d="m163.59 72.315h1.4693v-17.645h-1.4693z" fill="#a7578e"/><path d="m165.05 72.315h2.8171v-17.645h-2.8171z" fill="#3661e6"/><path d="m167.88 72.315h1.7136v-17.645h-1.7136z" fill="#f710ca"/><path d="m169.59 72.315h.48958v-17.645h-.48958z" fill="#f1f540"/><path d="m172.77 72.315h6.1253v-17.645h-6.1253z" fill="#6c2d6d"/><path d="m178.91 72.315h10.412v-17.645h-10.412z" fill="#30bdb5"/><path d="m189.31 72.315h7.229v-17.645h-7.229z" fill="#53089c"/><path d="m196.55 72.315h7.2296v-17.645h-7.2296z" fill="#9eaea5"/><path d="m205.85 72.315h10.907v-17.645h-10.907z" fill="#1d8814"/><path d="m217.75 72.315h.97861v-17.645h-.97861z" fill="#ac93fa"/><path d="m218.72 72.315h4.6556v-17.645h-4.6556z" fill="#fc6f3f"/><path d="m223.37 72.315h10.536v-17.645h-10.536z" fill="#853b9f"/><path d="m241.51 72.315h1.2239v-17.645h-1.2239z" fill="#0d5032"/><path d="m242.73 72.315h5.0212v-17.645h-5.0212z" fill="#3c5ab3"/><path d="m247.76 72.315h5.516v-17.645h-5.516z" fill="#43a076"/><path d="m253.27 72.315h7.8383v-17.645h-7.8383z" fill="#20df71"/><path d="m261.11 72.315h6.005v-17.645h-6.005z" fill="#c13127"/><path d="m267.1 72.315h11.76v-17.645h-11.76z" fill="#9ab3a9"/><path d="m278.86 72.315h4.0415v-17.645h-4.0415z" fill="#693ea2"/><path d="m282.92 72.315h9.9211v-17.645h-9.9211z" fill="#c84800"/><path d="m292.84 72.315h5.516v-17.645h-5.516z" fill="#10f5f0"/><path d="m298.34 72.315h4.2863v-17.645h-4.2863z" fill="#d2ddb1"/><path d="m302.64 72.315h6.005v-17.645h-6.005z" fill="#94cd0a"/><path d="m308.64 72.315h3.7972v-17.645h-3.7972z" fill="#8d35ed"/><path d="m312.44 72.315h10.907v-17.645h-10.907z" fill="#5dfd79"/><path d="m323.34 72.315h12.25v-17.645h-12.25z" fill="#7adfd7"/><path d="m335.6 72.315h5.1452v-17.645h-5.1452z" fill="#b8375f"/><path d="m340.74 72.315h.48906v-17.645h-.48906z" fill="#cf9fa6"/><path d="m341.22 72.315h5.7603v-17.645h-5.7603z" fill="#a70510"/><path d="m347.1 72.315h1.3494v-17.645h-1.3494z" fill="#e0a099"/><path d="m348.45 72.315h6.4941v-17.645h-6.4941z" fill="#c92d5a"/><path d="m354.96 72.315h5.7592v-17.645h-5.7592z" fill="#7051f1"/><path d="m360.7 72.315h3.6775v-17.645h-3.6775z" fill="#8b176c"/><path d="m364.38 72.315h.85987v-17.645h-.85987z" fill="#7df6a5"/><path d="m365.24 72.315h11.271v-17.645h-11.271z" fill="#4c3af0"/><path d="m376.52 72.315h3.1879v-17.645h-3.1879z" fill="#084463"/><path d="m49.654 45.849h12.13v-17.645h-12.13z" fill="#99f4dd"/><path d="m61.779 45.849h9.1878v-17.645h-9.1878z" fill="#9eaea5"/><path d="m70.973 45.849h8.9424v-17.645h-8.9424z" fill="#f68ae4"/><path d="m79.915 45.849h9.9211v-17.645h-9.9211z" fill="#5f5c3b"/><path d="m89.836 45.849h11.396v-17.645h-11.396z" fill="#082c57"/><path d="m101.23 45.849h11.027v-17.645h-11.027z" fill="#c13127"/><path d="m112.26 45.849h12.005v-17.645h-12.005z" fill="#f710ca"/><path d="m124.27 45.849h8.2081v-17.645h-8.2081z" fill="#6733ad"/><path d="m132.47 45.849h8.8227v-17.645h-8.8227z" fill="#cf9fa6"/><path d="m141.29 45.849h8.0821v-17.645h-8.0821z" fill="#56180c"/><path d="m149.37 45.849h9.432v-17.645h-9.432z" fill="#130f85"/><path d="m158.81 45.849h2.2026v-17.645h-2.2026z" fill="#3661e6"/><path d="m161.01 45.849h1.713v-17.645h-1.713z" fill="#53089c"/><path d="m162.73 45.849h4.2868v-17.645h-4.2868z" fill="#dfe7b0"/><path d="m167.01 45.849h4.0411v-17.645h-4.0411z" fill="#30bdb5"/><path d="m171.07 45.849h11.396v-17.645h-11.396z" fill="#1c25ba"/><path d="m182.45 45.849h5.8801v-17.645h-5.8801z" fill="#a3814c"/><path d="m188.33 45.849h11.271v-17.645h-11.271z" fill="#4d348a"/><path d="m199.6 45.849h8.3331v-17.645h-8.3331z" fill="#f1f540"/><path d="m207.93 45.849h6.005v-17.645h-6.005z" fill="#7df6a5"/><path d="m213.93 45.849h3.9212v-17.645h-3.9212z" fill="#c84800"/><path d="m217.85 45.849h3.0625v-17.645h-3.0625z" fill="#1d8814"/><path d="m220.92 45.849h9.5571v-17.645h-9.5571z" fill="#d2ddb1"/><path d="m230.48 45.849h3.552v-17.645h-3.552z" fill="#6c2d6d"/><path d="m234.03 45.849h6.2504v-17.645h-6.2504z" fill="#fc6f3f"/><path d="m240.28 45.849h8.5784v-17.645h-8.5784z" fill="#ac93fa"/><path d="m248.85 45.849h10.781v-17.645h-10.781z" fill="#0d5032"/><path d="m259.64 45.849h3.4322v-17.645h-3.4322z" fill="#693ea2"/><path d="m263.07 45.849h6.005v-17.645h-6.005z" fill="#a7578e"/><path d="m269.08 45.849h4.2863v-17.645h-4.2863z" fill="#3c5ab3"/><path d="m273.36 45.849h5.1452v-17.645h-5.1452z" fill="#5dfd79"/><path d="m278.5 45.849h6.9842v-17.645h-6.9842z" fill="#43a076"/><path d="m285.49 45.849h4.2863v-17.645h-4.2863z" fill="#853b9f"/><path d="m289.77 45.849h9.6768v-17.645h-9.6768z" fill="#9ab3a9"/><path d="m299.45 45.849h4.7748v-17.645h-4.7748z" fill="#10f5f0"/><path d="m304.24 45.849h1.4693v-17.645h-1.4693z" fill="#20df71"/><path d="m305.7 45.849h8.8227v-17.645h-8.8227z" fill="#e0a099"/><path d="m314.52 45.849h7.593v-17.645h-7.593z" fill="#8d35ed"/><path d="m322.12 45.849h8.6967v-17.645h-8.6967z" fill="#67f019"/><path d="m330.81 45.849h7.2296v-17.645h-7.2296z" fill="#94cd0a"/><path d="m338.05 45.849h3.9212v-17.645h-3.9212z" fill="#7adfd7"/><path d="m341.96 45.849h5.0212v-17.645h-5.0212z" fill="#7051f1"/><path d="m346.98 45.849h8.5784v-17.645h-8.5784z" fill="#d3b6c7"/><path d="m355.56 45.849h1.3494v-17.645h-1.3494z" fill="#4c3af0"/><path d="m356.9 45.849h1.5932v-17.645h-1.5932z" fill="#c92d5a"/><path d="m358.5 45.849h3.7972v-17.645h-3.7972z" fill="#79a307"/><path d="m362.3 45.849h8.6971v-17.645h-8.6971z" fill="#b8375f"/><path d="m371 45.849h11.396v-17.645h-11.396z" fill="#8b176c"/></g><g font-family="Ubuntu" font-weight="bold" stroke-width=".74998"><text font-size="16" text-anchor="end" x="445.40466" y="184.42058"><tspan x="445.40466" y="184.42058">swv15:</tspan><tspan x="445.40466" y="204.42007">2993s</tspan></text><g font-size="12"><text x=".731402" y="14.79633"><tspan font-family="Ubuntu" font-size="12" font-weight="normal" stroke-width=".74998" x=".731402" y="14.79633">9</tspan></text><text x=".659404" y="41.187008"><tspan font-family="Ubuntu" font-size="12" font-weight="normal" stroke-width=".74998" x=".659404" y="41.187008">8</tspan></text><text x=".689403" y="67.654343"><tspan font-family="Ubuntu" font-size="12" font-weight="normal" stroke-width=".74998" x=".689403" y="67.654343">7</tspan></text><text x=".575406" y="94.051025"><tspan font-family="Ubuntu" font-size="12" font-weight="normal" stroke-width=".74998" x=".575406" y="94.051025">6</tspan></text><text x=".725403" y="120.50037"><tspan font-family="Ubuntu" font-size="12" font-weight="normal" stroke-width=".74998" x=".725403" y="120.50037">5</tspan></text><text x=".665404" y="147.05902"><tspan font-family="Ubuntu" font-size="12" font-weight="normal" stroke-width=".74998" x=".665404" y="147.05902">4</tspan></text><text x=".767402" y="173.52637"><tspan font-family="Ubuntu" font-size="12" font-weight="normal" stroke-width=".74998" x=".767402" y="173.52637">3</tspan></text><text x=".755402" y="200.0849"><tspan font-family="Ubuntu" font-size="12" font-weight="normal" stroke-width=".74998" x=".755402" y="200.0849">2</tspan></text><text x="1.277389" y="226.46358"><tspan font-family="Ubuntu" font-size="12" font-weight="normal" stroke-width=".74998" x="1.277389" y="226.46358">1</tspan></text><text x=".665404" y="252.93118"><tspan font-family="Ubuntu" font-size="12" font-weight="normal" stroke-width=".74998" x=".665404" y="252.93118">0</tspan></text><text x="15.260227" y="277.59213"><tspan font-family="Ubuntu" font-size="12" font-weight="normal" stroke-width=".74998" x="15.260227" y="277.59213">0</tspan></text><text x="70.181015" y="277.59213"><tspan font-family="Ubuntu" font-size="12" font-weight="normal" stroke-width=".74998" x="70.181015" y="277.59213">500</tspan></text><text x="127.84011" y="277.59213"><tspan font-family="Ubuntu" font-size="12" font-weight="normal" stroke-width=".74998" x="127.84011" y="277.59213">1000</tspan></text><text x="189.09457" y="277.59213"><tspan font-family="Ubuntu" font-size="12" font-weight="normal" stroke-width=".74998" x="189.09457" y="277.59213">1500</tspan></text><text x="250.58104" y="277.59213"><tspan font-family="Ubuntu" font-size="12" font-weight="normal" stroke-width=".74998" x="250.58104" y="277.59213">2000</tspan></text><text x="311.83417" y="277.59213"><tspan font-family="Ubuntu" font-size="12" font-weight="normal" stroke-width=".74998" x="311.83417" y="277.59213">2500</tspan></text><text x="373.10663" y="277.59213"><tspan font-family="Ubuntu" font-size="12" font-weight="normal" stroke-width=".74998" x="373.10663" y="277.59213">3000</tspan></text><text x="434.35977" y="277.59213"><tspan font-family="Ubuntu" font-size="12" font-weight="normal" stroke-width=".74998" x="434.35977" y="277.59213">3500</tspan></text><text x="391.194" y="253.3569"><tspan font-family="Ubuntu" font-size="12" font-weight="normal" stroke-width=".74998" x="391.194" y="253.3569">work time</tspan></text><text transform="rotate(-90)" x="-51.040745" y="31.392303"><tspan font-family="Ubuntu" font-size="12" font-weight="normal" stroke-width=".74998" x="-51.040745" y="31.392303">machine</tspan></text></g></g><g stroke-width="1.3333"><path d="m62.149 19.386h5.3905v-17.646h-5.3905z" fill="#5f5c3b"/><path d="m77.462 19.386h1.1036v-17.646h-1.1036z" fill="#c13127"/><path d="m84.082 19.386h3.552v-17.646h-3.552z" fill="#082c57"/><path d="m87.634 19.386h10.412v-17.646h-10.412z" fill="#dfe7b0"/><path d="m103.31 19.386h4.9015v-17.646h-4.9015z" fill="#a3814c"/><path d="m117.16 19.386h11.27v-17.646h-11.27z" fill="#56180c"/><path d="m128.43 19.386h4.6562v-17.646h-4.6562z" fill="#9eaea5"/><path d="m137.62 19.386h6.74v-17.646h-6.74z" fill="#f1f540"/><path d="m144.35 19.386h7.4733v-17.646h-7.4733z" fill="#cf9fa6"/><path d="m151.83 19.386h6.8597v-17.646h-6.8597z" fill="#30bdb5"/><path d="m158.68 19.386h2.2026v-17.646h-2.2026z" fill="#6733ad"/><path d="m160.9 19.386h11.026v-17.646h-11.026z" fill="#130f85"/><path d="m171.92 19.386h5.1452v-17.646h-5.1452z" fill="#f68ae4"/><path d="m177.07 19.386h5.516v-17.646h-5.516z" fill="#a7578e"/><path d="m182.58 19.386h3.4322v-17.646h-3.4322z" fill="#53089c"/><path d="m186 19.386h12.13v-17.646h-12.13z" fill="#6c2d6d"/><path d="m198.14 19.386h10.412v-17.646h-10.412z" fill="#c84800"/><path d="m208.55 19.386h7.9638v-17.646h-7.9638z" fill="#fc6f3f"/><path d="m216.51 19.386h1.2239v-17.646h-1.2239z" fill="#4d348a"/><path d="m217.74 19.386h6.1253v-17.646h-6.1253z" fill="#1c25ba"/><path d="m225.46 19.386h11.15v-17.646h-11.15z" fill="#3c5ab3"/><path d="m236.6 19.386h11.15v-17.646h-11.15z" fill="#853b9f"/><path d="m247.75 19.386h6.9837v-17.646h-6.9837z" fill="#5dfd79"/><path d="m254.73 19.386h.97861v-17.646h-.97861z" fill="#43a076"/><path d="m255.72 19.386h6.4946v-17.646h-6.4946z" fill="#3661e6"/><path d="m262.2 19.386h3.7972v-17.646h-3.7972z" fill="#20df71"/><path d="m266 19.386h2.4478v-17.646h-2.4478z" fill="#d2ddb1"/><path d="m268.45 19.386h6.2504v-17.646h-6.2504z" fill="#693ea2"/><path d="m274.71 19.386h11.885v-17.646h-11.885z" fill="#1d8814"/><path d="m286.83 19.386h1.7136v-17.646h-1.7136z" fill="#8d35ed"/><path d="m288.55 19.386h4.2863v-17.646h-4.2863z" fill="#ac93fa"/><path d="m292.84 19.386h2.5734v-17.646h-2.5734z" fill="#0d5032"/><path d="m296.76 19.386h1.2239v-17.646h-1.2239z" fill="#94cd0a"/><path d="m297.99 19.386h5.0212v-17.646h-5.0212z" fill="#7adfd7"/><path d="m303 19.386h8.3331v-17.646h-8.3331z" fill="#9ab3a9"/><path d="m311.33 19.386h2.0828v-17.646h-2.0828z" fill="#8b176c"/><path d="m313.41 19.386h1.8385v-17.646h-1.8385z" fill="#7df6a5"/><path d="m315.25 19.386h10.907v-17.646h-10.907z" fill="#10f5f0"/><path d="m326.16 19.386h9.3118v-17.646h-9.3118z" fill="#e0a099"/><path d="m339.15 19.386h2.5734v-17.646h-2.5734z" fill="#d3b6c7"/><path d="m341.72 19.386h1.2239v-17.646h-1.2239z" fill="#b8375f"/><path d="m342.95 19.386h3.1879v-17.646h-3.1879z" fill="#f710ca"/><path d="m346.13 19.386h9.0675v-17.646h-9.0675z" fill="#4c3af0"/><path d="m355.2 19.386h3.0625v-17.646h-3.0625z" fill="#99f4dd"/><path d="m358.51 19.386h8.5784v-17.646h-8.5784z" fill="#c92d5a"/><path d="m367.08 19.386h8.4529v-17.646h-8.4529z" fill="#79a307"/><path d="m375.53 19.386h5.7597v-17.646h-5.7597z" fill="#a70510"/><path d="m383.5 125.26h2.3281v-17.645h-2.3281z" fill="#cf9fa6"/><path d="m379.69 72.315h2.4478v-17.645h-2.4478z" fill="#d3b6c7"/><path d="m382.4 72.315h2.6937v-17.645h-2.6937z" fill="#67f019"/><path d="m385.09 72.315h.61457v-17.645h-.61457z" fill="#79a307"/><path d="m382.4 45.849h.73488v-17.645h-.73488z" fill="#084463"/><path d="m383.13 45.849h2.6931v-17.645h-2.6931z" fill="#a70510"/><path d="m381.29 19.386h1.1036v-17.646h-1.1036z" fill="#67f019"/><path d="m382.4 19.386h2.6937v-17.646h-2.6937z" fill="#7051f1"/><path d="m385.08 19.386h.73488v-17.646h-.73488z" fill="#084463"/></g></svg>