<svg height="202.3pt" viewBox="0 0 327.13 202.3" width="327.13pt" xmlns="http://www.w3.org/2000/svg"><g fill="none" stroke-linecap="round" stroke-miterlimit="10" stroke-width=".98631"><g stroke="#bebebe" stroke-linejoin="round"><path d="m77.15 12.294h248.24"/><path d="m15.762 56.08h309.63"/><path d="m15.762 99.865h309.63"/><path d="m15.762 143.65h309.63"/><path d="m243.09 187.44v-184.84"/><path d="m152.98 187.44v-184.84"/><path d="m62.867 187.44v-159.27"/></g><g stroke="#000"><path d="m35.748 187.44h270.33"/><path d="m35.748 187.44v3.6972"/><path d="m62.867 187.44v3.6972"/><path d="m90 187.44v3.6972"/><path d="m125.85 187.44v3.6972"/><path d="m152.98 187.44v3.6972"/><path d="m180.1 187.44v3.6972"/><path d="m215.96 187.44v3.6972"/><path d="m243.09 187.44v3.6972"/><path d="m270.21 187.44v3.6972"/><path d="m306.07 187.44v3.6972"/></g></g><text font-family="Helvetica" font-size="9.2055" stroke-width="1.3333" x="33.11335" y="201.1295"><tspan stroke-width="1.3333" x="33.11335" y="201.1295">5</tspan></text><g fill="none" stroke="#000" stroke-linecap="round" stroke-miterlimit="10" stroke-width=".98631"><path d="m15.762 187.44h309.63v-184.84h-309.63z"/><g stroke-linejoin="round"><path d="m15.762 187.44v-175.14"/><path d="m15.762 187.44h-3.6986"/><path d="m15.762 143.65h-3.6986"/><path d="m15.762 99.865h-3.6986"/><path d="m15.762 56.08h-3.6986"/><path d="m15.762 12.294h-3.6986"/></g></g><g font-family="Helvetica" stroke-width="1.3333" transform="rotate(-90)"><text font-size="9.2055" x="-194.66574" y="10.4619"><tspan stroke-width="1.3333" x="-194.66574 -189.40959" y="10.4619">10</tspan></text><text font-size="6.443" x="-184.14508" y="5.530263"><tspan stroke-width="1.3333" x="-184.14508" y="5.530263">0</tspan></text><text font-size="9.2055" x="-150.88287" y="10.4619"><tspan stroke-width="1.3333" x="-150.88287 -145.62674" y="10.4619">10</tspan></text><text font-size="6.443" x="-140.3623" y="5.530263"><tspan stroke-width="1.3333" x="-140.3623" y="5.530263">2</tspan></text><text font-size="9.2055" x="-107.10004" y="10.4619"><tspan stroke-width="1.3333" x="-107.10004 -101.84399" y="10.4619">10</tspan></text><text font-size="6.443" x="-96.57946" y="5.530263"><tspan stroke-width="1.3333" x="-96.57946" y="5.530263">4</tspan></text><text font-size="9.2055" x="-63.312069" y="10.4619"><tspan stroke-width="1.3333" x="-63.312069 -58.055931" y="10.4619">10</tspan></text><text font-size="6.443" x="-52.791496" y="5.530263"><tspan stroke-width="1.3333" x="-52.791496" y="5.530263">6</tspan></text><text font-size="9.2055" x="-19.529228" y="10.4619"><tspan stroke-width="1.3333" x="-19.529228 -14.273171" y="10.4619">10</tspan></text><text font-size="6.443" x="-9.00866" y="5.530263"><tspan stroke-width="1.3333" x="-9.00866" y="5.530263">8</tspan></text></g><g fill="none" stroke-linecap="round" stroke-linejoin="round" stroke-miterlimit="10"><path d="m15.755103 170.91694 11.255719-3.92523 8.733115-2.91726 7.134488-2.6826 6.030516-2.13062 5.230536-2.00928 4.607885-1.41863 4.119897-1.41197 3.734573-1.2373 3.399915-1.22797 3.133255-1.11597 2.902594-.91864 2.697266-.89865 2.527937-.71865 2.373274-.88397 2.234611-.66265 2.115947-.77065 2.00795-.88398 1.911952-.33332 1.818621-.70399 1.74129-.45332 1.663958-.70265 1.597294-.44799 1.537294-.47732 1.4733-.63598 1.42263-.37599 1.37196-.65732 1.33064-.24533 1.27996-.47865 1.24264-.26266 1.20797-.43599 1.16664-.29733 1.13463-.33999 1.10398-.45199 1.06797-.42665 1.04264-.24 1.01864-.25732.99064-.34933.96531-.35466.94531-.17066.91998-.35866.89864-.37999.88265-.20666.85998-.30666.84131-.30266.82131-.20132.80798-.2.79065-.25599.77465-.38266.76131-.13733.74398-.20533.72932-.21066.71998-.29333.70265-.18532.69465-.20533.68265-.13733.66798-.34933.65732-.19066.64798-.088.63599-.25599.62665-.22666.61731-.18.60666-.30132.59598-.012.58932-.35466.58132-.0507.56932-.16532.56132-.13733.55465-.196.54932-.22533.53999-.15466.53332-.17866.52532-.11333.51732-.17467.50932-.11333.50798-.24266.49866-.0973.49199-.0453.48398-.31333.48266-.088.47199-.11867.46932-.12666.46132-.19066.46265-.13867.45066-.12399.44666-.13733.44265-.156.43599-.0973.43199-.128.42799-.15999.42532-.17333.41599-.13466.41599-.04.41066-.164.40132-.15066.40532-.0147.39599-.20666.39599-.0707.38533-.10267.38532-.11733.38399-.0627.37599-.15867.37466-.19599.37066-.0307.36932-.13733.36399-.104.36133-.19999.35865-.036.35333-.0773.35066-.108.34932-.14266.34266-.0373.33999-.14267.33866-.10799.33999-.0733.32799-.20932.33466-.005.32399-.0253.32799-.14.31866-.18399.32266-.0307.31333-.10799.31466-.0867.31199-.10266.30799-.084.30933-.20933.30266-.0733.30399.016.30266-.19066.29866.0267h.29199l.29199-.24799.29333-.0973.28799-.04.28799-.0973.28266-.056h.28133l.28399-.23199.27733-.0107.27732-.13733.272-.0373.27199-.128.27199-.0507.26666-.052.268-.20133.26666.0973.26132-.132.264-.0573.26132-.108.256-.13866.25599-.004.25866-.11333.252-.0987.25199.005.25066-.0293.24666-.22667.24666.0453.24666-.14267.24133-.0827.24533-.0253.24266-.0267.23732-.11733.23466-.0307.236-.16399.23733-.016.23732-.0413.22933-.13867.232-.0933.23066-.0187.22666-.0627.22666-.0987.22533-.0813.22532-.0773h.22133l.22-.0813.22132-.0573.22133-.0773.21466-.10266.216.0267.21599-.11866.21733-.15867.21466.04.21066-.14799.21066.036.21067-.16933.21066-.0467.20532-.0773.20667.0307.20399-.0507.20533.005.20133-.072.20533-.068.19999-.0867.2-.13999.20132.032.19467-.112.20132-.032.19467-.0667.19466-.072.19599.0253.18933-.168.196-.0107.18933-.0773.19066-.10267.18933.0107.18932-.13467.18667-.005.18932-.0253.18533-.0307.184-.15999.18533-.076.17999.076.184-.108.17999-.10266.18133.0947.18-.1.17866-.18266.18.024.17999-.024.17466.024.17333-.11866.176-.0707.17466-.11866.17466.016.17467-.0253.16799-.036.16933-.0933.176.0267.16932-.0773h.16933l.164-.072.17066-.0773.164-.0973.16933-.052.16533-.02.16399.02.164-.14933.16399.0107.16-.0613.164-.0467.15999-.076h.164l.15866-.0773.15866-.0267.16-.056.15866-.0413.15466.0213.16-.18533.15333.0453.15466-.184h.15867l.15466.0507.15333-.148.14933.0507.15466-.10667.15333-.048.148-.04.15599-.068.148-.004.14933-.0307.14799-.17599.15067.15466.14799-.13866.144-.0613.14933-.0507.14266.0147.14933-.0307.144-.076.144-.0467.14399.0147.144-.0813.14399-.0107.144-.11866.144-.0307.13733.092.14533-.112.13733-.0933.13999-.0307.13733-.0573.14.052.13733-.12799h.14l.13733-.0107.13999-.056.13333-.0613.13867-.036.13333-.032.13333-.10266.13866.072.13466-.072.132-.076.13466-.0107.132-.12399.12933.0413.13466.052.132-.0573.12933-.108.13333-.0253.128-.072.12933.016.13333-.0347.12799-.0893.12933-.072.128.016.12266-.036.12933-.10266.128.0307.128.005.12399-.18933.128.112.12266-.13333.248.0307.12666-.036.124-.016.124-.13199.12399.056.11733-.10267.12267-.032.12399-.024.11867-.0613.12266.0187.11733-.0973.124-.0867.11733.0253.12-.0627.12266.007.11733-.0627.11866.005.11733-.0613.11867-.0147.93064-.24666.22533-.036 2.32661-.70399 3.68924-.92397.96531-.35999 2.49727-.27333 3.67191-1.69462 1.59862.24666.92931-1.19197 6.20518-1.51597 1.59729-.43065 3.47325-.61599.95998-1.16263 1.59329.45865 3.63724-1.54663.91331-.0467 3.69458-.90798 4.12523-1.495962.92397-.28266 11.24906-3.097256 14.95029-4.197228.92931-.297326 11.25972-2.610602 3.67857-1.247968 4.1199-1.3453 7.13582-2.039948.92931.04133 7.80247-2.382608 3.45192-.838646 3.68391-1.06264 6.03051-1.730623 5.2292-.971976.92531-.257327" stroke="#0000f0" stroke-width="4"/><path d="m15.755103 167.81435 11.255719-6.82249 8.733115-4.99854 7.134488-3.66791 6.030516-3.57458 5.230536-2.86126 4.607885-2.17461 4.119897-2.39861 3.734573-1.88929 3.399915-1.77195 3.133255-1.76263 2.902594-1.36129 2.697266-1.43864 2.527937-1.37196 2.373274-1.37197 2.234611-.96931 2.115947-1.2333 2.00795-1.08397 1.911952-.93998 1.818621-1.07864 1.74129-.64265 1.663958-1.0693 1.597294-.83065 1.537294-.71465 1.4733-.99597 1.42263-.70932 1.37196-.74532 1.33064-.81197 1.27996-.44666 1.24264-.88398 1.20797-.63065 1.16664-.46665 1.13463-.68932 1.10398-.62665 1.06797-.64265 1.04264-.60665 1.01864-.328.99064-.66398.96531-.53332.94531-.35332.91998-.53599.89864-.36932.88265-.66799.85998-.44132.84131-.54532.82131-.49865.80798-.29733.79065-.32266.77465-.33466.76131-.59065.74398-.31332.72932-.13333.71998-.69332.70265-.32399.69465-.41599.68265-.37999.66798-.39066.65732-.31732.64798-.29333.63599-.176.62665-.56398.61731-.0507.60666-.64931.59598-.15333.58932-.15467.58132-.56398.56932-.29333.56132-.25199.55465-.28666.54932-.35466.53999-.19466.53332-.41199.52532-.250661.51732-.37999.50932-.16133.50798-.281326.49866-.235994.49199-.406656.48398-.08666.48266-.307992.47199-.287993.46932-.147996.46132-.366658.46265-.076.45066-.457322.44666-.08266.44265-.173329.43599-.263994.43199-.363991.42799-.293326.42532-.230661.41599-.07733.41599-.241327.41066-.450656.40132.076.40532-.297326.39599-.134662.39599-.379991.38533-.092.76931-.430656.37599-.345325.37466-.04.37066-.190662.36932-.199995.36399-.298659.36133-.04667.35865-.311992.35333.0053.35066-.201329.34932-.257326.34266-.390657.33999.04666.33866-.257327.33999-.275993.32799.04.33466-.261327.32399-.210661.32799-.14933.31866-.153329.32266-.072.31333-.323992.31466-.169329.31199-.277327.30799-.12933.30933-.03467.30266-.191995.30399-.08133.30266-.185329.29866-.163996.29199-.282659.29199-.117331.29333.04133.28799-.323992.28799-.072.28266-.05733.28133-.343992.28399.048.27733-.366658.27732-.123996.272-.01867.27199-.251993.27199-.174663.26666-.235994.268.056.26666-.226661.26132-.235994.264.01067.26132-.016.256-.158663.25599-.323992.25866-.076.252-.190661.25199-.123997.25066-.118664.24666-.214661.24666-.04667.24666-.056.24133-.210661.24533-.215995.24266-.03067.23732-.01067.23466-.354658.236.09333.23733-.179996.23732-.322659.22933.06667.232-.269327.23066.139997.22666-.226661.22666.02133.22533-.235994.22532-.118663.22133-.251994.22-.08267.22132-.092.22133-.107998.21466-.190662.216-.0093.21599-.127996.21733-.179996.21466-.143996.21066-.088.21066.056.21067-.142663.21066-.08266.20532-.183996.20667-.190662.20399-.076.20533-.05733.20133-.201328.20533-.04533.19999-.178662.2-.068.20132-.05066.19467-.068.20132-.163996.19467-.0053.19466-.250661.19599.107998.18933-.195996.196-.09733.18933-.221328.19066-.03467.18933-.04667.18932-.134663.18667-.11733.18932-.07733.18533-.185328.184.04133.18533-.163996.17999.01467.184-.261326.17999-.107998.18133-.072.18-.158663.17866.076.18-.239994.17999-.123996.17466-.03067.17333-.016.176-.134663.17466-.182662.17466-.170663.17467-.088.16799.118664.16933-.231994.176.084.16932-.113331.16933-.215994.164.01067.17066-.205328.164-.159996.16933.08267.16533-.143997.16399-.08266.164-.01067.16399-.261327.16.04.164-.205328.15999-.004.164-.052.15866-.092.15866.0053.16-.118664.15866-.201328.15466-.08666.16-.127997.15333.163996.15466-.225328.15867-.122664.15466-.03733.15333-.13333.14933-.01467.15466-.04133.15333-.226661.148.08266.15599-.225328.148-.02133.14933-.03066.14799.08666.15067-.354658.14799.088.144-.221328.14933.04133.14266-.255994.14933-.04133.144-.016.144-.163996.14399-.03067.144-.06667.14399-.04533.144-.11333.144.167995.13733-.26266.14533-.163996.13733-.04533.13999.036.13733-.159996.14-.127997.13733-.03067.14-.08133.13733.03467.13999-.230661.13333-.0053.13867.016.13333-.113331.13333.072.13866-.251993.13466-.04133.132-.127997.13466.02533.132-.08666.12933-.09333.13466-.13333.132.03067.12933-.158663.13333-.0053.128-.08667.12933-.107997.13333-.134663.12799.06267.12933-.16533.128-.092.12266.08133.12933-.12133.128-.05733.128-.123997.12399.07333.128-.263993.12266.113331.124-.255994.124.123997.12666-.088.124-.13333.124-.072.12399-.118664.11733.088.12267-.139997h.12399l.11867-.174662.12266-.03467.11733-.01067.124-.113331.11733-.123996.12-.102665.12266.0053.11733-.08133.11866-.145329.11733.02667.11867-.06133.93064-.883978.22533.781314 2.32661-1.957285 3.68924-1.602626.96531-.457322 2.49727-1.941285 3.67191-1.141305 1.59862-.79598.92931-.950643 6.20518-3.543911 1.59729-.215995 3.47325-2.877261.95998.190662 1.59329-1.654626 3.63724-.970642.91331-.995975 3.69458-1.053307 4.12523-2.203945.92397.01467 11.24906-6.857162 14.95029-7.377148.92931-.754648 11.25972-6.006517 3.67857-2.130613 4.1199-1.706624 7.13582-3.945235.92931.012 7.80247-4.14123 3.45192-1.915952 3.68391-1.9826165 6.03051-3.050591 5.2292-3.04259.92531-.585319" stroke="#e82000" stroke-width="4"/><g stroke="#000" stroke-width=".98631"><path d="m15.755103 176.09548 11.255719-4.94788 8.733115-3.53991 7.134488-2.75193 6.030516-2.25061 5.230536-1.90129 4.607885-1.64395 4.119897-1.44797 3.734573-1.29063 3.399915-1.16397 3.133255-1.06531 2.902594-.97464 2.697266-.90531 2.527937-.83598 2.373274-.78132 2.234611-.73598 2.115947-.68665 2.00795-.65331 1.911952-.61599 1.818621-.58532 1.74129-.55998 1.663958-.53332 1.597294-.51066 1.537294-.48665 1.4733-.46799 1.42263-.45199 1.37196-.43066 1.33064-.41732 1.27996-.40532 1.24264-.39066 1.20797-.37599 1.16664-.36399 1.13463-.35332 1.10398-.34 1.06797-.33332 1.04264-.32399 1.01864-.31333.99064-.30932.96531-.296.94531-.29332.91998-.28266.89864-.27733.88265-.26799.85998-.26666.84131-.256.82131-.25199.80798-.24666.79065-.24133.77465-.23732.76131-.23067.74398-.22532.72932-.22133.71998-.22133.70265-.20933.69465-.21199.68265-.20533.66798-.20533.65732-.19999.64798-.196.63599-.18933.62665-.19066.61731-.18399.60666-.18.59598-.18533.58932-.17599.58132-.17333.56932-.16933.56132-.16933.55465-.16933.54932-.16533.53999-.15866.53332-.15866.52532-.16.51732-.15466.50932-.15467.50798-.14799.49866-.148.49199-.15066.96664-.28666.47199-.13866.46932-.13867.92397-.27732.45066-.13467.44666-.13199.44265-.12933.43599-.13467.43199-.12666.42799-.124.42532-.12799.83198-.24666.41066-.124.40132-.11867.40532-.11866.79198-.23466 1.15464-.33866.37599-.11333.37466-.108.37066-.11333.36932-.10799.36399-.108.36133-.10133.35865-.108.35333-.10266.69998-.20666.34266-.10267.33999-.10266.67865-.19466.32799-.0987.33466-.0973.32399-.0973.32799-.092.31866-.0987.32266-.092.93998-.27733.30799-.092.30933-.088.30266-.088.30399-.0907.30266-.0893.29866-.0867.29199-.0867.29199-.0827.29333-.0867.28799-.0827.28799-.0867.84798-.248.27733-.0813.27732-.0773.54399-.164.27199-.0773.80132-.23066.78664-.23199.256-.0773.25599-.0707.25866-.0773.75465-.21599.73998-.216.24133-.072.24533-.0707.24266-.068.23732-.072.23466-.0667.236-.072.47465-.13333.22933-.0667.23199-.072.23067-.0613.90397-.26666.22133-.0627.22-.0667.44265-.12399.21466-.0653.86398-.24799.84265-.24666.20532-.0547.41066-.124.20533-.056.20133-.0627.20533-.056.19999-.0573.2-.0613.20132-.056.19467-.0573.20132-.056.58532-.16933.18933-.0573.196-.056.18933-.052.37999-.11334.18932-.0507.18667-.056.18932-.052.18533-.056.36933-.10266.17999-.0573.184-.0507 1.07997-.30799.69865-.20533.17466-.0467.17467-.052.16799-.0507.16933-.0467.176-.0507.16932-.0467.16933-.0507.164-.0467.17066-.0507.164-.048.16933-.0453.16533-.052.49198-.13733.16-.0467.164-.0467.15999-.0467.164-.0453.63598-.18533.15466-.0467.16-.0413.30799-.092.15867-.04.30799-.0933.14933-.0413.15466-.0453.15333-.0413.148-.0467.15599-.0413.148-.0413.14933-.0453.29866-.0827.14799-.0453.144-.0413.14933-.0413.14266-.0413.14933-.0413 1.00798-.28799.13733-.04.14533-.0413.27732-.0827.13733-.036.41733-.12399.13733-.0347.13999-.0413.13333-.036.13867-.0413.13333-.0413.13333-.036.13866-.0413.13466-.0347.132-.0413.26666-.072.12933-.0413.26666-.072.12933-.0413.13333-.036.25733-.072.13333-.0413.38532-.10799.12266-.036.38533-.108.12399-.0347.128-.0373.37066-.10799.12666-.0347.248-.0733.12399-.0293.11733-.036.24666-.072.11867-.032.12266-.0347.11733-.036.124-.036.11733-.0307.12-.036.12266-.0307.23599-.0733.11733-.0293.11867-.036.93064-.26266.22533-.0667 2.32661-.66265 3.68924-1.04264.96531-.27733 2.49727-.70398 3.67191-1.03731 1.59862-.45199.92931-.26266 6.20518-1.74529 1.59729-.44799 3.47325-.97597.95998-.268 1.59329-.44532 3.63724-1.01864.91331-.25599 3.69458-1.02664 4.12523-1.15064.92397-.25866 11.24906-3.11726 14.95029-4.125229.92931-.251993 11.25972-3.087923 3.67857-1.005308 4.1199-1.126639 7.13582-1.945285.92931-.251993 7.80247-2.121281 3.45192-.935976 3.68391-1.002641 6.03051-1.633293 5.2292-1.406632.92531-.25066" stroke-dasharray=".986305 2.95891"/><path d="m15.755103 166.54505 11.255719-5.47053 8.733115-4.24389 7.134488-3.46792 6.030516-2.93192 5.230536-2.53861 4.607885-2.23994 4.119897-2.00262 3.734573-1.81328 3.399915-1.65463 3.133255-1.51996 2.902594-1.41463 2.697266-1.3093 2.527937-1.22664 2.373274-1.15064 2.234611-1.0893 2.115947-1.02798 2.00795-.97597 1.911952-.92398 1.818621-.88931 1.74129-.84131 1.663958-.81198 1.597294-.77598 1.537294-.74532 1.4733-.71998 1.42263-.68798 1.37196-.66665 1.33064-.64799 1.27996-.62132 1.24264-.60665 1.20797-.58532 1.16664-.56531 1.13463-.54932 1.10398-.53999 1.06797-.51732 1.04264-.50932 1.01864-.49332.99064-.48266.96531-.46799.94531-.45598.91998-.44799.89864-.43599.88265-.43199.85998-.41599.84131-.41066.82131-.40132.80798-.39066.79065-.38532.77465-.37466.76131-.36932.74398-.35999.72932-.35466.71998-.34933.70265-.34265.69465-.34.68265-.32799.66798-.32399.65732-.32399.64798-.31333.63599-.30799.62665-.30399.61731-.29733.60666-.29866.59598-.28799.58932-.28666.58132-.28266.56932-.27732.56132-.272.55465-.27332.54932-.26133.53999-.26266.53332-.26133.52532-.25732.51732-.25067 1.0173-.49332.49866-.24132.49199-.23733.96664-.47199.47199-.23199.46932-.22533.46132-.22666.46265-.22133.45066-.21999.44666-.216.44265-.21599.43599-.20933.43199-.21066.42799-.21066.42532-.20533.41599-.20133.41599-.20533.41066-.19466.40132-.20133.40532-.19466.79198-.37999.77065-.379992.38399-.185329.37599-.185329.37466-.178662.73998-.359991.36399-.175995.71998-.347992.35333-.174662.69998-.339991.34266-.163996.33999-.169329.67865-.329326.32799-.158662.33466-.158663.32399-.159996.32799-.158663.31866-.153329.32266-.159996.31333-.154663.31466-.14933.31199-.153329.61732-.298659.60665-.297326.30266-.143997.29866-.143996.58398-.287993.29333-.13733.28799-.145329.28799-.13733.28266-.138662.28133-.134664.28399-.13733.55465-.267994.81598-.39999.26666-.12933.268-.134663.26666-.126664.26132-.12933.264-.122664.26132-.127996.256-.123997.25599-.12933.25866-.121331.252-.123997.25199-.118663.25066-.123997.24666-.12133.49332-.237328.24133-.118664.24533-.11733.24266-.118664.23732-.118663.47066-.225328.23733-.11733.23732-.113331.46132-.226661.23067-.107997.22666-.113331.22666-.106664.22533-.11333.22532-.107998.88398-.430655.21466-.102665.216-.107997.43332-.206661.21466-.107998.42132-.205328.21067-.09733.21066-.102664.20532-.102664.20667-.09866.20399-.102664.20533-.09733.20133-.09733.20533-.09733.60131-.293326.19467-.09733.20132-.09733.19467-.09333.19466-.09733.19599-.092.18933-.09333.196-.092.18933-.09733.37999-.185329.18932-.08666.18667-.092.18932-.09333.18533-.08666.184-.092.18533-.088.17999-.092.184-.088 1.07997-.523987.17466-.08666.17333-.08266.176-.088.17466-.08267.17466-.08533.17467-.084.33732-.163996.176-.08666.33865-.163996.164-.08267.17066-.07733.164-.08266.16933-.08133.16533-.08266.16399-.076.164-.084.16399-.076.16-.07733.164-.08267.15999-.076.164-.07733.31732-.154663.16-.08133.15866-.072.15466-.07866.16-.076.30799-.15333.15867-.072.30799-.154663.14933-.072.15466-.072.15333-.076.148-.07333.15599-.072.148-.076.59598-.287993.144-.072.14933-.07067.14266-.07333.14933-.06667.288-.143996.14399-.06667.28799-.142663.288-.134663.13733-.072.14533-.06667.13733-.06667.13999-.072.83198-.401323.13333-.06533.13867-.068.26666-.13333.13866-.06267.26666-.131997.13466-.06266.132-.06667.12933-.06133.13466-.068.132-.06.12933-.06667.13333-.06266.128-.06133.12933-.06666.13333-.06267.38532-.183995.12266-.06133.12933-.06667.128-.06266.128-.056.12399-.06267.128-.06.37066-.185329.12666-.056.248-.123997.12399-.056.11733-.06266.12267-.06.12399-.05733.11867-.06133.12266-.056.11733-.05733.124-.06133.23733-.113331.12266-.06133.47199-.226661.93064-.451988.22533-.113331 2.32661-1.129305 3.68924-1.793289.96531-.467988 2.49727-1.21197 3.67191-1.787955 1.59862-.77598.92931-.450656 6.20518-3.015924 1.59729-.774648 3.47325-1.686624.95998-.466655 1.59329-.775981 3.63724-1.767956.91331-.445322 3.69458-1.793288 4.12523-2.00395.92397-.451989 11.24906-5.465197 14.95029-7.265151.92931-.445323 11.25972-5.477196 3.67857-1.782622 4.1199-2.002617 7.13582-3.467913.92931-.451989 7.80247-3.791905 3.45192-1.678625 3.68391-1.787955 6.03051-2.93326 5.2292-2.53727.92531-.451988" stroke-dasharray=".986305 2.95891 3.94522 2.95891"/><path d="m15.755103 165.65041 11.255719-7.68514 8.733115-5.65986 7.134488-4.48922 6.030516-3.71591 5.230536-3.16925 4.607885-2.7626 4.119897-2.45194 3.734573-2.19728 3.399915-1.99328 3.133255-1.82396 2.902594-1.67996 2.697266-1.55596 2.527937-1.44796 2.373274-1.3613 2.234611-1.27463 2.115947-1.20664 2.00795-1.13997 1.911952-1.07998 1.818621-1.02664 1.74129-.98131 1.663958-.93997 1.597294-.89465 1.537294-.86264 1.4733-.82798 1.42263-.79598 1.37196-.76398 1.33064-.74132 1.27996-.71331 1.24264-.69332 1.20797-.66798 1.16664-.65332 1.13463-.62665 1.10398-.61065 1.06797-.59065 1.04264-.58132 1.01864-.55865.99064-.55066.96531-.52798.94531-.51999.91998-.50799.89864-.49865.88265-.48132.85998-.47332.84131-.46266.82131-.45199.80798-.44265.79065-.43066.77465-.42666.76131-.415986.74398-.405323.72932-.401323.71998-.395991.70265-.385323.69465-.374657.68265-.374658.66798-.363991.65732-.354657.64798-.355992.63599-.347991.62665-.339991.61731-.333325.60666-.334659.59598-.322658.58932-.318659.58132-.313324.56932-.313327.56132-.302659.55465-.303992.54932-.297326.53999-.293326.53332-.287993.52532-.28666.51732-.277326 1.0173-.555986.49866-.26666.49199-.26666.96664-.523987.47199-.257327.46932-.251994.46132-.251993.46265-.245328.45066-.247993.44666-.241328.44265-.23466.43599-.237328.43199-.235994.42799-.225328.42532-.231994.41599-.226661.41599-.219994.41066-.221328.40132-.219995.40532-.215994.39599-.215995.39599-.210661.38533-.209328.76931-.41199.37599-.205328.37466-.201328.37066-.199995.36932-.194661.36399-.201329.36133-.189328.35865-.195995.35333-.189329.35066-.185329.34932-.189328.34266-.18533.33999-.185329.67865-.358657.32799-.181329.33466-.174662.32399-.178663.32799-.174662.31866-.169329.32266-.175996.62799-.338658.31199-.163996.61732-.329325.60665-.327992.30266-.159996.29866-.158662.29199-.159996.29199-.15333.29333-.158663.57598-.309325.28266-.14933.28133-.153329.28399-.147997.55465-.298659.272-.143996.27199-.147996.27199-.14533.53466-.287993.26666-.13733.26132-.143996.52532-.277327.51199-.277326.25866-.134663.252-.131997.25199-.139997.25066-.134663.24666-.126663.49332-.26666.24133-.12933.24533-.129331.24266-.126663.47198-.25866.236-.122664.23733-.127997.23732-.123997.69199-.369324.22666-.122663.45199-.235994.22532-.123997.66265-.354658.22133-.113331.43066-.23466.64798-.339992.63199-.338658.21066-.107997.20532-.113331.20667-.107997.20399-.113331.20533-.107997.20133-.107997.20533-.107998.19999-.106664.2-.102664.20132-.107997.19467-.107997.20132-.102664.38933-.206662.19599-.107997.18933-.102664.196-.09733.56932-.306659.18932-.09866.18667-.09733.18932-.102664.55466-.293326.17999-.09733.184-.09733.36132-.194662.18-.09333.17866-.09733.35999-.185329.17466-.09733.87332-.462656.16799-.088.16933-.092.176-.092.16932-.088.16933-.092.164-.088.17066-.08666.164-.092.16933-.088.65731-.347991.16-.08933.164-.08133.15999-.088.164-.08666.31732-.163996.16-.08666.15866-.08266.15466-.08266.16-.088.30799-.163995.15867-.08133.30799-.165329.14933-.07733.30799-.163996.148-.076.15599-.08267.148-.07733.14933-.08266.29866-.153329.14799-.08267.144-.07733.14933-.076.14266-.07866.14933-.076.57599-.309326.14399-.07067.288-.153329.13733-.07333.14533-.07733.13733-.07067.13999-.07733.27733-.143996.13733-.07733.41732-.215995.13333-.072.13867-.07066.26666-.14533.13866-.07066.26666-.145329.13466-.06666.132-.07067.12933-.07333.13466-.06667.132-.07066.12933-.06667.13333-.072.25733-.13333.13333-.072.38532-.199995.12266-.068.12933-.072.256-.13333.12399-.06667.128-.06133.37066-.201329.12666-.06533.124-.06267.24799-.13333.11733-.06267.12267-.06533.12399-.06133.11867-.06667.12266-.06266.11733-.06667.124-.06267.11733-.06.12-.06667.12266-.06267.47199-.24666.93064-.493321.22533-.117331 2.32661-1.227969 3.68924-1.947951.96531-.506654 2.49727-1.310634 3.67191-1.931952 1.59862-.837312.92931-.487988 6.20518-3.255919 1.59729-.838645 3.47325-1.813288.95998-.502654 1.59329-.833313 3.63724-1.899952.91331-.477322 3.69458-1.926618 4.12523-2.15328.92397-.481321 11.24906-5.851854 14.95029-7.757139.92931-.477322 11.25972-5.826521 3.67857-1.899952 4.1199-2.12128 7.13582-3.6839085.92931-.475988 7.80247-4.018566 3.45192-1.777289 3.58124-1.83862" stroke-dasharray="6.90413 2.95891"/></g></g><g stroke-width="1.3333"><g font-family="Helvetica" font-size="9.2055"><text transform="rotate(-90)" x="-151.40799" y="25.03087"><tspan stroke-width="1.3333" x="-151.40799" y="25.03087">time (RT) in FEs</tspan></text><text x="288.26825" y="184.55791"><tspan stroke-width="1.3333" x="288.26825" y="184.55791">scale n</tspan></text><text x="157.21234" y="177.81808"><tspan stroke-width="1.3333" x="157.21234 163.77574 169.0412 174.2973 182.18671 187.44281 192.7083 195.33168 197.95508 203.22058 208.47662 213.73271 216.36551 221.6216 226.88705 232.14314" y="177.81808">OneMax (Log-Log)</tspan></text></g><g font-size="8.2847" transform="translate(-42.24 2.9338)"><text font-family="'Nimbus Sans'" x="127.50609" y="15.620797"><tspan stroke-width="1.3333" x="127.50609" y="15.620797">∀</tspan></text><text font-family="Helvetica" x="132.76688" y="15.620797"><tspan stroke-width="1.3333" x="132.76688" y="15.620797">n</tspan></text><text font-family="'Nimbus Sans'" x="136.71054" y="15.620797"><tspan stroke-width="1.3333" x="136.71054" y="15.620797">∈</tspan></text><text font-family="Helvetica" x="144.60565" y="15.620797"><tspan stroke-width="1.3333" x="144.60565" y="15.620797">[3…333]: 3333 runs</tspan></text><text font-family="'Nimbus Sans'" x="127.50604" y="25.565861"><tspan stroke-width="1.3333" x="127.50604" y="25.565861">∃</tspan></text><g font-family="Helvetica"><text x="131.44972" y="25.565861"><tspan stroke-width="1.3333" x="131.44972" y="25.565861">333&lt;n</tspan></text><text x="153.04457" y="25.565861"><tspan stroke-width="1.3333" x="153.04457" y="25.565861">≤</tspan></text><text x="160.31508" y="25.565861"><tspan stroke-width="1.3333" x="160.31508" y="25.565861">8192: 71 runs</tspan></text></g></g></g><g fill="none" stroke-linecap="round" stroke-linejoin="round" stroke-miterlimit="10"><path d="m15.762 28.168h61.388v-25.572h-61.388z" stroke="#000" stroke-width=".98631"/><g stroke-width="4"><path d="m22.375 11.428h13.254" stroke="#0000f0"/><path d="m22.375 20.281h13.254" stroke="#e82000"/></g></g><text fill="#00f" font-family="Helvetica" font-size="7.3626" stroke-width="1.3333" x="42.267784" y="13.660882"><tspan fill="#00f" stroke-width="1.3333" x="42.267784" y="13.660882">(1+1)EA</tspan></text><text fill="#e82000" font-family="Helvetica" font-size="7.3626" stroke-width="1.3333" x="42.267784" y="22.501972"><tspan stroke-width="1.3333" x="42.267784" y="22.501972">(1+1)FEA</tspan></text><g font-family="Arial"><g font-size="8"><text x="269.12646" y="10.716958"><tspan font-size="8" x="269.12646" y="10.716958">n² ln n</tspan></text><text x="312.57159" y="32.821735"><tspan font-size="8" x="312.57159" y="32.821735">n²</tspan></text><text x="301.32938" y="93.675972"><tspan font-size="8" x="301.32938" y="93.675972">n ln n</tspan></text></g><g font-size="10.667"><text x="56.609428" y="201.17459"><tspan x="56.609428" y="201.17459">10</tspan></text><text x="84.161774" y="201.17459"><tspan x="84.161774" y="201.17459">20</tspan></text><text x="119.95389" y="201.17459"><tspan x="119.95389" y="201.17459">50</tspan></text><text x="143.76102" y="201.17459"><tspan x="143.76102" y="201.17459">100</tspan></text><text x="171.30003" y="201.17459"><tspan x="171.30003" y="201.17459">200</tspan></text><text x="207.09216" y="201.17459"><tspan x="207.09216" y="201.17459">500</tspan></text><text x="230.89929" y="201.17459"><tspan x="230.89929" y="201.17459">1000</tspan></text><text x="294.24371" y="201.17459"><tspan x="294.24371" y="201.17459">5000</tspan></text><text x="258.43829" y="201.17459"><tspan x="258.43829" y="201.17459">2000</tspan></text></g></g></svg>