<svg height="157.98pt" viewBox="0 0 328.97 157.98" width="328.97pt" xmlns="http://www.w3.org/2000/svg"><g fill="none" stroke="#bebebe" stroke-linecap="round" stroke-linejoin="round" stroke-miterlimit="10"><g stroke-width=".99998"><path d="m15.96 111.88h310.01"/><path d="m15.96 79.566h310.01"/><path d="m15.96 47.244h310.01"/><path d="m95.208 144.2v-142.7"/><path d="m15.96 14.922h240.19"/></g><path d="m246.78 144.2v-142.7" stroke-width=".99997"/></g><text font-family="Helvetica" font-size="9.2055" stroke-width="1.3333" x="293.47537" y="140.88524"><tspan stroke-width="1.3333" x="293.47537" y="140.88524">scale n</tspan></text><g fill="none" stroke="#000" stroke-linecap="round" stroke-miterlimit="10" stroke-width=".99998"><path d="m49.584 144.2h242.82"/><path d="m49.584 144.2v2.8533"/><path d="m95.208 144.2v2.8533"/><path d="m140.84 144.2v2.8533"/><path d="m201.16 144.2v2.8533"/><path d="m246.78 144.2v2.8533"/><path d="m292.41 144.2v2.8533"/></g><text font-family="Helvetica" font-size="9.3331" stroke-width="1.3333" x="47.034256" y="156.59293"><tspan stroke-width="1.3333" x="47.034256" y="156.59293">5</tspan></text><g fill="none" stroke="#000" stroke-linecap="round" stroke-miterlimit="10" stroke-width=".99998"><path d="m15.96 1.5h310.01v142.7h-310.01z"/><g stroke-linejoin="round"><path d="m15.96 144.2v-129.28"/><path d="m15.96 144.2h-2.8533"/><path d="m15.96 111.88h-2.8533"/><path d="m15.96 79.566h-2.8533"/><path d="m15.96 47.244h-2.8533"/><path d="m15.96 14.922h-2.8533"/></g></g><g font-family="Helvetica" stroke-width="1.3333" transform="rotate(-90)"><text font-size="9.3331" x="-151.53839" y="10.592951"><tspan stroke-width="1.3333" x="-151.53839 -146.2092" y="10.592951">10</tspan></text><text font-size="6.5324" x="-140.87199" y="5.593073"><tspan stroke-width="1.3333" x="-140.87199" y="5.593073">0</tspan></text><text font-size="9.3331" x="-119.21629" y="10.592951"><tspan stroke-width="1.3333" x="-119.21629 -113.88708" y="10.592951">10</tspan></text><text font-size="6.5324" x="-108.5499" y="5.593073"><tspan stroke-width="1.3333" x="-108.5499" y="5.593073">2</tspan></text><text font-size="9.3331" x="-86.899391" y="10.592951"><tspan stroke-width="1.3333" x="-86.899391 -81.57019" y="10.592951">10</tspan></text><text font-size="6.5324" x="-76.232994" y="5.593073"><tspan stroke-width="1.3333" x="-76.232994" y="5.593073">4</tspan></text><text font-size="9.3331" x="-54.577286" y="10.592951"><tspan stroke-width="1.3333" x="-54.577286 -49.248085" y="10.592951">10</tspan></text><text font-size="6.5324" x="-43.910885" y="5.593073"><tspan stroke-width="1.3333" x="-43.910885" y="5.593073">6</tspan></text><text font-size="9.3331" x="-22.255177" y="10.592951"><tspan stroke-width="1.3333" x="-22.255177 -16.925976" y="10.592951">10</tspan></text><text font-size="6.5324" x="-11.588777" y="5.593073"><tspan stroke-width="1.3333" x="-11.588777" y="5.593073">8</tspan></text></g><g fill="none" stroke-linecap="round" stroke-linejoin="round" stroke-miterlimit="10"><path d="m15.96 127.03 18.937-14.385 14.688-16.75 12-19.072 10.15-20.995 8.7864-22.191 7.7558-20.437" stroke="#00f" stroke-width="4"/><path d="m15.959507 127.24751 18.93686-5.83852 14.68763-4.36923 11.9997-3.41191 10.150413-1.01598 8.786447-2.50527 7.755806-1.2813 6.931827-1.96795 6.27585-.54132 5.72919-1.82395 5.2652-.65065 4.87988-1.70263 4.54122.0733 4.25056-1.87062 3.98923-.18666 3.75991-1.390627 3.56258-.182662 3.37591-1.193304 3.21325-.509321 3.06259-.777313 2.9266-.333325 2.79726-1.035975 2.6866-.01067 2.58394-.765314 2.48393-.770648 2.39594-.458655 2.30661-.343991 2.23461-.655984 2.15595-.155996 2.08928-.890644 2.02528-.02533 1.96929-.698649 1.90528-.349325 1.85462-.457322 1.80263-.281326 1.75462-.614651 1.71329.016 1.66662-.729315 1.6253-.187995 1.58262-.431989 1.55196-.151996 1.51063-.587986 1.47997-.04133 1.44796-.453322 1.41596-.311992 1.3853-.338658 1.35997-.146663 1.32797-.317326 1.3013-.358658 1.2813-.499987 1.25063.123997 1.23464-.623985 1.20797.207995 1.18264-.718648 1.16663-.03733 1.14531-.551986 1.1253.103997 1.10398-.623984 1.08797.109331 1.07331-.453322 1.05197-.130664 1.03597-.39599 1.02131.119997 1.00531-.614651.98931.02133.97464-.447989.96264-.07867.94798-.150663.93198-.369324.92264-.166662.90531-.09467.89598-.243994.88531-.25066.87064-.08267.85865-.04133.84931-.385324.83865-.23466.82798-.333325.81731.275993.80798-.655984.80131.207995.78665-.203995.77598-.166663.77065-.353324.76131.06266.75465-.234661.74531-.02133.73332-.551986.72931.130664.71865-.218662.70932-.313325.70265-.358658.69731.166663.69332.04666.68265-.37999.67065-.401324.67198.182663.66132-.229328.65198.25466.65065-.79598.64132-.068.63465-.161329.63065.036.62399-.05733.61998-.01467.60932-.39599.60932-.05733.59998-.114663.59865-.359991.58799.177329.58398-.239994.58266-.175996.57332-.114664.56798-.135996.56665-.05733.55732-.187996.55732-.12933.55199-.177329.54799-.202661.54132.02.53598-.12933.53199-.12533.53065.04667.52666-.193328.51465-.342658.52132-.146663.51065.37599.51066-.474654.49998-.223995.49999.07333.49999-.250661.49465.09866.48933-.052.48398-.227994.47999.052.95731-.365324.46932-.07733.46799-.146663.46399.04133.46399-.337325.45732.09866.45865-.146663.45333-.353324.44798.139996.44266-.04133.44799-.275993.43732-.07867.43732-.218661.43733.0053.42799.08933.43199-.381324.42665.193329.42266-.0053.42132-.28666.41599-.119997.41732.16133.41199-.181329.41066-.130664.40666-.229327.40665.03733.39999-.297326.40132.306659.39599-.358657.396.068.39065-.463989.39066.275994.39066-.338659.38532-.01067.38532.01067.37999-.07333.37999-.088.37466-.109331.37599.016.37466-.209328.36932-.12933.37066-.04667.36399.036.36533-.223994.36399.068.35865-.04667.36-.275993.35999.0053.35332-.084.35466-.01067.34932-.052.34799-.202662.34933-.07333.34399-.07733.34399.02533.34266-.14533.33866-.245327.33866-.016.33865-.04133.33333.036.33332-.036.33333-.016.32799-.227995.32799-.291992.328.09866.32399.03067.32266-.227994.32265-.02667.32266-.14533.31733.103997.31866-.10933.31199-.052.31732-.146663.31333.03733.31199-.182662.30799-.275993.30666.109331.308-.02667.30665-.06133.30266.01467.30133-.03067.30266-.166662.30132-.08933.29733.048.29733-.119997.29599.114663.29199-.198661.29733-.265327.29066.016.29199.123996.28666-.07733.28666-.07333.29199-.09866.27999-.09866.28666-.234661.28133.119997.28133-.166662.28132-.150663.28133.109331.27599-.135997.28133-.02667.27599-.072.27066-.103998.27599.03067.27066-.358657.27066.227994.272-.202662.54132-.052.26532-.171996.26533-.07733.26666.327992.25999-.297326h.26533l.25999-.150663.26133.03067.26-.0053.25999.016.25599-.359991.25466.114664.26-.139997.25066-.07333.25466-.04667.25599.02133.24933-.146663.25066-.09866.24932.02133.25067.155997.24399-.250661.25066.02667.24399-.333325.24533.291993.24533-.385324.24399.281326.24-.307992.24399.036.23999.146663.24-.084.23999-.06667.23866-.141329.23466.068.24-.155996.23332-.166663.23467.036.23466-.202661.22932.036.23466-.052.22933.02533.23333-.243994.22933.306659.22932-.311992.22933-.016.224-.052.22932.109331.224-.07733.22399-.229328.224-.016.22399-.052.224-.04133.22399-.07333.21866.182662.224-.166662.21866-.223995.21866.03067.21866-.09866.21333-.052.21866-.01067.21866.114664.21333-.119997.21333-.088.21466.12933.21333-.197329.21332-.09333.21333-.193328.208.182662.21332-.177329.20933-.09866.208-.05733.20799.119997.20933-.114664.208.0053.20799.05733.20266-.052.20933-.214662.20266.09466.20266-.234661.204.193328.20266-.302659.20266.06267.204-.032.20266-.09866.19733-.08267.19866-.032.20266-.161329.19866.14533.19733-.123997" stroke="#e82000" stroke-width="4"/><path d="m15.959507 128.78347 18.93686-4.0359 14.68763-3.13059 11.9997-2.5626 10.150413-2.16128 8.786447-1.87462 7.755806-1.65596 6.931827-1.47996 6.27585-1.3333 5.72919-1.22397 5.2652-1.12397 4.87988-1.03731 4.54122-.96798 4.25056-.90664 3.98923-.85465 3.75991-.80131 3.56258-.75465 3.37591-.72398 3.21325-.68265 3.06259-.65598 2.9266-.61999 2.79726-.598647 2.6866-.573317 2.58394-.551986 2.48393-.526654 2.39594-.514653 2.30661-.490655 2.23461-.473321 2.15595-.463989 2.08928-.442655 2.02528-.431989 1.96929-.421323 1.90528-.406657 1.85462-.39599 1.80263-.385324 1.75462-.374657 1.71329-.365324 1.66662-.353325 1.6253-.343991 1.58262-.338658 1.55196-.333325 1.51063-.322659 1.47997-.313325 1.44796-.306659 1.41596-.302659 1.3853-.295993 1.35997-.291993 1.32797-.281326 1.3013-.281326 1.2813-.27066 1.25063-.265327 1.23464-.265327 1.20797-.255993 1.18264-.25466 1.16663-.245328 1.14531-.243994 1.1253-.239994 1.10398-.239994 1.08797-.229327 1.07331-.229328 1.05197-.223994 1.03597-.223995 1.02131-.213328 1.00531-.213328.98931-.213328.97464-.207994.96264-.203995.94798-.202662.93198-.197328.92264-.198662.90531-.191995.89598-.193329.88531-.186662.87064-.187995.85865-.182662.84931-.182662.83865-.175996.82798-.177329.81731-.171995.80798-.177329.80131-.166663.78665-.166662.77598-.166663.77065-.166662.76131-.16133.75465-.161329.74531-.155996.73332-.155996.72931-.157329.71865-.155997.70932-.150662.70265-.150663.69731-.146663.69332-.14533.68265-.146663.67065-.14533.67198-.139996.66132-.14133 1.30263-.281326.64132-.134664.63465-.135996.63065-.134664.62399-.130663.61998-.135997 1.21864-.259993.59998-.12533.59865-.12933.58799-.125331 1.16664-.25066.57332-.118664.56798-.119997.56665-.12533.55732-.114664.55732-.119997.55199-.119997.54799-.114663.54132-.114664.53598-.114664 1.06264-.227994.52666-.109331.51465-.114664.52132-.10933.51065-.109331.51066-.105331.99997-.218661.49999-.103997.49465-.103998.48933-.103997.48398-.103997.47999-.103998.47866-.09866.47865-.105331.93731-.197328.92798-.197329.91597-.198661.45333-.09333.44798-.09866.44266-.09466.44799-.09333 1.31197-.281326.42799-.09333.43199-.08933.42665-.09333.84398-.177329.83331-.177329.82265-.175996.40666-.08933.40665-.08266.39999-.08933.40132-.08266.396-.084.39599-.088 1.17197-.25066.38532-.07733.38532-.084.37999-.08267.37999-.07867.37466-.08266.75065-.15733.36932-.07733.37066-.084.36399-.07733.36533-.07333.36399-.07867.71865-.155996.35999-.072.35332-.07867.35466-.07333.34932-.07733.69732-.146663 1.03064-.218662 1.01597-.218661.33333-.072.33332-.068.33333-.07333.32799-.07333.65599-.134664.32399-.07333.96797-.202662.63599-.135996.31199-.068.31732-.06667.62532-.135996.30799-.06266.30666-.068.308-.06133.30665-.068.30266-.06267.30133-.068.60398-.12533.29733-.06667.59332-.125331.29199-.06266.29733-.06267.58265-.12533.28666-.06267.28666-.056.29199-.06266.27999-.06266.28666-.06266.28133-.05733.28133-.06267.28132-.05733.28133-.06267.27599-.05733.28133-.05733.27599-.06267.27066-.05733.27599-.05733 1.35464-.285326.79731-.171996.25999-.05733.26533-.05733.25999-.052.52132-.114664.26-.052.25599-.05733.25466-.052.26-.05733.25066-.052.25466-.05733.25599-.052.24933-.052.25066-.05733.49999-.105331.24399-.052.25066-.052.97864-.207995.24-.052.24399-.052.71998-.155996.23866-.04667.23466-.052.24-.05333.23332-.04667.46933-.103997.22932-.04667.23466-.052.22933-.04666.23333-.052.45865-.09466.22933-.052.224-.04666.22932-.04667.224-.04667.22399-.052.89598-.187995.21866-.04667.224-.04667.65598-.14133.21333-.04667.43732-.09333.21333-.04667.21333-.04133.64131-.14133.21333-.04133.208-.04667.21332-.04667.20933-.04266.208-.04667.20799-.04133.20933-.04666.208-.04267.20799-.04667.20266-.04133.20933-.04666.40532-.084.204-.04667.40532-.08266.204-.04667.20266-.04266.39599-.08266.20266-.04133.19866-.04267.19733-.04666" stroke="#000" stroke-dasharray=".999975 2.99992" stroke-width=".99998"/></g><text font-family="Helvetica" font-size="9.3331" stroke-width="1.3333" x="139.19142" y="12.51339"><tspan stroke-width="1.3333" x="139.19142" y="12.51339">TwoMax (Log-Log)</tspan></text><g fill="none" stroke-linecap="round" stroke-linejoin="round" stroke-miterlimit="10"><path d="m256.15 1.5h69.812v25.974h-69.812z" stroke="#000" stroke-width=".99998"/><g stroke-width="4"><path d="m262.87 10.458h13.437" stroke="#00f"/><path d="m262.87 19.422h13.437" stroke="#e82000"/></g></g><g stroke-width="1.3333"><text fill="#00f" font-family="Helvetica" font-size="7.4646" x="283.03265" y="12.717655"><tspan fill="#00f" stroke-width="1.3333" x="283.03265 285.69754 289.69861 293.6922 297.68579 300.35812 305.68042" y="12.717655">(1+1)EA</tspan></text><text fill="#e82000" font-family="Helvetica" font-size="7.4646" x="283.03265" y="21.680973"><tspan stroke-width="1.3333" x="283.03265 285.69754 289.69861 293.6922 297.68579 300.35812 304.35172 309.67401" y="21.680973">(1+1)FEA</tspan></text><g font-size="8.3995"><text font-family="Helvetica" x="132.52293" y="127.17574"><tspan stroke-width="1.3333" x="132.52293" y="127.17574">FFA: n</tspan></text><text font-family="'Nimbus Sans'" transform="translate(-75.333 -.58327)" x="233.15559" y="127.759"><tspan stroke-width="1.3333" x="233.15559" y="127.759">∈</tspan></text><text font-family="'Nimbus Sans'" transform="translate(-74.501 9.4517)" x="233.15559" y="127.759"><tspan stroke-width="1.3333" x="233.15559" y="127.759">∈</tspan></text><g font-family="Helvetica"><text stroke-width="1.3333" x="165.81866" y="127.17574"><tspan x="165.81866" y="127.17574">[3…333]: 3333 runs</tspan><tspan x="132.52293" y="137.2536">pure: n</tspan></text><text x="167.00652" y="137.2536"><tspan stroke-width="1.3333" x="167.00652" y="137.2536">[3…32]: 71 runs</tspan></text></g></g><text font-family="Helvetica" font-size="9.3331" transform="rotate(-90)" x="-74.498665" y="26.483179"><tspan stroke-width="1.3333" x="-74.498665" y="26.483179">time (RT) in FEs</tspan></text></g><path d="m15.959507 128.12749 18.93686-5.67186 14.68763-4.18256 11.9997-3.31192 10.150413-2.73993 8.786447-2.34261 7.755806-2.03728 6.931827-1.80663 6.27585-1.62529 5.72919-1.47329 5.2652-1.34397 4.87988-1.23997 4.54122-1.150635 4.25056-1.067973 3.98923-1.005308 3.75991-.942644 3.56258-.890644 3.37591-.838646 3.21325-.797313 3.06259-.759981 2.9266-.723982 2.79726-.691983 2.6866-.661316 2.58394-.635985 2.48393-.614651 2.39594-.587985 2.30661-.562653 2.23461-.546653 2.15595-.526653 2.08928-.510654 2.02528-.494654 1.96929-.478655 1.90528-.463989 1.85462-.453322 1.80263-.437322 1.75462-.426656 1.71329-.41199 1.66662-.405323 1.6253-.390657 1.58262-.385323 1.55196-.375991 1.51063-.363991 1.47997-.359991 1.44796-.347991 1.41596-.338658 1.3853-.333325 1.35997-.327992 1.32797-.318659 1.3013-.317325 1.2813-.306659 1.25063-.297326 1.23464-.297326 1.20797-.29066 1.18264-.281326 1.16663-.281326 1.14531-.275993 1.1253-.26666 1.10398-.265327 1.08797-.259993 1.07331-.255994 1.05197-.25466 1.03597-.245328 1.02131-.243993 1.00531-.239994.98931-.234661.97464-.233328.96264-.229327.94798-.223995.93198-.223994.92264-.218661.90531-.218662.89598-.213328.88531-.209328.87064-.207994.85865-.202662.84931-.203995.83865-.197328.82798-.198662.81731-.191995.80798-.193329.80131-.191995.78665-.182662.77598-.186662.77065-.182662.76131-.182662.75465-.177329.74531-.177329.73332-.170662.72931-.171996.71865-.171996.70932-.166662.70265-.166663.69731-.166662.69332-.16133.68265-.161329.67065-.162663.67198-.155996.66132-.155996 1.30263-.311992.64132-.151996.63465-.150663.63065-.14533.62399-.146663.61998-.145329 1.21864-.291993 1.19863-.281326.58799-.139997 1.16664-.27066.57332-.135996 1.13463-.27066 1.11464-.259994.55199-.130663.54799-.130664.54132-.123997.53598-.130663 1.06264-.249327.52666-.119997.51465-.12533.52132-.119997 1.02131-.239994.99997-.238661.49999-.114664.49465-.114664.48933-.114663.48398-.114664.95865-.229328.47865-.10933.93731-.218662.92798-.218661.45732-.10933.45865-.103998.45333-.10933.44798-.103998.44266-.10533.44799-.103998.87464-.207995.43733-.09866.42799-.103997.43199-.09866.42665-.1.84398-.197328.83331-.198662.41199-.09333.41066-.09866.81331-.187996.80131-.186662.79199-.187995.39065-.088.39066-.09466.39066-.088.38532-.09333.38532-.08933.75998-.177329 1.12531-.265326.36932-.08266.37066-.08933.36399-.08266.36533-.08933.36399-.08266 1.07864-.250661.70798-.166662.69731-.166663.34933-.07733.34399-.084.68665-.155996.33866-.08266.67731-.157329.99998-.233328.32799-.07333.65599-.155996.32399-.07333.32266-.07867.32265-.072.32266-.07866.63599-.14533.31199-.07333.31732-.07333.62532-.14533.92265-.218661.30665-.068.30266-.072.30133-.068.30266-.07333.30132-.068.29733-.072.59332-.135996.29199-.068.29733-.072.58265-.135997.28666-.068.28666-.06267.29199-.06667.27999-.068.28666-.068.28133-.06267.56265-.134663.28133-.06267.27599-.06267.28133-.068.27599-.06267.27066-.06267.27599-.06667 1.35464-.313325.79731-.187995.25999-.056.26533-.06267.52132-.12533.25999-.05733.26-.06267.25599-.05733.25466-.06266.26-.05733.25066-.05733.25466-.06266.25599-.05733.49999-.113331.24932-.06266.25067-.05733.24399-.05733.25066-.05733.73465-.171996.24399-.052.24-.05733.24399-.05733.23999-.05733.24-.052.47865-.114664.23466-.052.24-.05733.23332-.052.23467-.05733.23466-.052.22932-.05733.23466-.052.22933-.052.23333-.052.22933-.05733.45865-.105331.224-.052.22932-.052 1.34397-.311992.21866-.052.224-.052.21866-.052.21866-.04667.21866-.052.21333-.05333.21866-.04667.21866-.052.21333-.052.21333-.04667.21466-.052.21333-.04667.21332-.052.21333-.04666.208-.052.21332-.048.20933-.04666.208-.052.62532-.139996.20799-.052.20266-.04667.20933-.048 1.4213-.327992.39599-.09333.20266-.04667.19866-.04666.19733-.04267" style="fill:none;stroke:#000;stroke-dasharray:.999975 2.99992 3.9999 2.99992;stroke-linecap:round;stroke-linejoin:round;stroke-miterlimit:10;stroke-width:.99998"/><g font-family="Arial"><g font-size="9.3331" stroke-width=".75"><text x="89.732742" y="156.87091"><tspan font-size="9.3331" stroke-width=".75" x="89.732742" y="156.87091">10</tspan></text><text x="135.72948" y="156.87091"><tspan font-size="9.3331" stroke-width=".75" x="135.72948" y="156.87091">20</tspan></text><text x="195.99521" y="156.87091"><tspan font-size="9.3331" stroke-width=".75" x="195.99521" y="156.87091">50</tspan></text><text x="238.71098" y="156.87091"><tspan font-size="9.3331" stroke-width=".75" x="238.71098" y="156.87091">100</tspan></text><text x="284.7037" y="156.87091"><tspan font-size="9.3331" stroke-width=".75" x="284.7037" y="156.87091">200</tspan></text></g><g font-size="8"><text x="301.02234" y="45.496887"><tspan font-size="8" x="301.02234" y="45.496887">n² ln n</tspan></text><text x="313.6077" y="73.189568"><tspan font-size="8" x="313.6077" y="73.189568">n²</tspan></text></g></g></svg>