<svg height="202.04pt" viewBox="0 0 328.39 202.04" width="328.39pt" xmlns="http://www.w3.org/2000/svg"><g fill="none" stroke-linecap="round" stroke-miterlimit="10" stroke-width=".98631"><g stroke="#bebebe" stroke-linejoin="round"><path d="m166.15 186.99v-184.84"/><path d="m67.392 186.93v-157.72"/><path d="m15.755 134.4h309.63"/><path d="m15.755 81.811h309.63"/><path d="m264.92 186.99v-184.84"/><path d="m15.755 29.212h309.63"/></g><g stroke="#000"><path d="m37.665 186.99h256.98"/><path d="m37.665 186.99v3.6972"/><path d="m67.392 186.99v3.6972"/><path d="m97.125 186.99v3.6972"/><path d="m136.42 186.99v3.6972"/><path d="m166.15 186.99v3.6972"/><path d="m195.88 186.99v3.6972"/><path d="m235.19 186.99v3.6972"/><path d="m264.92 186.99v3.6972"/><path d="m294.64 186.99v3.6972"/><path d="m15.755 186.99h309.63v-184.84h-309.63z"/><g stroke-linejoin="round"><path d="m15.755 186.99v-157.78"/><path d="m15.755 186.99h-3.6978"/><path d="m15.755 134.4h-3.6978"/><path d="m15.755 81.811h-3.6978"/></g></g></g><g font-family="Helvetica" stroke-width="1.3333" transform="rotate(-90)"><text font-size="9.2055" x="-194.22397" y="10.461912"><tspan stroke-width="1.3333" x="-194.22397 -188.96783" y="10.461912">10</tspan></text><text font-size="6.443" x="-183.70331" y="5.530263"><tspan stroke-width="1.3333" x="-183.70331" y="5.530263">0</tspan></text><text font-size="9.2055" x="-141.63097" y="10.461912"><tspan stroke-width="1.3333" x="-141.63097 -136.37483" y="10.461912">10</tspan></text><text font-size="6.443" x="-131.1104" y="5.530263"><tspan stroke-width="1.3333" x="-131.1104" y="5.530263">3</tspan></text><text font-size="9.2055" x="-89.038437" y="10.461912"><tspan stroke-width="1.3333" x="-89.038437 -83.782387" y="10.461912">10</tspan></text><text font-size="6.443" x="-78.517868" y="5.530263"><tspan stroke-width="1.3333" x="-78.517868" y="5.530263">6</tspan></text><text font-size="9.2055" x="-36.445518" y="10.461912"><tspan stroke-width="1.3333" x="-36.445518 -31.189383" y="10.461912">10</tspan></text><text font-size="6.443" x="-25.924948" y="5.530263"><tspan stroke-width="1.3333" x="-25.924948" y="5.530263">9</tspan></text></g><g fill="none" stroke-linecap="round" stroke-linejoin="round" stroke-miterlimit="10"><path d="m15.754979 173.16711 12.339292-3.84257 9.571094-2.81059 7.818071-2.65594 6.610768-2.12128 5.728524-2.07061 5.049873-1.68929 4.519754-1.62396 4.089231-1.31464 3.72924-1.3253 3.437248-1.24796 3.174587-1.08931 2.963926-1.03331 2.763931-1.03731 2.605268-.86264 2.449272-.76531 2.317275-.89998 2.197279-.87731 2.095947-.67332 1.994611-.75465 1.90529-.55465 1.82929-.70398 1.75195-.58132 1.67863-.56932 1.61862-.67865 1.5613-.61599 1.50663-.44265 1.45329-.46132 1.40663-.49866 1.3613-.59065 1.31997-.37999 1.27997-.46799 1.24263-.45199 1.20664-.31332 1.1773-.60665 1.14531-.35333 1.1093-.39065 1.08931-.36533 1.05864-.29732 1.03331-.41733 1.01064-.41065.98664-.272.96131-.36932.94398-.29866.91997-.39066.90398-.28799.88398-.30666.86798-.34532.84798-.22933.83198-.38533.81731-.31999.80531-.24132.78665-.328.76931-.28799.76132-.22133.74398-.22666.73598-.27732.71732-.26666.71065-.22667.69864-.26132.68665-.272.67465-.14933.66799-.27732.65198-.30799.64665-.19067.63332-.26666.62532-.14933.61731-.29732.61066-.196.60131-.15866.59066-.23599.57998-.20133.57599-.19466.56932-.22666.55998-.17333.55465-.21733.54532-.15333.53866-.23599.53465-.17467.52399-.17999.52398-.17466.51333-.19067.50398-.19999.50399-.14266.49865-.19067.48666-.15866.48399-.144.48265-.20666.47199-.13866.46799-.20933.46132-.15466.46265-.124.45333-.19466.45199-.13866.43998-.18.44266-.17466.43199-.11333.43199-.16.42532-.18399.42666-.13333.83198-.27733.41065-.11866.40666-.256.39999-.0827.39999-.13866.39599-.17467.39066-.072.39065-.18533.38533-.11333.37999-.10667.37465-.18133.376-.13199.37332-.15333.36666-.084.36399-.18533.36399-.12133.35999-.10266.35466-.0827.35466-.13866.34932-.15466.34399-.128.34399-.0773.34533-.13333.33866-.14.33332-.12266.33333-.0973.33465-.12933.328-.12667.32399-.15999.32266-.072.32532-.12933.31866-.076.31866-.11333.31199-.13333.31333-.11333.30932-.13333.30799-.0667.30266-.10799.30266-.13733.30399-.048.29733-.144.29866-.108.29199-.11733.29333-.0973.29332-.0733.28666-.0867.288-.12267.28266-.12933.28266-.06.28266-.10399.27732-.0867.28266-.13866.272-.0667.27732-.14532.27333-.056.26666-.13333.27199-.0773.26666-.0813.26266-.12933.26666-.0613.26133-.0813.26266-.10266.25599-.124.25733-.056.25733-.11866.25732-.072.25066-.128.252-.072.24666-.072.25199-.092.24666-.0627.24666-.11866.24133-.0453.24666-.11333.24133-.108.24132-.0867.23733-.0667.23466-.0627.236-.072.23732-.0867.236-.092.23066-.088.23199-.10267.23066-.0867.22533-.10267.22666-.068.22533-.0507.22666-.11866.22666-.0307.22-.11733.22132-.0933.22133-.056.22133-.0827.21999-.0613.216-.0813.21599-.048.21467-.11199.21066-.0253.21599-.10799.21066-.072.212-.0827.21066-.056.20933-.10267.20533-.0987.20532-.0253.20666-.10799.20533-.04.20533-.0827.2-.10266.20532-.0413.2-.088.19999-.0667.196-.0253.19999-.092.196-.0933.19466-.056.2-.0933.19066-.0347.19466-.088.196-.056.18932-.0667.19067-.0773.18932-.0467.19067-.0613.18932-.072.18533-.076.19067-.0573.18399-.072.18533-.0613.18533-.092.18533-.0627.17999-.0507.184-.068.17999-.0973.35999-.112.17867-.0467.17999-.0827.17466-.052.18133-.04.17333-.0773.17466-.0827.17467-.0707.17466-.0413.17599-.0467.16933-.072.17333-.0973.16933-.056.16933-.032.17066-.06.16933-.0573.16933-.072.16933-.052.16533-.04.16933-.0573.16399-.0773.32933-.12266.164-.036.16532-.0667.164-.0573.15866-.072.164-.0507.16-.0613.31732-.104.16-.076.15866-.052.16-.036.15866-.076.15466-.0467.16-.0507.15333-.0667.15333-.0787.15466-.005.15466-.0653.15333-.0507.15466-.0627.15333-.056.14933-.0667.15467-.0413.14933-.0613.14799-.0573.148-.016.15066-.0613.14933-.0733.148-.0507.14799-.0467.14533-.0707.148-.0413.14533-.0707.148-.0213.14399-.052.144-.0453.14399-.0827.14267-.0573.14533-.0147.14266-.0613.144-.032.13999-.0613.14267-.06.13866-.048.13866-.0813.144-.0267.13866-.0507.14-.0467.13733-.0253.13866-.0773.13867-.024.13466-.068.13866-.0413.13333-.0653.13733-.0467.13466-.0267.13867-.0667.26666-.0707.13466-.0533.26666-.112.13333-.036.128-.0573.13466-.0507.132-.0253.12933-.0613.13333-.0107.128-.0867.12933-.0533.12799-.0293.128-.0413 1.02131-.29866.25332-.18932 2.54661-.84798 4.04523-1.6133 1.05731-.291985 2.73726-.862644 4.02257-1.423964 1.75195-.739981 1.01731-.358658 6.80116-2.214611 1.75196-.714649 3.80657-1.447964 1.05731-.214661 1.73729-.822646 3.98523-1.283968 1.00798-.442656 4.0479-1.449297 4.51988-1.590627 1.01731-.226661 12.32903-4.418556 16.38225-5.85052 1.01598-.363991 12.34502-4.357225 4.02657-1.45863 4.51589-1.551961 7.8238-2.829263 1.01731-.303992" stroke="#00f" stroke-width="4"/><path d="m15.754979 172.2778 12.339292-4.71588 9.571094-4.36122 7.818071-3.48392 6.610768-3.06659 5.728524-2.80926 5.049873-2.71726 4.519754-2.22928 4.089231-2.05995 3.72924-1.95728 3.437248-1.71996 3.174587-1.61996 2.963926-1.5653 2.763931-1.58796 2.605268-1.2853 2.449272-1.33863 2.317275-1.24397 2.197279-1.05331 2.095947-1.28396 1.994611-.92931 1.90529-1.04398 1.82929-.93464 1.75195-.98664 1.67863-.93998 1.61862-.88398 1.5613-.71865 1.50663-.84664 1.45329-.79732 1.40663-.69864 1.3613-.80665 1.31997-.61599 1.27997-.72531 1.24263-.61465 1.20664-.63332 1.1773-.62132 1.14531-.63198 1.1093-.61065 1.08931-.58532 1.05864-.58132 1.03331-.57999 1.01064-.52398.98664-.53466.96131-.51865.94398-.49865.91997-.45733.90398-.51198.88398-.49866.86798-.45332.84798-.42532.83198-.42266.81731-.41999.80531-.43199.78665-.42665.76931-.44133.76132-.40665.74398-.33866.73598-.45199.71732-.37999.71065-.41599.69864-.33466.68665-.32266.67465-.40532.66799-.33999.65198-.34399.64665-.35333.63332-.34532.62532-.35999.61731-.31333.61066-.32799.60131-.31866.59066-.34532.57998-.276.57599-.29732.56932-.30933.55998-.30266.55465-.26666.54532-.35065.53866-.236.53465-.31866.52399-.26666.52398-.27199.51333-.30266.50398-.23733.50399-.26666.49865-.247985.48666-.327992.48399-.235994.48265-.251994.47199-.235994.46799-.257327.46132-.28266.46265-.173329.45333-.293326.45199-.271993.43998-.190662.44266-.235994.43199-.225328.43199-.221327.42532-.179996.42666-.313325.41599-.174663.41599-.231994.41065-.199995.40666-.261327.39999-.169329.39999-.257327.39599-.221327.39066-.16933.39065-.251993.38533-.174663.37999-.178662.37465-.206661.376-.183996.37332-.221327.73065-.430656.36399-.170663.35999-.190662.35466-.183995.35466-.169329.34932-.195995.34399-.219995.34399-.165329.34533-.205328.33866-.13333.33332-.169329.33333-.138663.33465-.221328.328-.221328.32399-.131997.32266-.206661.32532-.13333.31866-.189329.31866-.154663.31199-.185328.31333-.143997.30932-.205328.30799-.158663.30266-.153329.30266-.134663.304-.15333.29732-.190662.29866-.138663.29199-.14933.29333-.199995.29332-.123997.28666-.142663.288-.175995.28266-.158663.28266-.12933.28266-.15333.27732-.158662.28266-.14933.272-.138663.27732-.143996.27333-.129331.26666-.178662.27199-.09866.26666-.189329.26266-.106664.26666-.175995.26133-.107997.26266-.163996.25599-.13333.25733-.143997.25733-.11333.25732-.169329.25066-.113331.252-.13333.24666-.11733.25199-.154663.24666-.11733.24666-.139997.24133-.092.24666-.163996.24133-.154662.24132-.13333.23733-.113331.23466-.122663.236-.129331.23732-.106664.236-.11333.69331-.401323.22533-.102664.22666-.113331.22533-.131997.22666-.12933.22666-.102664.44132-.255993.22133-.102665.22133-.118663.21999-.107998.216-.118663.21599-.138663.21467-.08666.21066-.12933.21599-.118664.21066-.11333.212-.115997.21066-.113331.20933-.06667.20533-.143996.20532-.09333.41199-.246661.20533-.106664.2-.068.20532-.09733.2-.138663.19999-.113331.196-.122663.19999-.09333.39066-.194662.2-.12933.19066-.09733.19466-.111997.196-.08133.18932-.09466.19067-.08533.18932-.113331.19067-.134663.18932-.076.18533-.102664.19067-.09333.18399-.102664.18533-.118664.37066-.174662.17999-.138663.184-.05067.17999-.134663.18-.07066.17999-.102664.17867-.08267.17999-.11333.17466-.08133.18133-.07733.17333-.11333.17466-.06667.34933-.226661.17599-.076.16933-.102665.17333-.088.16933-.076.16933-.107998.17066-.09866.16933-.072.16933-.088.16933-.09733.16533-.08666.16933-.09333.16399-.076.32933-.174663.164-.09733.16532-.07733.164-.08267.15866-.11733.164-.07333.31866-.173329.15866-.09866.16-.06667.15866-.09733.16-.092.15866-.072.15466-.05733.16-.09733.15333-.092.15333-.06667.15466-.08267.15466-.08666.15333-.072.15466-.07733.15333-.08266.14933-.107998.15467-.056.14933-.076.14799-.09866.148-.07733.15066-.072.14933-.056.148-.107997.14799-.06133.14533-.08133.148-.09733.14533-.084.148-.06666.14399-.076.144-.06667.14399-.07866.288-.174662.14266-.08133.144-.05067.13999-.084.14267-.06533.13866-.07733.13866-.092.144-.04667.13866-.118664.14-.06667.13733-.04.13866-.088.13867-.08133.13466-.05733.13866-.09333.13333-.07067.13733-.03733.13466-.09733.13867-.05066.13466-.08133.132-.07866.26666-.13333.13466-.072.13333-.08267.128-.06133.13466-.08666.132-.04133.12933-.09733.13333-.06133.25733-.14533.12799-.06533.128-.056 1.02131-.458656.25332-.241327 2.54661-1.45863 4.04523-2.018616 1.05731-.559986 2.73726-1.443964 4.02257-2.207945 1.75195-.842646 1.01731-.590651 6.80116-3.581244 1.75196-1.042641 3.80657-1.931952 1.05731-.523986 1.73729-.913311 3.98523-2.219944 1.00798-.579986 4.0479-2.12128 4.51988-2.378607 1.01731-.601319 12.32903-6.51317 16.38225-8.727782 1.01598-.483988 12.34502-6.606501 4.02657-2.166613 4.51589-2.331942 7.8238-4.222561 1.01731-.530653" stroke="#e82000" stroke-width="4"/><g stroke="#000" stroke-width=".98631"><path d="m15.754979 177.91233 12.339292-3.9599 9.571094-2.83593 7.818071-2.20795 6.610768-1.79862 5.728524-1.52663 5.049873-1.31463 4.519754-1.15597 4.089231-1.03731 3.72924-.93464 3.437248-.84665 3.174587-.78131 2.963926-.72532 2.763931-.66665 2.605268-.62665 2.449272-.59065 2.317275-.55065 2.197279-.52399 2.095947-.49332 1.994611-.47199 1.90529-.44665 1.82929-.42666 1.75195-.40666 1.67863-.39065 1.61862-.37466 1.5613-.35866 1.50663-.34932 1.45329-.33466 1.40663-.32399 1.3613-.30666 1.31997-.30399 1.27997-.292 1.24263-.28266 1.20664-.27732 1.1773-.26133 1.14531-.26399 1.1093-.25066 1.08931-.24666 1.05864-.236 1.03331-.23199 1.01064-.23066.98664-.22133.96131-.216.94398-.21066.91997-.20399.90398-.2.88398-.20266.86798-.18799.84798-.19067.83198-.18532.81731-.18533.80531-.17467.78665-.17466.76931-.17466.76132-.16533.74398-.16799.73598-.16.71732-.16.71065-.15866.69864-.15333.68665-.14933.67465-.14933.66799-.14399.65198-.14267.64665-.14533.63332-.13733.62532-.13999.61731-.132.61066-.13466.60131-.132.59066-.12933.57998-.12933.57599-.12666.56932-.124.55998-.124.55465-.11866.54532-.11733.53866-.11733.53465-.11867 1.04797-.22666.51333-.11333.50398-.10666.50399-.11333.49865-.108.48666-.10266.48399-.108.48265-.10266.47199-.10267.46799-.10266.46132-.0987.46265-.10266.90532-.19466.43998-.0973.44266-.0933.86398-.18399.85198-.18533.41599-.092.41599-.088.41065-.0867.40666-.088.79998-.17333.39599-.088.78131-.16533.38533-.0813.37999-.0827.75065-.16399.37332-.076.36666-.084.72798-.15333.35999-.0773.70932-.15466.34932-.0707.34399-.0773.34399-.072.34533-.0773.33866-.072.66665-.14266.33465-.068.328-.072.32399-.072.32266-.0667.32532-.0707.63732-.13466.62532-.13333.61731-.13466.30266-.0613.30266-.0653.30399-.0613.29733-.068.29866-.0613.29199-.0613.29333-.068.29332-.06.28666-.0627.288-.056.84798-.18533.27732-.056.28266-.0627.272-.056.27732-.0627.27333-.056.26666-.056.27199-.0573.26666-.056.26266-.056.26666-.056.52399-.11333.25599-.052.51466-.112.25732-.052.25066-.056.252-.0507.24666-.0533.25199-.056.49332-.10267.24133-.052.24666-.0507.48265-.10266.23733-.052.23466-.0453.70932-.15467.23066-.0453.23199-.052.23066-.0467.22533-.0507.67865-.13866.22666-.052 1.10397-.23066.64666-.14.21066-.04.21599-.0467.21066-.0453.212-.0413.41999-.0933.20533-.0413.20532-.0453.20666-.04.20533-.0467.20533-.0427.2-.04.20532-.0413.2-.0453.19999-.0427.196-.04.19999-.0413.39066-.0827.2-.0413.19066-.04.39066-.0827.56931-.12267.19067-.0373.18932-.04.18533-.0413.19067-.0373.36932-.0813.18533-.0347.18533-.0427.17999-.036.184-.04.35999-.072.17999-.0413.35866-.072.17466-.0413.18133-.036.87331-.18.16933-.036.17333-.036 1.01731-.21599.16533-.0347.16933-.0373.16399-.0307.49333-.10799.16532-.0293.164-.0373.15866-.0293.164-.0373.16-.036.15866-.0293.15866-.0373.16-.0307.15866-.036.31866-.0613.15466-.036.16-.0307.15333-.0307.15333-.036.30932-.0613.15333-.036.30799-.0627.14933-.0293.15467-.032.14933-.0307.14799-.036.74398-.15466.14533-.0293.148-.032.14533-.0307.148-.0307.14399-.0253.71865-.15466.144-.0253.13999-.0307.14267-.032.13866-.0293.13866-.0267.144-.0307.13866-.0307.14-.0253.27599-.0627.13867-.0253.13466-.0307.13866-.0267.13333-.0293.13733-.0253.13466-.032.13867-.024.13466-.032.132-.0253.13466-.032.26666-.0507.13333-.0307.128-.0253.13466-.0253.132-.032.12933-.024.13333-.0267.128-.0307.38532-.0773 1.02131-.216.25332-.0507 2.54661-.52932 4.04523-.83732 1.05731-.22132 2.73726-.56532 4.02257-.83198 1.75195-.35866 1.01731-.21066 6.80116-1.39863 1.75196-.35866 3.80657-.78131 1.05731-.216 1.73729-.35466 3.98523-.81731 1.00798-.20533 4.0479-.82131 4.51988-.91998 1.01731-.20399 12.32903-2.50261 16.38225-3.29725 1.01598-.20666 12.34502-2.4706 4.02657-.80665 4.51589-.90265 7.8238-1.55729 1.01731-.19999" stroke-dasharray=".986305 2.95891"/><path d="m15.754979 170.26452 12.339292-4.38256 9.571094-3.39458 7.818071-2.77993 6.610768-2.34794 5.728524-2.03462 5.049873-1.79195 4.519754-1.60396 4.089231-1.45196 3.72924-1.32131 3.437248-1.22263 3.174587-1.12397 2.963926-1.05331 2.763931-.98131 2.605268-.92531 2.449272-.86664 2.317275-.82798 2.197279-.78132 2.095947-.73865 1.994611-.70931 1.90529-.67865 1.82929-.64665 1.75195-.62265 1.67863-.59465 1.61862-.57732 1.5613-.55332 1.50663-.53466 1.45329-.51865 1.40663-.49732 1.3613-.48399 1.31997-.46799 1.27997-.45599 1.24263-.44132 1.20664-.42799 1.1773-.41599 1.14531-.40532 1.1093-.39466 1.08931-.38532 1.05864-.37999 1.03331-.36532 1.01064-.36.98664-.34932.96131-.33866.94398-.33866.91997-.32532.90398-.32266.88398-.31333.86798-.30799.84798-.29866.83198-.29732.81731-.288.80531-.28799.78665-.27733.76931-.27732.76132-.26666.74398-.26666.73598-.25733.71732-.25733.71065-.25066.69864-.24799.68665-.24533.67465-.24266.66799-.22933.65198-.23732.64665-.22533.63332-.22666.62532-.22666.61731-.216.61066-.21466.60131-.21599.59066-.21066.57998-.20533.57599-.20533.56932-.2.55998-.19999.55465-.196.54532-.19466.53866-.19066.53465-.19066 1.04797-.36933.51333-.18532.50398-.18.50399-.17466.49865-.17866.48666-.16933.48399-.176.48265-.16933.47199-.16933.46799-.16399.92397-.32933.90532-.31732.88264-.31866.43199-.15466.43199-.14933.42532-.15333.42666-.14933.83198-.29866.41065-.14267.40666-.14399.79998-.288.39599-.13999.78131-.27599.38533-.13333.37999-.14.75065-.26666.37332-.128.36666-.13333.72798-.25732.35999-.128.35466-.124.35466-.128.34932-.12266.68798-.24799.34533-.11733.33866-.12267 1.0013-.35599.328-.11733.32399-.11333.32266-.11733.32532-.11333.63732-.22666.31199-.112.31333-.108.30932-.11333.30799-.10799.90931-.32266.29733-.10267.29866-.10799.58532-.20666.29332-.108.28666-.0973.288-.10267.56532-.20532.28266-.0973.27732-.0987.28266-.10266.272-.096.27732-.0987.27333-.0933.26666-.0973.27199-.0973.26666-.092.26266-.0933.26666-.0973.52399-.18399.51332-.18533.25733-.088.25732-.092.25066-.0867.252-.0933.24666-.0867.25199-.0867.49332-.176.24133-.088.24666-.0867.24133-.0867.24132-.0827.23733-.0867.23466-.0827.236-.0867.47332-.164.69331-.24799.22533-.0813.22666-.0773.45199-.16532.22666-.076.22-.0773.22132-.0813.66265-.23199.64666-.23066.21066-.0787.21599-.076.21066-.072.212-.0773.21066-.0707.20933-.0773.41065-.144.20666-.0787.41066-.14266.2-.072.20532-.0733.2-.0707.19999-.0667.196-.072.19999-.0707.196-.0733.19466-.0667.2-.0707.19066-.068.19466-.0667.196-.072.9493-.33466.18533-.0653.19067-.0667.55465-.20133.18533-.06.17999-.068.184-.0667.17999-.0627.18-.0667.17999-.0613.17867-.0653.17999-.0627.17466-.0613.18133-.0613.17333-.068.69998-.24533.16933-.0627.17333-.0613.16933-.056.50932-.18533.16933-.0573.16933-.06.16533-.0573.16933-.0613.16399-.0573.16533-.0613.328-.11333.16532-.0613.164-.0573.15866-.056.164-.056.16-.0627.79598-.28133.15866-.052.15466-.0573.16-.056.30666-.11199.15466-.052.15466-.056.15333-.052.30799-.11333.14933-.0507.15467-.052.14933-.056.14799-.052.148-.056.44799-.15466.14799-.056.14533-.0507.148-.052.14533-.0507.148-.052 1.00664-.35866.13999-.048.14267-.0507.27732-.10267.144-.0453.27866-.10266.13733-.0467.13866-.0507.13867-.0467.13466-.0533.13866-.0453.13333-.0507.13733-.0467.13466-.0453.13867-.052.26666-.092.13466-.052.39999-.13866.128-.0467.26666-.092.12933-.0467.13333-.0467.51332-.184 1.02131-.36532.25332-.0867 2.54661-.90398 4.04523-1.438631 1.05731-.375991 2.73726-.970642 4.02257-1.427964 1.75195-.619985 1.01731-.359991 6.80116-2.421273 1.75196-.619984 3.80657-1.351966 1.05731-.374658 1.73729-.617318 3.98523-1.411964 1.00798-.358658 4.0479-1.433297 4.51988-1.60796 1.01731-.359991 12.32903-4.375891 16.38225-5.815854 1.01598-.365325 12.34502-4.382557 4.02657-1.426631 4.51589-1.602626 7.8238-2.779931 1.01731-.359991" stroke-dasharray=".986305 2.95891 3.94522 2.95891"/><path d="m15.754979 169.54454 12.339292-6.14918 9.571094-4.53455 7.818071-3.59058 6.610768-2.97459 5.728524-2.54394 5.049873-2.20794 4.519754-1.96396 4.089231-1.76128 3.72924-1.5973 3.437248-1.45863 3.174587-1.3453 2.963926-1.24397 2.763931-1.1653 2.605268-1.08397 2.449272-1.02265 2.317275-.96664 2.197279-.91331 2.095947-.86398 1.994611-.82798 1.90529-.78398 1.82929-.75064 1.75195-.71865 1.67863-.68932 1.61862-.66265 1.5613-.63598 1.50663-.61732 1.45329-.59065 1.40663-.57066 1.3613-.55465 1.31997-.53465 1.27997-.51732 1.24263-.50399 1.20664-.49332 1.1773-.47332 1.14531-.46132 1.1093-.45333 1.08931-.43598 1.05864-.42533 1.03331-.41732 1.01064-.40532.98664-.39599.96131-.39066.94398-.37466.91997-.36932.90398-.36533.88398-.35332.86798-.34533.84798-.34265.83198-.33466.81731-.32266.80531-.31999.78665-.31866.76931-.30799.76132-.30266.74398-.29733.73598-.28799.71732-.28799.71065-.284.69864-.27599.68665-.27733.67465-.26799.66799-.26133.65198-.26266.64665-.25599.63332-.25199.62532-.24666.61731-.24666.61066-.24133.60131-.236.59066-.23732.57998-.23066.57599-.23067.56932-.21999.55998-.22666.55465-.216.54532-.21599.53866-.21466.53465-.21066 1.04797-.41199.51333-.20533.50398-.20133.50399-.19466.49865-.2.48666-.19066.96664-.37999.47199-.18933.46799-.18533.92397-.35999.90532-.35865.43998-.176.44266-.16933.43199-.17466.43199-.168.42532-.16933.42666-.16533.83198-.32799.41065-.15999.40666-.16.79998-.31866.39599-.15333.39066-.15333.39065-.14933.38533-.15466.37999-.14933.37465-.148.376-.14399.37332-.14933.73065-.28799.36399-.13867.35999-.14266.70932-.27733.34932-.13999.68798-.26666.34533-.13867.33866-.12799.33332-.13467.33333-.12799.33465-.13333.328-.128.32399-.12933.32266-.12266.32532-.12933.63732-.24666.62532-.246655.30932-.11734.30799-.122659.90931-.355991.29733-.11733.29866-.111998.29199-.118663.58665-.226661.57466-.225328.28266-.107997.28266-.113331.28266-.107997.27732-.113331.28266-.107997.272-.106664.27732-.102664.27333-.107997.26666-.107998.27199-.102664.26666-.102664.26266-.10933.26666-.102664.26133-.09733.26266-.102664.25599-.102665.25733-.09733.25733-.101331.25732-.1.50266-.194662.24666-.096.25199-.1.49332-.193328.24133-.09333.24666-.09733.48265-.185329 1.18131-.462655.23066-.08666.23199-.092.23066-.088.22533-.092.90531-.350657.22-.08666.22132-.08267.44266-.173329.21999-.08266.216-.08666.43066-.163996.21066-.088.21599-.08267.42266-.163996.21066-.07733.20933-.08133.41065-.165329.20666-.07733.20533-.08133.20533-.07733.2-.07733.20532-.08267.39999-.153329.196-.07733.19999-.07733.39066-.154663.2-.07066.19066-.07733.19466-.07733.196-.072.18932-.07733.37999-.142663.19067-.07733.18932-.07333.18533-.07067.19067-.072.73998-.287993.17999-.072.184-.072.17999-.06667.18-.07066.17999-.068.17867-.072.17999-.06667.17466-.072.18133-.06667.17333-.06667.17466-.072.52532-.199995.16933-.068.17333-.06667.33866-.131996.17066-.06266.50799-.199995.16533-.06133.16933-.06667.16399-.06266.16533-.06667.328-.122664.16532-.06667.164-.06133.15866-.06267.164-.06133.16-.06133.15866-.06667.31866-.123997.15866-.056.31866-.123997.15466-.06133.16-.06133.15333-.06267.15333-.056.15466-.06.15466-.05733.15333-.06133.15466-.05733.15333-.06133.14933-.056.15467-.06267.29732-.11333.148-.06133.59598-.226661.14533-.056.148-.056.14533-.05733.148-.056.71998-.281326.14266-.052.144-.056.13999-.056.14267-.052.13866-.05733.13866-.05066.144-.05733.13866-.05066.14-.056.13733-.05333.13866-.056.13867-.052.13466-.05067.13866-.05733.13333-.05067.13733-.052.13466-.05066.13867-.052.26666-.10133.13466-.05733.39999-.15333.128-.04667.26666-.102664.12933-.05067.13333-.052.128-.052.12933-.04533.25599-.102665 1.02131-.390656.25332-.09733 2.54661-.981309 4.04523-1.557295 1.05731-.405323 2.73726-1.053307 4.02257-1.546628 1.75195-.673316 1.01731-.389324 6.80116-2.605268 1.75196-.673317 3.80657-1.451963 1.05731-.401324 1.73729-.667983 3.98523-1.521295 1.00798-.385324 4.0479-1.541295 4.51988-1.719957 1.01731-.390657 12.32903-4.685216 16.38225-6.209178 1.01598-.37999 12.34502-4.67055 4.02657-1.514629 4.51589-1.705291 7.8238-2.950593 1.01731-.37999" stroke-dasharray="6.90413 2.95891"/><path d="m15.754979 161.90073 12.339292-6.57584 9.571094-5.09454 7.818071-4.16256 6.610768-3.52258 5.728524-3.05192 5.049873-2.68793 4.519754-2.40794 4.089231-2.17861 3.72924-1.98262 3.437248-1.82796 3.174587-1.69462 2.963926-1.57863 2.763931-1.47463 2.605268-1.37996 2.449272-1.30664 2.317275-1.2373 2.197279-1.17197 2.095947-1.11331 1.994611-1.05864 1.90529-1.0173 1.82929-.97065 1.75195-.93597 1.67863-.89331 1.61862-.86398 1.5613-.83065 1.50663-.80264 1.45329-.77599 1.40663-.74398 1.3613-.72398 1.31997-.70398 1.27997-.68265 1.24263-.66265 1.20664-.64265 1.1773-.62665 1.14531-.61065 1.1093-.59066 1.08931-.58131 1.05864-.55999 1.03331-.55465 1.01064-.53466.98664-.52398.96131-.51332.94398-.502653.91997-.493321.90398-.478655.88398-.471988.86798-.462655.84798-.451989.83198-.441322.81731-.437322.80531-.426656.78665-.41999.76931-.410656.76132-.401324.74398-.401323.73598-.390657.71732-.385324.71065-.374657.69864-.369324.68665-.363991.67465-.359991.66799-.354658.65198-.349324.64665-.345325.63332-.338658.62532-.333325.61731-.327992.61066-.325325.60131-.318659.59066-.311992.57998-.313326.57599-.309325.56932-.302659.55998-.298659.55465-.291993.54532-.293326.53866-.287993.53465-.28266 1.04797-.553319.51333-.277326 1.00797-.534654.49865-.267993.48666-.255994.48399-.261326.48265-.253327.47199-.250661.46799-.253327.92397-.491988.45333-.241327.45199-.235994.88264-.473321.86398-.461322.85198-.453322.83198-.439989.41065-.221328.40666-.215995.39999-.217328.39999-.209328.39599-.210661.39066-.210661.39065-.205329.38533-.205328.37999-.201328 1.12397-.599985.73065-.390657.36399-.189329.35999-.190662.70932-.37999.34932-.185329.68798-.370657.34533-.178662.33866-.185329.33332-.174662.33333-.179996.33465-.173329.328-.175995.64665-.349325.32532-.169329.63732-.339992.31199-.167995.31333-.16533.61731-.329325.30266-.162662.60666-.319992.59598-.317326.29199-.154663.29333-.158662.29332-.154663.57466-.307992.28266-.14933.28266-.153329.28266-.14933.27732-.14933.28266-.143996.272-.147996.27732-.143997.27333-.149329.26666-.143997.27199-.143996.26666-.138663.26266-.143997.26666-.138663.52399-.277326.77065-.414657.25732-.134663.50266-.26666.24666-.134663.25199-.13333.24666-.13333.24666-.127997.24133-.127997.24666-.134663.48265-.255994.23733-.123997.23466-.127996.236-.122664.23732-.12933.236-.123997.69331-.369324.22533-.123997.22666-.11733.22533-.122664.45332-.237327 1.10397-.589319.43199-.226661.21467-.118664.21066-.11333.21599-.113331.63332-.337325.20933-.10933.20533-.111997.41198-.217328.20533-.111998.20533-.106664.2-.10933.20532-.107997.2-.107998.19999-.102664.196-.107997.19999-.107997.39066-.203995.2-.107998.19066-.102664.39066-.205328.18932-.103997.19067-.09733.37999-.205328.18932-.09733.18533-.102664.19067-.09867.18399-.09733.18533-.102664.37066-.194661.17999-.09866.184-.09733.17999-.09733.18-.092.17999-.09866.17867-.092.17999-.09733.17466-.092.18133-.09866.87331-.461322.16933-.09333.17333-.092.16933-.092.16933-.088.33999-.183995.33866-.175996.16533-.09066.16933-.088.98664-.523987.15866-.088.164-.08666.16-.08267.31732-.174662.16-.08266.15866-.08666.31866-.163996.15466-.088.16-.08266.92397-.491987.15333-.07867.14933-.08133.15467-.08266.14933-.08133.14799-.07733.148-.08133.15066-.07733.14933-.08267.29599-.154663.14533-.076.148-.08266.14533-.07733.148-.07733.71998-.385324.14266-.07067.144-.07733.13999-.07733.14267-.07733.13866-.072.13866-.07733.144-.07066.13866-.07733.27733-.143996.13866-.07733.13867-.07066.13466-.07333.13866-.072.13333-.076.13733-.072.13466-.07333.13867-.072.26666-.142663.13466-.068.39999-.215994.128-.07067.13466-.06666.132-.072.12933-.068.13333-.07066.128-.06667.12933-.07333.12799-.06667.128-.07066 1.02131-.538653.25332-.134663 2.54661-1.355966 4.04523-2.15728 1.05731-.566652 2.73726-1.451964 4.02257-2.142613 1.75195-.935977 1.01731-.538653 6.80116-3.626576 1.75196-.92931 3.80657-2.029283 1.05731-.561319 1.73729-.923977 3.98523-2.126613 1.00798-.53332 4.0479-2.15328 4.51988-2.409273 1.01731-.538653 12.32903-6.565169 16.38225-8.727782 1.01598-.539987 12.34502-6.5745024 4.02657-2.1479463 4.51589-2.4039399 1.24796-.6626501" stroke-dasharray="1.9726 1.9726 5.91783 1.9726"/></g></g><g stroke-width="1.3333"><g font-family="Helvetica" font-size="9.2055"><text transform="rotate(-90)" x="-152.96623" y="27.03035"><tspan stroke-width="1.3333" x="-152.96623" y="27.03035">time (RT) in FEs</tspan></text><text x="289.76819" y="182.61615"><tspan stroke-width="1.3333" x="289.76819" y="182.61615">scale n</tspan></text><text x="127.46952" y="177.37633"><tspan stroke-width="1.3333" x="127.46952" y="177.37633">LeadingOnes (Log-Log)</tspan></text></g><g font-size="8.2847"><text font-family="'Nimbus Sans'" x="105.50545" y="15.17904"><tspan stroke-width="1.3333" x="105.50545" y="15.17904">∀</tspan></text><text font-family="Helvetica" x="110.76626" y="15.17904"><tspan stroke-width="1.3333" x="110.76626" y="15.17904">n</tspan></text><text font-family="'Nimbus Sans'" x="114.70991" y="15.17904"><tspan stroke-width="1.3333" x="114.70991" y="15.17904">∈</tspan></text><text font-family="Helvetica" x="122.60502" y="15.17904"><tspan stroke-width="1.3333" x="122.60502" y="15.17904">[3…333]: 3333 runs</tspan></text><text font-family="'Nimbus Sans'" x="105.50543" y="25.124105"><tspan stroke-width="1.3333" x="105.50543" y="25.124105">∃</tspan></text><g font-family="Helvetica"><text x="109.11455" y="25.124105"><tspan stroke-width="1.3333" x="109.11455" y="25.124105">333&lt;n</tspan></text><text x="130.93533" y="25.124105"><tspan stroke-width="1.3333" x="130.93533" y="25.124105">≤</tspan></text><text x="138.31447" y="25.124105"><tspan stroke-width="1.3333" x="138.31447" y="25.124105">4096: 71 runs</tspan></text></g></g></g><g fill="none" stroke-linecap="round" stroke-linejoin="round" stroke-miterlimit="10"><path d="m15.755 29.212h61.388v-27.058h-61.388z" stroke="#000" stroke-width=".98667"/><g stroke-width="4"><path d="m22.381 10.986h13.255" stroke="#00f"/><path d="m22.381 19.839h13.255" stroke="#e82000"/></g></g><g font-family="Helvetica"><text fill="#00f" font-size="7.3626" stroke-width="1.3333" x="42.267387" y="13.219128"><tspan fill="#00f" stroke-width="1.3333" x="42.267387" y="13.219128">(1+1)EA</tspan></text><text fill="#e82000" font-size="7.3626" stroke-width="1.3333" x="42.267387" y="22.060217"><tspan stroke-width="1.3333" x="42.267387" y="22.060217">(1+1)FEA</tspan></text><text font-size="9.3333" stroke-width="1.7777" x="35.115295" y="200.86336"><tspan font-size="9.3333" stroke-width="1.7777" x="35.115295" y="200.86336">5</tspan></text></g><g font-family="Arial" stroke-width="1.3333"><g font-size="9.3333"><text x="61.916771" y="200.92348"><tspan font-size="9.3333" stroke-width="1.3333" x="61.916771" y="200.92348">10</tspan></text><text x="92.016586" y="200.92348"><tspan font-size="9.3333" stroke-width="1.3333" x="92.016586" y="200.92348">20</tspan></text><text x="131.25616" y="200.92348"><tspan font-size="9.3333" stroke-width="1.3333" x="131.25616" y="200.92348">50</tspan></text><text x="158.07893" y="200.92348"><tspan font-size="9.3333" stroke-width="1.3333" x="158.07893" y="200.92348">100</tspan></text><text x="188.17874" y="200.92348"><tspan font-size="9.3333" stroke-width="1.3333" x="188.17874" y="200.92348">200</tspan></text><text x="227.43166" y="200.92348"><tspan font-size="9.3333" stroke-width="1.3333" x="227.43166" y="200.92348">500</tspan></text><text x="254.25443" y="200.92348"><tspan font-size="9.3333" stroke-width="1.3333" x="254.25443" y="200.92348">1000</tspan></text><text x="284.34091" y="200.92348"><tspan font-size="9.3333" stroke-width="1.3333" x="284.34091" y="200.92348">2000</tspan></text></g><g font-size="10.667"><text x="294.03336" y="41.613033"><tspan font-size="10.667" stroke-width="1.3333" x="294.03336" y="41.613033">n² ln n</tspan></text><text x="313.63757" y="59.433739"><tspan font-size="10.667" stroke-width="1.3333" x="313.63757" y="59.433739">n²</tspan></text><text x="277.1203" y="14.91081"><tspan font-size="10.667" stroke-width="1.3333" x="277.1203" y="14.91081">n³</tspan></text><text x="297.58545" y="103.76746"><tspan font-size="10.667" stroke-width="1.3333" x="297.58545" y="103.76746">n ln n</tspan></text></g></g></svg>