<svg height="142.76pt" viewBox="0 0 333.23 190.34" width="249.92pt" xmlns="http://www.w3.org/2000/svg"><g transform="matrix(1.3333 0 0 -1.3333 -.27604 191.48)"><g fill="none" stroke-linecap="round" stroke-miterlimit="10" stroke-width=".73975"><g stroke="#bdbdbd" stroke-linejoin="round"><path d="m71.484 113.93h176.91"/><path d="m223.18 102.05v37.641"/><path d="m174.05 10.91v128.78"/><path d="m124.91 10.91v128.78"/><path d="m26.637 10.91v95.637"/><path d="m75.773 10.91v128.78"/><path d="m14.914 36.664h169.02"/><path d="m14.914 62.422h169.02"/><path d="m14.914 88.176h169.02"/></g><g stroke="#000"><path d="m14.914 10.91v128.78"/><path d="m14.914 10.91h-2.5743"/><path d="m14.914 36.664h-2.5743"/><path d="m14.914 62.422h-2.5743"/><path d="m14.914 88.176h-2.5743"/><path d="m14.914 113.93h-2.5743"/><path d="m14.914 139.69h-2.5743"/></g></g><path d="m2.81602 13.8359c-.46797 0-.875-.2187-1.125-.5468-.32813-.4532-.48399-1.109-.48399-2.0313 0-1.68788.54688-2.57772 1.60899-2.57772 1.03203 0 1.59414.88984 1.59414 2.53082 0 .9692-.15625 1.609-.46914 2.0782-.26485.3437-.6711.5468-1.125.5468zm0-.5468c.65703 0 .96914-.6719.96914-2.0161 0-1.42105-.31211-2.09292-.98399-2.09292-.64101 0-.96914.68711-.96914 2.06212 0 1.375.32813 2.0469.98399 2.0469z"/><path d="m5.4449 8.8359h.71914v.71914h-.71914z"/><path d="m8.73398 13.8359c-.46796 0-.875-.2187-1.125-.5468-.32812-.4532-.48398-1.109-.48398-2.0313 0-1.68788.54688-2.57772 1.60898-2.57772 1.03204 0 1.59412.88984 1.59412 2.53082 0 .9692-.1562 1.609-.46912 2.0782-.26484.3437-.67109.5468-1.125.5468zm0-.5468c.65704 0 .96915-.6719.96915-2.0161 0-1.42105-.31211-2.09292-.98399-2.09292-.64101 0-.96914.68711-.96914 2.06212 0 1.375.32813 2.0469.98398 2.0469z"/><path d="m2.81602 39.5941c-.46797 0-.875-.2191-1.125-.5472-.32813-.4528-.48399-1.109-.48399-2.0309 0-1.6879.54688-2.5781 1.60899-2.5781 1.03203 0 1.59414.8902 1.59414 2.5312 0 .9688-.15625 1.609-.46914 2.0778-.26485.3441-.6711.5472-1.125.5472zm0-.5472c.65703 0 .96914-.6719.96914-2.016 0-1.4219-.31211-2.093-.98399-2.093-.64101 0-.96914.6871-.96914 2.0621s.32813 2.0469.98399 2.0469z"/><path d="m5.4449 34.593h.71914v.71914h-.71914z"/><path d="m10.3281 35.1879h-2.5781c.06211.4211.28086.6871.875 1.0461l.70313.391c.67187.375 1.03087.891 1.03087 1.5 0 .4219-.1711.8129-.45314 1.0781-.29688.266-.65586.391-1.10898.391-.625 0-1.09375-.2351-1.35899-.6562-.17187-.266-.25-.5789-.26601-1.0789h.60898c.01602.3441.06328.5469.14102.7031.15625.3129.48398.5.84414.5.56211 0 .96796-.4062.96796-.9531 0-.3899-.23398-.734-.65585-.984l-.64024-.375c-1.01601-.5941-1.31289-1.0621-1.37578-2.1559h3.26599z"/><path d="m2.81602 65.348c-.46797 0-.875-.2191-1.125-.5468-.32813-.4532-.48399-1.1102-.48399-2.0313 0-1.6879.54688-2.5789 1.60899-2.5789 1.03203 0 1.59414.891 1.59414 2.532 0 .968-.15625 1.609-.46914 2.0782-.26485.3437-.6711.5468-1.125.5468zm0-.5468c.65703 0 .96914-.6723.96914-2.016 0-1.4223-.31211-2.0942-.98399-2.0942-.64101 0-.96914.6879-.96914 2.0629s.32813 2.0473.98399 2.0473z"/><path d="m5.4449 60.347h.71914v.71914h-.71914z"/><path d="m9.09414 61.5512v-1.2032h.59375v1.2032h.73401v.5468h-.73401v3.25h-.43789l-2.23398-3.157v-.6398zm0 .5468h-1.54726l1.54726 2.2032z"/><path d="m2.81602 91.102c-.46797 0-.875-.2192-1.125-.5469-.32813-.4531-.48399-1.1102-.48399-2.0321 0-1.6871.54688-2.5781 1.60899-2.5781 1.03203 0 1.59414.891 1.59414 2.5321 0 .9679-.15625 1.6089-.46914 2.0781-.26485.3429-.6711.5469-1.125.5469zm0-.5469c.65703 0 .96914-.6723.96914-2.016 0-1.4219-.31211-2.0942-.98399-2.0942-.64101 0-.96914.6879-.96914 2.0629s.32813 2.0473.98399 2.0473z"/><path d="m5.4449 86.101h.71914v.71875h-.71914z"/><path d="m10.266 89.7891c-.1101.8281-.641 1.3129-1.391 1.3129-.53086 0-1.01602-.2661-1.31289-.7192-.31211-.4848-.43711-1.0937-.43711-2 0-.8437.125-1.375.42188-1.8129.25-.4058.6871-.625 1.21914-.625.93711 0 1.60898.6879 1.60898 1.6723 0 .9219-.625 1.5629-1.5 1.5629-.48398 0-.85898-.1723-1.125-.5473 0 1.2344.39102 1.9223 1.09414 1.9223.42188 0 .71797-.2821.81172-.766zm-1.46912-1.1411c.59414 0 .95312-.421.95312-1.0781 0-.6398-.42187-1.0929-.96914-1.0929-.57773 0-1 .4839-1 1.1089s.42227 1.0621 1.01602 1.0621z"/><path d="m2.81602 116.855c-.46797 0-.875-.218-1.125-.546-.32813-.454-.48399-1.11-.48399-2.032 0-1.687.54688-2.578 1.60899-2.578 1.03203 0 1.59414.891 1.59414 2.531 0 .969-.15625 1.61-.46914 2.079-.26485.343-.6711.546-1.125.546zm0-.546c.65703 0 .96914-.672.96914-2.016 0-1.422-.31211-2.094-.98399-2.094-.64101 0-.96914.688-.96914 2.063s.32813 2.047.98399 2.047z"/><path d="m5.4449 111.86h.71914v.71875h-.71914z"/><path d="m9.53086 114.48c.51604.313.67224.563.67224 1.032 0 .797-.60896 1.343-1.46912 1.343-.875 0-1.48398-.546-1.48398-1.328 0-.484.17188-.718.67188-1.047-.5629-.281-.84375-.687-.84375-1.234 0-.922.67187-1.547 1.65585-1.547.95391 0 1.64102.625 1.64102 1.547 0 .547-.2809.953-.84414 1.234zm-.79688 1.829c.51602 0 .84415-.313.84415-.813 0-.469-.34415-.781-.84415-.781-.53085 0-.85898.312-.85898.797 0 .484.32813.797.85898.797zm0-2.094c.59415 0 1.01602-.406 1.01602-.985 0-.593-.40586-1-1.03086-1-.59414 0-1.01601.407-1.01601 1 0 .594.40585.985 1.03085.985z"/><path d="m2.69102 141.176v-3.563h.61015v5h-.39101c-.21914-.765-.35899-.875-1.29727-1v-.437z"/><path d="m5.4449 137.61h.71914v.71914h-.71914z"/><path d="m8.73398 142.613c-.46796 0-.875-.218-1.125-.547-.32812-.453-.48398-1.109-.48398-2.031 0-1.687.54688-2.578 1.60898-2.578 1.03204 0 1.59412.891 1.59412 2.531 0 .969-.1562 1.61-.46912 2.078-.26484.344-.67109.547-1.125.547zm0-.547c.65704 0 .96915-.671.96915-2.015 0-1.422-.31211-2.094-.98399-2.094-.64101 0-.96914.688-.96914 2.063s.32813 2.046.98398 2.046z"/><g fill="none" stroke="#000" stroke-linecap="round" stroke-miterlimit="10" stroke-width=".73975"><path d="m14.914 10.911h233.48v128.78h-233.48z"/><g stroke-linejoin="round"><path d="m26.637 10.91h196.54"/><path d="m26.637 10.91v-2.5743"/><path d="m75.773 10.91v-2.5743"/><path d="m124.91 10.91v-2.5743"/><path d="m174.05 10.91v-2.5743"/><path d="m223.18 10.91v-2.5743"/></g></g><path d="m22.9922 5.57383v-3.56172h.6098v5h-.3911c-.2187-.76602-.3589-.875-1.2968-1v-.43828z"/><path d="m27.059 7.01211c-.4692 0-.875-.21914-1.125-.54727-.3289-.45273-.4852-1.10976-.4852-2.03086 0-1.68789.5473-2.5789 1.6102-2.5789 1.0308 0 1.593.89101 1.593 2.53203 0 .96797-.1559 1.60898-.468 2.07773-.266.34414-.6719.54727-1.125.54727zm0-.54727c.6558 0 .968-.67187.968-2.01601 0-1.42188-.3122-2.09375-.984-2.09375-.641 0-.9692.68789-.9692 2.06289s.3282 2.04687.9852 2.04687z"/><path d="m31.5391 5.72305h-1.7969c.0469.28086.2027.46797.625.73398l.4848.26602c.4679.26484.7179.625.7179 1.04687 0 .2961-.125.56211-.3121.75-.2027.18711-.4687.26524-.7808.26524-.4379 0-.7661-.14024-.954-.45313-.125-.17187-.171-.39101-.1871-.75h.4371c.0161.23399.0321.375.0942.5.1098.20313.3277.34414.5937.34414.3911 0 .6719-.28125.6719-.65625 0-.28203-.1558-.53203-.4687-.7039l-.4371-.26485c-.7192-.40625-.9219-.73515-.954-1.5h2.2661z"/><path d="m72.1289 5.57383v-3.56172h.609v5h-.3899c-.2191-.76602-.3601-.875-1.2968-1v-.43828z"/><path d="m76.1949 7.01211c-.4679 0-.875-.21914-1.125-.54727-.3277-.45273-.484-1.10976-.484-2.03086 0-1.68789.5469-2.5789 1.609-2.5789 1.0321 0 1.5942.89101 1.5942 2.53203 0 .96797-.1563 1.60898-.4692 2.07773-.2648.34414-.6719.54727-1.125.54727zm0-.54727c.6571 0 .9692-.67187.9692-2.01601 0-1.42188-.3121-2.09375-.984-2.09375-.641 0-.9692.68789-.9692 2.06289s.3282 2.04687.984 2.04687z"/><path d="m79.816 6.14492v-.84375h.4219v.84375h.516v.375h-.516v2.26524h-.3117l-1.5473-2.18711v-.45313zm0 .375h-1.0781l1.0781 1.5461z"/><path d="m121.27 5.57383v-3.56172h.609v5h-.391c-.218-.76602-.359-.875-1.297-1v-.43828z"/><path d="m125.336 7.01211c-.469 0-.875-.21914-1.125-.54727-.328-.45273-.484-1.10976-.484-2.03086 0-1.68789.546-2.5789 1.609-2.5789 1.031 0 1.594.89101 1.594 2.53203 0 .96797-.157 1.60898-.469 2.07773-.266.34414-.672.54727-1.125.54727zm0-.54727c.656 0 .969-.67187.969-2.01601 0-1.42188-.313-2.09375-.985-2.09375-.64 0-.968.68789-.968 2.06289s.328 2.04687.984 2.04687z"/><path d="m129.785 7.87891c-.078.57812-.453.90625-.969.90625-.375 0-.718-.17227-.921-.48399-.219-.34414-.313-.78125-.313-1.40625 0-.59375.094-.96875.297-1.26601.187-.29688.484-.43789.859-.43789.657 0 1.125.48515 1.125 1.17187 0 .64102-.437 1.09414-1.062 1.09414-.328 0-.594-.125-.781-.39101 0 .875.281 1.34414.765 1.34414.297 0 .5-.18711.578-.53125zm-1.031-.79688c.406 0 .672-.29687.672-.75 0-.45312-.297-.76601-.688-.76601-.39 0-.687.3289-.687.78203 0 .43711.281.73398.703.73398z"/><path d="m170.402 5.57383v-3.56172h.61v5h-.391c-.219-.76602-.359-.875-1.297-1v-.43828z"/><path d="m174.469 7.01211c-.469 0-.875-.21914-1.125-.54727-.328-.45273-.485-1.10976-.485-2.03086 0-1.68789.547-2.5789 1.61-2.5789 1.031 0 1.593.89101 1.593 2.53203 0 .96797-.156 1.60898-.468 2.07773-.266.34414-.672.54727-1.125.54727zm0-.54727c.656 0 .969-.67187.969-2.01601 0-1.42188-.313-2.09375-.985-2.09375-.641 0-.969.68789-.969 2.06289s.328 2.04687.985 2.04687z"/><path d="m178.402 7.14492c.36.21797.469.39024.469.71797 0 .54727-.422.92227-1.031.92227-.61 0-1.031-.375-1.031-.92227 0-.32773.109-.5.468-.71797-.39-.2039-.593-.48476-.593-.875 0-.64101.468-1.0789 1.156-1.0789.672 0 1.156.43789 1.156 1.0789 0 .39024-.203.6711-.594.875zm-.562 1.26524c.359 0 .594-.21914.594-.56211 0-.32813-.235-.54688-.594-.54688-.36 0-.594.21875-.594.56172 0 .32813.234.54727.594.54727zm0-1.46914c.422 0 .719-.28086.719-.68711 0-.40586-.297-.68789-.735-.68789-.406 0-.703.28203-.703.68789 0 .42226.281.68711.719.68711z"/><path d="m218.059 5.57383v-3.56172h.609v5h-.391c-.218-.76602-.359-.875-1.297-1v-.43828z"/><path d="m222.125 7.01211c-.469 0-.875-.21914-1.125-.54727-.328-.45273-.484-1.10976-.484-2.03086 0-1.68789.546-2.5789 1.609-2.5789 1.031 0 1.594.89101 1.594 2.53203 0 .96797-.157 1.60898-.469 2.07773-.266.34414-.672.54727-1.125.54727zm0-.54727c.656 0 .969-.67187.969-2.01601 0-1.42188-.313-2.09375-.985-2.09375-.64 0-.968.68789-.968 2.06289s.328 2.04687.984 2.04687z"/><path d="m225.418 7.78516v-2.48399h.422v3.48399h-.281c-.141-.53125-.235-.60899-.891-.68711v-.31289z"/><path d="m228.453 8.78516c-.312 0-.609-.14024-.781-.375-.234-.31211-.344-.76524-.344-1.42227 0-1.17187.391-1.79687 1.125-1.79687.719 0 1.125.625 1.125 1.76601 0 .68789-.109 1.14102-.344 1.45313-.172.23476-.453.375-.781.375zm0-.375c.453 0 .688-.46914.688-1.40625 0-1-.219-1.46875-.703-1.46875-.438 0-.672.48476-.672 1.45273 0 .95313.234 1.42227.687 1.42227z"/><g fill="none" stroke-linecap="round" stroke-linejoin="round" stroke-miterlimit="10"><path d="m14.914 139.69h233.48" stroke="#bdbdbd" stroke-width=".73975"/><path d="m14.9141 10.9102h2.7187l.2461.1328 3.9961.125.7621.1332 1.2109.125 1.234.1328.168.125 1.0621.1281.3438.1289.3363.1289.0898.1289.027.1293.1961.1289.0539.1289.1371.125.043.1332.1328.1289.3359.129.0781.1281.109.1289.0321.1289.0929.125.0352.1332.1371.125.1637.1328.0511.1289.1371.125.195.1332.1168.125.5.132.3171.125.0231.1329.0859.125.152.1293.2039.1328.0742.125.0149.1332.0351.125.3559.1328.0898.125.0231.1281.0203.1289.1558.1289.0078.1289.1801.1293.1442.1289.0308.1289.118.125.066.1332.1602.1289.0898.129.0082.1281.0469.125.3238.1328.0231.125.0941.1332.0699.125.0321.1328.007.1293.043.125.1101.1328.109.125.016.132.027.2579.1129.125.0628.1293.0043.1289.1129.1289.0508.1332.0043.125.0617.1328.1172.125.0711.1281.168.1289.1519.1289.1328.1289.0582.1293.036.1289.05.1289.0469.125.055.1332.086.1289.0781.129.0512.1281.316.125.0387.1328.0472.2582.0039.125.027.1328.0082.1293.0238.125v.1328l.027.125.0781.132.0117.125.1051.1329.0633.125.1168.2582.0621.1289.0508.1289.055.1293.0352.1328.0348.125.0312.1281.2149.1289.0039.1289.0121.1289.434.1293.214.125.0121.1328.1559.125.1488.1332.0152.1289.3481.129.1289.125.1289.1281.016.1328.0891.125.1719.1332.1882.125.0469.1328.0621.1293.0821.125.0039.1289.141.1289.0539.132.0238.125.125.1329.0781.125.07.1293.0589.1289.0231.1289.0351.1289.0629.1293.1211.1289.016.1289v.1281l.0579.1289.1839.125.0582.1328.0321.1293.1211.125.0617.1328v.125l.0391.1332.0468.125.0203.1329.0387.2531.0231.1328.1332.125.0039.1332.066.125.016.1328.0699.125.0039.1293.0282.1289.0429.1289.0192.132.0589.125.05.129v.1289l.0079.1293.039.1289.266.1289.0313.1289.0937.1293.027.125.157.1328.1281.125.0161.132.0781.125.2617.1328.027.1293.2543.125.0668.1328.0851.125.0199.1332.0821.125.0429.1329.016.1281.0348.125.1402.1289.0399.1289.007.1293.0121.1289.266.1289.0391.1289.1328.1293.0742.1289.027.1289.0469.1289.2582.1281.4058.129.0039.1289.1051.1293.0039.1289.0781.125.3911.1328.016.1293.2301.125.0269.1328.0117.125.0672.132.1949.125.0161.1328.0539.125.0941.1293.066.1328.0551.125.0629.1332.0109.125.3281.1329.1098.125.0192.1281.164.1289.2738.1289.0082.1332.1481.125.4648.125.0192.1328.0078.1293.0633.1289.0738.1289.023.1289.0282.1281.0386.129.1051.1289.0121.125.0039.1332.0903.1289.1289.1289.1679.1293.1008.125.2934.1328.125.125.0277.132.0891.125.082.1328.043.125.016.1293.0898.1328.1832.125.0282.1332.0039.125.1008.1289.0902.129.0117.1281.1684.1289.0039.1289.1051.1293.2699.1289.0039.125.218.1328.0902.1289.2027.1293.4262.1289.125.1289.043.1281.0347.125.0903.1329.0121.125.0187.1332.0629.1289.1211.1289.0941.1293.0579.125.1171.1328.0551.125.0199.132.027.125.0199.1289.218.1289.0512.1293.18.1289.0739.1289.2851.1332.102.2539.0699.129.027.1281.0199.1289.0082.1289.0039.1293.1129.1289.0043.125.125.1328.109.1289.0507.1293.1442.1289v.1289l.1058.1281.1801.125.0192.1329.1839.125.211.1332.0039.125.023.1289.1481.1332.0828.125.1012.1328.039.125.141.132.2969.125.6051.1289.0348.1289.2582.1293.0699.1289.0898.1289.1102.1332.1601.125.0821.1289.0078.129.1211.1281.2808.1289.0512.1289.0348.1293.1562.1289.0739.125.2031.1328.0359.1289.1559.1293.1832.1289.0508.125.082.132.0043.125.2738.1329.109.125.0039.1332.0981.125.023.1289.082.1332.0039.125.0082.1289.0739.1289.0468.132.2262.125.016.1289.0469.1289.0621.1293.032.1289.1719.1289.0352.1332.0109.125v.1289l.3559.129.0941.1281.2461.1289.277.1289.0078.1293.316.1289.1762.125.2808.1328.1492.1289.3629.1293.1168.125.0512.1289.1211.132.234.125.266.1329.1211.125.3047.1332.0472.125.011.1289.0238.1289.016.1293.1012.1328.191.125.2969.132.141.125.0859.125.2461.1328.1481.1293.0398.1289.152.1289.0121.1332.0699.125.2582.125.0039.1329.109.1281.023.1289.0899.1289v.125l.0391.1332.1019.125.0039.1328.0703.125.0938.1332.0703.125.0348.1289.1058.132.0274.125.016.129.0468.1289.011.1332.0512.125.1128.1289.0079.1289.0941.1293.2191.1289.0539.1289.0899.1289.1961.1281.1359.125.1449.1328.0192.1293.0121.1289.1719.1289v.125l.25.1332.266.125.273.1329.0121.1281.0661.1289.2109.125.223.1289.152.1293.059.1289.0187.1328.1492.125.129.1332.023.125.1879.1289.0191.1289.1481.1281.223.129.1719.1289.0621.1332.0359.125.2219.125.2031.1328.0391.2582.516.1289.0039.125.016.132.0391.1289.207.1289.0618.125.0351.1332.0469.1289.0941.125.141.1332.086.125.3672.1329.0117.125.082.132.0821.125.1519.1289.0941.1332.1829.125.0511.1289.0391.1289.2418.1332.3871.125.027.1289.1371.1289.0468.1281.2692.129.1488.1289.0039.125.1293.1332.0539.125.1102.1328.0187.1293.0242.1289.0348.1289.1371.125.8238.132.0313.125.332.1328.0117.125.0582.1332.1879.1289.211.125.0082.1332.25.125.05.1329.0898.125.1492.132.1008.125.059.1289.0781.1293.3399.1289.1172.1289.0699.1289.5238.1332.1332.125.0578.1289.184.1289.0742.1281.043.129.1449.1289.0973.125.3047.1332.0429.1289.0551.1289v.1293l.0582.1289.266.1289.0618.125.125.132.2421.125.0551.1328.1489.125.0308.1332.0274.125.0199.1289.1437.1332.5512.125.066.1329.075.125.136.132.0511.125.1207.1289.2274.1293.0269.1289.1949.1289.184.1289.168.1289.027.1293.0039.1289.0781.1289.2351.2571.0899.1289.4488.125.0742.1332.184.125.0539.1328.5039.1293.2071.1289.0671.1289.0391.125.0188.132.1171.125.684.1328.016.125.168.1332.1828.125.4532.1289.207.1289.0281.1293.1051.1329.1637.125.0121.1281.0082.1289.0187.1289.0281.1293.0149.1289.0672.1289.0469.1289.2218.1289.2274.1293.4879.1289.0347.1289v.1281l.1211.129.0981.1289.0511.125.1207.1332.3793.125.5778.1328.0082.1293.1359.1289.2149.125.164.1289.125.132v.125l.0942.1328.3199.125.0512.1293.2738.1289.132.1289.1289.1332.0629.125.375.1329.2852.125.066.1281.164.1289.2821.1289.359.1293.1757.1289.5391.1289.016.1289.484.1289.0313.1293.0277.125.1871.1328.434.1281.293.129.007.1289.141.125.0039.1332.4609.125.4332.1328v.125l.793.1293.036.1289.273.1289.8398.132.2262.125.2352.1289.1168.1289.098.1293.1129.1289.4262.1289.2027.1332.0434.125.5039.1289.05.129.075.125.0187.132.0782.1289.0039.1293.0203.1289.2929.1289.3629.1289.102.125.2609.1332.0903.125.0589.1328.1637.1281.0434.129.2218.125.0551.1289.027.1332.0359.125.882.1328.012.125.02.1293.054.1289.219.1289.207.1281.586.1289.004.1289.199.1289.051.1293.004.1289.117.1289.086.1289.367.1293.332.1289.297.129.391.1281.09.1289.457.125.129.1332.019.125.02.1328.011.1289.434.125.293.1332.152.125.254.1328.043.125.027.1281.325.129.195.1289.121.1332.109.125.536.1289.054.1289.024.1293.215.1289.003.1289.184.1281.055.1289.301.1328.101.125.137.125.64.1332.02.1289.09.1289.668.1293.058.1289.274.129.207.125.16.132.156.125.367.1332.02.125.195.1289.063.1328.164.125.004.1332.004.125.132.1328.047.125.578.1281.239.129.355.129.004.129.32.129.274.129.125.129.121.129.008.129.734.129.254.128.102.129.097.129v.129l.184.125.211.133.465.129.355.129.719.129.211.125.16.133.109.125.668.132.035.125.067.133.043.125.707.129.219.129.25.129.308.133.192.125.343.133.125.125.106.128.101.129.106.129.203.129.043.129.277.129.317.129.347.129.243.129.113.129.051.128.078.129.027.125.277.133.516.125.082.133 1.109.125.043.133.118.129.812.125.059.133.176.125.242.132.125.125.019.133.059.125.055.129.246.129.14.129.055.133.039.125.531.133.305.125.156.128.223.129.336.129.008.129.195.129.683.129.051.129.242.129.325.129 1.066.129.32.128.211.129.442.125.676.133.562.125 1.508.133.16.125.109.133.758.129.274.125.125.133.082.125.164.132.172.125.171.133.145.125.203.129.172.129.195.129.938.133.347.125.266.133.027.125.008.128.102.129.254.129v.129l.601.129.102.125.101.133.25.129.012.129.297.125.406.132.492.129.481.125.07.133.278.125.109.133.035.125 1.43.133.797.129.199.125.348.133.164.125.015.132.055.125.371.133.148.125.024.129.148.129.297.129.074.133.055.125 1.801.125.371.133.297.128.082.129.289.129.523.129.555.129.059.125.015.133.449.125.067.133.047.125.277.132.012.129.133.125.156.129.058.129.364.133.246.125.258.133.023.129.227.125.078.129.41.129.098.128.136.129.129.129.813.129.445.129.004.129.047.125.164.133.937.129.645.125.215.133.144.128v.129l.246.125.016.133.746.129.246.125.274.133.496.125.531.133.316.129.961.128.117.126.141.128.235.129.687.129 1.027.133.446.125.23.129.375.129.801.129.484.129 1.696.129.421.132.032.125.804.129 1.11.129.234.125.184.133 1.133.129.539.129.925.129.309.125.605.133.36.125.445.132.445.125.051.133.145.129.078.125.332.129 1.137.129.363.133.059.125.191.132.055.126.171.128.036.129.023.129 1.93.129.347.129.125.129.707.129.125.129.411.129.449.129.527.128.227.129.031.125.012.133.23.125.324.133.5.129.102.129.238.129.563.125.992.133.137.125.695.132.301.125.168.133 1.738.125.164.129 1.629.129.473.129.269.133.254.125 1.156.129.434.129.941.128.832.129 1.098.129.23.129 2.004.129.18.129.051.129.82.129 1.082.129v.511l.008.133.484.125 1.36.133.195.125 1.09.133 2.156.129.332.125.094.133.297.125.789.132.98.125.43.129.301.129v.387l.004.133v.125l.015.129 1.582.129 2.211.128.223.129 1.551.129v.774l.215.129.453.128.39.129.567.125 2.867.133v.77l.012.133 1.894.125 2.121.132v.125l.004.129.133.129 2.367.129 1.387.129 1.289.129 2.734.133v.125l4.496.129.258.129h14.485" stroke="#00f" stroke-width="1.4795"/><g stroke-width="1.9726" transform="matrix(.75 0 0 -.75 0 143)"><path d="m95.312383 16.575983.218281-.138642.1-.177333.181334-.166667.02653-.172.04693-.172.119734-.170667.192133-.172.02667-.172.09893-.172.02653-.172.0464-.172.104134-.172v-.172l.07347-.172.1292-.172.052-.170666.02133-.172.01613-.166667.0824-.177333.302533-.166667.104134-.177333.0308-.166667.03747-.177333.4-.172.02653-.166667.06253-.177333.01093-.166667.01453-.176.01627-.166667.04107-.172.08907-.172.0828-.172.109466-.172.0572-.172.359867-.177333.339067-.166666.05733-.172.08227-.172.2188-.1706671.125466-.172.119867-.172.0057-.172.3224-.172.197341-.1666667.0839-.1773333.0631-.172.94213-.172.10414-.172.005-.1706667.0573-.172.3964-.1666666.0359-.1773334.34373-.1666666.0631-.1773334.17706-.1666666v-.172l.47867-.1773333.0213-.1666667.0667-.1773333.46413-.1666667.40147-.176.42147-.1666666.40614-.172.18707-.172.57866-.172.24-.172 1.536-.172.38547-.1773334.0837-.1666666.005-.172 3.62906-.172h219.9176" stroke="#f00"/><path d="m87.145728 48.60415.02094-.06281.0104-.166666.06827-.177334.0468-.166666.01053-.176.1348-.166667.0052-.177333.01613-.166667.036-.172.0104-.172.02547-.172.0428-.177333.0052-.166667.01973-.177333.0844-.166667v-.170667l.0052-.172.07707-.172.01613-.172.0052-.172.06307-.172v-.172l.0412-.172.06813-.172.01987-.172.03173-.170666.0256-.172v-.344l.0624-.166667.0057-.177333.0052-.166667.09333-.177333.0052-.172.07853-.166667.09907-.177333.0932-.166667.0948-.176.0052-.166667.01973-.177333.0057-.166667.02653-.172.0464-.172.0776-.172.08907-.177333.01093-.166667.01467-.177333.03747-.166667.0104-.170666.02027-.172.0156-.172.03653-.172.04107-.172.048-.166667.06667-.177333.0896-.172.07707-.172.0052-.166667.03747-.176.06667-.172.08907-.166667.05213-.177333v-.166667l.104133-.177333.02653-.166667.0041-.177333.0053-.172.01613-.166666.0676-.177334.1256-.166666.07187-.176.03227-.166667.0052-.177333.109333-.166667.0095-.172.04267-.172.0308-.172.130133-.177333.02027-.166667.08387-.166667.0308-.177333v-.170667l.02653-.172.04173-.172.07853-.172.06773-.172.036-.166666.02027-.177334.177067-.166666.02133-.177334.0052-.166666.08813-.176v-.172l.0057-.166667v-.172l.04107-.172.0052-.177333.02133-.166667.04173-.177333.0984-.172.03173-.166667.0057-.172.036-.172.0104-.170667.036-.172.02133-.172.01093-.172.161466-.172.1088-.172.0256-.166666.0052-.177334.0057-.172.0156-.166666.02547-.177334.1052-.170666.0308-.172.0052-.166667.0057-.177333.02493-.172.204133-.166667.0308-.177333.03587-.166667.06773-.177333.02133-.172.01093-.170667.0256-.168.0052-.170667v-.172l.0052-.172v-.177333l.06827-.166667.0104-.172.1812-.172.0052-.172.02133-.172.0308-.172.0844-.176.05147-.166666v-.172l.01093-.172.01467-.166667.06253-.177333.0572-.172.09893-.172.08907-.172.06307-.166667.036-.177333.104133-.166667.07867-.176.04107-.166666.036-.177334.0052-.172.1-.166666.02547-.172.05213-.349334.0412-.166666.052-.176.07347-.168.0104-.342667.0308-.172.04267-.344.03587-.172.0052-.172.01627-.172.03587-.172.07347-.172.01453-.170667.06827-.172.03587-.166666.0376-.177334.04627-.166666.109466-.177334.171867-.172.01093-.172.1812-.172.0104-.166666.1152-.177334.124934-.166666.04173-.176.07853-.166667.0412-.177333.0052-.166667.06827-.172.01973-.172.05252-.03336" stroke="#ffc8c8"/><path d="m19.885466 176.11974h37.458266l.0308-.17707.4588-.16667 1.978667-.1776.666666-.16666.266667-.17707.0828-.16667.1984-.1708.687066-.17186.0156-.17187 1.188-.17187.104134-.1724.374533-.17186.1348-.17187.162533-.16667.0204-.1776.212934-.17186.292266-.172.2708-.1708.02653-.17187.1292-.17187.04787-.16666.01467-.1776.0416-.16667.162533-.17707.06147-.17186.05307-.16667.0041-.1776.3188-.16667.0052-.176.04693-.16666.06773-.1772.03587-.16667.04173-.1724.119733-.17707.036-.16666.209333-.1776.052-.16667.036-.17707.130667-.16666.0464-.1708.192267-.17187.302533-.17187.02547-.17186.06773-.1724.05213-.17187.130667-.17187.150533-.16666.0057-.1776.08387-.17187.01987-.172v-.1708l.104133-.16667.0052-.17706v-.16667l.204134-.1776.0256-.16667.0676-.17706.01613-.1724.0256-.16667.0464-.17707.0468-.16666.02653-.176.0052-.16667.05213-.1772.0104-.16667.0256-.1724v-.17186l.0052-.17187.03747-.1776.03067-.16667.01613-.17706.01987-.16667.052-.1708.0053-.17187.08947-.17186.0412-.17187.03067-.1724.02667-.17187.0052-.17186.09373-.16667.0052-.1776.06253-.17187.02547-.172.0104-.1708.0052-.34373.05787-.16667.1932-.1776.036-.16666.02133-.17707.0932-.1724.01613-.16667.1812-.17706.01053-.16667.052-.176.02653-.16667.0057-.1772.01053-.16666.03067-.1724v-.17187l.0104-.17187.03653-.17186.0156-.1724.01093-.17707.02493-.16667.0057-.1708.07293-.17186.0057-.17187v-.17187l.109333-.1724.1292-.16666.02133-.17707.07347-.16667.07707-.1776.05733-.17186.01613-.172.04693-.16667v-.1708l.03173-.17707.02547-.16666.06773-.1776.0828-.16667.0104-.17707.02133-.1724.01093-.16666.0412-.17187.0308-.17187.02653-.176.0468-.16666.08387-.1772.0041-.16667.05213-.34427.06253-.17186.07347-.17187.02653-.34427.0093-.17186.05213-.1708.02653-.17187.109333-.16667.0104-.34946.05733-.16667.04173-.17707.052-.16666.036-.1776.03173-.16667.01613-.1772.0932-.1708.1204-.16667.0156-.17706.0468-.16667.05733-.1776.01987-.16667.01613-.17706.02133-.16667v-.1724l.02547-.17187.1412-.17186.02547-.176.05733-.16667.03173-.172.0256-.17187.0104-.1724.02547-.17186.0104-.17187.02133-.17187.140134-.1724.01093-.16666.0412-.17707.02133-.16667.109334-.176v-.16666l.0412-.17707.05213-.1724.04267-.16667.01453-.17706v-.16667l.01093-.1776.0464-.16667v-.1772l.01093-.1708.0156-.16666.0308-.17187.052-.17187.01093-.1724.0156-.5156.0308-.1724.01093-.17186.0052-.17187.01613-.17187.02507-.1708.0057-.172.0104-.17186.03587-.1724.02133-.17187.05213-.16667.02653-.17706.04173-.1724.0932-.16667.05213-.17707.07853-.16666.0412-.176.0104-.16667v-.17707l.03653-.16666.02653-.1724.03587-.17707.01613-.16667.103733-.1776v-.34386l.01093-.16667v-.1708l.0828-.17187.02653-.17186.0412-.1776.0828-.16667.0052-.16667.01613-.17706.0104-.1724.0932-.17187.02133-.17187.0256-.17186v-.1708l.04267-.172.01467-.17187.0468-.16667.0104-.1776.02653-.17186.04173-.17187.0104-.33907.0308-.17706v-.16667l.0052-.176.03747-.16667.03587-.17706.06253-.33907.02027-.17707.0053-.16666.02653-.1776.01613-.16667v-.17187l.01453-.172.0052-.1708.01093-.17186.02133-.17187.09853-.1724.01613-.17187.0052-.16666.0041-.17707.06827-.17187.0104-.1724.0052-.17186.0308-.17187.01093-.1708v-.16667l.02133-.1772.0052-.16666.0052-.1776.0984-.17187v-.17187l.0828-.1724.03227-.16666v-.17707l.036-.16667.0052-.176.05213-.16666.01613-.17187.03587-.17187.0464-.1724.0057-.17186.0104-.17187.02653-.1776.0095-.16667.01613-.17186.088-.172.03173-.1708.01613-.17187.036-.17187.02133-.1724v-.17186l.01453-.16667.104133-.17707.048-.17186.01453-.1724v-.17187l.01613-.17187.06253-.1708.0052-.16666.0057-.1772.01987-.16667.03227-.1776.01453-.16667.02653-.17186.02133-.1776.0464-.16667.05213-.17707.02547-.16666.03173-.176.09387-.16667.0156-.17186.01093-.34427.07187-.17187v-.17186l.052-.1776.02147-.16667.03587-.17187.02133-.172.0104-.1708.0204-.17186.04267-.17187.0104-.1724.036-.17187.01093-.16666.01453-.17707.02653-.17187.0052-.1724.06307-.17186v-.16667l.0104-.176.0204-.16667.07853-.1772.01467-.16666.08907-.1776.01093-.33854.02493-.1776.01093-.16666.036-.17187.01613-.17187.06773-.176.0416-.33853.0104-.17187.04173-.1724.0104-.17186v-.17187l.0104-.1776.04693-.33853.03587-.172.0052-.1708.03227-.17187.202667-.17187.01613-.1724.06667-.17186.03173-.16667.01613-.17707v-.17186l.0095-.1724.0104-.16667.05213-.17187.04267-.176.0776-.16666.0208-.1772.0308-.16667.01093-.1776v-.33853l.0052-.17187.02547-.1724.0104-.17707.07347-.16666.08387-.176.03587-.16667.0057-.16667.01053-.17706.01453-.1724.01093-.17187.0156-.17187.0057-.1776.01453-.16666.02147-.16667.07333-.1772.02507-.1708.02133-.17187.01613-.17186.01987-.16667.08947-.1776.0053-.16667.0093-.17706v-.16667l.03747-.1776.01987-.16667v-.17186l.01613-.176.0572-.16667.0104-.172.04693-.17187.036-.1776.0052-.16666.02133-.17187.03587-.17187.01093-.34426.04693-.17187.0156-.17187.0052-.1708.145867-.16666.03173-.17707.01987-.1724.01093-.17187v-.17186l.03587-.16667.048-.1776.03067-.16667.01613-.1772.0052-.1708.05213-.17186.02493-.16667.06307-.17187.0052-.1724.05733-.17186.0052-.17707.0057-.16667v-.1776l.01973-.16666.0052-.17187.01093-.17187v-.1708l.0104-.172.0052-.17186.0204-.1776.02653-.16667.109333-.16667.02133-.17706.01467-.1724.02133-.17187.01613-.17187.01987-.16666.02653-.176.01613-.17187.03067-.17187.104267-.16666.0052-.1776.0052-.17187.0052-.344268.01093-.166666.0093-.1772v-.166667l.0052-.176.02133-.166667.06773-.171866.03653-.1776.02653-.166667.0104-.171867.0041-.171866v-.1776l.0052-.166667.05213-.171867.02653-.171866.01613-.1708.0093-.172.0053-.171867.04267-.166667.03587-.1776.0052-.166666.01093-.177067.0053-.1724.01453-.171867.06307-.171866.0572-.166667.0156-.176.01627-.166667v-.177066l.0041-.166667.01613-.1776.02653-.171867.01453-.166666v-.1776l.0053-.166667.052-.1772.0052-.166667.05213-.176.01613-.166666.05733-.171867.04107-.1724.01613-.171867.04693-.171866.0208-.171867.01613-.1776.0256-.166667.02133-.343733.0052-.1708.0093-.172.02133-.171867.01613-.166666.0052-.1776.01467-.171867.02653-.171866.01093-.1724.0412-.171867.02133-.171867.02547-.166666.02133-.176.01987-.166667.03173-.177067.04693-.166666.04107-.1776v-.166667l.01093-.171867.04693-.1776.03173-.166666.0052-.1772.0256-.166667.03173-.176v-.166667l.0416-.344266.0052-.171867v-.171867l.0772-.171866.03227-.344267v-.171867l.0572-.171866.0095-.1708.0052-.172.02133-.171867.0052-.166667.01093-.1776.0052-.166666.0052-.177067.06147-.344267v-.171866l.0104-.166667.03227-.176.0095-.166667.01613-.177066v-.166667l.02653-.1776.0464-.166667.02027-.171866.0052-.171867.06253-.1724.02653-.1772.01093-.166667.109334-.1708.0053-.171866.0932-.171867.02027-.688v-.171867l.0052-.1724.03747-.171866.02507-.171867.01093-.1708.02133-.172.0052-.171867.036-.166666v-.1776l.03067-.166667.03747-.177067.01987-.1724.0052-.171866.0468-.166667.01053-.171867.01093-.176.0052-.166666.052-.177067.0104-.166667.109467-.1724.02547-.171866.0104-.171867.0896-.1776v-.166666l.036-.1772.0052-.166667.03067-.342667.0428-.171866.06667-.1724.0052-.171867.02133-.171867.0057-.171866.0624-.171867.01987-.1724.01093-.166667.0052-.177066.0104-.1708.02027-.172.01053-.171867.03227-.166667v-.1776l.03067-.166666.02133-.177067.06253-.166667.0052-.1724.06667-.171866.0052-.171867.05787-.176.0208-.166667.03653-.171866.0676-.171867.02147-.1724.052-.171867.0093-.171866.02667-.1776.01613-.166667.07187-.171867.01093-.172.02653-.166666.0052-.176.04693-.171867v-.1724l.0104-.171867.02547-.171866.02133-.338534v-.1776l.01987-.166666.03747-.177067.036-.1708v-.338667l.0052-.171866.03587-.1776v-.166667l.03227-.177067.06253-.166666.0308-.1724.03587-.171867v-.171867l.0104-.1708.04693-.171866.01093-.171867.03693-.171867.0256-.1724.0104-.171866.052-.171867.06827-.171867.02507-.1724v-.171866l.06293-.172.0156-.1708.0256-.171867.02133-.166667.03067-.1776.03187-.166666.0416-.177067.0156-.171866.0308-.166667.03227-.1776.0052-.166667.0052-.177066.01467-.166667.0572-.1708.01093-.172.0052-.171867.01093-.1776.0052-.166666.0095-.171867.04787-.171867.0828-.1724.06773-.171866.01613-.171867.06147-.342667.02653-.177066.0412-.166667.02133-.166667v-.1776l.02547-.171866.05733-.171867.04267-.1724v-.171867l.1188-.172.0156-.166666.0057-.176.07867-.166667.01987-.1776.0624-.166667.01093-.171866.01613-.177067.036-.166667.02653-.1776.0828-.166666.0052-.177067.02133-.337467.036-.172.0412-.172.052-.344.02133-.172.05213-.172.0104-.172.01613-.172.0095-.172.02653-.170666.03587-.172.01093-.172.02133-.338667.05213-.177333.06253-.172.01453-.172.06827-.172.0052-.166667.01613-.177333v-.166667l.05733-.176.0932-.166667.114533-.177333.05213-.166667.04693-.172v-.172l.0052-.172.0104-.177333.03587-.166667.01093-.177333.05733-.166667.036-.170666.01093-.172.0624-.344.01613-.172v-.172l.114666-.172.0052-.172.0932-.172.06307-.172.04627-.170667.01093-.172.01987-.166666.01613-.177334.02653-.166666.06147-.177334.0156-.166666.01093-.177334.0364-.10919" stroke="#f00"/><g stroke-dasharray="1.97265 5.91797"><path d="m289.62533 54.608689v-.05668l.005-.172v-.172l.009-.166667.005-.177333.005-.166667v-.176l.005-.166667.0107-.177333.0107-.338667v-.172l.005-.172v-.177335l.0147-.166667.005-.177333.005-.166667.016-.170666v-.172l.0307-.172.048-.172.036-.172.11467-.172.156-.172.104-.172.156-.172.052-.172.188-.170667.12-.172.02-.166666.324-.177334.009-.166666.0947-.177334.0107-.166666.64534-.177334.156-.172.17733-.166666.50533-.177334.068-.166666.036-.176.068-.166667.47334-.177333 1.66666-.166667v-3.953333l.005-.166667v-.516l.005-.177333v-.686667l.005-.166667v-.172l.0213-.172v-.172l.009-.177333.0213-.166667.016-.177333.005-.166667.0413-.342666.005-.172.0307-.172.0267-.172.036-.166667.136-.177333.0147-.172 1.33334-.172.66266-.166667.056-.176.15734-.172.5-.166667.0413-.177333 1.328-.166667.72933-.177333v-3.604l.005-.172v-.166666l.005-.177334v-.344l.02-.166666.005-.176.0467-.172.0213-.166667v-.172l.052-.172.0467-.177333.0267-.166667.0107-.177333.0253-.172.11466-.166667.016-.172.11467-.172.052-.170667.0773-.172.20934-.172 1.04666-.172.10934-.172.968-.172.412-.166666.448-.177334 1.16133-.172.36933-.166666v-3.781334l.005-.172v-.176l.0107-.166666v-.172l.005-.172.0107-.166667v-.349333l.0107-.172.005-.172.009-.166667.0107-.177333.21334-.166667.0733-.176.12533-.166666.172-.177334.0933-.172.18266-.166666.0933-.172.0573-.172.12533-.177334.25467-.166666.0627-.176.23466-.168.14-.170667 4.09867-.172v-2.750667l.005-.172v-.510666l.016-.176.0573-.166667.0213-.177333.02-.166667.0987-.172.0627-.172.27067-.172.11067-.177333.12933-.166667.172-.172.104-.172.15067-.170667.25066-.172.0107-.172 5.96267-.172v-3.776l.005-.172v-.344l.136-.177333.13067-.166666.0413-.172.844-.172.54133-.1706671.20267-.172 9.45867-.172v-2.9173333l.005-.1773333.005-.1666667.78667-.176.0573-.1666666" stroke="#0000ae"/><path d="m245.24689 126.95703.3731-.11849 1.04134-.16667.808-.17707.984-.17186.18666-.1724.14134-.17187.364-.17187.30266-.1708.432-.16666.86-.1772.208-.16667.016-.1776.95334-.16667.45733-.17186.51067-.1776.084-.16667.68666-.17707.016-.16666.59334-.176.0267-.16667.93734-.17186.25466-.17187.652-.1724 2.37467-.17187.83333-.17186 1.38534-.1776.13466-.16667 1.03734-.17187.62933-.172 2.292-.1708v-7.5572l.005-.16666v-.68814l.005-.17186v-.17187l.005-.1724v-.17707l.016-.16666.005-.176.009-.16667.005-.16667v-.34946l.0267-.17187v-.17187l.005-.1776.0107-.16666.0307-.16667.005-.1772.005-.1708v-.17187l.02-.17186.005-.16667.016-.1776v-.16667l.036-.17706.0573-.16667.005-.1776.005-.16667v-.17186l.036-.176.0373-.16667v-.172l.0107-.17187.11467-.1776.0827-.16666.052-.17187.0893-.17187.0667-.1724.0213-.34373.0573-.17187.052-.1708.0787-.16666.072-.17707.052-.1724.005-.17187.12-.17186.0787-.16667.23867-.1776.172-.16667.224-.1772.16666-.1708.016-.17186.24934-.16667.048-.17187.009-.1724.0787-.17186.73466-.17707v-.16667l1.364-.1776.016-.16666.0213-.17187.192-.17187.14533-.1708.005-.172.0627-.17186.21333-.1776.0733-.16667.12533-.16667.49467-.17706.11466-.1724.016-.17187.312-.17187.156-.16666.33867-.176.052-.17187.36933-.17187.428-.16666.16667-.1776.0253-.17187.59467-.166668.56667-.1776.068-.166666.38533-.1772.604-.166667.0267-.176.432-.166667.136-.171866.0573-.1776.052-.166667.0627-.171867.432-.171866v-6.525467l.005-.172v-.338533l.005-.1776.009-.171867v-.516133l.005-.171867.005-.166666v-.342667l.005-.177067.005-.166666v-.1776l.0107-.166667v-.171867l.0107-.1776.02-.166666.0213-.1772.005-.166667.005-.176.0107-.166667.004-.171866.0107-.1724.0213-.171867v-.171867l.016-.171866.02-.171867.016-.1724.0107-.171867.0147-.171866.0107-.1708.005-.172.0467-.171867.0213-.166667v-.1776l.172-.166666.0213-.177067.0307-.1724.052-.343733.052-.166667.21334-.176.0107-.166667.0467-.177066.016-.166667.036-.1776.0373-.166667.14534-.171866.0827-.171867.14667-.1724.0573-.1772.18667-.166667.0947-.1708.0107-.171866.0987-.171867.244-.1724v-.171867l.16667-.171866.308-.171867.016-.171867.156-.1724.552-.171866.30133-.171867.0213-.1708.036-.172.0213-.171867.34933-.166666.18133-.1776.188-.166667.19734-.177067.344-.1724.69333-.171866.53067-.166667 1.276-.171867.032-.176v-4.464133l.005-.166666v-.859867l.005-.176v-.166667l.0147-.171866v-.344267l.005-.171867v-.171866l.005-.1776.005-.166667.0107-.343867v-.342666l.02-.171867.0107-.1724.016-.171867.0467-.171866.0573-.171867v-.166667l.005-.1776.036-.166666.005-.177067.005-.1708.0213-.172.02-.166667.1-.171866.005-.1776.004-.166667.0947-.177067.0253-.166666.0373-.1724.11867-.171867.0533-.171867.0307-.1708.0107-.343733.0413-.344267.136-.171866.0987-.171867.14533-.171867.26533-.1724.016-.171866.084-.172.0573-.1708.14-.171867.156-.166667.068-.1776.34933-.166666.11467-.177067.052-.171866.44266-.166667.052-.1776.192-.166667.0427-.177066.44267-.166667.0413-.1708.192-.172.005-.171867.93734-.1776.34933-.166666.792-.343734v-4.297333l.005-.166667v-2.572133l.005-.177333v-.115318" stroke="#a0a0ff"/><path d="m19.885466 176.11974h43.078532l.01987-.17707.339067-.16667 2.5464-.1776.104133-.16666 1.516133-.17707 2.395867-.16667 1.661467-.1708.182266-.17186.4896-.17187.04107-.17187.563067-.1724.1464-.17186.2708-.17187.197333-.16667.645333-.1776.614533-.17186 1.031867-.172.286933-.1708 1.114534-.17187.467733-.17187.193733-.16666.125067-.1776.129733-.16667.160934-.17707.09893-.17186.614533-.16667.4172-.1776.692134-.16667.682933-.176.223867-.16666.207866-.1772.1776-.16667.207734-.1724.109466-.17707.1052-.16666.1292-.1776 1.932267-.16667.438533-.17707.0984-.16666.06827-.1708.0093-.17187.152134-.17187.212933-.17186.380267-.1724.4588-.17187.150533-.17187.06253-.16666.197467-.1776.568133-.17187.895867-.172 1.536-.1708.03747-.16667.541067-.17706 1.338533-.16667.5308-.1776.808267-.16667.571867-.17706.105333-.1724.623867-.16667.390666-.17707.4068-.16666.516134-.176.6344-.16667.5-.1772.7708-.16667.292133-.1724.379733-.17186.1932-.17187.333334-.1776.2136-.16667.7656-.17706 1.983858-.16667 1.58387-.1708.25987-.17187 2.2708-.17186.21466-.17187.004-.1724 1.57866-.17187.39574-.17186.87506-.16667 1.27547-.1776.1724-.17187.58907-.172.63493-.1708.24013-.16666.22907-.17707.224-.16667.55733-.1776.864-.16666.37454-.17707.30253-.1724 1.6308-.16667.22293-.17706 1.9172-.16667.0307-.176.26147-.16667.588-.1772.0932-.16666.80266-.1724.75467-.17187.67707-.17187.46413-.17186.43747-.1724.33333-.17707.35467-.16667.11466-.1708.56134-.17186.0267-.17187.0161-.17187.6864-.1724.4948-.16666.5-.17707.30786-.16667.69734-.34946 1.1256-.172 1.20773-.16667.65213-.1708 1.23334-.17707 4.80266-.16666.66134-.1776.65066-.16667 2.808-.17707 1.11467-.1724 1.90533-.16666 1.464-.17187 1.85467-.17187 1.124-.176.10933-.16666.13067-.1772 1.48933-.16667.55734-.1724 1.48933-.17187.40667-.17186.78666-.17187.44267-.1724.25467-.17187 1.19866-.17186.276-.1708.33867-.17187 1.172-.16667.19733-.17706.10934-.1724.38533-.16667 1-.17707.912-.16666.85867-.1776.376-.16667.19733-.1772.48933-.1708.052-.16667.328-.17706 1.37067-.16667.0573-.1776.44267-.16667.45333-.17706.828-.16667.59867-.1724.656-.17187.12-.17186.688-.176 2.208-.16667.33867-.172.88-.17187.34933-.1724 1.35867-.17186 1.308-.17187.79066-.17187.084-.1724 1.71334-.16666.14-.17707.11466-.16667 2.64667-.176.17733-.16666.0147-.17707.43733-.1724 1.67734-.16667.88533-.17706.0267-.16667.45866-.1776 3.93734-.16667.61466-.1772 2.468-.1708.41734-.16666.20266-.17187.552-.17187.52134-.1724.72933-.17186.968-.17187.68267-.17187.82266-.1724.636-.17186.23334-.17187.11466-.17187.24534-.1708 1.49466-.172.18267-.17186.364-.1724.95333-.17187 1.46934-.16667.59866-.17706.18267-.1724.276-.16667 1.09866-.17707.12534-.16666.92133-.176.17733-.16667.92134-.17707.69333-.16666.76533-.1724.43734-.17707.19333-.16667 1.16133-.1776.40534-.16666 1.51066-.1772.0213-.16667.36933-.1708.432-.17187.204-.17186.0147-.1776.17733-.16667.688-.16667.78667-.17706.49466-.1724.54134-.17187.084-.17187.15066-.17186.19734-.1708.0573-.172.85467-.17187.80666-.16667.35467-.1776.48933-.17186.63067-.17187 1.04667-.1724.464-.16667 2.124-.17706 1.43733-.16667 2.792-.176.0213-.16667.67734-.17706.68133-.16667.88533-.1724.40667-.17707.224-.16666.412-.1776.45733-.16667.73467-.17187.432-.172.0213-.1708.0413-.17186 1.12533-.17187.82267-.1724 1.292-.17187.12-.16666.724-.17707.0307-.17187.16667-.1724.756-.17186.0933-.17187.66134-.1708.308-.16667.21333-.1772.124-.16666.89067-.1776.43333-.17187 1.15067-.17187.16133-.1724.54133-.16666 1.26534-.17707.38666-.16667.088-.176.0987-.16666.41733-.17187.296-.17187.068-.1724.61467-.17186.0733-.17187.75467-.1776.48933-.16667.27067-.17186.584-.172.708-.1708.0107-.17187.92666-.17187.7109-.22577" stroke="#0000ae"/></g></g><path d="m14.9141 10.9102h59.2379l.0039.1328 1.098.125.3672.1332.0309.125.0628.1328.0973.125.4848.1281.0902.1289.3899.1289.3441.1289.043.1293.0468.1289.1442.1289.0828.125.0191.1332.0309.1289.082.129.1063.1281.1328.1289.25.1289.0738.125.0942.1332.3941.125.0937.1328.1172.1289.0469.125.0082.1332.0109.125.184.132.0551.125.0309.1329.0898.125.191.1293.1602.1328.2.125.023.1332.0039.125.1442.1328.1219.125.0109.1281.1293.1289.0547.1289.2691.1289.075.1293.0469.1289.0109.1289.0633.125.0539.1332.0391.1289.1289.129.0199.1281.027.125.0312.1328.0277.125.0352.1332.0629.125.0621.1328.0738.1293.0551.125.0621.1328.102.125.0191.132.0117.125.0043.1329.0239.125.0351.1293.0231.1289.0937.1289.016.1332.066.125.0161.1328.0621.125.0078.1281.0781.1289.0121.1289.0539.1289.016.1293.1758.1289.0313.1289.098.125.0508.1332.0582.1289v.129l.0391.1281.0117.125.0191.1328.032.125.0071.1332.059.125.055.1328.0039.1293.093.125.016.1328.0121.125.0039.132.0192.125.0348.1329.082.125.016.1293.023.1289.102.1289.1449.1289.0973.1293.0078.1328.066.125.016.1281.1328.1289.0582.1289.2149.1289.0351.1293.102.125.0121.1328.0149.125.016.1332.1172.1289.0117.129.0621.125.0629.1281.0429.1328.0622.125.0429.1332.0242.125.0387.1328.0152.1293.043.125.0039.1289.0242.1289.0309.132.059.125.0269.1329v.125l.0121.1293.004.1289.0152.1289.0117.1289.0231.1293v.1289l.0082.1289.0468.1281.016.1289.004.125.007.1328.0039.1293.059.125.039.1328.0121.125.0192.1332v.125l.0117.1329.0082.1281.0109.125.0161.1328.0308.125.0242.1332.0149.125.0199.1328.0352.125.0121.1293.0078.1289.0191.1289v.132l.0199.125.0149.129.0242.1289.0309.1293.0468.1289.0391.2578.0313.1293.016.125.0429.1328.1637.125.0231.132.1062.125.0469.1328.0269.1293.0082.125.0079.1328.023.125.027.1332.0281.125.0578.1329v.1281l.0781.125.0039.1289v.1289l.0629.1293.0192.1289.016.1289.023.1289.0199.1293v.1289l.0231.1289.0082.1289.0238.1281.0621.129.0309.1289.0121.1293.059.1289.0429.125.0071.1328v.1293l.0121.125.0199.1328v.125l.0539.132.0281.125.0039.1328.0192.125.0387.1293.016.1328.023.125.0242.1332.011.125.0121.1329.0117.125.1289.1281.0082.1289.011.1289.0121.1332.0039.125.0082.125.0078.1328.007.1293.032.2578.004.1289.0269.1281.0039.129.0313.1289.0199.125.0582.1332.0238.1289.0539.1289.0352.1293.0039.125.0082.1328.0156.125.0231.132.0902.125.0078.1328.066.125.016.1293.0121.1328.0231.125.0199.1332.0578.125v.1289l.0121.129.0039.1281.0153.1289.0199.1289.0738.1293.0043.1289.0199.125.0348.1328.0274.1289v.1293l.0429.1289.0078.257.0313.125.0508.1329.0121.125v.1332l.0039.1289v.1289l.0269.1293.0039.125.0192.1328.0199.125.016.132.0231.125.0121.1289.0039.1289.023.1293.0391.1289v.1289l.0391.1332.0668.125.0429.1289v.129l.0192.1281.0507.1289.0391.1289.0231.1293.0242.2539.0078.1328.007.1289.0551.1293v.1289l.043.1289.016.1281.007.125.0469.1329.0281.125.0078.1332.0031.125v.1289l.004.1332.0281.125.0109.1328.0199.125v.132l.0512.125.0231.1289.0199.1289.0039.1293.1129.1289.0082.1289.0308.1332.0352.125.0199.1289.0149.129.0121.1281.0351.1289.0199.1289.0391.1293.0039.1289v.125l.011.1328.0589.1289.0231.1293.0121.1289.059.125.0539.132.075.125.023.1329v.125l.1602.1332.0629.125.0148.1289.0082.1332.016.125.0079.1289.132.1289.0121.132.0039.125.043.1289.0039.1289.0781.1293.1801.1289.0109.1289.016.1332v.125l.016.1289.0231.129.0309.1281.0242.1289.0078.1289.043.1293.0191.1289.043.125.0347.1328.0082.1289v.1293l.0391.125.0777.1289.059.132.0082.125.043.1329.007.125.0039.1332v.125l.0903.1289.0078.1289v.1293l.039.1328.0039.125.0082.132.0079.125.023.125.027.1328.016.1293.0269.1289.0199.1289.0192.1332.0121.125.098.125.0039.1329.0348.1281.0391.1289.0082.1289.0109.125.0039.1332.0039.125v.1328l.0282.125.0152.1332.0156.125.0043.1289.0539.132.0789.125.0391.129.0191.1289.016.1332.011.125.032.1289.082.1289.1008.1293.0391.1289.0359.1289.0391.1289.0461.1281.0429.125.0079.1328.1171.1293v.1289l.1372.1289.0898.125.0039.1332.0121.125.0039.1329v.1281l.0621.1289v.125l.016.1289.004.1293.039.1289.0231.1328.0269.125.032.1332.0469.2539.0071.1289.055.2571.0039.1289.0161.1332.0191.125.0039.125.0039.1328.0473.1293.0039.1289.066.1289.0199.125.0309.132.0043.1289v.1289l.0039.125.007.1332.0039.1289v.125l.0391.1332.1179.125.011.1329.0469.125v.132l.0351.125.0121.1289.0039.1332.0309.125.0043.1289.0117.1289.059.1332.007.125.0903.1289.0546.1289.043.1281.0082.2579.0309.125v.1332l.0043.125.0347.1328.0231.1293.043.1289.0468.1289.059.125.0082.132.0699.125v.1328l.0192.125.0039.1332.016.1289v.125l.0078.1332.0192.125.0121.1329.0347.125v.132l.059.125.0082.1289.0621.1293.0309.1289.0082.2578.0117.1332.0121.125.027.1289.016.257.0351.129.027.1289.0269.125.0668.1332.0352.1289.0469.1289.0351.1293.027.1289.0238.1289.066.125.1024.132.0039.125.0187.1328.0121.125.0039.1332.0153.125.0121.1289.0238.1332.0192.125.0386.1329v.257l.0551.125.0121.1289.0231.1293.0121.1289.0187.1289.0121.1289.07.2582.016.1289.0621.1289.0359.1281.0309.129.0191.1289.0078.125.016.1332.0153.125.016.1328.0078.1293.0121.1289.0039.1289.0461.125.0121.132.0039.125.0078.1328.0512.125.011.1332.0242.125.0148.2578.036.1293.0269.1329.0699.2531v.1289l.0282.1289.082.1293.007.1289.0039.1289v.1289l.0391.1289.0512.1293.016.1289.0117.1289.007.1281v.129l.0121.1289.0078.125.0391.1332.0352.125.039.1328v.1293l.0078.1289.0231.125.039.1289.0668.132.0313.125.0039.1328.0078.125.0231.1293.0281.1289.007.1289.0039.1332.0199.125.0313.1329.016.125.0039.1281.043.1289.007.1289.0281.1293.0079.1289.1128.1289.0352.1289.0078.1289.0043.1293v.125l.027.1328.0269.1281.0199.129.0121.1289.0622.125.0308.1332.0469.125.0082.1328.043.125.0199.1293.039.1289.0192.1289.1129.132.032.125.109.1289.0629.1289.0269.1293.0231.1289.0121.1289.0309.1332.0121.125.0121.1289.0226.129.1532.125.046.132.0239.1289.0582.1293.0121.1289.043.1289.0308.1289.0121.125.0309.1332.0121.125.059.1328.0429.1281v.129l.0782.125.0269.1289.027.1332.0711.125.0347.1328.0551.125.0231.1293.0121.1289.0078.1289.0109.1281.016.1289.0231.1289v.1289l.016.1293.0078.1289.0043.1289.0078.1289.027.1293.0121.1289.109.129.0351.1281.059.1289v.125l.0039.1332.007.125.0161.1328.0347.1289.0782.125.1101.1332.0469.125v.1328l.0148.125.0633.1281.027.129.0121.1289.0386.1332v.2539l.0153.1289.0199.1293.0121.1289.0039.1289.0621.1281.0039.1289.0121.1328.093.125.016.125.0039.1332.0352.1289.043.1289.0199.1293.05.1289.0277.129.0121.125v.132l.0031.125.0079.1332.0242.125.0039.1289.0269.1328v.125l.0192.1332.016.125.0078.1328.0352.125.0078.2571.0551.129.0191.129v.129l.0078.129.066.129.0711.129.0621.129.0469.129.023.128.004.129.0429.129.0242.129.0387.125.0512.133.0269.129.0039.129.0192.129.082.125.032.133.035.125.062.132.004.125.004.133.027.125.02.129.039.129.004.129.035.133.063.125.078.133.008.253.015.129.02.129.125.129.039.129.004.129.039.129.027.129.051.129.027.129.008.128.078.129.012.125.004.133.015.125.008.133.133.125.02.133v.129l.039.125.019.133.012.125.012.132.019.125.02.133.062.125.035.129.047.258.008.133.055.125.066.133.043.125.039.128.027.129.059.129.016.129.058.129.035.129.008.129.031.129.004.129.055.129v.128l.016.129.019.125.004.133v.125l.024.133.004.125.007.133.051.129.109.125.008.133.004.125.008.132.035.125.012.133.016.125.023.129v.129l.062.129.016.133v.125l.141.133.05.125.055.128.016.129.023.129.063.258.023.125.012.133.07.129.09.129.035.125.067.132.015.129.121.125.012.133.012.125v.133l.011.125.09.133.047.129.004.125.008.133.019.125.036.132.019.125.059.133v.125l.078.129.16.129.023.129.067.133.019.125.149.125.004.133.136.128.059.129.012.129.051.129.062.254.023.133.106.125.019.133.036.125.019.132.008.129.094.125.054.129.082.129.043.133.004.125.028.133.004.129.011.125.008.129.113.129.086.128.004.129v.129l.043.129.016.129.019.129.02.125.082.133.023.129.012.125.078.133.055.128.008.129.058.125.063.133.129.129.031.125.012.133v.125l.05.133.383.129.153.128.062.126.008.128.156.129.039.129.141.133.012.125.07.129.281.129.027.129.051.129.02.129.058.132.012.125.047.129.043.129.004.125.051.133.011.129.035.129v.129l.063.125.012.133.011.125.043.132.016.125.074.133.051.129.297.125.008.129.101.129.032.133.113.125.023.132.012.126.117.128.004.129.023.129.016.129.188.129v.129l.004.129.093.129.125.129.082.129.024.128.019.129.09.125.07.133.028.125.054.133.106.129.094.129.062.129.039.125.18.133.027.125.02.132v.125l.015.133.036.125v.129l.113.129.223.129.16.133.144.125.051.129.121.129.031.128.051.129.078.129.266.129.055.129.007.129.028.129.015.129.168.129.141.129.082.128.203.129.152.125.008.133.016.125.262.133.003.125.079.133.117.129.031.125.211.133.039.125.066.132.192.125.172.129.015.129.442.129.027.129.235.129.292.133.067.125.199.129.223.129.254.128.039.129.371.129.164.129.183.129.36.125.121.133.027.129.262.129.008.129.066.128.039.129.567.125.222.133.032.125.57.133.055.125.074.129.336.133.121.125.172.133.207.125.051.132.144.125.258.129.027.129.84.129.031.129.321.129.218.133.844.125 1.914.129 3.098.129h121.926" stroke="#eb0000" stroke-dasharray="1.47949 4.43848" stroke-width="1.4795"/><g stroke-width="1.9726" transform="matrix(.75 0 0 -.75 0 143)"><path d="m305.54 54.604v-.39646l.005-1.7133.016-1.7187 1.776-1.7187.0573-1.7133 4.14-1.7187v-10.308l.005-1.7133 7.4373-1.7133v-6.8693l.005-1.7147.016-1.7227.16667-1.7147.54133-1.7187.828-1.7133 9.8027-1.7187v-1.7187h.85466" stroke="#00005e"/><path d="m245.25 156 6.8942-.48299 12.683-1.724v-6.8604l.0373-1.7239.009-1.7131 3.428-1.7136 1.4373-1.7187 4.6667-1.724 1.776-1.7131v-3.4323l.005-1.7197.02-1.7188.005-1.7135.0573-1.7183.34933-1.7136 1.224-1.7187.52133-1.7188.13467-1.7131 1.9893-1.7187.636-1.7188.244-1.7187 1.3133-1.7147.948-1.7135.02-1.724.0373-1.7131.14-1.7187.136-1.7136.208-1.724 1.2293-1.7129.968-1.7136 1.1093-1.7187 2.1413-1.7147v-3.4375l.005-1.7188.0107-1.7129.02-1.7188.76133-1.7188 2.416-1.7129 2.156-1.7188v-1.7188l.005-1.7187 2.2973-1.7147.0467-1.7135 2.8387-1.7188v-5.1505l.005-1.7187.896-1.7188 4.4627-1.7131v-8.1929" stroke="#8c8cff" stroke-opacity=".3"/><path d="m19.885 176.12 68.027.00094.0093-1.7181 23.626-1.7188 11.901-1.7135 22.932-1.7188 15.297-1.7199 3.296-1.7187 38.167-1.7136 1.3547-1.7129 4.3693-1.724 5.2147-1.7136 13.609-1.7187 17.558-1.2301" stroke="#00005e"/></g><g stroke-width="1.4795"><path d="m14.9141 10.9102h72.2621v1.2886l2.8707 1.2891 1.3051 1.2851 2.3941 1.2891 1.9488 1.2899 1.043 1.289.7973 1.2852.0507 1.2847.0821 1.293 1.3199 1.2852.2031 1.289.2231 1.2848.4218 1.293.7811 1.2851.031 1.2891.43 1.2859.086 1.2852.059 1.2929.558 1.2848.778 1.2852.3 1.289.184 1.293.375 1.2848.187 1.2851.106 1.2891.176 1.2898.453 1.2891.211 1.2851.433 1.2887.071 1.2852.183 1.289.047 1.2891.086 1.2848.168 1.289.391 1.2891.535 1.289.113 1.286.215 1.2851.098 1.293.132 1.2848.344 1.289.488 1.2852 2.415 1.293.675 1.2847.047 1.2852.008 1.289.133 1.286.055 1.293.136 2.5742.59 1.2847.039 1.2891.262 1.2891.219 1.2847.394 1.2891.281 1.2891.579 1.289.296 1.286.102 1.2851.242 1.2891.172 1.2929.02 1.2848.066 1.2852.105 1.289.43 1.2891.738 1.2848.094 1.289.68 1.286.668 1.2929.011 1.2851.704 1.289.222 1.285.246 1.289.086 1.289.067 2.574.582 1.285.117 1.293.398 1.286 1.254 1.285.071 1.289 2.257 1.293.649 1.285.148 1.285.543 1.289.414 1.289.028 1.285 1.355 1.289.297 1.286.199 1.292.84 1.286.594 1.289.25 1.285.644 1.289.161 1.289.953 1.285.132 1.289.278 1.285 2.613 1.293 6.141 1.286h108.836" stroke="#dc0000"/><path d="m14.9141 10.9102c28.1168.132804 47.637967 0 78.914 0v.1328l3.793.125.2848.1332.2929.125.391.1328.293.125.0152.1281.454.1289.1011.1289.2149.1289.1019.1293.2341.1289.101.1289.18.125.145.1332.398.1289.125.129.008.1281.465.1289.019.1289.59.125.137.1332.324.125.121.1328.719.1289.043.125.066.1332.012.125.152.132.004.125.184.1329.453.125v.1293l.051.1328.023.125.168.1332.02.125.066.1328.055.125.168.1281.019.1289.012.1289.113.1289.024.1293.027.1289.035.1289.094.125.129.1332.277.1289.043.129.074.1281.141.125.027.1328.114.125.062.1332.094.125.031.1328.199.1293.024.125.039.1328.066.125.028.132.105.125.039.1329.078.125.215.1293.195.1289.004.1289.024.1332.015.125.008.1328.063.125.086.1281.07.1289.129.1289.078.1289.016.1293.035.1289.023.1289v.125l.035.1332.036.1289.281.129.019.1281.051.125.027.1328.02.125.012.1332.207.125.027.1328.047.1293.016.125.019.1328.055.125.023.132.047.125v.1329l.067.125v.1293l.023.1289.082.1289.023.1289.18.1293.055.1328.035.125.004.1281.035.1289.102.1289.054.1289.028.1293.023.125.035.1328.074.125.055.1332.004.1289.023.129.036.125.004.1281.031.1328.004.125.019.1332.02.125.027.1328.188.1293.078.125.004.1289.074.1289.051.132.039.125.015.1329v.125l.043.1293.028.1289.089.1289.145.1289.07.1293.008.1289.063.1289v.1281l.082.1289.035.125.09.1328.019.1293v.125l.008.1328.035.125.113.1332.036.125.019.1329.027.1281.016.125.039.1328.039.125v.1332l.028.125.003.1328.024.125.012.1293.047.2578.007.132.028.125.066.129.016.1289.035.1293.015.1289.024.2578.113.1293.067.125v.1328l.062.125.07.132.047.125.063.1328.008.2543.007.1328.032.125.117.1332.004.125.097.1329.016.1281.117.125.102.1289.019.1289.008.1293.027.1289.059.1289.031.1289.09.1293.02.1289.011.1289.047.1289.008.1281.004.129.023.1289.008.1293.012.1289.016.125.031.1328.062.2543.075.1328v.125l.031.132.125.125.082.1328.035.125.094.1293.015.1328.098.125.027.1332.036.125v.1329l.043.125.007.1281.11.1289.011.1289.004.1332.028.125.035.125.008.1328.105.1293.008.1289.047.1289.011.1289.079.1281.039.129.008.1289.042.125.051.1332.055.1289.027.1289.063.1293.031.125.027.1328.008.125.004.132v.125l.09.1328.008.125.101.1293.024.1328.09.125.035.1332.086.125.047.1289.054.129.028.1281.003.1289.016.1289.031.1293.071.1289.004.125.007.1328.016.1289.008.1293.008.2578.015.1281.008.125.008.1329.004.125.004.1332.004.1289.035.1289.004.1293v.125l.047.1328.003.125.028.132.078.125.055.1289.023.1289.008.1293.027.1289.008.1289.012.1332.031.125.008.1289.023.129.067.1281.023.1289.039.1289.035.1293.055.1289.027.125.067.1328.023.1289.074.1293.024.1289.082.1289.016.1281.019.125.004.1329.019.125.016.1332.055.125.023.1289.008.1332v.125l.016.1328.035.125.105.132.043.125.012.1289.027.1289.02.1293.086.1289.027.1289.059.1332.023.125.02.1289.062.129.004.1281v.1289l.047.1289v.1293l.027.1289.055.125.027.1328.02.1289.047.2582.015.125.192.132.011.125.008.1329.028.125.004.1332.003.125.016.1289.031.1332v.125l.071.1289.027.1289.059.132.011.125.004.1289.012.1289.039.1293.055.1289.004.1289v.1332l.007.125.059.1289.016.129.007.1281.004.1289.055.1289.004.1293.039.1289.027.125.016.1328.004.1289.016.1293.003.125v.1289l.024.132v.125l.008.1329v.125l.066.1332.02.125.05.1289.024.1289.008.1293v.1328l.007.125.133.132.055.125.125.125.219.1328.004.1293.007.1289.012.1289.012.1332.008.125.093.125v.1329l.016.257.004.1289.043.125.18.1332.007.125.008.1328.016.125.039.1332.012.125.007.1289.012.132.02.125.05.129.012.1289.004.1332.047.125.051.1289.062.1289.028.1293.023.1289.016.1289.011.1289.004.1281.024.125.078.1328v.1293l.004.1289.074.1289.172.125.023.1332.043.125.043.1329.024.1281.097.1289.047.125.039.1289.008.1293.055.1289.097.1328.02.125.019.1332.067.125.035.1289.012.1289.086.2571.011.1289.02.1332.09.125.019.125.055.1328.055.1293.043.1289v.1289l.035.125.039.132.012.1289.007.1289.043.125.016.1332.016.1289.004.125.109.1332.019.125v.1329l.016.125.02.132.004.125.035.1289.039.1332.004.125.011.1289.059.1289.008.1332.008.125.089.1289.008.1289.012.1281.043.129.031.1289.016.125.054.1332.051.125.004.1328.113.1293.039.1289.043.1289.028.125.012.132.046.125.071.1328.027.125.012.1332.015.1289.032.125.062.1332.012.125.039.1329v.125l.004.132.023.125.012.1289.008.1293.074.1289.023.1289.071.1289.062.1332.043.125v.1289l.024.1289.035.1281.039.129.016.1289.027.125.019.1332.09.1289.02.1289.004.1293.015.1289.059.1289.016.125.043.132.027.125.004.1328.074.125.066.1332.02.125.008.1289.019.1332.004.125.016.1329.027.125.008.132.047.125.094.1289.05.1293.008.1289.074.1289.098.1289.02.1289.062.1293.035.1289.016.1289.023.1281.067.129.011.1289.008.125.016.1332.047.125.054.1328.008.1293.016.1289.039.2539.008.132.125.125.035.1328.019.125.016.1332.043.125.066.1289.008.1289.004.1293.031.1329.008.125.028.1281.043.1289.027.1289.043.1293.054.1289.008.1289.094.1289.082.1289.004.1293.027.1289.032.1289.015.2571.031.1289.008.125.082.1332.164.125.036.1328.031.1293.023.1289.031.2539.004.132.071.125.023.1328.027.125.012.1293.039.1289v.1289l.012.1332v.125l.004.1329.039.125.016.1281.011.1289.012.3871.055.1289.039.1289.101.1289.008.1293.02.125.015.1328.016.2571.035.1289.02.125.023.1332.031.125.028.1328v.125l.039.1293.019.1289.098.1289.055.132.003.125.083.1289.019.1289.18.1293.062.1289.016.1289.027.1332.102.125.015.1289.004.129.008.125.008.132.062.1289.051.1293.031.1289.082.1289.059.1289.109.125.129.1332.102.125.074.1328.055.1281.004.129.015.125.075.1289.113.1332.039.125.051.1328.004.125.027.1293.031.1289.024.1289.007.1281.004.1289.024.1289.004.1289.023.1293.051.1289.023.1289.02.1289.004.1293.015.2579v.1281l.2.1289.027.125v.1332l.074.125.028.1328.042.1289.004.125v.1332l.02.125v.1328l.047.2531.008.129.121.1289.054.1332v.125l.063.1289.074.1289.008.1293.023.1289.098.1289.195.1281.008.1289.024.1328.039.25.043.1332.027.1289.031.1289.024.1293.011.1289.004.129.078.125.028.132.023.125.008.1332.027.125.016.1289.031.1328.004.125.051.1332.144.125.102.1328.031.125.078.1281.043.129.09.129.078.129.004.129v.129l.024.129.074.129.039.129.066.129.039.128v.129l.043.129.118.129.019.125.078.133.008.129.051.129.019.129.02.125.031.133.055.125.043.132.008.125.003.133.047.125.032.129.011.129.016.129.039.133.035.125.164.133.02.125.023.128.004.129.008.129.023.129.055.129.145.129.007.129.008.258.031.129.032.257.035.125.031.133.031.125.168.133.024.125.015.133.043.129.067.125.019.133.09.125.031.132.102.125.004.133.008.125.144.129.035.129.032.129.05.133.106.125.094.133.05.125.063.128.047.129.008.258.07.129.035.129.027.129.047.129.035.129.2.129.078.257.008.125.011.133.035.125.024.133.07.125.031.133.024.129.074.125.043.133.051.125.094.132.015.125.004.133.008.125.156.129.141.129.015.129.083.133.144.125.008.133.008.125.101.257.043.129.067.129.019.129.008.125.016.133.039.129.086.129.066.125v.132l.051.129.101.125.004.133.11.125.019.133.18.125.273.133.02.129.004.125.004.133.007.125.024.132.051.125.121.133.015.125.012.129.16.129.035.129.051.133.102.125.011.125.102.133.105.128.024.129.027.129.117.129.047.129.016.125.039.133.047.125.027.133.016.125.164.132.207.129.012.125.242.129.09.129.004.133.312.125.012.133.058.129.153.125.058.129.043.129.039.128.028.129.015.258.188.129.125.129.121.125.062.133.075.129.023.125.004.133.059.128.011.129.02.125.152.133.012.129.062.125.02.133.019.125.024.133.09.129.047.128.144.126.18.128v.129l.023.129.094.133.008.125.078.129.187.129.024.129.035.129.008.129.012.132.105.125.004.129.277.129.09.125.035.133.043.129.078.129.118.129.129.125.097.133.082.125.024.132.07.125.031.133.039.129.024.125.144.129.035.129.071.133.113.125.148.132.008.126.012.128.152.129.438.129.09.129.007.129.012.129.039.129.016.129.055.129.07.257.031.129.039.125.289.133.031.125.032.133.035.129.031.129.082.129.055.125.105.133.035.125.168.132.047.125.09.133.035.125.172.129.086.129.004.129.156.133.024.125.101.129.164.129.227.128.41.129.035.129.055.129.383.129.039.129.183.129.047.129.078.129.301.129.078.257.102.125.281.133.16.125.012.133.406.125.114.133.066.129.004.125.164.133.242.125.309.132.445.125.273.129.633.129.227.129.148.129.321.129.156.133.179.125.352.129.027.129.743.128.168.129.23.129.457.129.004.129.219.125.476.133.082.129.516.129.226.129.473.128.383.129.121.125.191.133.207.125.028.133.035.125.109.129.055.133.43.125.101.133.145.125.121.132.605.125.391.129 4.203.129.078.129.535.129.485.129.32.133.035.125 2.617.129 4.485.129h78.383" stroke="#ca0000" stroke-dasharray="1.47949 4.43848"/><path d="m14.9141 10.9109 91.6719-.0007v1.2886l3.953 1.2891 2.754 1.2851.207 1.2891.957 1.2899 1.715 1.289 1.23 1.2852.02 1.2847.058 1.293 1.118 1.2852 1.121 1.289.031 1.2848.449 1.293.289 1.2851.141 1.2891.465 1.2859.738 1.2852.094 1.2929.297 1.2848.207 1.2852.293 1.289.722 1.293.348 1.2848.133 1.2851.074 1.2891.133 1.2898 1.359 1.2891.207 1.2851.496 1.2887.61 1.2852.32 1.289.215 1.2891.074 1.2848.422 1.289.144 1.2891.762 1.289 1.488 1.286.071 1.2851.191 1.293.164 1.2848.321 1.289 1.062 1.2852.227 1.293.023 1.2847.523 1.2852.106 1.289.098 1.286.043 1.293.312 1.2851.266 1.2891.547 1.2847.726 1.2891.203 1.2891.016 1.2847.621 1.2891.301 1.2891.586 1.289.187 1.286.106 1.2851 1.351 1.2891.063 1.2929.168 1.2848.246 1.2852.012 1.289.191 1.2891.262 1.2848.406 1.289.226 1.286.219 1.2929.149 1.2851.172 1.289 1.48 1.285.574 1.289.094 1.289.238 1.285.539 1.289.793 1.285.141 1.293.004 1.286.023 1.285.016 1.289.949 1.293.231 1.285.726 1.285.098 1.289 3.621 1.289.383 1.285.156 1.289.035 1.286.551 1.292.133 1.286 1.281 1.289.078 1.285 1.754 1.289.699 1.289 4.086 1.285 1.598 1.289.105 1.285 3.903 1.293 4.945 1.286h78.762" stroke="#b80000"/><path d="m14.9141 10.9102h101.7809v1.2886l1.106 1.2891.773 1.2851.52 1.2891.601 1.2899.446 1.289.07 1.2852 3.547 1.2847.566 1.293.047 1.2852 1.34 1.289.078 1.2848.059 1.293.777 1.2851 1.492 1.2891.235 1.2859.64 1.2852.16 1.2929.203 1.2848.063 1.2852.008 1.289.023 1.293 1.289 1.2848.301 1.2851.027 1.2891.59 1.2898.219 1.2891.566 1.2851.032 1.2887.082 1.2852.742 1.289.07 1.2891.035 1.2848.368 1.289.363 1.2891.387 1.289.062 1.286.473 1.2851.105 1.293.559 1.2848.465 1.289.339 1.2852.211 1.293.403 1.2847.777 1.2852.305 1.289.031 1.286.586 1.293.07 1.2851.453 1.2891 1.145 1.2847.027 1.2891.207 1.2891.078 1.2847.129 1.2891.067 1.2891.824 1.289.215 1.286.121 1.2851.426 1.2891.781 1.2929.851 1.2848.243 1.2852.269 1.289.125 1.2891.012 1.2848.961 1.289.199 1.286.25 1.2929 1.203 1.2851.524 1.289.011 1.285.254 1.289.383 1.289.449 1.285.102 1.289.39 1.285 1.243 1.293 1.312 1.286.113 1.285.723 1.289.164 1.293.106 1.285.066 1.285.828 1.289.551 1.289 1.144 1.285 5.649 1.289 1.144 1.286.028 1.292.367 1.286 1.855 1.289.02 1.285 2.062 1.289 1.403 1.289 1.215 1.285 7.39 1.289.16 1.285 1.414 1.293 1.051 1.286h68.778" stroke="#a60000" stroke-dasharray="1.47949 4.43848"/><path d="m14.9141 10.9102h111.8869v1.2886l2.535 1.2891 2.039 1.2851.094 1.2891.148 1.2899.336 1.289 1.582 1.2852 1.992 1.2847.684 1.293.176 1.2852 1.238 1.289.207 1.2848.035 1.293.707 1.2851.625 1.2891.403 1.2859.39 1.2852.125 1.2929 1.547 1.2848.328 1.2852.367 1.289.004 1.293 1.063 2.5699.426 1.2891.109 1.2898.406 1.2891.055 1.2851.859 1.2887.684 1.2852.133 1.289.004 1.2891.492 1.2848.168 1.289.086 1.2891.601 1.289.02 1.286.34 1.2851.175 1.293.438 1.2848.523 1.289.043 1.2852.746 1.293.153 1.2847.402 1.2852.035 1.289.074 1.286.086 1.293 1.606 1.2851.07 1.2891.465 1.2847.035 1.2891.824 1.2891.028 1.2847.25 1.2891.164 1.2891.222 1.289.172 1.286.254 1.2851.196 1.2891.812 1.2929.359 1.2848.282 1.2852 1.472 1.289.524 1.2891.429 1.2848.079 1.289.109 1.286 1.801 1.2929.035 1.2851.535 1.289.008 1.285 1.59 1.289.789 1.289.324 1.285.883 1.289 1.09 1.285 1.355 1.293.609 1.286 1.184 1.285.336 1.289.832 1.293.168 1.285.59 1.285.113 1.289 2.227 1.289 1.695 1.285.129 1.289 1.348 1.286.078 1.292.949 1.286v1.289l.195 1.285.715 1.289 8.891 1.289 3.957 1.285.047 1.289.921 1.285 1.446 1.293.125 1.286h54.59" stroke="#940000"/><path d="m14.9141 10.9102h119.7069v1.2886l1.945 1.2891 1.528 1.2851.504 1.2891.371 1.2899 1.258 1.289.347 1.2852.371 1.2847.211 1.293.125 1.2852 1.387 1.289.699 1.2848.074 1.293 1.157 1.2851.925 1.2891.368 1.2859.097 1.2852.344 1.2929.223 1.2848.957 1.2852.019 1.289.481 1.293.101 1.2848.75 1.2851 1.199 1.2891.422 1.2898.496 1.2891.352 1.2851 1.856 1.2887.812 1.2852.539 1.289.555 1.2891.406 1.2848.324 1.289.231 1.2891.101 1.289.192 1.286.082 1.2851.34 1.293.078 1.2848.14 1.289.196 1.2852.019 1.293.121 1.2847.199 1.2852.157 1.289.824 1.286.957 1.293.055 1.2851.175 1.2891.586 1.2847.551 1.2891.387 1.2891.176 1.2847.199 1.2891.269 1.2891.207 1.289.368 1.286.054 1.2851.375 1.2891.371 1.2929.067 1.2848.164 1.2852.34 1.289.593 1.2891.301 1.2848.059 1.289.133 1.286.156 1.2929.265 1.2851 1.372 1.289.183 1.285 1.211 1.289 1.68 1.289 1.058 1.285.051 1.289.098 1.285.277 1.293 1.516 1.286.625 1.285.066 1.289.328 1.293.852 1.285 1.055 1.285 1.093 1.289 1.02 1.289.769 1.285.907 1.289.547 1.286 2.781 1.292 3.109 1.286 1.551 1.289 2.894 1.285 1.805 1.289.969 1.289 3.906 1.285 8.906 1.289 3.754 1.285 2.575 1.293 31.597 1.286h4.524" stroke="#820000" stroke-dasharray="1.47949 4.43848"/><path d="m14.9141 10.9102h114.6089v1.2886l3.602 1.2891 1.191 1.2851 1.844 1.2891 2.293 1.2899.684 1.289 1.308 1.2852.227 1.2847.07 1.293.086 1.2852.715 1.289.297 1.2848.445 1.293.297 1.2851 2.164 1.2891.492 1.2859.778 1.2852.129 1.2929.343 1.2848 2.457 1.2852 1.246 1.289v1.293l.59 1.2848.731 1.2851.629 1.2891.093 1.2898.289 1.2891.075 1.2851.312 1.2887.195 1.2852.731 1.289.094 1.2891.984 1.2848.617 1.289.215 1.2891.227 1.289.043 1.286.332 1.2851.394 1.293.586 1.2848.156 1.289.391 1.2852.098 1.293.582 1.2847.191 1.2852 1.527 1.289.118 1.286.527 1.293.027 1.2851.008 1.2891.07 1.2847.153 1.2891 1.14 1.2891.071 1.2847.191 1.2891.219 1.2891.781 1.289.09 1.286.863 1.2851.09 1.2891 1.484 1.2929 1.512 2.57.211 1.289.988 1.2891.719 1.2848 1.145 1.289.304 1.286.457 1.2929.95 1.2851.254 1.289.343 1.285 1.192 1.289.125 1.289.492 1.285.351 1.289.442 1.285.211 1.293 2.105 1.286.797 1.285.996 1.289 1.895 1.293.027 1.285 1.945 1.285 1.11 1.289.383 1.289.824 1.285.508 1.289.273 1.286 1.293 1.292.289 1.286 1.426 1.289.855 1.285 6.223 1.289 3.297 1.289.867 1.285 1.32 1.289 4.516 1.285 6.547 1.293 12.586 1.286h22.508" stroke="#700000"/></g><path d="m19.885 176.12h169.44v-1.7181l1.052-1.7188.74-1.7135 3.0733-1.7188.73333-1.7199.21467-1.7187.4-1.7136.99466-1.7129 1.636-1.724.64-1.7136 2.3493-1.7187.532-1.7131.156-1.724.50534-1.7135.90533-1.7188 1.6667-1.7145.12533-1.7136.27067-1.7239.14666-1.7131.81734-1.7136 3.6453-1.7187.42267-1.724.23466-1.7131.16134-1.7135 1.8387-1.7188.156-1.7197.744-1.7188.172-1.7135.412-1.7183.0467-1.7136.57867-1.7187.009-1.7188.396-1.7131.308-1.7187.0627-1.7188.4-1.7187 1.152-1.7147.83333-1.7135.0467-1.724.39066-1.7131.14534-1.7187.38-1.7136.66666-1.724.19867-1.7129.38-1.7136.23467-1.7187.448-1.7147.036-1.724.75466-1.7135.0573-1.7188.91733-1.7129.50533-1.7188.21334-1.7188.52-1.7129.0427-1.7188.13467-1.7188.6-1.7187.67067-1.7147.048-1.7135 1.1187-1.7188.256-1.7239.22934-1.7131.0253-1.7136.19867-1.7187.0307-1.7188.33334-1.7131.38-3.4333 2.0787-1.7239.244-1.7135 1.496-1.7187 4.4573-1.7133.6-1.7187.28533-1.7187.78667-1.7133.708-1.7187 3.9693-1.7133 1.052-1.724 1.1147-1.7147.18266-1.7133.0107-1.7187v-1.724l1.5573-1.7133.16134-1.7133.18133-1.7187.21867-1.7187 1.4013-1.7133 2.432-1.7187.45333-1.7147 2.0267-1.7227 2.2707-1.7147.448-1.7187.52533-1.7133 3.6933-1.7187.396-1.7187 1.848-1.7133 2.0947-1.7187 1.0107-1.7133 10.219-1.724 40.76-1.7147h14.688" stroke="#5e0000" stroke-dasharray="1.97265 5.91797" stroke-width="1.9726" transform="matrix(.75 0 0 -.75 0 143)"/><path d="m14.914 106.55h56.57v33.141h-56.57z" stroke="#000" stroke-width=".73975"/><g stroke-width="1.4795"><path d="m21.129 131.4h12.426" stroke="#00f"/><path d="m21.129 123.12h12.426" stroke="#0000ae" stroke-dasharray="1.47949 4.43848"/><path d="m21.129 114.83h12.426" stroke="#00005e"/></g></g><g fill="#00f"><path d="m41.0352 131.625h2.7347v.563h-2.7347v1.609h2.8437v.562h-3.484v-5.031h3.609v.563h-2.9687z"/><path d="m47.9801 130.844.516-1.516h.7187l-1.7808 5.031h-.8289l-1.7813-5.031h.6723l.5309 1.516zm-.1871.531h-1.609l.843 2.297z"/><path d="m50.2301 130.047v-.719h.4219v-.125c0-.469-.093-.609-.4219-.625v-.266c.4687-.015.7347.313.7347.907v.828z"/><path d="m60.23 131.77h-3.343v-.48516h3.343zm0-1.188h-3.343v-.48398h3.343z"/><path d="m63.984 129.922h-2.5781c.0632.422.282.687.875 1.047l.7031.39c.6719.375 1.032.891 1.032 1.5 0 .422-.1719.813-.4539 1.079-.2961.265-.6562.39-1.109.39-.625 0-1.0941-.234-1.359-.656-.1722-.266-.25-.578-.266-1.078h.6098c.0152.344.0621.547.1402.703.1559.312.484.5.8438.5.5621 0 .9691-.406.9691-.953 0-.391-.2351-.735-.657-.985l-.6399-.375c-1.016-.593-1.3132-1.062-1.375-2.156h3.2649z"/><path d="m66.332 134.328c-.4691 0-.875-.219-1.125-.547-.3281-.453-.484-1.109-.484-2.031 0-1.688.5469-2.578 1.609-2.578 1.0309 0 1.5942.89 1.5942 2.531 0 .969-.1563 1.609-.4692 2.078-.266.344-.6718.547-1.125.547zm0-.547c.6559 0 .9692-.672.9692-2.015 0-1.422-.3133-2.094-.9852-2.094-.6398 0-.968.687-.968 2.062s.3282 2.047.984 2.047z"/></g><g fill="#0000ae"><path d="m41.0352 123.34h2.7347v.562h-2.7347v1.61h2.8437v.562h-3.484v-5.031h3.609v.562h-2.9687z"/><path d="m47.9801 122.559.516-1.516h.7187l-1.7808 5.031h-.8289l-1.7813-5.031h.6723l.5309 1.516zm-.1871.531h-1.609l.843 2.297z"/><path d="m50.2301 121.762v-.719h.4219v-.125c0-.469-.093-.609-.4219-.625v-.266c.4687-.015.7347.313.7347.907v.828z"/><path d="m60.23 123.48h-3.343v-.48398h3.343zm0-1.187h-3.343v-.48398h3.343z"/><path d="m63.766 125.934h-2.516l-.375-2.657h.5629c.2812.328.5152.453.9062.453.6559 0 1.0618-.453 1.0618-1.171 0-.704-.4059-1.141-1.0778-1.141-.5312 0-.8441.281-1 .828h-.609c.093-.406.1559-.594.2969-.781.2809-.36.7809-.578 1.3281-.578 1 0 1.6868.718 1.6868 1.75 0 .968-.6399 1.625-1.5778 1.625-.359 0-.625-.078-.9062-.297l.1871 1.375h2.032z"/><path d="m66.332 126.043c-.4691 0-.875-.219-1.125-.547-.3281-.453-.484-1.109-.484-2.031 0-1.688.5469-2.578 1.609-2.578 1.0309 0 1.5942.89 1.5942 2.531 0 .969-.1563 1.609-.4692 2.078-.266.344-.6718.547-1.125.547zm0-.547c.6559 0 .9692-.672.9692-2.016 0-1.421-.3133-2.093-.9852-2.093-.6398 0-.968.687-.968 2.062s.3282 2.047.984 2.047z"/></g><g fill="#00005e"><path d="m41.0352 115.055h2.7347v.562h-2.7347v1.61h2.8437v.562h-3.484v-5.031h3.609v.562h-2.9687z"/><path d="m47.9801 114.273.516-1.515h.7187l-1.7808 5.031h-.8289l-1.7813-5.031h.6723l.5309 1.515zm-.1871.532h-1.609l.843 2.297z"/><path d="m50.2301 113.477v-.719h.4219v-.125c0-.469-.093-.61-.4219-.625v-.266c.4687-.015.7347.313.7347.906v.829z"/><path d="m60.23 115.2h-3.343v-.48398h3.343zm0-1.187h-3.343v-.48477h3.343z"/><path d="m64.0781 117.648h-3.2812v-.593h2.6562c-1.1722-1.672-1.6562-2.688-2.0152-4.297h.6562c.2649 1.562.875 2.922 1.984 4.39z"/><path d="m67.707 117.648h-2.516l-.375-2.656h.5629c.2813.328.516.453.9063.453.6558 0 1.0628-.453 1.0628-1.172 0-.703-.407-1.14-1.0781-1.14-.532 0-.8437.281-1 .828h-.6097c.0937-.406.1558-.594.2968-.781.2809-.36.7809-.578 1.3282-.578 1 0 1.6878.718 1.6878 1.75 0 .968-.641 1.625-1.5781 1.625-.3597 0-.625-.079-.907-.297l.1883 1.375h2.0308z"/></g><g fill="none" stroke-linecap="round" stroke-linejoin="round" stroke-miterlimit="10"><path d="m183.93 10.914h64.457v91.133h-64.457z" stroke="#000" stroke-width=".73975"/><g stroke-width="1.4795"><path d="m190.15 93.762h12.43" stroke="#f00"/><path d="m190.15 85.48h12.43" stroke="#eb0000" stroke-dasharray="1.47949 4.43848"/><path d="m190.15 77.195h12.43" stroke="#dc0000"/><path d="m190.15 68.906h12.43" stroke="#ca0000" stroke-dasharray="1.47949 4.43848"/><path d="m190.15 60.621h12.43" stroke="#b80000"/><path d="m190.15 52.336h12.43" stroke="#a60000" stroke-dasharray="1.47949 4.43848"/><path d="m190.15 44.055h12.43" stroke="#940000"/><path d="m190.15 35.77h12.43" stroke="#820000" stroke-dasharray="1.47949 4.43848"/><path d="m190.15 27.48h12.43" stroke="#700000"/><path d="m190.15 19.195h12.43" stroke="#5e0000" stroke-dasharray="1.47949 4.43848"/></g></g><g fill="#f00"><path d="m210.059 93.984h2.406v.5629h-2.406v1.609h2.734v.5632h-3.375v-5.0312h.641z"/><path d="m214 93.984h2.734v.5629h-2.734v1.609h2.844v.5632h-3.485v-5.0312h3.61v.5621h-2.969z"/><path d="m220.953 93.2031.516-1.5152h.719l-1.782 5.0312h-.828l-1.781-5.0312h.672l.531 1.5152zm-.187.5309h-1.61l.844 2.2969z"/><path d="m223.195 92.4059v-.718h.422v-.1258c0-.468-.094-.609-.422-.6242v-.266c.469-.016.735.3121.735.9062v.8278z"/><path d="m233.19 94.125h-3.343v-.48398h3.343zm0-1.1871h-3.343v-.48477h3.343z"/><path d="m236.945 92.2809h-2.578c.063.4222.281.6882.875 1.0472l.703.391c.672.375 1.032.8899 1.032 1.5 0 .4219-.172.8118-.454 1.0778-.296.2652-.656.391-1.109.391-.625 0-1.094-.2348-1.359-.657-.172-.2649-.25-.5778-.266-1.0778h.609c.016.3438.063.5469.141.7028.156.3132.484.5.844.5.562 0 .969-.4059.969-.9528 0-.391-.235-.734-.657-.984l-.64-.375c-1.016-.5941-1.313-1.0632-1.375-2.1562h3.265z"/><path d="m239.301 96.6879c-.469 0-.875-.2188-1.125-.5469-.328-.4531-.485-1.1101-.485-2.032 0-1.6871.547-2.5781 1.61-2.5781 1.031 0 1.594.891 1.594 2.5312 0 .9688-.157 1.6098-.469 2.0789-.266.343-.672.5469-1.125.5469zm0-.5469c.656 0 .969-.6719.969-2.016 0-1.4219-.313-2.0941-.985-2.0941-.64 0-.969.6882-.969 2.0632s.329 2.0469.985 2.0469z"/></g><g fill="#eb0000"><path d="m210.059 85.7031h2.406v.5629h-2.406v1.609h2.734v.5629h-3.375v-5.032h.641z"/><path d="m214 85.7031h2.734v.5629h-2.734v1.609h2.844v.5629h-3.485v-5.032h3.61v.5632h-2.969z"/><path d="m220.953 84.9219.516-1.516h.719l-1.782 5.032h-.828l-1.781-5.032h.672l.531 1.516zm-.187.5312h-1.61l.844 2.2969z"/><path d="m223.195 84.125v-.7191h.422v-.125c0-.4688-.094-.609-.422-.625v-.2649c.469-.016.735.3121.735.9059v.8281z"/><path d="m233.19 85.844h-3.343v-.48516h3.343zm0-1.1882h-3.343v-.48398h3.343z"/><path d="m236.727 88.2969h-2.516l-.375-2.6559h.562c.282.3281.516.4531.907.4531.656 0 1.062-.4531 1.062-1.1722 0-.7028-.406-1.141-1.078-1.141-.531 0-.844.2812-1 .8281h-.609c.093-.4059.156-.593.297-.7809.281-.359.781-.5781 1.328-.5781 1 0 1.687.7191 1.687 1.75 0 .9691-.64 1.625-1.578 1.625-.359 0-.625-.0781-.906-.2969l.187 1.375h2.032z"/><path d="m239.301 88.4059c-.469 0-.875-.218-1.125-.5469-.328-.4531-.485-1.109-.485-2.0309 0-1.6871.547-2.5781 1.61-2.5781 1.031 0 1.594.891 1.594 2.5309 0 .9691-.157 1.6101-.469 2.0781-.266.3441-.672.5469-1.125.5469zm0-.5469c.656 0 .969-.6711.969-2.0149 0-1.4222-.313-2.0941-.985-2.0941-.64 0-.969.6879-.969 2.0621 0 1.3758.329 2.0469.985 2.0469z"/></g><g fill="#dc0000"><path d="m210.059 77.418h2.406v.5621h-2.406v1.6097h2.734v.5622h-3.375v-5.0309h.641z"/><path d="m214 77.418h2.734v.5621h-2.734v1.6097h2.844v.5622h-3.485v-5.0309h3.61v.5629h-2.969z"/><path d="m220.953 76.6371.516-1.516h.719l-1.782 5.0309h-.828l-1.781-5.0309h.672l.531 1.516zm-.187.5309h-1.61l.844 2.2968z"/><path d="m223.195 75.8398v-.7187h.422v-.125c0-.4691-.094-.609-.422-.625v-.266c.469-.0153.735.3129.735.907v.8277z"/><path d="m233.19 77.559h-3.343v-.48516h3.343zm0-1.1879h-3.343v-.48398h3.343z"/><path d="m237.039 80.0121h-3.281v-.5941h2.656c-1.172-1.6719-1.656-2.6879-2.016-4.2969h.657c.265 1.5629.875 2.9219 1.984 4.391z"/><path d="m240.676 80.0121h-2.516l-.375-2.657h.563c.281.3289.515.4539.906.4539.656 0 1.062-.4539 1.062-1.1719 0-.7031-.406-1.141-1.078-1.141-.531 0-.843.2809-1 .8277h-.609c.094-.4058.156-.5937.297-.7808.281-.359.781-.5782 1.328-.5782 1 0 1.687.7192 1.687 1.75 0 .9692-.64 1.625-1.578 1.625-.359 0-.625-.0777-.906-.2968l.188 1.375h2.031z"/></g><g fill="#ca0000"><path d="m210.059 69.1289h2.406v.5621h-2.406v1.6102h2.734v.5617h-3.375v-5.0309h.641z"/><path d="m214 69.1289h2.734v.5621h-2.734v1.6102h2.844v.5617h-3.485v-5.0309h3.61v.5629h-2.969z"/><path d="m220.953 68.348.516-1.516h.719l-1.782 5.0309h-.828l-1.781-5.0309h.672l.531 1.516zm-.187.5309h-1.61l.844 2.2973z"/><path d="m223.195 67.5512v-.7192h.422v-.125c0-.4691-.094-.609-.422-.625v-.266c.469-.0148.735.3129.735.907v.8282z"/><path d="m233.19 69.27h-3.343v-.48477h3.343zm0-1.1879h-3.343v-.48398h3.343z"/><path d="m235.227 70.3949v-3.5629h.609v5h-.391c-.218-.766-.359-.875-1.297-1v-.4371z"/><path d="m239.301 71.832c-.469 0-.875-.2191-1.125-.5468-.328-.4532-.485-1.109-.485-2.0313 0-1.6879.547-2.5777 1.61-2.5777 1.031 0 1.594.8898 1.594 2.5308 0 .9692-.157 1.609-.469 2.0782-.266.3437-.672.5468-1.125.5468zm0-.5468c.656 0 .969-.6723.969-2.0153 0-1.4219-.313-2.0937-.985-2.0937-.64 0-.969.6867-.969 2.0617s.329 2.0473.985 2.0473z"/><path d="m243.246 71.832c-.469 0-.875-.2191-1.125-.5468-.328-.4532-.484-1.109-.484-2.0313 0-1.6879.547-2.5777 1.609-2.5777 1.031 0 1.594.8898 1.594 2.5308 0 .9692-.156 1.609-.469 2.0782-.266.3437-.672.5468-1.125.5468zm0-.5468c.656 0 .969-.6723.969-2.0153 0-1.4219-.313-2.0937-.985-2.0937-.64 0-.968.6867-.968 2.0617s.328 2.0473.984 2.0473z"/></g><g fill="#b80000"><path d="m210.059 60.848h2.406v.5622h-2.406v1.6097h2.734v.5621h-3.375v-5.0308h.641z"/><path d="m214 60.848h2.734v.5622h-2.734v1.6097h2.844v.5621h-3.485v-5.0308h3.61v.5617h-2.969z"/><path d="m220.953 60.066.516-1.5148h.719l-1.782 5.0308h-.828l-1.781-5.0308h.672l.531 1.5148zm-.187.532h-1.61l.844 2.2969z"/><path d="m223.195 59.2699v-.7187h.422v-.125c0-.4692-.094-.6102-.422-.625v-.266c.469-.0153.735.3128.735.9058v.8289z"/><path d="m233.19 60.988h-3.343v-.48398h3.343zm0-1.1867h-3.343v-.48516h3.343z"/><path d="m235.227 62.1129v-3.5617h.609v5h-.391c-.218-.766-.359-.875-1.297-1v-.4383z"/><path d="m240.895 59.1449h-2.579c.063.4211.282.6871.875 1.0461l.704.391c.671.375 1.031.891 1.031 1.5 0 .4219-.172.8129-.453 1.0782-.297.266-.657.391-1.11.391-.625 0-1.093-.2352-1.359-.6563-.172-.266-.25-.5789-.266-1.0789h.61c.015.3442.062.5469.14.7039.157.3121.485.5.844.5.563 0 .969-.407.969-.9539 0-.3898-.235-.734-.656-.984l-.641-.375c-1.016-.5941-1.313-1.0621-1.375-2.1558h3.266z"/><path d="m244.621 63.441h-2.516l-.375-2.6558h.563c.281.3277.516.4527.906.4527.656 0 1.063-.4527 1.063-1.1719 0-.7031-.407-1.1398-1.078-1.1398-.532 0-.844.2808-1 .8277h-.61c.094-.4059.156-.5937.297-.7809.281-.3601.781-.5781 1.328-.5781 1 0 1.688.718 1.688 1.75 0 .968-.641 1.625-1.578 1.625-.36 0-.625-.0789-.907-.2969l.188 1.375h2.031z"/></g><g fill="#a60000"><path d="m210.059 52.559h2.406v.5621h-2.406v1.609h2.734v.5629h-3.375v-5.0309h.641z"/><path d="m214 52.559h2.734v.5621h-2.734v1.609h2.844v.5629h-3.485v-5.0309h3.61v.5617h-2.969z"/><path d="m220.953 51.777.516-1.5149h.719l-1.782 5.0309h-.828l-1.781-5.0309h.672l.531 1.5149zm-.187.532h-1.61l.844 2.2961z"/><path d="m223.195 50.9801v-.718h.422v-.125c0-.4691-.094-.6101-.422-.625v-.266c.469-.016.735.3129.735.9059v.8281z"/><path d="m233.19 52.699h-3.343v-.48398h3.343zm0-1.1867h-3.343v-.48516h3.343z"/><path d="m235.227 53.8238v-3.5617h.609v5h-.391c-.218-.766-.359-.875-1.297-1v-.4383z"/><path d="m240.676 55.152h-2.516l-.375-2.6559h.563c.281.3277.515.4527.906.4527.656 0 1.062-.4527 1.062-1.1718 0-.7032-.406-1.1399-1.078-1.1399-.531 0-.843.2809-1 .8277h-.609c.094-.4058.156-.5937.297-.7808.281-.3602.781-.5789 1.328-.5789 1 0 1.687.7187 1.687 1.75 0 .9687-.64 1.625-1.578 1.625-.359 0-.625-.0781-.906-.2961l.188 1.375h2.031z"/><path d="m243.246 55.2621c-.469 0-.875-.2191-1.125-.5473-.328-.4527-.484-1.1097-.484-2.0308 0-1.6879.547-2.5789 1.609-2.5789 1.031 0 1.594.891 1.594 2.532 0 .968-.156 1.609-.469 2.0777-.266.3442-.672.5473-1.125.5473zm0-.5473c.656 0 .969-.6718.969-2.016 0-1.4218-.313-2.0937-.985-2.0937-.64 0-.968.6879-.968 2.0629s.328 2.0468.984 2.0468z"/></g><g fill="#940000"><path d="m210.059 44.277h2.406v.5628h-2.406v1.609h2.734v.5633h-3.375v-5.032h.641z"/><path d="m214 44.277h2.734v.5628h-2.734v1.609h2.844v.5633h-3.485v-5.032h3.61v.5629h-2.969z"/><path d="m220.953 43.4961.516-1.516h.719l-1.782 5.032h-.828l-1.781-5.032h.672l.531 1.516zm-.187.5309h-1.61l.844 2.2968z"/><path d="m223.195 42.6988v-.7187h.422v-.125c0-.468-.094-.609-.422-.625v-.2653c.469-.016.735.3122.735.9063v.8277z"/><path d="m233.19 44.418h-3.343v-.48398h3.343zm0-1.1879h-3.343v-.48398h3.343z"/><path d="m235.227 45.543v-3.5629h.609v5h-.391c-.218-.7653-.359-.875-1.297-1v-.4371z"/><path d="m240.988 46.8711h-3.281v-.5941h2.656c-1.172-1.6719-1.656-2.6872-2.015-4.2969h.656c.266 1.5629.875 2.9219 1.984 4.391z"/><path d="m244.621 46.8711h-2.516l-.375-2.6563h.563c.281.3282.516.4532.906.4532.656 0 1.063-.4532 1.063-1.1719 0-.7031-.407-1.141-1.078-1.141-.532 0-.844.282-1 .8289h-.61c.094-.407.156-.5942.297-.782.281-.359.781-.5782 1.328-.5782 1 0 1.688.7192 1.688 1.75 0 .9692-.641 1.625-1.578 1.625-.36 0-.625-.0777-.907-.2968l.188 1.375h2.031z"/></g><g fill="#820000"><path d="m210.059 35.9922h2.406v.5629h-2.406v1.609h2.734v.5629h-3.375v-5.0321h.641z"/><path d="m214 35.9922h2.734v.5629h-2.734v1.609h2.844v.5629h-3.485v-5.0321h3.61v.5633h-2.969z"/><path d="m220.953 35.2109.516-1.516h.719l-1.782 5.0321h-.828l-1.781-5.0321h.672l.531 1.516zm-.187.5313h-1.61l.844 2.2969z"/><path d="m223.195 34.4141v-.7192h.422v-.125c0-.4679-.094-.609-.422-.625v-.2648c.469-.016.735.3121.735.9058v.8282z"/><path d="m233.19 36.133h-3.343v-.48516h3.343zm0-1.1883h-3.343v-.48398h3.343z"/><path d="m236.945 34.2891h-2.578c.063.4218.281.6879.875 1.0468l.703.3911c.672.375 1.032.8902 1.032 1.5 0 .421-.172.8121-.454 1.0781-.296.2648-.656.3898-1.109.3898-.625 0-1.094-.234-1.359-.6558-.172-.2661-.25-.5782-.266-1.0782h.609c.016.3442.063.5473.141.7032.156.3129.484.5.844.5.562 0 .969-.4059.969-.9532 0-.391-.235-.7339-.657-.9839l-.64-.375c-1.016-.5938-1.313-1.0629-1.375-2.1571h3.265z"/><path d="m239.301 38.6949c-.469 0-.875-.2179-1.125-.5469-.328-.4531-.485-1.1089-.485-2.0308 0-1.6871.547-2.5781 1.61-2.5781 1.031 0 1.594.891 1.594 2.5308 0 .9692-.157 1.6102-.469 2.0781-.266.3442-.672.5469-1.125.5469zm0-.5469c.656 0 .969-.671.969-2.0148 0-1.4223-.313-2.0941-.985-2.0941-.64 0-.969.6879-.969 2.0629s.329 2.046.985 2.046z"/><path d="m243.246 38.6949c-.469 0-.875-.2179-1.125-.5469-.328-.4531-.484-1.1089-.484-2.0308 0-1.6871.547-2.5781 1.609-2.5781 1.031 0 1.594.891 1.594 2.5308 0 .9692-.156 1.6102-.469 2.0781-.266.3442-.672.5469-1.125.5469zm0-.5469c.656 0 .969-.671.969-2.0148 0-1.4223-.313-2.0941-.985-2.0941-.64 0-.968.6879-.968 2.0629s.328 2.046.984 2.046z"/></g><g fill="#700000"><path d="m210.059 27.7031h2.406v.5629h-2.406v1.609h2.734v.5629h-3.375v-5.032h.641z"/><path d="m214 27.7031h2.734v.5629h-2.734v1.609h2.844v.5629h-3.485v-5.032h3.61v.5632h-2.969z"/><path d="m220.953 26.9219.516-1.516h.719l-1.782 5.032h-.828l-1.781-5.032h.672l.531 1.516zm-.187.5312h-1.61l.844 2.2969z"/><path d="m223.195 26.125v-.7191h.422v-.125c0-.4688-.094-.609-.422-.625v-.2649c.469-.016.735.3121.735.9059v.8281z"/><path d="m233.19 27.844h-3.343v-.48516h3.343zm0-1.1882h-3.343v-.48398h3.343z"/><path d="m236.945 26h-2.578c.063.4219.281.6879.875 1.0469l.703.391c.672.3742 1.032.8902 1.032 1.5 0 .4211-.172.8121-.454 1.0781-.296.2649-.656.3899-1.109.3899-.625 0-1.094-.234-1.359-.6559-.172-.266-.25-.5781-.266-1.0781h.609c.016.3441.063.5472.141.7031.156.3129.484.5.844.5.562 0 .969-.4059.969-.9531 0-.391-.235-.734-.657-.984l-.64-.3758c-1.016-.593-1.313-1.0621-1.375-2.1562h3.265z"/><path d="m240.895 26h-2.579c.063.4219.282.6879.875 1.0469l.704.391c.671.3742 1.031.8902 1.031 1.5 0 .4211-.172.8121-.453 1.0781-.297.2649-.657.3899-1.11.3899-.625 0-1.093-.234-1.359-.6559-.172-.266-.25-.5781-.266-1.0781h.61c.015.3441.062.5472.14.7031.157.3129.485.5.844.5.563 0 .969-.4059.969-.9531 0-.391-.235-.734-.656-.984l-.641-.3758c-1.016-.593-1.313-1.0621-1.375-2.1562h3.266z"/><path d="m244.621 30.2969h-2.516l-.375-2.6559h.563c.281.3281.516.4531.906.4531.656 0 1.063-.4531 1.063-1.1722 0-.7028-.407-1.141-1.078-1.141-.532 0-.844.2812-1 .8281h-.61c.094-.4059.156-.593.297-.7809.281-.359.781-.5781 1.328-.5781 1 0 1.688.7191 1.688 1.75 0 .9691-.641 1.625-1.578 1.625-.36 0-.625-.0781-.907-.2969l.188 1.375h2.031z"/></g><g fill="#5e0000"><path d="m210.059 19.4219h2.406v.5621h-2.406v1.6101h2.734v.5618h-3.375v-5.0309h.641z"/><path d="m214 19.4219h2.734v.5621h-2.734v1.6101h2.844v.5618h-3.485v-5.0309h3.61v.5629h-2.969z"/><path d="m220.953 18.641.516-1.516h.719l-1.782 5.0309h-.828l-1.781-5.0309h.672l.531 1.516zm-.187.5309h-1.61l.844 2.2972z"/><path d="m223.195 17.8441v-.7191h.422v-.125c0-.4691-.094-.609-.422-.625v-.266c.469-.0149.735.3129.735.907v.8281z"/><path d="m233.19 19.562h-3.343v-.48398h3.343zm0-1.1871h-3.343v-.48398h3.343z"/><path d="m236.945 17.7191h-2.578c.063.4219.281.6868.875 1.0469l.703.3899c.672.375 1.032.891 1.032 1.5 0 .4222-.172.8132-.454 1.0781-.296.266-.656.391-1.109.391-.625 0-1.094-.234-1.359-.6559-.172-.266-.25-.5781-.266-1.0781h.609c.016.343.063.5469.141.7031.156.3118.484.5.844.5.562 0 .969-.4062.969-.9531 0-.391-.235-.7351-.657-.9851l-.64-.375c-1.016-.593-1.313-1.0618-1.375-2.1559h3.265z"/><path d="m240.676 22.016h-2.516l-.375-2.657h.563c.281.3289.515.4531.906.4531.656 0 1.062-.4531 1.062-1.1711 0-.7031-.406-1.141-1.078-1.141-.531 0-.843.2809-1 .8281h-.609c.094-.4062.156-.5941.297-.7812.281-.359.781-.5778 1.328-.5778 1 0 1.687.7188 1.687 1.75 0 .9688-.64 1.625-1.578 1.625-.359 0-.625-.0781-.906-.2972l.188 1.375h2.031z"/><path d="m243.246 22.125c-.469 0-.875-.2191-1.125-.5469-.328-.4531-.484-1.109-.484-2.0312 0-1.6879.547-2.5778 1.609-2.5778 1.031 0 1.594.8899 1.594 2.5309 0 .9691-.156 1.609-.469 2.0781-.266.3438-.672.5469-1.125.5469zm0-.5469c.656 0 .969-.6722.969-2.016 0-1.4211-.313-2.093-.985-2.093-.64 0-.968.6868-.968 2.0618s.328 2.0472.984 2.0472z"/></g><path d="m18.691 21.484v-.593h-.5621c-.234 0-.359.125-.359.3899v.2031h-.4687c-.0313-.125-.0473-.2031-.0473-.3281 0-.5309.3121-.8438.8281-.8438h.609v-.484h.4692v.484h3.1558v.5789h-3.1558v.593z"/><path d="m18.691 22.1449h3.625v.593h-1.875c-.875 0-1.2648.3601-1.234 1.157h-.5941c-.0149-.0937-.0149-.157-.0149-.2187 0-.375.218-.6563.75-.9852h-.657z"/><path d="m21.973 27.332c.0149-.0621.0149-.0781.0149-.109 0-.2031-.093-.3128-.2809-.3128h-2.125c-.641 0-.984-.4692-.984-1.359 0-.5313.1399-.9532.4219-1.2032.1871-.1718.3903-.2351.75-.25v.5782c-.4379.0468-.641.3117-.641.8437 0 .5313.1871.8121.5313.8121h.1558c.25-.016.3442-.125.407-.609.093-.8128.125-.9378.218-1.157.1719-.4211.5-.625.9692-.625.6558 0 1.0628.4539 1.0628 1.1879 0 .4531-.157.8121-.532 1.2191.375.0469.532.218.532.593 0 .125-.016.2039-.0628.391zm-.7968-1c.1867 0 .3117-.0621.4687-.234.218-.2351.3281-.516.3281-.8441 0-.4527-.2191-.7187-.5781-.7187-.391 0-.5789.25-.6719.875-.0781.6097-.1101.7347-.1878.9218z"/><path d="m19.9102 30.8441c-.3442-.032-.5782-.0941-.7813-.2351-.3277-.25-.5309-.6871-.5309-1.1871 0-.984.7649-1.6098 1.968-1.6098 1.1719 0 1.907.6098 1.907 1.5938 0 .8601-.516 1.4062-1.407 1.4851v-.5789c.5942-.093.875-.3902.875-.8902 0-.641-.5148-1.016-1.375-1.016-.9058 0-1.4371.375-1.4371 1 0 .4851.2813.7972.7813.8601z"/><path d="m18.691 33.2852v-.5942h-.984v-.5621h.984v-.5h.4692v.5h2.7347c.375 0 .5781.234.5781.6871 0 .157-.016.282-.0468.4692h-.4852c.016-.0782.032-.1563.032-.2653 0-.25-.0781-.3289-.3281-.3289h-2.4847v.5942z"/><path d="m18.691 33.9801h3.625v.562891h-3.625zm-1.4058-.0153h.71875v.578125h-.71875z"/><path d="m18.598 37.359c0-1.0149.718-1.625 1.9372-1.625 1.2187 0 1.9378.6101 1.9378 1.641 0 1.016-.7191 1.625-1.907 1.625-1.2648 0-1.968-.5941-1.968-1.641zm.5309.016c0 .641.5313 1.0309 1.4223 1.0309.859 0 1.3898-.4059 1.3898-1.0309 0-.641-.5308-1.0469-1.4058-1.0469s-1.4063.4059-1.4063 1.0469z"/><path d="m18.691 39.9102h3.625v.5777h-2c-.734 0-1.218.391-1.218.9851 0 .4532.2809.75.718.75h2.5v.5622h-2.734c-.5941 0-.984-.4372-.984-1.1403 0-.5469.2032-.891.7032-1.2039h-.6102z"/><path d="m18.598 47.2191c0-1.016.718-1.625 1.9372-1.625 1.2187 0 1.9378.609 1.9378 1.6399 0 1.016-.7191 1.625-1.907 1.625-1.2648 0-1.968-.593-1.968-1.6399zm.5309.0149c0 .641.5313 1.032 1.4223 1.032.859 0 1.3898-.407 1.3898-1.032 0-.6399-.5308-1.0461-1.4058-1.0461s-1.4063.4062-1.4063 1.0461z"/><path d="m18.691 51.0738v-.5937h-.5621c-.234 0-.359.125-.359.391v.2027h-.4687c-.0313-.125-.0473-.2027-.0473-.3277 0-.5313.3121-.8441.8281-.8441h.609v-.484h.4692v.484h3.1558v.5781h-3.1558v.5937z"/><path d="m19.707 56.266c-.7191-.016-1.109-.4851-1.109-1.3129 0-.8441.4372-1.391 1.093-1.391.5789 0 .8442.282 1.0469 1.141l.141.5469c.0941.391.234.5469.484.5469.3601 0 .5781-.3278.5781-.8278 0-.3132-.093-.5781-.234-.7191-.109-.0941-.2191-.141-.4691-.1719v-.609c.8441.0309 1.2351.5 1.2351 1.4368 0 .9222-.4531 1.5-1.141 1.5-.5468 0-.8441-.3118-1.016-1.0309l-.125-.5469c-.109-.4691-.2648-.6722-.5148-.6722-.3442 0-.5473.2972-.5473.766 0 .4691.2031.7191.5781.734z"/><path d="m18.598 58.0699c0-1.0148.718-1.625 1.9372-1.625 1.2187 0 1.9378.6102 1.9378 1.641 0 1.0161-.7191 1.625-1.907 1.625-1.2648 0-1.968-.5937-1.968-1.641zm.5309.016c0 .6411.5313 1.0313 1.4223 1.0313.859 0 1.3898-.4063 1.3898-1.0313 0-.641-.5308-1.0468-1.4058-1.0468s-1.4063.4058-1.4063 1.0468z"/><path d="m17.285 60.61h5.0309v.57773h-5.0309z"/><path d="m22.316 64.082-3.625 1.391v-.657l2.9379-1.0148-2.9379-.9692v-.6558l3.625 1.2808z"/><path d="m20.707 68.6172c-.5621 0-.891-.0473-1.1558-.1563-.5942-.2339-.9532-.7808-.9532-1.4531 0-1.0156.7649-1.6558 1.9532-1.6558 1.2027 0 1.9218.6089 1.9218 1.6402 0 .8277-.4691 1.4058-1.25 1.5469v-.5782c.468-.1558.718-.4839.718-.9531 0-.3598-.1558-.6719-.468-.8598-.2031-.1402-.407-.1871-.766-.2031zm-.4691-2.6563c-.6719.0469-1.109.4532-1.109 1.0313 0 .5937.4531 1 1.109 1z"/><path d="m17.2852 72.441v-.5781h1.875c-.375-.234-.5622-.625-.5622-1.109 0-.9379.75-1.5629 1.9059-1.5629 1.2191 0 1.9691.6102 1.9691 1.5789 0 .5-.1878.843-.625 1.1563h.468v.5148zm1.8437-1.593c0 .625.5473 1.0149 1.4223 1.0149.8277 0 1.3898-.4059 1.3898-1 0-.6399-.5621-1.0617-1.4058-1.0617-.8442 0-1.4063.4218-1.4063 1.0468z"/><path d="m18.691 75.402h3.625v.562891h-3.625zm-1.4058-.0149h.71875v.577734h-.71875z"/><path d="m18.691 77.3949h3.625v.5781h-2c-.734 0-1.218.3899-1.218.984 0 .4532.2809.75.718.75h2.5v.5629h-2.734c-.5941 0-.984-.4379-.984-1.141 0-.5469.2032-.891.7032-1.2027h-.6102z"/><path d="m19.707 83.8828c-.7191-.0156-1.109-.4848-1.109-1.3129 0-.8429.4372-1.3898 1.093-1.3898.5789 0 .8442.2808 1.0469 1.1398l.141.5473c.0941.3906.234.5469.484.5469.3601 0 .5781-.3282.5781-.8282 0-.3129-.093-.5781-.234-.7187-.109-.0942-.2191-.1402-.4691-.1723v-.609c.8441.0313 1.2351.5 1.2351 1.4371 0 .9219-.4531 1.5-1.141 1.5-.5468 0-.8441-.3121-1.016-1.0308l-.125-.5473c-.109-.4679-.2648-.6719-.5148-.6719-.3442 0-.5473.2969-.5473.7661 0 .4687.2031.7187.5781.7339z"/><path d="m18.691 85.5621v-.593h-.984v-.5632h.984v-.5h.4692v.5h2.7347c.375 0 .5781.2351.5781.6882 0 .1559-.016.2809-.0468.468h-.4852c.016-.0781.032-.1562.032-.2652 0-.25-.0781-.3278-.3281-.3278h-2.4847v.593z"/><path d="m21.973 89.4691c.0149-.0632.0149-.0781.0149-.1101 0-.2031-.093-.3121-.2809-.3121h-2.125c-.641 0-.984-.4688-.984-1.359 0-.532.1399-.9539.4219-1.2039.1871-.1719.3903-.234.75-.25v.5781c-.4379.0469-.641.3129-.641.8438 0 .532.1871.8132.5313.8132h.1558c.25-.016.3442-.125.407-.6101.093-.8121.125-.9371.218-1.1559.1719-.4222.5-.625.9692-.625.6558 0 1.0628.4528 1.0628 1.1879 0 .4531-.157.8121-.532 1.218.375.0469.532.2191.532.5941 0 .125-.016.2028-.0628.391zm-.7968-1c.1867 0 .3117-.0632.4687-.2351.218-.234.3281-.5149.3281-.843 0-.4531-.2191-.7191-.5781-.7191-.391 0-.5789.25-.6719.875-.0781.609-.1101.734-.1878.9222z"/><path d="m18.691 90.2148h3.625v.5782h-2c-.734 0-1.218.391-1.218.984 0 .4531.2809.75.718.75h2.5v.5628h-2.734c-.5941 0-.984-.4378-.984-1.141 0-.5468.2032-.8898.7032-1.2027h-.6102z"/><path d="m19.9102 96.9219c-.3442-.0309-.5782-.0938-.7813-.234-.3277-.25-.5309-.6879-.5309-1.1879 0-.984.7649-1.609 1.968-1.609 1.1719 0 1.907.609 1.907 1.593 0 .8601-.516 1.407-1.407 1.4851v-.5781c.5942-.0941.875-.391.875-.891 0-.641-.5148-1.016-1.375-1.016-.9058 0-1.4371.375-1.4371 1 0 .4851.2813.7969.7813.8601z"/><path d="m20.707 101.168c-.5621 0-.891-.047-1.1558-.156-.5942-.235-.9532-.782-.9532-1.453 0-1.016.7649-1.657 1.9532-1.657 1.2027 0 1.9218.6101 1.9218 1.641 0 .828-.4691 1.406-1.25 1.547v-.578c.468-.157.718-.485.718-.953 0-.3602-.1558-.6719-.468-.8602-.2031-.1398-.407-.1867-.766-.2027zm-.4691-2.6559c-.6719.0469-1.109.4527-1.109 1.0309 0 .594.4531 1 1.109 1z"/><path d="m19.707 104.594c-.7191-.016-1.109-.485-1.109-1.313 0-.843.4372-1.39 1.093-1.39.5789 0 .8442.281 1.0469 1.14l.141.547c.0941.391.234.547.484.547.3601 0 .5781-.328.5781-.828 0-.313-.093-.578-.234-.719-.109-.094-.2191-.14-.4691-.172v-.609c.8441.031 1.2351.5 1.2351 1.437 0 .922-.4531 1.5-1.141 1.5-.5468 0-.8441-.312-1.016-1.031l-.125-.547c-.109-.468-.2648-.672-.5148-.672-.3442 0-.5473.297-.5473.766s.2031.719.5781.734z"/><path d="m148.82 15.7539h2.735v.5621h-2.735v1.6102h2.844v.5617h-3.484v-5.0309h3.609v.5629h-2.969z"/><path d="m153.766 15.6289h1.656c.578 0 .828-.2809.828-.9059v-.4378c0-.3122.047-.625.141-.8282h.781v.1559c-.234.1723-.281.3441-.297 1.016-.016.8281-.141 1.0781-.687 1.3121.562.282.796.625.796 1.2039 0 .875-.546 1.343-1.531 1.343h-2.328v-5.0309h.641zm0 .5621v1.7352h1.562c.36 0 .563-.0633.719-.1883.172-.1559.265-.375.265-.6719 0-.609-.312-.875-.984-.875z"/><path d="m159.859 17.9262h1.657v.5617h-3.954v-.5617h1.657v-4.4692h.64z"/><path d="m164.367 17.082h-.56211v-3.625h.56211zm0 1.4059h-.57813v-.717969h.57813z"/><path d="m165.789 17.082v-3.625h.578v2c0 .734.391 1.2192.985 1.2192.453 0 .75-.2813.75-.7192v-2.5h.562v2.734c0 .5942-.437.9852-1.141.9852-.546 0-.89-.2032-1.203-.7032v.609z"/><path d="m172.5 15.754h2.406v.5621h-2.406v1.6102h2.734v.5617h-3.375v-5.0309h.641z"/><path d="m176.438 15.7539h2.734v.5621h-2.734v1.6102h2.843v.5617h-3.484v-5.0309h3.609v.5629h-2.968z"/><path d="m183.133 16.066c-.016.7192-.485 1.1102-1.313 1.1102-.843 0-1.39-.4383-1.39-1.0942 0-.5781.281-.8441 1.14-1.0468l.547-.1403c.391-.0937.547-.2347.547-.4847 0-.359-.328-.5782-.828-.5782-.313 0-.578.0942-.719.234-.094.1102-.14.2192-.172.4692h-.609c.031-.8442.5-1.234 1.437-1.234.922 0 1.5.4527 1.5 1.1398 0 .5469-.312.8442-1.031 1.016l-.547.125c-.468.109-.672.266-.672.516 0 .343.297.5469.766.5469s.719-.2039.734-.5789z"/><g font-family="Arial" font-size="8" stroke-width=".75" transform="scale(1 -1)"><text fill="#00005e" x="52.505211" y="-112.758"><tspan fill="#00005e" stroke-width=".75" x="52.505211" y="-112.758">n</tspan></text><text fill="#0000ae" x="52.505211" y="-120.887"><tspan fill="#0000ae" stroke-width=".75" x="52.505211" y="-120.887">n</tspan></text><text fill="#00f" x="52.505211" y="-129.172"><tspan fill="#00f" stroke-width=".75" x="52.505211" y="-129.172">n</tspan></text><text fill="#f00" x="225.00215" y="-91.530899"><tspan fill="#f00" stroke-width=".75" x="225.00215" y="-91.530899">n</tspan></text><text fill="#eb0000" x="225.00215" y="-83.25"><tspan fill="#eb0000" stroke-width=".75" x="225.00215" y="-83.25">n</tspan></text><text fill="#dc0000" x="225.00215" y="-75.121101"><tspan fill="#dc0000" stroke-width=".75" x="225.00215" y="-75.121101">n</tspan></text><text fill="#ca0000" x="225.00215" y="-66.676201"><tspan fill="#ca0000" stroke-width=".75" x="225.00215" y="-66.676201">n</tspan></text><text fill="#b80000" x="225.00215" y="-58.551201"><tspan fill="#b80000" stroke-width=".75" x="225.00215" y="-58.551201">n</tspan></text><text fill="#a60000" x="225.00215" y="-50.105099"><tspan fill="#a60000" stroke-width=".75" x="225.00215" y="-50.105099">n</tspan></text><text fill="#940000" x="225.00215" y="-41.980099"><tspan fill="#940000" stroke-width=".75" x="225.00215" y="-41.980099">n</tspan></text><text fill="#700000" x="225.00215" y="-25.405899"><tspan fill="#700000" stroke-width=".75" x="225.00215" y="-25.405899">n</tspan></text><text fill="#5e0000" x="225.00215" y="-16.969101"><tspan fill="#5e0000" stroke-width=".75" x="225.00215" y="-16.969101">n</tspan></text><text fill="#820000" x="225.00215" y="-33.539101"><tspan fill="#820000" stroke-width=".75" x="225.00215" y="-33.539101">n</tspan></text></g></g></svg>