<svg height="209.33" viewBox="0 0 335.69 209.33" width="335.69" xmlns="http://www.w3.org/2000/svg"><g fill="none" stroke-linecap="round" stroke-miterlimit="10" stroke-width=".99998"><g stroke="#bebebe" stroke-linejoin="round"><path d="m30.864 93.105h299.03"/><path d="m103.12 59.966h226.78"/><path d="m103.12 26.831h226.78"/><path d="m134.38 159.38v-155.78"/><path d="m191.87 159.38v-155.78"/><path d="m249.39 131.12v-127.52"/><path d="m306.9 131.12v-127.52"/></g><g stroke="#000"><path d="m76.867 159.38h230.02"/><path d="m76.867 159.38v3.1146"/><path d="m134.38 159.38v3.1146"/><path d="m191.87 159.38v3.1146"/><path d="m249.39 159.38v3.1146"/><path d="m306.9 159.38v3.1146"/></g></g><text font-family="'Nimbus Sans'" font-size="9.3331" stroke-width="1.3333" x="71.53466" y="172.74541"><tspan stroke-width="1.3333" x="71.53466 76.863861 129.04523 134.37442 186.54741 191.87662 244.05797 249.38716 301.56015 306.88937" y="172.74541">1015202530</tspan></text><g fill="none" stroke="#000" stroke-linecap="round" stroke-miterlimit="10" stroke-width=".99998"><path d="m30.864 3.5979h299.03v155.78h-299.03z"/><g stroke-linejoin="round"><path d="m30.864 159.38v-132.55"/><path d="m30.864 159.38h-5.5999"/><path d="m30.864 126.25h-5.5999"/><path d="m30.864 93.105h-5.5999"/><path d="m30.864 59.966h-5.5999"/><path d="m30.864 26.831h-5.5999"/></g></g><g font-family="Nimbus Sans" stroke-width="1.3333"><text font-size="9.3331" x="4.999865" y="162.71962"><tspan stroke-width="1.3333" x="4.999865 10.329065" y="162.71962">10</tspan></text><text font-size="6.5324" x="15.666265" y="158.27702"><tspan stroke-width="1.3333" x="15.666265" y="158.27702">0</tspan></text><text font-size="9.3331" x="4.999865" y="129.57982"><tspan stroke-width="1.3333" x="4.999865 10.329065" y="129.57982">10</tspan></text><text font-size="6.5324" x="15.666265" y="125.13722"><tspan stroke-width="1.3333" x="15.666265" y="125.13722">2</tspan></text><text font-size="9.3331" x="4.999865" y="96.440025"><tspan stroke-width="1.3333" x="4.999865 10.329065" y="96.440025">10</tspan></text><text font-size="6.5324" x="15.666265" y="91.997421"><tspan stroke-width="1.3333" x="15.666265" y="91.997421">4</tspan></text><text font-size="9.3331" x="4.999865" y="63.305435"><tspan stroke-width="1.3333" x="4.999865 10.329065" y="63.305435">10</tspan></text><text font-size="6.5324" x="15.666265" y="58.862835"><tspan stroke-width="1.3333" x="15.666265" y="58.862835">6</tspan></text><text font-size="9.3331" x="4.999865" y="30.165638"><tspan stroke-width="1.3333" x="4.999865 10.329065" y="30.165638">10</tspan></text><text font-size="6.5324" x="15.666265" y="25.72304"><tspan stroke-width="1.3333" x="15.666265" y="25.72304">8</tspan></text></g><g fill="none" stroke-linecap="round" stroke-linejoin="round" stroke-miterlimit="10" stroke-width=".99998"><path d="m76.867 159.59v-88.262" stroke="#bebebe"/><path d="m30.864 126.25h299.03" stroke="#bebebe"/><g stroke="#f00"><path d="m32.963 125.71c0 2.8026-4.1986 2.8026-4.1986 0 0-2.7959 4.1986-2.7959 4.1986 0"/><path d="m44.468 122.79c0 2.7973-4.2039 2.7973-4.2039 0 0-2.8026 4.2039-2.8026 4.2039 0"/><path d="m55.968 114.16c0 2.8026-4.1986 2.8026-4.1986 0 0-2.8013 4.1986-2.8013 4.1986 0"/><path d="m67.468 110.09c0 2.8013-4.1986 2.8013-4.1986 0 0-2.7973 4.1986-2.7973 4.1986 0"/><path d="m78.973 101.98c0 2.8013-4.2039 2.8013-4.2039 0 0-2.8026 4.2039-2.8026 4.2039 0"/><path d="m90.472 98.225c0 2.7973-4.2039 2.7973-4.2039 0 0-2.8013 4.2039-2.8013 4.2039 0"/><path d="m101.97 89.924c0 2.8013-4.1986 2.8013-4.1986 0 0-2.7973 4.1986-2.7973 4.1986 0"/><path d="m113.47 86.252c0 2.7959-4.1986 2.7959-4.1986 0 0-2.8026 4.1986-2.8026 4.1986 0"/><path d="m124.98 78.924c0 2.7959-4.2026 2.7959-4.2026 0 0-2.8026 4.2026-2.8026 4.2026 0"/><path d="m136.48 74.944c0 2.7973-4.1972 2.7973-4.1972 0 0-2.8013 4.1972-2.8013 4.1972 0"/><path d="m147.98 68.283c0 2.7973-4.1972 2.7973-4.1972 0 0-2.8013 4.1972-2.8013 4.1972 0"/><path d="m159.47 64.502c0 2.8026-4.2026 2.8026-4.2026 0 0-2.8013 4.2026-2.8013 4.2026 0"/><path d="m170.98 57.409c0 2.8013-4.2026 2.8013-4.2026 0 0-2.8026 4.2026-2.8026 4.2026 0"/><path d="m182.47 53.857c0 2.8013-4.1972 2.8013-4.1972 0 0-2.7973 4.1972-2.7973 4.1972 0"/><path d="m193.98 45.961c0 2.7973-4.1972 2.7973-4.1972 0 0-2.8026 4.1972-2.8026 4.1972 0"/><path d="m205.49 42.248c0 2.7959-4.2026 2.7959-4.2026 0 0-2.8026 4.2026-2.8026 4.2026 0"/><path d="m216.98 35.638c0 2.8013-4.1972 2.8013-4.1972 0 0-2.8026 4.1972-2.8026 4.1972 0"/><path d="m228.49 32.659c0 2.8026-4.1972 2.8026-4.1972 0 0-2.7959 4.1972-2.7959 4.1972 0"/><path d="m239.99 23.935c0 2.8026-4.2026 2.8026-4.2026 0 0-2.8013 4.2026-2.8013 4.2026 0"/><path d="m251.49 21.42c0 2.8013-4.1972 2.8013-4.1972 0 0-2.8026 4.1972-2.8026 4.1972 0"/><path d="m262.99 14.128c0 2.7973-4.1972 2.7973-4.1972 0 0-2.8026 4.1972-2.8026 4.1972 0"/><path d="m274.5 11.628c0 2.7973-4.2026 2.7973-4.2026 0 0-2.8026 4.2026-2.8026 4.2026 0"/><path d="m285.99 3.5979c0 2.8013-4.2026 2.8013-4.2026 0 0-2.7973 4.2026-2.7973 4.2026 0"/></g><g stroke="#00f"><path d="m32.963 135.25c0 2.8013-4.1986 2.8013-4.1986 0 0-2.7973 4.1986-2.7973 4.1986 0"/><path d="m44.468 133.91c0 2.8013-4.2039 2.8013-4.2039 0 0-2.8026 4.2039-2.8026 4.2039 0"/><path d="m55.968 126.06c0 2.7973-4.1986 2.7973-4.1986 0 0-2.8013 4.1986-2.8013 4.1986 0"/><path d="m67.468 124.18c0 2.8013-4.1986 2.8013-4.1986 0 0-2.7973 4.1986-2.7973 4.1986 0"/><path d="m78.973 116.54c0 2.7973-4.2039 2.7973-4.2039 0 0-2.8013 4.2039-2.8013 4.2039 0"/><path d="m90.472 113.18c0 2.8026-4.2039 2.8026-4.2039 0s4.2039-2.8026 4.2039 0"/><path d="m101.97 106.32c0 2.7973-4.1986 2.7973-4.1986 0 0-2.8013 4.1986-2.8013 4.1986 0"/><path d="m113.47 104.33c0 2.8026-4.1986 2.8026-4.1986 0 0-2.8013 4.1986-2.8013 4.1986 0"/><path d="m124.98 96.168c0 2.8026-4.2026 2.8026-4.2026 0 0-2.8013 4.2026-2.8013 4.2026 0"/><path d="m136.48 94.064c0 2.7973-4.1972 2.7973-4.1972 0 0-2.8013 4.1972-2.8013 4.1972 0"/><path d="m147.98 85.2c0 2.7959-4.1972 2.7959-4.1972 0 0-2.8026 4.1972-2.8026 4.1972 0"/><path d="m159.47 82.976c0 2.8013-4.2026 2.8013-4.2026 0 0-2.7973 4.2026-2.7973 4.2026 0"/><path d="m170.98 75.72c0 2.8026-4.2026 2.8026-4.2026 0 0-2.7959 4.2026-2.7959 4.2026 0"/><path d="m182.47 72.22c0 2.8026-4.1972 2.8026-4.1972 0 0-2.7959 4.1972-2.7959 4.1972 0"/><path d="m193.98 65.496c0 2.8026-4.1972 2.8026-4.1972 0 0-2.8013 4.1972-2.8013 4.1972 0"/><path d="m205.49 61.976c0 2.8013-4.2026 2.8013-4.2026 0 0-2.8026 4.2026-2.8026 4.2026 0"/><path d="m216.98 54.971c0 2.7959-4.1972 2.7959-4.1972 0 0-2.8026 4.1972-2.8026 4.1972 0"/><path d="m228.49 50.857c0 2.7959-4.1972 2.7959-4.1972 0 0-2.8026 4.1972-2.8026 4.1972 0"/><path d="m239.99 44.934c0 2.8026-4.2026 2.8026-4.2026 0 0-2.7959 4.2026-2.7959 4.2026 0"/><path d="m251.49 42.294c0 2.8026-4.1972 2.8026-4.1972 0 0-2.7973 4.1972-2.7973 4.1972 0"/><path d="m262.99 35.56c0 2.8026-4.1972 2.8026-4.1972 0 0-2.7959 4.1972-2.7959 4.1972 0"/><path d="m274.5 32.587c0 2.8013-4.2026 2.8013-4.2026 0 0-2.7973 4.2026-2.7973 4.2026 0"/><path d="m285.99 24.967c0 2.7973-4.2026 2.7973-4.2026 0 0-2.8026 4.2026-2.8026 4.2026 0"/><path d="m297.5 22.399c0 2.8026-4.1972 2.8026-4.1972 0 0-2.7973 4.1972-2.7973 4.1972 0"/><path d="m308.99 15.306c0 2.8013-4.1972 2.8013-4.1972 0 0-2.8026 4.1972-2.8026 4.1972 0"/><path d="m320.5 12.316c0 2.8013-4.2026 2.8013-4.2026 0 0-2.8026 4.2026-2.8026 4.2026 0"/><path d="m332 4.5299c0 2.8013-4.1972 2.8013-4.1972 0 0-2.7973 4.1972-2.7973 4.1972 0"/></g><g stroke="#f00"><path d="m53.868 110.89 2.8293 4.8959h-5.6572z"/><path d="m76.867 98.714 2.8293 4.9012h-5.6572z"/><path d="m88.372 94.96 2.8279 4.8959h-5.6559z"/><path d="m99.872 90.99 2.8279 4.9012h-5.6559z"/><path d="m111.37 88.61 2.8279 4.8959h-5.6559z"/><path d="m122.87 87.886 2.8333 4.8959h-5.6612z"/><path d="m134.38 84.741 2.8279 4.9012h-5.6559z"/><path d="m145.87 72.898 2.8279 4.9012h-5.6559z"/><path d="m157.38 71.767 2.8279 4.8959h-5.6559z"/><path d="m168.89 68.882 2.8279 4.9012h-5.6559z"/><path d="m180.38 66.95 2.8279 4.8959h-5.6559z"/><path d="m191.87 65.564 2.8279 4.8959h-5.6559z"/><path d="m203.38 63.304 2.8279 4.9012h-5.6559z"/><path d="m214.89 60.772 2.8279 4.9012h-5.6559z"/><path d="m226.38 59.43 2.8279 4.8999h-5.6559z"/><path d="m237.89 57.19 2.8279 4.8959h-5.6559z"/><path d="m249.39 44.398 2.8279 4.8959h-5.6559z"/><path d="m260.89 43.346 2.8279 4.8959h-5.6559z"/><path d="m272.39 41.174 2.8279 4.9012h-5.6559z"/><path d="m283.9 40.794 2.8279 4.9012h-5.6559z"/><path d="m295.39 36.732 2.8279 4.8959h-5.6559z"/><path d="m306.9 37.54 2.8279 4.8999h-5.6558z"/><path d="m318.4 33.097 2.8279 4.8999h-5.6612z"/><path d="m329.9 35.034 2.8279 4.8999h-5.6559z"/></g><g stroke="#00f"><path d="m53.868 122.79 2.8293 4.8959h-5.6572z"/><path d="m76.867 113.28 2.8293 4.8959h-5.6572z"/><path d="m88.372 109.91 2.8279 4.9012h-5.6559z"/><path d="m99.872 106.89 2.8279 4.8959h-5.6559z"/><path d="m111.37 104.57 2.8279 4.9012h-5.6559z"/><path d="m122.87 104.08 2.8333 4.8959h-5.6612z"/><path d="m134.38 100.84 2.8279 4.9012h-5.6559z"/><path d="m145.87 91.856 2.8279 4.8959h-5.6559z"/><path d="m157.38 90.804 2.8279 4.8959h-5.6559z"/><path d="m168.89 87.798 2.8279 4.8959h-5.6559z"/><path d="m180.38 84.981 2.8279 4.8999h-5.6559z"/><path d="m191.87 83.82 2.8279 4.8999h-5.6559z"/><path d="m203.38 82.523 2.8279 4.8959h-5.6559z"/><path d="m214.89 80.767 2.8279 4.9012h-5.6559z"/><path d="m226.38 79.403 2.8279 4.8959h-5.6559z"/><path d="m237.89 76.715 2.8279 4.8959h-5.6559z"/><path d="m249.39 67.491 2.8279 4.9012h-5.6559z"/><path d="m260.89 64.706 2.8279 4.8999h-5.6559z"/><path d="m272.39 63.023 2.8279 4.9012h-5.6559z"/><path d="m283.9 61.934 2.8279 4.8959h-5.6559z"/><path d="m295.39 59.075 2.8279 4.8959h-5.6559z"/><path d="m306.9 58.893 2.8279 4.8959h-5.6558z"/><path d="m318.4 56.611 2.8279 4.8959h-5.6612z"/><path d="m329.9 55.695 2.8279 4.9012h-5.6559z"/></g><g stroke="#f00"><path d="m27.895 125.71h5.9372"/><path d="m30.864 128.68v-5.9425"/><path d="m39.395 122.79h5.9425"/><path d="m42.364 125.76v-5.9372"/><path d="m50.895 120.45h5.9425"/><path d="m53.868 123.43v-5.9425"/><path d="m62.4 110.09h5.9372"/><path d="m65.368 113.06v-5.9372"/><path d="m73.899 107.71h5.9425"/><path d="m76.867 110.68v-5.9372"/><path d="m85.399 105.37h5.9425"/><path d="m88.372 108.34v-5.9372"/><path d="m96.904 102.87h5.9372"/><path d="m99.872 105.84v-5.9425"/><path d="m108.4 100.79h5.9372"/><path d="m111.37 103.76v-5.9372"/><path d="m119.9 100.17h5.9425"/><path d="m122.87 103.14v-5.9372"/><path d="m131.41 97.372h5.9372"/><path d="m134.38 100.34v-5.9372"/><path d="m142.91 84.976h5.9372"/><path d="m145.87 87.944v-5.9372"/><path d="m154.41 84.121h5.9425"/><path d="m157.38 87.096v-5.9425"/><path d="m165.9 82.148h5.9425"/><path d="m168.89 85.116v-5.9372"/><path d="m177.41 80.168h5.9372"/><path d="m180.38 83.137v-5.9425"/><path d="m188.91 76.148h5.9372"/><path d="m191.87 79.116v-5.9372"/><path d="m200.41 76.616h5.9425"/><path d="m203.38 79.585v-5.9425"/><path d="m211.91 73.351h5.9385"/><path d="m214.89 76.319v-5.9372"/><path d="m223.42 74.023h5.9372"/><path d="m226.38 76.996v-5.9425"/><path d="m234.91 71.876h5.9438"/><path d="m237.89 74.845v-5.9372"/><path d="m246.42 56.758h5.9385"/><path d="m249.39 59.726v-5.9425"/><path d="m257.93 58.043h5.9385"/><path d="m260.89 61.012v-5.9372"/><path d="m269.42 55.398h5.9425"/><path d="m272.39 58.373v-5.9425"/><path d="m280.92 53.789h5.9425"/><path d="m283.9 56.758v-5.9372"/><path d="m292.43 52.409h5.9372"/><path d="m295.39 55.377v-5.9372"/><path d="m303.92 50.69h5.9372"/><path d="m306.9 53.658v-5.9372"/><path d="m315.42 49.758h5.9425"/><path d="m318.4 52.726v-5.9372"/><path d="m326.92 48.106h5.9372"/><path d="m329.9 51.075v-5.9425"/></g><g stroke="#00f"><path d="m27.895 135.25h5.9372"/><path d="m30.864 138.22v-5.9425"/><path d="m39.395 133.91h5.9425"/><path d="m42.364 136.89v-5.9372"/><path d="m50.895 130.92h5.9425"/><path d="m53.868 133.89v-5.9372"/><path d="m62.4 124.18h5.9372"/><path d="m65.368 127.16v-5.9425"/><path d="m73.899 120.63h5.9425"/><path d="m76.867 123.59v-5.9439"/><path d="m85.399 118.17h5.9425"/><path d="m88.372 121.15v-5.9425"/><path d="m96.904 118.37h5.9372"/><path d="m99.872 121.33v-5.9425"/><path d="m108.4 117.02h5.9372"/><path d="m111.37 119.98v-5.9372"/><path d="m119.9 114.75h5.9425"/><path d="m122.87 117.71v-5.9372"/><path d="m131.41 114.78h5.9372"/><path d="m134.38 117.75v-5.9425"/><path d="m142.91 103.47h5.9372"/><path d="m145.87 106.44v-5.9372"/><path d="m154.41 103.01h5.9425"/><path d="m157.38 105.98v-5.9385"/><path d="m165.9 99.246h5.9425"/><path d="m168.89 102.22v-5.9425"/><path d="m177.41 98.517h5.9372"/><path d="m180.38 101.49v-5.9385"/><path d="m188.91 95.558h5.9372"/><path d="m191.87 98.528v-5.9425"/><path d="m200.41 93.798h5.9425"/><path d="m203.38 96.766v-5.9425"/><path d="m211.91 93.616h5.9385"/><path d="m214.89 96.585v-5.9425"/><path d="m223.42 91.798h5.9372"/><path d="m226.38 94.766v-5.9372"/><path d="m234.91 90.736h5.9438"/><path d="m237.89 93.705v-5.9385"/><path d="m246.42 79.121h5.9385"/><path d="m249.39 82.091v-5.9372"/><path d="m257.93 78.747h5.9385"/><path d="m260.89 81.72v-5.9425"/><path d="m269.42 77.507h5.9425"/><path d="m272.39 80.481v-5.9425"/><path d="m280.92 75.929h5.9425"/><path d="m283.9 78.897v-5.9425"/><path d="m292.43 73.023h5.9372"/><path d="m295.39 75.996v-5.9425"/><path d="m303.92 73.709h5.9372"/><path d="m306.9 76.679v-5.9372"/><path d="m315.42 69.424h5.9425"/><path d="m318.4 72.392v-5.9372"/><path d="m326.92 69.33h5.9372"/><path d="m329.9 72.304v-5.9425"/></g><g stroke="#f00"><path d="m28.764 127.81 4.1986-4.2039"/><path d="m28.764 123.61 4.1986 4.2039"/><path d="m40.264 124.89 4.2039-4.1972"/><path d="m40.264 120.69 4.2039 4.1972"/><path d="m51.769 116.26 4.1986-4.1986"/><path d="m51.769 112.06 4.1986 4.1986"/><path d="m63.269 112.19 4.1986-4.1986"/><path d="m63.269 107.99 4.1986 4.1986"/><path d="m74.769 109.81 4.2039-4.1986"/><path d="m74.769 105.62 4.2039 4.1986"/><path d="m86.268 107.47 4.2039-4.1986"/><path d="m86.268 103.27 4.2039 4.1986"/><path d="m97.773 104.97 4.1986-4.2039"/><path d="m97.773 100.77 4.1986 4.2039"/><path d="m109.27 102.89 4.1986-4.1972"/><path d="m109.27 98.689 4.1986 4.1972"/><path d="m120.77 102.27 4.2026-4.1972"/><path d="m120.77 98.069 4.2026 4.1972"/><path d="m132.28 99.47 4.1972-4.1986"/><path d="m132.28 95.272 4.1972 4.1986"/><path d="m143.78 96.542 4.1972-4.2026"/><path d="m143.78 92.34 4.1972 4.2026"/><path d="m155.27 95.314 4.2026-4.1986"/><path d="m155.27 91.116 4.2026 4.1986"/><path d="m166.78 93.533 4.2026-4.2039"/><path d="m166.78 89.329 4.2026 4.2039"/><path d="m178.29 93.048 4.1972-4.2026"/><path d="m178.29 88.845 4.1972 4.2026"/><path d="m189.78 90.684 4.1972-4.1972"/><path d="m189.78 86.487 4.1972 4.1972"/><path d="m201.29 78.715 4.2026-4.2026"/><path d="m201.29 74.512 4.2026 4.2026"/><path d="m212.78 75.449 4.1972-4.1972"/><path d="m212.78 71.252 4.1972 4.1972"/><path d="m224.29 76.127 4.1972-4.2026"/><path d="m224.29 71.924 4.1972 4.2026"/><path d="m235.79 73.976 4.2026-4.1986"/><path d="m235.79 69.778 4.2026 4.1986"/><path d="m247.29 72.528 4.1972-4.2039"/><path d="m247.29 68.324 4.1972 4.2039"/><path d="m258.79 71.663 4.1972-4.1972"/><path d="m258.79 67.466 4.1972 4.1972"/><path d="m270.29 68.93 4.2026-4.1986"/><path d="m270.29 64.731 4.2026 4.1986"/><path d="m281.79 67.638 4.2026-4.2039"/><path d="m281.79 63.434 4.2026 4.2039"/><path d="m293.3 65.611 4.1972-4.1972"/><path d="m293.3 61.414 4.1972 4.1972"/><path d="m304.79 65.059 4.1972-4.1972"/><path d="m304.79 60.862 4.1972 4.1972"/><path d="m316.3 63.091 4.2026-4.1986"/><path d="m316.3 58.893 4.2026 4.1986"/><path d="m327.8 64.215 4.1972-4.1972"/><path d="m327.8 60.018 4.1972 4.1972"/></g><g stroke="#00f"><path d="m28.764 137.35 4.1986-4.2026"/><path d="m28.764 133.15 4.1986 4.2026"/><path d="m40.264 136.02 4.2039-4.1972"/><path d="m40.264 131.82 4.2039 4.1972"/><path d="m51.769 128.16 4.1986-4.2026"/><path d="m51.769 123.95 4.1986 4.2026"/><path d="m63.269 126.29 4.1986-4.2026"/><path d="m63.269 122.08 4.1986 4.2026"/><path d="m74.769 122.72 4.2039-4.2026"/><path d="m74.769 118.52 4.2039 4.2026"/><path d="m86.268 120.28 4.2039-4.2026"/><path d="m86.268 116.07 4.2039 4.2026"/><path d="m97.773 120.46 4.1986-4.2026"/><path d="m97.773 116.26 4.1986 4.2026"/><path d="m109.27 119.12 4.1986-4.1972"/><path d="m109.27 114.92 4.1986 4.1972"/><path d="m120.77 116.84 4.2026-4.1972"/><path d="m120.77 112.65 4.2026 4.1972"/><path d="m132.28 116.88 4.1972-4.2026"/><path d="m132.28 112.68 4.1972 4.2026"/><path d="m143.78 113.92 4.1972-4.2039"/><path d="m143.78 109.72 4.1972 4.2039"/><path d="m155.27 113.39 4.2026-4.2026"/><path d="m155.27 109.18 4.2026 4.2026"/><path d="m166.78 111.77 4.2026-4.2026"/><path d="m166.78 107.57 4.2026 4.2026"/><path d="m178.29 110.57 4.1972-4.2026"/><path d="m178.29 106.37 4.1972 4.2026"/><path d="m189.78 108.62 4.1972-4.1972"/><path d="m189.78 104.42 4.1972 4.1972"/><path d="m201.29 95.897 4.2026-4.2026"/><path d="m201.29 91.694 4.2026 4.2026"/><path d="m212.78 95.714 4.1972-4.2026"/><path d="m212.78 91.512 4.1972 4.2026"/><path d="m224.29 93.897 4.1972-4.1972"/><path d="m224.29 89.7 4.1972 4.1972"/><path d="m235.79 92.834 4.2026-4.1972"/><path d="m235.79 88.637 4.2026 4.1972"/><path d="m247.29 92.558 4.1972-4.2026"/><path d="m247.29 88.356 4.1972 4.2026"/><path d="m258.79 91.142 4.1972-4.1986"/><path d="m258.79 86.944 4.1972 4.1986"/><path d="m270.29 89.173 4.2026-4.1972"/><path d="m270.29 84.976 4.2026 4.1972"/><path d="m281.79 88.47 4.2026-4.2039"/><path d="m281.79 84.267 4.2026 4.2039"/><path d="m293.3 87.142 4.1972-4.2039"/><path d="m293.3 82.939 4.1972 4.2039"/><path d="m304.79 86.924 4.1972-4.2039"/><path d="m304.79 82.72 4.1972 4.2039"/><path d="m316.3 85.84 4.2026-4.1972"/><path d="m316.3 81.643 4.2026 4.1972"/><path d="m327.8 85.501 4.1972-4.2026"/><path d="m327.8 81.299 4.1972 4.2026"/></g><g stroke="#f00"><path d="m50.895 120.45 2.9733-2.9679 2.9693 2.9679-2.9693 2.9746z"/><path d="m62.4 117.03 2.9679-2.9693 2.9693 2.9693-2.9693 2.9733z"/><path d="m73.899 115.44 2.9679-2.9679 2.9746 2.9679-2.9746 2.9693z"/><path d="m85.399 113.41 2.9733-2.9693 2.9693 2.9693-2.9693 2.9679z"/><path d="m96.904 112.1 2.9679-2.9679 2.9693 2.9679-2.9693 2.9693z"/><path d="m108.4 111.53 2.9679-2.9746 2.9693 2.9746-2.9693 2.9679z"/><path d="m119.9 109 2.9679-2.9679 2.9746 2.9679-2.9746 2.9693z"/><path d="m131.41 107.39 2.9679-2.9733 2.9693 2.9733-2.9693 2.9693z"/><path d="m142.91 106.35 2.9679-2.9693 2.9693 2.9693-2.9693 2.9679z"/><path d="m154.41 106.56 2.9679-2.9679 2.9746 2.9679-2.9746 2.9746z"/><path d="m165.9 103.25 2.9733-2.9692 2.9693 2.9692-2.9693 2.9733z"/><path d="m177.41 103.49 2.9679-2.9679 2.9693 2.9679-2.9693 2.9692z"/><path d="m188.91 102.74 2.9679-2.9693 2.9693 2.9693-2.9693 2.9693z"/><path d="m200.41 87.205 2.9733-2.9693 2.9693 2.9693-2.9693 2.9679z"/><path d="m211.91 86.918 2.9693-2.9693 2.9693 2.9693-2.9693 2.9679z"/><path d="m223.42 86.173 2.9679-2.9679 2.9693 2.9679-2.9693 2.9746z"/><path d="m234.91 83.7 2.9693-2.9693 2.9746 2.9693-2.9746 2.9679z"/><path d="m246.42 81.7 2.9693-2.9693 2.9693 2.9693-2.9693 2.9733z"/><path d="m257.93 81.949 2.9693-2.9679 2.9692 2.9679-2.9692 2.9693z"/><path d="m269.42 80.252 2.9693-2.9693 2.9733 2.9693-2.9733 2.9679z"/><path d="m280.92 80.351 2.9746-2.9693 2.9679 2.9693-2.9679 2.9679z"/><path d="m292.43 78.512 2.9693-2.9733 2.9679 2.9733-2.9679 2.9693z"/><path d="m303.92 78.465 2.9693-2.9746 2.9679 2.9746-2.9679 2.9679z"/><path d="m315.42 76.731 2.9746-2.9679 2.9679 2.9679-2.9679 2.9693z"/><path d="m326.92 76.58 2.9693-2.9693 2.9679 2.9693-2.9679 2.9679z"/></g><g stroke="#00f"><path d="m50.895 130.92 2.9733-2.9693 2.9693 2.9693-2.9693 2.9679z"/><path d="m62.4 129.81 2.9679-2.9693 2.9693 2.9693-2.9693 2.9733z"/><path d="m73.899 128.62 2.9679-2.9693 2.9746 2.9693-2.9746 2.9693z"/><path d="m85.399 126.69 2.9733-2.9693 2.9693 2.9693-2.9693 2.9679z"/><path d="m96.904 125.64 2.9679-2.9693 2.9693 2.9693-2.9693 2.9733z"/><path d="m108.4 125.08 2.9679-2.9693 2.9693 2.9693-2.9693 2.9679z"/><path d="m119.9 123.98 2.9679-2.9693 2.9746 2.9693-2.9746 2.9733z"/><path d="m131.41 122.99 2.9679-2.9733 2.9693 2.9733-2.9693 2.9693z"/><path d="m142.91 121.02 2.9679-2.9693 2.9693 2.9693-2.9693 2.9679z"/><path d="m154.41 120.25 2.9679-2.9693 2.9746 2.9693-2.9746 2.9733z"/><path d="m165.9 120.33 2.9733-2.9679 2.9693 2.9679-2.9693 2.9693z"/><path d="m177.41 118.45 2.9679-2.9733 2.9693 2.9733-2.9693 2.9693z"/><path d="m188.91 118.11 2.9679-2.9679 2.9693 2.9679-2.9693 2.9746z"/><path d="m200.41 106.9 2.9733-2.9679 2.9693 2.9679-2.9693 2.9693z"/><path d="m211.91 106.92 2.9693-2.9693 2.9693 2.9693-2.9693 2.9679z"/><path d="m223.42 103.84 2.9679-2.9733 2.9693 2.9733-2.9693 2.9693z"/><path d="m234.91 101.44 2.9693-2.9679 2.9746 2.9679-2.9746 2.9693z"/><path d="m246.42 103.33 2.9693-2.9679 2.9693 2.9679-2.9693 2.9693z"/><path d="m257.93 101.15 2.9693-2.9746 2.9692 2.9746-2.9692 2.9679z"/><path d="m269.42 100.67 2.9693-2.9679 2.9733 2.9679-2.9733 2.9746z"/><path d="m280.92 99.424 2.9746-2.9693 2.9679 2.9693-2.9679 2.9679z"/><path d="m292.43 97.788 2.9693-2.9679 2.9679 2.9679-2.9679 2.9746z"/><path d="m303.92 98.496 2.9693-2.9733 2.9679 2.9733-2.9679 2.9693z"/><path d="m315.42 97.834 2.9746-2.9733 2.9679 2.9733-2.9679 2.9693z"/><path d="m326.92 98.954 2.9693-2.9733 2.9679 2.9733-2.9679 2.9693z"/></g><g stroke="#000"><path d="m30.864 3.5979h72.253v67.196h-72.253z"/><path d="m42.202 14.398c0 2.7973-4.2026 2.7973-4.2026 0 0-2.8026 4.2026-2.8026 4.2026 0"/><path d="m40.104 22.329 2.8279 4.8959h-5.6559z"/><path d="m37.129 36.793h5.9425"/><path d="m40.104 39.766v-5.9425"/><path d="m38 50.094 4.2026-4.1972"/><path d="m38 45.897 4.2026 4.1972"/><path d="m37.129 59.194 2.9746-2.9693 2.9679 2.9693-2.9679 2.9679z"/></g></g><g font-size="9.3331" stroke-width="1.3333"><g font-family="'Nimbus Sans'"><text x="48.670979" y="17.728125"><tspan stroke-width="1.3333" x="48.670979 55.334816 58.004078 63.333282" y="17.728125">ω =</tspan></text><text x="48.670979" y="28.961529"><tspan stroke-width="1.3333" x="48.670979 55.334816 58.004078 63.333279" y="28.961529">ω =</tspan></text><text x="48.670979" y="39.526417"><tspan stroke-width="1.3333" x="48.670979 55.334816 58.004078 63.333279" y="39.526417">ω =</tspan></text><text x="48.670979" y="51.102253"><tspan stroke-width="1.3333" x="48.670979 55.334816 58.004078 63.333279" y="51.102253">ω =</tspan></text></g><text font-family="'DejaVu Sans'" x="66.002548" y="17.728125"><tspan stroke-width="1.3333" x="66.002548" y="17.728125">⌊</tspan></text><text font-family="'Nimbus Sans'" x="70.006447" y="17.728125"><tspan stroke-width="1.3333" x="70.006447" y="17.728125">n/2</tspan></text><text font-family="'DejaVu Sans'" x="81.999489" y="17.728125"><tspan stroke-width="1.3333" x="81.999489" y="17.728125">⌋</tspan></text><text font-family="Nimbus Sans" stroke-width="1.3333" x="86.00338" y="17.728125"><tspan x="86.00338" y="17.728125">-1</tspan><tspan x="86.00338" y="29.394501"/></text><text font-family="'DejaVu Sans'" x="66.002548" y="28.925764"><tspan stroke-width="1.3333" x="66.002548" y="28.925764">⌊</tspan></text><text font-family="'Nimbus Sans'" x="70.006447" y="28.925764"><tspan stroke-width="1.3333" x="70.006447" y="28.925764">√</tspan></text><text font-family="'Nimbus Sans'" x="74.001015" y="28.925764"><tspan stroke-width="1.3333" x="74.001015" y="28.925764">n</tspan></text><text font-family="'DejaVu Sans'" x="78.004913" y="28.925764"><tspan stroke-width="1.3333" x="78.004913" y="28.925764">⌋</tspan></text><text font-family="Cambria Math" x="81.999489" y="28.925764"><tspan x="81.999489" y="28.925764">+1</tspan></text><text font-family="'DejaVu Sans'" x="66.002548" y="40.123405"><tspan stroke-width="1.3333" x="66.002548" y="40.123405">⌊</tspan></text><text font-family="'Nimbus Sans'" x="70.006447" y="40.123405"><tspan stroke-width="1.3333" x="70.006447" y="40.123405">√</tspan></text><text font-family="'Nimbus Sans'" x="74.001015" y="40.123405"><tspan stroke-width="1.3333" x="74.001015" y="40.123405">n</tspan></text><text font-family="'DejaVu Sans'" x="78.004913" y="40.123405"><tspan stroke-width="1.3333" x="78.004913" y="40.123405">⌋</tspan></text><text font-family="'DejaVu Sans'" x="66.002548" y="51.326248"><tspan stroke-width="1.3333" x="66.002548" y="51.326248">⌊</tspan></text><text font-family="'Nimbus Sans'" x="70.006447" y="51.326248"><tspan stroke-width="1.3333" x="70.006447" y="51.326248">ln n</tspan></text><text font-family="'DejaVu Sans'" x="84.668755" y="51.326248"><tspan stroke-width="1.3333" x="84.668755" y="51.326248">⌋</tspan></text><text font-family="Nimbus Sans" x="88.663322" y="51.326248"><tspan x="88.663322" y="51.326248">+1</tspan></text><text font-family="'Nimbus Sans'" x="48.670979" y="62.523891"><tspan stroke-width="1.3333" x="48.670979 55.334816 58.004078 63.333279" y="62.523891">ω =</tspan></text><text font-family="'DejaVu Sans'" x="66.002548" y="62.523891"><tspan stroke-width="1.3333" x="66.002548" y="62.523891">⌊</tspan></text><text font-family="'Nimbus Sans'" x="70.006447" y="62.523891"><tspan stroke-width="1.3333" x="70.006447" y="62.523891">ln n</tspan></text><text font-family="'DejaVu Sans'" x="84.668755" y="62.523891"><tspan stroke-width="1.3333" x="84.668755" y="62.523891">⌋</tspan></text></g><path d="m223.57 131.12h106.33v28.269h-106.33z" style="fill:none;stroke:#000;stroke-linecap:round;stroke-linejoin:round;stroke-miterlimit:10;stroke-width:.99998"/><g font-size="9.3331" stroke-width="1.3333"><text fill="#00f" font-family="'Nimbus Sans'" x="233.69727" y="142.58472"><tspan stroke-width="1.3333" x="233.69727" y="142.58472">(1+1) EA: mean(RT)</tspan></text><text fill="#f00" font-family="'Nimbus Sans'" x="233.69727" y="153.78233"><tspan stroke-width="1.3333" x="233.69727" y="153.78233">(1+1) FEA: mean(RT)</tspan></text><text font-family="'DejaVu Sans'" x=".197901" y="186.7099"><tspan stroke-width="1.3333" x=".197901" y="186.7099">⌊</tspan></text><text font-family="'Nimbus Sans'" x="4.192468" y="186.7099"><tspan stroke-width="1.3333" x="4.192468" y="186.7099">n/2</tspan></text><text font-family="'DejaVu Sans'" x="16.194834" y="186.7099"><tspan stroke-width="1.3333" x="16.194834" y="186.7099">⌋</tspan></text><g font-family="Nimbus Sans"><text stroke-width="1.3333" x="20.198734" y="186.7099"><tspan x="20.198734 22.858667 28.197201" y="186.7099">-1:</tspan><tspan x="39.696915 51.204628" y="186.18257">23</tspan></text><text fill="#bebebe" x="62.701546" y="186.18257"><tspan stroke-width="1.3333" x="62.701546" y="186.18257">3</tspan></text><text x="74.201256" y="186.18257"><tspan stroke-width="1.3333" x="74.201256" y="186.18257">4</tspan></text><text fill="#bebebe" x="85.706177" y="186.18257"><tspan stroke-width="1.3333" x="85.706177" y="186.18257">4</tspan></text><text x="97.205894" y="186.18257"><tspan stroke-width="1.3333" x="97.205894" y="186.18257">5</tspan></text><text fill="#bebebe" x="108.7056" y="186.18257"><tspan stroke-width="1.3333" x="108.7056" y="186.18257">5</tspan></text><text x="120.20531" y="186.18257"><tspan stroke-width="1.3333" x="120.20531" y="186.18257">6</tspan></text><text fill="#bebebe" x="131.71024" y="186.18257"><tspan stroke-width="1.3333" x="131.71024" y="186.18257">6</tspan></text><text x="143.20995" y="186.18257"><tspan stroke-width="1.3333" x="143.20995" y="186.18257">7</tspan></text><text fill="#bebebe" x="154.70966" y="186.18257"><tspan stroke-width="1.3333" x="154.70966" y="186.18257">7</tspan></text><text x="166.21458" y="186.18257"><tspan stroke-width="1.3333" x="166.21458" y="186.18257">8</tspan></text><text fill="#bebebe" x="177.71429" y="186.18257"><tspan stroke-width="1.3333" x="177.71429" y="186.18257">8</tspan></text><text x="189.214" y="186.18257"><tspan stroke-width="1.3333" x="189.214" y="186.18257">9</tspan></text><text fill="#bebebe" x="200.71893" y="186.18257"><tspan stroke-width="1.3333" x="200.71893" y="186.18257">9</tspan></text><text x="209.55205" y="186.18257"><tspan stroke-width="1.3333" x="209.55205 214.88124" y="186.18257">10</tspan></text><text fill="#bebebe" x="221.05176" y="186.18257"><tspan stroke-width="1.3333" x="221.05176 226.38095" y="186.18257">10</tspan></text><text x="232.55147" y="186.18257"><tspan stroke-width="1.3333" x="232.55147 237.88066" y="186.18257">11</tspan></text><text fill="#bebebe" x="244.05638" y="186.18257"><tspan stroke-width="1.3333" x="244.05638 249.38557" y="186.18257">11</tspan></text><text x="255.55611" y="186.18257"><tspan stroke-width="1.3333" x="255.55611 260.88528" y="186.18257">12</tspan></text><text fill="#bebebe" x="267.05582" y="186.18257"><tspan stroke-width="1.3333" x="267.05582 272.38501" y="186.18257">12</tspan></text><text x="278.56073" y="186.18257"><tspan stroke-width="1.3333" x="278.56073 283.88992" y="186.18257">13</tspan></text><text fill="#bebebe" x="290.06046" y="186.18257"><tspan stroke-width="1.3333" x="290.06046 295.38965" y="186.18257">13</tspan></text><text x="301.56015" y="186.18257"><tspan stroke-width="1.3333" x="301.56015 306.88934" y="186.18257">14</tspan></text><text fill="#bebebe" x="313.06509" y="186.18257"><tspan stroke-width="1.3333" x="313.06509 318.39426" y="186.18257">14</tspan></text><text x="324.56479" y="186.18257"><tspan stroke-width="1.3333" x="324.56479 329.89398" y="186.18257">15</tspan></text></g><text font-family="'DejaVu Sans'" x="12.197601" y="196.79298"><tspan stroke-width="1.3333" x="12.197601" y="196.79298">⌊</tspan></text><text font-family="'Nimbus Sans'" x="16.192167" y="196.79298"><tspan stroke-width="1.3333" x="16.192167" y="196.79298">√</tspan></text><text font-family="'Nimbus Sans'" x="20.196068" y="196.79298"><tspan stroke-width="1.3333" x="20.196068" y="196.79298">n</tspan></text><text font-family="'DejaVu Sans'" x="24.199966" y="196.79298"><tspan stroke-width="1.3333" x="24.199966" y="196.79298">⌋</tspan></text><g font-family="Nimbus Sans"><text stroke-width="1.3333" x="28.194532" y="196.79298"><tspan x="28.194532" y="196.79298">:</tspan><tspan x="39.696915" y="196.26566">2</tspan></text><text fill="#bebebe" x="51.201836" y="196.26566"><tspan stroke-width="1.3333" x="51.201836" y="196.26566">2</tspan></text><text x="62.701546" y="196.26566"><tspan stroke-width="1.3333" x="62.701546" y="196.26566">3</tspan></text><text fill="#bebebe" x="74.201256" y="196.26566"><tspan stroke-width="1.3333" x="74.201256 85.708969 97.207344 108.70573 120.20411 131.71182" y="196.26566">333333</tspan></text><text x="143.20995" y="196.26566"><tspan stroke-width="1.3333" x="143.20995" y="196.26566">4</tspan></text><text fill="#bebebe" x="154.70966" y="196.26566"><tspan stroke-width="1.3333" x="154.70966 166.21738 177.71576 189.21413 200.72183 212.22023 223.7186 235.217" y="196.26566">44444444</tspan></text><text x="246.72299" y="196.26566"><tspan stroke-width="1.3333" x="246.72299" y="196.26566">5</tspan></text><text fill="#bebebe" x="258.22269" y="196.26566"><tspan stroke-width="1.3333" x="258.22269 269.7211 281.22879 292.72717 304.22556 315.73328 327.23163" y="196.26566">5555555</tspan></text></g><text font-family="'DejaVu Sans'" x="5.5311" y="206.87085"><tspan stroke-width="1.3333" x="5.5311" y="206.87085">⌊</tspan></text><text font-family="'Nimbus Sans'" x="9.525667" y="206.87085"><tspan stroke-width="1.3333" x="9.525667" y="206.87085">ln n</tspan></text><text font-family="'DejaVu Sans'" x="24.197302" y="206.87085"><tspan stroke-width="1.3333" x="24.197302" y="206.87085">⌋</tspan></text><g font-family="Nimbus Sans"><text x="28.191868" y="206.87085"><tspan stroke-width="1.3333" x="28.191868" y="206.87085">:</tspan></text><text fill="#bebebe" x="37.030315" y="206.34352"><tspan stroke-width="1.3333" x="37.030315 39.699577 45.028782" y="206.34352">(1)</tspan></text><text x="51.201836" y="206.34352"><tspan x="51.201836 62.700214 74.198593 85.706299 97.204681 108.70306 120.20144 131.70917 143.20752 154.7059 166.21362 177.71202 189.21039 200.71809 212.21649 223.71835 235.21672 246.72446 258.22281 269.72122 281.22891 292.72729 304.22568 315.7334 327.23175" y="206.34352">2<tspan fill="#bebebe" stroke-width="1.7777">222222222222</tspan>3<tspan fill="#bebebe" stroke-width="1.7777">33333333333</tspan></tspan></text><text transform="rotate(-90)" x="-118.57879" y="40.87006"><tspan stroke-width="1.3333" x="-118.57879" y="40.87006">time in FEs</tspan></text><text x="137.04865" y="155.94374"><tspan stroke-width="1.3333" x="137.04865 142.37785 145.04712 153.04558 158.38412 163.71332 167.71722 170.37715 175.71568 181.04488" y="155.94374">dimension n</tspan></text></g></g><text font-family="Helvetica" font-size="12" stroke-width="2.3703" x="116.88986" y="16.168892"><tspan font-size="12" stroke-width="2.3703" x="116.88986" y="16.168892">ω-Plateau (Log-Log)</tspan></text><text stroke-width="1.3333" x="98.557747" y="-223.26962"><tspan stroke-width="1.3333" x="98.557747" y="-223.26962"/></text></svg>