<svg height="471pt" viewBox="0 0 961 471" width="961pt" xmlns="http://www.w3.org/2000/svg"><g transform="matrix(1.3333 0 0 -1.3333 -290.33 537.17)"><g fill-rule="evenodd"><g fill="#a5300f"><path d="m219.25 343.06h102.54v58.4h-102.54z"/><path d="m321.79 372.26h307.61v29.2h-307.61z"/><path d="m629.39 372.26h307.61v29.2h-307.61z"/></g><g fill="#d55816"><path d="m321.79 343.06h102.54v29.2h-102.54z"/><path d="m424.32 343.06h102.54v29.2h-102.54z"/><path d="m526.86 343.06h102.54v29.2h-102.54z"/><path d="m629.39 343.06h102.54v29.2h-102.54z"/><path d="m731.93 343.06h102.54v29.2h-102.54z"/><path d="m834.46 343.06h102.54v29.2h-102.54z"/></g><path d="m219.25 313.86h102.54v29.2h-102.54z" fill="#a5300f"/><g fill="#f0e8e7"><path d="m321.79 313.86h102.54v29.2h-102.54z"/><path d="m424.32 313.86h102.54v29.2h-102.54z"/><path d="m526.86 313.86h102.54v29.2h-102.54z"/><path d="m629.39 313.86h102.54v29.2h-102.54z"/><path d="m731.93 313.86h102.54v29.2h-102.54z"/><path d="m834.46 313.86h102.54v29.2h-102.54z"/></g><path d="m219.25 284.66h102.54v29.2h-102.54z" fill="#a5300f"/><g fill="#e1cdcc"><path d="m321.79 284.66h102.54v29.2h-102.54z"/><path d="m424.32 284.66h102.54v29.2h-102.54z"/><path d="m526.86 284.66h102.54v29.2h-102.54z"/><path d="m629.39 284.66h102.54v29.2h-102.54z"/><path d="m731.93 284.66h102.54v29.2h-102.54z"/><path d="m834.46 284.66h102.54v29.2h-102.54z"/></g><path d="m219.25 255.46h102.54v29.2h-102.54z" fill="#a5300f"/><g fill="#f0e8e7"><path d="m321.79 255.46h102.54v29.2h-102.54z"/><path d="m424.32 255.46h102.54v29.2h-102.54z"/><path d="m526.86 255.46h102.54v29.2h-102.54z"/><path d="m629.39 255.46h102.54v29.2h-102.54z"/><path d="m731.93 255.46h102.54v29.2h-102.54z"/><path d="m834.46 255.46h102.54v29.2h-102.54z"/></g><path d="m219.25 226.26h102.54v29.2h-102.54z" fill="#a5300f"/><g fill="#e1cdcc"><path d="m321.79 226.26h102.54v29.2h-102.54z"/><path d="m424.32 226.26h102.54v29.2h-102.54z"/><path d="m526.86 226.26h102.54v29.2h-102.54z"/><path d="m629.39 226.26h102.54v29.2h-102.54z"/><path d="m731.93 226.26h102.54v29.2h-102.54z"/><path d="m834.46 226.26h102.54v29.2h-102.54z"/></g><path d="m219.25 197.06h102.54v29.2h-102.54z" fill="#a5300f"/><g fill="#f0e8e7"><path d="m321.79 197.06h102.54v29.2h-102.54z"/><path d="m424.32 197.06h102.54v29.2h-102.54z"/><path d="m526.86 197.06h102.54v29.2h-102.54z"/><path d="m629.39 197.06h102.54v29.2h-102.54z"/><path d="m731.93 197.06h102.54v29.2h-102.54z"/><path d="m834.46 197.06h102.54v29.2h-102.54z"/></g><path d="m219.25 167.86h102.54v29.2h-102.54z" fill="#a5300f"/><g fill="#e1cdcc"><path d="m321.79 167.86h102.54v29.2h-102.54z"/><path d="m424.32 167.86h102.54v29.2h-102.54z"/><path d="m526.86 167.86h102.54v29.2h-102.54z"/><path d="m629.39 167.86h102.54v29.2h-102.54z"/><path d="m731.93 167.86h102.54v29.2h-102.54z"/><path d="m834.46 167.86h102.54v29.2h-102.54z"/></g><path d="m219.25 138.66h102.54v29.2h-102.54z" fill="#a5300f"/><g fill="#f0e8e7"><path d="m321.79 138.66h102.54v29.2h-102.54z"/><path d="m424.32 138.66h102.54v29.2h-102.54z"/><path d="m526.86 138.66h102.54v29.2h-102.54z"/><path d="m629.39 138.66h102.54v29.2h-102.54z"/><path d="m731.93 138.66h102.54v29.2h-102.54z"/><path d="m834.46 138.66h102.54v29.2h-102.54z"/></g><path d="m219.25 109.46h102.54v29.2h-102.54z" fill="#a5300f"/><g fill="#e1cdcc"><path d="m321.79 109.46h102.54v29.2h-102.54z"/><path d="m424.32 109.46h102.54v29.2h-102.54z"/><path d="m526.86 109.46h102.54v29.2h-102.54z"/><path d="m629.39 109.46h102.54v29.2h-102.54z"/><path d="m731.93 109.46h102.54v29.2h-102.54z"/><path d="m834.46 109.46h102.54v29.2h-102.54z"/></g><path d="m219.25 80.253h102.54v29.2h-102.54z" fill="#a5300f"/><g fill="#f0e8e7"><path d="m321.79 80.253h102.54v29.2h-102.54z"/><path d="m424.32 80.253h102.54v29.2h-102.54z"/><path d="m526.86 80.253h102.54v29.2h-102.54z"/><path d="m629.39 80.253h102.54v29.2h-102.54z"/><path d="m731.93 80.253h102.54v29.2h-102.54z"/><path d="m834.46 80.253h102.54v29.2h-102.54z"/></g><path d="m219.25 51.053h102.54v29.2h-102.54z" fill="#a5300f"/><g fill="#e1cdcc"><path d="m321.79 51.053h102.54v29.2h-102.54z"/><path d="m424.32 51.053h102.54v29.2h-102.54z"/><path d="m526.86 51.053h102.54v29.2h-102.54z"/><path d="m629.39 51.053h102.54v29.2h-102.54z"/><path d="m731.93 51.053h102.54v29.2h-102.54z"/><path d="m834.46 51.053h102.54v29.2h-102.54z"/></g></g><g fill="none" stroke="#fff" stroke-linejoin="round" stroke-miterlimit="10"><path d="m321.79 401.96v-28.2"/><path d="m321.79 373.76v-32.2" stroke-width="3"/><path d="m321.79 341.56v-291"/><path d="m424.32 373.76v-323.2"/><path d="m526.86 373.76v-323.2"/><path d="m629.39 401.96v-351.4"/><path d="m731.93 373.76v-323.2"/><path d="m834.46 373.76v-323.2"/><path d="m320.29 372.26h617.21" stroke-width="3"/><path d="m218.75 343.06h104.54" stroke-width="3"/><path d="m323.29 343.06h614.21"/><path d="m218.75 313.86h718.75"/><path d="m218.75 284.66h718.75"/><path d="m218.75 255.46h718.75"/><path d="m218.75 226.26h718.75"/><path d="m218.75 197.06h718.75"/><path d="m218.75 167.86h718.75"/><path d="m218.75 138.66h718.75"/><path d="m218.75 109.46h718.75"/><path d="m218.75 80.253h718.75"/><path d="m219.25 401.96v-351.4"/><path d="m937 401.96v-351.4"/><path d="m218.75 401.46h718.75"/><path d="m218.75 51.053h718.75"/></g><g transform="scale(1 -1)"><g fill="#fff" font-weight="bold"><g font-family="Calibri"><text font-size="18" x="239.32002" xml:space="preserve" y="-377.0065"><tspan x="239.32002 243.74802 253.48604 260.47 266.60791 275.49991 285.23798 292.79813 301.85211" y="-377.0065">instance </tspan><tspan x="253.73991 259.9859 268.51791 278.1839" y="-355.40649">type</tspan><tspan x="444.63989 450.25589 459.436 468.436 477.56201 483.23212 487.30011 495.85007 748.10028 753.71625 762.84229 771.80627 780.93225 790.70026 798.96228 807.49445" y="-381.0163">(1+1) EA(1+1)FEA</tspan></text><g font-size="15.96"><text x="333.34991" xml:space="preserve" y="-353.60651"><tspan x="333.34991 339.71793 348.22452 354.92764 361.63074 369.65863 376.02667 382.39471 386.20926 391.4921 399.29639 404.57922 463.26016 471.04861 479.93826 549.49994 562.4754 570.5033 578.38751 586.95807" y="-353.60651">success rateERTmean </tspan></text><text x="641.00989" xml:space="preserve" y="-353.60651"><tspan x="641.00989 647.37793 655.88446 662.58759 669.29071 677.3186 683.68665 690.05469 693.86926 699.15204 706.95636 712.23914 770.91956 778.70807 787.59772 855.82971 868.80518 876.83307 884.71735 893.28784" y="-353.60651">success rateERTmean </tspan></text></g></g><text font-family="Consolas" font-size="18" x="240.87958" y="-322.47647"><tspan x="240.87958 250.77957 260.6077 270.50769 280.33582 290.30768" y="-322.47647">uf20_*</tspan></text></g><g font-family="Cambria Math"><text fill="#f00" font-size="18" x="351.23001" y="-322.4765"><tspan x="351.23001 361.18976 364.9101 374.87009 384.83011" y="-322.4765">0.985</tspan></text><text font-size="18" x="436.26001" y="-322.35651"><tspan x="436.26001 446.21976 449.9397 459.89969 473.9397 486.66 496.62" y="-322.35651">1.91∗10</tspan></text><text font-size="13.2" x="506.5799" y="-328.95651"><tspan x="506.5799" y="-328.95651">8</tspan></text></g><g font-size="18"><text fill="#008000" font-family="Cambria Math" x="556.34003" y="-322.4765"><tspan x="556.34003 566.29974 570.01971 579.97968 589.9397" y="-322.4765">0.015</tspan></text><text font-family="Cambria Math" x="675.81" y="-322.4765"><tspan x="675.81 760.9599 770.93188 775.57593 785.54791 795.5199 880.90973" y="-322.4765">13′0910</tspan></text><text fill="#fff" font-family="Consolas" font-weight="bold" x="240.88002" y="-293.26651"><tspan x="240.88002 250.78001 260.60812 270.50812 280.33624 290.30814" y="-293.26651">uf50_*</tspan></text><g font-family="Cambria Math"><text x="351.23001" y="-293.26651"><tspan x="351.23001 361.18976 364.9101 374.87009 384.83011" y="-293.26651">0.748</tspan></text><text fill="#00f" x="436.38" y="-293.14651"><tspan x="436.38 446.33975 450.17999 460.14001 474.17999 486.8999 496.85989" y="-293.14651">3.56∗10</tspan></text></g></g><text fill="#00f" font-family="Cambria Math" font-size="13.2" x="506.81979" y="-299.74652"><tspan x="506.81979" y="-299.74652">9</tspan></text><text font-family="Cambria Math" font-size="18" x="556.34003" y="-293.26651"><tspan x="556.34003 566.29974 570.01971 579.97968 589.9397 675.80969 756.03931 766.01129 775.98328 780.62732 790.5993 800.57129 880.90942" y="-293.26651">0.299193′4590</tspan></text><text fill="#fff" font-family="Consolas" font-size="18" font-weight="bold" x="240.88002" y="-264.05652"><tspan x="240.88002 250.78001 260.60812 270.50812 280.33624 290.30814" y="-264.05652">uf75_*</tspan></text><g font-family="Cambria Math"><text font-size="18" x="351.23001" y="-264.05652"><tspan x="351.23001 361.18976 364.9101 374.87009 384.83011" y="-264.05652">0.583</tspan><tspan x="436.38 446.33975 450.17999 460.14001 474.17999 486.8999 496.85989" y="-263.93658">7.41∗10</tspan></text><text font-size="13.2" x="506.81979" y="-270.53659"><tspan x="506.81979" y="-270.53659">9</tspan></text><text font-size="18" x="556.34009" y="-264.05652"><tspan x="556.34009 566.29987 570.01978 579.9798 589.93982 675.80981 750.99957 760.97156 770.9436 780.91559 785.55957 795.53156 805.5036 880.90918" y="-264.05652">0.5281490′1660</tspan></text></g><text fill="#fff" font-family="Consolas" font-size="18" font-weight="bold" x="235.96002" y="-234.85649"><tspan x="235.96002 245.80611 255.65221 265.49829 275.34439 285.2803 295.1264" y="-234.85649">uf100_*</tspan></text><g font-family="Cambria Math"><text font-size="18" x="675.81" y="-234.85649"><tspan x="675.81" y="-234.85649">1</tspan><tspan x="743.9198 753.87994 757.59991 767.55988 781.59991 794.31982 804.27979" y="-234.73657">2.14∗10</tspan></text><text font-size="13.224" x="814.23969" y="-241.35649"><tspan x="814.23969" y="-241.35649">6</tspan></text><text font-size="18" x="880.90997" y="-234.85649"><tspan x="880.90997" y="-234.85649">0</tspan></text></g><text fill="#fff" font-family="Consolas" font-size="18.024" font-weight="bold" x="235.96002" y="-205.66649"><tspan x="235.96002 245.80103 255.64203 265.48303 275.32404 285.23724 295.15042" y="-205.66649">uf125_*</tspan></text><g font-family="Cambria Math"><text font-size="18.024" x="675.81" y="-205.66649"><tspan x="675.81" y="-205.66649">1</tspan><tspan x="743.9198 753.87994 757.59991 767.55988 781.59991 794.31982 804.27979" y="-205.54657">5.27∗10</tspan></text><text font-size="13.224" x="814.23969" y="-212.14658"><tspan x="814.23969" y="-212.14658">6</tspan></text><text font-size="18.024" x="880.90997" y="-205.66649"><tspan x="880.90997" y="-205.66649">0</tspan></text></g><text fill="#fff" font-family="Consolas" font-size="18.024" font-weight="bold" x="235.96002" y="-176.4565"><tspan x="235.96002 245.80103 255.64203 265.48303 275.32404 285.23724 295.15042" y="-176.4565">uf150_*</tspan></text><g font-family="Cambria Math"><text font-size="18.024" x="675.81" y="-176.4565"><tspan x="675.81 743.9198 753.87994 757.59979 767.55981 781.59979 794.3197 804.27972" y="-176.4565">11.40∗10</tspan></text><text font-size="13.2" x="814.23962" y="-183.05649"><tspan x="814.23962" y="-183.05649">7</tspan></text><text font-size="18.024" x="880.90991" y="-176.4565"><tspan x="880.90991" y="-176.4565">0</tspan></text></g><text fill="#fff" font-family="Consolas" font-size="18.024" font-weight="bold" x="235.96002" y="-147.25648"><tspan x="235.96002 245.80103 255.64203 265.48303 275.32404 285.23724 295.15042" y="-147.25648">uf175_*</tspan></text><g font-family="Cambria Math"><text font-size="18.024" x="675.81" y="-147.25648"><tspan x="675.81 743.9198 753.87994 757.59979 767.55981 781.59979 794.3197 804.27972" y="-147.25648">15.78∗10</tspan></text><text font-size="13.2" x="814.23962" y="-153.85649"><tspan x="814.23962" y="-153.85649">7</tspan></text><text font-size="18.024" x="880.90991" y="-147.25648"><tspan x="880.90991" y="-147.25648">0</tspan></text></g><text fill="#fff" font-family="Consolas" font-size="18" font-weight="bold" x="235.96002" y="-118.04649"><tspan x="235.96002 245.80611 255.65221 265.49829 275.34439 285.2803 295.1264" y="-118.04649">uf200_*</tspan></text><g font-family="Cambria Math"><text fill="#f00" font-size="18" x="658.89001" y="-118.04649"><tspan x="658.89001 668.84973 672.5697 682.52972 692.48969" y="-118.04649">0.991</tspan></text><text font-size="18" x="743.91998" y="-117.92649"><tspan x="743.91998 753.88013 757.6001 767.56012 781.6001 794.32001 804.28003" y="-117.92649">2.44∗10</tspan></text><text font-size="13.2" x="814.23993" y="-124.52649"><tspan x="814.23993" y="-124.52649">8</tspan></text><text fill="#008000" font-size="18" x="854.03003" y="-118.04649"><tspan x="854.03003 863.99017 867.71008 877.6701 887.63013 897.59009 907.55011" y="-118.04649">0.00945</tspan></text></g><text fill="#fff" font-family="Consolas" font-size="18" font-weight="bold" x="235.96002" y="-88.836693"><tspan x="235.96002 245.80611 255.65221 265.49829 275.34439 285.2803 295.1264" y="-88.836693">uf225_*</tspan></text><g font-family="Cambria Math"><text font-size="18" x="658.89001" y="-88.836693"><tspan x="658.89001 668.84973 672.5697 682.52972 692.48969" y="-88.836693">0.994</tspan><tspan x="743.91931 753.87946 757.59979 767.55981 781.59979 794.3197 804.27972" y="-88.716385">2.43∗10</tspan></text><text font-size="13.2" x="814.23962" y="-95.316383"><tspan x="814.23962" y="-95.316383">8</tspan></text><text font-size="18" x="854.02979" y="-88.836693"><tspan x="854.02979 863.98999 867.7099 877.66992 887.62988 897.5899 907.54993" y="-88.836693">0.00555</tspan></text></g><text fill="#fff" font-family="Consolas" font-size="18" font-weight="bold" x="235.96002" y="-59.628494"><tspan x="235.96002 245.80611 255.65221 265.49829 275.34439 285.2803 295.1264" y="-59.628494">uf250_*</tspan></text><g font-family="Cambria Math"><text font-size="18" x="658.89001" y="-59.628494"><tspan x="658.89001 668.84973 672.5697 682.52972 692.48969" y="-59.628494">0.992</tspan></text><text fill="#00f" font-size="18" x="743.91998" y="-59.508495"><tspan x="743.91998 753.88013 757.6001 767.56012 781.6001 794.32001 804.28003" y="-59.508495">2.43∗10</tspan></text><text fill="#00f" font-size="13.2" x="814.23993" y="-66.10849"><tspan x="814.23993" y="-66.10849">8</tspan></text><text font-size="18" x="854.03003" y="-59.628494"><tspan x="854.03003 863.99017 867.71008 877.6701 887.63013 897.59009 907.55011" y="-59.628494">0.00782</tspan></text></g><g fill="#fff" font-family="Ubuntu" font-size="20" font-weight="bold" stroke-width=".3"><text x="590.08429" y="-354.70273"><tspan fill="#fff" font-family="cmmi10" font-size="20" font-weight="bold" stroke-width=".3" x="590.08429" y="-354.70273">y<tspan baseline-shift="sub" font-size="65%">c</tspan></tspan></text><text x="898.94434" y="-354.70273"><tspan fill="#fff" font-family="cmmi10" font-size="20" font-weight="bold" stroke-width=".3" x="898.94434" y="-354.70273">y<tspan baseline-shift="sub" font-size="65%">B</tspan></tspan></text></g></g></g></svg>