<svg height="189.55pt" viewBox="0 0 332.45 189.55" width="332.45pt" xmlns="http://www.w3.org/2000/svg"><g fill="none" stroke-linecap="round" stroke-miterlimit="10" stroke-width=".98631"><g stroke="#bebebe" stroke-linejoin="round"><path d="m31.761 81.583h294.95"/><path d="m31.761 111.04h241.36"/><path d="m77.134 140.5v-72.732"/><path d="m104.34 52.117h222.37"/><path d="m133.85 140.5v-139"/><path d="m190.57 140.5v-139"/><path d="m247.3 140.5v-139"/><path d="m104.34 22.665h222.37"/><path d="m304.02 111.04v-109.53"/></g><g stroke="#000"><path d="m31.761 140.5h294.95v-139h-294.95z"/><g stroke-linejoin="round"><path d="m31.761 140.5v-117.84"/><path d="m31.761 140.5h-5.5225"/><path d="m31.761 111.04h-5.5225"/><path d="m31.761 81.583h-5.5225"/><path d="m31.761 52.117h-5.5225"/><path d="m31.761 22.665h-5.5225"/></g></g></g><g font-family="Helvetica" stroke-width="1.3333"><text font-size="9.2055" x="6.251423" y="144.30823"><tspan stroke-width="1.3333" x="6.251423 11.507558" y="144.30823">10</tspan></text><text font-size="6.443" x="16.771994" y="139.37711"><tspan stroke-width="1.3333" x="16.771994" y="139.37711">0</tspan></text><text font-size="9.2055" x="6.251423" y="114.84744"><tspan stroke-width="1.3333" x="6.251423 11.507558" y="114.84744">10</tspan></text><text font-size="6.443" x="16.771994" y="109.91635"><tspan stroke-width="1.3333" x="16.771994" y="109.91635">2</tspan></text><text font-size="9.2055" x="6.251423" y="85.386688"><tspan stroke-width="1.3333" x="6.251423 11.507558" y="85.386688">10</tspan></text><text font-size="6.443" x="16.771994" y="80.454987"><tspan stroke-width="1.3333" x="16.771994" y="80.454987">4</tspan></text><text font-size="9.2055" x="6.251423" y="55.925903"><tspan stroke-width="1.3333" x="6.251423 11.507558" y="55.925903">10</tspan></text><text font-size="6.443" x="16.771994" y="50.994232"><tspan stroke-width="1.3333" x="16.771994" y="50.994232">6</tspan></text><text font-size="9.2055" x="6.251423" y="26.465149"><tspan stroke-width="1.3333" x="6.251423 11.507558" y="26.465149">10</tspan></text><text font-size="6.443" x="16.771994" y="21.533447"><tspan stroke-width="1.3333" x="16.771994" y="21.533447">8</tspan></text></g><g fill="none" stroke-linecap="round" stroke-linejoin="round" stroke-miterlimit="10" stroke-width=".98631"><g stroke="#0000fb"><path d="m33.828 115.98c0 2.7586-4.1412 2.7586-4.1412 0 0-2.7639 4.1412-2.7639 4.1412 0"/><path d="m45.174 113.92c0 2.7626-4.1466 2.7626-4.1466 0 0-2.7639 4.1466-2.7639 4.1466 0"/><path d="m56.521 97.849c0 2.7586-4.1412 2.7586-4.1412 0 0-2.7626 4.1412-2.7626 4.1412 0"/><path d="m67.867 96.729c0 2.7626-4.1412 2.7626-4.1412 0 0-2.7599 4.1412-2.7599 4.1412 0"/><path d="m79.214 80.477c0 2.7599-4.1466 2.7599-4.1466 0 0-2.7626 4.1466-2.7626 4.1466 0"/><path d="m90.56 76.757c0 2.7639-4.1466 2.7639-4.1466 0 0-2.7586 4.1466-2.7586 4.1466 0"/><path d="m101.89 60.317c0 2.7639-4.1426 2.7639-4.1426 0s4.1426-2.7639 4.1426 0"/><path d="m113.24 57.317c0 2.7586-4.1412 2.7586-4.1412 0 0-2.7653 4.1412-2.7653 4.1412 0"/><path d="m124.59 37.051c0 2.7626-4.1439 2.7626-4.1439 0 0-2.7586 4.1439-2.7586 4.1439 0"/><path d="m135.93 35.318c0 2.7639-4.1399 2.7639-4.1399 0 0-2.7626 4.1399-2.7626 4.1399 0"/><path d="m147.27 16.131c0 2.7599-4.1399 2.7599-4.1399 0 0-2.7626 4.1399-2.7626 4.1399 0"/><path d="m158.62 13.772c0 2.7573-4.1452 2.7573-4.1452 0 0-2.7639 4.1452-2.7639 4.1452 0"/></g><g stroke="#e82000"><path d="m33.828 116.7c0 2.7639-4.1412 2.7639-4.1412 0 0-2.7586 4.1412-2.7586 4.1412 0"/><path d="m45.174 114.52c0 2.7639-4.1466 2.7639-4.1466 0s4.1466-2.7639 4.1466 0"/><path d="m56.521 112.82c0 2.7626-4.1412 2.7626-4.1412 0 0-2.7653 4.1412-2.7653 4.1412 0"/><path d="m67.867 111.04c0 2.7586-4.1412 2.7586-4.1412 0 0-2.7626 4.1412-2.7626 4.1412 0"/><path d="m79.214 109.56c0 2.7639-4.1466 2.7639-4.1466 0s4.1466-2.7639 4.1466 0"/><path d="m90.56 108.21c0 2.7639-4.1466 2.7639-4.1466 0s4.1466-2.7639 4.1466 0"/><path d="m101.89 107.14c0 2.7653-4.1426 2.7653-4.1426 0 0-2.7573 4.1426-2.7573 4.1426 0"/><path d="m113.24 105.93c0 2.7626-4.1412 2.7626-4.1412 0 0-2.7586 4.1412-2.7586 4.1412 0"/><path d="m124.59 104.96c0 2.7639-4.1439 2.7639-4.1439 0 0-2.7586 4.1439-2.7586 4.1439 0"/><path d="m135.93 103.97c0 2.7639-4.1399 2.7639-4.1399 0s4.1399-2.7639 4.1399 0"/><path d="m147.27 103.21c0 2.7599-4.1399 2.7599-4.1399 0 0-2.7626 4.1399-2.7626 4.1399 0"/><path d="m158.62 102.44c0 2.7639-4.1452 2.7639-4.1452 0s4.1452-2.7639 4.1452 0"/><path d="m169.96 101.37c0 2.7639-4.1452 2.7639-4.1452 0 0-2.7586 4.1452-2.7586 4.1452 0"/><path d="m181.3 100.6c0 2.7599-4.1399 2.7599-4.1399 0 0-2.7626 4.1399-2.7626 4.1399 0"/><path d="m192.65 99.916c0 2.7639-4.1399 2.7639-4.1399 0 0-2.7586 4.1399-2.7586 4.1399 0"/><path d="m204 99.196c0 2.7639-4.1452 2.7639-4.1452 0 0-2.7573 4.1452-2.7573 4.1452 0"/><path d="m215.34 98.596c0 2.7639-4.1399 2.7639-4.1399 0 0-2.7626 4.1399-2.7626 4.1399 0"/><path d="m226.68 97.996c0 2.7586-4.1399 2.7586-4.1399 0 0-2.7639 4.1399-2.7639 4.1399 0"/><path d="m238.02 97.396c0 2.7639-4.1439 2.7639-4.1439 0 0-2.7626 4.1439-2.7626 4.1439 0"/><path d="m249.37 96.796c0 2.7586-4.1399 2.7586-4.1399 0 0-2.7626 4.1399-2.7626 4.1399 0"/><path d="m260.72 96.196c0 2.7586-4.1399 2.7586-4.1399 0 0-2.7626 4.1399-2.7626 4.1399 0"/><path d="m272.06 95.609c0 2.7599-4.1452 2.7599-4.1452 0 0-2.7639 4.1452-2.7639 4.1452 0"/><path d="m283.41 95.089c0 2.7573-4.1452 2.7573-4.1452 0 0-2.7639 4.1452-2.7639 4.1452 0"/><path d="m294.74 94.636c0 2.7639-4.1399 2.7639-4.1399 0s4.1399-2.7639 4.1399 0"/><path d="m306.09 94.143c0 2.7626-4.1399 2.7626-4.1399 0 0-2.7599 4.1399-2.7599 4.1399 0"/><path d="m317.43 93.783c0 2.7639-4.1452 2.7639-4.1452 0 0-2.7573 4.1452-2.7573 4.1452 0"/><path d="m328.78 93.33c0 2.7573-4.1399 2.7573-4.1399 0 0-2.7639 4.1399-2.7639 4.1399 0"/></g><g stroke="#0000fb"><path d="m54.454 94.623 2.7906 4.8279h-5.5812z"/><path d="m77.134 77.25 2.7906 4.8292h-5.5799z"/><path d="m88.48 73.543 2.7893 4.8332h-5.5785z"/><path d="m99.826 74.21 2.7893 4.8332h-5.5785z"/><path d="m111.17 70.81 2.7893 4.8346h-5.5785z"/><path d="m122.51 66.744 2.7946 4.8332h-5.5839z"/><path d="m133.85 66.064 2.7893 4.8292h-5.5785z"/><path d="m145.2 46.357 2.7893 4.8292h-5.5785z"/><path d="m156.55 45.117 2.7879 4.8292h-5.5785z"/><path d="m167.89 42.624 2.7893 4.8292h-5.5785z"/><path d="m179.24 41.331 2.7893 4.8319h-5.5785z"/><path d="m190.57 40.918 2.7893 4.8332h-5.5785z"/><path d="m201.93 38.344 2.7893 4.8292h-5.5785z"/><path d="m213.26 37.064 2.7893 4.8292h-5.5785z"/><path d="m224.61 34.691 2.7893 4.8332h-5.5785z"/><path d="m235.96 33.944 2.7893 4.8265h-5.5785z"/><path d="m247.3 10.758 2.7893 4.8332h-5.5785z"/><path d="m258.65 10.572 2.7893 4.8292h-5.5785z"/><path d="m269.98 9.065 2.7893 4.8279h-5.5785z"/><path d="m281.33 6.4517 2.7893 4.8292h-5.5785z"/><path d="m292.67 5.1851 2.7906 4.8345h-5.5785z"/><path d="m304.02 3.8918 2.7906 4.8332h-5.5785z"/><path d="m315.37 3.7718 2.7893 4.8345h-5.5825z"/><path d="m326.71 1.8518 2.7893 4.8345h-5.5785z"/></g><g stroke="#e82000"><path d="m54.454 109.61 2.7906 4.8279h-5.5812z"/><path d="m77.134 106.33 2.7906 4.8346h-5.5799z"/><path d="m88.48 104.98 2.7893 4.8346h-5.5785z"/><path d="m99.826 103.88 2.7893 4.8292h-5.5785z"/><path d="m111.17 102.81 2.7893 4.8279h-5.5785z"/><path d="m122.51 101.62 2.7946 4.8292h-5.5839z"/><path d="m133.85 100.65 2.7893 4.8345h-5.5785z"/><path d="m145.2 99.769 2.7893 4.8345h-5.5785z"/><path d="m156.55 99.049 2.7879 4.8345h-5.5785z"/><path d="m167.89 98.249 2.7893 4.8292h-5.5785z"/><path d="m179.24 97.329 2.7893 4.8279h-5.5785z"/><path d="m190.57 96.729 2.7893 4.8332h-5.5785z"/><path d="m201.93 95.983 2.7893 4.8279h-5.5785z"/><path d="m213.26 95.356 2.7893 4.8279h-5.5785z"/><path d="m224.61 94.769 2.7893 4.8346h-5.5785z"/><path d="m235.96 94.076 2.7893 4.8292h-5.5785z"/><path d="m247.3 93.436 2.7893 4.8332h-5.5785z"/><path d="m258.65 93.023 2.7893 4.8346h-5.5785z"/><path d="m269.98 92.556 2.7893 4.8332h-5.5785z"/><path d="m281.33 91.903 2.7893 4.8279h-5.5785z"/><path d="m292.67 91.503 2.7906 4.8345h-5.5785z"/><path d="m304.02 90.943 2.7906 4.8346h-5.5785z"/><path d="m315.37 90.556 2.7893 4.8345h-5.5825z"/><path d="m326.71 89.956 2.7893 4.8292h-5.5785z"/></g><g stroke="#0000fb"><path d="m28.828 115.98h5.8559"/><path d="m31.761 118.92v-5.8559"/><path d="m40.175 113.92h5.8612"/><path d="m43.108 116.85v-5.8572"/><path d="m51.521 112.49h5.8612"/><path d="m54.454 115.42v-5.8572"/><path d="m62.867 96.729h5.8559"/><path d="m65.801 99.663v-5.8612"/><path d="m74.214 94.703h5.8625"/><path d="m77.134 97.623v-5.8559"/><path d="m85.547 92.303h5.8625"/><path d="m88.48 95.236v-5.8559"/><path d="m96.893 90.37h5.8572"/><path d="m99.826 93.303v-5.8558"/><path d="m108.24 87.636h5.8572"/><path d="m111.17 90.556v-5.8612"/><path d="m119.59 88.023h5.8625"/><path d="m122.51 90.943v-5.8558"/><path d="m130.93 86.063h5.8559"/><path d="m133.85 88.996v-5.8558"/><path d="m142.28 67.13h5.8558"/><path d="m145.2 70.063v-5.8558"/><path d="m153.61 65.85h5.8612"/><path d="m156.55 68.783v-5.8625"/><path d="m164.96 64.69h5.8612"/><path d="m167.89 67.624v-5.8559"/><path d="m176.3 64.33h5.8559"/><path d="m179.24 67.25v-5.8558"/><path d="m187.65 60.93h5.8559"/><path d="m190.57 63.864v-5.8612"/><path d="m199 60.93h5.8612"/><path d="m201.93 63.85v-5.8625"/><path d="m210.34 57.21h5.8572"/><path d="m213.26 60.144v-5.8558"/><path d="m221.68 56.517h5.8558"/><path d="m224.61 59.45v-5.8559"/><path d="m233.02 56.317h5.8625"/><path d="m235.96 59.237v-5.8559"/><path d="m244.37 35.038h5.8572"/><path d="m247.3 37.958v-5.8572"/><path d="m255.72 33.998h5.8585"/><path d="m258.65 36.918v-5.8612"/><path d="m267.05 31.651h5.8625"/><path d="m269.98 34.584v-5.8558"/><path d="m278.4 30.558h5.8612"/><path d="m281.33 33.491v-5.8559"/><path d="m289.74 31.611h5.8558"/><path d="m292.67 34.544v-5.8558"/><path d="m301.09 29.264h5.8558"/><path d="m304.02 32.198v-5.8625"/><path d="m312.43 29.158h5.8612"/><path d="m315.37 32.091v-5.8572"/><path d="m323.78 27.411h5.8558"/><path d="m326.71 30.344v-5.8559"/></g><g stroke="#e82000"><path d="m28.828 116.7h5.8559"/><path d="m31.761 119.64v-5.8572"/><path d="m40.175 114.52h5.8612"/><path d="m43.108 117.44v-5.8572"/><path d="m51.521 112.62h5.8612"/><path d="m54.454 115.56v-5.8558"/><path d="m62.867 111.04h5.8559"/><path d="m65.801 113.97v-5.8572"/><path d="m74.214 109.58h5.8625"/><path d="m77.134 112.52v-5.8612"/><path d="m85.547 108.36h5.8625"/><path d="m88.48 111.29v-5.8612"/><path d="m96.893 106.89h5.8572"/><path d="m99.826 109.81v-5.8559"/><path d="m108.24 105.88h5.8572"/><path d="m111.17 108.81v-5.8558"/><path d="m119.59 104.8h5.8625"/><path d="m122.51 107.73v-5.8612"/><path d="m130.93 103.86h5.8559"/><path d="m133.85 106.8v-5.8558"/><path d="m142.28 103.09h5.8558"/><path d="m145.2 106.01v-5.8558"/><path d="m153.61 102.24h5.8612"/><path d="m156.55 105.17v-5.8572"/><path d="m164.96 101.38h5.8612"/><path d="m167.89 104.32v-5.8612"/><path d="m176.3 100.61h5.8559"/><path d="m179.24 103.54v-5.8559"/><path d="m187.65 99.983h5.8559"/><path d="m190.57 102.92v-5.8625"/><path d="m199 99.183h5.8612"/><path d="m201.93 102.12v-5.8612"/><path d="m210.34 98.543h5.8572"/><path d="m213.26 101.48v-5.8612"/><path d="m221.68 97.956h5.8558"/><path d="m224.61 100.89v-5.8558"/><path d="m233.02 97.343h5.8625"/><path d="m235.96 100.26v-5.8558"/><path d="m244.37 96.703h5.8572"/><path d="m247.3 99.623v-5.8572"/><path d="m255.72 96.236h5.8585"/><path d="m258.65 99.169v-5.8558"/><path d="m267.05 95.756h5.8625"/><path d="m269.98 98.689v-5.8612"/><path d="m278.4 95.223h5.8612"/><path d="m281.33 98.156v-5.8572"/><path d="m289.74 94.569h5.8558"/><path d="m292.67 97.503v-5.8572"/><path d="m301.09 94.343h5.8558"/><path d="m304.02 97.263v-5.8612"/><path d="m312.43 93.73h5.8612"/><path d="m315.37 96.663v-5.8572"/><path d="m323.78 93.183h5.8558"/><path d="m326.71 96.103v-5.8558"/></g><g stroke="#0000fb"><path d="m29.695 118.05 4.1412-4.1399"/><path d="m29.695 113.92 4.1412 4.1399"/><path d="m41.028 115.98 4.1466-4.1399"/><path d="m41.028 111.85 4.1466 4.1399"/><path d="m52.388 99.916 4.1412-4.1399"/><path d="m52.388 95.783 4.1412 4.1399"/><path d="m63.721 98.809 4.1412-4.1466"/><path d="m63.721 94.649 4.1412 4.1466"/><path d="m75.067 96.769 4.1466-4.1399"/><path d="m75.067 92.623 4.1466 4.1399"/><path d="m86.413 94.383 4.1466-4.1399"/><path d="m86.413 90.236 4.1466 4.1399"/><path d="m97.76 92.436 4.1426-4.1412"/><path d="m97.76 88.303 4.1426 4.1412"/><path d="m109.11 89.703 4.1412-4.1452"/><path d="m109.11 85.556 4.1412 4.1452"/><path d="m120.44 90.09 4.1439-4.1412"/><path d="m120.44 85.956 4.1439 4.1412"/><path d="m131.79 88.143 4.1399-4.1399"/><path d="m131.79 83.996 4.1399 4.1399"/><path d="m143.13 86.556 4.1399-4.1452"/><path d="m143.13 82.41 4.1399 4.1452"/><path d="m154.48 86.49 4.1452-4.1412"/><path d="m154.48 82.343 4.1452 4.1412"/><path d="m165.81 84.156 4.1452-4.1412"/><path d="m165.81 80.023 4.1452 4.1412"/><path d="m177.16 83.423 4.1399-4.1399"/><path d="m177.16 79.29 4.1399 4.1399"/><path d="m188.5 82.303 4.1399-4.1466"/><path d="m188.5 78.157 4.1399 4.1466"/><path d="m199.85 62.997 4.1452-4.1452"/><path d="m199.85 58.85 4.1452 4.1452"/><path d="m211.2 59.29 4.1399-4.1412"/><path d="m211.2 55.144 4.1399 4.1412"/><path d="m222.54 58.597 4.1399-4.1412"/><path d="m222.54 54.45 4.1399 4.1412"/><path d="m233.88 58.384 4.1439-4.1399"/><path d="m233.88 54.251 4.1439 4.1399"/><path d="m245.24 59.05 4.1399-4.1412"/><path d="m245.24 54.904 4.1399 4.1412"/><path d="m256.57 56.264 4.1399-4.1399"/><path d="m256.57 52.117 4.1399 4.1399"/><path d="m267.92 54.33 4.1452-4.1399"/><path d="m267.92 50.197 4.1452 4.1399"/><path d="m279.26 55.077 4.1452-4.1466"/><path d="m279.26 50.931 4.1452 4.1466"/><path d="m290.61 53.651 4.1399-4.1426"/><path d="m290.61 49.517 4.1399 4.1426"/><path d="m301.95 52.891 4.1399-4.1412"/><path d="m301.95 48.744 4.1399 4.1412"/><path d="m313.29 52.597 4.1452-4.1399"/><path d="m313.29 48.451 4.1452 4.1399"/><path d="m324.63 51.424 4.1399-4.1452"/><path d="m324.63 47.277 4.1399 4.1452"/></g><g stroke="#e82000"><path d="m29.695 118.77 4.1412-4.1412"/><path d="m29.695 114.62 4.1412 4.1412"/><path d="m41.028 116.58 4.1466-4.1399"/><path d="m41.028 112.44 4.1466 4.1399"/><path d="m52.388 114.9 4.1412-4.1399"/><path d="m52.388 110.76 4.1412 4.1399"/><path d="m63.721 113.1 4.1412-4.1412"/><path d="m63.721 108.97 4.1412 4.1412"/><path d="m75.067 111.66 4.1466-4.1452"/><path d="m75.067 107.52 4.1466 4.1452"/><path d="m86.413 110.44 4.1466-4.1452"/><path d="m86.413 106.29 4.1466 4.1452"/><path d="m97.76 108.96 4.1426-4.1399"/><path d="m97.76 104.81 4.1426 4.1399"/><path d="m109.11 107.94 4.1412-4.1412"/><path d="m109.11 103.81 4.1412 4.1412"/><path d="m120.44 106.88 4.1439-4.1439"/><path d="m120.44 102.73 4.1439 4.1439"/><path d="m131.79 105.93 4.1399-4.1412"/><path d="m131.79 101.8 4.1399 4.1412"/><path d="m143.13 105.13 4.1399-4.1452"/><path d="m143.13 100.98 4.1399 4.1452"/><path d="m154.48 104.28 4.1452-4.1412"/><path d="m154.48 100.13 4.1452 4.1412"/><path d="m165.81 103.29 4.1452-4.1452"/><path d="m165.81 99.143 4.1452 4.1452"/><path d="m177.16 102.78 4.1399-4.1399"/><path d="m177.16 98.649 4.1399 4.1399"/><path d="m188.5 102.14 4.1399-4.1399"/><path d="m188.5 97.996 4.1399 4.1399"/><path d="m199.85 101.25 4.1452-4.1452"/><path d="m199.85 97.103 4.1452 4.1452"/><path d="m211.2 100.62 4.1399-4.1452"/><path d="m211.2 96.476 4.1399 4.1452"/><path d="m222.54 100.02 4.1399-4.1412"/><path d="m222.54 95.889 4.1399 4.1412"/><path d="m233.88 99.409 4.1439-4.1412"/><path d="m233.88 95.263 4.1439 4.1412"/><path d="m245.24 98.796 4.1399-4.1452"/><path d="m245.24 94.649 4.1399 4.1452"/><path d="m256.57 98.329 4.1399-4.1452"/><path d="m256.57 94.196 4.1399 4.1452"/><path d="m267.92 97.636 4.1452-4.1452"/><path d="m267.92 93.49 4.1452 4.1452"/><path d="m279.26 97.276 4.1452-4.1412"/><path d="m279.26 93.13 4.1452 4.1412"/><path d="m290.61 96.716 4.1399-4.1452"/><path d="m290.61 92.57 4.1399 4.1452"/><path d="m301.95 96.276 4.1399-4.1412"/><path d="m301.95 92.143 4.1399 4.1412"/><path d="m313.29 95.783 4.1452-4.1412"/><path d="m313.29 91.636 4.1452 4.1412"/><path d="m324.63 95.209 4.1399-4.1386"/><path d="m324.63 91.076 4.1399 4.1386"/></g><g stroke="#0000fb"><path d="m51.521 112.49 2.9333-2.9293 2.9279 2.9293-2.9279 2.9279z"/><path d="m62.867 109.37 2.9279-2.9279 2.9279 2.9279-2.9279 2.9279z"/><path d="m74.214 108.14 2.9279-2.9333 2.9346 2.9333-2.9346 2.9279z"/><path d="m85.547 107.4 2.9333-2.9293 2.9293 2.9293-2.9293 2.9279z"/><path d="m96.893 104.52 2.9279-2.9279 2.9293 2.9279-2.9293 2.9279z"/><path d="m108.24 104.88 2.9279-2.9293 2.9293 2.9293-2.9293 2.9279z"/><path d="m119.59 104.3 2.9279-2.9279 2.9346 2.9279-2.9346 2.9333z"/><path d="m130.93 101.42 2.9266-2.9279 2.9293 2.9279-2.9293 2.9266z"/><path d="m142.28 102.53 2.9266-2.9279 2.9293 2.9279-2.9293 2.9279z"/><path d="m153.61 101.2 2.9279-2.9266 2.9333 2.9266-2.9333 2.9346z"/><path d="m164.96 99.836 2.9319-2.9279 2.9293 2.9279-2.9293 2.9333z"/><path d="m176.3 99.369 2.9279-2.9279 2.9279 2.9279-2.9279 2.9279z"/><path d="m187.65 98.329 2.9279-2.9279 2.9279 2.9279-2.9279 2.9279z"/><path d="m199 79.97 2.9333-2.9279 2.9279 2.9279-2.9279 2.9266z"/><path d="m210.34 79.543 2.9293-2.9266 2.9279 2.9266-2.9279 2.9293z"/><path d="m221.68 76.45 2.9279-2.9279 2.9279 2.9279-2.9279 2.9279z"/><path d="m233.02 75.89 2.9293-2.9279 2.9333 2.9279-2.9333 2.9279z"/><path d="m244.37 76.45 2.9293-2.9279 2.9279 2.9279-2.9279 2.9279z"/><path d="m255.72 73.983 2.9293-2.9333 2.9293 2.9333-2.9293 2.9279z"/><path d="m267.05 72.677 2.9293-2.9293 2.9333 2.9293-2.9333 2.9319z"/><path d="m278.4 72.983 2.9333-2.9346 2.9279 2.9346-2.9279 2.9266z"/><path d="m289.74 72.57 2.9279-2.9279 2.9279 2.9279-2.9279 2.9279z"/><path d="m301.09 71.397 2.9279-2.9333 2.9279 2.9333-2.9279 2.9279z"/><path d="m312.43 72.237 2.9333-2.9279 2.9279 2.9279-2.9279 2.9279z"/><path d="m323.78 70.983 2.9293-2.9266 2.9266 2.9266-2.9266 2.9346z"/></g><g stroke="#e82000"><path d="m51.521 112.62 2.9333-2.9266 2.9279 2.9266-2.9279 2.9293z"/><path d="m62.867 110.89 2.9279-2.9279 2.9279 2.9279-2.9279 2.9293z"/><path d="m74.214 109.6 2.9279-2.9293 2.9346 2.9293-2.9346 2.9266z"/><path d="m85.547 108.37 2.9333-2.9279 2.9293 2.9279-2.9293 2.9293z"/><path d="m96.893 107.21 2.9279-2.9279 2.9293 2.9279-2.9293 2.9333z"/><path d="m108.24 105.88 2.9279-2.9293 2.9293 2.9293-2.9293 2.9266z"/><path d="m119.59 104.86 2.9279-2.9279 2.9346 2.9279-2.9346 2.9333z"/><path d="m130.93 103.9 2.9266-2.9279 2.9293 2.9279-2.9293 2.9279z"/><path d="m142.28 103.04 2.9266-2.9266 2.9293 2.9266-2.9293 2.9293z"/><path d="m153.61 102.21 2.9279-2.9293 2.9333 2.9293-2.9333 2.9266z"/><path d="m164.96 101.53 2.9319-2.9293 2.9293 2.9293-2.9293 2.9319z"/><path d="m176.3 100.66 2.9279-2.9346 2.9279 2.9346-2.9279 2.9266z"/><path d="m187.65 99.929 2.9279-2.9279 2.9279 2.9279-2.9279 2.9279z"/><path d="m199 99.249 2.9333-2.9279 2.9279 2.9279-2.9279 2.9279z"/><path d="m210.34 98.463 2.9293-2.9346 2.9279 2.9346-2.9279 2.9266z"/><path d="m221.68 97.863 2.9279-2.9346 2.9279 2.9346-2.9279 2.9266z"/><path d="m233.02 97.316 2.9293-2.9293 2.9333 2.9293-2.9333 2.9266z"/><path d="m244.37 96.783 2.9293-2.9266 2.9279 2.9266-2.9279 2.9346z"/><path d="m255.72 96.263 2.9293-2.9333 2.9293 2.9333-2.9293 2.9279z"/><path d="m267.05 95.743 2.9293-2.9279 2.9333 2.9279-2.9333 2.9266z"/><path d="m278.4 95.183 2.9333-2.9293 2.9279 2.9293-2.9279 2.9266z"/><path d="m289.74 94.676 2.9279-2.9279 2.9279 2.9279-2.9279 2.9333z"/><path d="m301.09 94.223 2.9279-2.9279 2.9279 2.9279-2.9279 2.9279z"/><path d="m312.43 93.823 2.9333-2.9293 2.9279 2.9293-2.9279 2.9266z"/><path d="m323.78 93.343 2.9293-2.9279 2.9266 2.9279-2.9266 2.9293z"/></g><g stroke="#000"><path d="m54.452 113.89 11.342-1.504 11.342-1.352 11.348-1.216 11.342-1.116 11.342-1.0213 11.342-.95064 11.348-.87865 11.342-.82798 11.344-.77464 11.346-.73465 11.344-.68932 11.342-.65732 11.348-.62131 11.342-.59599 11.342-.56932 11.342-.54532 11.348-.52398 11.342-.49866 11.342-.48265 11.348-.46666 11.342-.44799 11.342-.43599 11.348-.41732 11.344-.40932" stroke-dasharray="3.94522 3.94522"/><path d="m54.452 109.21 11.342-1.8546 11.342-1.6493 11.348-1.4786 11.342-1.3413 11.342-1.228 11.342-1.1306 11.348-1.048 11.342-.97597 11.344-.91331 11.346-.85732 11.344-.81331 11.342-.76531 11.348-.72798 11.342-.69465 11.342-.65732 11.342-.63198 11.348-.60532 11.342-.57599 11.342-.55998 11.348-.53466 11.342-.51332 11.342-.49732 11.348-.48399 11.344-.46265" stroke-dasharray=".986305 2.95891"/><path d="m54.452 100.6 11.342-2.2613 11.342-2.024 11.348-1.828 11.342-1.6693 11.342-1.5373 11.342-1.4226 11.348-1.3253 11.342-1.2373 11.344-1.1613 11.346-1.1 11.344-1.0373 11.342-.98664 11.348-.93465 11.342-.89464 11.342-.85198 11.342-.81598 11.348-.78131 11.342-.75465 11.342-.72532 11.348-.69731 11.342-.67465 11.342-.64665 11.348-.63199 11.344-.61065" stroke-dasharray=".986305 2.95891 3.94522 2.95891"/><path d="m54.452 87.291 11.342-3.0159 11.342-2.6919 11.348-2.4413 11.342-2.2279 11.342-2.0453 11.342-1.9 11.348-1.7626 11.342-1.6533 11.344-1.552 11.346-1.4586 11.344-1.3866 11.342-1.3106 11.348-1.248 11.342-1.192 11.342-1.1346 11.342-1.0893 11.348-1.048 11.342-1.0026 11.342-.9653 11.348-.92931 11.342-.89998 11.342-.86798 11.348-.83731 11.344-.81198" stroke-dasharray="6.90413 2.95891"/></g></g><g stroke-width="1.3333"><text x="306.86661" y="-211.6342"><tspan stroke-width="1.3333" x="306.86661" y="-211.6342"/></text><text x="316.06323" y="-211.6342"><tspan stroke-width="1.3333" x="316.06323" y="-211.6342"/></text><text font-family="Helvetica" font-size="9.2055" x="320.3562" y="44.922779"><tspan stroke-width="1.3333" x="320.3562" y="44.922779">⁴</tspan></text></g><path d="m31.761 67.77h72.581v-66.277h-72.581z" style="fill:none;stroke:#000;stroke-linecap:round;stroke-linejoin:round;stroke-miterlimit:10;stroke-width:.98631"/><g stroke-width="1.3333"><text x="55.49646" y="-278.93451"><tspan stroke-width="1.3333" x="55.49646" y="-278.93451"/></text><text x="63.367069" y="-278.93451"><tspan stroke-width="1.3333" x="63.367069" y="-278.93451"/></text><text x="55.496418" y="-267.89005"><tspan stroke-width="1.3333" x="55.496418" y="-267.89005"/></text><text x="63.367031" y="-267.89005"><tspan stroke-width="1.3333" x="63.367031" y="-267.89005"/></text><text x="55.496418" y="-256.84546"><tspan stroke-width="1.3333" x="55.496418" y="-256.84546"/></text><text x="63.367031" y="-256.84546"><tspan stroke-width="1.3333" x="63.367031" y="-256.84546"/></text><text x="55.496376" y="-245.79578"><tspan stroke-width="1.3333" x="55.496376" y="-245.79578"/></text><text x="63.367031" y="-245.79578"><tspan stroke-width="1.3333" x="63.367031" y="-245.79578"/></text><text x="77.828667" y="-245.79578"><tspan stroke-width="1.3333" x="77.828667" y="-245.79578"/></text><text x="55.49646" y="-234.75122"><tspan stroke-width="1.3333" x="55.49646" y="-234.75122"/></text><text x="63.367111" y="-234.75122"><tspan stroke-width="1.3333" x="63.367111" y="-234.75122"/></text><text x="77.828743" y="-234.75122"><tspan stroke-width="1.3333" x="77.828743" y="-234.75122"/></text><text fill="#00f" font-family="Helvetica" font-size="9.2055" x="283.10983" y="122.64108"><tspan fill="#00f" stroke-width="1.3333" x="283.10983" y="122.64108">(1+1)EA</tspan></text><text fill="#e82000" font-family="Helvetica" font-size="9.2055" x="283.10983" y="133.69012"><tspan stroke-width="1.3333" x="283.10983" y="133.69012">(1+1)FEA</tspan></text><g transform="rotate(-90)"><text font-family="Helvetica" font-size="9.2055" x="-138.80438" y="42.145176"><tspan stroke-width="1.3333" x="-138.80438" y="42.145176">mean(RT)</tspan></text><text x="196.71417" y="42.154507"><tspan stroke-width="1.3333" x="196.71417" y="42.154507"/></text><text font-family="Helvetica" font-size="9.2055" x="-95.428436" y="42.145176"><tspan stroke-width="1.3333" x="-95.428436 -92.795685" y="42.145176">in</tspan></text><text x="207.22693" y="42.154507"><tspan stroke-width="1.3333" x="207.22693" y="42.154507"/></text><text font-family="Helvetica" font-size="9.2055" x="-84.915649" y="42.145176"><tspan stroke-width="1.3333" x="-84.915649 -79.668396 -73.095642" y="42.145176">FEs</tspan></text></g><text font-family="Helvetica" font-size="9.2055" x="213.1114" y="137.62576"><tspan stroke-width="1.3333" x="213.1114 218.36754 223.63304 228.88913 231.52188" y="137.62576">scale</tspan></text><text x="160.78728" y="-157.1402"><tspan stroke-width="1.3333" x="160.78728" y="-157.1402"/></text><text font-family="Helvetica" font-size="9.2055" x="239.40193" y="137.62576"><tspan stroke-width="1.3333" x="239.40193" y="137.62576">n</tspan></text><text x="306.8663" y="-64.273224"><tspan stroke-width="1.3333" x="306.8663" y="-64.273224"/></text><text x="316.06299" y="-64.273224"><tspan stroke-width="1.3333" x="316.06299" y="-64.273224"/></text><text x="55.49646" y="-131.64482"><tspan stroke-width="1.3333" x="55.49646" y="-131.64482"/></text><text x="63.367069" y="-131.64482"><tspan stroke-width="1.3333" x="63.367069" y="-131.64482"/></text><text x="55.496418" y="-120.60034"><tspan stroke-width="1.3333" x="55.496418" y="-120.60034"/></text><text x="63.367031" y="-120.60034"><tspan stroke-width="1.3333" x="63.367031" y="-120.60034"/></text><text x="55.496418" y="-109.55586"><tspan stroke-width="1.3333" x="55.496418" y="-109.55586"/></text><text x="63.367031" y="-109.55586"><tspan stroke-width="1.3333" x="63.367031" y="-109.55586"/></text><text x="55.496376" y="-98.506088"><tspan stroke-width="1.3333" x="55.496376" y="-98.506088"/></text><text x="63.367031" y="-98.506088"><tspan stroke-width="1.3333" x="63.367031" y="-98.506088"/></text><text x="77.828667" y="-98.506088"><tspan stroke-width="1.3333" x="77.828667" y="-98.506088"/></text><text x="55.49646" y="-87.461609"><tspan stroke-width="1.3333" x="55.49646" y="-87.461609"/></text><text x="63.367111" y="-87.461609"><tspan stroke-width="1.3333" x="63.367111" y="-87.461609"/></text><text x="77.828743" y="-87.461609"><tspan stroke-width="1.3333" x="77.828743" y="-87.461609"/></text><text transform="rotate(-90)" x="49.425858" y="42.154507"><tspan stroke-width="1.3333" x="49.425858" y="42.154507"/></text><text transform="rotate(-90)" x="59.938614" y="42.154507"><tspan stroke-width="1.3333" x="59.938614" y="42.154507"/></text><text x="160.78728" y="-9.851899"><tspan stroke-width="1.3333" x="160.78728" y="-9.851899"/></text></g><g fill="none" stroke="#000" stroke-linecap="round" stroke-miterlimit="10" stroke-width=".98631"><path d="m77.143 140.49v2.7853"/><path d="m209.86 140.49v2.7853"/><path d="m190.58 140.49v2.7853"/><path d="m247.31 140.49v2.7853"/><path d="m304.03 140.49v2.7853"/></g><text font-family="Helvetica" font-size="9.2055" stroke-width="1.3333" x="71.88578" y="154.19199"><tspan stroke-width="1.3333" x="71.88578 77.141914 128.60986 133.86597 185.32663 190.58272 242.05067 247.30676 298.76688 304.02301" y="154.19199">1015202530</tspan></text><path d="m31.771 140.49h-5.5225" style="fill:none;stroke:#000;stroke-linecap:round;stroke-linejoin:round;stroke-miterlimit:10;stroke-width:.98631"/><g stroke-width="1.3333"><text x="306.86661" y="83.455505"><tspan stroke-width="1.3333" x="306.86661" y="83.455505"/></text><text x="316.06323" y="83.455505"><tspan stroke-width="1.3333" x="316.06323" y="83.455505"/></text><text x="55.49646" y="15.64215"><tspan stroke-width="1.3333" x="55.49646" y="15.64215"/></text><text x="63.367069" y="15.64215"><tspan stroke-width="1.3333" x="63.367069" y="15.64215"/></text><text x="55.496418" y="26.686615"><tspan stroke-width="1.3333" x="55.496418" y="26.686615"/></text><text x="63.367031" y="26.686615"><tspan stroke-width="1.3333" x="63.367031" y="26.686615"/></text><text x="55.496418" y="37.73114"><tspan stroke-width="1.3333" x="55.496418" y="37.73114"/></text><text x="63.367031" y="37.73114"><tspan stroke-width="1.3333" x="63.367031" y="37.73114"/></text><text x="55.496376" y="48.780884"><tspan stroke-width="1.3333" x="55.496376" y="48.780884"/></text><text x="63.367031" y="48.780884"><tspan stroke-width="1.3333" x="63.367031" y="48.780884"/></text><text x="77.828667" y="48.780884"><tspan stroke-width="1.3333" x="77.828667" y="48.780884"/></text><text x="55.49646" y="59.825378"><tspan stroke-width="1.3333" x="55.49646" y="59.825378"/></text><text x="63.367111" y="59.825378"><tspan stroke-width="1.3333" x="63.367111" y="59.825378"/></text><text x="77.828743" y="59.825378"><tspan stroke-width="1.3333" x="77.828743" y="59.825378"/></text></g><path d="m273.12 140.5h53.589v-29.466h-53.589z" style="fill:none;stroke:#000;stroke-linecap:round;stroke-linejoin:round;stroke-miterlimit:10;stroke-width:.98631"/><g stroke-width="1.3333"><g font-size="9.2055"><text font-family="'DejaVu Sans'" x=".208902" y="167.45032"><tspan stroke-width="1.3333" x=".208902" y="167.45032">⌊</tspan></text><text font-family="Helvetica" x="4.148908" y="167.45032"><tspan stroke-width="1.3333" x="4.148908" y="167.45032">n/2</tspan></text><text font-family="'DejaVu Sans'" x="17.293884" y="167.45032"><tspan stroke-width="1.3333" x="17.293884" y="167.45032">⌋</tspan></text><g font-family="Helvetica"><text x="21.233891" y="167.45032"><tspan stroke-width="1.3333" x="21.233891 23.866636 29.12277 40.464119 51.805511" y="167.45032">-1:23</tspan></text><text fill="#bebebe" x="63.172657" y="167.44498"><tspan stroke-width="1.3333" x="63.172657" y="167.44498">3</tspan></text><text x="74.515068" y="167.44498"><tspan stroke-width="1.3333" x="74.515068" y="167.44498">4</tspan></text><text fill="#bebebe" x="85.862762" y="167.44498"><tspan stroke-width="1.3333" x="85.862762" y="167.44498">4</tspan></text><text x="97.206474" y="167.44498"><tspan stroke-width="1.3333" x="97.206474" y="167.44498">5</tspan></text><text fill="#bebebe" x="108.54888" y="167.44498"><tspan stroke-width="1.3333" x="108.54888" y="167.44498">5</tspan></text><text x="119.89126" y="167.44498"><tspan stroke-width="1.3333" x="119.89126" y="167.44498">6</tspan></text><text fill="#bebebe" x="131.23895" y="167.44498"><tspan stroke-width="1.3333" x="131.23895" y="167.44498">6</tspan></text><text x="142.58136" y="167.44498"><tspan stroke-width="1.3333" x="142.58136" y="167.44498">7</tspan></text><text fill="#bebebe" x="153.92372" y="167.44498"><tspan stroke-width="1.3333" x="153.92372" y="167.44498">7</tspan></text><text x="165.27147" y="167.44498"><tspan stroke-width="1.3333" x="165.27147" y="167.44498">8</tspan></text><text fill="#bebebe" x="176.61383" y="167.44498"><tspan stroke-width="1.3333" x="176.61383" y="167.44498">8</tspan></text><text x="187.95621" y="167.44498"><tspan stroke-width="1.3333" x="187.95621" y="167.44498">9</tspan></text><text fill="#bebebe" x="199.30394" y="167.44498"><tspan stroke-width="1.3333" x="199.30394" y="167.44498">9</tspan></text><text x="208.01706" y="167.44498"><tspan stroke-width="1.3333" x="208.01706 213.27315" y="167.44498">10</tspan></text><text fill="#bebebe" x="219.35942" y="167.44498"><tspan stroke-width="1.3333" x="219.35942 224.61552" y="167.44498">10</tspan></text><text x="230.7018" y="167.44498"><tspan stroke-width="1.3333" x="230.7018 235.95789" y="167.44498">11</tspan></text><text fill="#bebebe" x="242.04953" y="167.44498"><tspan stroke-width="1.3333" x="242.04953 247.30563" y="167.44498">11</tspan></text><text x="253.39191" y="167.44498"><tspan stroke-width="1.3333" x="253.39191 258.64801" y="167.44498">12</tspan></text><text fill="#bebebe" x="264.73431" y="167.44498"><tspan stroke-width="1.3333" x="264.73431 269.99042" y="167.44498">12</tspan></text><text x="276.08206" y="167.44498"><tspan stroke-width="1.3333" x="276.08206 281.3381" y="167.44498">13</tspan></text><text fill="#bebebe" x="287.42438" y="167.44498"><tspan stroke-width="1.3333" x="287.42438 292.68051" y="167.44498">13</tspan></text><text x="298.76682" y="167.44498"><tspan stroke-width="1.3333" x="298.76682 304.02286" y="167.44498">14</tspan></text><text fill="#bebebe" x="310.1145" y="167.44498"><tspan stroke-width="1.3333" x="310.1145 315.37064" y="167.44498">14</tspan></text><text x="321.45691" y="167.44498"><tspan stroke-width="1.3333" x="321.45691 326.71295" y="167.44498">15</tspan></text></g><text font-family="'DejaVu Sans'" x="9.415338" y="177.39578"><tspan stroke-width="1.3333" x="9.415338" y="177.39578">⌊</tspan></text><text font-family="Helvetica" x="13.355343" y="177.39578"><tspan stroke-width="1.3333" x="13.355343" y="177.39578">√</tspan></text><text font-family="Helvetica" x="19.928095" y="177.39578"><tspan stroke-width="1.3333" x="19.928095" y="177.39578">n</tspan></text><text font-family="'DejaVu Sans'" x="25.193588" y="177.39578"><tspan stroke-width="1.3333" x="25.193588" y="177.39578">⌋</tspan></text><g font-family="Helvetica"><text x="29.133595" y="177.39578"><tspan stroke-width="1.3333" x="29.133595 40.474983" y="177.39578">:2</tspan></text><text fill="#bebebe" x="51.830292" y="177.39145"><tspan stroke-width="1.3333" x="51.830292" y="177.39145">2</tspan></text><text x="63.172657" y="177.39145"><tspan stroke-width="1.3333" x="63.172657" y="177.39145">3</tspan></text><text fill="#bebebe" x="74.515068" y="177.39145"><tspan stroke-width="1.3333" x="74.515068 85.865288 97.20668 108.54807 119.88947 131.23085" y="177.39145">333333</tspan></text><text x="142.58136" y="177.39145"><tspan stroke-width="1.3333" x="142.58136" y="177.39145">4</tspan></text><text fill="#bebebe" x="153.92372" y="177.39145"><tspan stroke-width="1.3333" x="153.92372 165.27394 176.6153 187.95665 199.298 210.63934 221.9807 233.32205" y="177.39145">44444444</tspan></text><text x="244.67879" y="177.39145"><tspan stroke-width="1.3333" x="244.67879" y="177.39145">5</tspan></text><text fill="#bebebe" x="256.02121" y="177.39145"><tspan stroke-width="1.3333" x="256.02121 267.36255 278.71277 290.05414 301.39548 312.73682 324.07819" y="177.39145">5555555</tspan></text></g><text font-family="'DejaVu Sans'" x="5.470124" y="187.33649"><tspan stroke-width="1.3333" x="5.470124" y="187.33649">⌊</tspan></text><text font-family="Helvetica" x="9.41013" y="187.33649"><tspan stroke-width="1.3333" x="9.41013 12.042835" y="187.33649">ln</tspan></text></g><text x="17.298969" y="187.33649"><tspan stroke-width="1.3333" x="17.298969" y="187.33649"/></text><g font-size="9.2055"><text font-family="Helvetica" x="19.922358" y="187.33649"><tspan stroke-width="1.3333" x="19.922358" y="187.33649">n</tspan></text><text font-family="'DejaVu Sans'" x="25.187851" y="187.33649"><tspan stroke-width="1.3333" x="25.187851" y="187.33649">⌋</tspan></text><g font-family="Helvetica"><text x="29.127857" y="187.33649"><tspan stroke-width="1.3333" x="29.127857" y="187.33649">:</tspan></text><text fill="#bebebe" x="40.482552" y="187.33118"><tspan stroke-width="1.3333" x="40.482552" y="187.33118">1</tspan></text><text x="51.830292" y="187.33118"><tspan stroke-width="1.3333" x="51.830292" y="187.33118">2</tspan></text><text fill="#bebebe" x="63.172657" y="187.33118"><tspan stroke-width="1.3333" x="63.172657 74.514053 85.864273 97.205666 108.54706 119.88844 131.22984 142.57118 153.91254 165.26276 176.60411 187.94547" y="187.33118">222222222222</tspan></text><text x="199.30394" y="187.33118"><tspan stroke-width="1.3333" x="199.30394" y="187.33118">3</tspan></text><text fill="#bebebe" x="210.6463" y="187.33118"><tspan stroke-width="1.3333" x="210.6463 221.98766 233.32901 244.67923 256.0206 267.36191 278.70334 290.04468 301.38605 312.73618 324.07751" y="187.33118">33333333333</tspan></text></g></g><text transform="rotate(-90)" x="-98.041138" y="42.154507"><tspan stroke-width="1.3333" x="-98.041138" y="42.154507"/></text><text transform="rotate(-90)" x="-87.528351" y="42.154507"><tspan stroke-width="1.3333" x="-87.528351" y="42.154507"/></text><text x="160.78728" y="137.62042"><tspan stroke-width="1.3333" x="160.78728" y="137.62042"/></text></g><text font-family="Helvetica" font-size="12.444" stroke-width="1.7778" x="58.691189" y="136.1748"><tspan stroke-width="1.7778" x="58.691189" y="136.1748">ω-Jump (Log-Log)</tspan></text><g style="fill:none;stroke:#000;stroke-linecap:round;stroke-linejoin:round;stroke-miterlimit:10;stroke-width:.74998"><path d="m43.464 12.067c0 2.7686-4.1584 2.7686-4.1584 0 0-2.7738 4.1584-2.7738 4.1584 0"/><path d="m41.387 19.918 2.7982 4.8457h-5.5964z"/><path d="m38.444 34.233h5.8801"/><path d="m41.387 37.176v-5.8816"/><path d="m39.305 47.398 4.1584-4.1542"/><path d="m39.305 43.243 4.1584 4.1542"/><path d="m38.444 56.404 2.9433-2.9388 2.9367 2.9388-2.9367 2.9375z"/></g><g font-size="9.2362" stroke-width=".99998" transform="scale(.99988 1.0001)"><g font-family="'Nimbus Sans'"><text x="49.87038" y="15.361681"><tspan stroke-width=".99998" x="49.87038 56.465042 59.10659 64.380463" y="15.361681">ω =</tspan></text><text x="49.87038" y="26.478464"><tspan stroke-width=".99998" x="49.87038 56.465042 59.10659 64.380463" y="26.478464">ω =</tspan></text><text x="49.87038" y="36.933674"><tspan stroke-width=".99998" x="49.87038 56.465042 59.10659 64.380463" y="36.933674">ω =</tspan></text><text x="49.87038" y="48.389336"><tspan stroke-width=".99998" x="49.87038 56.465042 59.10659 64.380463" y="48.389336">ω =</tspan></text></g><text font-family="'DejaVu Sans'" x="67.022018" y="15.361681"><tspan stroke-width=".99998" x="67.022018" y="15.361681">⌊</tspan></text><text font-family="'Nimbus Sans'" x="70.98436" y="15.361681"><tspan stroke-width=".99998" x="70.98436" y="15.361681">n/2</tspan></text><text font-family="'DejaVu Sans'" x="82.852882" y="15.361681"><tspan stroke-width=".99998" x="82.852882" y="15.361681">⌋</tspan></text><text font-family="Nimbus Sans" stroke-width=".99998" x="86.815216" y="15.361681"><tspan x="86.815216" y="15.361681">-1</tspan><tspan x="86.815216" y="26.906942"/></text><text font-family="'DejaVu Sans'" x="67.022018" y="26.443069"><tspan stroke-width=".99998" x="67.022018" y="26.443069">⌊</tspan></text><text font-family="'Nimbus Sans'" x="70.98436" y="26.443069"><tspan stroke-width=".99998" x="70.98436" y="26.443069">√</tspan></text><text font-family="'Nimbus Sans'" x="74.937454" y="26.443069"><tspan stroke-width=".99998" x="74.937454" y="26.443069">n</tspan></text><text font-family="'DejaVu Sans'" x="78.899788" y="26.443069"><tspan stroke-width=".99998" x="78.899788" y="26.443069">⌋</tspan></text><text font-family="Cambria Math" x="82.852882" y="26.443069"><tspan stroke-width=".99998" x="82.852882" y="26.443069">+1</tspan></text><text font-family="'DejaVu Sans'" x="67.022018" y="37.524467"><tspan stroke-width=".99998" x="67.022018" y="37.524467">⌊</tspan></text><text font-family="'Nimbus Sans'" x="70.98436" y="37.524467"><tspan stroke-width=".99998" x="70.98436" y="37.524467">√</tspan></text><text font-family="'Nimbus Sans'" x="74.937454" y="37.524467"><tspan stroke-width=".99998" x="74.937454" y="37.524467">n</tspan></text><text font-family="'DejaVu Sans'" x="78.899788" y="37.524467"><tspan stroke-width=".99998" x="78.899788" y="37.524467">⌋</tspan></text><text font-family="'DejaVu Sans'" x="67.022018" y="48.611008"><tspan stroke-width=".99998" x="67.022018" y="48.611008">⌊</tspan></text><text font-family="'Nimbus Sans'" x="70.98436" y="48.611008"><tspan stroke-width=".99998" x="70.98436" y="48.611008">ln n</tspan></text><text font-family="'DejaVu Sans'" x="85.494446" y="48.611008"><tspan stroke-width=".99998" x="85.494446" y="48.611008">⌋</tspan></text><text font-family="Nimbus Sans" x="89.447556" y="48.611008"><tspan stroke-width=".99998" x="89.447556" y="48.611008">+1</tspan></text><text font-family="'Nimbus Sans'" x="49.87038" y="59.692398"><tspan stroke-width=".99998" x="49.87038 56.465042 59.10659 64.380463" y="59.692398">ω =</tspan></text><text font-family="'DejaVu Sans'" x="67.022018" y="59.692398"><tspan stroke-width=".99998" x="67.022018" y="59.692398">⌊</tspan></text><text font-family="'Nimbus Sans'" x="70.98436" y="59.692398"><tspan stroke-width=".99998" x="70.98436" y="59.692398">ln n</tspan></text><text font-family="'DejaVu Sans'" x="85.494446" y="59.692398"><tspan stroke-width=".99998" x="85.494446" y="59.692398">⌋</tspan></text></g><g font-family="Ubuntu" font-size="9.2055" font-weight="bold" stroke-width=".75"><text x="315.34201" y="46.500427"><tspan font-family="Helvetica" font-size="9.2055" font-weight="normal" stroke-width=".75" x="315.34201" y="46.500427">n</tspan></text><text x="316.85013" y="68.815964"><tspan font-family="Helvetica" font-size="9.2055" font-weight="normal" stroke-width=".75" x="316.85013" y="68.815964">n³</tspan></text><text x="299.97638" y="86.1642"><tspan font-family="Helvetica" font-size="9.2055" font-weight="normal" stroke-width=".75" x="299.97638" y="86.1642">n² ln n</tspan></text><text x="316.8681" y="105.37586"><tspan font-family="Helvetica" font-size="9.2055" font-weight="normal" stroke-width=".75" x="316.8681" y="105.37586">n²</tspan></text></g></svg>