<svg height="157.85pt" viewBox="0 0 328.97 157.85" width="328.97pt" xmlns="http://www.w3.org/2000/svg"><g fill="none" stroke-linecap="round" stroke-miterlimit="10" stroke-width=".99998"><g stroke="#bebebe" stroke-linejoin="round"><path d="m246.78 144.2v-142.7"/><path d="m15.96 113.41h310.01"/><path d="m15.96 82.623h310.01"/><path d="m15.96 51.827h310.01"/><path d="m95.208 144.2v-142.7"/><path d="m15.96 21.037h310.01"/></g><g stroke="#000"><path d="m49.584 144.2h242.82"/><path d="m49.584 144.2v2.8533"/><path d="m95.208 144.2v2.8533"/><path d="m140.84 144.2v2.8533"/><path d="m201.16 144.2v2.8533"/><path d="m246.78 144.2v2.8533"/><path d="m292.41 144.2v2.8533"/><path d="m15.96 1.5h310.01v142.7h-310.01z"/><g stroke-linejoin="round"><path d="m15.96 144.2v-123.17"/><path d="m15.96 144.2h-2.8533"/><path d="m15.96 113.41h-2.8533"/><path d="m15.96 82.623h-2.8533"/><path d="m15.96 51.827h-2.8533"/><path d="m15.96 21.037h-2.8533"/></g></g></g><g font-family="Helvetica" stroke-width="1.3333" transform="rotate(-90)"><text font-size="9.3331" x="-151.53839" y="10.592949"><tspan stroke-width="1.3333" x="-151.53839 -146.2092" y="10.592949">10</tspan></text><text font-size="6.5324" x="-140.87199" y="5.593073"><tspan stroke-width="1.3333" x="-140.87199" y="5.593073">0</tspan></text><text font-size="9.3331" x="-120.74751" y="10.592949"><tspan stroke-width="1.3333" x="-120.74751 -115.4183" y="10.592949">10</tspan></text><text font-size="6.5324" x="-110.08112" y="5.593073"><tspan stroke-width="1.3333" x="-110.08112" y="5.593073">2</tspan></text><text font-size="9.3331" x="-89.956612" y="10.592949"><tspan stroke-width="1.3333" x="-89.956612 -84.627403" y="10.592949">10</tspan></text><text font-size="6.5324" x="-79.290207" y="5.593072"><tspan stroke-width="1.3333" x="-79.290207" y="5.593072">4</tspan></text><text font-size="9.3331" x="-59.160503" y="10.592949"><tspan stroke-width="1.3333" x="-59.160503 -53.831303" y="10.592949">10</tspan></text><text font-size="6.5324" x="-48.494102" y="5.593073"><tspan stroke-width="1.3333" x="-48.494102" y="5.593073">6</tspan></text><text font-size="9.3331" x="-28.369608" y="10.592947"><tspan stroke-width="1.3333" x="-28.369608 -23.040407" y="10.592947">10</tspan></text><text font-size="6.5324" x="-17.703209" y="5.593073"><tspan stroke-width="1.3333" x="-17.703209" y="5.593073">8</tspan></text></g><g fill="none" stroke-linecap="round" stroke-linejoin="round" stroke-miterlimit="10"><path d="m15.96 126.3 18.937-16.333 14.688-15.526 12-18.541 10.15-19.041 8.7864-21.343 7.7558-20.275" stroke="#00f" stroke-width="4"/><path d="m15.959502 130.28343 18.93686-4.82788 14.687632-3.54124 11.9997-2.60394 10.150413-2.36527 8.786447-1.89995 7.755806-1.6573 6.931827-1.44263 6.275843-1.51996 5.72919-1.1773 5.2652-1.21864 4.87988-1.05197 4.54122-.94798 4.25056-.97464 3.98923-.75465 3.75991-.96931 3.56258-.79064 3.37591-.66132 3.21325-.82931 3.06259-.67599 2.9266-.682647 2.79726-.52665 2.6866-.571986 2.58394-.66665 2.48393-.573319 2.39594-.515987 2.30661-.66665 2.23461-.410657 2.15595-.494654 2.08928-.474655 2.02528-.385323 1.96929-.463989 1.90528-.489321 1.85462-.401323 1.80263-.238661 1.75462-.422656 1.71329-.509321 1.66662-.370657 1.6253-.41599 1.58262-.275993 1.55196-.26666 1.51063-.337325 1.47997-.37599 1.44796-.218661 1.41596-.28666 1.3853-.353324 1.35997-.406657 1.32797-.25466 1.3013-.250661 1.2813-.515987 1.25063-.202661 1.23464-.234661 1.20797-.197328 1.18264-.327992 1.16663-.207995 1.14531-.343991 1.1253-.198662 1.10398-.171996 1.08797-.275993 1.07331-.218661 1.05197-.358658 1.03597-.135996 1.02131-.275994 1.00531-.207994.98931-.182662.97464-.27066.96264-.130664.94798-.213328.93198-.25466.92264-.265327.90531-.14133.89598-.239994.88531-.123996.87064-.229328.85865-.182662.84931-.166663.83865-.177329.82798-.123996.81731-.281327.80798-.10533.80131-.275994.78665-.072.77598-.265326.77065-.119997.76131-.218662.75465-.048.74531-.327992.73332-.123997.72931-.135997.71865-.068.70932-.161329.70265-.333325.69731-.191996.69332-.052.68265-.130664.67065-.239994.67198-.103997.66132-.12533.65198-.12933.65065-.06266.64132-.229328.63465-.068.63065-.301326.62399-.032.61998-.186662.60932-.16133.60932.036.59998-.275993.59865-.286659.58799.03067.58398-.12933.58266-.14133.57332-.155996.56798-.139997.56665-.119997.55732-.155996.55732-.07867.55199-.016.54799-.358658.54132.08266.53598-.181329.53199-.146663.53065-.150663.52666-.02667.51465-.118664.52132-.146663.51065-.171995.51066-.05733.49998-.068.49999-.161329.49999-.103997.49465-.08267.48933-.04666.48398-.209328.47999-.175996.47866-.0053.47865-.04267.46932-.218661.46799.0053.46399-.191995.46399-.02667.45732-.191995.45865.02533.45333-.155996.44798-.150663.44266-.05733.44799-.04667.43732-.151996.43732-.207995.43733.01067.42799-.036.43199-.1.42665-.09866.42266-.09866.42132-.229327.41599-.02667.41732-.233328.41199.05733.41066-.06267.40666-.119997.40665-.218661.39999.06266.40132-.103997.396-.109331.39599-.14133.39065-.06266.39066-.052.39066-.05733.38532-.125331.38532-.155996h.37999l.37999-.134663.37466-.08933.37599-.072.37466-.119997.36932-.05733.37066-.02667.36399-.08267.36533-.06266.36399-.07333.35865-.16133.36-.036.35999-.052.35332-.141329.35466-.088.34932-.04133h.34799l.34933-.119997.34399-.068.34399-.14133.34266-.123996.33866.06266.33866-.07333.33865-.161329.33333.016.33332-.084.33333-.139997.32799.01467.32799-.07733.328-.04667.32399-.162662.32266-.150663.32265.114664.32266-.254661.31733-.01067.31866-.109331.31199-.07333.31732-.08266.31333.04133.31199-.109331.30799-.114664.30666-.068.308.052.30665-.202662.30266.052.30133-.14133.30266-.02.30132-.02667.29733-.139996.29733-.02667.29599-.139997.29199-.02667.29733-.09866h.29066l.29199-.05733.28666-.166662.28666.04666.29199-.119997.27999-.0093.28666-.151996.28133-.052.56265-.03067.28133-.146663.27599-.02.28133-.177329.27599-.036.27066.06266.27599-.052.27066-.146663.27066-.07333.272.016.27066-.02.27066-.084.26532-.06267.26533-.05733.26666-.177329.25999-.052.26533-.0093.25999.03067.26133-.171995.26.068.25999-.150663.25599-.119997.25466.04133.26-.155996.25066.02533.25466-.12933.25599-.048.24933.01067.25066-.06266.24932-.114664.25067-.06133.24399.08266.25066-.134663.24399-.05333.24533-.103997.24533-.08267.24399-.032.24-.04133.24399.01067.23999-.12533h.24l.23999-.08267.23866-.032.23466.01067.24-.12533.23332-.12933.23467.02.23466-.155996.22932-.04133.23466.155996.22933-.182662.23333.04267.22933-.187996.22932.04667.22933-.130664.224.08933.22932-.07867.224-.139997.22399-.0053.224-.01067.22399-.06266.224-.05733.22399-.072.21866-.07867.224-.01067.21866-.10933.21866-.016.21866.03733.21333-.09466.21866-.04666h.21866l.21333-.119997.21333-.004.21466-.12533.21333.02.21332-.155996.21333-.09333.208.0053.21332-.016.20933-.02133.208-.08266.20799-.04667.20933-.05733.208.119997.20799-.177329.20266.04667.20933-.171996.20266.0053.20266-.05733.204-.0053.20266-.08266.20266-.0053.204-.146663.20266.08933.19733-.052.19866-.114664.20266.01067.19866-.032.19733-.109331" stroke="#e82000" stroke-width="4"/><g stroke="#000" stroke-width=".99998"><path d="m15.959502 129.51278 18.93686-3.8439 14.687632-2.98393 11.9997-2.43727 10.150413-2.06261 8.786447-1.78662 7.755806-1.5733 6.931827-1.41063 6.275843-1.27597 5.72919-1.1613 5.2652-1.07331 4.87988-.98931 4.54122-.92264 4.25056-.86398 3.98923-.80665 3.75991-.76664 3.56258-.72399 3.37591-.68664 3.21325-.65199 3.06259-.61865 2.9266-.59998 2.79726-.56666 2.6866-.54798 2.58394-.51999 2.48393-.50532 2.39594-.489317 2.30661-.46932 2.23461-.45333 2.15595-.43732 2.08928-.426654 2.02528-.41199 1.96929-.39599 1.90528-.390657 1.85462-.374657 1.80263-.363991 1.75462-.359991 1.71329-.343992 1.66662-.337325 1.6253-.333325 1.58262-.323991 1.55196-.311993 1.51063-.306659 1.47997-.302659 1.44796-.291992 1.41596-.291993 1.3853-.281326 1.35997-.275994 1.32797-.265326 1.3013-.265327 1.2813-.259993 1.25063-.255994 1.23464-.249327 1.20797-.245327 1.18264-.238661 1.16663-.239994 1.14531-.234661 1.1253-.223994 1.10398-.229328 1.08797-.218661 1.07331-.218661 1.05197-.213328 1.03597-.207995 1.02131-.209328 1.00531-.202662.98931-.202661.97464-.198662.96264-.191995.94798-.193329.93198-.191995.92264-.187995.90531-.182662.89598-.181329.88531-.182662.87064-.177329.85865-.171996.84931-.171996.83865-.171995.82798-.166663.81731-.166662.80798-.166663.80131-.161329.78665-.161329.77598-.155996.77065-.155997.76131-.155996.75465-.151996.74531-.150663.73332-.150663.72931-.146663.71865-.145329.70932-.14533.70265-.14133.69731-.14533.69332-.135996.68265-.139997 1.34263-.27066.66132-.135996.65198-.134663.65065-.130664.64132-.130663.63465-.12933.63065-.125331.62399-.130663.61998-.12533.60932-.123997.60932-.119997.59998-.12533.59865-.119997.58799-.119997 1.16664-.238661.57332-.114664 1.13463-.229327 1.11464-.229328.55199-.109331.54799-.114663.54132-.109331.53598-.109331.53199-.10933.53065-.103998.52666-.10933.51465-.103998.52132-.103997 1.02131-.209328.49998-.103997.99998-.197329.49465-.103997.48933-.1.48398-.09866.47999-.09866.47866-.09333.47865-.1.93731-.186662.46399-.09866.46399-.09466.45732-.09333.45865-.088.45333-.09466.44798-.088.44266-.09333.44799-.08933 1.31197-.265327.42799-.088.43199-.08933.42665-.088.84398-.166662.41599-.08933.41732-.08267.82265-.166662.81331-.166663.39999-.07866.40132-.08267.396-.084.39599-.07733.39065-.07867.39066-.08267.39066-.07866.77064-.155996.37999-.07866.37999-.07333.75065-.155996.37466-.072.36932-.07867.37066-.07333.36399-.072.36533-.07867.36399-.07333 1.07864-.218661.35332-.072.35466-.068.69731-.146663.34933-.06666.34399-.07333.34399-.068.34266-.07333 1.01597-.202661.99998-.202662.98398-.203995.32399-.06133.32266-.068.32265-.06267.32266-.068.31733-.06267.31866-.068.31199-.06133.31732-.06266.31333-.06267.31199-.068 1.2293-.249327.30266-.05733.90531-.187995.29733-.05733.29733-.06266.29599-.05733.29199-.06266.29733-.05733.29066-.06266.29199-.05733.28666-.056.28666-.06266.29199-.05733.27999-.05733.28666-.05733 1.12531-.229328.27599-.05733.28133-.05733.27599-.052.27066-.05733.27599-.05733.27066-.052.54266-.114664.27066-.052.27066-.05733.53065-.103998.26666-.05733.25999-.052.26533-.052.25999-.052.26133-.05733.51999-.10533.51065-.103998.26-.052.25066-.052.51065-.103998.24933-.04667.75065-.155996.24399-.04667.25066-.052.24399-.048.49066-.103998.24399-.04667.24-.052.24399-.04667.23999-.04667.24-.052.47865-.09466.23466-.052.24-.04667.70265-.139997.22932-.04667.23466-.048.22933-.04667.23333-.04667.68798-.139996.224-.048.22932-.04667.224-.04666.22399-.04133.67199-.14133.22399-.04133.21866-.04667.224-.04667.21866-.04133.21866-.048.21866-.04133.21333-.04667.21866-.04133.21866-.04667.42666-.084.21466-.04667.42665-.084.21333-.04667.208-.04133.21332-.04133.41733-.084.20799-.04667.62532-.12533.20266-.04133.20933-.04133 1.01464-.207995.204-.03733.20266-.04133.39599-.08267.20266-.04266.19866-.036.19733-.04133" stroke-dasharray=".999975 2.99992"/><path d="m15.959502 128.88747 18.93686-5.4052 14.687632-3.9799 11.9997-3.15592 10.150413-2.6146 8.786447-2.22928 7.755806-1.94262 6.931827-1.72396 6.275843-1.54129 5.72919-1.40663 5.2652-1.2813 4.87988-1.18131 4.54122-1.09464 4.25056-1.01997 3.98923-.953309 3.75991-.901311 3.56258-.843979 3.37591-.801313 3.21325-.761314 3.06259-.723982 2.9266-.691983 2.79726-.655983 2.6866-.635984 2.58394-.603985 2.48393-.578653 2.39594-.561319 2.30661-.53732 2.23461-.519987 2.15595-.50532 2.08928-.485322 2.02528-.473321 1.96929-.453322 1.90528-.442656 1.85462-.431989 1.80263-.417323 1.75462-.405323 1.71329-.390657 1.66662-.385324 1.6253-.37599 1.58262-.363991 1.55196-.359991 1.51063-.347991 1.47997-.338659 1.44796-.333325 1.41596-.322658 1.3853-.318659 1.35997-.311992 1.32797-.307992 1.3013-.295993 1.2813-.291993 1.25063-.286659 1.23464-.281327 1.20797-.275993 1.18264-.27066 1.16663-.265326 1.14531-.265327 1.1253-.255994 1.10398-.249327 1.08797-.25066 1.07331-.243994 1.05197-.239994 1.03597-.234661 1.02131-.234661 1.00531-.227994.98931-.223994.97464-.218661.96264-.218662.94798-.219994.93198-.207995.92264-.207995.90531-.207995.89598-.203994.88531-.197329.87064-.198662.85865-.197328.84931-.193328.83865-.186662.82798-.187996.81731-.186662.80798-.182662.80131-.177329.78665-.182662.77598-.171996.77065-.175995.76131-.171996.75465-.166662.74531-.171996.73332-.166663.72931-.161329.71865-.161329.70932-.161329.70265-.162663.69731-.155996.69332-.155996.68265-.150663 1.34263-.302659.66132-.150663 1.30263-.291993.64132-.14533.63465-.141329.63065-.14533.62399-.139997.61998-.135996.60932-.139997.60932-.135996 1.19863-.27066.58799-.130664 1.16664-.259993.57332-.130663.56798-.129331.56665-.12533 1.11464-.25066.55199-.123997.54799-.119997.54132-.12533.53598-.119997 1.06264-.239994.52666-.114664.51465-.118664.52132-.114664 1.02131-.229327.49998-.109331.49999-.114664.49999-.10933.49465-.109331.48933-.10933.48398-.109331.95865-.218661.47865-.103998.93731-.209328.92798-.207994.91597-.207995.45333-.09866.44798-.1.44266-.09866.44799-.09866 1.31197-.297326.42799-.09333.43199-.09866.42665-.09467.84398-.186662.83331-.187995.41199-.088.41066-.09466.40666-.088.40665-.09333.80131-.177329.79199-.177329.78131-.177329.39066-.08266.38532-.08933.38532-.08267.37999-.08933.37999-.08266 1.12531-.25066.73998-.166663.36399-.07733.36533-.084.36399-.07733.35865-.084.71999-.155996.35332-.08266.35466-.07867.69731-.155996.34933-.07333 1.03064-.234661.67732-.14533.33865-.07866.66665-.14533.33333-.07867.98398-.218661.32399-.06667.96797-.219994.31733-.06667.31866-.07333.31199-.068.31732-.072.62532-.135997.30799-.07333.92131-.202661.60399-.135997.30266-.06133.30132-.068.59466-.135996.29599-.06267.29199-.06667.29733-.06267.29066-.068.29199-.06267.28666-.06267.28666-.068.29199-.06267.27999-.06133.28666-.06267 1.12531-.250661.27599-.06267.28133-.06267.27599-.06133.27066-.05733.27599-.06267.27066-.05733.54266-.12533.54132-.114664.26532-.06267.53199-.114664.25999-.06267.26533-.05733 1.04131-.227994.51065-.114664.26-.05733.25066-.05733.25466-.052.25599-.05733.24933-.05733.25066-.052.49999-.114663.24399-.052.25066-.05733.24399-.052.24533-.05733.48932-.10533.24-.056.24399-.05333.71998-.155996.23866-.05733.23466-.052.24-.052.70265-.155996.22932-.04667.23466-.052.22933-.052.23333-.052.22933-.052.22932-.048.22933-.052.224-.052.22932-.04666.224-.052.22399-.04667.224-.052.22399-.04667.224-.052.22399-.048.21866-.052.224-.04667.21866-.04666.21866-.052.21866-.04666.21333-.04667.21866-.04666.21866-.052 1.2813-.281326.208-.048.21332-.04667.41733-.09333.20799-.04133.62532-.14133.20266-.04667.20933-.04133.40532-.09333.204-.04267.20266-.04667.20266-.04133.204-.04666.20266-.04267.19733-.04666.19866-.04133.20266-.04666.19866-.04133.19733-.048" stroke-dasharray=".999975 2.99992 3.9999 2.99992"/></g></g><text font-family="Helvetica" font-size="9.3331" stroke-width="1.3333" x="160.64552" y="16.371746"><tspan stroke-width="1.3333" x="160.64552" y="16.371746">Trap (Log-Log)</tspan></text><g fill="none" stroke-linecap="round" stroke-linejoin="round" stroke-miterlimit="10"><path d="m260.02 1.5h65.944v25.579h-65.944z" stroke="#000" stroke-width=".99997"/><g stroke-width="4"><path d="m266.74 10.458h13.437" stroke="#00f"/><path d="m266.74 19.422h13.437" stroke="#e82000"/></g></g><text fill="#00f" font-family="Helvetica" font-size="7.4646" stroke-width="1.3333" x="286.90085" y="12.717655"><tspan fill="#00f" stroke-width="1.3333" x="286.90085 289.5657 293.56677 297.56036 301.55396 304.22632 309.54861" y="12.717655">(1+1)EA</tspan></text><text fill="#e82000" font-family="Helvetica" font-size="7.4646" stroke-width="1.3333" x="286.90085" y="21.680973"><tspan stroke-width="1.3333" x="286.90085 289.5657 293.56677 297.56036 301.55396 304.22632 308.21991 313.54221" y="21.680973">(1+1)FEA</tspan></text><g font-size="9.3331"><text font-family="Helvetica" stroke-width="1.3333" transform="rotate(-90)" x="-74.498665" y="26.483175"><tspan stroke-width="1.3333" x="-74.498665" y="26.483175">time (RT) in FEs</tspan></text><text font-family="Helvetica" stroke-width="1.3333" x="46.917561" y="156.46077"><tspan stroke-width="1.3333" x="46.917561" y="156.46077">5</tspan></text><g font-family="Arial" stroke-width=".75"><text x="89.616051" y="156.73875"><tspan font-size="9.3331" stroke-width=".75" x="89.616051" y="156.73875">10</tspan></text><text x="135.61278" y="156.73875"><tspan font-size="9.3331" stroke-width=".75" x="135.61278" y="156.73875">20</tspan></text><text x="195.87851" y="156.73875"><tspan font-size="9.3331" stroke-width=".75" x="195.87851" y="156.73875">50</tspan></text><text x="238.59428" y="156.73875"><tspan font-size="9.3331" stroke-width=".75" x="238.59428" y="156.73875">100</tspan></text><text x="284.58701" y="156.73875"><tspan font-size="9.3331" stroke-width=".75" x="284.58701" y="156.73875">200</tspan></text></g></g><g stroke-width="1.3333"><text font-family="Helvetica" font-size="9.2055" x="291.7774" y="141.76067"><tspan stroke-width="1.3333" x="291.7774" y="141.76067">scale n</tspan></text><g font-size="8.3995"><text font-family="Helvetica" x="130.82498" y="128.05116"><tspan stroke-width="1.3333" x="130.82498" y="128.05116">FFA: n</tspan></text><text font-family="'Nimbus Sans'" transform="translate(-77.031 .29215)" x="233.15559" y="127.759"><tspan stroke-width="1.3333" x="233.15559" y="127.759">∈</tspan></text><text font-family="'Nimbus Sans'" transform="translate(-76.199 10.327)" x="233.15559" y="127.759"><tspan stroke-width="1.3333" x="233.15559" y="127.759">∈</tspan></text><g font-family="Helvetica"><text stroke-width="1.3333" x="164.12071" y="128.05116"><tspan x="164.12071" y="128.05116">[3…333]: 3333 runs</tspan><tspan x="130.82498" y="138.12903">pure: n</tspan></text><text x="165.30856" y="138.12903"><tspan stroke-width="1.3333" x="165.30856" y="138.12903">[3…32]: 71 runs</tspan></text></g></g></g><g font-family="Arial" font-size="8"><text x="300.41986" y="48.71751"><tspan font-size="8" x="300.41986" y="48.71751">n² ln n</tspan></text><text x="313.00522" y="76.410187"><tspan font-size="8" x="313.00522" y="76.410187">n²</tspan></text></g></svg>