<svg height="508pt" viewBox="0 0 750 508" width="750pt" xmlns="http://www.w3.org/2000/svg"><g transform="matrix(1.3333 0 0 -1.3333 -495.23 539.17)"><g fill-rule="evenodd"><g fill="#ff5900"><path d="m801.27 292.04v-26.801c0-4.9613-1.2103-9.6397-3.308-13.8 3.7102-10.046 6.3513-20.46 7.8992-31.058h21.296c-3.2317 25.29-11.967 49.827-25.887 71.659zm-285.29-7.0203-26.451-2.5192 9.59-6.0007c-10.828-21.563-16.772-44.434-18.188-67.279h21.149c1.3382 18.934 6.2034 37.935 15.01 56.05l9.5801-5.9908zm180.65-233.68c-20.727-5.9389-42.743-7.4956-64.588-4.2374-5.3086-4.3196-12.065-6.9225-19.414-6.9225h-30.579c54.103-24.898 116.65-19.899 165.69 11.16z" opacity=".8"/><path d="m534.23 372.6c0 14.82 12.02 26.84 26.84 26.84h209.36c14.82 0 26.84-12.02 26.84-26.84v-107.36c0-14.82-12.02-26.84-26.84-26.84h-209.36c-14.82 0-26.84 12.02-26.84 26.84z" opacity=".8"/><path d="m665.87 189.58c0 14.83 12.02 26.86 26.84 26.86h209.36c14.82 0 26.84-12.03 26.84-26.86v-107.44c0-14.835-12.02-26.861-26.84-26.861h-209.36c-14.82 0-26.84 12.026-26.84 26.861z" opacity=".8"/></g><path d="m376.43 178.42c0 14.83 12.02 26.86 26.84 26.86h209.36c14.82 0 26.84-12.03 26.84-26.86v-107.44c0-14.835-12.02-26.861-26.84-26.861h-209.36c-14.82 0-26.84 12.026-26.84 26.861z" fill="#ff3a00" opacity=".9"/></g><g font-size="27.96"><text font-family="Calibri" transform="scale(1 -1)" x="551.90314" xml:space="preserve" y="-339.40085"><tspan x="551.90314" y="-339.40085">Set </tspan></text><g font-family="Cambria Math" transform="matrix(1 0 0 -1 2.5666 13.651)"><text x="593.33002" y="-325.74948"><tspan font-family="cmmi12" x="593.33002" y="-325.74948">S<tspan baseline-shift="sub" font-family="cmr12" font-size="65%">i</tspan></tspan></text><text x="619.60059" y="-325.74948"><tspan x="619.60059" y="-325.74948">âŠ‚</tspan></text><text x="645.21997" y="-325.74948"><tspan x="645.21997" y="-325.74948">ğ•</tspan></text></g></g><g transform="scale(1 -1)"><g font-family="Calibri"><text font-size="27.96" x="674.72815" xml:space="preserve" y="-339.40085"><tspan x="674.72815 689.46307 697.99084 704.30981 719.04474 733.72375 747.64783 754.13452 768.86945 778.6275" y="-339.40085">of one or </tspan></text><text font-size="27.984" x="554.32513" y="-309.28082"><tspan x="554.32513 576.68439 591.29205 597.72833 607.01904 613.45538 628.00702 634.44336 648.29541" y="-309.28082">multiple interesting</tspan></text><text font-size="27.96" x="511.54868" y="-279.01083"><tspan x="614.38556 625.31793 640.05286 646.48364 661.07874 670.44537 676.87616 691.61108 706.20618">solutions</tspan></text></g><g font-size="26.04"><text font-family="Calibri" x="689.38" xml:space="preserve" y="-183.73947"><tspan x="689.38 705.39459 718.36255 727.50256 733.49176 745.02747 757.99542 763.62006 773.8017 786.66547 795.38885" y="-183.73947">Derive set </tspan></text><g font-family="Cambria Math"><text x="801.12" y="-183.73947"><tspan font-family="cmmi12" x="801.12" y="-183.73947">N<tspan baseline-shift="sub" font-family="cmr12" font-size="65%">i</tspan></tspan></text><text x="833.52002" y="-183.73947"><tspan x="833.52002" y="-183.73947">âŠ‚</tspan></text><text x="860.15997" y="-183.73947"><tspan x="860.15997" y="-183.73947">ğ•</tspan></text></g><g font-family="Calibri"><text x="883.67999" xml:space="preserve" y="-183.73947"><tspan x="883.67999 897.40308 905.34528" y="-183.73947">of </tspan></text><text x="708.34003" xml:space="preserve" y="-155.77946"><tspan x="708.34003 722.01099 734.84869 753.46735 759.19611 769.37775 783.10083 789.09003 802.76105 811.48444 817.47363 831.19672 844.86774 855.04938 860.83026 874.39709 886.19318" y="-155.77946">new solutions by </tspan></text><text x="715.06" xml:space="preserve" y="-127.69947"><tspan x="715.06 727.53314 741.20416 754.87518 760.86438 772.66046 778.64966 792.32068 804.58551 810.34033 820.52197 833.48993 845.96307 854.73859 865.75348 879.4245" y="-127.69947">applying search </tspan></text></g></g><text font-family="Calibri" font-size="26.064" x="732.21997" xml:space="preserve" y="-99.619476"><tspan x="732.21997 745.95575 759.63934 772.54102 781.16821 793.41827 801.94122 815.67694 824.25195 834.44299 840.20312 848.72607 862.46179" y="-99.619476">operators to </tspan></text><text font-family="Calibri" font-size="26.04" x="718.29999" xml:space="preserve" y="-71.395477"><tspan x="718.29999 731.26794 737.25714 750.22504 771.03101 783.9989 797.38348 806.10687 816.28851 821.86108 835.58417 843.52637" y="-71.395477">elements of </tspan></text><text font-family="Cambria Math" font-size="26.04" x="855.23999" y="-71.395477"><tspan font-family="cmmi12" x="855.23999" y="-71.395477">S<tspan baseline-shift="sub" font-family="cmr12" font-size="65%">i</tspan></tspan></text><g font-size="27.96"><text font-family="Calibri" x="395.19308" xml:space="preserve" y="-177.35947"><tspan x="395.19308" y="-177.35947">Select set </tspan></text><text font-family="Cambria Math" x="512.3725" y="-177.35947"><tspan font-family="cmmi12" x="512.3725" y="-177.35947">S<tspan baseline-shift="sub" font-family="cmr12" font-size="65%">i+1</tspan></tspan></text><text font-family="Calibri" x="564.90808" xml:space="preserve" y="-177.35947"><tspan x="564.90808 573.43585 582.66266 597.39758 619.73761" y="-177.35947">from </tspan></text></g><g font-size="27.984"><text font-family="Calibri" x="389.79001" xml:space="preserve" y="-147.11948"><tspan x="389.79001 396.47818 411.22574 417.66208 432.01785 441.39249 447.82883 458.77057 472.5387 481.91333" y="-147.11948">joint set </tspan></text><text font-family="cmmi12" x="488.45001" y="-147.11948"><tspan font-family="cmmi12" x="488.45001" y="-147.11948">P<tspan baseline-shift="sub" font-family="cmr12" font-size="65%">i</tspan></tspan></text><g font-family="Cambria Math"><text x="516.04999" y="-147.11948"><tspan x="516.04999" y="-147.11948">=</tspan></text><text x="544.72998" y="-147.11948"><tspan font-family="cmmi12" x="544.72998" y="-147.11948">S<tspan baseline-shift="sub" font-family="cmr12" font-size="65%">i</tspan></tspan></text><text x="573.53003" y="-147.11948"><tspan x="573.53003" y="-147.11948">âˆª</tspan></text><text x="598.96997" y="-147.11948"><tspan font-family="cmmi12" x="598.96997" y="-147.11948">N<tspan baseline-shift="sub" font-family="cmr12" font-size="65%">i</tspan></tspan></text></g></g><g fill="#b00000"><g font-size="27.96"><text font-family="Calibri" font-weight="bold" x="432.75" xml:space="preserve" y="-116.96947"><tspan x="432.75 447.65268 460.90573 467.22467 482.2392 491.91336 505.72559 514.14154 528.20544 538.13123 548.14093 555.0191 570.03357 583.28662" y="-116.96947">by preferring </tspan></text><text font-family="Calibri" font-weight="bold" x="413.19" xml:space="preserve" y="-86.611473"><tspan x="413.19 424.34604 439.38852 446.26669 461.19733 470.89944 477.77759 492.82007 507.83459 518.99066" y="-86.611473">solutions </tspan></text><g font-family="Cambria Math"><text x="525.28998" y="-86.611473"><tspan fill="#b00000" font-family="cmmi12" x="525.28998" y="-86.611473">x</tspan></text><text x="549.28998" y="-86.611473"><tspan fill="#b00000" x="549.28998" y="-86.611473">âˆˆ</tspan></text><text x="574.48999" y="-86.611473"><tspan fill="#b00000" font-family="cmmi12" x="574.48999" y="-86.611473">P<tspan baseline-shift="sub" fill="#b00000" font-family="cmr12" font-size="65%">i</tspan></tspan></text></g></g><g font-size="27.984"><text font-family="Calibri" font-weight="bold" x="411.75" xml:space="preserve" y="-56.371475"><tspan x="411.75 432.59808 439.48215 449.1926 464.22 470.65631 485.68372 499.45184 508.79852 518.14514 532.22113 542.15546" y="-56.371475">with better </tspan></text><text font-family="cmmi12" x="548.92999" y="-56.371475"><tspan x="548.92999" y="-56.371475">f<tspan fill="#b00000" font-family="cmr12">(</tspan>x<tspan fill="#b00000" font-family="cmr12">)</tspan></tspan></text></g></g></g></g></svg>