<svg height="508pt" viewBox="0 0 750 508" width="750pt" xmlns="http://www.w3.org/2000/svg"><g transform="matrix(1.3333 0 0 -1.3333 -495.23 539.17)"><g fill-rule="evenodd"><path d="m801.27 292.04v-26.801c0-4.9613-1.2103-9.6397-3.308-13.8 3.7103-10.046 6.3513-20.46 7.8992-31.058h21.296c-3.2317 25.29-11.967 49.827-25.887 71.659zm-285.29-7.0203-26.451-2.5192 9.59-6.0007c-38.76-77.19-15.06-171.13 55.67-220.68 59.269-41.519 135.41-40.921 192.95-4.4791h-51.106c-34.97-10.02-73.613-7.6824-108.9 9.4845-75.94 36.942-107.57 128.48-70.64 204.45l9.5801-5.9908z" fill="#ff5900" opacity=".8"/><path d="m534.23 372.6c0 14.82 12.02 26.84 26.84 26.84h209.36c14.82 0 26.84-12.02 26.84-26.84v-107.36c0-14.82-12.02-26.84-26.84-26.84h-209.36c-14.82 0-26.84 12.02-26.84 26.84z" fill="#ff5900" opacity=".8"/><path d="m665.87 189.58c0 14.83 12.02 26.86 26.84 26.86h209.36c14.82 0 26.84-12.03 26.84-26.86v-107.44c0-14.835-12.02-26.861-26.84-26.861h-209.36c-14.82 0-26.84 12.026-26.84 26.861z" fill="#ff3a00" opacity=".9"/></g><g transform="scale(1 -1)"><g font-size="27.96"><text font-family="Calibri" x="575.45001" xml:space="preserve" y="-356.10947"><tspan x="575.45001 590.66022 604.58429 617.75348 624.18427 638.86328 645.18225 665.17365 671.60443 680.97107 695.65002 701.96899 715.47369 721.79266 732.72498 746.56519 755.93182" y="-356.10947">Begin with a set </tspan></text><g font-family="Cambria Math"><text x="566.33002" y="-325.74948"><tspan font-family="cmmi12" x="566.33002" y="-325.74948">S<tspan baseline-shift="sub" font-family="cmr12" font-size="65%">0</tspan></tspan></text><text x="600.77002" y="-325.74948"><tspan x="600.77002" y="-325.74948">âŠ‚</tspan></text><text x="629.46997" y="-325.74948"><tspan x="629.46997" y="-325.74948">ğ•</tspan></text></g><text font-family="Calibri" x="661.15002" xml:space="preserve" y="-325.74948"><tspan x="661.15002 675.88495 684.41272 690.73169 705.46661 720.14563 734.0697 740.5564 755.29132 765.04938" y="-325.74948">of one or </tspan></text></g><text font-family="Calibri" font-size="27.984" x="561.40997" xml:space="preserve" y="-295.62946"><tspan x="561.40997 583.76923 598.37689 604.81317 614.10388 620.54022 635.09186 641.5282 655.38025 662.06842 671.19122 684.59558 699.28717 713.97876 728.72632 751.00159 757.43793 769.97473" y="-295.62946">multiple randomly </tspan></text><text font-family="Calibri" font-size="27.96" x="562.96997" y="-265.35947"><tspan x="562.96997 573.90234 587.29523 609.63525 624.31421 630.66113 644.58527 659.26422 665.80688 676.73926 691.47418 697.90497 712.50006 721.8667 728.29749 743.03241 757.6275" y="-265.35947">sampled solutions</tspan></text><g font-size="26.04"><text font-family="Calibri" x="689.38" xml:space="preserve" y="-183.73947"><tspan x="689.38 705.39459 718.36255 727.50256 733.49176 745.02747 757.99542 763.62006 773.8017 786.66547 795.38885" y="-183.73947">Derive set </tspan></text><g font-family="Cambria Math"><text x="801.12" y="-183.73947"><tspan font-family="cmmi12" x="801.12" y="-183.73947">N<tspan baseline-shift="sub" font-family="cmr12" font-size="65%">0</tspan></tspan></text><text x="833.52002" y="-183.73947"><tspan x="833.52002" y="-183.73947">âŠ‚</tspan></text><text x="860.15997" y="-183.73947"><tspan x="860.15997" y="-183.73947">ğ•</tspan></text></g><g font-family="Calibri"><text x="883.67999" xml:space="preserve" y="-183.73947"><tspan x="883.67999 897.40308 905.34528" y="-183.73947">of </tspan></text><text x="708.34003" xml:space="preserve" y="-155.77946"><tspan x="708.34003 722.01099 734.84869 753.46735 759.19611 769.37775 783.10083 789.09003 802.76105 811.48444 817.47363 831.19672 844.86774 855.04938 860.83026 874.39709 886.19318" y="-155.77946">new solutions by </tspan></text><text x="715.06" xml:space="preserve" y="-127.69947"><tspan x="715.06 727.53314 741.20416 754.87518 760.86438 772.66046 778.64966 792.32068 804.58551 810.34033 820.52197 833.48993 845.96307 854.73859 865.75348 879.4245" y="-127.69947">applying search </tspan></text></g></g><text font-family="Calibri" font-size="26.064" x="732.21997" xml:space="preserve" y="-99.619476"><tspan x="732.21997 745.95575 759.63934 772.54102 781.16821 793.41827 801.94122 815.67694 824.25195 834.44299 840.20312 848.72607 862.46179" y="-99.619476">operators to </tspan></text><g font-size="26.04"><text font-family="Calibri" x="718.29999" xml:space="preserve" y="-71.395477"><tspan x="718.29999 731.26794 737.25714 750.22504 771.03101 783.9989 797.38348 806.10687 816.28851 821.86108 835.58417 843.52637" y="-71.395477">elements of </tspan></text><text font-family="Cambria Math" x="855.23999" y="-71.395477"><tspan font-family="cmmi12" x="855.23999" y="-71.395477">S<tspan baseline-shift="sub" font-family="cmr12" font-size="65%">0</tspan></tspan></text></g></g></g></svg>