<svg height="508pt" viewBox="0 0 750 508" width="750pt" xmlns="http://www.w3.org/2000/svg"><g transform="matrix(1.3333333 0 0 -1.3333333 -495.22665 539.17332)"><path d="m534.23 372.59947c0 14.82 12.02 26.84 26.84 26.84h209.36c14.82 0 26.84-12.02 26.84-26.84v-107.36c0-14.82-12.02-26.84-26.84-26.84h-209.36c-14.82 0-26.84 12.02-26.84 26.84z" fill="#ff5900" fill-rule="evenodd" opacity=".8"/><g transform="scale(1 -1)"><g font-size="27.96"><text font-family="Calibri" x="575.45001" xml:space="preserve" y="-356.10947"><tspan x="575.45001 590.66022 604.58429 617.75348 624.18427 638.86328 645.18225 665.17365 671.60443 680.97107 695.65002 701.96899 715.47369 721.79266 732.72498 746.56519 755.93182" y="-356.10947">Begin with a set </tspan></text><g font-family="Cambria Math"><text x="566.33002" y="-325.74948"><tspan font-family="cmmi12" x="566.33002" y="-325.74948">S<tspan baseline-shift="sub" font-family="cmr12" font-size="65%">0</tspan></tspan></text><text x="600.77002" y="-325.74948"><tspan x="600.77002" y="-325.74948">âŠ‚</tspan></text><text x="629.46997" y="-325.74948"><tspan x="629.46997" y="-325.74948">ğ•</tspan></text></g><text font-family="Calibri" x="661.15002" xml:space="preserve" y="-325.74948"><tspan x="661.15002 675.88495 684.41272 690.73169 705.46661 720.14563 734.0697 740.5564 755.29132 765.04938" y="-325.74948">of one or </tspan></text></g><g font-family="Calibri"><text font-size="27.984" x="561.40997" xml:space="preserve" y="-295.62946"><tspan x="561.40997 583.76923 598.37689 604.81317 614.10388 620.54022 635.09186 641.5282 655.38025 662.06842 671.19122 684.59558 699.28717 713.97876 728.72632 751.00159 757.43793 769.97473" y="-295.62946">multiple randomly </tspan></text><text font-size="27.96" x="562.96997" y="-265.35947"><tspan x="562.96997 573.90234 587.29523 609.63525 624.31421 630.66113 644.58527 659.26422 665.80688 676.73926 691.47418 697.90497 712.50006 721.8667 728.29749 743.03241 757.6275" y="-265.35947">sampled solutions</tspan></text></g></g></g></svg>