<svg height="216pt" viewBox="0 0 387 216" width="387pt" xmlns="http://www.w3.org/2000/svg"><g stroke-width="1.3333"><g stroke-linecap="round" stroke-linejoin="round"><g stroke="#000"><path d="m201.36 185.35h53.751v-53.276h53.753" fill="none" stroke-miterlimit="22.926"/><path d="m308.88 118.15h-107.5" fill="none" stroke-miterlimit="22.926"/><g fill="#f36716" fill-rule="evenodd"><path d="m148.46 23.109h50.123c1.532 0 2.7853 1.2533 2.7853 2.7839v50.123c0 1.532-1.2533 2.7853-2.7853 2.7853h-50.123c-1.5306 0-2.7839-1.2533-2.7839-2.7853v-50.123c0-1.5306 1.2533-2.7839 2.7839-2.7839"/><path d="m148.46 90.307h50.123c1.532 0 2.7853 1.253 2.7853 2.7849v50.122c0 1.5318-1.2533 2.7849-2.7853 2.7849h-50.123c-1.5306 0-2.7839-1.253-2.7839-2.7849v-50.122c0-1.5318 1.2533-2.7849 2.7839-2.7849"/><path d="m148.46 157.51h50.123c1.532 0 2.7853 1.253 2.7853 2.7849v50.123c0 1.5322-1.2533 2.7849-2.7853 2.7849h-50.123c-1.5306 0-2.7839-1.2526-2.7839-2.7849v-50.123c0-1.5318 1.2533-2.7849 2.7839-2.7849"/></g></g><path d="m311.66 90.307h50.123c1.532 0 2.7853 1.253 2.7853 2.7849v50.122c0 1.5318-1.2533 2.7849-2.7853 2.7849h-50.123c-1.5306 0-2.7839-1.253-2.7839-2.7849v-50.122c0-1.5318 1.2533-2.7849 2.7839-2.7849" fill="#f36716" fill-rule="evenodd" stroke="#000006"/><g stroke="#000"><g fill="#a000a0" fill-rule="evenodd"><path d="m142.68 47.96c1.6533 0 2.9946 1.34 2.9946 2.9946 0 1.6533-1.3413 2.9946-2.9946 2.9946-1.6546 0-2.9946-1.3413-2.9946-2.9946 0-1.6546 1.34-2.9946 2.9946-2.9946"/><path d="m142.68 101.24c1.6533 0 2.9946 1.3405 2.9946 2.9946 0 1.6537-1.3413 2.9947-2.9946 2.9947-1.6546 0-2.9946-1.341-2.9946-2.9947 0-1.6541 1.34-2.9946 2.9946-2.9946"/><path d="m142.68 115.16c1.6533 0 2.9946 1.3406 2.9946 2.9947 0 1.6542-1.3413 2.9947-2.9946 2.9947-1.6546 0-2.9946-1.3405-2.9946-2.9947 0-1.6541 1.34-2.9947 2.9946-2.9947"/><path d="m142.68 168.43c1.6533 0 2.9946 1.341 2.9946 2.9951 0 1.6537-1.3413 2.9947-2.9946 2.9947-1.6546 0-2.9946-1.341-2.9946-2.9947 0-1.6541 1.34-2.9951 2.9946-2.9951"/><path d="m142.68 182.36c1.6533 0 2.9946 1.3406 2.9946 2.9947 0 1.6537-1.3413 2.9947-2.9946 2.9947-1.6546 0-2.9946-1.341-2.9946-2.9947 0-1.6541 1.34-2.9947 2.9946-2.9947"/><path d="m142.68 196.28c1.6533 0 2.9946 1.3412 2.9946 2.9947 0 1.6541-1.3413 2.9947-2.9946 2.9947-1.6546 0-2.9946-1.3406-2.9946-2.9947 0-1.6536 1.34-2.9947 2.9946-2.9947"/></g><g fill="none" stroke-miterlimit="22.926"><path d="m139.68 199.27h-71.036v-180.5"/><path d="m139.68 185.35h-91.327v-166.58"/><path d="m139.68 171.43h-131.91v-152.65"/><path d="m145.68 132.08h-77.025"/><path d="m139.68 118.15h-91.327"/><path d="m139.68 104.23h-111.62v-85.458"/><path d="m145.68 37.027h-137.9"/><path d="m139.68 50.96h-111.62"/><path d="m145.68 64.88h-97.316"/></g></g></g><text font-family="cmmi12" font-size="21.333" x=".456263" y="12.63834"><tspan font-family="cmmi12" stroke-width="1.3333" x=".456263" y="12.63834">x</tspan></text><text font-family="cmr7" font-size="9.3333" x="11.558602" y="15.285172"><tspan font-family="cmr7" font-size="9.3333" stroke-width="1.3333" x="11.558602" y="15.285172">1</tspan></text><text font-family="cmmi12" font-size="21.333" x="20.051613" y="12.63834"><tspan font-family="cmmi12" stroke-width="1.3333" x="20.051613" y="12.63834">x</tspan></text><text font-family="cmr7" font-size="9.3333" x="31.153954" y="15.285172"><tspan font-family="cmr7" font-size="9.3333" stroke-width="1.3333" x="31.153954" y="15.285172">2</tspan></text><text font-family="cmmi12" font-size="21.333" x="40.304749" y="12.63834"><tspan font-family="cmmi12" stroke-width="1.3333" x="40.304749" y="12.63834">x</tspan></text><text font-family="cmr7" font-size="9.3333" x="51.407089" y="15.285172"><tspan font-family="cmr7" font-size="9.3333" stroke-width="1.3333" x="51.407089" y="15.285172">3</tspan></text><text font-family="cmmi12" font-size="21.333" x="60.612576" y="12.63834"><tspan font-family="cmmi12" stroke-width="1.3333" x="60.612576" y="12.63834">x</tspan></text><text font-family="cmr7" font-size="9.3333" x="71.714905" y="15.285172"><tspan font-family="cmr7" font-size="9.3333" stroke-width="1.3333" x="71.714905" y="15.285172">4</tspan></text><path d="m201.36 50.96h53.751v53.276h53.753" fill="none" stroke="#000" stroke-linecap="round" stroke-linejoin="round" stroke-miterlimit="22.926"/><path d="m364.56 118.15h20.683" fill="none" stroke="#000" stroke-linecap="round" stroke-linejoin="round" stroke-miterlimit="22.926"/><text fill="#231f20" font-family="Consolas" font-size="26.666" x="329.01727" y="127.07175"><tspan font-family="Consolas" stroke-width="1.3333" x="329.01727" y="127.07175">&amp;</tspan></text><g fill-rule="evenodd" stroke-linecap="round" stroke-linejoin="round"><path d="m7.7769 34.2c1.5656 0 2.8343 1.2693 2.8343 2.8346s-1.2687 2.8346-2.8343 2.8346-2.8349-1.2693-2.8349-2.8346 1.2692-2.8346 2.8349-2.8346"/><path d="m7.7769 34.2c1.5656 0 2.8343 1.2693 2.8343 2.8346s-1.2687 2.8346-2.8343 2.8346-2.8349-1.2693-2.8349-2.8346 1.2692-2.8346 2.8349-2.8346"/><path d="m28.069 48.12c1.5656 0 2.8349 1.2693 2.8349 2.8346s-1.2693 2.8346-2.8349 2.8346-2.8349-1.2693-2.8349-2.8346 1.2693-2.8346 2.8349-2.8346"/><path d="m28.069 48.12c1.5656 0 2.8349 1.2693 2.8349 2.8346s-1.2693 2.8346-2.8349 2.8346-2.8349-1.2693-2.8349-2.8346 1.2693-2.8346 2.8349-2.8346"/><path d="m48.36 62.042c1.5656 0 2.8349 1.2693 2.8349 2.8346s-1.2693 2.8346-2.8349 2.8346-2.8343-1.2693-2.8343-2.8346 1.2688-2.8346 2.8343-2.8346"/><path d="m48.36 62.042c1.5656 0 2.8349 1.2693 2.8349 2.8346s-1.2693 2.8346-2.8349 2.8346-2.8343-1.2693-2.8343-2.8346 1.2688-2.8346 2.8343-2.8346"/><path d="m48.36 115.32c1.5656 0 2.8349 1.2692 2.8349 2.8347 0 1.5657-1.2693 2.8343-2.8349 2.8343s-2.8343-1.2686-2.8343-2.8343c0-1.5656 1.2688-2.8347 2.8343-2.8347"/><path d="m68.653 129.24c1.5656 0 2.8347 1.2688 2.8347 2.8343 0 1.5656-1.2692 2.8349-2.8347 2.8349-1.5657 0-2.8343-1.2693-2.8343-2.8349s1.2686-2.8343 2.8343-2.8343"/><path d="m7.7769 34.2c1.5656 0 2.8343 1.2693 2.8343 2.8346s-1.2687 2.8346-2.8343 2.8346-2.8349-1.2693-2.8349-2.8346 1.2692-2.8346 2.8349-2.8346"/></g></g><g fill="#231f20" stroke-linecap="round" stroke-linejoin="round" stroke-width=".99998"><g transform="translate(-2.0236 -.23521)"><path d="m184.15 175.87-4.6483.93748v2.3964l4.6737-.93748v14.83h-2.6796v2.2128h9.5799v-2.2128h-4.2968v-17.227z"/><g transform="translate(0 -1.9599)"><path d="m176.11 195.31v-2.2128h-16.096v2.2128z"/><path d="m160.02 179.79v2.2909l12.512 3.6073-12.512 3.5663v2.3183l16.691-4.7909v-2.2148z"/></g></g><g transform="translate(-2.0196 -67.434)"><path d="m184.15 175.87-4.6483.93748v2.3964l4.6737-.93748v14.83h-2.6796v2.2128h9.5799v-2.2128h-4.2968v-17.227z"/><g transform="translate(0 -1.9599)"><path d="m176.11 195.31v-2.2128h-16.096v2.2128z"/><path d="m160.02 179.79v2.2909l12.512 3.6073-12.512 3.5663v2.3183l16.691-4.7909v-2.2148z"/></g></g><g transform="translate(-2.0196 -134.63)"><path d="m184.15 175.87-4.6483.93748v2.3964l4.6737-.93748v14.83h-2.6796v2.2128h9.5799v-2.2128h-4.2968v-17.227z"/><g transform="translate(0 -1.9599)"><path d="m176.11 195.31v-2.2128h-16.096v2.2128z"/><path d="m160.02 179.79v2.2909l12.512 3.6073-12.512 3.5663v2.3183l16.691-4.7909v-2.2148z"/></g></g></g><text x="15.678683" y="16.905029"><tspan x="15.678683" y="16.905029"/></text></svg>