<svg height="46.995pt" viewBox="0 0 135.77 46.995" width="135.77pt" xmlns="http://www.w3.org/2000/svg" xmlns:xlink="http://www.w3.org/1999/xlink"><symbol id="a" overflow="visible"><path d="m1.5-2.234375c0-.140625 0-.140625.09375-.234375.28125-.28125.640625-.328125.78125-.328125.453125 0 .84375.421875.84375 1.28125 0 .953125-.484375 1.3125-.921875 1.3125-.09375 0-.421875 0-.71875-.375-.078125-.078125-.078125-.09375-.078125-.21875zm0 1.96875c.296875.234375.59375.3125.875.3125 1.015625 0 1.71875-.625 1.71875-1.5625 0-.90625-.625-1.546875-1.609375-1.546875-.515625 0-.875.203125-1.03125.328125v-.328125l-1.203125.046875v.328125c.421875 0 .46875 0 .46875.25v3.4375h-.46875v.328125c.1875-.015625.609375-.03125.859375-.03125.265625 0 .671875.015625.859375.03125v-.328125h-.46875zm0 0"/></symbol><symbol id="b" overflow="visible"><path d="m1.390625-2.296875v-.765625l-1.140625.046875v.328125c.421875 0 .46875 0 .46875.265625v2.109375h-.46875v.3125c.234375 0 .546875-.015625.859375-.015625.265625 0 .703125 0 .9375.015625v-.3125h-.59375v-1.203125c0-.46875.171875-1.3125.859375-1.3125-.015625.015625-.125.125-.125.328125 0 .265625.203125.40625.40625.40625s.421875-.140625.421875-.40625c0-.375-.375-.5625-.734375-.5625-.46875 0-.734375.34375-.890625.765625zm0 0"/></symbol><symbol id="c" overflow="visible"><path d="m3.6875-1.4844c0-.90625-.625-1.6094-1.7344-1.6094s-1.7344.70312-1.7344 1.6094c0 .84375.59375 1.5312 1.7344 1.5312s1.7344-.6875 1.7344-1.5312zm-1.7344 1.25c-.85938 0-.85938-.73438-.85938-1.3281 0-.29688 0-.65625.10938-.89062.125-.25.42188-.39062.75-.39062.28125 0 .57812.10938.71875.34375.15625.23438.15625.60938.15625.9375 0 .59375 0 1.3281-.875 1.3281z"/></symbol><symbol id="d" overflow="visible"><path d="m2.453125-2.765625c-.125.109375-.140625.25-.140625.3125 0 .296875.25.421875.421875.421875.21875 0 .4375-.140625.4375-.421875 0-.59375-.796875-.640625-1.1875-.640625-1.21875 0-1.71875.796875-1.71875 1.578125 0 .90625.640625 1.5625 1.6875 1.5625 1.09375 0 1.296875-.796875 1.296875-.84375 0-.09375-.09375-.09375-.15625-.09375-.125 0-.125.015625-.171875.09375-.171875.4375-.5.5625-.84375.5625-.953125 0-.953125-1-.953125-1.3125 0-.375 0-1.265625.890625-1.265625.234375 0 .34375.015625.4375.046875zm0 0"/></symbol><symbol id="e" overflow="visible"><path d="m3.140625-1.484375c.15625 0 .21875 0 .21875-.1875 0-.203125-.03125-.703125-.375-1.046875-.25-.25-.609375-.375-1.078125-.375-1.09375 0-1.6875.703125-1.6875 1.5625 0 .90625.6875 1.578125 1.78125 1.578125 1.078125 0 1.359375-.734375 1.359375-.84375 0-.125-.125-.125-.15625-.125-.109375 0-.125.03125-.171875.140625-.140625.328125-.53125.546875-.96875.546875-.96875 0-.96875-.90625-.96875-1.25zm-2.046875-.21875c.015625-.265625.015625-.5625.15625-.78125.1875-.28125.453125-.359375.65625-.359375.796875 0 .8125.890625.8125 1.140625zm0 0"/></symbol><symbol id="f" overflow="visible"><path d="m2.84375-.296875v.34375l1.25-.046875v-.3125c-.421875 0-.46875 0-.46875-.265625v-4.15625l-1.203125.0625v.3125c.421875 0 .46875 0 .46875.265625v1.328125c-.34375-.265625-.703125-.296875-.921875-.296875-1 0-1.703125.59375-1.703125 1.5625 0 .890625.625 1.546875 1.625 1.546875.421875 0 .75-.171875.953125-.34375zm0-2.109375v1.703125c-.078125.125-.359375.5-.875.5-.84375 0-.84375-.828125-.84375-1.296875 0-.328125 0-.703125.1875-.96875.1875-.28125.515625-.359375.71875-.359375.390625 0 .671875.21875.8125.421875zm0 0"/></symbol><symbol id="g" overflow="visible"><path d="m2.984375-.484375v.53125l1.203125-.046875v-.3125c-.421875 0-.46875 0-.46875-.265625v-2.484375l-1.25.046875v.328125c.421875 0 .46875 0 .46875.265625v1.296875c0 .5625-.34375.921875-.84375.921875-.515625 0-.546875-.171875-.546875-.546875v-2.3125l-1.234375.046875v.328125c.421875 0 .46875 0 .46875.265625v1.578125c0 .734375.546875.890625 1.21875.890625.1875 0 .671875 0 .984375-.53125zm0 0"/></symbol><symbol id="h" overflow="visible"><path d="m2.25 1.640625c0-.03125 0-.046875-.109375-.15625-.859375-.859375-1.078125-2.140625-1.078125-3.1875 0-1.1875.265625-2.375 1.109375-3.21875.078125-.078125.078125-.09375.078125-.125 0-.046875-.015625-.0625-.0625-.0625-.0625 0-.6875.46875-1.078125 1.328125-.359375.75-.4375 1.5-.4375 2.078125 0 .53125.078125 1.359375.453125 2.125.40625.84375 1 1.28125 1.0625 1.28125.046875 0 .0625-.015625.0625-.0625zm0 0"/></symbol><symbol id="i" overflow="visible"><path d="m2.78125-1.5625h1.90625c.09375 0 .21875 0 .21875-.140625s-.125-.140625-.21875-.140625h-1.90625v-1.90625c0-.09375 0-.21875-.125-.21875-.140625 0-.140625.125-.140625.21875v1.90625h-1.90625c-.09375 0-.234375 0-.234375.140625s.140625.140625.234375.140625h1.90625v1.90625c0 .09375 0 .21875.140625.21875.125 0 .125-.125.125-.21875zm0 0"/></symbol><symbol id="j" overflow="visible"><path d="m1.96875-1.703125c0-.53125-.078125-1.359375-.453125-2.125-.40625-.84375-.984375-1.28125-1.0625-1.28125-.03125 0-.0625.03125-.0625.0625s0 .046875.125.15625c.671875.6875 1.0625 1.765625 1.0625 3.1875 0 1.171875-.25 2.359375-1.09375 3.21875-.09375.078125-.09375.09375-.09375.125s.03125.0625.0625.0625c.078125 0 .6875-.46875 1.09375-1.328125.34375-.75.421875-1.5.421875-2.078125zm0 0"/></symbol><symbol id="k" overflow="visible"><path d="m1.3125-2.578125c0-.1875-.171875-.359375-.359375-.359375-.203125 0-.375.171875-.375.359375 0 .203125.171875.359375.375.359375.1875 0 .359375-.15625.359375-.359375zm0 2.21875c0-.203125-.171875-.359375-.359375-.359375-.203125 0-.375.15625-.375.359375s.171875.359375.375.359375c.1875 0 .359375-.15625.359375-.359375zm0 0"/></symbol><symbol id="l" overflow="visible"><path d="m2.03125-4.625h-.125c-.40625.421875-.96875.4375-1.296875.453125v.390625c.21875 0 .546875-.015625.890625-.15625v3.546875h-.859375v.390625h2.25v-.390625h-.859375zm0 0"/></symbol><symbol id="m" overflow="visible"><path d="m3.5-2.2344v-.42188h-2.25v-1.6094h2.4219v-.4375h-3.0312v4.7031h3.1406v-.48438h-2.5313v-1.75z"/></symbol><symbol id="n" overflow="visible"><path d="m2.5625-4.7344h-.59375l-1.7812 4.7344h.5l.53125-1.3906h1.9844l.51562 1.3906h.625zm.48438 2.9688h-1.6875l.45312-1.2344c.14062-.40625.34375-.98438.39062-1.2344h.015625c.015625.09375.0625.26562.21875.71875z"/></symbol><symbol id="o" overflow="visible"><path d="m2.5-2.71875h.59375c.125 0 .203125 0 .203125-.140625 0-.078125-.078125-.078125-.1875-.078125h-.5625l.140625-.78125c.03125-.140625.125-.625.15625-.703125.0625-.125.1875-.234375.328125-.234375.015625 0 .203125 0 .328125.125-.296875.03125-.359375.265625-.359375.375 0 .15625.109375.234375.25.234375.171875 0 .375-.15625.375-.40625 0-.3125-.3125-.46875-.59375-.46875-.234375 0-.671875.109375-.875.796875-.03125.140625-.0625.203125-.21875 1.0625h-.46875c-.125 0-.203125 0-.203125.125 0 .09375.0625.09375.1875.09375h.453125l-.515625 2.6875c-.125.65625-.234375 1.28125-.59375 1.28125-.03125 0-.1875 0-.328125-.125.3125-.015625.375-.265625.375-.375 0-.15625-.125-.234375-.25-.234375-.171875 0-.375.15625-.375.40625 0 .3125.296875.46875.578125.46875.375 0 .65625-.390625.765625-.65625.21875-.421875.375-1.25.390625-1.296875zm0 0"/></symbol><symbol id="p" overflow="visible"><path d="m3.140625-4.6875c-.125 0-.21875 0-.21875.125 0 .078125.0625.109375.125.109375.234375.03125.234375.3125.234375.328125 0 .203125-.078125.296875-.265625.546875-.125.171875-.28125.375-.390625.5-.671875-1.03125-.703125-1.15625-.75-1.296875.109375-.0625.25-.078125.328125-.078125.046875 0 .171875 0 .171875-.109375 0-.125-.109375-.125-.234375-.125h-1.75c-.125 0-.234375 0-.234375.125 0 0 0 .09375.109375.109375.203125.03125.234375.0625.34375.21875.390625.484375 1.359375 1.953125 1.5 2.171875l-.734375.84375c-.515625.5625-.828125.921875-1.09375.984375-.078125.015625-.15625.015625-.15625.109375 0 .125.109375.125.234375.125h1.171875c.125 0 .234375 0 .234375-.125 0-.09375-.109375-.109375-.15625-.109375-.25-.046875-.25-.34375-.25-.34375 0-.1875.109375-.3125.140625-.359375.25-.296875.515625-.59375.78125-.890625.75 1.15625.8125 1.328125.859375 1.5-.109375.078125-.28125.09375-.421875.09375-.0625 0-.171875 0-.171875.109375 0 .125.109375.125.21875.125h1.828125c.125 0 .234375 0 .234375-.125 0-.0625-.0625-.09375-.109375-.109375-.125-.03125-.15625-.046875-.171875-.0625-.09375-.09375-.53125-.71875-.8125-1.140625l-.9375-1.375c.015625-.015625.09375-.109375.1875-.234375l.328125-.453125c.34375-.453125.703125-.90625 1.265625-.953125.0625 0 .15625-.015625.15625-.109375 0-.125-.09375-.125-.21875-.125zm.75.234375c-.125.09375-.234375.203125-.359375.328125 0-.109375-.03125-.234375-.09375-.328125zm-2.78125 3.875c0 .015625.015625.078125.015625.09375.03125.140625.0625.21875.09375.25h-.453125zm.515625-3.875c0 .140625 0 .234375.421875.921875.25.390625 1.75 2.671875 2.234375 3.296875h-.90625c.015625-.03125.015625-.046875.015625-.078125 0-.109375-.078125-.296875-.34375-.75-.28125-.453125-1.75-2.6875-2.296875-3.390625zm0 0"/></symbol><symbol id="q" overflow="visible"><path d="m1.828125-2.15625h.25l1.03125 1.59375c.0625.109375.234375.375.3125.484375.046875.078125.0625.078125.21875.078125h.9375c.125 0 .234375 0 .234375-.125 0-.046875-.046875-.09375-.109375-.109375-.25-.0625-.578125-.515625-.75-.734375-.046875-.0625-.390625-.515625-.84375-1.25.609375-.109375 1.203125-.375 1.203125-1.1875 0-.953125-1.015625-1.28125-1.828125-1.28125h-2.140625c-.125 0-.234375 0-.234375.125 0 .109375.125.109375.1875.109375.390625 0 .421875.046875.421875.390625v3.4375c0 .34375-.03125.390625-.421875.390625-.0625 0-.1875 0-.1875.109375 0 .125.109375.125.234375.125h1.875c.125 0 .21875 0 .21875-.125 0-.109375-.109375-.109375-.1875-.109375-.390625 0-.421875-.0625-.421875-.390625zm1.328125-.328125c.1875-.25.203125-.609375.203125-.921875 0-.328125-.03125-.6875-.25-.96875.28125.0625.953125.28125.953125.96875 0 .4375-.203125.796875-.90625.921875zm-1.328125-1.59375c0-.140625 0-.375.4375-.375.578125 0 .859375.25.859375 1.046875 0 .890625-.203125 1.015625-1.296875 1.015625zm-.921875 3.84375c.046875-.125.046875-.3125.046875-.375v-3.46875c0-.0625 0-.25-.046875-.375h.78125c-.09375.109375-.09375.25-.09375.359375v3.484375c0 .0625 0 .25.0625.375zm1.453125-1.921875h.125c.109375 0 .265625-.015625.359375-.03125.109375.15625.84375 1.375 1.40625 1.953125h-.65625zm0 0"/></symbol><symbol id="r" overflow="visible"><path d="m.640625-1.5625c.046875 0 .203125 0 .203125-.140625s-.15625-.140625-.203125-.140625v-.890625c0-.109375 0-.234375-.125-.234375-.140625 0-.140625.125-.140625.234375v2.0625c0 .109375 0 .234375.140625.234375.125 0 .125-.125.125-.234375zm0 0"/></symbol><symbol id="s" overflow="visible"><path d="m5.6875-1.5625c-.375.28125-.5625.5625-.625.65625-.296875.46875-.359375.890625-.359375.90625 0 .078125.09375.078125.140625.078125.109375 0 .125-.015625.15625-.140625.15625-.671875.546875-1.234375 1.328125-1.546875.078125-.03125.09375-.046875.09375-.09375s-.03125-.0625-.046875-.078125c-.3125-.109375-1.125-.453125-1.390625-1.59375-.015625-.078125-.03125-.109375-.140625-.109375-.046875 0-.140625 0-.140625.078125 0 .015625.0625.453125.359375.90625.125.203125.328125.4375.625.65625h-5.0625c-.125 0-.25 0-.25.140625s.125.140625.25.140625zm0 0"/></symbol><g transform="translate(-53.058 -80.685)"><use height="100%" width="100%" x="53.8078" xlink:href="#a" y="86.793999"/><use height="100%" width="100%" x="58.162804" xlink:href="#b" y="86.793999"/><use height="100%" width="100%" x="61.391056" xlink:href="#c" y="86.793999"/><use height="100%" width="100%" x="65.528503" xlink:href="#d" y="86.793999"/><use height="100%" width="100%" x="69.012367" xlink:href="#e" y="86.793999"/><use height="100%" width="100%" x="72.605301" xlink:href="#f" y="86.793999"/><use height="100%" width="100%" x="76.960304" xlink:href="#g" y="86.793999"/><use height="100%" width="100%" x="81.315308" xlink:href="#b" y="86.793999"/><use height="100%" width="100%" x="84.543564" xlink:href="#e" y="86.793999"/><use height="100%" width="100%" x="90.4086" xlink:href="#h" y="86.793999"/><use height="100%" width="100%" x="93.05899" xlink:href="#l" y="86.793999"/><use height="100%" width="100%" x="97.981651" xlink:href="#i" y="86.793999"/><use height="100%" width="100%" x="104.79845" xlink:href="#l" y="86.793999"/><use height="100%" width="100%" x="108.20665" xlink:href="#j" y="86.793999"/><use height="100%" width="100%" x="113.43243" xlink:href="#m" y="86.793999"/><use height="100%" width="100%" x="117.5032" xlink:href="#n" y="86.793999"/><use height="100%" width="100%" x="122.04805" xlink:href="#h" y="86.793999"/><use height="100%" width="100%" x="124.69844" xlink:href="#o" y="86.793999"/><use height="100%" width="100%" x="130.66328" xlink:href="#k" y="86.793999"/><use height="100%" width="100%" x="134.44962" xlink:href="#p" y="86.793999"/><use height="100%" width="100%" x="141.28477" xlink:href="#r" y="86.793999"/><use height="100%" width="100%" x="141.28477" xlink:href="#s" y="86.793999"/><use height="100%" width="100%" x="149.99454" xlink:href="#q" y="86.793999"/><use height="100%" width="100%" x="154.93594" xlink:href="#j" y="86.793999"/></g></svg>