<svg height="448.82pt" viewBox="0 0 1348.1 598.43" width="1011pt" xmlns="http://www.w3.org/2000/svg"><path d="m908 1.9998h438.06v594.43h-438.06z" fill="#fbe5d6" stroke="#b20000" stroke-linecap="round" stroke-linejoin="round" stroke-width="1.333"/><g font-size="12"><g font-family="Consolas" font-weight="bold" stroke-width="1.3333"><text x="919.31" y="23.327999"><tspan stroke-width="1.3333" x="919.31 925.87384 932.43768 939.00153 945.56537 952.12915 958.83704 965.40082 971.96466 978.5285 985.23633 991.80017 998.36401 1004.9279 1011.6357 1018.1995 1024.7634 1031.3271 1038.035 1044.5989 1051.1627 1057.7266 1064.2904 1070.9982 1077.7061" y="23.327999">version.matplotlib: 3.7.1</tspan></text><text x="919.31" y="38.075001"><tspan stroke-width="1.3333" x="919.31 925.87384 932.43768 939.00153 945.56537 952.12915 958.83704 965.40082 971.96466 978.5285 985.23633 991.80017 998.36401 1004.9279 1011.6357 1018.1995 1024.7634 1031.3271 1038.035 1044.5989 1051.1627 1057.7266 1064.2904" y="38.075001">version.moptipy: 0.9.76</tspan></text><text x="919.31" y="52.634998"><tspan stroke-width="1.3333" x="919.31 925.87384 932.43768 939.00153 945.56537 952.12915 958.83704 965.40082 971.96466 978.5285 985.23633 991.80017 998.36401 1004.9279 1011.6357 1018.1995 1024.7634 1031.3271 1038.035 1044.5989 1051.1627" y="52.634998">version.numba: 0.57.0</tspan></text><text x="919.31" y="67.355003"><tspan stroke-width="1.3333" x="919.31 925.87384 932.43768 939.00153 945.56537 952.12915 958.83704 965.40082 971.96466 978.5285 985.23633 991.80017 998.36401 1004.9279 1011.6357 1018.1995 1024.7634 1031.3271 1038.035 1044.5989 1051.1627" y="67.355003">version.numpy: 1.24.3</tspan></text><text x="919.31" y="82.074997"><tspan stroke-width="1.3333" x="919.31 925.87384 932.43768 939.00153 945.56537 952.12915 958.83704 965.40082 971.96466 978.5285 985.23633 991.80017 998.36401 1004.9279 1011.6357 1018.1995 1024.7634 1031.3271 1038.035 1044.5989 1051.1627 1057.7266 1064.2904" y="82.074997">version.packaging: 21.3</tspan></text><text x="919.31" y="96.635002"><tspan stroke-width="1.3333" x="919.31 925.87384 932.43768 939.00153 945.56537 952.12915 958.83704 965.40082 971.96466 978.5285 985.23633 991.80017 998.36401 1004.9279 1011.6357 1018.1995 1024.7634 1031.3271 1038.035" y="96.635002">version.pdfo: 1.3.1</tspan></text><text x="919.31" y="111.35"><tspan stroke-width="1.3333" x="919.31 925.87384 932.43768 939.00153 945.56537 952.12915 958.83704 965.40082 971.96466 978.5285 985.23633 991.80017 998.36401 1004.9279 1011.6357 1018.1995 1024.7634 1031.3271 1038.035 1044.5989 1051.1627" y="111.35">version.psutil: 5.9.5</tspan></text><text x="919.31" y="126.07"><tspan stroke-width="1.3333" x="919.31 925.87384 932.43768 939.00153 945.56537 952.12915 958.83704 965.40082 971.96466 978.5285 985.23633 991.80017 998.36401 1004.9279 1011.6357 1018.1995 1024.7634 1031.3271 1038.035 1044.5989 1051.1627 1057.7266 1064.2904 1070.9982" y="126.07">version.pyparsing: 3.0.9</tspan></text><text x="919.31" y="140.63"><tspan stroke-width="1.3333" x="919.31 925.87384 932.43768 939.00153 945.56537 952.12915 958.83704 965.40082 971.96466 978.5285 985.23633 991.80017 998.36401 1004.9279 1011.6357 1018.1995 1024.7634 1031.3271 1038.035 1044.5989 1051.1627 1057.7266 1064.2904 1070.9982 1077.7061 1084.2699 1090.8337 1097.3976 1103.9614" y="140.63">version.pythondateutil: 2.8.2</tspan></text><text x="919.31" y="155.39"><tspan stroke-width="1.3333" x="919.31 925.87384 932.43768 939.00153 945.56537 952.12915 958.83704 965.40082 971.96466 978.5285 985.23633 991.80017 998.36401 1004.9279 1011.6357 1018.1995 1024.7634 1031.3271 1038.035 1044.5989 1051.1627 1057.7266 1064.2904 1070.9982 1077.7061 1084.2699" y="155.39">version.scikitlearn: 1.2.2</tspan></text><text x="919.31" y="170.11"><tspan stroke-width="1.3333" x="919.31 925.87384 932.43768 939.00153 945.56537 952.12915 958.83704 965.40082 971.96466 978.5285 985.23633 991.80017 998.36401 1004.9279 1011.6357 1018.1995 1024.7634 1031.3271 1038.035 1044.5989 1051.1627" y="170.11">version.scipy: 1.10.1</tspan></text><text x="919.31" y="184.67"><tspan stroke-width="1.3333" x="919.31 925.87384 932.43768 939.00153 945.56537 952.12915 958.83704 965.40082 971.96466 978.5285 985.23633 991.80017 998.36401 1004.9279 1011.6357 1018.1995 1024.7634 1031.3271 1038.035" y="184.67">version.six: 1.16.0</tspan></text><text x="919.31" y="199.39"><tspan stroke-width="1.3333" x="919.31 925.87384 932.43768 939.00153 945.56537 952.12915 958.83704 965.40082 971.96466 978.5285 985.23633 991.80017 998.36401 1004.9279 1011.6357 1018.1995 1024.7634 1031.3271 1038.035 1044.5989 1051.1627 1057.7266 1064.2904 1070.9982 1077.7061 1084.2699 1090.8337 1097.3976" y="199.39">version.threadpoolctl: 3.1.0</tspan></text><text x="919.31" y="214.11"><tspan stroke-width="1.3333" x="919.31 925.87384 932.43768 939.00153 945.56537 952.12915 958.83704 965.40082 971.96466 978.5285 985.23633 991.80017 998.36401 1004.9279 1011.6357 1018.1995 1024.7634 1031.3271 1038.035 1044.5989 1051.1627 1057.7266 1064.2904 1070.9982" y="214.11">hardware.machine: x86_64</tspan></text><text x="919.31" y="228.67"><tspan stroke-width="1.3333" x="919.31 925.87384 932.43768 939.00153 945.56537 952.12915 958.83704 965.40082 971.96466 978.5285 985.23633 991.80017 998.36401 1004.9279 1011.6357 1018.1995 1024.7634 1031.3271 1038.035 1044.5989 1051.1627 1057.7266 1064.2904 1070.9982 1077.7061" y="228.67">hardware.nPhysicalCpus: 8</tspan></text><text x="919.31" y="243.39"><tspan stroke-width="1.3333" x="919.31 925.87384 932.43768 939.00153 945.56537 952.12915 958.83704 965.40082 971.96466 978.5285 985.23633 991.80017 998.36401 1004.9279 1011.6357 1018.1995 1024.7634 1031.3271 1038.035 1044.5989 1051.1627 1057.7266 1064.2904 1070.9982 1077.7061" y="243.39">hardware.nLogicalCpus: 16</tspan></text><text x="919.31" y="258.10999"><tspan stroke-width="1.3333" x="919.31 925.86981 932.42969 938.9895" y="258.10999">hard</tspan></text><text x="945.54999" y="258.10999"><tspan stroke-width="1.3333" x="945.54999 952.11383 958.82166 965.3855 971.94934 978.51318 985.22101 991.78485 998.34869 1004.9125 1011.6204 1018.1842 1024.748 1031.3119 1038.0197 1044.5835 1051.1473 1057.7112 1064.275 1070.9829 1077.6907 1084.2545 1090.8184 1097.3822 1103.946 1110.5099 1117.2177 1123.7815 1130.3453 1136.9092 1143.6171 1150.1809 1156.7448 1163.3086" y="258.10999">ware.cpuMhz: (2200MHz..3700MHz)*16</tspan></text><text x="919.31" y="272.67001"><tspan stroke-width="1.3333" x="919.31 925.87384 932.43768 939.00153 945.56537 952.12915 958.83704 965.40082 971.96466 978.5285 985.23633 991.80017 998.36401 1004.9279 1011.6357 1018.1995 1024.7634 1031.3271 1038.035 1044.5989 1051.1627 1057.7266 1064.2904 1070.9982 1077.7061 1084.2699" y="272.67001">hardware.byteOrder: little</tspan></text><text x="919.31" y="287.42001"><tspan stroke-width="1.3333" x="919.31 925.87384 932.43768 939.00153 945.56537 952.12915 958.83704 965.40082 971.96466 978.5285 985.23633 991.80017 998.36401 1004.9279 1011.6357 1018.1995 1024.7634 1031.3271 1038.035 1044.5989 1051.1627 1057.7266 1064.2904 1070.9982 1077.7061 1084.2699 1090.8337 1097.3976 1103.9614 1110.5253 1117.233 1123.7969" y="287.42001">hardware.cpu: AMD Ryzen 7 2700X</tspan></text><text x="1130.4" y="287.42001"><tspan stroke-width="1.3333" x="1130.4 1136.9639 1143.6716 1150.2355 1156.7993" y="287.42001">Eight</tspan></text><text x="1163.3" y="287.42001"><tspan stroke-width="1.3333" x="1163.3" y="287.42001">-</tspan></text><text x="1170.1" y="287.42001"><tspan stroke-width="1.3333" x="1170.1 1176.6638 1183.2277 1189.7915 1196.4994 1203.0632 1209.627 1216.1908 1222.7546 1229.4625 1236.1704 1242.7341 1249.298 1255.8618" y="287.42001">Core Processor</tspan></text><text x="919.31" y="302.14001"><tspan stroke-width="1.3333" x="919.31 925.87384 932.43768 939.00153 945.56537 952.12915 958.83704 965.40082 971.96466 978.5285 985.23633 991.80017 998.36401 1004.9279 1011.6357 1018.1995 1024.7634 1031.3271 1038.035 1044.5989 1051.1627 1057.7266 1064.2904 1070.9982 1077.7061 1084.2699 1090.8337 1097.3976 1103.9614" y="302.14001">hardware.memSize: 33595326464</tspan></text><text x="919.31" y="316.70001"><tspan stroke-width="1.3333" x="919.31 925.87384 932.43768 939.00153 945.56537 952.12915 958.83704 965.40082 971.96466 978.5285 985.23633 991.80017 998.36401 1004.9279 1011.6357 1018.1995 1024.7634 1031.3271 1038.035 1044.5989 1051.1627 1057.7266 1064.2904 1070.9982 1077.7061 1084.2699 1090.8337 1097.3976 1103.9614 1110.5253 1117.233 1123.7969 1130.3607 1136.9246 1143.6324 1150.1963 1156.76" y="316.70001">python.version: 3.10.6 (main, May 29</tspan></text><text x="1163.3" y="316.70001"><tspan stroke-width="1.3333" x="1163.3" y="316.70001">2</tspan></text><text x="1170.1" y="316.70001"><tspan stroke-width="1.3333" x="1170.1 1176.6638 1183.2277 1189.7915 1196.4994 1203.0632 1209.627 1216.1908 1222.7546 1229.4625 1236.1704 1242.7341 1249.298 1255.8618" y="316.70001">023, 11:10:38)</tspan></text></g><text fill="#f00" font-family="'Arial Unicode MS'" stroke="#f00" stroke-miterlimit="10" stroke-width=".34284" x="1265.8763" y="316.7113"><tspan stroke-width=".34284" x="1265.8763" y="316.7113">↷</tspan></text><g font-family="Consolas" font-weight="bold" stroke-width="1.3333"><text x="945.54999" y="331.42001"><tspan stroke-width="1.3333" x="945.54999 952.11383 958.82166 965.3855 971.94934 978.51318 985.22101 991.78485 998.34869 1004.9125 1011.6204 1018.1842" y="331.42001">[GCC 11.3.0]</tspan></text><text x="919.31" y="346.14001"><tspan stroke-width="1.3333" x="919.31 925.87384 932.43768 939.00153 945.56537 952.12915 958.83704 965.40082 971.96466 978.5285 985.23633 991.80017 998.36401 1004.9279 1011.6357 1018.1995 1024.7634 1031.3271 1038.035 1044.5989 1051.1627 1057.7266 1064.2904 1070.9982 1077.7061 1084.2699 1090.8337 1097.3976 1103.9614 1110.5253" y="346.14001">python.implementation: CPython</tspan></text><text x="919.31" y="360.70001"><tspan stroke-width="1.3333" x="919.31 925.87384 932.43768 939.00153 945.56537 952.12915 958.83704 965.40082 971.96466 978.5285 985.23633 991.80017 998.36401 1004.9279" y="360.70001">os.name: Linux</tspan></text><text x="919.31" y="375.42001"><tspan stroke-width="1.3333" x="919.31 925.87384 932.43768 939.00153 945.56537 952.12915 958.83704 965.40082 971.96466 978.5285 985.23633 991.80017 998.36401 1004.9279 1011.6357 1018.1995 1024.7634 1031.3271" y="375.42001">os.release: 5.19.0</tspan></text><text x="1038.1" y="375.42001"><tspan stroke-width="1.3333" x="1038.1" y="375.42001">-</tspan></text><text x="1044.6" y="375.42001"><tspan stroke-width="1.3333" x="1044.6 1051.1598" y="375.42001">45</tspan></text><text x="1057.7" y="375.42001"><tspan stroke-width="1.3333" x="1057.7" y="375.42001">-</tspan></text><text x="1064.3" y="375.42001"><tspan stroke-width="1.3333" x="1064.3 1071.0078 1077.7157 1084.2795 1090.8434 1097.4072 1103.9709" y="375.42001">generic</tspan></text><text x="919.31" y="390.14001"><tspan stroke-width="1.3333" x="919.31 925.87384 932.43768 939.00153 945.56537 952.12915 958.83704 965.40082 971.96466 978.5285 985.23633 991.80017 998.36401 1004.9279 1011.6357 1018.1995 1024.7634 1031.3271 1038.035 1044.5989 1051.1627 1057.7266" y="390.14001">os.version: 46~22.04.1</tspan></text><text x="1064.3" y="390.14001"><tspan stroke-width="1.3333" x="1064.3" y="390.14001">-</tspan></text><text x="1071" y="390.14001"><tspan stroke-width="1.3333" x="1071 1077.7079 1084.2717 1090.8354 1097.3993 1103.9631 1110.527 1117.2349 1123.7987 1130.3625 1136.9264 1143.6342 1150.198 1156.7618 1163.3257 1170.0336 1176.5974 1183.1613 1189.725 1196.4329 1202.9967 1209.5605 1216.1244 1222.6882 1229.396 1236.1039 1242.6677 1249.2316 1255.7954 1262.3593 1268.9231 1275.6309 1282.1947 1288.7585 1295.3224 1302.0303 1308.5941" y="390.14001">Ubuntu SMP PREEMPT_DYNAMIC Wed Jun 7</tspan></text><text x="919.31" y="404.70001"><tspan stroke-width="1.3333" x="919.31 925.87384 932.43768 939.00153 945.56537 952.12915 958.83704 965.40082 971.96466 978.5285 985.23633 991.80017 998.36401 1004.9279 1011.6357" y="404.70001">15:06:04 UTC 20</tspan></text><text fill="#00f" x="919.31" y="419.45999"><tspan stroke-width="1.3333" x="919.31 925.87384 932.43768 939.00153 945.56537 952.12915 958.83704 965.40082 971.96466 978.5285 985.23633 991.80017" y="419.45999">END_SYS_INFO</tspan></text><text fill="#00f" x="919.31" y="436.89999"><tspan stroke-width="1.3333" x="919.31 925.87384 932.43768 939.00153 945.56537 952.12915 958.83704 965.40082 971.96466 978.5285 985.23633 991.80017 998.36401 1004.9279" y="436.89999">BEGIN_RESULT_X</tspan></text><text x="919.31" y="451.45999"><tspan stroke-width="1.3333" x="919.31 925.87384 932.43768 939.00153 945.56537 952.12915 958.83704 965.40082 971.96466 978.5285 985.23633 991.80017 998.36401 1004.9279 1011.6357 1018.1995 1024.7634 1031.3271 1038.035 1044.5989 1051.1627 1057.7266 1064.2904 1070.9982 1077.7061 1084.2699 1090.8337 1097.3976 1103.9614 1110.5253 1117.233 1123.7969 1130.3607 1136.9246 1143.6324 1150.1963 1156.76 1163.3239 1170.0317" y="451.45999">2;1;3;1;0;0;2;0;1;2;3;1;0;2;1;3;0;3;2;3</tspan></text><text fill="#00f" x="919.31" y="466.17999"><tspan stroke-width="1.3333" x="919.31 925.87384 932.43768 939.00153 945.56537 952.12915 958.83704 965.40082 971.96466 978.5285 985.23633 991.80017" y="466.17999">END_RESULT_X</tspan></text><text fill="#00f" x="919.31" y="483.45999"><tspan stroke-width="1.3333" x="919.31 925.87384 932.43768 939.00153 945.56537 952.12915 958.83704 965.40082 971.96466 978.5285 985.23633 991.80017 998.36401 1004.9279" y="483.45999">BEGIN_RESULT_Y</tspan></text><text x="919.31" y="498.17999"><tspan stroke-width="1.3333" x="919.31 925.87384 932.43768 939.00153 945.56537 952.12915 958.83704 965.40082 971.96466 978.5285 985.23633 991.80017 998.36401 1004.9279 1011.6357 1018.1995 1024.7634 1031.3271 1038.035 1044.5989 1051.1627 1057.7266 1064.2904 1070.9982 1077.7061 1084.2699 1090.8337 1097.3976 1103.9614 1110.5253 1117.233 1123.7969 1130.3607 1136.9246 1143.6324 1150.1963 1156.76 1163.3239 1170.0317" y="498.17999">1;20;30;0;30;40;3;145;165;2;170;180;1;0</tspan></text><text x="1176.6" y="498.17999"><tspan stroke-width="1.3333" x="1176.6 1183.1638 1189.7277 1196.4355 1202.9994 1209.5632 1216.127 1222.6908 1229.3987 1236.1066 1242.6704 1249.2341 1255.798 1262.3618 1268.9257 1275.6335 1282.1974 1288.7612 1295.3251 1302.0328 1308.5967 1315.1605 1321.7244 1328.4323" y="498.17999">;20;0;40;60;2;60;80;3;16</tspan></text><text x="919.31" y="512.73999"><tspan stroke-width="1.3333" x="919.31 925.87384 932.43768 939.00153 945.56537 952.12915 958.83704 965.40082 971.96466 978.5285 985.23633 991.80017 998.36401 1004.9279 1011.6357 1018.1995 1024.7634 1031.3271 1038.035 1044.5989 1051.1627 1057.7266 1064.2904 1070.9982 1077.7061 1084.2699 1090.8337 1097.3976 1103.9614 1110.5253 1117.233 1123.7969 1130.3607 1136.9246 1143.6324 1150.1963 1156.76 1163.3239 1170.0317 1176.5956 1183.1594 1189.7233 1196.431 1202.9949 1209.5587 1216.1226 1222.6864 1229.3943 1236.1021 1242.6659 1249.2297 1255.7936 1262.3574 1268.9213 1275.6292 1282.193 1288.7568 1295.3207 1302.0284 1308.5923 1315.1561 1321.72 1328.4277" y="512.73999">5;180;2;0;30;0;60;80;1;80;130;3;130;145;1;30;60;3;60;90;0;90;13</tspan></text><text x="919.31" y="527.46002"><tspan stroke-width="1.3333" x="919.31 925.87384 932.43768 939.00153 945.56537 952.12915 958.83704 965.40082 971.96466 978.5285 985.23633 991.80017 998.36401 1004.9279 1011.6357 1018.1995 1024.7634 1031.3271 1038.035 1044.5989 1051.1627 1057.7266 1064.2904 1070.9982 1077.7061 1084.2699 1090.8337 1097.3976 1103.9614 1110.5253 1117.233 1123.7969 1130.3607 1136.9246 1143.6324 1150.1963 1156.76 1163.3239 1170.0317 1176.5956 1183.1594 1189.7233 1196.431 1202.9949 1209.5587 1216.1226" y="527.46002">0;2;130;170;3;0;50;2;80;92;1;130;160;0;160;170</tspan></text><text fill="#00f" x="919.31" y="542.17999"><tspan stroke-width="1.3333" x="919.31 925.87384 932.43768 939.00153 945.56537 952.12915 958.83704 965.40082 971.96466 978.5285 985.23633 991.80017" y="542.17999">END_RESULT_Y</tspan></text></g></g><path d="m455 1.9998h438.06v594.43h-438.06z" fill="#fbe5d6" stroke="#b20000" stroke-linecap="round" stroke-linejoin="round" stroke-width="1.333"/><path d="m566.93 395.21h317.98v17.397h-317.98z" fill="#fbe58f" stroke="#c9b35d" stroke-linecap="round" stroke-linejoin="round" stroke-width="1.3334"/><g font-size="12"><g font-family="Consolas" font-weight="bold" stroke-width="1.3333"><text x="466.31" y="23.327999"><tspan stroke-width="1.3333" x="466.31 472.87384 479.43768 486.0015 492.56534 499.12918 505.83701 512.40082 518.96466 525.5285" y="23.327999">y.dtype: h</tspan></text><text x="466.31" y="38.075001"><tspan stroke-width="1.3333" x="466.31 472.87384 479.43768 486.0015 492.56534 499.12918 505.83701 512.40082 518.96466 525.5285 532.23633 538.80017 545.36401 551.92786 558.63568 565.19952 571.76337" y="38.075001">y.inst.name: demo</tspan></text><text x="466.31" y="52.634998"><tspan stroke-width="1.3333" x="466.31 472.87384 479.43768 486.0015 492.56534 499.12918 505.83701 512.40082 518.96466 525.5285 532.23633 538.80017 545.36401 551.92786 558.63568 565.19952 571.76337 578.32721 585.03503 591.59888 598.16272 604.72656 611.29034 617.99823 624.70605 631.2699 637.83368 644.39752 650.96136 657.52521 664.23303 670.79688 677.36072 683.92456 690.63239 697.19623" y="52.634998">y.inst.class: moptipy.examples.jssp.</tspan></text><text x="703.75" y="52.634998"><tspan stroke-width="1.3333" x="703.75 710.31384 717.02167 723.58551 730.14935 736.7132 743.42102 749.98486 756.54871 763.11249 769.67633 776.38416 783.09204 789.65582 796.21967 802.78351 809.34735" y="52.634998">instance.Instance</tspan></text><text x="466.31" y="67.355003"><tspan stroke-width="1.3333" x="466.31 472.87384 479.43768 486.0015 492.56534 499.12918 505.83701 512.40082 518.96466 525.5285 532.23633 538.80017 545.36401 551.92786 558.63568 565.19952 571.76337 578.32721" y="67.355003">y.inst.machines: 5</tspan></text><text x="466.31" y="82.074997"><tspan stroke-width="1.3333" x="466.31 472.87384 479.43768 486.0015 492.56534 499.12918 505.83701 512.40082 518.96466 525.5285 532.23633 538.80017 545.36401 551.92786" y="82.074997">y.inst.jobs: 4</tspan></text><text x="466.31" y="96.635002"><tspan stroke-width="1.3333" x="466.31 472.87384 479.43768 486.0015 492.56534 499.12918 505.83701 512.40082 518.96466 525.5285 532.23633 538.80017 545.36401 551.92786 558.63568 565.19952 571.76337 578.32721 585.03503 591.59888 598.16272 604.72656 611.29034 617.99823 624.70605 631.2699 637.83368 644.39752 650.96136 657.52521" y="96.635002">y.inst.makespanLowerBound: 180</tspan></text><text x="466.31" y="111.35"><tspan stroke-width="1.3333" x="466.31 472.87384 479.43768 486.0015 492.56534 499.12918 505.83701 512.40082 518.96466 525.5285 532.23633 538.80017 545.36401 551.92786 558.63568 565.19952 571.76337 578.32721 585.03503 591.59888 598.16272 604.72656 611.29034 617.99823 624.70605 631.2699 637.83368 644.39752 650.96136 657.52521" y="111.35">y.inst.makespanUpperBound: 482</tspan></text><text x="466.31" y="126.07"><tspan stroke-width="1.3333" x="466.31 472.87384 479.43768 486.0015 492.56534 499.12918 505.83701 512.40082 518.96466 525.5285 532.23633 538.80017 545.36401 551.92786 558.63568" y="126.07">y.inst.dtype: b</tspan></text><text x="466.31" y="140.63"><tspan stroke-width="1.3333" x="466.31 472.87384 479.43768 486.0015 492.56534 499.12918 505.83701 512.40082 518.96466 525.5285 532.23633 538.80017 545.36401 551.92786 558.63568 565.19952" y="140.63">f.name: makespan</tspan></text><text x="466.31" y="155.39"><tspan stroke-width="1.3333" x="466.31 472.87384 479.43768 486.0015 492.56534 499.12918 505.83701 512.40082 518.96466 525.5285 532.23633 538.80017 545.36401 551.92786 558.63568 565.19952 571.76337 578.32721 585.03503 591.59888 598.16272 604.72656 611.29034 617.99823 624.70605 631.2699" y="155.39">f.class: moptipy.examples.</tspan></text><text x="637.83002" y="155.39"><tspan stroke-width="1.3333" x="637.83002 644.39386 650.95764 657.52148 664.22931 670.79315 677.35699 683.92084 690.62866 697.1925 703.75635 710.32019 717.02802 723.59186 730.1557 736.71954 743.42737 749.99121 756.55505 763.1189 769.68268 776.3905" y="155.39">jssp.makespan.Makespan</tspan></text><text x="466.31" y="170.11"><tspan stroke-width="1.3333" x="466.31 472.87384 479.43768 486.0015 492.56534 499.12918 505.83701 512.40082 518.96466 525.5285 532.23633 538.80017 545.36401 551.92786 558.63568 565.19952 571.76337" y="170.11">f.lowerBound: 180</tspan></text><text x="466.31" y="184.67"><tspan stroke-width="1.3333" x="466.31 472.87384 479.43768 486.0015 492.56534 499.12918 505.83701 512.40082 518.96466 525.5285 532.23633 538.80017 545.36401 551.92786 558.63568 565.19952 571.76337" y="184.67">f.upperBound: 482</tspan></text><text x="466.31" y="199.39"><tspan stroke-width="1.3333" x="466.31 472.87384 479.43768 486.0015 492.56534 499.12918 505.83701 512.40082 518.96466 525.5285 532.23633 538.80017 545.36401 551.92786 558.63568 565.19952" y="199.39">x.name: perm4w5r</tspan></text><text x="466.31" y="214.11"><tspan stroke-width="1.3333" x="466.31 472.87384 479.43768 486.0015 492.56534 499.12918 505.83701 512.40082 518.96466" y="214.11">x.class:</tspan></text><text x="525.51001" y="214.11"><tspan stroke-width="1.3333" x="525.51001 532.21783 538.78168 545.34552 551.90936 558.61719 565.18103 571.74481 578.30865 585.01654 591.58032 598.14417 604.70801 611.27185 617.97968" y="214.11">moptipy.spaces.</tspan></text><text x="624.71002" y="214.11"><tspan stroke-width="1.3333" x="624.71002 631.27386 637.83765 644.40149 650.96533 657.52917 664.237 670.80084 677.36469 683.92853 690.63635 697.2002 703.76404 710.32788 717.03571 723.59955 730.16339 736.72717 743.43506 749.99884 756.56268 763.12653 769.69037 776.39819 783.10602" y="214.11">permutations.Permutations</tspan></text><text x="466.31" y="228.67"><tspan stroke-width="1.3333" x="466.31 472.87384 479.43768 486.0015 492.56534 499.12918 505.83701 512.40082 518.96466 525.5285 532.23633" y="228.67">x.nvars: 20</tspan></text><text x="466.31" y="243.39"><tspan stroke-width="1.3333" x="466.31 472.87384 479.43768 486.0015 492.56534 499.12918 505.83701 512.40082 518.96466 525.5285" y="243.39">x.dtype: b</tspan></text><text x="466.31" y="258.10999"><tspan stroke-width="1.3333" x="466.31 472.87384 479.43768 486.0015 492.56534 499.12918 505.83701 512.40082" y="258.10999">x.min: 0</tspan></text><text x="466.31" y="272.67001"><tspan stroke-width="1.3333" x="466.31 472.87384 479.43768 486.0015 492.56534 499.12918 505.83701 512.40082" y="272.67001">x.max: 3</tspan></text><text x="466.31" y="287.42001"><tspan stroke-width="1.3333" x="466.31 472.87384 479.43768 486.0015 492.56534 499.12918 505.83701 512.40082 518.96466 525.5285 532.23633 538.80017 545.36401 551.92786 558.63568 565.19952" y="287.42001">x.repetitions: 5</tspan></text><text x="466.31" y="302.14001"><tspan stroke-width="1.3333" x="466.31 472.87384 479.43768 486.0015 492.56534 499.12918 505.83701 512.40082 518.96466 525.5285 532.23633 538.80017 545.36401 551.92786 558.63568 565.19952 571.76337 578.32721 585.03503 591.59888 598.16272 604.72656 611.29034 617.99823 624.70605 631.2699 637.83368 644.39752 650.96136 657.52521 664.23303 670.79688" y="302.14001">g.name: operation_based_encoding</tspan></text><text x="466.31" y="316.70001"><tspan stroke-width="1.3333" x="466.31 472.87384 479.43768 486.0015 492.56534 499.12918 505.83701 512.40082 518.96466 525.5285 532.23633 538.80017 545.36401 551.92786 558.63568 565.19952 571.76337 578.32721 585.03503 591.59888 598.16272 604.72656 611.29034 617.99823 624.70605 631.2699 637.83368 644.39752 650.96136 657.52521 664.23303" y="316.70001">g.class: moptipy.examples.jssp.</tspan></text></g><text fill="#f00" font-family="Arial Unicode MS" stroke="#f00" stroke-miterlimit="10" stroke-width=".34284" x="674.29065" y="316.7113"><tspan stroke-width=".34284" x="674.29065" y="316.7113">↷</tspan></text><g font-family="Consolas" font-weight="bold" stroke-width="1.3333"><text x="492.54999" y="331.42001"><tspan stroke-width="1.3333" x="492.54999 499.11383 505.82166 512.3855 518.94934 525.51318 532.22101 538.78485 545.34869 551.91254 558.62036 565.1842 571.74805 578.31183 585.01965 591.5835 598.14734 604.71118 611.27502 617.98285 624.69067 631.25452 637.81836 644.3822 650.94604 657.50989 664.21771 670.78156 677.3454 683.90918 690.61707 697.18091 703.74469 710.30853" y="331.42001">ob_encoding.OperationBasedEncoding</tspan></text><text x="466.31" y="346.14001"><tspan stroke-width="1.3333" x="466.31 472.87384 479.43768 486.0015 492.56534 499.12918 505.83701 512.40082 518.96466 525.5285 532.23633 538.80017 545.36401 551.92786 558.63568 565.19952 571.76337 578.32721 585.03503 591.59888" y="346.14001">g.dtypeMachineIdx: b</tspan></text><text x="466.31" y="360.70001"><tspan stroke-width="1.3333" x="466.31 472.87384 479.43768 486.0015 492.56534 499.12918 505.83701 512.40082 518.96466 525.5285 532.23633 538.80017 545.36401 551.92786 558.63568 565.19952" y="360.70001">g.dtypeJobIdx: b</tspan></text><text x="466.31" y="375.42001"><tspan stroke-width="1.3333" x="466.31 472.87384 479.43768 486.0015 492.56534 499.12918 505.83701 512.40082 518.96466 525.5285 532.23633 538.80017 545.36401 551.92786 558.63568 565.19952 571.76337" y="375.42001">g.dtypeJobTime: h</tspan></text><text fill="#00f" x="466.31" y="390.14001"><tspan stroke-width="1.3333" x="466.31 472.87384 479.43768 486.0015 492.56534 499.12918 505.83701 512.40082 518.96466" y="390.14001">END_SETUP</tspan></text><text fill="#00f" x="466.31" y="407.42001"><tspan stroke-width="1.3333" x="466.31 472.87384 479.43768 486.0015 492.56534 499.12918 505.83701 512.40082 518.96466 525.5285 532.23633 538.80017 545.36401 551.92786" y="407.42001">BEGIN_SYS_INFO</tspan></text><text x="466.31" y="422.17999"><tspan stroke-width="1.3333" x="466.31 472.87384 479.43768 486.0015 492.56534 499.12918 505.83701 512.40082 518.96466 525.5285 532.23633 538.80017 545.36401 551.92786 558.63568 565.19952 571.76337 578.32721 585.03503" y="422.17999">session.start: 2023</tspan></text><text x="591.59003" y="422.17999"><tspan stroke-width="1.3333" x="591.59003" y="422.17999">-</tspan></text><text x="598.15002" y="422.17999"><tspan stroke-width="1.3333" x="598.15002 604.70984" y="422.17999">06</tspan></text><text x="611.27002" y="422.17999"><tspan stroke-width="1.3333" x="611.27002" y="422.17999">-</tspan></text><text x="617.98999" y="422.17999"><tspan stroke-width="1.3333" x="617.98999 624.69781 631.26166 637.8255 644.38934 650.95319 657.51703 664.22485 670.7887 677.35254 683.91632 690.62421 697.18805 703.75183 710.31567 717.0235 723.58734 730.15118 736.71503 743.42285 749.98669 756.55054 763.11438 769.67822" y="422.17999">20 04:51:52.514777+00:00</tspan></text><text x="466.31" y="436.73999"><tspan stroke-width="1.3333" x="466.31 472.87384 479.43768 486.0015 492.56534 499.12918 505.83701 512.40082 518.96466 525.5285 532.23633 538.80017 545.36401 551.92786 558.63568 565.19952 571.76337 578.32721" y="436.73999">session.node: home</tspan></text><text x="466.31" y="451.45999"><tspan stroke-width="1.3333" x="466.31 472.87384 479.43768 486.0015 492.56534 499.12918 505.83701 512.40082 518.96466 525.5285 532.23633 538.80017 545.36401 551.92786 558.63568 565.19952 571.76337 578.32721 585.03503 591.59888 598.16272 604.72656 611.29034 617.99823" y="451.45999">session.procesId: 0x3d08</tspan></text><text x="466.31" y="466.17999"><tspan stroke-width="1.3333" x="466.31 472.87384 479.43768 486.0015 492.56534 499.12918 505.83701 512.40082 518.96466 525.5285 532.23633 538.80017 545.36401 551.92786 558.63568 565.19952 571.76337 578.32721 585.03503 591.59888 598.16272 604.72656 611.29034 617.99823" y="466.17999">session.cpuAffinity: 4;5</tspan></text><text x="466.31" y="480.73999"><tspan stroke-width="1.3333" x="466.31 472.87384 479.43768 486.0015 492.56534 499.12918 505.83701 512.40082 518.96466 525.5285 532.23633 538.80017 545.36401 551.92786 558.63568 565.19952 571.76337 578.32721 585.03503 591.59888 598.16272 604.72656 611.29034 617.99823 624.70605 631.2699 637.83368 644.39752 650.96136 657.52521 664.23303 670.79688" y="480.73999">session.ipAddress: 192.168.1.109</tspan></text><text x="466.31" y="495.45999"><tspan stroke-width="1.3333" x="466.31 472.87384 479.43768 486.0015 492.56534 499.12918 505.83701 512.40082 518.96466 525.5285 532.23633 538.80017 545.36401 551.92786 558.63568 565.19952 571.76337 578.32721 585.03503 591.59888 598.16272" y="495.45999">version.Pillow: 9.4.0</tspan></text><text x="466.31" y="510.17999"><tspan stroke-width="1.3333" x="466.31 472.87384 479.43768 486.0015 492.56534 499.12918 505.83701 512.40082 518.96466 525.5285 532.23633 538.80017 545.36401 551.92786 558.63568 565.19952 571.76337 578.32721 585.03503 591.59888 598.16272 604.72656 611.29034 617.99823" y="510.17999">version.contourpy: 1.0.6</tspan></text><text x="466.31" y="524.73999"><tspan stroke-width="1.3333" x="466.31 472.87384 479.43768 486.0015 492.56534 499.12918 505.83701 512.40082 518.96466 525.5285 532.23633 538.80017 545.36401 551.92786 558.63568 565.19952" y="524.73999">version.cycler:</tspan></text><text x="571.75" y="524.73999"><tspan stroke-width="1.3333" x="571.75 578.31384 585.02167 591.58551 598.14935 604.7132" y="524.73999">0.11.0</tspan></text><text x="466.31" y="539.46002"><tspan stroke-width="1.3333" x="466.31 472.87384 479.43768 486.0015 492.56534 499.12918 505.83701 512.40082 518.96466 525.5285 532.23633 538.80017 545.36401 551.92786 558.63568 565.19952 571.76337 578.32721 585.03503 591.59888 598.16272 604.72656 611.29034 617.99823 624.70605" y="539.46002">version.fonttools: 4.38.0</tspan></text><text x="466.31" y="554.21002"><tspan stroke-width="1.3333" x="466.31 472.87384 479.43768 486.0015 492.56534 499.12918 505.83701 512.40082 518.96466 525.5285 532.23633 538.80017 545.36401 551.92786 558.63568 565.19952 571.76337 578.32721 585.03503 591.59888 598.16272" y="554.21002">version.joblib: 1.2.0</tspan></text><text x="466.31" y="568.77002"><tspan stroke-width="1.3333" x="466.31 472.87384 479.43768 486.0015 492.56534 499.12918 505.83701 512.40082 518.96466 525.5285 532.23633 538.80017 545.36401 551.92786 558.63568 565.19952 571.76337 578.32721 585.03503 591.59888 598.16272 604.72656 611.29034 617.99823 624.70605" y="568.77002">version.kiwisolver: 1.4.4</tspan></text><text x="466.31" y="583.48999"><tspan stroke-width="1.3333" x="466.31 472.87384 479.43768 486.0015 492.56534 499.12918 505.83701 512.40082 518.96466 525.5285 532.23633 538.80017 545.36401 551.92786 558.63568 565.19952 571.76337 578.32721 585.03503 591.59888 598.16272 604.72656 611.29034 617.99823" y="583.48999">version.llvmlite: 0.40.0</tspan></text></g></g><path d="m1.9998 1.9998h438.06v594.43h-438.06z" fill="#fbe5d6" stroke="#b20000" stroke-linecap="round" stroke-linejoin="round" stroke-width="1.333"/><g font-size="12"><g font-family="Consolas" font-weight="bold" stroke-width="1.3333"><text fill="#00f" x="13.309" y="23.327999"><tspan stroke-width="1.3333" x="13.309 19.872835 26.436672 33.000507 39.564342 46.128178 52.83601 59.399849 65.963684 72.527519 79.235352 85.799187 92.363022 98.926857" y="23.327999">BEGIN_PROGRESS</tspan></text><text x="13.309" y="38.075001"><tspan stroke-width="1.3333" x="13.309 19.872835 26.436672 33.000507 39.564342 46.128178 52.83601 59.399849 65.963684 72.527519 79.235352 85.799187" y="38.075001"><tspan fill="#c80000">fes</tspan>;<tspan fill="#006400">timeMS</tspan>;<tspan fill="#640064">f</tspan></tspan></text><text x="13.309" y="52.634998"><tspan stroke-width="1.3333" x="13.309 19.872835 26.436672 33.000507 39.564342 46.128178 52.83601" y="52.634998"><tspan fill="#c80000">1</tspan>;<tspan fill="#006400">6</tspan>;<tspan fill="#640064">267</tspan></tspan></text><text x="13.309" y="67.355003"><tspan stroke-width="1.3333" x="13.309 19.872835 26.436672 33.000507 39.564342 46.128178 52.83601" y="67.355003"><tspan fill="#c80000">5</tspan>;<tspan fill="#006400">7</tspan>;<tspan fill="#640064">235</tspan></tspan></text><text x="13.309" y="82.074997"><tspan stroke-width="1.3333" x="13.309 19.872835 26.436672 33.000507 39.564342 46.128178 52.83601 59.399849" y="82.074997"><tspan fill="#c80000">10</tspan>;<tspan fill="#006400">7</tspan>;<tspan fill="#640064">230</tspan></tspan></text><text x="13.309" y="96.635002"><tspan stroke-width="1.3333" x="13.309 19.872835 26.436672 33.000507 39.564342 46.128178 52.83601 59.399849" y="96.635002"><tspan fill="#c80000">20</tspan>;<tspan fill="#006400">7</tspan>;<tspan fill="#640064">227</tspan></tspan></text><text x="13.309" y="111.35"><tspan stroke-width="1.3333" x="13.309 19.872835 26.436672 33.000507 39.564342 46.128178 52.83601 59.399849" y="111.35"><tspan fill="#c80000">25</tspan>;<tspan fill="#006400">7</tspan>;<tspan fill="#640064">205</tspan></tspan></text><text x="13.309" y="126.07"><tspan stroke-width="1.3333" x="13.309 19.872835 26.436672 33.000507 39.564342 46.128178 52.83601 59.399849" y="126.07"><tspan fill="#c80000">40</tspan>;<tspan fill="#006400">7</tspan>;<tspan fill="#640064">200</tspan></tspan></text><text x="13.309" y="140.63"><tspan stroke-width="1.3333" x="13.309 19.872835 26.436672 33.000507 39.564342 46.128178 52.83601 59.399849" y="140.63"><tspan fill="#c80000">84</tspan>;<tspan fill="#006400">8</tspan>;<tspan fill="#640064">180</tspan></tspan></text><text fill="#00f" x="13.309" y="155.39"><tspan stroke-width="1.3333" x="13.309 19.872835 26.436672 33.000507 39.564342 46.128178 52.83601 59.399849 65.963684 72.527519 79.235352 85.799187" y="155.39">END_PROGRESS</tspan></text><text fill="#00f" x="13.309" y="172.83"><tspan stroke-width="1.3333" x="13.309 19.872835 26.436672 33.000507 39.564342 46.128178 52.83601 59.399849 65.963684 72.527519 79.235352" y="172.83">BEGIN_STATE</tspan></text><text x="13.309" y="187.39"><tspan stroke-width="1.3333" x="13.309 19.872835 26.436672 33.000507 39.564342 46.128178 52.83601 59.399849 65.963684 72.527519 79.235352 85.799187" y="187.39">totalFEs: 84</tspan></text><text x="13.309" y="202.11"><tspan stroke-width="1.3333" x="13.309 19.872835 26.436672 33.000507 39.564342 46.128178 52.83601 59.399849 65.963684 72.527519 79.235352 85.799187 92.363022 98.926857 105.6347 112.19852 118.76237 125.3262" y="202.11">totalTimeMillis: 8</tspan></text><text x="13.309" y="216.67"><tspan stroke-width="1.3333" x="13.309 19.872835 26.436672 33.000507 39.564342 46.128178 52.83601 59.399849 65.963684 72.527519" y="216.67">bestF: 180</tspan></text><text x="13.309" y="231.39"><tspan stroke-width="1.3333" x="13.309 19.872835 26.436672 33.000507 39.564342 46.128178 52.83601 59.399849 65.963684 72.527519 79.235352 85.799187 92.363022 98.926857 105.6347 112.19852 118.76237 125.3262 132.03403 138.59787 145.1617" y="231.39">lastImprovementFE: 84</tspan></text><text x="13.309" y="246.11"><tspan stroke-width="1.3333" x="13.309 19.872835 26.436672 33.000507 39.564342 46.128178 52.83601 59.399849 65.963684 72.527519 79.235352 85.799187 92.363022 98.926857 105.6347 112.19852 118.76237 125.3262 132.03403 138.59787 145.1617 151.72554 158.28937 164.99721 171.70505 178.26888 184.8327 191.39655" y="246.11">lastImprovementTimeMillis: 8</tspan></text><text fill="#00f" x="13.309" y="260.67001"><tspan stroke-width="1.3333" x="13.309 19.872835 26.436672 33.000507 39.564342 46.128178 52.83601 59.399849 65.963684" y="260.67001">END_STATE</tspan></text><text fill="#00f" x="13.309" y="278.10999"><tspan stroke-width="1.3333" x="13.309 19.872835 26.436672 33.000507 39.564342 46.128178 52.83601 59.399849 65.963684 72.527519 79.235352" y="278.10999">BEGIN_SETUP</tspan></text><text x="13.309" y="292.70001"><tspan stroke-width="1.3333" x="13.309 19.872835 26.436672 33.000507 39.564342 46.128178 52.83601 59.399849" y="292.70001">p.name:</tspan></text><text x="65.948997" y="292.70001"><tspan stroke-width="1.3333" x="65.948997 72.512833 79.220673 85.7845 92.348335 98.912178 105.62001 112.18384 118.74768 125.31152 132.01935 138.58319 145.14702 151.71085 158.27469 164.98253 171.69035 178.2542 184.81802 191.38187 197.94569 204.50954 211.21738 217.7812 224.34505 230.90887 237.6167 244.18054 250.74438" y="292.70001">LoggingProcessWithSearchSpace</tspan></text><text x="13.309" y="307.42001"><tspan stroke-width="1.3333" x="13.309 19.872835 26.436672 33.000507 39.564342 46.128178 52.83601 59.399849" y="307.42001">p.class:</tspan></text><text x="72.509003" y="307.42001"><tspan stroke-width="1.3333" x="72.509003 79.216835 85.78067 92.344505 98.90834 105.61617 112.18001 118.74384 125.30768 132.01552 138.57935 145.14319 151.70702 158.27086 164.97868 171.68652 178.25035 184.81419 191.37802 197.94186 204.50571 211.21353 217.77737 224.3412 230.90504 237.61287 244.17671" y="307.42001">moptipy.api._process_ss_log</tspan></text><text x="250.78" y="307.42001"><tspan stroke-width="1.3333" x="250.78" y="307.42001">.</tspan></text><text x="257.34" y="307.42001"><tspan stroke-width="1.3333" x="257.34 264.04782 270.61166 277.17551 283.73935 290.44717 297.01102 303.57483 310.13867 316.70251 323.41034 330.11816 336.68201" y="307.42001">_ProcessSSLog</tspan></text><text x="13.309" y="322.14001"><tspan stroke-width="1.3333" x="13.309 19.872835 26.436672 33.000507 39.564342 46.128178 52.83601 59.399849 65.963684 72.527519 79.235352 85.799187 92.363022 98.926857 105.6347 112.19852 118.76237" y="322.14001">p.lowerBound: 180</tspan></text><text x="13.309" y="336.70001"><tspan stroke-width="1.3333" x="13.309 19.872835 26.436672 33.000507 39.564342 46.128178 52.83601 59.399849 65.963684 72.527519 79.235352 85.799187 92.363022 98.926857 105.6347 112.19852 118.76237" y="336.70001">p.upperBound: 482</tspan></text><text x="13.309" y="351.42001"><tspan stroke-width="1.3333" x="13.309 19.872835 26.436672 33.000507 39.564342 46.128178 52.83601 59.399849 65.963684 72.527519 79.235352 85.799187 92.363022 98.926857 105.6347 112.19852 118.76237 125.3262 132.03403 138.59787 145.1617 151.72554 158.28937" y="351.42001">p.maxTimeMillis: 120000</tspan></text><text x="13.309" y="366.14001"><tspan stroke-width="1.3333" x="13.309 19.872835 26.436672 33.000507 39.564342 46.128178 52.83601 59.399849 65.963684 72.527519 79.235352 85.799187" y="366.14001">p.goalF: 180</tspan></text><text x="13.309" y="380.70001"><tspan stroke-width="1.3333" x="13.309 19.872835 26.436672 33.000507 39.564342 46.128178 52.83601 59.399849 65.963684 72.527519 79.235352 85.799187 92.363022 98.926857 105.6347 112.19852 118.76237 125.3262 132.03403 138.59787 145.1617 151.72554 158.28937 164.99721 171.70505 178.26888 184.8327 191.39655 197.96039 204.52422 211.23206" y="380.70001">p.randSeed: 6526669205530947346</tspan></text><text x="13.309" y="395.42001"><tspan stroke-width="1.3333" x="13.309 19.872835 26.436672 33.000507 39.564342 46.128178 52.83601 59.399849 65.963684 72.527519 79.235352 85.799187 92.363022 98.926857 105.6347 112.19852 118.76237 125.3262 132.03403 138.59787 145.1617 151.72554 158.28937 164.99721 171.70505 178.26888 184.8327 191.39655 197.96039 204.52422 211.23206 217.7959 224.35973 230.92355 237.63139" y="395.42001">p.randSeed(hex): 0x5a9363100a272f12</tspan></text><text x="13.309" y="410.14001"><tspan stroke-width="1.3333" x="13.309 19.872835 26.436672 33.000507 39.564342 46.128178 52.83601 59.399849 65.963684 72.527519 79.235352 85.799187 92.363022 98.926857 105.6347" y="410.14001">p.randGenType:</tspan></text><text x="112.22" y="410.14001"><tspan stroke-width="1.3333" x="112.22 118.78384 125.34767 132.05551 138.61934 145.18318 151.74701 158.31085 165.01868 171.72652 178.29034 184.85419 191.41801 197.98186 204.5457 211.25352 217.81735 224.3812 230.94502 237.65286 244.21671 250.78053 257.34436 264.05222 270.61606 277.17987 283.74371 290.45154 297.01538 303.57922 310.14304 316.70688 323.4147" y="410.14001">numpy.random._generator.Generator</tspan></text><text x="13.309" y="424.73999"><tspan stroke-width="1.3333" x="13.309 19.872835 26.436672 33.000507 39.564342 46.128178 52.83601 59.399849 65.963684 72.527519 79.235352 85.799187 92.363022 98.926857 105.6347 112.19852 118.76237 125.3262 132.03403 138.59787 145.1617 151.72554 158.28937 164.99721 171.70505 178.26888 184.8327 191.39655 197.96039 204.52422 211.23206 217.7959 224.35973 230.92355 237.63139 244.19524 250.75906 257.32291 264.03073 270.59457 277.15839 283.72223 290.43005" y="424.73999">p.randBitGenType: numpy.random._pcg64.PCG64</tspan></text><text x="13.309" y="439.45999"><tspan stroke-width="1.3333" x="13.309 19.872835 26.436672 33.000507 39.564342 46.128178 52.83601 59.399849 65.963684 72.527519 79.235352 85.799187 92.363022 98.926857 105.6347 112.19852 118.76237" y="439.45999">a.name: rls_swap2</tspan></text><text x="13.309" y="454.17999"><tspan stroke-width="1.3333" x="13.309 19.872835 26.436672 33.000507 39.564342 46.128178 52.83601 59.399849 65.963684 72.527519 79.235352 85.799187 92.363022 98.926857 105.6347 112.19852 118.76237 125.3262 132.03403 138.59787 145.1617 151.72554 158.28937 164.99721 171.70505 178.26888 184.8327 191.39655 197.96039 204.52422 211.23206 217.7959 224.35973 230.92355 237.63139 244.19524 250.75906 257.32291" y="454.17999">a.class: moptipy.algorithms.so.rls.RLS</tspan></text><text x="13.309" y="468.73999"><tspan stroke-width="1.3333" x="13.309 19.872835 26.436672 33.000507 39.564342 46.128178 52.83601 59.399849 65.963684 72.527519 79.235352 85.799187 92.363022 98.926857 105.6347 112.19852 118.76237 125.3262 132.03403" y="468.73999">a.op0.name: shuffle</tspan></text><text x="13.309" y="483.45999"><tspan stroke-width="1.3333" x="13.309 19.872835 26.436672 33.000507 39.564342 46.128178 52.83601 59.399849 65.963684 72.527519 79.235352 85.799187 92.363022 98.926857 105.6347 112.19852 118.76237 125.3262 132.03403 138.59787 145.1617 151.72554 158.28937 164.99721 171.70505 178.26888 184.8327 191.39655 197.96039 204.52422 211.23206 217.7959 224.35973 230.92355 237.63139 244.19524 250.75906 257.32291 264.03073 270.59457 277.15839 283.72223 290.43005 296.9939" y="483.45999">a.op0.class: moptipy.operators.permutations.</tspan></text></g><text fill="#f00" font-family="Arial Unicode MS" stroke="#f00" stroke-miterlimit="10" stroke-width=".34284" x="307.08713" y="483.46713"><tspan stroke-width=".34284" x="307.08713" y="483.46713">↷</tspan></text><g font-family="Consolas" font-weight="bold" stroke-width="1.3333"><text x="39.549" y="498.17999"><tspan stroke-width="1.3333" x="39.549 46.112835 52.820671 59.384502 65.948341 72.512177 79.220009 85.783844 92.347679 98.911514 105.61935 112.18319 118.74702 125.31085 132.01868 138.58252 145.14636 151.71019 158.27403 164.98187 171.6897 178.25352" y="498.17999">op0_shuffle.Op0Shuffle</tspan></text><text x="13.309" y="512.73999"><tspan stroke-width="1.3333" x="13.309 19.872835 26.436672 33.000507 39.564342 46.128178 52.83601 59.399849 65.963684 72.527519 79.235352 85.799187 92.363022 98.926857 105.6347 112.19852 118.76237" y="512.73999">a.op1.name: swap2</tspan></text><text x="13.309" y="527.46002"><tspan stroke-width="1.3333" x="13.309 19.872835 26.436672 33.000507 39.564342 46.128178 52.83601 59.399849" y="527.46002">a.op1.cl</tspan></text><text x="65.948997" y="527.46002"><tspan stroke-width="1.3333" x="65.948997 72.512833 79.220673 85.7845 92.348335 98.912178 105.62001 112.18384 118.74768 125.31152 132.01935 138.58319 145.14702 151.71085 158.27469 164.98253 171.69035 178.2542 184.81802 191.38187 197.94569 204.50954 211.21738" y="527.46002">ass: moptipy.operators.</tspan></text><text x="217.82001" y="527.46002"><tspan stroke-width="1.3333" x="217.82001 224.38383 230.94768 237.6555 244.21935 250.78317 257.34702 264.05484 270.61868 277.18253 283.74634 290.45419 297.01804 303.58185 310.14569 316.70953 323.41736 330.12518 336.68903 343.25287 349.81671 356.38052 362.94437 369.65219 376.21603 382.77988 389.34372 396.05154 402.61539 409.1792 415.74304" y="527.46002">permutations.op1_swap2.Op1Swap2</tspan></text><text x="13.309" y="542.17999"><tspan stroke-width="1.3333" x="13.309 19.872835 26.436672 33.000507 39.564342 46.128178 52.83601 59.399849 65.963684 72.527519 79.235352 85.799187 92.363022 98.926857 105.6347 112.19852 118.76237 125.3262" y="542.17999">y.name: gantt_demo</tspan></text><text x="13.309" y="556.77002"><tspan stroke-width="1.3333" x="13.309 19.872835 26.436672 33.000507 39.564342 46.128178 52.83601 59.399849 65.963684 72.527519 79.235352 85.799187 92.363022 98.926857 105.6347 112.19852 118.76237 125.3262 132.03403 138.59787 145.1617 151.72554 158.28937 164.99721 171.70505 178.26888 184.8327 191.39655 197.96039 204.52422 211.23206" y="556.77002">y.class: moptipy.examples.jssp.</tspan></text><text x="217.82001" y="556.77002"><tspan stroke-width="1.3333" x="217.82001 224.38383 230.94768 237.6555 244.21935 250.78317 257.34702 264.05484 270.61868 277.18253 283.74634 290.45419 297.01804 303.58185 310.14569 316.70953 323.41736 330.12518 336.68903 343.25287 349.81671 356.38052" y="556.77002">gantt_space.GanttSpace</tspan></text><text x="13.309" y="571.48999"><tspan stroke-width="1.3333" x="13.309 19.872835 26.436672 33.000507 39.564342 46.128178 52.83601 59.399849 65.963684 72.527519 79.235352 85.799187 92.363022 98.926857 105.6347 112.19852 118.76237 125.3262" y="571.48999">y.shape: (5, 4, 3)</tspan></text></g></g><text stroke-width="1.0001" x="183.30751" y="74.288086"><tspan stroke-width="1.0001" x="183.30751" y="74.288086"/></text><path d="m134.3 157.77v30.647h38.905v35.419h32.491v33.463h232.18v-51.83h-10.85v-33.461h-26.543v-14.237z" fill="#fbe58f" stroke="#c9b35d" stroke-linecap="round" stroke-linejoin="round" stroke-width="1.3334"/><path d="m136.79 266.38h266.58v15.606h-266.58z" fill="#fbe58f" stroke="#c9b35d" stroke-linecap="round" stroke-linejoin="round" stroke-width="1.3334"/><text font-family="Ubuntu" font-size="12.275" font-weight="bold" stroke-width="1.0001" x="140.43349" y="172.96143"><tspan stroke-width="1.0001" x="140.43349" y="172.96143">End State at the end of the optimization run</tspan></text><text font-family="Ubuntu" font-size="12.275" font-weight="bold" stroke-width="1.0001" x="567.78583" y="407.51462"><tspan stroke-width="1.0001" x="567.78583" y="407.51462">Information about the System Running the Experiment</tspan></text><g transform="translate(2.5884)"><path d="m1034.6 424.54h183.63v17.397h-183.63z" fill="#fbe58f" stroke="#c9b35d" stroke-linecap="round" stroke-linejoin="round" stroke-width="1.3334"/><path d="m1034.6 471.13h261.1v17.397h-261.1z" fill="#fbe58f" stroke="#c9b35d" stroke-linecap="round" stroke-linejoin="round" stroke-width="1.3334"/><g font-family="Ubuntu" font-size="12.275" font-weight="bold" stroke-width="1.0001"><text x="1039.7734" y="436.89999"><tspan stroke-width="1.0001" x="1039.7734" y="436.89999">Best Encoded Solution (if any)</tspan></text><text x="1039.7734" y="483.45999"><tspan stroke-width="1.0001" x="1039.7734" y="483.45999">Best Discovered Point in the Solution Space</tspan></text></g></g><text font-family="Ubuntu" font-size="12.275" font-weight="bold" stroke-width="1.0001" x="139.04182" y="277.7966"><tspan stroke-width="1.0001" x="139.04182" y="277.7966">Algorithm and Problem Instance Information</tspan></text><g fill="#fbe58f" stroke="#c9b35d" stroke-linecap="round" stroke-linejoin="round" stroke-width="1.3334"><path d="m179.29 339.69v30.785h72.472v29.807h162.32v-39.796h-45.578v-20.796z"/><path d="m284.18 427.87h110.78v45.285h-110.78z"/><path d="m287.56 500.97h98.234v17.522h-98.234z"/><path d="m291.96 531.24h116.05v16.298h-116.05z"/><path d="m114.48 10.724h308.17v142.01h-308.17z"/></g><g font-family="Ubuntu" font-size="12.275" font-weight="bold" stroke-width="1.0001"><text x="161.92375" y="23.422602"><tspan stroke-width="1.0001" x="161.92375" y="23.422602">Progress of the Algorithm over Time</tspan></text><text x="119.55461" xml:space="preserve" y="41.965656"><tspan font-family="Ubuntu" font-weight="normal" stroke-width="1.0001" x="119.55461" y="41.965656"><tspan fill="#c80000" font-family="Consolas" font-weight="normal">fes</tspan> ... consumed objective function evaluations</tspan></text><text x="182.4464" y="187.37746"><tspan font-family="Ubuntu" font-weight="normal" stroke-width="1.0001" x="182.4464" y="187.37746">total consumed FEs</tspan></text><text x="182.4464" y="199.97391"><tspan font-family="Ubuntu" font-weight="normal" stroke-width="1.0001" x="182.4464" y="199.97391">total consumed runtime in milliseconds (ms)</tspan></text><text x="182.39729" y="214.50935"><tspan font-family="Ubuntu" font-weight="normal" stroke-width="1.0001" x="182.39729" y="214.50935">best objective value encountered</tspan></text><text x="206.33775" y="231.44525"><tspan font-family="Ubuntu" font-weight="normal" stroke-width="1.0001" x="206.33775" y="231.44525">FE when the last improvement took place</tspan></text><text x="206.39912" y="246.16525"><tspan font-family="Ubuntu" font-weight="normal" stroke-width="1.0001" x="206.39912" y="246.16525">ms when the last improvement took place</tspan></text><text x="184.36093" y="351.47528"><tspan font-family="Ubuntu" font-weight="normal" stroke-width="1.0001" x="184.36093" y="351.47528">maximum runtime, if specified</tspan></text><text x="184.72917" y="366.29321"><tspan font-family="Ubuntu" font-weight="normal" stroke-width="1.0001" x="184.72917" y="366.29321">goal objective value, if specified</tspan></text><text x="255.62413" y="380.75528"><tspan font-family="Ubuntu" font-weight="normal" stroke-width="1.0001" x="255.62413" y="380.75528">random seed (decimal)</tspan></text><text x="255.62413" y="395.61005"><tspan font-family="Ubuntu" font-weight="normal" stroke-width="1.0001" x="255.62413" y="395.61005">random seed (hexadecimal)</tspan></text><text x="293.60709" y="439.5546"><tspan font-family="Ubuntu" font-weight="normal" stroke-width="1.0001" x="293.60709" y="439.5546">algorithm name</tspan></text><text x="293.60709" y="454.33319"><tspan font-family="Ubuntu" font-weight="normal" stroke-width="1.0001" x="293.60709" y="454.33319">algorithm class</tspan></text><text x="293.15292" y="468.75842"><tspan font-family="Ubuntu" font-weight="normal" stroke-width="1.0001" x="293.15292" y="468.75842">nullary operator</tspan></text><text x="293.22656" y="512.75842"><tspan font-family="Ubuntu" font-weight="normal" stroke-width="1.0001" x="293.22656" y="512.75842">unary operator</tspan></text><text x="293.69302" y="542.37"><tspan font-family="Ubuntu" font-weight="normal" stroke-width="1.0001" x="293.69302" y="542.37">solution space setup</tspan></text></g><g fill="#fbe58f" stroke="#c9b35d" stroke-linecap="round" stroke-linejoin="round" stroke-width="1.3334"><path d="m587.77 128.28h102.11v17.522h-102.11z"/><path d="m587.77 159.62h164.43v43.171h-164.43z"/><path d="m695.11 292.13h183.52v28.902h-183.52z"/><path d="m683.91 479.87h133.43v17.522h-133.43z"/></g><text font-family="Ubuntu" font-size="12.275" font-weight="bold" stroke-width="1.0001" x="589.36273" y="199.44525"><tspan font-family="Ubuntu" font-weight="normal" stroke-width="1.0001" x="589.36273" y="199.44525">search space setup</tspan></text><text font-family="Ubuntu" font-size="12.275" font-weight="bold" stroke-width="1.0001" x="685.40851" y="493.32388"><tspan font-family="Ubuntu" font-weight="normal" stroke-width="1.0001" x="685.40851" y="493.32388">versions of libaries used</tspan></text><path d="m1126.3 201.83h206.43v17.522h-206.43z" fill="#fbe58f" stroke="#c9b35d" stroke-linecap="round" stroke-linejoin="round" stroke-width="1.3334"/><path d="m1126.9 319.99h171.39v46.246h-171.39z" fill="#fbe58f" stroke="#c9b35d" stroke-linecap="round" stroke-linejoin="round" stroke-width="1.3334"/><g stroke-width="1.0001"><g font-family="Ubuntu" font-size="12.275" font-weight="bold"><text x="1130.6951" y="214.20461"><tspan font-family="Ubuntu" font-weight="normal" stroke-width="1.0001" x="1130.6951" y="214.20461">information about system hardware</tspan></text><text x="1130.4496" y="331.42001"><tspan font-family="Ubuntu" font-weight="normal" stroke-width="1.0001" x="1130.4496" y="331.42001">Python interpreter infos</tspan></text><text x="1130.8792" y="360.70001"><tspan font-family="Ubuntu" font-weight="normal" stroke-width="1.0001" x="1130.8792" y="360.70001">operating system information</tspan></text><text x="589.19086" y="140.66071"><tspan font-family="Ubuntu" font-weight="normal" stroke-width="1.0001" x="589.19086" y="140.66071">objective function</tspan></text><text font-family="Ubuntu" font-weight="normal" stroke-width="1.0001" x="589.19086" y="170.95157"><tspan x="589.19086" y="170.95157">lower and/or upper bound of</tspan><tspan x="589.19086" y="185.0677">objective function, if any</tspan></text><text font-family="Ubuntu" font-weight="normal" stroke-width="1.0001" x="696.63513" y="303.14603"><tspan x="696.63513" y="303.14603">decoder from search to solution</tspan><tspan x="696.63513" y="317.26218">space</tspan></text><text x="119.6565" xml:space="preserve" y="58.852631"><tspan font-family="Ubuntu" font-weight="normal" stroke-width="1.0001" x="119.6565" y="58.852631"><tspan fill="#006400" font-family="Consolas" font-weight="normal">timeMS</tspan> ... consumed runtime in milliseconds</tspan></text><text x="119.55461" xml:space="preserve" y="73.591499"><tspan stroke-width="1.0001" x="119.55461" y="73.591499"><tspan fill="#640064" font-family="Consolas" font-weight="normal">f</tspan> ... objective value of the <tspan font-family="Consolas" font-weight="normal">fes</tspan>-th evaluated solution</tspan></text><g font-family="Ubuntu" font-weight="normal" stroke-width="1.0001"><text x="119.45718" xml:space="preserve" y="90.478477"><tspan x="119.45718" y="90.478477">Here , only  moves improving the best-so-far solution</tspan><tspan x="119.45718" y="104.59461">are logged.</tspan></text><text x="119.81315" xml:space="preserve" y="121.49386"><tspan x="119.81315" y="121.49386">The <tspan fill="#c80000">10th</tspan> solution that was evaluated had objective</tspan><tspan x="119.81315" y="135.61">value <tspan fill="#640064">230</tspan>. Its evaluation was completed <tspan fill="#006400">7ms</tspan> after the</tspan><tspan x="119.81315" y="149.72614">begin of the run.</tspan></text></g></g><text x="360.81927" y="205.8309"><tspan stroke-width="1.0001" x="360.81927" y="205.8309"/></text></g><g fill="none" stroke="#646464" stroke-linecap="round" stroke-linejoin="round" stroke-width="1.3334"><path d="m12.526 71.641h54.618v15.143h-54.618z"/><path d="m67.144 86.784 49.657 27.759"/><path d="m134.55 198.47 43.468-2.5218"/><path d="m81.959 212.65 96.059-1.6204"/><path d="m156.95 229.22h47.653"/><path d="m200.71 243.2h3.8909"/><path d="m96.698 183.32h81.319"/></g></svg>