<svg height="100.63pt" viewBox="0 0 261.78 134.18" width="196.34pt" xmlns="http://www.w3.org/2000/svg" xmlns:xlink="http://www.w3.org/1999/xlink"><radialGradient id="a" cx="109.3" cy="514.1" gradientTransform="matrix(1.414 0 0 .7071 -26.26 -298.5)" gradientUnits="userSpaceOnUse" r="180.4"><stop offset="0" stop-color="#ee7005"/><stop offset="1" stop-color="#fff"/></radialGradient><path d="m38.170218 106.53413c.0668-.0007.1328-.002.1991.0003zm63.210002 11.7c22.88 17.82 57.04 15.15 72.01-8.187 8.716 7.183 52.51 3.126 52.51-18.71.29484-1.783795 1.14573-5.161645 2.97652-6.618986 13.07992-10.411888 17.67706-3.41305 28.39592-14.703786 3.11062-3.27658 1.18028-13.0459-4.37244-23.127228 7.609-10.15 6.853-28.18-19.5-28.07-.0612-.1302-.1237-.2607-.1884-.3916-5.537-11.2199999-23.47-23.8899999-52.32-10.1299999-8.87-6.917-43.51-10.09-43.51 3.5089999-8.386-12.8899999-55.720002-7.6559999-51.010002 5.848-.1884-.0734-.3768-.1459-.5657-.2173-27.96-10.5799999-59.05.8116-59.44 26.63.0034.0137.0034.0277.003.0414-.0022.1492-.003.2991-.003.4493-20.7800002 0-34.2400002 23.5-10.5 32.75-18.5200002 14.45.5485 29.1 22.2 29.24h-1.192c17.6 13.72 40.17 21.18 64.510002 11.7z" fill="url(#a)"/><g stroke-linecap="round" stroke-linejoin="round"><path d="m26.411 45.046c.1224 1.726 1 2.666 1.5 3.999m-1.5-3.509c-20.78 0-34.24 23.5-10.5 32.75-18.17 14.18-.1489 28.55 20.99 29.22m.0159.024c17.6 13.72 40.17 21.18 64.51 11.7 22.88 17.82 57.04 15.15 72.01-8.187 8.716 7.183 52.51 3.125 52.51-18.71s48.52-5.379 27-44.45c7.609-10.15 6.853-28.18-19.5-28.07-5.309-11.32-23.32-24.44-52.51-10.53-8.87-6.917-43.51-10.09-43.51 3.509-8.387-12.89-55.72-7.656-51.01 5.848-28.28-11.02-60.01.5637-60.01 26.9m-10.5 32.75c3.765 1.374 9.002 2.339 15 2.339m6 26.9c2.828 0 6.351-.8279 8.257-1.709m50.88 6.071c.4201 2.13 2.903 5.406 5.376 7.334m72.01-8.187c.7816-1.76 1.5-2.474 1.5-4.678m51.01-14.04c0-7.577-7.567-21.05-19.5-21.05m34.6-16.88c6.292-1.224 8.238-2.873 11.91-6.513m-21.5-19.52c3.722-2.935 3.52-5.337 1.81-8.938m-52.32-10.13c-1.932 1.043-3.54 2.875-4.5 4.678m-39.01-1.169c.9013 2.321 1.043 4.769.2024 6.006m-46.21 4.837c-1.242-2.286-2.875-3.816-5.566-5.213" fill="none" stroke="#fff" stroke-width="4"/><path d="m26.411 45.536c-20.78 0-34.24 23.5-10.5 32.75-18.18 14.18-.1404 28.56 21 29.21m-10.5-62.45c.1224 1.726 1 2.666 1.5 3.999m63.51-25.41c-1.242-2.286-2.875-3.816-5.566-5.213m51.57-5.631c.9013 2.321 1.043 4.769.2024 6.006m43.3-9.515c-1.932 1.043-3.54 2.875-4.5 4.678m55.01 14.4c3.722-2.935 3.52-5.337 1.81-8.938m7.784 34.98c6.292-1.224 8.238-2.873 11.91-6.513m-27 44.45c0-7.577-7.567-21.05-19.5-21.05m-33.01 39.77c.7816-1.76 1.5-2.474 1.5-4.678m-78.89 5.531c.4201 2.13 2.903 5.406 5.376 7.334m-64.51-11.72c2.828 0 6.351-.8019 8.257-1.683m-29.26-27.53c3.765 1.374 9.002 2.339 15 2.339m6 26.9c17.6 13.72 40.17 21.18 64.51 11.7 22.88 17.82 57.04 15.15 72.01-8.187 8.716 7.183 52.51 3.125 52.51-18.71s48.52-5.379 27-44.45c7.609-10.15 6.853-28.18-19.5-28.07-5.309-11.32-23.32-24.44-52.51-10.53-8.87-6.917-43.51-10.09-43.51 3.509-8.387-12.89-55.72-7.656-51.01 5.848-28.28-11.02-60.01.5637-60.01 26.9" fill="none" stroke="#b5161e" stroke-width="2"/><g fill="#b5151e" font-family="DejaVu Sans" stroke="#b6151e" stroke-opacity=".4" stroke-width=".4"><text x="96.363297" y="21.931032"><tspan style="fill:#b5151e;font-family:DejaVu Sans;font-size:8;stroke:#b6151e;stroke-linecap:round;stroke-linejoin:round;stroke-opacity:.4;stroke-width:.4">biggest ...</tspan></text><text x="163.18079" y="66.677345"><tspan style="fill:#b5151e;font-family:DejaVu Sans;font-size:8;stroke:#b6151e;stroke-linecap:round;stroke-linejoin:round;stroke-opacity:.4;stroke-width:.4">cheapest ...</tspan></text><text x="93.076225" y="64.307014"><tspan style="fill:#b5151e;font-family:DejaVu Sans;font-size:8;stroke:#b6151e;stroke-linecap:round;stroke-linejoin:round;stroke-opacity:.4;stroke-width:.4">most precise ...</tspan></text><text x="42.86058" y="76.179443"><tspan style="fill:#b5151e;font-family:DejaVu Sans;font-size:8;stroke:#b6151e;stroke-linecap:round;stroke-linejoin:round;stroke-opacity:.4;stroke-width:.4">most similar to ...</tspan></text><text x="16.167881" y="62.092319"><tspan style="fill:#b5151e;font-family:DejaVu Sans;font-size:8;stroke:#b6151e;stroke-linecap:round;stroke-linejoin:round;stroke-opacity:.4;stroke-width:.4">most efficient ...</tspan></text><text x="164.43559" y="97.103737"><tspan style="fill:#b5151e;font-family:DejaVu Sans;font-size:8;stroke:#b6151e;stroke-linecap:round;stroke-linejoin:round;stroke-opacity:.4;stroke-width:.4">most robust ...</tspan></text><text x="113.52237" y="50.44022"><tspan style="fill:#b5151e;font-family:DejaVu Sans;font-size:8;stroke:#b6151e;stroke-linecap:round;stroke-linejoin:round;stroke-opacity:.4;stroke-width:.4">...longest possible duration</tspan></text><text style="fill:#b5151e;font-family:DejaVu Sans;font-size:8;stroke:#b6151e;stroke-opacity:.4;stroke-width:.4" x="216.07957" y="64.635628"><tspan>fastest</tspan><tspan>...</tspan></text><text x="114.55637" y="81.168121"><tspan style="fill:#b5151e;font-family:DejaVu Sans;font-size:8;stroke:#b6151e;stroke-linecap:round;stroke-linejoin:round;stroke-opacity:.4;stroke-width:.4">...with the highest score</tspan></text><text x="40.286381" y="50.851231"><tspan style="fill:#b5151e;font-family:DejaVu Sans;font-size:8;stroke:#b6151e;stroke-linecap:round;stroke-linejoin:round;stroke-opacity:.4;stroke-width:.4">...highest quality</tspan></text><text x="136.08673" y="29.930208"><tspan style="fill:#b5151e;font-family:DejaVu Sans;font-size:8;stroke:#b6151e;stroke-linecap:round;stroke-linejoin:round;stroke-opacity:.4;stroke-width:.4">with the least energy...</tspan></text><text x="102.18047" y="112.73901"><tspan style="fill:#b5151e;font-family:DejaVu Sans;font-size:8;stroke:#b6151e;stroke-linecap:round;stroke-linejoin:round;stroke-opacity:.4;stroke-width:.4">...shortest delay</tspan></text><text x="18.911777" y="96.946846"><tspan style="fill:#b5151e;font-family:DejaVu Sans;font-size:8;stroke:#b6151e;stroke-linecap:round;stroke-linejoin:round;stroke-opacity:.4;stroke-width:.4">... on the smallest possible area</tspan></text><text style="fill:#b5151e;font-family:DejaVu Sans;font-size:8;stroke:#b6151e;stroke-opacity:.4;stroke-width:.4" x="37.455181" y="37.976135"><tspan>...</tspan><tspan>best trade-offs between ....</tspan></text></g></g></svg>