<svg height="100.63pt" viewBox="0 0 261.78 134.18" width="196.34pt" xmlns="http://www.w3.org/2000/svg" xmlns:xlink="http://www.w3.org/1999/xlink"><radialGradient id="a" cx="109.3" cy="514.1" gradientTransform="matrix(1.414 0 0 .7071 -26.26 -298.5)" gradientUnits="userSpaceOnUse" r="180.4"><stop offset="0" stop-color="#ee7005"/><stop offset="1" stop-color="#fff"/></radialGradient><path d="m38.17 106.53c.0668-.0007.1328-.002.1991.0003zm63.21 11.7c22.88 17.82 57.04 15.15 72.01-8.187 8.716 7.183 52.51 3.126 52.51-18.71.29484-1.7838 1.1457-5.1616 2.9765-6.619 13.08-10.412 17.677-3.413 28.396-14.704 3.1106-3.2766 1.1803-13.046-4.3724-23.127 7.609-10.15 6.853-28.18-19.5-28.07-.0612-.1302-.1237-.2607-.1884-.3916-5.537-11.22-23.47-23.89-52.32-10.13-8.87-6.917-43.51-10.09-43.51 3.509-8.386-12.89-55.72-7.656-51.01 5.848-.1884-.0734-.3768-.1459-.5657-.2173-27.96-10.58-59.05.8116-59.44 26.63.0034.0137.0034.0277.003.0414-.0022.1492-.003.2991-.003.4493-20.78 0-34.24 23.5-10.5 32.75-18.52 14.45.5485 29.1 22.2 29.24h-1.192c17.6 13.72 40.17 21.18 64.51 11.7z" fill="url(#a)"/><g stroke-linecap="round" stroke-linejoin="round"><path d="m26.411 45.046c.1224 1.726 1 2.666 1.5 3.999m-1.5-3.509c-20.78 0-34.24 23.5-10.5 32.75-18.17 14.18-.1489 28.55 20.99 29.22m.0159.024c17.6 13.72 40.17 21.18 64.51 11.7 22.88 17.82 57.04 15.15 72.01-8.187 8.716 7.183 52.51 3.125 52.51-18.71s48.52-5.379 27-44.45c7.609-10.15 6.853-28.18-19.5-28.07-5.309-11.32-23.32-24.44-52.51-10.53-8.87-6.917-43.51-10.09-43.51 3.509-8.387-12.89-55.72-7.656-51.01 5.848-28.28-11.02-60.01.5637-60.01 26.9m-10.5 32.75c3.765 1.374 9.002 2.339 15 2.339m6 26.9c2.828 0 6.351-.8279 8.257-1.709m50.88 6.071c.4201 2.13 2.903 5.406 5.376 7.334m72.01-8.187c.7816-1.76 1.5-2.474 1.5-4.678m51.01-14.04c0-7.577-7.567-21.05-19.5-21.05m34.6-16.88c6.292-1.224 8.238-2.873 11.91-6.513m-21.5-19.52c3.722-2.935 3.52-5.337 1.81-8.938m-52.32-10.13c-1.932 1.043-3.54 2.875-4.5 4.678m-39.01-1.169c.9013 2.321 1.043 4.769.2024 6.006m-46.21 4.837c-1.242-2.286-2.875-3.816-5.566-5.213" fill="none" stroke="#fff" stroke-width="4"/><path d="m26.411 45.536c-20.78 0-34.24 23.5-10.5 32.75-18.18 14.18-.1404 28.56 21 29.21m-10.5-62.45c.1224 1.726 1 2.666 1.5 3.999m63.51-25.41c-1.242-2.286-2.875-3.816-5.566-5.213m51.57-5.631c.9013 2.321 1.043 4.769.2024 6.006m43.3-9.515c-1.932 1.043-3.54 2.875-4.5 4.678m55.01 14.4c3.722-2.935 3.52-5.337 1.81-8.938m7.784 34.98c6.292-1.224 8.238-2.873 11.91-6.513m-27 44.45c0-7.577-7.567-21.05-19.5-21.05m-33.01 39.77c.7816-1.76 1.5-2.474 1.5-4.678m-78.89 5.531c.4201 2.13 2.903 5.406 5.376 7.334m-64.51-11.72c2.828 0 6.351-.8019 8.257-1.683m-29.26-27.53c3.765 1.374 9.002 2.339 15 2.339m6 26.9c17.6 13.72 40.17 21.18 64.51 11.7 22.88 17.82 57.04 15.15 72.01-8.187 8.716 7.183 52.51 3.125 52.51-18.71s48.52-5.379 27-44.45c7.609-10.15 6.853-28.18-19.5-28.07-5.309-11.32-23.32-24.44-52.51-10.53-8.87-6.917-43.51-10.09-43.51 3.509-8.387-12.89-55.72-7.656-51.01 5.848-28.28-11.02-60.01.5637-60.01 26.9" fill="none" stroke="#b5161e" stroke-width="2"/><g font-family="DejaVu Sans"><g fill="#b5151e" stroke="#b6151e" stroke-opacity=".4" stroke-width=".4"><text x="96.363297" y="21.931032"><tspan style="fill:#b5151e;font-family:DejaVu Sans;font-size:8;stroke:#b6151e;stroke-linecap:round;stroke-linejoin:round;stroke-opacity:.4;stroke-width:.4">biggest ...</tspan></text><text x="163.18079" y="66.677345"><tspan style="fill:#b5151e;font-family:DejaVu Sans;font-size:8;stroke:#b6151e;stroke-linecap:round;stroke-linejoin:round;stroke-opacity:.4;stroke-width:.4">cheapest ...</tspan></text><text x="92.87207" y="69.846474"><tspan style="fill:#b5151e;font-family:DejaVu Sans;font-size:8;stroke:#b6151e;stroke-linecap:round;stroke-linejoin:round;stroke-opacity:.4;stroke-width:.4">most precise ...</tspan></text><text x="38.415932" y="81.943512"><tspan style="fill:#b5151e;font-family:DejaVu Sans;font-size:8;stroke:#b6151e;stroke-linecap:round;stroke-linejoin:round;stroke-opacity:.4;stroke-width:.4">fewest boxes</tspan></text><text x="15.55541" y="67.326164"><tspan style="fill:#b5151e;font-family:DejaVu Sans;font-size:8;stroke:#b6151e;stroke-linecap:round;stroke-linejoin:round;stroke-opacity:.4;stroke-width:.4">most efficient ...</tspan></text><text x="164.43559" y="97.103737"><tspan style="fill:#b5151e;font-family:DejaVu Sans;font-size:8;stroke:#b6151e;stroke-linecap:round;stroke-linejoin:round;stroke-opacity:.4;stroke-width:.4">most robust ...</tspan></text><text x="114.52745" y="52.675972"><tspan style="fill:#b5151e;font-family:DejaVu Sans;font-size:8;stroke:#b6151e;stroke-linecap:round;stroke-linejoin:round;stroke-opacity:.4;stroke-width:.4">...longest possible duration</tspan></text><text font-size="8" x="216.07957" y="64.635628"><tspan>fastest</tspan><tspan>...</tspan></text><text x="110.82816" y="84.73526"><tspan style="fill:#b5151e;font-family:DejaVu Sans;font-size:8;stroke:#b6151e;stroke-linecap:round;stroke-linejoin:round;stroke-opacity:.4;stroke-width:.4">...with the highest score</tspan></text><text x="39.738297" y="54.02124"><tspan style="fill:#b5151e;font-family:DejaVu Sans;font-size:8;stroke:#b6151e;stroke-linecap:round;stroke-linejoin:round;stroke-opacity:.4;stroke-width:.4">...highest quality</tspan></text><text style="fill:#b5151e;font-family:DejaVu Sans;font-size:8;stroke:#b6151e;stroke-linecap:round;stroke-linejoin:round;stroke-opacity:.4;stroke-width:.4;text-anchor:end" x="227.06329" y="26.683388"><tspan x="227.06329" y="26.683388">with the least amount</tspan><tspan x="227.06329" y="37.056252">of fuel...</tspan></text></g><text fill="#f00" stroke="#f00" stroke-opacity=".9941" x="105.03517" y="114.51283"><tspan style="fill:#f00;font-family:DejaVu Sans;font-size:8;stroke:#f00;stroke-linecap:round;stroke-linejoin:round;stroke-opacity:.9941">...shortest path</tspan></text><g fill="#b5151e" stroke="#b6151e" stroke-opacity=".4" stroke-width=".4"><text x="19.441015" y="99.624046"><tspan style="fill:#b5151e;font-family:DejaVu Sans;font-size:8;stroke:#b6151e;stroke-linecap:round;stroke-linejoin:round;stroke-opacity:.4;stroke-width:.4">...the longest possible duration</tspan></text><text font-size="8" x="34.504101" y="40.716316">...at the earliest possibe time</text></g></g></g></svg>